<svg width="69" height="201" viewBox="0 0 69 201" fill="none" xmlns="http://www.w3.org/2000/svg">
<path d="M20.3536 180.847L20.4325 180.353L20.4324 180.353L20.3536 180.847ZM9.25006 179.074L9.32891 178.58L9.31529 178.578L9.25006 179.074ZM7.62408 178.913L7.63836 178.413L7.63122 178.413L7.62408 178.413L7.62408 178.913ZM6.40826 179.338L6.81334 179.631L6.81987 179.622L6.40826 179.338ZM6.10065 180.876L6.01068 181.368L6.60065 181.476L6.60065 180.876L6.10065 180.876ZM4.89947 180.656L4.39947 180.656L4.39947 181.073L4.8095 181.148L4.89947 180.656ZM4.89947 174.064L4.98167 173.571L4.39947 173.474L4.39947 174.064L4.89947 174.064ZM5.95416 174.24L6.43888 174.118L6.3587 173.801L6.03636 173.747L5.95416 174.24ZM6.55475 176.613L6.07003 176.736L6.15093 177.056L6.47663 177.107L6.55475 176.613ZM20.3536 178.796L20.2755 179.29L20.2768 179.29L20.3536 178.796ZM26.3448 181.755L26.7175 181.422L26.7163 181.42L26.3448 181.755ZM20.3536 194.455L20.2756 194.949L20.2781 194.949L20.3536 194.455ZM9.22076 192.697L9.29876 192.203L9.28955 192.202L9.22076 192.697ZM7.65338 192.536L7.66766 192.036L7.66052 192.036L7.65338 192.036L7.65338 192.536ZM6.42291 192.976L6.82621 193.271L6.83253 193.262L6.42291 192.976ZM6.10065 194.514L6.0165 195.007L6.60065 195.106L6.60065 194.514L6.10065 194.514ZM4.89947 194.309L4.39947 194.309L4.39947 194.73L4.81533 194.801L4.89947 194.309ZM4.89947 186.062L4.98167 185.568L4.39947 185.471L4.39947 186.062L4.89947 186.062ZM5.95416 186.237L6.43923 186.116L6.35972 185.798L6.03636 185.744L5.95416 186.237ZM6.55475 188.64L6.06968 188.761L6.14981 189.081L6.47612 189.133L6.55475 188.64ZM20.3536 190.837L20.4371 190.344L20.4322 190.343L20.3536 190.837ZM25.671 189.914L26.0126 190.279L26.015 190.277L25.671 189.914ZM25.1876 182.912L25.5345 182.552L25.5329 182.551L25.1876 182.912ZM20.4324 180.353L9.32888 178.58L9.17124 179.568L20.2748 181.34L20.4324 180.353ZM9.31529 178.578C8.57118 178.481 8.00756 178.424 7.63836 178.413L7.6098 179.413C7.9242 179.422 8.44457 179.473 9.18483 179.57L9.31529 178.578ZM7.62408 178.413C6.97058 178.413 6.33925 178.557 5.99666 179.054L6.81987 179.622C6.8679 179.552 7.04711 179.413 7.62408 179.413L7.62408 178.413ZM6.00329 179.045C5.6974 179.467 5.60065 180.124 5.60065 180.876L6.60065 180.876C6.60065 180.143 6.70897 179.775 6.81323 179.631L6.00329 179.045ZM6.19062 180.384L4.98944 180.164L4.8095 181.148L6.01068 181.368L6.19062 180.384ZM5.39947 180.656L5.39947 174.064L4.39947 174.064L4.39947 180.656L5.39947 180.656ZM4.81727 174.558L5.87196 174.733L6.03636 173.747L4.98167 173.571L4.81727 174.558ZM5.46944 174.363L6.07003 176.736L7.03946 176.491L6.43888 174.118L5.46944 174.363ZM6.47663 177.107L20.2755 179.29L20.4317 178.302L6.63286 176.119L6.47663 177.107ZM20.2768 179.29C22.7686 179.677 24.6509 180.621 25.9733 182.089L26.7163 181.42C25.2067 179.744 23.0948 178.716 20.4303 178.302L20.2768 179.29ZM25.9721 182.088C27.2804 183.551 27.9542 185.479 27.9542 187.922L28.9542 187.922C28.9542 185.286 28.2217 183.103 26.7175 181.422L25.9721 182.088ZM27.9542 187.922C27.9542 189.997 27.4203 191.51 26.4246 192.54L27.1438 193.235C28.3748 191.961 28.9542 190.164 28.9542 187.922L27.9542 187.922ZM26.4246 192.54C25.4265 193.573 24.0258 194.116 22.1553 194.116L22.1553 195.116C24.2301 195.116 25.9154 194.507 27.1438 193.235L26.4246 192.54ZM22.1553 194.116C21.6907 194.116 21.1169 194.066 20.4291 193.961L20.2781 194.949C20.9965 195.059 21.6238 195.116 22.1553 195.116L22.1553 194.116ZM20.4316 193.961L9.29875 192.203L9.14278 193.191L20.2756 194.949L20.4316 193.961ZM9.28955 192.202C8.58324 192.104 8.03824 192.047 7.66766 192.036L7.6391 193.036C7.95211 193.045 8.45204 193.095 9.15198 193.193L9.28955 192.202ZM7.65338 192.036C6.99118 192.036 6.36305 192.189 6.0133 192.689L6.83253 193.262C6.89293 193.176 7.08512 193.036 7.65338 193.036L7.65338 192.036ZM6.01971 192.68C5.70414 193.11 5.60065 193.765 5.60065 194.514L6.60065 194.514C6.60065 193.798 6.712 193.427 6.82611 193.271L6.01971 192.68ZM6.18479 194.021L4.98362 193.816L4.81533 194.801L6.0165 195.007L6.18479 194.021ZM5.39947 194.309L5.39947 186.062L4.39947 186.062L4.39947 194.309L5.39947 194.309ZM4.81727 186.555L5.87196 186.731L6.03636 185.744L4.98167 185.568L4.81727 186.555ZM5.46909 186.359L6.06968 188.761L7.03982 188.518L6.43923 186.116L5.46909 186.359ZM6.47612 189.133L20.2749 191.331L20.4322 190.343L6.63338 188.146L6.47612 189.133ZM20.27 191.33C20.878 191.433 21.5362 191.483 22.2432 191.483L22.2432 190.483C21.5831 190.483 20.9815 190.436 20.4371 190.344L20.27 191.33ZM22.2432 191.483C23.8358 191.483 25.1233 191.111 26.0126 190.279L25.3293 189.549C24.6952 190.142 23.6975 190.483 22.2432 190.483L22.2432 191.483ZM26.015 190.277C26.8934 189.444 27.2989 188.271 27.2989 186.838L26.2989 186.838C26.2989 188.081 25.9524 188.958 25.327 189.551L26.015 190.277ZM27.2989 186.838C27.2989 185.129 26.7129 183.688 25.5345 182.552L24.8406 183.272C25.8106 184.207 26.2989 185.383 26.2989 186.838L27.2989 186.838ZM25.5329 182.551C24.3496 181.42 22.6287 180.704 20.4325 180.353L20.2747 181.34C22.3558 181.673 23.8576 182.333 24.8422 183.274L25.5329 182.551ZM24.8506 174.152L24.7729 174.646L24.7815 174.648L24.8506 174.152ZM8.64947 171.604L8.55798 172.095L8.57177 172.097L8.64947 171.604ZM7.38971 171.472L7.40134 170.972L7.38971 170.972L7.38971 171.472ZM5.79303 173.039L5.7097 173.532L6.29303 173.631L6.29303 173.039L5.79303 173.039ZM4.75299 172.863L4.25504 172.909L4.28991 173.292L4.66966 173.356L4.75299 172.863ZM4.37213 170.197L4.86322 170.103L4.86242 170.099L4.37213 170.197ZM3.87408 168.059L3.38737 168.173L3.39052 168.186L3.3944 168.2L3.87408 168.059ZM3.6983 167.312L3.77595 166.818L3.04125 166.702L3.21159 167.426L3.6983 167.312ZM24.8506 170.637L24.773 171.131L24.8116 171.137L24.8506 171.137L24.8506 170.637ZM23.8253 168.659L23.6058 169.109L23.6144 169.113L23.8253 168.659ZM23.1954 168.352L22.7681 168.092L22.4834 168.56L22.976 168.801L23.1954 168.352ZM23.6495 167.604L23.8076 167.13L23.4293 167.004L23.2222 167.345L23.6495 167.604ZM24.1475 167.795L23.9581 168.258L23.9695 168.262L24.1475 167.795ZM25.2754 168.352L25.0393 168.792L25.0422 168.794L25.2754 168.352ZM27.795 170.52L28.2159 170.25L28.2122 170.244L27.795 170.52ZM24.9284 173.658L8.72718 171.11L8.57177 172.097L24.7729 174.646L24.9284 173.658ZM8.74093 171.112C8.29511 171.029 7.84849 170.982 7.40133 170.972L7.37808 171.972C7.77077 171.981 8.164 172.022 8.55802 172.095L8.74093 171.112ZM7.38971 170.972C6.74971 170.972 6.15572 171.103 5.77719 171.513L6.51199 172.192C6.60221 172.094 6.83829 171.972 7.38971 171.972L7.38971 170.972ZM5.77719 171.513C5.42095 171.899 5.29303 172.443 5.29303 173.039L6.29303 173.039C6.29303 172.561 6.39948 172.314 6.51199 172.192L5.77719 171.513ZM5.87635 172.546L4.83631 172.37L4.66966 173.356L5.7097 173.532L5.87635 172.546ZM5.25094 172.818C5.17121 171.941 5.04183 171.036 4.86321 170.103L3.88105 170.291C4.054 171.194 4.17852 172.067 4.25504 172.909L5.25094 172.818ZM4.86242 170.099C4.67591 169.167 4.5065 168.437 4.35377 167.918L3.3944 168.2C3.53464 168.676 3.69725 169.372 3.88184 170.295L4.86242 170.099ZM4.36079 167.944L4.18501 167.197L3.21159 167.426L3.38737 168.173L4.36079 167.944ZM3.62065 167.805L24.773 171.131L24.9283 170.143L3.77595 166.818L3.62065 167.805ZM24.8506 171.137C24.843 171.137 24.8372 171.136 24.8339 171.136C24.8305 171.136 24.8282 171.136 24.8274 171.136C24.8261 171.136 24.8275 171.136 24.8326 171.137C24.8429 171.138 24.86 171.14 24.8856 171.145L25.05 170.158C24.9988 170.15 24.9186 170.137 24.8506 170.137L24.8506 171.137ZM24.8856 171.145C24.9589 171.157 25.0375 171.166 25.1143 171.166L25.1143 170.166C25.115 170.166 25.11 170.166 25.0982 170.165C25.0866 170.164 25.0707 170.162 25.05 170.158L24.8856 171.145ZM25.1143 171.166C25.3626 171.166 25.6353 171.128 25.8596 170.982C26.121 170.812 26.2442 170.543 26.2442 170.256L25.2442 170.256C25.2442 170.26 25.2437 170.239 25.2598 170.207C25.2767 170.174 25.2999 170.154 25.3139 170.144C25.3246 170.138 25.3194 170.144 25.2838 170.152C25.2486 170.159 25.1937 170.166 25.1143 170.166L25.1143 171.166ZM26.2442 170.256C26.2442 169.984 26.125 169.748 25.9789 169.558C25.8316 169.368 25.6295 169.188 25.3938 169.017L24.8056 169.825C24.9995 169.966 25.1197 170.082 25.1873 170.17C25.2559 170.259 25.2442 170.284 25.2442 170.256L26.2442 170.256ZM25.3938 169.017C24.9417 168.688 24.4892 168.417 24.0361 168.206L23.6144 169.113C24.0012 169.292 24.3983 169.529 24.8056 169.825L25.3938 169.017ZM24.0447 168.21L23.4148 167.902L22.976 168.801L23.6058 169.108L24.0447 168.21ZM23.6226 168.611L24.0767 167.864L23.2222 167.345L22.7681 168.092L23.6226 168.611ZM23.4914 168.079C23.5926 168.113 23.7464 168.171 23.9582 168.258L24.3368 167.332C24.119 167.243 23.9408 167.175 23.8076 167.13L23.4914 168.079ZM23.9695 168.262C24.1402 168.327 24.489 168.497 25.0393 168.792L25.5116 167.911C24.9682 167.62 24.565 167.419 24.3255 167.328L23.9695 168.262ZM25.0422 168.794C25.5559 169.065 25.9968 169.35 26.3682 169.649L26.9952 168.87C26.5658 168.525 26.0692 168.205 25.5087 167.909L25.0422 168.794ZM26.3682 169.649C26.721 169.933 27.0587 170.312 27.3777 170.795L28.2122 170.244C27.8476 169.692 27.4432 169.231 26.9952 168.87L26.3682 169.649ZM27.3741 170.79C27.6591 171.234 27.793 171.683 27.793 172.146L28.793 172.146C28.793 171.475 28.5949 170.841 28.2158 170.25L27.3741 170.79ZM27.793 172.146C27.793 172.752 27.6268 173.12 27.3764 173.345C27.1159 173.579 26.6755 173.74 25.9639 173.74L25.9639 174.74C26.805 174.74 27.5293 174.552 28.0451 174.088C28.571 173.615 28.793 172.935 28.793 172.146L27.793 172.146ZM25.9639 173.74C25.6707 173.74 25.3235 173.713 24.9197 173.657L24.7815 174.648C25.2177 174.708 25.6127 174.74 25.9639 174.74L25.9639 173.74ZM15.4024 160.31L15.4989 160.8L15.5029 160.799L15.4024 160.31ZM22.9024 158.771L22.9024 158.271L22.8517 158.271L22.802 158.282L22.9024 158.771ZM24.543 158.771L24.543 159.271L25.043 159.271L25.043 158.771L24.543 158.771ZM24.543 158.654L25.043 158.654L25.043 158.35L24.7725 158.21L24.543 158.654ZM16.6036 154.553L16.8331 154.109L16.7028 154.041L16.5569 154.055L16.6036 154.553ZM12.8536 154.904L12.3554 154.948L12.399 155.449L12.9002 155.402L12.8536 154.904ZM12.546 151.359L12.4839 150.863L12.0062 150.923L12.0478 151.403L12.546 151.359ZM14.421 151.594L14.224 152.053L14.2334 152.057L14.421 151.594ZM16.6036 152.648L16.8367 152.206L16.8322 152.204L16.6036 152.648ZM28.0001 158.654L27.767 159.097L27.7674 159.097L28.0001 158.654ZM35.046 167.048L34.5638 166.915L34.5616 166.924L35.046 167.048ZM34.753 167.897L34.3104 167.665L34.3058 167.674L34.753 167.897ZM34.6065 168.19L34.4449 168.664L34.8584 168.805L35.0537 168.414L34.6065 168.19ZM31.003 166.96L30.503 166.96L30.503 167.318L30.8414 167.433L31.003 166.96ZM31.003 165.612L30.8726 165.13L30.503 165.229L30.503 165.612L31.003 165.612ZM33.5518 164.924L33.6822 165.407L34.1614 165.277L34.0355 164.797L33.5518 164.924ZM28.0001 160.397L28.2354 159.956L27.5001 159.564L27.5001 160.397L28.0001 160.397ZM28.0001 161.35L28.1029 161.839L28.5001 161.755L28.5001 161.35L28.0001 161.35ZM16.296 163.811L16.3917 164.301L16.3988 164.3L16.296 163.811ZM15.7247 165.568L15.4202 165.965L15.4262 165.969L15.7247 165.568ZM17.0137 166.33L16.8107 166.787L16.8116 166.787L17.0137 166.33ZM17.6436 166.608L18.07 166.869L18.3685 166.382L17.8457 166.151L17.6436 166.608ZM17.2042 167.326L17.0668 167.807L17.4322 167.911L17.6306 167.587L17.2042 167.326ZM16.6768 167.15L16.4875 167.613L16.4967 167.617L16.5059 167.62L16.6768 167.15ZM15.5342 166.594L15.2981 167.035L15.3043 167.038L15.5342 166.594ZM14.084 165.686L13.7796 166.082L13.7855 166.087L14.084 165.686ZM12.9268 164.426L12.5108 164.703L12.5132 164.707L12.9268 164.426ZM13.044 161.188L13.3607 161.575L13.3658 161.571L13.044 161.188ZM15.5029 160.799L23.0029 159.261L22.802 158.282L15.302 159.82L15.5029 160.799ZM22.9024 159.271L24.543 159.271L24.543 158.271L22.9024 158.271L22.9024 159.271ZM25.043 158.771L25.043 158.654L24.043 158.654L24.043 158.771L25.043 158.771ZM24.7725 158.21L16.8331 154.109L16.3741 154.997L24.3135 159.099L24.7725 158.21ZM16.5569 154.055L12.8069 154.406L12.9002 155.402L16.6502 155.051L16.5569 154.055ZM13.3517 154.861L13.0441 151.316L12.0478 151.403L12.3554 154.948L13.3517 154.861ZM12.608 151.856C12.737 151.839 12.9054 151.83 13.1172 151.83L13.1172 150.83C12.8799 150.83 12.6674 150.84 12.4839 150.863L12.608 151.856ZM13.1172 151.83C13.5105 151.83 13.8779 151.905 14.224 152.053L14.6179 151.134C14.1437 150.931 13.642 150.83 13.1172 150.83L13.1172 151.83ZM14.2334 152.057C14.6198 152.214 15.3286 152.555 16.375 153.093L16.8322 152.204C15.7887 151.667 15.0424 151.306 14.6086 151.13L14.2334 152.057ZM16.3705 153.091L27.767 159.097L28.2332 158.212L16.8367 152.206L16.3705 153.091ZM27.7674 159.097C30.4132 160.488 32.2223 161.699 33.2406 162.727L33.9509 162.023C32.8208 160.883 30.8994 159.614 28.2327 158.212L27.7674 159.097ZM33.2406 162.727C34.2447 163.74 34.7071 164.782 34.7071 165.861L35.7071 165.861C35.7071 164.46 35.0952 163.178 33.9509 162.023L33.2406 162.727ZM34.7071 165.861C34.7071 166.216 34.6595 166.567 34.5639 166.915L35.5281 167.18C35.6472 166.747 35.7071 166.307 35.7071 165.861L34.7071 165.861ZM34.5616 166.924C34.4668 167.294 34.3806 167.531 34.3105 167.665L35.1954 168.13C35.3207 167.892 35.4298 167.564 35.5303 167.172L34.5616 166.924ZM34.3058 167.674L34.1593 167.967L35.0537 168.414L35.2002 168.121L34.3058 167.674ZM34.7681 167.717L31.1646 166.487L30.8414 167.433L34.4449 168.664L34.7681 167.717ZM31.503 166.96L31.503 165.612L30.503 165.612L30.503 166.96L31.503 166.96ZM31.1334 166.095L33.6822 165.407L33.4214 164.441L30.8726 165.13L31.1334 166.095ZM34.0355 164.797C33.8404 164.053 33.2585 163.321 32.4124 162.596L31.7616 163.355C32.556 164.036 32.9508 164.603 33.0682 165.051L34.0355 164.797ZM32.4124 162.596C31.5489 161.856 30.1466 160.976 28.2354 159.956L27.7648 160.839C29.6621 161.851 30.9845 162.689 31.7616 163.355L32.4124 162.596ZM27.5001 160.397L27.5001 161.35L28.5001 161.35L28.5001 160.397L27.5001 160.397ZM27.8972 160.86L16.1931 163.321L16.3988 164.3L28.1029 161.839L27.8972 160.86ZM16.2002 163.32C15.7665 163.404 15.3809 163.539 15.0935 163.756C14.7852 163.989 14.5948 164.317 14.5948 164.719L15.5948 164.719C15.5948 164.671 15.6046 164.623 15.6966 164.554C15.8097 164.468 16.0247 164.373 16.3917 164.301L16.2002 163.32ZM14.5948 164.719C14.5948 164.986 14.7091 165.221 14.8506 165.412C14.9934 165.605 15.1899 165.788 15.4203 165.965L16.0291 165.172C15.8395 165.026 15.7211 164.907 15.6539 164.816C15.5855 164.724 15.5948 164.695 15.5948 164.719L14.5948 164.719ZM15.4262 165.969C15.8731 166.302 16.3346 166.575 16.8107 166.787L17.2168 165.873C16.8139 165.694 16.416 165.46 16.0232 165.167L15.4262 165.969ZM16.8116 166.787L17.4415 167.066L17.8457 166.151L17.2158 165.873L16.8116 166.787ZM17.2172 166.347L16.7777 167.065L17.6306 167.587L18.07 166.869L17.2172 166.347ZM17.3415 166.845C17.2208 166.811 17.0572 166.757 16.8477 166.68L16.5059 167.62C16.7261 167.7 16.9141 167.763 17.0668 167.807L17.3415 166.845ZM16.8661 166.688C16.6748 166.609 16.3125 166.434 15.7642 166.15L15.3043 167.038C15.8497 167.32 16.2492 167.516 16.4875 167.613L16.8661 166.688ZM15.7703 166.153C15.2414 165.87 14.7795 165.58 14.3825 165.284L13.7855 166.087C14.2285 166.416 14.7334 166.732 15.2981 167.034L15.7703 166.153ZM14.3885 165.289C14.0178 165.004 13.6673 164.626 13.3404 164.145L12.5132 164.707C12.8894 165.261 13.3105 165.722 13.7796 166.082L14.3885 165.289ZM13.3428 164.148C13.0382 163.691 12.8995 163.245 12.8995 162.8L11.8995 162.8C11.8995 163.468 12.1123 164.105 12.5108 164.703L13.3428 164.148ZM12.8995 162.8C12.8995 162.178 13.0801 161.805 13.3606 161.575L12.7274 160.801C12.1486 161.275 11.8995 161.976 11.8995 162.8L12.8995 162.8ZM13.3658 161.571C13.6916 161.297 14.3681 161.022 15.4988 160.8L15.306 159.819C14.1516 160.046 13.2557 160.357 12.7222 160.806L13.3658 161.571ZM20.6758 147.712L21.0974 147.981L21.0994 147.978L20.6758 147.712ZM13.9522 148.195L14.3291 147.867L14.3289 147.867L13.9522 148.195ZM12.8975 141.354L13.3732 141.509L13.3755 141.501L12.8975 141.354ZM13.5713 139.831L13.1837 139.515L13.1796 139.52L13.5713 139.831ZM13.8936 139.436L14.0954 138.978L13.7467 138.824L13.506 139.12L13.8936 139.436ZM16.7501 140.695L17.2501 140.695L17.2501 140.369L16.9518 140.238L16.7501 140.695ZM16.7501 141.633L16.9367 142.097L17.2501 141.971L17.2501 141.633L16.7501 141.633ZM14.3477 142.6L14.161 142.136L13.9998 142.201L13.9136 142.352L14.3477 142.6ZM14.6846 145.588L14.3193 145.929L14.3231 145.933L14.6846 145.588ZM18.4639 144.167L18.9112 144.391L18.9142 144.384L18.4639 144.167ZM19.3575 142.453L19.7939 142.697L19.7956 142.694L19.3575 142.453ZM20.7051 140.959L20.9951 141.366L20.9984 141.364L20.7051 140.959ZM27.9268 149.675L28.4035 149.826L28.4051 149.821L27.9268 149.675ZM27.1651 151.286L26.7987 150.946L26.7868 150.959L26.7759 150.972L27.1651 151.286ZM26.7989 151.74L26.588 152.194L26.9426 152.359L27.1881 152.054L26.7989 151.74ZM23.6495 150.275L23.1495 150.275L23.1495 150.594L23.4386 150.729L23.6495 150.275ZM23.6495 149.338L23.5111 148.857L23.1495 148.962L23.1495 149.338L23.6495 149.338ZM26.3448 148.562L26.4832 149.042L26.6432 148.996L26.7436 148.863L26.3448 148.562ZM24.045 143.389C23.4183 143.389 22.8699 143.675 22.4085 144.159L23.1326 144.849C23.4525 144.513 23.7537 144.389 24.045 144.389L24.045 143.389ZM22.4085 144.159C21.9847 144.604 21.6043 145.132 21.2649 145.739L22.1376 146.227C22.4427 145.682 22.7752 145.224 23.1326 144.849L22.4085 144.159ZM21.2649 145.739C20.9468 146.308 20.6093 146.877 20.2522 147.446L21.0994 147.978C21.4651 147.395 21.8111 146.811 22.1376 146.227L21.2649 145.739ZM20.2543 147.443C19.9293 147.952 19.5063 148.395 18.9796 148.769L19.5596 149.584C20.1853 149.139 20.6997 148.604 21.0974 147.981L20.2543 147.443ZM18.9796 148.769C18.4925 149.116 17.9358 149.292 17.292 149.292L17.292 150.292C18.1327 150.292 18.8944 150.058 19.5596 149.584L18.9796 148.769ZM17.292 149.292C16.1514 149.292 15.1712 148.833 14.3291 147.867L13.5753 148.524C14.5886 149.687 15.8351 150.292 17.292 150.292L17.292 149.292ZM14.3289 147.867C13.492 146.908 13.046 145.577 13.046 143.815L12.046 143.815C12.046 145.746 12.5374 147.335 13.5755 148.524L14.3289 147.867ZM13.046 143.815C13.046 142.939 13.1579 142.172 13.3731 141.509L12.4219 141.2C12.1684 141.982 12.046 142.856 12.046 143.815L13.046 143.815ZM13.3755 141.501C13.5977 140.777 13.8006 140.347 13.9631 140.142L13.1796 139.52C12.8929 139.882 12.6465 140.468 12.4195 141.208L13.3755 141.501ZM13.959 140.147L14.2812 139.751L13.506 139.12L13.1837 139.515L13.959 140.147ZM13.6918 139.893L16.5483 141.153L16.9518 140.238L14.0954 138.978L13.6918 139.893ZM16.2501 140.695L16.2501 141.633L17.2501 141.633L17.2501 140.695L16.2501 140.695ZM16.5634 141.169L14.161 142.136L14.5344 143.063L16.9367 142.097L16.5634 141.169ZM13.9136 142.352C13.6622 142.791 13.5547 143.324 13.5547 143.918L14.5547 143.918C14.5547 143.437 14.6426 143.091 14.7818 142.848L13.9136 142.352ZM13.5547 143.918C13.5547 144.698 13.8056 145.38 14.3194 145.929L15.0499 145.246C14.7238 144.898 14.5547 144.466 14.5547 143.918L13.5547 143.918ZM14.3231 145.933C14.8238 146.457 15.428 146.747 16.1202 146.747L16.1202 145.747C15.7382 145.747 15.3853 145.597 15.0461 145.242L14.3231 145.933ZM16.1202 146.747C16.7889 146.747 17.3674 146.475 17.8342 145.972L17.1014 145.292C16.8066 145.609 16.4866 145.747 16.1202 145.747L16.1202 146.747ZM17.8342 145.972C18.2514 145.523 18.6094 144.994 18.9111 144.391L18.0167 143.943C17.752 144.473 17.446 144.921 17.1014 145.292L17.8342 145.972ZM18.9142 144.384C19.1831 143.827 19.4763 143.265 19.7939 142.697L18.9211 142.209C18.5942 142.794 18.2917 143.374 18.0136 143.95L18.9142 144.384ZM19.7956 142.694C20.0795 142.178 20.4766 141.735 20.9951 141.366L20.4152 140.552C19.7813 141.003 19.28 141.557 18.9194 142.212L19.7956 142.694ZM20.9984 141.364C21.4696 141.023 22.0378 140.844 22.7266 140.844L22.7266 139.844C21.853 139.844 21.0735 140.075 20.4119 140.554L20.9984 141.364ZM22.7266 140.844C24.1205 140.844 25.3015 141.379 26.2959 142.48L27.0382 141.811C25.8647 140.51 24.4187 139.844 22.7266 139.844L22.7266 140.844ZM26.2959 142.48C27.2777 143.568 27.793 145.05 27.793 146.979L28.793 146.979C28.793 144.866 28.2244 143.125 27.0382 141.811L26.2959 142.48ZM27.793 146.979C27.793 147.935 27.6759 148.783 27.4485 149.529L28.4051 149.821C28.6661 148.965 28.793 148.016 28.793 146.979L27.793 146.979ZM27.4502 149.524C27.1974 150.321 26.97 150.761 26.7987 150.946L27.5315 151.626C27.868 151.264 28.1484 150.63 28.4034 149.826L27.4502 149.524ZM26.7759 150.972L26.4097 151.426L27.1881 152.054L27.5543 151.6L26.7759 150.972ZM27.0098 151.287L23.8603 149.822L23.4386 150.729L26.588 152.194L27.0098 151.287ZM24.1495 150.275L24.1495 149.338L23.1495 149.338L23.1495 150.275L24.1495 150.275ZM23.7879 149.818L26.4832 149.042L26.2064 148.081L23.5111 148.857L23.7879 149.818ZM26.7436 148.863C27.1353 148.345 27.2989 147.662 27.2989 146.877L26.2989 146.877C26.2989 147.537 26.1597 147.977 25.946 148.26L26.7436 148.863ZM27.2989 146.877C27.2989 145.944 26.9638 145.124 26.3116 144.438L25.5869 145.127C26.0676 145.632 26.2989 146.208 26.2989 146.877L27.2989 146.877ZM26.3116 144.438C25.6682 143.761 24.9084 143.389 24.045 143.389L24.045 144.389C24.5878 144.389 25.0975 144.612 25.5869 145.127L26.3116 144.438ZM20.6758 134.997L21.0974 135.266L21.0994 135.263L20.6758 134.997ZM13.9522 135.48L14.3291 135.152L14.3289 135.152L13.9522 135.48ZM12.8975 128.64L13.3732 128.794L13.3755 128.786L12.8975 128.64ZM13.5713 127.116L13.1837 126.8L13.1796 126.806L13.5713 127.116ZM13.8936 126.721L14.0954 126.263L13.7467 126.109L13.506 126.405L13.8936 126.721ZM16.7501 127.98L17.2501 127.98L17.2501 127.655L16.9518 127.523L16.7501 127.98ZM16.7501 128.918L16.9367 129.382L17.2501 129.256L17.2501 128.918L16.7501 128.918ZM14.3477 129.885L14.161 129.421L13.9998 129.486L13.9136 129.637L14.3477 129.885ZM14.6846 132.873L14.3193 133.215L14.3231 133.218L14.6846 132.873ZM18.4639 131.452L18.9112 131.676L18.9142 131.67L18.4639 131.452ZM19.3575 129.738L19.7939 129.982L19.7956 129.979L19.3575 129.738ZM20.7051 128.244L20.9951 128.651L20.9984 128.649L20.7051 128.244ZM27.9268 136.96L28.4035 137.111L28.4051 137.106L27.9268 136.96ZM27.1651 138.571L26.7987 138.231L26.7868 138.244L26.7759 138.257L27.1651 138.571ZM26.7989 139.025L26.588 139.479L26.9426 139.644L27.1881 139.339L26.7989 139.025ZM23.6495 137.561L23.1495 137.561L23.1495 137.879L23.4386 138.014L23.6495 137.561ZM23.6495 136.623L23.5111 136.143L23.1495 136.247L23.1495 136.623L23.6495 136.623ZM26.3448 135.847L26.4832 136.327L26.6432 136.281L26.7436 136.148L26.3448 135.847ZM24.045 130.674C23.4183 130.674 22.8699 130.96 22.4085 131.444L23.1326 132.134C23.4525 131.798 23.7537 131.674 24.045 131.674L24.045 130.674ZM22.4085 131.444C21.9847 131.889 21.6043 132.418 21.2648 133.024L22.1376 133.513C22.4427 132.967 22.7752 132.509 23.1326 132.134L22.4085 131.444ZM21.2648 133.024C20.9468 133.593 20.6093 134.162 20.2522 134.731L21.0994 135.263C21.4651 134.68 21.8111 134.096 22.1376 133.513L21.2648 133.024ZM20.2543 134.728C19.9293 135.238 19.5063 135.68 18.9796 136.055L19.5596 136.869C20.1853 136.424 20.6997 135.889 21.0974 135.266L20.2543 134.728ZM18.9796 136.055C18.4925 136.401 17.9358 136.577 17.292 136.577L17.292 137.577C18.1327 137.577 18.8944 137.343 19.5596 136.869L18.9796 136.055ZM17.292 136.577C16.1514 136.577 15.1712 136.118 14.3291 135.152L13.5753 135.809C14.5886 136.972 15.8351 137.577 17.292 137.577L17.292 136.577ZM14.3289 135.152C13.492 134.193 13.046 132.862 13.046 131.101L12.046 131.101C12.046 133.031 12.5374 134.62 13.5755 135.809L14.3289 135.152ZM13.046 131.101C13.046 130.224 13.1579 129.458 13.3731 128.794L12.4219 128.485C12.1684 129.267 12.046 130.141 12.046 131.101L13.046 131.101ZM13.3755 128.786C13.5977 128.062 13.8006 127.632 13.9631 127.427L13.1796 126.806C12.8929 127.167 12.6465 127.753 12.4195 128.493L13.3755 128.786ZM13.959 127.432L14.2812 127.037L13.506 126.405L13.1837 126.8L13.959 127.432ZM13.6918 127.178L16.5483 128.438L16.9518 127.523L14.0954 126.263L13.6918 127.178ZM16.2501 127.98L16.2501 128.918L17.2501 128.918L17.2501 127.98L16.2501 127.98ZM16.5634 128.454L14.161 129.421L14.5344 130.349L16.9367 129.382L16.5634 128.454ZM13.9136 129.637C13.6622 130.077 13.5547 130.609 13.5547 131.203L14.5547 131.203C14.5547 130.723 14.6426 130.376 14.7818 130.133L13.9136 129.637ZM13.5547 131.203C13.5547 131.983 13.8056 132.665 14.3194 133.214L15.0499 132.532C14.7238 132.183 14.5547 131.751 14.5547 131.203L13.5547 131.203ZM14.3231 133.218C14.8238 133.742 15.428 134.032 16.1202 134.032L16.1202 133.032C15.7382 133.032 15.3853 132.883 15.0461 132.528L14.3231 133.218ZM16.1202 134.032C16.7889 134.032 17.3674 133.76 17.8342 133.257L17.1014 132.577C16.8066 132.894 16.4866 133.032 16.1202 133.032L16.1202 134.032ZM17.8342 133.257C18.2514 132.808 18.6094 132.279 18.9111 131.676L18.0167 131.229C17.752 131.758 17.446 132.206 17.1014 132.577L17.8342 133.257ZM18.9142 131.67C19.1831 131.113 19.4763 130.55 19.7939 129.982L18.9211 129.494C18.5942 130.079 18.2917 130.659 18.0136 131.235L18.9142 131.67ZM19.7956 129.979C20.0795 129.463 20.4766 129.021 20.9951 128.651L20.4152 127.837C19.7813 128.288 19.28 128.842 18.9194 129.497L19.7956 129.979ZM20.9984 128.649C21.4696 128.308 22.0378 128.129 22.7266 128.129L22.7266 127.129C21.853 127.129 21.0735 127.36 20.4119 127.839L20.9984 128.649ZM22.7266 128.129C24.1205 128.129 25.3015 128.664 26.2959 129.766L27.0382 129.096C25.8647 127.795 24.4187 127.129 22.7266 127.129L22.7266 128.129ZM26.2959 129.766C27.2777 130.854 27.793 132.335 27.793 134.265L28.793 134.265C28.793 132.152 28.2244 130.41 27.0382 129.096L26.2959 129.766ZM27.793 134.265C27.793 135.22 27.6758 136.069 27.4485 136.814L28.4051 137.106C28.6661 136.25 28.793 135.301 28.793 134.265L27.793 134.265ZM27.4502 136.809C27.1974 137.606 26.97 138.047 26.7987 138.231L27.5315 138.912C27.868 138.549 28.1484 137.915 28.4034 137.111L27.4502 136.809ZM26.7759 138.257L26.4097 138.712L27.1881 139.339L27.5543 138.885L26.7759 138.257ZM27.0098 138.572L23.8603 137.107L23.4386 138.014L26.588 139.479L27.0098 138.572ZM24.1495 137.561L24.1495 136.623L23.1495 136.623L23.1495 137.561L24.1495 137.561ZM23.7879 137.104L26.4832 136.327L26.2064 135.366L23.5111 136.143L23.7879 137.104ZM26.7436 136.148C27.1353 135.63 27.2989 134.947 27.2989 134.162L26.2989 134.162C26.2989 134.822 26.1597 135.262 25.946 135.545L26.7436 136.148ZM27.2989 134.162C27.2989 133.229 26.9638 132.409 26.3116 131.723L25.5869 132.412C26.0676 132.917 26.2989 133.493 26.2989 134.162L27.2989 134.162ZM26.3116 131.723C25.6682 131.046 24.9084 130.674 24.045 130.674L24.045 131.674C24.5878 131.674 25.0975 131.897 25.5869 132.412L26.3116 131.723ZM15.7833 119.704L16.0943 119.313L16.0925 119.311L15.7833 119.704ZM20.046 121.359L19.9707 121.854L19.9736 121.854L20.046 121.359ZM20.6465 121.447L20.5741 121.942L21.2242 122.037L21.1427 121.385L20.6465 121.447ZM20.5586 120.832L20.064 120.905L20.0645 120.908L20.5586 120.832ZM20.1778 119.47L20.6522 119.312L20.6507 119.307L20.1778 119.47ZM19.3721 117.727L18.9441 117.985L18.9463 117.989L19.3721 117.727ZM13.4688 113.552L13.8473 113.878L13.8499 113.875L13.4688 113.552ZM18.7715 113.405L18.4715 113.805L18.4723 113.806L18.7715 113.405ZM21.5987 118.269L22.0805 118.135L22.079 118.13L21.5987 118.269ZM22.0528 120.524L21.5549 120.571L21.556 120.581L22.0528 120.524ZM22.1553 121.418L21.6586 121.475L21.7105 121.928L22.1662 121.918L22.1553 121.418ZM24.6309 120.437L24.9535 120.819L24.9588 120.814L24.6309 120.437ZM25.378 115.954L25.8456 115.777L25.8441 115.773L25.378 115.954ZM24.6456 114.519L25.0409 114.212L25.0345 114.204L25.0277 114.196L24.6456 114.519ZM24.2501 114.05L23.9485 113.651L23.5278 113.969L23.8679 114.372L24.2501 114.05ZM24.8506 113.596L25.1079 113.167L24.8184 112.993L24.5491 113.197L24.8506 113.596ZM25.2315 113.874L24.9162 114.262L24.9192 114.264L25.2315 113.874ZM26.0518 114.65L25.6982 115.004L25.7027 115.008L26.0518 114.65ZM27.1065 115.91L27.5225 115.633L27.5211 115.631L27.1065 115.91ZM27.9268 117.609L28.3977 117.441L28.3963 117.437L27.9268 117.609ZM26.5352 123.688L26.8593 124.069L26.8609 124.068L26.5352 123.688ZM15.3585 122.59L15.6993 122.224L15.6984 122.223L15.3585 122.59ZM13.7012 117.316C13.7012 118.316 14.3868 119.241 15.474 120.097L16.0925 119.311C15.0703 118.507 14.7012 117.84 14.7012 117.316L13.7012 117.316ZM15.4723 120.096C16.6058 120.996 18.1176 121.572 19.9707 121.854L20.1212 120.865C18.3806 120.6 17.0506 120.072 16.0943 119.313L15.4723 120.096ZM19.9736 121.854L20.5741 121.942L20.7189 120.953L20.1184 120.865L19.9736 121.854ZM21.1427 121.385C21.1223 121.222 21.0922 121.012 21.0528 120.756L20.0645 120.908C20.1032 121.16 20.1317 121.36 20.1504 121.509L21.1427 121.385ZM21.0533 120.759C21.007 120.447 20.8663 119.954 20.6521 119.312L19.7034 119.628C19.9189 120.274 20.0322 120.69 20.064 120.905L21.0533 120.759ZM20.6507 119.307C20.416 118.624 20.1326 118.008 19.798 117.465L18.9463 117.989C19.2367 118.461 19.4904 119.007 19.7049 119.632L20.6507 119.307ZM19.8002 117.468C19.4445 116.879 18.9363 116.366 18.2934 115.923L17.7263 116.747C18.2748 117.124 18.6748 117.539 18.9441 117.985L19.8002 117.468ZM18.2934 115.923C17.612 115.454 16.8436 115.22 16.003 115.22L16.003 116.22C16.6467 116.22 17.2163 116.396 17.7263 116.747L18.2934 115.923ZM16.003 115.22C15.3392 115.22 14.748 115.365 14.3201 115.745C13.8806 116.134 13.7012 116.69 13.7012 117.316L14.7012 117.316C14.7012 116.878 14.8221 116.636 14.9833 116.493C15.1559 116.34 15.4656 116.22 16.003 116.22L16.003 115.22ZM13.046 116.774C13.046 115.398 13.3425 114.463 13.8473 113.878L13.0903 113.225C12.3646 114.066 12.046 115.279 12.046 116.774L13.046 116.774ZM13.8499 113.875C14.3485 113.288 15.0269 112.982 15.9444 112.982L15.9444 111.982C14.772 111.982 13.8 112.389 13.0877 113.228L13.8499 113.875ZM15.9444 112.982C16.9051 112.982 17.7412 113.258 18.4715 113.805L19.0715 113.005C18.1612 112.323 17.1126 111.982 15.9444 111.982L15.9444 112.982ZM18.4723 113.806C19.2197 114.364 19.7758 115.042 20.1495 115.843L21.0557 115.42C20.6091 114.463 19.9445 113.657 19.0708 113.005L18.4723 113.806ZM20.1495 115.843C20.5494 116.7 20.872 117.555 21.1183 118.407L22.079 118.13C21.8175 117.225 21.4761 116.321 21.0557 115.42L20.1495 115.843ZM21.1169 118.402C21.3564 119.264 21.5001 119.985 21.555 120.571L22.5506 120.478C22.4883 119.813 22.3293 119.031 22.0804 118.135L21.1169 118.402ZM21.556 120.581L21.6586 121.475L22.6521 121.361L22.5495 120.467L21.556 120.581ZM22.1662 121.918C23.19 121.896 24.123 121.52 24.9534 120.819L24.3084 120.054C23.6349 120.623 22.9175 120.901 22.1445 120.918L22.1662 121.918ZM24.9588 120.814C25.8144 120.071 26.2442 119.101 26.2442 117.946L25.2442 117.946C25.2442 118.823 24.9318 119.513 24.3031 120.059L24.9588 120.814ZM26.2442 117.946C26.2442 117.202 26.111 116.478 25.8456 115.777L24.9104 116.131C25.1333 116.72 25.2442 117.324 25.2442 117.946L26.2442 117.946ZM25.8441 115.773C25.5847 115.105 25.3198 114.573 25.0409 114.212L24.2502 114.825C24.4401 115.07 24.6634 115.495 24.9119 116.135L25.8441 115.773ZM25.0277 114.196L24.6322 113.727L23.8679 114.372L24.2634 114.841L25.0277 114.196ZM24.5516 114.449L25.1522 113.995L24.5491 113.197L23.9485 113.651L24.5516 114.449ZM24.5934 114.024C24.661 114.065 24.7667 114.141 24.9162 114.262L25.5468 113.486C25.3838 113.354 25.2356 113.244 25.1079 113.167L24.5934 114.024ZM24.9192 114.264C25.0404 114.361 25.2945 114.6 25.6983 115.004L26.4054 114.297C26.0084 113.9 25.7156 113.621 25.5438 113.484L24.9192 114.264ZM25.7027 115.008C26.0794 115.376 26.4088 115.77 26.6919 116.19L27.5211 115.631C27.1987 115.152 26.825 114.706 26.401 114.293L25.7027 115.008ZM26.6905 116.188C26.9548 116.584 27.2121 117.112 27.4573 117.781L28.3963 117.437C28.1338 116.72 27.8442 116.115 27.5225 115.633L26.6905 116.188ZM27.4559 117.778C27.6814 118.409 27.793 119.045 27.793 119.689L28.793 119.689C28.793 118.927 28.6605 118.177 28.3977 117.441L27.4559 117.778ZM27.793 119.689C27.793 121.216 27.2617 122.406 26.2096 123.309L26.8609 124.068C28.1525 122.959 28.793 121.483 28.793 119.689L27.793 119.689ZM26.2111 123.308C25.1383 124.221 23.7281 124.697 21.9356 124.697L21.9356 125.697C23.9126 125.697 25.5689 125.168 26.8593 124.069L26.2111 123.308ZM21.9356 124.697C19.5443 124.697 17.4732 123.877 15.6993 122.224L15.0176 122.956C16.9741 124.779 19.2879 125.697 21.9356 125.697L21.9356 124.697ZM15.6984 122.223C13.9038 120.559 13.046 118.747 13.046 116.774L12.046 116.774C12.046 119.079 13.0631 121.144 15.0185 122.957L15.6984 122.223ZM20.6758 108.015L21.0974 108.284L21.0994 108.28L20.6758 108.015ZM13.9522 108.498L14.3291 108.17L14.3289 108.169L13.9522 108.498ZM12.8975 101.657L13.3732 101.811L13.3755 101.804L12.8975 101.657ZM13.5713 100.134L13.1837 99.8179L13.1796 99.8231L13.5713 100.134ZM13.8936 99.7383L14.0954 99.2808L13.7467 99.127L13.506 99.4224L13.8936 99.7383ZM16.7501 100.998L17.2501 100.998L17.2501 100.672L16.9518 100.541L16.7501 100.998ZM16.7501 101.936L16.9367 102.399L17.2501 102.273L17.2501 101.936L16.7501 101.936ZM14.3477 102.902L14.161 102.438L13.9998 102.503L13.9136 102.654L14.3477 102.902ZM14.6846 105.891L14.3193 106.232L14.3231 106.236L14.6846 105.891ZM18.4639 104.47L18.9112 104.693L18.9142 104.687L18.4639 104.47ZM19.3575 102.756L19.7939 103L19.7956 102.997L19.3575 102.756ZM20.7051 101.262L20.9951 101.669L20.9984 101.667L20.7051 101.262ZM27.9268 109.978L28.4035 110.129L28.4051 110.123L27.9268 109.978ZM27.1651 111.589L26.7987 111.249L26.7868 111.261L26.7759 111.275L27.1651 111.589ZM26.7989 112.043L26.588 112.496L26.9426 112.661L27.1881 112.357L26.7989 112.043ZM23.6495 110.578L23.1495 110.578L23.1495 110.897L23.4386 111.031L23.6495 110.578ZM23.6495 109.641L23.5111 109.16L23.1495 109.264L23.1495 109.641L23.6495 109.641ZM26.3448 108.864L26.4832 109.345L26.6432 109.299L26.7436 109.166L26.3448 108.864ZM24.045 103.691C23.4183 103.691 22.8699 103.977 22.4085 104.462L23.1326 105.151C23.4525 104.816 23.7537 104.691 24.045 104.691L24.045 103.691ZM22.4085 104.462C21.9847 104.907 21.6043 105.435 21.2648 106.042L22.1376 106.53C22.4427 105.985 22.7752 105.527 23.1326 105.151L22.4085 104.462ZM21.2648 106.042C20.9468 106.611 20.6093 107.18 20.2522 107.749L21.0994 108.28C21.4651 107.697 21.8111 107.114 22.1376 106.53L21.2648 106.042ZM20.2543 107.746C19.9293 108.255 19.5062 108.697 18.9796 109.072L19.5596 109.887C20.1853 109.441 20.6997 108.907 21.0974 108.284L20.2543 107.746ZM18.9796 109.072C18.4925 109.419 17.9358 109.595 17.292 109.595L17.292 110.595C18.1327 110.595 18.8944 110.36 19.5596 109.887L18.9796 109.072ZM17.292 109.595C16.1514 109.595 15.1712 109.136 14.3291 108.17L13.5753 108.827C14.5886 109.989 15.8351 110.595 17.292 110.595L17.292 109.595ZM14.3289 108.169C13.492 107.21 13.046 105.879 13.046 104.118L12.046 104.118C12.046 106.048 12.5374 107.637 13.5755 108.827L14.3289 108.169ZM13.046 104.118C13.046 103.242 13.1579 102.475 13.3731 101.811L12.4219 101.503C12.1684 102.285 12.046 103.158 12.046 104.118L13.046 104.118ZM13.3755 101.804C13.5977 101.079 13.8006 100.649 13.9631 100.444L13.1796 99.8231C12.8929 100.185 12.6465 100.77 12.4195 101.511L13.3755 101.804ZM13.959 100.45L14.2812 100.054L13.506 99.4224L13.1837 99.818L13.959 100.45ZM13.6918 100.196L16.5483 101.456L16.9518 100.541L14.0954 99.2808L13.6918 100.196ZM16.2501 100.998L16.2501 101.936L17.2501 101.936L17.2501 100.998L16.2501 100.998ZM16.5634 101.472L14.161 102.438L14.5344 103.366L16.9367 102.399L16.5634 101.472ZM13.9136 102.654C13.6622 103.094 13.5547 103.627 13.5547 104.221L14.5547 104.221C14.5547 103.74 14.6426 103.394 14.7818 103.15L13.9136 102.654ZM13.5547 104.221C13.5547 105 13.8056 105.682 14.3194 106.232L15.0499 105.549C14.7238 105.2 14.5547 104.769 14.5547 104.221L13.5547 104.221ZM14.3231 106.236C14.8238 106.76 15.428 107.05 16.1202 107.05L16.1202 106.05C15.7382 106.05 15.3853 105.9 15.0461 105.545L14.3231 106.236ZM16.1202 107.05C16.7889 107.05 17.3674 106.778 17.8342 106.275L17.1014 105.594C16.8066 105.912 16.4866 106.05 16.1202 106.05L16.1202 107.05ZM17.8342 106.275C18.2514 105.826 18.6094 105.297 18.9111 104.693L18.0167 104.246C17.752 104.775 17.446 105.223 17.1014 105.594L17.8342 106.275ZM18.9142 104.687C19.1831 104.13 19.4762 103.568 19.7939 103L18.9211 102.512C18.5942 103.096 18.2917 103.676 18.0136 104.252L18.9142 104.687ZM19.7956 102.997C20.0795 102.481 20.4766 102.038 20.9951 101.669L20.4152 100.854C19.7813 101.306 19.28 101.859 18.9194 102.515L19.7956 102.997ZM20.9984 101.667C21.4696 101.325 22.0378 101.146 22.7266 101.146L22.7266 100.146C21.853 100.146 21.0735 100.378 20.4119 100.857L20.9984 101.667ZM22.7266 101.146C24.1205 101.146 25.3015 101.681 26.2958 102.783L27.0382 102.113C25.8647 100.813 24.4187 100.146 22.7266 100.146L22.7266 101.146ZM26.2958 102.783C27.2777 103.871 27.793 105.352 27.793 107.282L28.793 107.282C28.793 105.169 28.2244 103.428 27.0382 102.113L26.2958 102.783ZM27.793 107.282C27.793 108.238 27.6758 109.086 27.4485 109.832L28.4051 110.123C28.6661 109.267 28.793 108.319 28.793 107.282L27.793 107.282ZM27.4502 109.826C27.1974 110.624 26.97 111.064 26.7987 111.249L27.5315 111.929C27.868 111.567 28.1484 110.933 28.4034 110.129L27.4502 109.826ZM26.7759 111.275L26.4097 111.729L27.1881 112.357L27.5543 111.903L26.7759 111.275ZM27.0097 111.59L23.8603 110.125L23.4386 111.031L26.588 112.496L27.0097 111.59ZM24.1495 110.578L24.1495 109.641L23.1495 109.641L23.1495 110.578L24.1495 110.578ZM23.7879 110.121L26.4832 109.345L26.2064 108.384L23.5111 109.16L23.7879 110.121ZM26.7436 109.166C27.1353 108.648 27.2989 107.965 27.2989 107.18L26.2989 107.18C26.2989 107.84 26.1597 108.28 25.946 108.563L26.7436 109.166ZM27.2989 107.18C27.2989 106.247 26.9638 105.426 26.3116 104.74L25.5869 105.429C26.0676 105.935 26.2989 106.511 26.2989 107.18L27.2989 107.18ZM26.3116 104.74C25.6682 104.064 24.9084 103.691 24.045 103.691L24.045 104.691C24.5878 104.691 25.0975 104.915 25.5869 105.429L26.3116 104.74ZM27.6045 98.5518L27.9333 98.9286L27.9377 98.9246L27.6045 98.5518ZM28.4395 94.8018L28.2485 95.2638L28.2507 95.2647L28.4395 94.8018ZM30.2999 95.915L29.969 96.29L29.9727 96.2931L30.2999 95.915ZM32.4971 98.3467L32.0647 98.5977L32.0754 98.6161L32.0875 98.6334L32.4971 98.3467ZM32.8047 98.7861L33.0984 99.1908L33.4962 98.9021L33.2144 98.4994L32.8047 98.7861ZM31.8965 99.4453L31.5203 99.7746L31.8208 100.118L32.1902 99.85L31.8965 99.4453ZM31.3399 98.8887L30.9863 99.2422L30.994 99.2499L31.002 99.2572L31.3399 98.8887ZM30.0508 97.8926L29.7632 98.3016L29.7662 98.3037L30.0508 97.8926ZM28.293 97.043L28.4061 96.5559L27.793 96.4136L27.793 97.043L28.293 97.043ZM27.2759 98.175C26.9178 98.4873 26.4721 98.6523 25.9053 98.6523L25.9053 99.6523C26.6862 99.6523 27.3733 99.417 27.9332 98.9285L27.2759 98.175ZM25.9053 98.6523C25.3465 98.6523 24.9048 98.4701 24.545 98.1103L23.8379 98.8174C24.3961 99.3756 25.097 99.6523 25.9053 99.6523L25.9053 98.6523ZM24.545 98.1103C24.1852 97.7505 24.003 97.3088 24.003 96.75L23.003 96.75C23.003 97.5584 23.2798 98.2593 23.8379 98.8174L24.545 98.1103ZM24.003 96.75C24.003 96.2046 24.1947 95.7671 24.5889 95.4038L23.9112 94.6685C23.3094 95.2231 23.003 95.9282 23.003 96.75L24.003 96.75ZM24.5889 95.4038C24.9782 95.0451 25.4988 94.8477 26.1983 94.8477L26.1983 93.8477C25.2963 93.8477 24.518 94.1092 23.9112 94.6685L24.5889 95.4038ZM26.1983 94.8477C26.8918 94.8477 27.5742 94.9851 28.2485 95.2638L28.6305 94.3397C27.84 94.0129 27.0282 93.8477 26.1983 93.8477L26.1983 94.8477ZM28.2507 95.2647C28.9513 95.5505 29.5207 95.8944 29.969 96.29L30.6307 95.5401C30.0829 95.0568 29.4121 94.6585 28.6283 94.3388L28.2507 95.2647ZM29.9727 96.2931C30.4663 96.7203 30.8995 97.1445 31.2738 97.5656L32.0212 96.9012C31.6142 96.4434 31.1491 95.9887 30.627 95.537L29.9727 96.2931ZM31.2738 97.5656C31.655 97.9944 31.9132 98.3369 32.0647 98.5977L32.9295 98.0956C32.7294 97.751 32.4213 97.3513 32.0212 96.9012L31.2738 97.5656ZM32.0875 98.6334L32.3951 99.0729L33.2144 98.4994L32.9067 98.0599L32.0875 98.6334ZM32.511 98.3815L31.6028 99.0407L32.1902 99.85L33.0984 99.1908L32.511 98.3815ZM32.2728 99.1161C32.1195 98.9408 31.9194 98.7416 31.6778 98.5201L31.002 99.2572C31.2292 99.4655 31.4002 99.6373 31.5203 99.7746L32.2728 99.1161ZM31.6935 98.5351C31.4336 98.2752 30.9699 97.9207 30.3354 97.4815L29.7662 98.3037C30.4013 98.7434 30.797 99.0529 30.9863 99.2422L31.6935 98.5351ZM30.3384 97.4836C29.6786 97.0196 29.0338 96.7016 28.4061 96.5559L28.18 97.53C28.646 97.6382 29.1731 97.8866 29.7632 98.3016L30.3384 97.4836ZM27.793 97.043C27.793 97.491 27.6282 97.86 27.2714 98.1789L27.9377 98.9246C28.4988 98.4232 28.793 97.7863 28.793 97.043L27.793 97.043ZM34.0059 76.4619L34.3473 76.0966L34.1034 75.8687L33.7994 76.0066L34.0059 76.4619ZM34.8995 77.2969L35.253 77.6504L35.6188 77.2847L35.2408 76.9315L34.8995 77.2969ZM34.3135 77.8535L33.9743 77.486L33.9673 77.4928L34.3135 77.8535ZM32.6583 79.1133L32.9453 79.5227L32.9462 79.522L32.6583 79.1133ZM26.3448 81.9404L26.4653 82.4257L26.466 82.4255L26.3448 81.9404ZM17.1895 81.9258L17.3108 81.4407L17.31 81.4405L17.1895 81.9258ZM13.0586 80.4609L12.8365 80.9089L12.8394 80.9103L13.0586 80.4609ZM9.54302 78.4688L9.27155 78.8886L9.27246 78.8892L9.54302 78.4688ZM6.62798 76.2568L6.29032 76.6256L6.62798 76.2568ZM4.50396 74.25L4.15324 74.6064L4.15329 74.6064L4.50396 74.25ZM3.09771 72.7705L2.7063 73.0816L2.71107 73.0876L2.71602 73.0935L3.09771 72.7705ZM2.64361 72.1992L2.34991 71.7946L1.92715 72.1014L2.2522 72.5103L2.64361 72.1992ZM3.55181 71.54L3.94224 71.2277L3.64421 70.8552L3.25811 71.1354L3.55181 71.54ZM6.54009 74.0449L6.83071 73.6381L6.8291 73.6369L6.54009 74.0449ZM10.3194 76.2568L10.1049 76.7085L10.1063 76.7092L10.3194 76.2568ZM15.6954 78L15.5806 78.4867L15.5822 78.487L15.6954 78ZM33.6645 76.8272L34.5581 77.6622L35.2408 76.9315L34.3473 76.0966L33.6645 76.8272ZM34.5459 76.9433C34.4162 77.073 34.2266 77.2533 33.9744 77.4861L34.6527 78.2209C34.9083 77.9849 35.1093 77.7941 35.253 77.6504L34.5459 76.9433ZM33.9673 77.4928C33.7552 77.6964 33.2357 78.0948 32.3703 78.7045L32.9462 79.522C33.7996 78.9208 34.3835 78.4794 34.6598 78.2142L33.9673 77.4928ZM32.3712 78.7039C31.5431 79.2845 30.672 79.7986 29.7577 80.2462L30.1974 81.1444C31.1582 80.674 32.0742 80.1334 32.9453 79.5227L32.3712 78.7039ZM29.7577 80.2462C28.8626 80.6845 27.688 81.0892 26.2235 81.4554L26.466 82.4255C27.9703 82.0494 29.2176 81.6241 30.1974 81.1444L29.7577 80.2462ZM26.2243 81.4552C24.7696 81.8165 23.2916 81.9971 21.7891 81.9971L21.7891 82.9971C23.3726 82.9971 24.9316 82.8066 26.4653 82.4257L26.2243 81.4552ZM21.7891 81.9971C20.2878 81.9971 18.7953 81.8118 17.3108 81.4407L17.0682 82.4109C18.6306 82.8015 20.2045 82.9971 21.7891 82.9971L21.7891 81.9971ZM17.31 81.4405C15.8055 81.0668 14.4625 80.5896 13.2779 80.0116L12.8394 80.9103C14.0962 81.5236 15.5071 82.023 17.069 82.411L17.31 81.4405ZM13.2808 80.013C12.0764 79.4156 10.9207 78.7607 9.81358 78.0483L9.27246 78.8892C10.4114 79.6221 11.5995 80.2953 12.8365 80.9089L13.2808 80.013ZM9.8145 78.0489C8.70008 77.3283 7.75158 76.6077 6.96564 75.8881L6.29032 76.6256C7.12548 77.3903 8.12034 78.1443 9.27155 78.8886L9.8145 78.0489ZM6.96564 75.8881C6.1583 75.1488 5.45481 74.4841 4.85463 73.8936L4.15329 74.6064C4.76404 75.2073 5.47657 75.8805 6.29032 76.6256L6.96564 75.8881ZM4.85467 73.8936C4.24369 73.2923 3.7873 72.8114 3.4794 72.4475L2.71602 73.0935C3.05265 73.4913 3.53376 73.9967 4.15324 74.6064L4.85467 73.8936ZM3.48912 72.4594L3.03502 71.8881L2.2522 72.5103L2.7063 73.0816L3.48912 72.4594ZM2.9373 72.6039L3.84551 71.9447L3.25811 71.1354L2.34991 71.7946L2.9373 72.6039ZM3.16138 71.8524C3.33736 72.0724 3.59926 72.3484 3.93599 72.6752L4.63247 71.9576C4.30514 71.6399 4.07876 71.3983 3.94224 71.2277L3.16138 71.8524ZM3.93599 72.6752C4.30059 73.0291 5.08535 73.6272 6.25108 74.4529L6.8291 73.6369C5.65108 72.8025 4.93193 72.2483 4.63247 71.9576L3.93599 72.6752ZM6.24947 74.4518C7.43681 75.2999 8.72223 76.052 10.1049 76.7085L10.5339 75.8052C9.20171 75.1726 7.96759 74.4501 6.83071 73.6381L6.24947 74.4518ZM10.1063 76.7092C11.4976 77.3645 13.3265 77.9551 15.5806 78.4867L15.8101 77.5133C13.5915 76.9902 11.8365 76.4187 10.5324 75.8045L10.1063 76.7092ZM15.5822 78.487C17.8478 79.0137 20.2053 79.2764 22.6534 79.2764L22.6534 78.2764C20.2773 78.2764 17.996 78.0215 15.8086 77.513L15.5822 78.487ZM22.6534 79.2764C24.784 79.2764 26.8151 79.0782 28.7456 78.6801L28.5436 77.7007C26.685 78.084 24.7219 78.2764 22.6534 78.2764L22.6534 79.2764ZM28.7456 78.6801C30.6458 78.2883 32.0591 77.8938 32.9526 77.4886L32.5396 76.5778C31.7535 76.9344 30.4324 77.3113 28.5436 77.7007L28.7456 78.6801ZM32.9526 77.4886L34.2124 76.9173L33.7994 76.0066L32.5396 76.5778L32.9526 77.4886ZM26.3448 70.0752L26.8346 69.9748L26.765 69.6355L26.4229 69.5813L26.3448 70.0752ZM9.39654 67.3945L9.47465 66.9007L8.89654 66.8092L8.89654 67.3945L9.39654 67.3945ZM9.39654 70.6318L9.31905 71.1258L9.89654 71.2164L9.89654 70.6318L9.39654 70.6318ZM7.9024 70.3975L7.4038 70.4349L7.43343 70.83L7.82491 70.8914L7.9024 70.3975ZM7.419 68.1563L6.94928 68.3276L6.95005 68.3297L7.419 68.1563ZM6.55474 66.3838L6.96808 66.1024L6.96395 66.0965L6.55474 66.3838ZM4.78228 64.4063L5.07636 64.0019L5.06607 63.9944L5.05541 63.9874L4.78228 64.4063ZM4.44536 64.1865L3.94536 64.1865L3.94536 64.4574L4.17223 64.6053L4.44536 64.1865ZM4.44536 62.9561L4.52393 62.4623L3.94536 62.3702L3.94536 62.9561L4.44536 62.9561ZM23.503 65.9883L23.4244 66.4821L23.4302 66.483L23.503 65.9883ZM26.4327 65.6074L26.838 65.9002L26.8426 65.8938L26.847 65.8874L26.4327 65.6074ZM26.7989 63.6738L26.8772 63.18L26.2989 63.0883L26.2989 63.6738L26.7989 63.6738ZM28.0001 63.8643L28.5001 63.8643L28.5001 63.4373L28.0783 63.3704L28.0001 63.8643ZM28.0001 73.1953L27.9112 73.6874L28.5001 73.7937L28.5001 73.1953L28.0001 73.1953ZM26.9454 73.0049L26.4556 73.1053L26.5235 73.4368L26.8565 73.4969L26.9454 73.0049ZM26.4229 69.5813L9.47465 66.9007L9.31842 67.8884L26.2667 70.5691L26.4229 69.5813ZM8.89654 67.3945L8.89654 70.6318L9.89654 70.6318L9.89654 67.3945L8.89654 67.3945ZM9.47402 70.1379L7.97988 69.9035L7.82491 70.8914L9.31905 71.1258L9.47402 70.1379ZM8.401 70.3601C8.33902 69.5337 8.16829 68.7408 7.88795 67.9828L6.95005 68.3297C7.19704 68.9975 7.34858 69.6987 7.4038 70.4349L8.401 70.3601ZM7.88871 67.9849C7.61586 67.2371 7.31082 66.6058 6.96804 66.1024L6.14144 66.6652C6.42366 67.0797 6.69479 67.6301 6.94929 68.3276L7.88871 67.9849ZM6.96395 66.0965C6.63134 65.6228 6.29568 65.2001 5.95652 64.8301L5.21937 65.5058C5.52473 65.839 5.8336 66.2268 6.14553 66.6711L6.96395 66.0965ZM5.95652 64.8301C5.62646 64.47 5.33146 64.1874 5.07636 64.0019L4.48819 64.8106C4.66278 64.9376 4.90489 65.1628 5.21937 65.5058L5.95652 64.8301ZM5.05541 63.9874L4.7185 63.7677L4.17223 64.6053L4.50914 64.8251L5.05541 63.9874ZM4.94536 64.1865L4.94536 62.9561L3.94536 62.9561L3.94536 64.1865L4.94536 64.1865ZM4.3668 63.4498L23.4244 66.4821L23.5815 65.4945L4.52393 62.4623L4.3668 63.4498ZM23.4302 66.483C24.0993 66.5813 24.627 66.6348 24.9971 66.6348L24.9971 65.6348C24.7032 65.6348 24.2348 65.5905 23.5757 65.4936L23.4302 66.483ZM24.9971 66.6348C25.7601 66.6348 26.4436 66.4463 26.838 65.9002L26.0273 65.3147C25.9139 65.4717 25.6404 65.6348 24.9971 65.6348L24.9971 66.6348ZM26.847 65.8874C27.1821 65.3914 27.2989 64.6111 27.2989 63.6738L26.2989 63.6738C26.2989 64.592 26.1715 65.1008 26.0184 65.3275L26.847 65.8874ZM26.7206 64.1677L27.9218 64.3581L28.0783 63.3704L26.8772 63.18L26.7206 64.1677ZM27.5001 63.8643L27.5001 73.1953L28.5001 73.1953L28.5001 63.8643L27.5001 63.8643ZM28.0889 72.7033L27.0342 72.5128L26.8565 73.4969L27.9112 73.6874L28.0889 72.7033ZM27.4352 72.9045L26.8346 69.9748L25.855 70.1756L26.4556 73.1053L27.4352 72.9045ZM6.54009 46.2275L6.85178 46.6185L6.85477 46.6161L6.54009 46.2275ZM24.1036 48.0439L24.417 47.6544L24.4164 47.6539L24.1036 48.0439ZM28.1758 58.8398L27.6915 58.7155L27.6904 58.7201L28.1758 58.8398ZM27.6338 60.334L27.2156 60.06L27.2033 60.0788L27.1927 60.0987L27.6338 60.334ZM27.3995 60.7734L27.1976 61.2309L27.6222 61.4182L27.8406 61.0087L27.3995 60.7734ZM25.9053 60.1143L25.4936 59.8305L25.1508 60.3279L25.7035 60.5717L25.9053 60.1143ZM24.4405 52.1748L24.0941 52.5354L24.0942 52.5355L24.4405 52.1748ZM17.8047 49.2598L17.8914 48.7673L17.3047 48.664L17.3047 49.2598L17.8047 49.2598ZM17.8047 49.377L17.3047 49.377L17.3047 49.5283L17.3887 49.6543L17.8047 49.377ZM17.9952 49.6113L17.6235 49.9458L17.6323 49.9556L17.6416 49.9649L17.9952 49.6113ZM18.4346 50.2559L18.8656 50.0023L18.8634 49.9986L18.4346 50.2559ZM18.9766 51.2959L19.4357 51.0974L19.431 51.0871L18.9766 51.2959ZM19.4161 52.7021L19.904 52.5928L19.9026 52.5867L19.4161 52.7021ZM18.0684 58.0195L18.392 58.4007L18.3938 58.3992L18.0684 58.0195ZM7.12603 56.7891L7.47155 56.4277L7.47056 56.4267L7.12603 56.7891ZM17.2042 52.4092L17.7042 52.4117L17.7042 52.4092L17.2042 52.4092ZM16.9405 50.7393L17.4173 50.5887L17.4156 50.5836L16.9405 50.7393ZM16.4131 49.4648L16.8445 49.212L16.8419 49.2076L16.4131 49.4648ZM16.1495 49.0254L16.5782 48.7681L16.4574 48.5668L16.2253 48.5312L16.1495 49.0254ZM4.94536 50.7832C4.94536 48.9981 5.58445 47.6288 6.85177 46.6185L6.22841 45.8366C4.70276 47.0528 3.94536 48.7207 3.94536 50.7832L4.94536 50.7832ZM6.85477 46.6161C8.11753 45.5934 10.0177 45.043 12.6338 45.043L12.6338 44.043C9.89841 44.043 7.73609 44.6155 6.22541 45.839L6.85477 46.6161ZM12.6338 45.043C17.2877 45.043 20.9909 46.1885 23.7907 48.434L24.4164 47.6539C21.3959 45.2314 17.4527 44.043 12.6338 44.043L12.6338 45.043ZM23.7901 48.4335C26.5896 50.6863 27.9542 53.3673 27.9542 56.4961L28.9542 56.4961C28.9542 53.0233 27.4183 50.0696 24.417 47.6544L23.7901 48.4335ZM27.9542 56.4961C27.9542 57.2992 27.8654 58.0382 27.6915 58.7155L28.6601 58.9642C28.8573 58.1962 28.9542 57.3727 28.9542 56.4961L27.9542 56.4961ZM27.6904 58.7201C27.5161 59.427 27.3512 59.853 27.2156 60.06L28.0521 60.608C28.2876 60.2485 28.484 59.6784 28.6613 58.9595L27.6904 58.7201ZM27.1927 60.0987L26.9583 60.5381L27.8406 61.0087L28.075 60.5693L27.1927 60.0987ZM27.6013 60.316L26.1071 59.6568L25.7035 60.5717L27.1976 61.2309L27.6013 60.316ZM26.317 60.398C26.8844 59.5748 27.1524 58.5715 27.1524 57.4189L26.1524 57.4189C26.1524 58.4148 25.9224 59.2084 25.4936 59.8305L26.317 60.398ZM27.1524 57.4189C27.1524 55.2054 26.3615 53.3263 24.7868 51.8142L24.0942 52.5355C25.4687 53.8553 26.1524 55.4723 26.1524 57.4189L27.1524 57.4189ZM24.7868 51.8142C23.2054 50.2952 20.8868 49.2948 17.8914 48.7673L17.718 49.7522C20.6016 50.2599 22.7068 51.2028 24.0941 52.5354L24.7868 51.8142ZM17.3047 49.2598L17.3047 49.377L18.3047 49.377L18.3047 49.2598L17.3047 49.2598ZM17.3887 49.6543C17.4481 49.7433 17.5308 49.8427 17.6235 49.9458L18.3668 49.2768C18.2838 49.1846 18.2395 49.1278 18.2208 49.0996L17.3887 49.6543ZM17.6416 49.9649C17.6415 49.9648 17.6447 49.968 17.6512 49.9756C17.6577 49.9831 17.6661 49.9934 17.6767 50.0071C17.6981 50.0348 17.725 50.0719 17.7578 50.12C17.8236 50.2165 17.906 50.3466 18.0059 50.5131L18.8634 49.9986C18.6654 49.6686 18.4881 49.3972 18.3487 49.2578L17.6416 49.9649ZM18.0037 50.5094C18.1902 50.8264 18.3631 51.1581 18.5223 51.5046L19.431 51.0871C19.2581 50.711 19.0697 50.3494 18.8656 50.0023L18.0037 50.5094ZM18.5177 51.4944C18.6581 51.8191 18.7966 52.2572 18.9296 52.8176L19.9026 52.5867C19.7621 51.9948 19.6076 51.4954 19.4355 51.0974L18.5177 51.4944ZM18.9282 52.8115C19.0471 53.3423 19.1065 53.8769 19.1065 54.416L20.1065 54.416C20.1065 53.8028 20.0389 53.1948 19.904 52.5928L18.9282 52.8115ZM19.1065 54.416C19.1065 55.8144 18.6426 56.8688 17.743 57.6399L18.3938 58.3992C19.545 57.4124 20.1065 56.0645 20.1065 54.416L19.1065 54.416ZM17.7448 57.6384C16.8279 58.4169 15.5169 58.8379 13.7471 58.8379L13.7471 59.8379C15.6687 59.8379 17.2386 59.38 18.392 58.4007L17.7448 57.6384ZM13.7471 58.8379C11.2289 58.8379 9.14871 58.0311 7.47155 56.4277L6.78051 57.1505C8.65803 58.9455 10.9919 59.8379 13.7471 59.8379L13.7471 58.8379ZM7.47056 56.4267C5.77496 54.8145 4.94536 52.9406 4.94536 50.7832L3.94536 50.7832C3.94536 53.2352 4.90287 55.3652 6.7815 57.1514L7.47056 56.4267ZM5.60064 51.0615C5.60064 52.3723 6.37736 53.4872 7.72033 54.417L8.28954 53.5948C7.09344 52.7667 6.60064 51.9187 6.60064 51.0615L5.60064 51.0615ZM7.72033 54.417C9.10138 55.3731 10.9366 55.8242 13.1758 55.8242L13.1758 54.8242C11.0596 54.8242 9.44755 54.3965 8.28954 53.5948L7.72033 54.417ZM13.1758 55.8242C14.5596 55.8242 15.6882 55.5756 16.4829 55.0005C17.3069 54.4042 17.6986 53.5116 17.7041 52.4117L16.7042 52.4067C16.6999 53.2501 16.4154 53.815 15.8966 54.1904C15.3485 54.587 14.4679 54.8242 13.1758 54.8242L13.1758 55.8242ZM17.7042 52.4092C17.7042 51.799 17.6077 51.1917 17.4173 50.5887L16.4637 50.8898C16.6248 51.4001 16.7042 51.9061 16.7042 52.4092L17.7042 52.4092ZM17.4156 50.5836C17.2264 50.006 17.0375 49.5413 16.8445 49.212L15.9818 49.7177C16.1208 49.9548 16.2835 50.3397 16.4653 50.8949L17.4156 50.5836ZM16.8419 49.2076L16.5782 48.7681L15.7207 49.2826L15.9844 49.7221L16.8419 49.2076ZM16.2253 48.5312C14.1125 48.2069 12.3467 48.042 10.9346 48.042L10.9346 49.042C12.2765 49.042 13.9872 49.1994 16.0736 49.5196L16.2253 48.5312ZM10.9346 48.042C9.29613 48.042 7.99076 48.2528 7.07803 48.7285C6.61432 48.9702 6.23919 49.287 5.98154 49.6898C5.72251 50.0949 5.60064 50.5583 5.60064 51.0615L6.60064 51.0615C6.60064 50.7249 6.68018 50.4535 6.82399 50.2286C6.96916 50.0016 7.19828 49.7935 7.54023 49.6153C8.23883 49.2511 9.35046 49.042 10.9346 49.042L10.9346 48.042ZM7.00884 33.3223L7.31493 33.7176L7.31803 33.7152L7.00884 33.3223ZM7.68267 38.1123L7.35243 38.4877L7.35267 38.4879L7.68267 38.1123ZM12.253 40.2656L12.753 40.2656L12.753 39.8785L12.3781 39.7815L12.253 40.2656ZM12.253 41.7305L12.1755 42.2244L12.753 42.315L12.753 41.7305L12.253 41.7305ZM6.55474 40.8369L6.1336 41.1064L6.25493 41.296L6.47728 41.3309L6.55474 40.8369ZM5.0313 37.4678L4.55696 37.6259L4.55736 37.6271L5.0313 37.4678ZM5.79302 30.0703L6.15402 30.4163L6.15589 30.4143L5.79302 30.0703ZM11.8135 29.0156L11.6647 29.493L11.6704 29.4947L11.8135 29.0156ZM13.8204 29.8359L13.5794 30.2741L13.582 30.2755L13.8204 29.8359ZM18.0245 33.498L17.6593 33.8396L17.6621 33.8426L18.0245 33.498ZM20.5879 36.3105L20.215 36.6436L20.2165 36.6453L20.5879 36.3105ZM24.9971 41.2031L24.6257 41.5379L25.4971 42.5048L25.4971 41.2031L24.9971 41.2031ZM24.001 32.8828L24.3645 32.5395L24.3644 32.5394L24.001 32.8828ZM20.5 30.876L20 30.876L20 31.222L20.3239 31.3439L20.5 30.876ZM20.5 29.5283L20.6415 29.0487L20 28.8596L20 29.5283L20.5 29.5283ZM28 31.7402L28.5 31.7402L28.5 31.3664L28.1415 31.2607L28 31.7402ZM28.0001 45.3047L27.9257 45.7991L28.5001 45.8855L28.5001 45.3047L28.0001 45.3047ZM26.0518 45.0117L25.6958 45.3628L25.8127 45.4814L25.9775 45.5062L26.0518 45.0117ZM19.8995 38.7715L19.543 39.1221L19.5434 39.1225L19.8995 38.7715ZM9.61626 32.1191C8.41582 32.1191 7.41832 32.3638 6.69964 32.9293L7.31803 33.7152C7.79076 33.3432 8.53155 33.1191 9.61626 33.1191L9.61626 32.1191ZM6.70275 32.9269C5.96859 33.4953 5.60064 34.2793 5.60064 35.2266L6.60064 35.2266C6.60064 34.5722 6.83815 34.0867 7.31493 33.7176L6.70275 32.9269ZM5.60064 35.2266C5.60064 36.4177 6.23556 37.5053 7.35243 38.4877L8.0129 37.7369C7.0204 36.8638 6.60064 36.0276 6.60064 35.2266L5.60064 35.2266ZM7.35267 38.4879C8.47807 39.4766 10.084 40.2213 12.1278 40.7497L12.3781 39.7815C10.4181 39.2748 8.9771 38.5839 8.01266 37.7367L7.35267 38.4879ZM11.753 40.2656L11.753 41.7305L12.753 41.7305L12.753 40.2656L11.753 40.2656ZM12.3304 41.2365L6.6322 40.343L6.47728 41.3309L12.1755 42.2244L12.3304 41.2365ZM6.97587 40.5674C6.82739 40.3354 6.63761 40.0132 6.4054 39.5971L5.5322 40.0845C5.76874 40.5083 5.96959 40.8502 6.1336 41.1064L6.97587 40.5674ZM6.4054 39.5971C6.19636 39.2226 5.89655 38.4726 5.50524 37.3085L4.55736 37.6271C4.9473 38.7872 5.27249 39.6192 5.5322 40.0845L6.4054 39.5971ZM5.50564 37.3097C5.12864 36.1787 4.94536 35.1338 4.94536 34.1719L3.94536 34.1719C3.94536 35.2607 4.15271 36.4131 4.55696 37.6259L5.50564 37.3097ZM4.94536 34.1719C4.94536 32.4538 5.37429 31.2299 6.15401 30.4163L5.43202 29.7244C4.41487 30.7857 3.94536 32.2962 3.94536 34.1719L4.94536 34.1719ZM6.15589 30.4143C6.9326 29.5949 8.00209 29.1641 9.42583 29.1641L9.42583 28.1641C7.78317 28.1641 6.43078 28.6707 5.43014 29.7263L6.15589 30.4143ZM9.42583 29.1641C10.2186 29.1641 10.964 29.2746 11.6647 29.493L11.9623 28.5383C11.1591 28.2879 10.3128 28.1641 9.42583 28.1641L9.42583 29.1641ZM11.6704 29.4947C12.3941 29.7109 13.0293 29.9715 13.5794 30.274L14.0613 29.3978C13.4395 29.0558 12.7369 28.7696 11.9566 28.5365L11.6704 29.4947ZM13.582 30.2755C14.1054 30.5594 14.7735 31.0649 15.5917 31.8157L16.2678 31.0789C15.4258 30.3062 14.6876 29.7375 14.0587 29.3964L13.582 30.2755ZM15.5917 31.8157C16.4155 32.5716 17.104 33.246 17.6593 33.8396L18.3896 33.1565C17.8121 32.5391 17.1042 31.8464 16.2678 31.0789L15.5917 31.8157ZM17.6621 33.8426C18.2229 34.4323 19.073 35.365 20.215 36.6436L20.9609 35.9775C19.8177 34.6975 18.9589 33.7552 18.3868 33.1535L17.6621 33.8426ZM20.2165 36.6453L24.6257 41.5379L25.3685 40.8684L20.9594 35.9758L20.2165 36.6453ZM25.4971 41.2031L25.4971 35.6514L24.4971 35.6514L24.4971 41.2031L25.4971 41.2031ZM25.4971 35.6514C25.4971 34.4058 25.1319 33.352 24.3645 32.5395L23.6375 33.2261C24.1983 33.8199 24.4971 34.6118 24.4971 35.6514L25.4971 35.6514ZM24.3644 32.5394C23.6118 31.7431 22.3589 31.0415 20.6762 30.408L20.3239 31.3439C21.9615 31.9604 23.0426 32.5968 23.6377 33.2263L24.3644 32.5394ZM21 30.876L21 29.5283L20 29.5283L20 30.876L21 30.876ZM20.3586 30.0079L27.8586 32.2198L28.1415 31.2607L20.6415 29.0487L20.3586 30.0079ZM27.5 31.7402L27.5001 45.3047L28.5001 45.3047L28.5 31.7402L27.5 31.7402ZM28.0744 44.8102L26.1262 44.5173L25.9775 45.5062L27.9257 45.7991L28.0744 44.8102ZM26.4079 44.6607L20.2555 38.4204L19.5434 39.1225L25.6958 45.3628L26.4079 44.6607ZM20.256 38.4209C16.2128 34.3093 12.6577 32.1191 9.61626 32.1191L9.61626 33.1191C12.2194 33.1191 15.5197 35.0306 19.543 39.1221L20.256 38.4209ZM7.00884 17.1797L7.31493 17.5751L7.31803 17.5726L7.00884 17.1797ZM7.68267 21.9697L7.35243 22.3452L7.35267 22.3454L7.68267 21.9697ZM12.253 24.123L12.753 24.123L12.753 23.7359L12.3781 23.639L12.253 24.123ZM12.253 25.5879L12.1755 26.0819L12.753 26.1724L12.753 25.5879L12.253 25.5879ZM6.55474 24.6943L6.1336 24.9639L6.25492 25.1534L6.47728 25.1883L6.55474 24.6943ZM5.0313 21.3252L4.55696 21.4833L4.55736 21.4845L5.0313 21.3252ZM5.79302 13.9277L6.15402 14.2737L6.15589 14.2717L5.79302 13.9277ZM11.8135 12.873L11.6647 13.3504L11.6704 13.3521L11.8135 12.873ZM13.8204 13.6934L13.5794 14.1315L13.582 14.1329L13.8204 13.6934ZM18.0245 17.3555L17.6593 17.6971L17.6621 17.7L18.0245 17.3555ZM20.5879 20.168L20.215 20.501L20.2165 20.5027L20.5879 20.168ZM24.9971 25.0605L24.6257 25.3953L25.4971 26.3622L25.4971 25.0605L24.9971 25.0605ZM24.001 16.7402L24.3645 16.3969L24.3644 16.3968L24.001 16.7402ZM20.5 14.7334L20 14.7334L20 15.0794L20.3239 15.2013L20.5 14.7334ZM20.5 13.3857L20.6415 12.9062L20 12.717L20 13.3857L20.5 13.3857ZM28 15.5977L28.5 15.5977L28.5 15.2238L28.1415 15.1181L28 15.5977ZM28 29.1621L27.9257 29.6566L28.5 29.7429L28.5 29.1621L28 29.1621ZM26.0518 28.8691L25.6958 29.2202L25.8127 29.3388L25.9775 29.3636L26.0518 28.8691ZM19.8995 22.6289L19.543 22.9795L19.5434 22.9799L19.8995 22.6289ZM9.61626 15.9766C8.41582 15.9766 7.41832 16.2212 6.69964 16.7868L7.31803 17.5726C7.79076 17.2006 8.53155 16.9766 9.61626 16.9766L9.61626 15.9766ZM6.70275 16.7843C5.96859 17.3527 5.60063 18.1368 5.60063 19.084L6.60063 19.084C6.60063 18.4296 6.83814 17.9442 7.31492 17.575L6.70275 16.7843ZM5.60063 19.084C5.60063 20.2752 6.23556 21.3627 7.35243 22.3452L8.0129 21.5943C7.0204 20.7213 6.60063 19.885 6.60063 19.084L5.60063 19.084ZM7.35267 22.3454C8.47807 23.334 10.084 24.0787 12.1278 24.6071L12.3781 23.639C10.4181 23.1322 8.9771 22.4414 8.01266 21.5941L7.35267 22.3454ZM11.753 24.123L11.753 25.5879L12.753 25.5879L12.753 24.123L11.753 24.123ZM12.3304 25.0939L6.6322 24.2004L6.47728 25.1883L12.1755 26.0819L12.3304 25.0939ZM6.97587 24.4248C6.82739 24.1928 6.63761 23.8706 6.4054 23.4546L5.5322 23.9419C5.76874 24.3657 5.96959 24.7076 6.1336 24.9639L6.97587 24.4248ZM6.4054 23.4546C6.19636 23.08 5.89655 22.33 5.50524 21.1659L4.55736 21.4845C4.9473 22.6446 5.27249 23.4766 5.5322 23.9419L6.4054 23.4546ZM5.50564 21.1671C5.12864 20.0361 4.94536 18.9912 4.94536 18.0293L3.94536 18.0293C3.94536 19.1181 4.1527 20.2706 4.55696 21.4833L5.50564 21.1671ZM4.94536 18.0293C4.94536 16.3112 5.37429 15.0873 6.15401 14.2737L5.43202 13.5818C4.41487 14.6432 3.94536 16.1536 3.94536 18.0293L4.94536 18.0293ZM6.15589 14.2717C6.9326 13.4523 8.00208 13.0215 9.42583 13.0215L9.42583 12.0215C7.78317 12.0215 6.43078 12.5281 5.43014 13.5838L6.15589 14.2717ZM9.42583 13.0215C10.2186 13.0215 10.964 13.132 11.6647 13.3504L11.9623 12.3957C11.1591 12.1453 10.3128 12.0215 9.42583 12.0215L9.42583 13.0215ZM11.6704 13.3521C12.3941 13.5683 13.0293 13.8289 13.5794 14.1315L14.0613 13.2553C13.4395 12.9133 12.7369 12.627 11.9566 12.394L11.6704 13.3521ZM13.582 14.1329C14.1054 14.4168 14.7735 14.9223 15.5917 15.6731L16.2678 14.9363C15.4258 14.1636 14.6876 13.5949 14.0587 13.2538L13.582 14.1329ZM15.5917 15.6731C16.4155 16.429 17.104 17.1035 17.6593 17.697L18.3896 17.0139C17.8121 16.3965 17.1042 15.7038 16.2678 14.9363L15.5917 15.6731ZM17.6621 17.7C18.2229 18.2898 19.073 19.2224 20.215 20.501L20.9609 19.8349C19.8177 18.5549 18.9589 17.6126 18.3868 17.0109L17.6621 17.7ZM20.2165 20.5027L24.6257 25.3953L25.3685 24.7258L20.9594 19.8332L20.2165 20.5027ZM25.4971 25.0605L25.4971 19.5088L24.4971 19.5088L24.4971 25.0605L25.4971 25.0605ZM25.4971 19.5088C25.4971 18.2632 25.1319 17.2094 24.3645 16.3969L23.6375 17.0835C24.1983 17.6773 24.4971 18.4692 24.4971 19.5088L25.4971 19.5088ZM24.3644 16.3968C23.6118 15.6005 22.3589 14.8989 20.6762 14.2655L20.3239 15.2013C21.9615 15.8179 23.0426 16.4542 23.6377 17.0837L24.3644 16.3968ZM21 14.7334L21 13.3857L20 13.3857L20 14.7334L21 14.7334ZM20.3586 13.8653L27.8586 16.0772L28.1415 15.1181L20.6415 12.9062L20.3586 13.8653ZM27.5 15.5977L27.5 29.1621L28.5 29.1621L28.5 15.5977L27.5 15.5977ZM28.0744 28.6677L26.1262 28.3747L25.9775 29.3636L27.9257 29.6566L28.0744 28.6677ZM26.4079 28.5181L20.2555 22.2779L19.5434 22.9799L25.6958 29.2202L26.4079 28.5181ZM20.256 22.2783C16.2128 18.1667 12.6577 15.9766 9.61626 15.9766L9.61626 16.9766C12.2194 16.9766 15.5197 18.888 19.543 22.9795L20.256 22.2783ZM3.55181 8.50781L3.21341 8.8759L3.45442 9.09748L3.75389 8.96516L3.55181 8.50781ZM2.6436 7.67285L2.29005 7.3193L1.92133 7.68802L2.3052 8.04094L2.6436 7.67285ZM3.22954 7.13086L3.5609 7.50544L3.56868 7.49826L3.22954 7.13086ZM4.88481 5.90039L5.16869 6.31201L5.17186 6.30979L4.88481 5.90039ZM7.58013 4.31836L7.79815 4.76833L7.79998 4.76743L7.58013 4.31836ZM11.2276 3.07324L11.3481 3.5585L11.3489 3.55831L11.2276 3.07324ZM20.3682 3.08789L20.4895 2.60282L20.4888 2.60264L20.3682 3.08789ZM24.4844 4.56738L24.2622 5.01532L24.2651 5.01673L24.4844 4.56738ZM28.0147 6.57422L27.7407 6.99246L27.7432 6.9941L28.0147 6.57422ZM33.0538 10.7637L32.7031 11.1201L32.706 11.1229L33.0538 10.7637ZM34.4161 12.2285L34.0198 12.5334L34.0269 12.5426L34.0344 12.5515L34.4161 12.2285ZM34.8995 12.7998L35.1963 13.2022L35.6264 12.8849L35.2812 12.4768L34.8995 12.7998ZM34.0059 13.459L33.6155 13.7713L33.9158 14.1468L34.3027 13.8613L34.0059 13.459ZM27.2383 8.75684L27.0226 9.20791L27.0253 9.20917L27.2383 8.75684ZM21.877 7.01367L21.9902 6.52666L21.9897 6.52655L21.877 7.01367ZM8.91313 6.80859L9.01168 7.29879L9.01217 7.29869L8.91313 6.80859ZM4.81157 7.95117L5.01366 8.40854L5.01807 8.40654L4.81157 7.95117ZM3.89021 8.13973L2.982 7.30477L2.3052 8.04094L3.21341 8.8759L3.89021 8.13973ZM2.99716 8.02641C3.12326 7.9003 3.3098 7.72742 3.56083 7.50536L2.89825 6.75636C2.64146 6.98352 2.43738 7.17197 2.29005 7.3193L2.99716 8.02641ZM3.56868 7.49826C3.7922 7.29194 4.31423 6.90127 5.16868 6.312L4.60095 5.48878C3.75618 6.07138 3.17469 6.50103 2.8904 6.76346L3.56868 7.49826ZM5.17186 6.30979C5.99927 5.72965 6.87459 5.21582 7.79815 4.76832L7.3621 3.8684C6.39113 4.33887 5.46958 4.87973 4.59777 5.491L5.17186 6.30979ZM7.79998 4.76743C8.69464 4.32942 9.87372 3.92469 11.3481 3.5585L11.1071 2.58799C9.59317 2.96399 8.34061 3.38933 7.36027 3.86929L7.79998 4.76743ZM11.3489 3.55831C12.7932 3.19722 14.2662 3.0166 15.7686 3.0166L15.7686 2.0166C14.1851 2.0166 12.6307 2.20708 11.1063 2.58817L11.3489 3.55831ZM15.7686 3.0166C17.26 3.0166 18.7527 3.20178 20.2477 3.57314L20.4888 2.60264C18.9173 2.21228 17.3437 2.0166 15.7686 2.0166L15.7686 3.0166ZM20.2469 3.57296C21.7407 3.94639 23.0782 4.42802 24.2623 5.01531L24.7066 4.11946C23.4493 3.49581 22.0426 2.99111 20.4895 2.60282L20.2469 3.57296ZM24.2651 5.01673C25.467 5.60325 26.6255 6.26181 27.7407 6.99245L28.2887 6.15599C27.1383 5.40225 25.9432 4.72292 24.7037 4.11803L24.2651 5.01673ZM27.7432 6.9941C28.8585 7.7152 29.8079 8.43163 30.5945 9.14246L31.265 8.40051C30.4305 7.6465 29.4365 6.89809 28.2862 6.15434L27.7432 6.9941ZM30.5945 9.14246C31.4012 9.8714 32.1039 10.5305 32.7031 11.1201L33.4044 10.4073C32.7927 9.80543 32.0794 9.13641 31.265 8.40051L30.5945 9.14246ZM32.706 11.1229C33.315 11.7126 33.7488 12.1811 34.0198 12.5334L34.8124 11.9237C34.4974 11.5142 34.023 11.0062 33.4016 10.4045L32.706 11.1229ZM34.0344 12.5515L34.5178 13.1228L35.2812 12.4768L34.7978 11.9055L34.0344 12.5515ZM34.6026 12.3974L33.7091 13.0566L34.3027 13.8613L35.1963 13.2022L34.6026 12.3974ZM34.3963 13.1466C34.2204 12.9267 33.9585 12.6507 33.6217 12.3238L32.9252 13.0414C33.2526 13.3591 33.479 13.6007 33.6155 13.7713L34.3963 13.1466ZM33.6217 12.3238C33.2571 11.97 32.4724 11.3718 31.3066 10.5461L30.7286 11.3621C31.9066 12.1965 32.6258 12.7508 32.9252 13.0414L33.6217 12.3238ZM31.3066 10.5461C30.1099 9.69842 28.8246 8.95132 27.4514 8.3045L27.0253 9.20917C28.3473 9.83189 29.5816 10.5496 30.7286 11.3621L31.3066 10.5461ZM27.4541 8.30577C26.0612 7.63964 24.2356 7.04862 21.9902 6.52666L21.7638 7.50069C23.9715 8.01388 25.7201 8.58497 27.0226 9.2079L27.4541 8.30577ZM21.9897 6.52655C19.7145 5.99996 17.3474 5.73731 14.8897 5.73731L14.8897 6.73731C17.2757 6.73731 19.5669 6.99223 21.7643 7.5008L21.9897 6.52655ZM14.8897 5.73731C12.7598 5.73731 10.7343 5.93048 8.8141 6.3185L9.01217 7.29869C10.8615 6.92499 12.8203 6.73731 14.8897 6.73731L14.8897 5.73731ZM8.81459 6.3184C6.91413 6.70045 5.49977 7.09007 4.60507 7.49581L5.01807 8.40654C5.80306 8.05055 7.12308 7.67845 9.01168 7.29879L8.81459 6.3184ZM4.60949 7.49383L3.34972 8.05047L3.75389 8.96516L5.01365 8.40852L4.60949 7.49383Z" fill="#ED1C24"/>
<path d="M39.7012 189.299L60.253 189.299C62.8702 189.299 64.8477 189.953 66.1856 191.262C67.5333 192.57 68.2071 194.465 68.2071 196.945C68.2071 197.521 68.1436 198.112 68.0167 198.718C67.8995 199.323 67.7823 199.782 67.6651 200.095L67.4454 200.549L62.8018 200.549L62.8018 198.293L66.2442 196.799C66.1661 196.018 65.6973 195.373 64.838 194.865C63.9786 194.357 62.6505 194.104 60.8536 194.104L42.4258 194.104C41.088 194.104 40.2237 194.265 39.8331 194.587C39.4424 194.899 39.2471 195.588 39.2471 196.652L37.8995 196.652L37.8995 186.75L39.1006 186.75L39.7012 189.299ZM50.8047 172.204L56.1954 172.204C57.3575 172.204 58.1485 172.048 58.5684 171.735C58.9883 171.423 59.1983 170.881 59.1983 170.109L60.3995 170.109C60.4385 170.988 60.5362 171.916 60.6924 172.893C60.8389 173.869 60.9805 174.621 61.1172 175.148L61.293 175.954L58.4512 176.247L58.4512 176.555C58.5294 176.613 58.6368 176.696 58.7735 176.804C58.9005 176.901 59.1251 177.116 59.4473 177.448C59.7598 177.771 60.043 178.117 60.2969 178.488C60.5411 178.859 60.7706 179.338 60.9854 179.924C61.1905 180.5 61.293 181.076 61.293 181.652C61.293 182.971 60.9708 184.001 60.3262 184.743C59.6719 185.485 58.8467 185.856 57.8506 185.856C56.9522 185.856 56.1319 185.544 55.3897 184.919C54.6475 184.284 54.0665 183.518 53.6465 182.619C53.2266 181.711 52.8751 180.812 52.5919 179.924C52.2989 179.035 52.1036 178.283 52.0059 177.668L51.8448 176.701L51.0977 176.701C48.5977 176.701 47.3477 177.6 47.3477 179.396C47.3477 179.66 47.3819 179.943 47.4503 180.246C47.5186 180.549 47.5967 180.788 47.6846 180.964L47.8018 181.198L51.0977 182.253L51.0977 184.655L46.8936 184.655C46.7764 184.46 46.6397 184.177 46.4835 183.806C46.3174 183.435 46.0977 182.697 45.8243 181.594C45.5411 180.49 45.3995 179.411 45.3995 178.356C45.3995 176.374 45.8829 174.855 46.8497 173.801C47.8067 172.736 49.1251 172.204 50.8047 172.204ZM58.1436 179.558C58.1436 179.079 58.0215 178.601 57.7774 178.122C57.5235 177.634 57.2794 177.282 57.045 177.067L56.6495 176.701L53.5001 176.701C53.5196 176.818 53.5489 176.979 53.588 177.185C53.627 177.38 53.7393 177.741 53.9249 178.269C54.1006 178.786 54.296 179.245 54.5108 179.646C54.7159 180.046 55.0137 180.407 55.4044 180.729C55.795 181.042 56.21 181.198 56.6495 181.198C57.1085 181.198 57.4747 181.057 57.7481 180.773C58.0118 180.48 58.1436 180.075 58.1436 179.558ZM51.4053 143.537L57.1036 143.537C58.2071 143.537 58.9346 143.4 59.2862 143.127C59.628 142.844 59.7989 142.282 59.7989 141.442L61.0001 141.442L61.0001 149.836L59.7989 149.836L59.3448 148.034L51.6983 148.034C49.6963 148.034 48.6954 148.786 48.6954 150.29C48.6954 150.769 48.8077 151.242 49.0323 151.711C49.2471 152.18 49.4766 152.536 49.7208 152.78L50.043 153.146C50.3458 153.049 50.8975 152.995 51.6983 152.985L57.1036 152.985C58.2071 152.985 58.9346 152.854 59.2862 152.59C59.628 152.316 59.7989 151.799 59.7989 151.037L61.0001 151.037L61.0001 159.284L59.7989 159.284L59.3448 157.497L51.6983 157.497C49.6963 157.497 48.6954 158.244 48.6954 159.738C48.6954 160.178 48.7979 160.622 49.003 161.071C49.1983 161.521 49.3985 161.857 49.6036 162.082L49.8965 162.434L57.1036 162.434C58.2071 162.434 58.9346 162.302 59.2862 162.038C59.628 161.765 59.7989 161.247 59.7989 160.485L61.0001 160.485L61.0001 169.04L59.7989 169.04L59.3448 166.945L50.4971 166.945C49.335 166.945 48.544 167.102 48.1241 167.414C47.7042 167.717 47.4942 168.259 47.4942 169.04L46.293 169.04C46.254 168.161 46.1612 167.233 46.0147 166.257C45.8682 165.271 45.7217 164.519 45.5753 164.001L45.3995 163.195L48.0948 162.888L48.0948 162.595C48.0167 162.556 47.919 162.492 47.8018 162.404C47.6846 162.307 47.4698 162.106 47.1573 161.804C46.8448 161.491 46.5713 161.159 46.337 160.808C46.0928 160.456 45.878 159.997 45.6924 159.431C45.4971 158.854 45.3995 158.259 45.3995 157.644C45.3995 157.067 45.4971 156.53 45.6924 156.032C45.878 155.524 46.1026 155.134 46.3663 154.86C46.6202 154.577 46.879 154.333 47.1426 154.128C47.3965 153.913 47.6163 153.762 47.8018 153.674L48.0948 153.586L48.0948 153.293C48.0167 153.254 47.919 153.186 47.8018 153.088C47.6846 152.98 47.4698 152.771 47.1573 152.458C46.8448 152.136 46.5713 151.789 46.337 151.418C46.0928 151.047 45.878 150.573 45.6924 149.997C45.4971 149.411 45.3995 148.811 45.3995 148.195C45.3995 146.799 45.9122 145.676 46.9376 144.826C47.9532 143.967 49.4424 143.537 51.4053 143.537ZM47.3477 132.141C47.3477 132.863 47.6944 133.488 48.3878 134.016C49.0713 134.543 50.126 134.919 51.5518 135.144L51.0977 129.885L50.3506 129.885C49.4131 129.885 48.6807 130.1 48.1534 130.529C47.6163 130.959 47.3477 131.496 47.3477 132.141ZM45.3995 131.833C45.3995 129.812 45.9659 128.229 47.0987 127.087C48.2217 125.935 49.8038 125.319 51.8448 125.241L53.2071 126.735L53.2071 135.144C54.8477 135.065 56.0831 134.631 56.9131 133.84C57.7335 133.049 58.1436 131.931 58.1436 130.485C58.1436 129.685 58.0362 128.928 57.8213 128.215C57.5967 127.492 57.377 126.97 57.1622 126.647L56.796 126.135L57.543 125.388C57.6407 125.446 57.7774 125.534 57.9532 125.651C58.129 125.759 58.4317 126.022 58.8614 126.442C59.2911 126.862 59.6719 127.312 60.004 127.79C60.3262 128.269 60.6241 128.913 60.8975 129.724C61.1612 130.534 61.293 131.389 61.293 132.287C61.293 134.465 60.5655 136.286 59.1104 137.751C57.6456 139.206 55.8243 139.934 53.6465 139.934C51.3223 139.934 49.3692 139.147 47.7872 137.575C46.1954 136.003 45.3995 134.089 45.3995 131.833ZM57.2501 114.899C56.7715 114.899 56.3272 115.173 55.917 115.72C55.5069 116.257 55.1358 116.906 54.8038 117.668C54.4717 118.42 54.1055 119.177 53.7051 119.938C53.3047 120.7 52.7676 121.354 52.0938 121.901C51.4102 122.438 50.629 122.707 49.7501 122.707C48.4708 122.707 47.4258 122.18 46.6153 121.125C45.8047 120.061 45.3995 118.488 45.3995 116.408C45.3995 115.568 45.4922 114.748 45.6778 113.947C45.8536 113.146 46.0196 112.556 46.1758 112.175L46.4542 111.604L50.3506 111.604L50.3506 113.098C49.2276 113.322 48.4219 113.669 47.9337 114.138C47.4454 114.606 47.2012 115.261 47.2012 116.101C47.2012 116.765 47.3624 117.282 47.6846 117.653C47.9971 118.015 48.3878 118.195 48.8565 118.195C49.3936 118.195 49.8575 117.927 50.2481 117.39C50.6387 116.853 50.9756 116.203 51.2588 115.441C51.5323 114.68 51.8448 113.923 52.1963 113.171C52.5479 112.409 53.0655 111.76 53.7491 111.223C54.4229 110.676 55.2383 110.402 56.1954 110.402C57.6114 110.402 58.8174 111.013 59.8135 112.233C60.7999 113.454 61.293 115.144 61.293 117.302C61.293 118.317 61.1954 119.318 61.0001 120.305C60.8047 121.281 60.6045 121.999 60.3995 122.458L60.1065 123.146L55.4483 123.146L55.4483 121.652C58.1436 121.193 59.4962 119.841 59.5059 117.595C59.5059 116.794 59.2862 116.145 58.8467 115.646C58.3975 115.148 57.8653 114.899 57.2501 114.899ZM39.7012 91.7988L60.253 91.7988C62.8702 91.7988 64.8477 92.4531 66.1856 93.7617C67.5333 95.0703 68.2071 96.9648 68.2071 99.4453C68.2071 100.021 68.1436 100.612 68.0167 101.218C67.8995 101.823 67.7823 102.282 67.6651 102.595L67.4454 103.049L62.8018 103.049L62.8018 100.793L66.2442 99.2988C66.1661 98.5176 65.6973 97.873 64.8379 97.3652C63.9786 96.8574 62.6504 96.6035 60.8536 96.6035L42.4258 96.6035C41.0879 96.6035 40.2237 96.7646 39.8331 97.0869C39.4424 97.3994 39.2471 98.0879 39.2471 99.1523L37.8995 99.1523L37.8995 89.25L39.1006 89.25L39.7012 91.7988ZM53.046 83.2588C57.3428 83.2588 59.4961 82.0576 59.5059 79.6553C59.5059 78.7373 59.0225 77.9609 58.0557 77.3262C57.0792 76.6816 55.6094 76.3594 53.6465 76.3594C49.3497 76.3594 47.2012 77.5557 47.2012 79.9482C47.2012 80.8662 47.6846 81.6475 48.6514 82.292C49.6182 82.9365 51.0831 83.2588 53.046 83.2588ZM53.2071 71.5547C55.4825 71.5547 57.4014 72.3652 58.9639 73.9863C60.5167 75.6074 61.293 77.6484 61.293 80.1094C61.293 82.4336 60.5606 84.3379 59.0958 85.8223C57.6211 87.3066 55.7559 88.0488 53.5001 88.0488C51.2247 88.0488 49.3057 87.2432 47.7432 85.6318C46.1807 84.0107 45.3995 81.9697 45.3995 79.5088C45.3995 77.1846 46.1368 75.2803 47.6114 73.7959C49.086 72.3018 50.9512 71.5547 53.2071 71.5547ZM61.0001 63.3223L49.6036 68.4199C48.5879 68.8789 47.8848 69.3281 47.4942 69.7676C47.0938 70.207 46.8936 70.8076 46.8936 71.5693L45.7071 71.5693L45.7071 62.1211L46.8936 62.1211L47.3477 64.5088L54.9942 61.0664L56.6495 60.7588L56.6495 60.4658L49.4571 57.4629C48.959 57.2676 48.4561 57.1699 47.9483 57.1699C47.2452 57.1699 46.8936 57.8682 46.8936 59.2646L45.7071 59.2646L45.7071 52.2187L46.8936 52.2187L47.3477 54.3135L61.0001 60.0117C63.6954 61.1348 65.5704 62.2236 66.6251 63.2783C67.6797 64.3232 68.2071 65.6367 68.2071 67.2187C68.2071 67.5801 68.1778 67.9463 68.1192 68.3174C68.0704 68.6787 68.0167 68.9619 67.9581 69.167L67.8995 69.46L63.2559 69.46L63.2559 67.2187L66.2442 66.0176C66.2442 65.959 66.2247 65.8857 66.1856 65.7979C66.1465 65.7002 66.0196 65.5098 65.8047 65.2266C65.5997 64.9336 65.3262 64.6504 64.9844 64.377C64.6524 64.0937 64.1348 63.7568 63.4317 63.3662C62.7286 62.9756 61.918 62.6094 61.0001 62.2676L61.0001 63.3223ZM53.6465 52.2187C51.2833 52.2187 49.3204 51.3936 47.7579 49.7432C46.1856 48.0928 45.3995 45.9687 45.3995 43.3711C45.3995 42.3945 45.5118 41.4814 45.7364 40.6318C45.9512 39.7822 46.1807 39.1768 46.4249 38.8154L46.7471 38.2734L51.5518 38.2734L51.5518 40.3682L47.6553 41.7305C47.46 42.1309 47.3575 42.6777 47.3477 43.3711C47.3477 44.4941 47.8458 45.4512 48.8419 46.2422C49.8282 47.0332 51.1807 47.4287 52.8995 47.4287C54.5206 47.4287 55.7999 46.999 56.7374 46.1396C57.6749 45.2803 58.1436 44.1572 58.1436 42.7705C58.1436 41.9697 58.0362 41.2129 57.8213 40.5C57.5967 39.7773 57.377 39.2549 57.1622 38.9326L56.796 38.4199L57.543 37.6729C57.6407 37.7314 57.7774 37.8193 57.9532 37.9365C58.129 38.0439 58.4317 38.3076 58.8614 38.7275C59.2911 39.1475 59.6719 39.5967 60.004 40.0752C60.3262 40.5537 60.6241 41.1982 60.8975 42.0088C61.1612 42.8193 61.293 43.6738 61.293 44.5723C61.293 46.75 60.5655 48.5713 59.1104 50.0361C57.6456 51.4912 55.8243 52.2187 53.6465 52.2187ZM47.3477 28.2246C47.3477 28.9473 47.6944 29.5723 48.3877 30.0996C49.0713 30.627 50.126 31.0029 51.5518 31.2275L51.0977 25.9687L50.3506 25.9687C49.4131 25.9687 48.6807 26.1836 48.1534 26.6133C47.6163 27.043 47.3477 27.5801 47.3477 28.2246ZM45.3995 27.917C45.3995 25.8955 45.9659 24.3135 47.0987 23.1709C48.2217 22.0186 49.8038 21.4033 51.8448 21.3252L53.2071 22.8193L53.2071 31.2275C54.8477 31.1494 56.0831 30.7148 56.9131 29.9238C57.7335 29.1328 58.1436 28.0146 58.1436 26.5693C58.1436 25.7686 58.0362 25.0117 57.8213 24.2988C57.5967 23.5762 57.377 23.0537 57.1622 22.7314L56.796 22.2187L57.543 21.4717C57.6407 21.5303 57.7774 21.6182 57.9532 21.7354C58.129 21.8428 58.4317 22.1064 58.8614 22.5264C59.2911 22.9463 59.6719 23.3955 60.004 23.874C60.3262 24.3525 60.6241 24.9971 60.8975 25.8076C61.1612 26.6182 61.293 27.4727 61.293 28.3711C61.293 30.5488 60.5655 32.3701 59.1104 33.835C57.6456 35.29 55.8243 36.0176 53.6465 36.0176C51.3223 36.0176 49.3692 35.2314 47.7872 33.6592C46.1954 32.0869 45.3995 30.1729 45.3995 27.917Z" fill="#ED1C24"/>
</svg>
