<svg width="167" height="38" viewBox="0 0 167 38" fill="none" xmlns="http://www.w3.org/2000/svg">
<path d="M6.03516 16.501L5.62076 16.2212L5.62036 16.2218L6.03516 16.501ZM7.82226 24.7041L7.51653 24.3084L7.51362 24.3107L7.82226 24.7041ZM9.33105 23.1953L8.92633 22.9017L8.92366 22.9054L9.33105 23.1953ZM9.87305 22.4482L10.2778 22.7419L10.348 22.645L10.3668 22.5269L9.87305 22.4482ZM11.0449 15.0947L11.5387 15.1734L11.5631 15.0202L11.4965 14.88L11.0449 15.0947ZM14.9414 12.5459L15.4353 12.6241L15.5268 12.0459L14.9414 12.0459L14.9414 12.5459ZM12.9932 24.8506L12.4993 24.7724L12.4932 24.8112L12.4932 24.8506L12.9932 24.8506ZM15 23.8252L14.5466 23.6143L15 23.8252ZM15.293 23.1953L15.5564 22.7704L15.0773 22.4733L14.8396 22.9844L15.293 23.1953ZM16.0254 23.6494L16.4997 23.8075L16.6247 23.4327L16.2889 23.2245L16.0254 23.6494ZM15.835 24.1475L15.372 23.9581L15.3677 23.9695L15.835 24.1475ZM15.293 25.2754L14.849 25.0455L14.8474 25.0485L15.293 25.2754ZM13.1396 27.7949L13.4096 28.2158L13.4152 28.2122L13.1396 27.7949ZM9.47754 24.8506L9.96739 24.9511L9.96871 24.9441L9.47754 24.8506ZM9.53613 24.543L10.0273 24.6365L10.1404 24.043L9.53613 24.043L9.53613 24.543ZM9.41894 24.543L9.41894 24.043L9.13585 24.043L8.9902 24.2857L9.41894 24.543ZM9.16992 24.9531L8.74328 24.6924L8.73787 24.7012L8.73284 24.7103L9.16992 24.9531ZM8.49609 25.8613L8.10908 25.5447L8.10479 25.5501L8.49609 25.8613ZM7.42676 27.0039L7.75464 27.3815L7.76015 27.3765L7.42676 27.0039ZM6.02051 27.8975L6.23455 28.3493L6.23788 28.3477L6.02051 27.8975ZM1.71387 27.0479L1.31893 27.3545L1.32119 27.3574L1.71387 27.0479ZM3.39844 15.666L3.0183 15.3412L3.01742 15.3422L3.39844 15.666ZM11.0889 12.7803L10.9392 13.2575L10.9503 13.2607L11.0889 12.7803ZM12.1729 13.2344L11.8788 13.6387L11.8891 13.6462L11.8997 13.6532L12.1729 13.2344ZM12.5098 13.4541L12.2366 13.8729L12.4592 14.0181L12.7041 13.9148L12.5098 13.4541ZM14.6631 12.5459L14.6631 12.0459L14.562 12.0459L14.4688 12.0852L14.6631 12.5459ZM9.41894 13.7012C7.95872 13.7012 6.69848 14.625 5.62076 16.2212L6.44955 16.7808C7.44215 15.3106 8.43776 14.7012 9.41894 14.7012L9.41894 13.7012ZM5.62036 16.2218C4.51993 17.8567 3.99707 20.0518 3.99707 22.7559L4.99707 22.7559C4.99707 20.167 5.4996 18.1921 6.44995 16.7802L5.62036 16.2218ZM3.99707 22.7559C3.99707 23.6855 4.12682 24.4635 4.44732 25.0252C4.79168 25.6286 5.34097 25.9512 6.03515 25.9512L6.03515 24.9512C5.70395 24.9512 5.4842 24.8245 5.31586 24.5295C5.12367 24.1927 4.99707 23.6231 4.99707 22.7559L3.99707 22.7559ZM6.03515 25.9512C6.74425 25.9512 7.44642 25.6345 8.13091 25.0975L7.51362 24.3107C6.92858 24.7698 6.43935 24.9512 6.03515 24.9512L6.03515 25.9512ZM8.12799 25.0997C8.8002 24.5803 9.34142 24.0432 9.73845 23.4852L8.92366 22.9054C8.59803 23.3631 8.13339 23.8318 7.51654 24.3085L8.12799 25.0997ZM9.73576 23.4889L10.2778 22.7419L9.46833 22.1546L8.92634 22.9017L9.73576 23.4889ZM10.3668 22.5269L11.5387 15.1734L10.5512 15.016L9.37928 22.3696L10.3668 22.5269ZM11.4965 14.88C11.313 14.4941 11.0361 14.1893 10.6668 13.9864C10.3034 13.7867 9.87939 13.7012 9.41894 13.7012L9.41894 14.7012C9.75928 14.7012 10.0066 14.7646 10.1852 14.8628C10.358 14.9577 10.4936 15.0996 10.5934 15.3094L11.4965 14.88ZM14.4476 12.4677L12.4993 24.7724L13.487 24.9288L15.4353 12.6241L14.4476 12.4677ZM12.4932 24.8506C12.4932 24.8429 12.4934 24.8372 12.4936 24.8339C12.4937 24.8304 12.4939 24.8282 12.494 24.8274C12.4941 24.826 12.494 24.8274 12.4934 24.8325C12.4921 24.8428 12.4896 24.86 12.4853 24.8856L13.4717 25.05C13.4803 24.9987 13.4932 24.9185 13.4932 24.8506L12.4932 24.8506ZM12.4853 24.8856C12.4731 24.9589 12.4639 25.0374 12.4639 25.1143L13.4639 25.1143C13.4639 25.1149 13.4639 25.1099 13.465 25.0981C13.4662 25.0865 13.4683 25.0707 13.4717 25.05L12.4853 24.8856ZM12.4639 25.1143C12.4639 25.3625 12.5014 25.6353 12.6474 25.8595C12.8176 26.1209 13.0866 26.2441 13.374 26.2441L13.374 25.2441C13.3702 25.2441 13.3911 25.2437 13.4224 25.2597C13.4555 25.2766 13.4763 25.2998 13.4854 25.3138C13.4923 25.3245 13.4858 25.3193 13.4781 25.2838C13.4705 25.2485 13.4639 25.1937 13.4639 25.1143L12.4639 25.1143ZM13.374 26.2441C13.645 26.2441 13.8814 26.1258 14.0717 25.9814C14.2641 25.8354 14.4473 25.6347 14.6236 25.3996L13.8236 24.7996C13.6777 24.9942 13.5582 25.1157 13.4673 25.1847C13.3745 25.2551 13.3472 25.2441 13.374 25.2441L13.374 26.2441ZM14.6236 25.3996C14.9635 24.9464 15.2413 24.492 15.4534 24.0361L14.5466 23.6143C14.3681 23.9982 14.1283 24.3934 13.8236 24.7996L14.6236 25.3996ZM15.4534 24.0361L15.7463 23.4062L14.8396 22.9844L14.5466 23.6143L15.4534 24.0361ZM15.0295 23.6203L15.7619 24.0744L16.2889 23.2245L15.5564 22.7704L15.0295 23.6203ZM15.551 23.4913C15.5173 23.5925 15.4588 23.7463 15.3722 23.9581L16.2977 24.3368C16.3869 24.1189 16.4553 23.9407 16.4997 23.8075L15.551 23.4913ZM15.3677 23.9695C15.3012 24.1439 15.1337 24.4956 14.849 25.0455L15.737 25.5053C16.0186 24.9614 16.2124 24.5611 16.3022 24.3255L15.3677 23.9695ZM14.8474 25.0485C14.587 25.56 14.3072 25.9988 14.0099 26.3681L14.7889 26.9951C15.1361 26.5637 15.4521 26.065 15.7385 25.5022L14.8474 25.0485ZM14.0099 26.3681C13.7259 26.7209 13.3472 27.0587 12.8641 27.3777L13.4152 28.2122C13.9673 27.8476 14.4284 27.4431 14.7889 26.9951L14.0099 26.3681ZM12.8697 27.3741C12.4255 27.659 11.9762 27.793 11.5137 27.793L11.5137 28.793C12.184 28.793 12.8187 28.5949 13.4096 28.2158L12.8697 27.3741ZM11.5137 27.793C10.8817 27.793 10.4973 27.6258 10.2637 27.3763C10.0242 27.1206 9.86035 26.6906 9.86035 25.9932L8.86035 25.9932C8.86035 26.8289 9.05534 27.5489 9.53369 28.0598C10.0178 28.5768 10.7101 28.793 11.5137 28.793L11.5137 27.793ZM9.86035 25.9932C9.86035 25.6468 9.89585 25.2995 9.96734 24.9511L8.98774 24.7501C8.90297 25.1633 8.86035 25.5779 8.86035 25.9932L9.86035 25.9932ZM9.96871 24.9441L10.0273 24.6365L9.04496 24.4494L8.98637 24.757L9.96871 24.9441ZM9.53613 24.043L9.41894 24.043L9.41894 25.043L9.53613 25.043L9.53613 24.043ZM8.9902 24.2857C8.93264 24.3816 8.85046 24.517 8.74328 24.6924L9.59656 25.2138C9.70422 25.0377 9.78806 24.8996 9.84769 24.8002L8.9902 24.2857ZM8.73284 24.7103C8.66008 24.8413 8.46372 25.1113 8.10911 25.5447L8.88307 26.1779C9.23159 25.752 9.48444 25.4165 9.607 25.1959L8.73284 24.7103ZM8.10479 25.5501C7.77877 25.9599 7.44145 26.3198 7.09336 26.6313L7.76015 27.3765C8.15425 27.0239 8.52982 26.6221 8.88739 26.1726L8.10479 25.5501ZM7.09891 26.6264C6.76906 26.9128 6.34018 27.1879 5.80313 27.4472L6.23788 28.3477C6.83365 28.0601 7.34226 27.7395 7.7546 27.3814L7.09891 26.6264ZM5.80646 27.4456C5.30953 27.681 4.82562 27.793 4.35058 27.793L4.35058 28.793C4.98883 28.793 5.6182 28.6413 6.23455 28.3493L5.80646 27.4456ZM4.35058 27.793C3.3924 27.793 2.66128 27.4421 2.10654 26.7383L1.32119 27.3574C2.07504 28.3138 3.10174 28.793 4.35058 28.793L4.35058 27.793ZM2.10879 26.7412C1.55738 26.031 1.24707 24.9743 1.24707 23.5029L0.247069 23.5029C0.247069 25.098 0.581291 26.4045 1.31894 27.3545L2.10879 26.7412ZM1.24707 23.5029C1.24707 20.4579 2.1002 17.9659 3.77945 15.9898L3.01742 15.3422C1.16152 17.5263 0.247069 20.2589 0.247069 23.5029L1.24707 23.5029ZM3.77857 15.9908C5.48001 13.9996 7.39495 13.0459 9.53613 13.0459L9.53613 12.0459C7.04841 12.0459 4.87155 13.1723 3.0183 15.3412L3.77857 15.9908ZM9.53613 13.0459C10.024 13.0459 10.491 13.1167 10.9392 13.2573L11.2385 12.3032C10.6907 12.1313 10.1225 12.0459 9.53613 12.0459L9.53613 13.0459ZM10.9503 13.2607C11.4463 13.4038 11.7375 13.536 11.8788 13.6387L12.4669 12.83C12.1785 12.6203 11.7471 12.4498 11.2274 12.2999L10.9503 13.2607ZM11.8997 13.6532L12.2366 13.8729L12.7829 13.0353L12.446 12.8156L11.8997 13.6532ZM12.7041 13.9148L14.8574 13.0066L14.4688 12.0852L12.3155 12.9934L12.7041 13.9148ZM14.6631 13.0459L14.9414 13.0459L14.9414 12.0459L14.6631 12.0459L14.6631 13.0459ZM17.666 24.8506L17.172 24.7729L17.1708 24.7815L17.666 24.8506ZM20.2148 8.64941L19.7231 8.55792L19.7209 8.57171L20.2148 8.64941ZM20.3467 7.38965L20.8467 7.40128L20.8467 7.38965L20.3467 7.38965ZM18.7793 5.79297L18.2863 5.70964L18.1877 6.29297L18.7793 6.29297L18.7793 5.79297ZM18.9551 4.75293L18.9098 4.25498L18.5263 4.28985L18.4621 4.6696L18.9551 4.75293ZM21.6211 4.37207L21.7151 4.86316L21.7192 4.86236L21.6211 4.37207ZM23.7598 3.87402L23.6452 3.38731L23.6319 3.39046L23.6187 3.39434L23.7598 3.87402ZM24.5068 3.69824L25.0008 3.77589L25.1163 3.04119L24.3923 3.21153L24.5068 3.69824ZM21.1816 24.8506L20.6877 24.7729L20.6816 24.8115L20.6816 24.8506L21.1816 24.8506ZM23.1592 23.8252L22.7098 23.6057L22.7058 23.6143L23.1592 23.8252ZM23.4668 23.1953L23.7265 22.7681L23.2581 22.4833L23.0175 22.9759L23.4668 23.1953ZM24.2139 23.6494L24.6882 23.8075L24.8143 23.4293L24.4736 23.2222L24.2139 23.6494ZM24.0234 24.1475L23.5605 23.9581L23.5562 23.9695L24.0234 24.1475ZM23.4668 25.2754L23.026 25.0393L23.0245 25.0422L23.4668 25.2754ZM21.2988 27.7949L21.5688 28.2158L21.5744 28.2122L21.2988 27.7949ZM18.1599 24.9283L20.7088 8.72712L19.7209 8.57171L17.1721 24.7729L18.1599 24.9283ZM20.7064 8.74087C20.7894 8.29505 20.8361 7.84843 20.8465 7.40127L19.8468 7.37802C19.8377 7.77071 19.7966 8.16394 19.7233 8.55796L20.7064 8.74087ZM20.8467 7.38965C20.8467 6.74966 20.715 6.15566 20.305 5.77713L19.6267 6.51193C19.7244 6.60215 19.8467 6.83823 19.8467 7.38965L20.8467 7.38965ZM20.305 5.77713C19.919 5.42089 19.375 5.29297 18.7793 5.29297L18.7793 6.29297C19.2578 6.29297 19.5048 6.39942 19.6267 6.51193L20.305 5.77713ZM19.2723 5.87629L19.4481 4.83625L18.4621 4.6696L18.2863 5.70964L19.2723 5.87629ZM19.0003 5.25088C19.8774 5.17115 20.7823 5.04177 21.7151 4.86315L21.5271 3.88099C20.6239 4.05394 19.7515 4.17846 18.9098 4.25498L19.0003 5.25088ZM21.7192 4.86236C22.6517 4.67585 23.3816 4.50644 23.9008 4.35371L23.6187 3.39434C23.1419 3.53458 22.446 3.69719 21.523 3.88178L21.7192 4.86236ZM23.8743 4.36073L24.6214 4.18495L24.3923 3.21153L23.6452 3.38731L23.8743 4.36073ZM24.0129 3.62059L20.6877 24.7729L21.6756 24.9282L25.0008 3.77589L24.0129 3.62059ZM20.6816 24.8506C20.6816 24.8429 20.6819 24.8372 20.682 24.8339C20.6822 24.8304 20.6824 24.8282 20.6825 24.8274C20.6826 24.826 20.6825 24.8274 20.6818 24.8325C20.6805 24.8428 20.6781 24.86 20.6738 24.8856L21.6602 25.05C21.6687 24.9987 21.6816 24.9185 21.6816 24.8506L20.6816 24.8506ZM20.6738 24.8856C20.6616 24.9589 20.6523 25.0374 20.6523 25.1143L21.6523 25.1143C21.6523 25.1149 21.6523 25.1099 21.6535 25.0981C21.6547 25.0865 21.6567 25.0707 21.6602 25.05L20.6738 24.8856ZM20.6523 25.1143C20.6523 25.3625 20.6899 25.6353 20.8359 25.8595C21.0061 26.1209 21.275 26.2441 21.5625 26.2441L21.5625 25.2441C21.5586 25.2441 21.5796 25.2437 21.6109 25.2597C21.644 25.2766 21.6647 25.2998 21.6739 25.3138C21.6808 25.3245 21.6743 25.3193 21.6666 25.2838C21.6589 25.2485 21.6523 25.1937 21.6523 25.1143L20.6523 25.1143ZM21.5625 26.2441C21.8345 26.2441 22.0705 26.125 22.2599 25.9788C22.4506 25.8316 22.6304 25.6295 22.8018 25.3937L21.9931 24.8055C21.8521 24.9994 21.7364 25.1196 21.6488 25.1872C21.5599 25.2559 21.5347 25.2441 21.5625 25.2441L21.5625 26.2441ZM22.8018 25.3937C23.1306 24.9416 23.4018 24.4891 23.6125 24.0361L22.7058 23.6143C22.5259 24.0011 22.2893 24.3982 21.9931 24.8055L22.8018 25.3937ZM23.6085 24.0446L23.9161 23.4147L23.0175 22.9759L22.7099 23.6058L23.6085 24.0446ZM23.2071 23.6226L23.9542 24.0767L24.4736 23.2222L23.7265 22.7681L23.2071 23.6226ZM23.7395 23.4913C23.7058 23.5925 23.6473 23.7463 23.5607 23.9581L24.4862 24.3368C24.5753 24.1189 24.6438 23.9407 24.6882 23.8075L23.7395 23.4913ZM23.5562 23.9695C23.4912 24.1401 23.3209 24.4889 23.0261 25.0393L23.9075 25.5115C24.1986 24.9681 24.3994 24.565 24.4907 24.3255L23.5562 23.9695ZM23.0245 25.0422C22.7537 25.5558 22.468 25.9968 22.1691 26.3681L22.9481 26.9951C23.2937 26.5657 23.6135 26.0691 23.9091 25.5086L23.0245 25.0422ZM22.1691 26.3681C21.8851 26.7209 21.5064 27.0587 21.0233 27.3777L21.5744 28.2122C22.1264 27.8476 22.5875 27.4431 22.9481 26.9951L22.1691 26.3681ZM21.0288 27.3741C20.5846 27.659 20.1353 27.793 19.6728 27.793L19.6728 28.793C20.3432 28.793 20.9778 28.5949 21.5688 28.2158L21.0288 27.3741ZM19.6728 27.793C19.0662 27.793 18.6988 27.6268 18.4736 27.3763C18.2393 27.1158 18.0781 26.6755 18.0781 25.9639L17.0781 25.9639C17.0781 26.805 17.2661 27.5292 17.73 28.045C18.2031 28.571 18.883 28.793 19.6728 28.793L19.6728 27.793ZM18.0781 25.9639C18.0781 25.6706 18.1049 25.3234 18.1612 24.9197L17.1708 24.7815C17.11 25.2176 17.0781 25.6126 17.0781 25.9639L18.0781 25.9639ZM26.1182 17.4971L26.1182 16.9971L25.6917 16.9971L25.6244 17.4182L26.1182 17.4971ZM34.0576 17.4971L34.5519 17.5726L34.6398 16.9971L34.0576 16.9971L34.0576 17.4971ZM33.7354 19.6064L33.7354 20.1064L34.1648 20.1064L34.2296 19.682L33.7354 19.6064ZM25.7812 19.6064L25.2875 19.5276L25.195 20.1064L25.7812 20.1064L25.7812 19.6064ZM26.1182 17.9971L34.0576 17.9971L34.0576 16.9971L26.1182 16.9971L26.1182 17.9971ZM33.5634 17.4216L33.2411 19.5309L34.2296 19.682L34.5519 17.5726L33.5634 17.4216ZM33.7354 19.1064L25.7812 19.1064L25.7812 20.1064L33.7354 20.1064L33.7354 19.1064ZM26.275 19.6853L26.6119 17.5759L25.6244 17.4182L25.2875 19.5276L26.275 19.6853ZM50.376 33.2734L50.6253 32.84L50.6236 32.839L50.376 33.2734ZM45.5127 30.0361L45.8247 29.6454L45.8195 29.6413L45.5127 30.0361ZM43.4766 28.4541L43.7833 28.0593L43.6755 27.9755L43.54 27.9581L43.4766 28.4541ZM40.2979 8.59082L40.6655 8.92974L40.666 8.92909L40.2979 8.59082ZM55.0781 7.06738L54.6917 7.38471L54.6937 7.38705L55.0781 7.06738ZM46.4795 28.293L46.3902 27.801L44.8792 28.0753L46.262 28.7432L46.4795 28.293ZM58.0225 31.6035L58.2654 32.0407L58.276 32.0345L58.0225 31.6035ZM58.2715 31.457L58.6715 31.157L58.4033 30.7994L58.018 31.0261L58.2715 31.457ZM58.7109 32.043L59.1047 32.3511L59.3408 32.0494L59.1109 31.743L58.7109 32.043ZM57.9785 32.834L57.6306 32.4748L57.625 32.4804L57.9785 32.834ZM56.4551 34.0937L56.155 33.6937L56.1489 33.6985L56.4551 34.0937ZM50.8301 23.3857L51.2406 23.6712L51.2412 23.6703L50.8301 23.3857ZM51.9287 8.03418L51.5098 8.30712L51.5112 8.30933L51.9287 8.03418ZM42.9346 9.54297L43.344 9.82993L43.3446 9.82911L42.9346 9.54297ZM41.792 24.8652L41.3731 25.1382L41.3745 25.1404L41.792 24.8652ZM54.7559 34.3994C53.8618 34.3994 52.5006 33.9186 50.6253 32.84L50.1267 33.7069C52.0209 34.7963 53.5796 35.3994 54.7559 35.3994L54.7559 34.3994ZM50.6236 32.839C48.7561 31.7747 47.1575 30.7098 45.8247 29.6454L45.2007 30.4268C46.5827 31.5304 48.2263 32.6238 50.1284 33.7078L50.6236 32.839ZM45.8195 29.6413L43.7833 28.0593L43.1698 28.8489L45.2059 30.431L45.8195 29.6413ZM43.54 27.9581C41.6204 27.7125 40.0598 26.7871 38.838 25.1519L38.037 25.7505C39.4128 27.5918 41.2116 28.6684 43.4131 28.9501L43.54 27.9581ZM38.838 25.1519C37.6183 23.5194 36.9893 21.4104 36.9893 18.7861L35.9893 18.7861C35.9893 21.5721 36.6591 23.9064 38.037 25.7505L38.838 25.1519ZM36.9893 18.7861C36.9893 14.8579 38.2186 11.5836 40.6655 8.92974L39.9302 8.2519C37.299 11.1058 35.9893 14.6284 35.9893 18.7861L36.9893 18.7861ZM40.666 8.92909C43.1189 6.25931 45.9967 4.94531 49.3213 4.94531L49.3213 3.94531C45.6928 3.94531 42.555 5.39498 39.9297 8.25254L40.666 8.92909ZM49.3213 4.94531C51.5846 4.94531 53.3577 5.76029 54.6917 7.38471L55.4645 6.75006C53.9274 4.87838 51.8626 3.94531 49.3213 3.94531L49.3213 4.94531ZM54.6937 7.38705C56.0458 9.01323 56.7461 11.1993 56.7461 13.9961L57.7461 13.9961C57.7461 11.0312 57.0011 8.5981 55.4626 6.74771L54.6937 7.38705ZM56.7461 13.9961C56.7461 17.737 55.7204 20.828 53.6951 23.3035L54.469 23.9367C56.6624 21.2559 57.7461 17.9309 57.7461 13.9961L56.7461 13.9961ZM53.6951 23.3035C51.6522 25.8003 49.2195 27.2874 46.3902 27.801L46.5688 28.7849C49.6575 28.2243 52.2931 26.5962 54.469 23.9367L53.6951 23.3035ZM46.262 28.7432C48.8557 29.996 50.9805 30.9403 52.6326 31.5724C54.2602 32.1953 55.4966 32.543 56.2793 32.543L56.2793 31.543C55.7046 31.543 54.6289 31.2657 52.99 30.6385C51.3755 30.0207 49.2791 29.09 46.697 27.8427L46.262 28.7432ZM56.2793 32.543C56.6527 32.543 57.0274 32.4863 57.4018 32.3762L57.1197 31.4168C56.8301 31.502 56.5504 31.543 56.2793 31.543L56.2793 32.543ZM57.4018 32.3762C57.7478 32.2744 58.0423 32.1645 58.2653 32.0406L57.7796 31.1664C57.651 31.2379 57.4377 31.3232 57.1197 31.4168L57.4018 32.3762ZM58.276 32.0345L58.525 31.888L58.018 31.0261L57.7689 31.1725L58.276 32.0345ZM57.8715 31.757L58.3109 32.343L59.1109 31.743L58.6715 31.157L57.8715 31.757ZM58.3172 31.7348C58.1608 31.9347 57.9343 32.1807 57.6306 32.4749L58.3264 33.1931C58.6478 32.8818 58.9095 32.6005 59.1047 32.3511L58.3172 31.7348ZM57.625 32.4804C57.3385 32.7669 56.8539 33.1696 56.1551 33.6937L56.7551 34.4937C57.4625 33.9632 57.9936 33.526 58.3321 33.1875L57.625 32.4804ZM56.1489 33.6985C55.4698 34.2245 55.0181 34.3994 54.7559 34.3994L54.7559 35.3994C55.3726 35.3994 56.0536 35.0372 56.7613 34.489L56.1489 33.6985ZM45.1025 27.2988C47.5423 27.2988 49.5903 26.0447 51.2406 23.6712L50.4196 23.1003C48.9058 25.2776 47.1354 26.2988 45.1025 26.2988L45.1025 27.2988ZM51.2412 23.6703C52.9031 21.2698 53.7031 17.9423 53.7031 13.7471L52.7031 13.7471C52.7031 17.833 51.9211 20.9314 50.419 23.1011L51.2412 23.6703ZM53.7031 13.7471C53.7031 11.1857 53.2738 9.16649 52.3462 7.75902L51.5112 8.30933C52.2828 9.47999 52.7031 11.2694 52.7031 13.7471L53.7031 13.7471ZM52.3476 7.76124C51.43 6.35273 50.1842 5.60058 48.6328 5.60058L48.6328 6.60058C49.7963 6.60058 50.7478 7.1375 51.5098 8.30712L52.3476 7.76124ZM48.6328 5.60058C46.2279 5.60058 44.191 6.86885 42.5245 9.25682L43.3446 9.82911C44.8812 7.62724 46.6432 6.60058 48.6328 6.60058L48.6328 5.60058ZM42.5251 9.256C40.8426 11.6566 40.0322 14.975 40.0322 19.1523L41.0322 19.1523C41.0322 15.0875 41.8234 11.9996 43.344 9.82993L42.5251 9.256ZM40.0322 19.1523C40.0322 21.713 40.4564 23.7312 41.3731 25.1382L42.2109 24.5923C41.4479 23.4211 41.0322 21.6308 41.0322 19.1523L40.0322 19.1523ZM41.3745 25.1404C42.3018 26.5472 43.5517 27.2988 45.1025 27.2988L45.1025 26.2988C43.9386 26.2988 42.9814 25.7613 42.2095 24.5901L41.3745 25.1404ZM68.6719 24.3379L69.1622 24.4359L69.2818 23.8379L68.6719 23.8379L68.6719 24.3379ZM68.4814 24.3379L68.4814 23.8379L68.1983 23.8379L68.0527 24.0806L68.4814 24.3379ZM68.2178 24.7627L68.6339 25.0401L68.6405 25.0297L68.2178 24.7627ZM64.6289 27.8682L64.8353 28.3236L64.8384 28.3221L64.6289 27.8682ZM60.4248 27.458L60.0554 27.795L60.0586 27.7985L60.4248 27.458ZM59.8535 22.7559L60.3464 22.8402L60.3477 22.832L59.8535 22.7559ZM60.8936 16.0029L61.3877 16.079L61.3936 16.0412L61.3936 16.0029L60.8936 16.0029ZM60.9082 15.8564L61.4015 15.9387L61.4032 15.9272L60.9082 15.8564ZM58.916 17.0137L58.459 16.8106L58.4548 16.8206L58.916 17.0137ZM58.6523 17.6436L58.4025 18.0766L58.8943 18.3604L59.1136 17.8366L58.6523 17.6436ZM57.8906 17.2041L57.4163 17.046L57.2872 17.4332L57.6408 17.6372L57.8906 17.2041ZM58.0664 16.7061L57.6036 16.5167L57.5999 16.5259L57.5965 16.5352L58.0664 16.7061ZM58.623 15.5781L58.1841 15.3387L58.1808 15.3449L58.623 15.5781ZM60.8057 13.0586L60.5301 12.6414L60.8057 13.0586ZM64.4092 16.0029L64.9033 16.0801L64.9044 16.072L64.4092 16.0029ZM63.3545 22.7559L63.8481 22.8359L63.8485 22.833L63.3545 22.7559ZM66.5478 24.6309L66.8419 25.0352L66.8453 25.0327L66.5478 24.6309ZM68.335 22.9609L67.9479 22.6443L67.9425 22.6511L68.335 22.9609ZM68.9941 22.1553L69.3811 22.4719L69.467 22.367L69.4881 22.2331L68.9941 22.1553ZM70.459 12.8535L70.4161 12.3554L70.026 12.3889L69.9651 12.7757L70.459 12.8535ZM74.0332 12.5459L74.5271 12.6241L74.627 11.9929L73.9903 12.0477L74.0332 12.5459ZM72.085 24.8506L72.57 24.9719L72.5754 24.9505L72.5788 24.9288L72.085 24.8506ZM73.3008 25.0996L72.8964 24.8055L72.892 24.8116L73.3008 25.0996ZM74.0332 23.8252L73.5839 23.6058L73.5776 23.6188L73.572 23.6321L74.0332 23.8252ZM74.3408 23.1953L74.6005 22.768L74.1321 22.4833L73.8915 22.9759L74.3408 23.1953ZM75.0879 23.6494L75.5622 23.8075L75.6883 23.4293L75.3476 23.2222L75.0879 23.6494ZM74.8975 24.1475L74.4345 23.9581L74.4302 23.9695L74.8975 24.1475ZM74.3408 25.2754L73.9001 25.0393L73.8985 25.0422L74.3408 25.2754ZM72.1728 27.7949L72.4429 28.2158L72.4484 28.2122L72.1728 27.7949ZM68.4521 26.0225L67.9521 26.0225L67.9522 26.0257L68.4521 26.0225ZM68.5693 24.8506L69.0591 24.9511L69.0596 24.9486L68.5693 24.8506ZM68.6719 23.8379L68.4814 23.8379L68.4814 24.8379L68.6719 24.8379L68.6719 23.8379ZM68.0527 24.0806C67.9971 24.1733 67.9117 24.311 67.795 24.4957L68.6405 25.0297C68.7582 24.8433 68.8486 24.6978 68.9102 24.5951L68.0527 24.0806ZM67.8017 24.4853C67.7053 24.63 67.468 24.9238 67.0646 25.3862L67.8182 26.0435C68.2156 25.5879 68.4958 25.247 68.6338 25.04L67.8017 24.4853ZM67.0646 25.3862C66.6806 25.8263 66.2907 26.2064 65.8953 26.5282L66.5266 27.3038C66.971 26.942 67.4014 26.5213 67.8182 26.0435L67.0646 25.3862ZM65.8953 26.5282C65.5157 26.8372 65.0265 27.134 64.4194 27.4142L64.8384 28.3221C65.5008 28.0164 66.0664 27.6784 66.5266 27.3038L65.8953 26.5282ZM64.4225 27.4127C63.8581 27.6685 63.2934 27.793 62.7246 27.793L62.7246 28.793C63.4449 28.793 64.1497 28.6342 64.8353 28.3236L64.4225 27.4127ZM62.7246 27.793C61.7991 27.793 61.1852 27.5415 60.791 27.1175L60.0586 27.7985C60.6996 28.4878 61.6188 28.793 62.7246 28.793L62.7246 27.793ZM60.7942 27.121C60.4103 26.7002 60.1631 25.9538 60.1631 24.7627L59.1631 24.7627C59.1631 26.052 59.4237 27.1025 60.0554 27.795L60.7942 27.121ZM60.1631 24.7627C60.1631 24.2015 60.223 23.5614 60.3464 22.8402L59.3607 22.6716C59.2301 23.4347 59.1631 24.1325 59.1631 24.7627L60.1631 24.7627ZM60.3477 22.832L61.3877 16.079L60.3994 15.9268L59.3593 22.6797L60.3477 22.832ZM61.3936 16.0029C61.3936 16.0036 61.3935 15.9986 61.3947 15.9868C61.3959 15.9752 61.398 15.9593 61.4014 15.9386L60.415 15.7742C60.4028 15.8476 60.3936 15.9261 60.3936 16.0029L61.3936 16.0029ZM61.4032 15.9272C61.4115 15.869 61.4229 15.7869 61.4229 15.7246L60.4229 15.7246C60.4229 15.7113 60.4236 15.7035 60.4234 15.7055C60.4234 15.7061 60.4231 15.7096 60.4222 15.717C60.4206 15.7318 60.4177 15.7542 60.4132 15.7857L61.4032 15.9272ZM61.4229 15.7246C61.4229 15.4763 61.3853 15.2036 61.2393 14.9794C61.0691 14.718 60.8002 14.5947 60.5127 14.5947L60.5127 15.5947C60.5166 15.5947 60.4956 15.5952 60.4643 15.5792C60.4312 15.5622 60.4104 15.5391 60.4013 15.525C60.3944 15.5144 60.4009 15.5195 60.4086 15.5551C60.4162 15.5903 60.4229 15.6452 60.4229 15.7246L61.4229 15.7246ZM60.5127 14.5947C60.2442 14.5947 60.0096 14.7098 59.8197 14.853C59.6287 14.9971 59.4485 15.1951 59.2766 15.4261L60.0788 16.0231C60.2194 15.8342 60.3346 15.7172 60.422 15.6514C60.5104 15.5847 60.5371 15.5947 60.5127 15.5947L60.5127 14.5947ZM59.2766 15.4261C58.944 15.8731 58.6707 16.3345 58.4591 16.8106L59.3729 17.2167C59.552 16.8139 59.7865 16.416 60.0788 16.0231L59.2766 15.4261ZM58.4548 16.8206L58.1911 17.4505L59.1136 17.8366L59.3772 17.2067L58.4548 16.8206ZM58.9022 17.2105L58.1405 16.771L57.6408 17.6372L58.4025 18.0766L58.9022 17.2105ZM58.365 17.3622C58.4019 17.2515 58.4587 17.0904 58.5363 16.8769L57.5965 16.5352C57.5179 16.7514 57.4575 16.9224 57.4163 17.046L58.365 17.3622ZM58.5292 16.8954C58.6067 16.7059 58.7814 16.3498 59.0653 15.8113L58.1808 15.3449C57.8983 15.8807 57.7019 16.2765 57.6036 16.5167L58.5292 16.8954ZM59.062 15.8175C59.3433 15.3018 59.6349 14.8587 59.9354 14.4854L59.1564 13.8584C58.8124 14.2858 58.4887 14.7802 58.1841 15.3387L59.062 15.8175ZM59.9354 14.4854C60.2194 14.1326 60.5981 13.7948 61.0812 13.4758L60.5301 12.6414C59.978 13.0059 59.517 13.4104 59.1564 13.8584L59.9354 14.4854ZM61.0812 13.4758C61.5251 13.1827 61.9725 13.0459 62.4316 13.0459L62.4316 12.0459C61.758 12.0459 61.1214 12.2509 60.5301 12.6414L61.0812 13.4758ZM62.4316 13.0459C63.0274 13.0459 63.387 13.2102 63.6077 13.4574C63.838 13.7155 63.9971 14.1528 63.9971 14.8603L64.9971 14.8603C64.9971 14.0249 64.8119 13.305 64.3538 12.7916C63.8859 12.2674 63.2129 12.0459 62.4316 12.0459L62.4316 13.0459ZM63.9971 14.8603C63.9971 15.1743 63.9701 15.5316 63.914 15.9338L64.9044 16.072C64.9654 15.6344 64.9971 15.23 64.9971 14.8603L63.9971 14.8603ZM63.9152 15.9258L62.8605 22.6787L63.8485 22.833L64.9032 16.0801L63.9152 15.9258ZM62.8609 22.6758C62.7991 23.0574 62.7666 23.4119 62.7666 23.7373L63.7666 23.7373C63.7666 23.4768 63.7927 23.177 63.848 22.8359L62.8609 22.6758ZM62.7666 23.7373C62.7666 24.3551 62.8775 24.9091 63.1787 25.3188C63.5009 25.7573 63.9806 25.9512 64.5264 25.9512L64.5264 24.9512C64.2323 24.9512 64.0821 24.8594 63.9844 24.7266C63.8657 24.565 63.7666 24.2621 63.7666 23.7373L62.7666 23.7373ZM64.5264 25.9512C65.2721 25.9512 66.0492 25.6118 66.8419 25.0352L66.2538 24.2265C65.5426 24.7437 64.972 24.9512 64.5264 24.9512L64.5264 25.9512ZM66.8453 25.0327C67.6223 24.4576 68.2534 23.8712 68.7274 23.2708L67.9425 22.6511C67.5376 23.164 66.9773 23.6908 66.2504 24.229L66.8453 25.0327ZM68.7219 23.2776L69.3811 22.4719L68.6072 21.8387L67.948 22.6443L68.7219 23.2776ZM69.4881 22.2331L70.9529 12.9313L69.9651 12.7757L68.5002 22.0775L69.4881 22.2331ZM70.5019 13.3517L74.0761 13.0441L73.9903 12.0477L70.4161 12.3554L70.5019 13.3517ZM73.5394 12.4677L71.5911 24.7724L72.5788 24.9288L74.5271 12.6241L73.5394 12.4677ZM71.5999 24.7293C71.5671 24.8606 71.5557 25.0022 71.5557 25.1436L72.5557 25.1436C72.5557 25.0505 72.5638 24.9968 72.57 24.9719L71.5999 24.7293ZM71.5557 25.1436C71.5557 25.3875 71.596 25.6599 71.7537 25.8827C71.9337 26.1373 72.2055 26.2441 72.4805 26.2441L72.4805 25.2441C72.4684 25.2441 72.4819 25.2421 72.5078 25.2543C72.5362 25.2677 72.5579 25.2881 72.5701 25.3053C72.58 25.3193 72.5755 25.3197 72.5689 25.2916C72.5622 25.2633 72.5557 25.2158 72.5557 25.1436L71.5557 25.1436ZM72.4805 26.2441C72.7535 26.2441 72.9892 26.1242 73.1776 25.9762C73.3667 25.8276 73.5429 25.624 73.7095 25.3876L72.892 24.8116C72.7559 25.0049 72.644 25.1236 72.5597 25.1898C72.4747 25.2567 72.4516 25.2441 72.4805 25.2441L72.4805 26.2441ZM73.7051 25.3937C74.0368 24.9377 74.3014 24.4793 74.4944 24.0183L73.572 23.6321C73.4134 24.0109 73.1898 24.4021 72.8964 24.8055L73.7051 25.3937ZM74.4825 24.0446L74.7901 23.4147L73.8915 22.9759L73.5839 23.6058L74.4825 24.0446ZM74.0811 23.6226L74.8282 24.0767L75.3476 23.2222L74.6005 22.768L74.0811 23.6226ZM74.6135 23.4913C74.5798 23.5925 74.5213 23.7463 74.4347 23.9581L75.3602 24.3368C75.4494 24.1189 75.5178 23.9407 75.5622 23.8075L74.6135 23.4913ZM74.4302 23.9695C74.3652 24.1401 74.1949 24.4889 73.9001 25.0393L74.7816 25.5115C75.0727 24.9681 75.2735 24.565 75.3647 24.3255L74.4302 23.9695ZM73.8985 25.0422C73.6277 25.5558 73.342 25.9968 73.0431 26.3681L73.8221 26.9951C74.1677 26.5657 74.4875 26.0691 74.7831 25.5086L73.8985 25.0422ZM73.0431 26.3681C72.7591 26.7209 72.3804 27.0587 71.8973 27.3777L72.4484 28.2122C73.0005 27.8476 73.4616 27.4431 73.8221 26.9951L73.0431 26.3681ZM71.9029 27.3741C71.4571 27.66 71.0126 27.793 70.5615 27.793L70.5615 28.793C71.2238 28.793 71.8534 28.5939 72.4428 28.2158L71.9029 27.3741ZM70.5615 27.793C69.9514 27.793 69.5803 27.6295 69.3531 27.385C69.119 27.1331 68.9566 26.7083 68.9521 26.0192L67.9522 26.0257C67.9575 26.8503 68.1515 27.5608 68.6205 28.0657C69.0965 28.578 69.7751 28.793 70.5615 28.793L70.5615 27.793ZM68.9521 26.0225C68.9521 25.6548 68.988 25.2979 69.0591 24.9511L68.0795 24.7501C67.9944 25.165 67.9521 25.5893 67.9521 26.0225L68.9521 26.0225ZM69.0596 24.9486L69.1622 24.4359L68.1816 24.2398L68.079 24.7525L69.0596 24.9486ZM76.6699 28L76.176 27.9222L76.085 28.5L76.6699 28.5L76.6699 28ZM78.5596 16.0029L78.0745 15.8817L78.0691 15.9032L78.0657 15.9251L78.5596 16.0029ZM76.582 17.0137L76.125 16.8106L76.1208 16.8206L76.582 17.0137ZM76.3184 17.6436L76.0685 18.0766L76.5603 18.3604L76.7796 17.8366L76.3184 17.6436ZM75.5566 17.2041L75.0823 17.046L74.9532 17.4332L75.3068 17.6372L75.5566 17.2041ZM75.7324 16.7061L75.2696 16.5167L75.2659 16.5259L75.2625 16.5352L75.7324 16.7061ZM76.2891 15.5781L75.8501 15.3387L75.8468 15.3449L76.2891 15.5781ZM78.4717 13.0586L78.1961 12.6414L78.4717 13.0586ZM82.0752 16.0029L81.5804 15.9305L81.5793 15.9389L82.0752 16.0029ZM82.0166 16.457L81.5207 16.393L81.4479 16.957L82.0166 16.957L82.0166 16.457ZM82.1631 16.457L82.1631 16.957L82.4462 16.957L82.5918 16.7143L82.1631 16.457ZM82.4121 16.0322L81.9894 15.7652L81.9842 15.7734L81.9794 15.7817L82.4121 16.0322ZM83.1152 15.0801L82.7256 14.7667L82.7215 14.7719L83.1152 15.0801ZM84.2139 13.9082L84.5473 14.2809L84.5526 14.276L84.2139 13.9082ZM85.5615 12.9707L85.3283 12.5284L85.325 12.5302L85.5615 12.9707ZM88.2861 12.751L88.1004 13.2154L88.112 13.2197L88.2861 12.751ZM89.1504 13.293L89.6156 13.4761L89.7357 13.1712L89.5039 12.9394L89.1504 13.293ZM87.4951 17.4971L87.4951 17.9971L87.8356 17.9971L87.9604 17.6802L87.4951 17.4971ZM86.6895 17.4971L86.2154 17.656L86.3298 17.9971L86.6895 17.9971L86.6895 17.4971ZM85.8838 15.0947L86.3578 14.9357L86.2024 14.4721L85.7354 14.6173L85.8838 15.0947ZM83.7451 16.3398L84.071 16.7191L84.0714 16.7187L83.7451 16.3398ZM82.1631 17.9805L81.7584 17.6868L81.7562 17.6898L82.1631 17.9805ZM81.6504 18.6982L81.2435 18.4076L81.1749 18.5038L81.1565 18.6205L81.6504 18.6982ZM80.1855 28L80.1855 28.5L80.613 28.5L80.6795 28.0778L80.1855 28ZM77.1638 28.0778L79.0535 16.0807L78.0657 15.9251L76.176 27.9222L77.1638 28.0778ZM79.0446 16.1242C79.0781 15.9905 79.0889 15.8426 79.0889 15.6953L78.0889 15.6953C78.0889 15.8019 78.0801 15.8591 78.0745 15.8817L79.0446 16.1242ZM79.0889 15.6953C79.0889 15.4538 79.0505 15.1843 78.8992 14.9629C78.7246 14.7072 78.456 14.5947 78.1787 14.5947L78.1787 15.5947C78.186 15.5947 78.1681 15.5959 78.1388 15.5816C78.1073 15.5662 78.085 15.5438 78.0734 15.5269C78.0641 15.5132 78.0689 15.5138 78.0757 15.5435C78.0825 15.5732 78.0889 15.6221 78.0889 15.6953L79.0889 15.6953ZM78.1787 14.5947C77.9102 14.5947 77.6757 14.7098 77.4857 14.853C77.2947 14.9971 77.1146 15.1951 76.9426 15.4261L77.7449 16.0231C77.8854 15.8342 78.0007 15.7172 78.088 15.6514C78.1764 15.5847 78.2031 15.5947 78.1787 15.5947L78.1787 14.5947ZM76.9426 15.4261C76.61 15.8731 76.3367 16.3345 76.1251 16.8106L77.0389 17.2167C77.218 16.8139 77.4525 16.416 77.7449 16.0231L76.9426 15.4261ZM76.1208 16.8206L75.8571 17.4505L76.7796 17.8366L77.0433 17.2067L76.1208 16.8206ZM76.5682 17.2105L75.8065 16.771L75.3068 17.6372L76.0685 18.0766L76.5682 17.2105ZM76.031 17.3622C76.0679 17.2515 76.1247 17.0904 76.2023 16.8769L75.2625 16.5352C75.1839 16.7514 75.1235 16.9224 75.0823 17.046L76.031 17.3622ZM76.1952 16.8954C76.2727 16.7059 76.4474 16.3498 76.7313 15.8113L75.8468 15.3449C75.5643 15.8807 75.3679 16.2765 75.2696 16.5167L76.1952 16.8954ZM76.728 15.8175C77.0093 15.3018 77.3009 14.8587 77.6014 14.4854L76.8224 13.8584C76.4784 14.2858 76.1547 14.7802 75.8501 15.3387L76.728 15.8175ZM77.6014 14.4854C77.8854 14.1326 78.2641 13.7948 78.7472 13.4758L78.1961 12.6414C77.6441 13.0059 77.183 13.4104 76.8224 13.8584L77.6014 14.4854ZM78.7472 13.4758C79.1911 13.1827 79.6385 13.0459 80.0977 13.0459L80.0977 12.0459C79.424 12.0459 78.7874 12.2509 78.1961 12.6414L78.7472 13.4758ZM80.0977 13.0459C80.6896 13.0459 81.0479 13.2127 81.2696 13.4674C81.5028 13.7354 81.6631 14.1893 81.6631 14.9189L82.6631 14.9189C82.6631 14.0666 82.4791 13.3339 82.0239 12.8109C81.5571 12.2746 80.8827 12.0459 80.0977 12.0459L80.0977 13.0459ZM81.6631 14.9189C81.6631 15.2118 81.6364 15.5483 81.5805 15.9305L82.5699 16.0753C82.6312 15.6567 82.6631 15.2706 82.6631 14.9189L81.6631 14.9189ZM81.5793 15.9389L81.5207 16.393L82.5125 16.521L82.5711 16.0669L81.5793 15.9389ZM82.0166 16.957L82.1631 16.957L82.1631 15.957L82.0166 15.957L82.0166 16.957ZM82.5918 16.7143C82.6525 16.6132 82.737 16.469 82.8448 16.2827L81.9794 15.7817C81.8724 15.9666 81.7909 16.1055 81.7343 16.1998L82.5918 16.7143ZM82.8349 16.2992C82.9369 16.1377 83.1565 15.8386 83.509 15.3882L82.7215 14.7719C82.3708 15.22 82.1217 15.5557 81.9894 15.7652L82.8349 16.2992ZM83.5048 15.3935C83.8517 14.9622 84.1994 14.5921 84.5473 14.2808L83.8805 13.5356C83.4862 13.8884 83.1014 14.2995 82.7256 14.7667L83.5048 15.3935ZM84.5526 14.276C84.8877 13.9673 85.3011 13.6781 85.7981 13.4112L85.325 12.5302C84.7673 12.8297 84.2822 13.1655 83.8751 13.5404L84.5526 14.276ZM85.7947 13.413C86.2755 13.1595 86.7134 13.0459 87.1143 13.0459L87.1143 12.0459C86.519 12.0459 85.9217 12.2155 85.3283 12.5284L85.7947 13.413ZM87.1143 13.0459C87.5022 13.0459 87.8279 13.1062 88.1004 13.2152L88.4718 12.2867C88.0607 12.1223 87.6053 12.0459 87.1143 12.0459L87.1143 13.0459ZM88.112 13.2197C88.4484 13.3446 88.5867 13.4364 88.6211 13.4707L89.3282 12.7636C89.1281 12.5636 88.8075 12.4112 88.4602 12.2823L88.112 13.2197ZM88.6211 13.4707L88.7968 13.6465L89.5039 12.9394L89.3282 12.7636L88.6211 13.4707ZM88.6852 13.1098L87.0299 17.3139L87.9604 17.6802L89.6156 13.4761L88.6852 13.1098ZM87.4951 16.9971L86.6895 16.9971L86.6895 17.9971L87.4951 17.9971L87.4951 16.9971ZM87.1635 17.3381L86.3578 14.9357L85.4097 15.2537L86.2154 17.656L87.1635 17.3381ZM85.7354 14.6173C84.9343 14.8662 84.1625 15.3206 83.4189 15.961L84.0714 16.7187C84.734 16.1481 85.388 15.7724 86.0322 15.5722L85.7354 14.6173ZM83.4193 15.9606C82.7092 16.5707 82.1507 17.1461 81.7584 17.6869L82.5678 18.2741C82.8981 17.8188 83.3943 17.3004 84.071 16.7191L83.4193 15.9606ZM81.7562 17.6898L81.2435 18.4076L82.0573 18.9889L82.57 18.2711L81.7562 17.6898ZM81.1565 18.6205L79.6916 27.9222L80.6795 28.0778L82.1443 18.776L81.1565 18.6205ZM80.1855 27.5L76.6699 27.5L76.6699 28.5L80.1855 28.5L80.1855 27.5ZM92.168 8.70801L91.7912 9.03671L91.7951 9.04117L92.168 8.70801ZM92.2559 5.29492L91.906 4.93764L91.9023 4.94137L92.2559 5.29492ZM95.6836 5.35351L95.3159 5.69235L95.6836 5.35351ZM95.918 9.55761L95.455 9.36877L95.4537 9.37192L95.918 9.55761ZM94.8193 11.418L95.1943 11.7488L95.1974 11.7452L94.8193 11.418ZM93.4863 12.751L93.1582 12.3736L93.1541 12.3773L93.4863 12.751ZM92.3877 13.6006L92.1304 13.1718L92.1235 13.176L92.1166 13.1804L92.3877 13.6006ZM91.9336 13.8936L91.5312 14.1904L91.81 14.5683L92.2047 14.3137L91.9336 13.8936ZM91.2744 13L90.9452 12.6237L90.599 12.9266L90.8721 13.2968L91.2744 13ZM91.8311 12.458L91.4701 12.1121L91.4697 12.1124L91.8311 12.458ZM92.8271 11.1689L93.2362 11.4565L93.2382 11.4535L92.8271 11.1689ZM93.6768 9.39648L94.1638 9.50955L94.3061 8.89648L93.6768 8.89648L93.6768 9.39648ZM92.5448 8.37932C92.2324 8.0213 92.0674 7.57557 92.0674 7.00879L91.0674 7.00879C91.0674 7.78966 91.3027 8.47674 91.7912 9.03669L92.5448 8.37932ZM92.0674 7.00879C92.0674 6.44997 92.2496 6.00829 92.6094 5.64847L91.9023 4.94137C91.3442 5.49952 91.0674 6.20042 91.0674 7.00879L92.0674 7.00879ZM92.6057 5.65217C92.9782 5.28742 93.4227 5.10644 93.9697 5.10644L93.9697 4.10644C93.1691 4.10644 92.471 4.38445 91.906 4.93766L92.6057 5.65217ZM93.9697 5.10644C94.5151 5.10644 94.9526 5.29811 95.3159 5.69235L96.0513 5.01467C95.4966 4.41282 94.7915 4.10644 93.9697 4.10644L93.9697 5.10644ZM95.3159 5.69235C95.6747 6.08163 95.8721 6.60221 95.8721 7.30176L96.8721 7.30176C96.8721 6.39973 96.6105 5.62149 96.0513 5.01467L95.3159 5.69235ZM95.8721 7.30176C95.8721 7.99537 95.7346 8.68336 95.455 9.36877L96.3809 9.74646C96.7068 8.9475 96.8721 8.13158 96.8721 7.30176L95.8721 7.30176ZM95.4537 9.37192C95.1779 10.0615 94.8386 10.6316 94.4413 11.0908L95.1974 11.7452C95.679 11.1887 96.0721 10.5186 96.3822 9.74331L95.4537 9.37192ZM94.4444 11.0872C94.0179 11.5706 93.5891 11.999 93.1582 12.3737L93.8144 13.1283C94.282 12.7217 94.7419 12.2615 95.1943 11.7488L94.4444 11.0872ZM93.1541 12.3773C92.7239 12.7597 92.3845 13.0194 92.1304 13.1718L92.6449 14.0293C92.9769 13.8302 93.3699 13.5235 93.8185 13.1247L93.1541 12.3773ZM92.1166 13.1804L91.6625 13.4734L92.2047 14.3137L92.6588 14.0207L92.1166 13.1804ZM92.336 13.5967L91.6768 12.7032L90.8721 13.2968L91.5312 14.1904L92.336 13.5967ZM91.6037 13.3763C91.7751 13.2263 91.9718 13.0342 92.1924 12.8036L91.4697 12.1124C91.2606 12.331 91.0863 12.5002 90.9452 12.6237L91.6037 13.3763ZM92.192 12.804C92.4454 12.5396 92.7963 12.0821 93.2362 11.4565L92.4181 10.8814C91.9791 11.5058 91.6659 11.9077 91.4701 12.1121L92.192 12.804ZM93.2382 11.4535C93.701 10.7851 94.0183 10.1362 94.1638 9.50955L93.1897 9.28342C93.0813 9.75047 92.8322 10.2833 92.4161 10.8843L93.2382 11.4535ZM93.6768 8.89648C93.2287 8.89648 92.8597 8.7317 92.5408 8.37484L91.7951 9.04117C92.2966 9.60228 92.9334 9.89648 93.6768 9.89648L93.6768 8.89648ZM109.043 16.501L108.629 16.2212L108.628 16.2218L109.043 16.501ZM110.83 24.7041L110.524 24.3084L110.521 24.3107L110.83 24.7041ZM112.339 23.1953L111.934 22.9017L111.931 22.9054L112.339 23.1953ZM112.881 22.4482L113.286 22.7419L113.356 22.645L113.375 22.5269L112.881 22.4482ZM114.053 15.0947L114.547 15.1734L114.571 15.0202L114.504 14.88L114.053 15.0947ZM117.949 12.5459L118.443 12.6241L118.535 12.0459L117.949 12.0459L117.949 12.5459ZM116.001 24.8506L115.507 24.7724L115.501 24.8112L115.501 24.8506L116.001 24.8506ZM118.008 23.8252L117.554 23.6143L118.008 23.8252ZM118.301 23.1953L118.564 22.7704L118.085 22.4733L117.847 22.9844L118.301 23.1953ZM119.033 23.6494L119.508 23.8075L119.632 23.4327L119.297 23.2245L119.033 23.6494ZM118.843 24.1475L118.38 23.9581L118.376 23.9695L118.843 24.1475ZM118.301 25.2754L117.857 25.0455L117.855 25.0485L118.301 25.2754ZM116.147 27.7949L116.417 28.2158L116.423 28.2122L116.147 27.7949ZM112.485 24.8506L112.975 24.9511L112.977 24.9441L112.485 24.8506ZM112.544 24.543L113.035 24.6365L113.148 24.043L112.544 24.043L112.544 24.543ZM112.427 24.543L112.427 24.043L112.144 24.043L111.998 24.2857L112.427 24.543ZM112.178 24.9531L111.751 24.6924L111.746 24.7012L111.741 24.7103L112.178 24.9531ZM111.504 25.8613L111.117 25.5447L111.113 25.5501L111.504 25.8613ZM110.435 27.0039L110.762 27.3815L110.768 27.3765L110.435 27.0039ZM109.028 27.8975L109.242 28.3493L109.246 28.3477L109.028 27.8975ZM104.722 27.0478L104.327 27.3545L104.329 27.3574L104.722 27.0478ZM106.406 15.666L106.026 15.3412L106.025 15.3422L106.406 15.666ZM114.097 12.7803L113.947 13.2575L113.958 13.2607L114.097 12.7803ZM115.181 13.2344L114.887 13.6387L114.897 13.6462L114.908 13.6532L115.181 13.2344ZM115.518 13.4541L115.244 13.8729L115.467 14.0181L115.712 13.9148L115.518 13.4541ZM117.671 12.5459L117.671 12.0459L117.57 12.0459L117.477 12.0852L117.671 12.5459ZM113.716 9.39648L113.558 9.87082L113.579 9.878L113.601 9.88319L113.716 9.39648ZM111.914 8.7959L112.072 8.32155L112.07 8.32078L111.914 8.7959ZM109.219 9.54297L109.058 10.0165L109.423 10.1402L109.636 9.81896L109.219 9.54297ZM108.354 9.25L107.894 9.05577L107.685 9.55099L108.194 9.72353L108.354 9.25ZM108.984 7.75586L108.526 7.55693L108.524 7.56163L108.984 7.75586ZM111.548 6.17383L111.453 6.66484L111.457 6.66547L111.548 6.17383ZM112.192 6.33496L112.026 6.80645L112.048 6.81431L112.071 6.82003L112.192 6.33496ZM112.427 6.39355L112.585 5.91921L112.567 5.91314L112.548 5.90848L112.427 6.39355ZM114.229 6.99414L114.07 7.46848L114.073 7.46925L114.229 6.99414ZM115.664 7.30175L115.651 7.80175L115.664 7.80175L115.664 7.30175ZM116.924 6.24707L117.089 5.77514L116.704 5.64032L116.495 5.9907L116.924 6.24707ZM117.803 6.55468L118.263 6.74891L118.47 6.25855L117.968 6.08276L117.803 6.55468ZM117.173 8.04882L117.632 8.24775L117.634 8.24306L117.173 8.04882ZM114.609 9.63086L114.505 10.1198L114.513 10.1216L114.521 10.1231L114.609 9.63086ZM113.965 9.45508L114.14 8.98691L114.11 8.97569L114.079 8.96837L113.965 9.45508ZM112.427 13.7012C110.967 13.7012 109.706 14.625 108.629 16.2212L109.457 16.7808C110.45 15.3106 111.446 14.7012 112.427 14.7012L112.427 13.7012ZM108.628 16.2218C107.528 17.8567 107.005 20.0518 107.005 22.7559L108.005 22.7559C108.005 20.167 108.507 18.1921 109.458 16.7802L108.628 16.2218ZM107.005 22.7559C107.005 23.6855 107.135 24.4635 107.455 25.0252C107.799 25.6286 108.349 25.9512 109.043 25.9512L109.043 24.9512C108.712 24.9512 108.492 24.8245 108.324 24.5295C108.131 24.1927 108.005 23.6231 108.005 22.7559L107.005 22.7559ZM109.043 25.9512C109.752 25.9512 110.454 25.6345 111.139 25.0975L110.521 24.3107C109.936 24.7698 109.447 24.9512 109.043 24.9512L109.043 25.9512ZM111.136 25.0997C111.808 24.5803 112.349 24.0432 112.746 23.4852L111.931 22.9054C111.606 23.3631 111.141 23.8318 110.524 24.3085L111.136 25.0997ZM112.744 23.4889L113.286 22.7419L112.476 22.1546L111.934 22.9017L112.744 23.4889ZM113.375 22.5269L114.547 15.1734L113.559 15.016L112.387 22.3696L113.375 22.5269ZM114.504 14.88C114.321 14.4941 114.044 14.1893 113.675 13.9864C113.311 13.7867 112.887 13.7012 112.427 13.7012L112.427 14.7012C112.767 14.7012 113.014 14.7646 113.193 14.8627C113.366 14.9577 113.501 15.0996 113.601 15.3094L114.504 14.88ZM117.455 12.4677L115.507 24.7724L116.495 24.9288L118.443 12.6241L117.455 12.4677ZM115.501 24.8506C115.501 24.8429 115.501 24.8372 115.501 24.8339C115.502 24.8304 115.502 24.8282 115.502 24.8274C115.502 24.826 115.502 24.8274 115.501 24.8325C115.5 24.8428 115.497 24.86 115.493 24.8856L116.48 25.05C116.488 24.9987 116.501 24.9185 116.501 24.8506L115.501 24.8506ZM115.493 24.8856C115.481 24.9589 115.472 25.0374 115.472 25.1143L116.472 25.1143C116.472 25.1149 116.472 25.1099 116.473 25.0981C116.474 25.0865 116.476 25.0707 116.48 25.05L115.493 24.8856ZM115.472 25.1143C115.472 25.3625 115.509 25.6353 115.655 25.8595C115.825 26.1209 116.094 26.2441 116.382 26.2441L116.382 25.2441C116.378 25.2441 116.399 25.2437 116.43 25.2597C116.463 25.2766 116.484 25.2998 116.493 25.3138C116.5 25.3245 116.494 25.3193 116.486 25.2838C116.478 25.2485 116.472 25.1937 116.472 25.1143L115.472 25.1143ZM116.382 26.2441C116.653 26.2441 116.889 26.1258 117.08 25.9814C117.272 25.8354 117.455 25.6347 117.631 25.3996L116.831 24.7996C116.686 24.9942 116.566 25.1157 116.475 25.1847C116.382 25.2551 116.355 25.2441 116.382 25.2441L116.382 26.2441ZM117.631 25.3996C117.971 24.9464 118.249 24.492 118.461 24.0361L117.554 23.6143C117.376 23.9982 117.136 24.3934 116.831 24.7996L117.631 25.3996ZM118.461 24.0361L118.754 23.4062L117.847 22.9844L117.554 23.6143L118.461 24.0361ZM118.037 23.6203L118.77 24.0744L119.297 23.2245L118.564 22.7704L118.037 23.6203ZM118.559 23.4913C118.525 23.5925 118.467 23.7463 118.38 23.9581L119.306 24.3368C119.395 24.1189 119.463 23.9407 119.508 23.8075L118.559 23.4913ZM118.376 23.9695C118.309 24.1439 118.142 24.4956 117.857 25.0455L118.745 25.5053C119.026 24.9614 119.22 24.5611 119.31 24.3255L118.376 23.9695ZM117.855 25.0485C117.595 25.56 117.315 25.9988 117.018 26.3681L117.797 26.9951C118.144 26.5637 118.46 26.065 118.746 25.5022L117.855 25.0485ZM117.018 26.3681C116.734 26.7209 116.355 27.0587 115.872 27.3777L116.423 28.2122C116.975 27.8476 117.436 27.4431 117.797 26.9951L117.018 26.3681ZM115.877 27.3741C115.433 27.659 114.984 27.793 114.521 27.793L114.521 28.793C115.192 28.793 115.826 28.5949 116.417 28.2158L115.877 27.3741ZM114.521 27.793C113.89 27.793 113.505 27.6258 113.271 27.3763C113.032 27.1206 112.868 26.6906 112.868 25.9932L111.868 25.9932C111.868 26.8289 112.063 27.5489 112.542 28.0598C113.026 28.5768 113.718 28.793 114.521 28.793L114.521 27.793ZM112.868 25.9932C112.868 25.6467 112.904 25.2995 112.975 24.9511L111.996 24.7501C111.911 25.1633 111.868 25.5779 111.868 25.9932L112.868 25.9932ZM112.977 24.9441L113.035 24.6365L112.053 24.4494L111.994 24.757L112.977 24.9441ZM112.544 24.043L112.427 24.043L112.427 25.043L112.544 25.043L112.544 24.043ZM111.998 24.2857C111.94 24.3816 111.858 24.517 111.751 24.6924L112.604 25.2138C112.712 25.0377 112.796 24.8996 112.856 24.8002L111.998 24.2857ZM111.741 24.7103C111.668 24.8413 111.472 25.1113 111.117 25.5447L111.891 26.1779C112.239 25.752 112.492 25.4165 112.615 25.1959L111.741 24.7103ZM111.113 25.5501C110.787 25.9599 110.449 26.3198 110.101 26.6313L110.768 27.3765C111.162 27.0239 111.538 26.6221 111.895 26.1726L111.113 25.5501ZM110.107 26.6264C109.777 26.9128 109.348 27.1879 108.811 27.4472L109.246 28.3477C109.841 28.0601 110.35 27.7395 110.762 27.3814L110.107 26.6264ZM108.814 27.4456C108.317 27.681 107.833 27.793 107.358 27.793L107.358 28.793C107.997 28.793 108.626 28.6413 109.242 28.3493L108.814 27.4456ZM107.358 27.793C106.4 27.793 105.669 27.4421 105.114 26.7383L104.329 27.3574C105.083 28.3138 106.11 28.793 107.358 28.793L107.358 27.793ZM105.117 26.7412C104.565 26.031 104.255 24.9742 104.255 23.5029L103.255 23.5029C103.255 25.098 103.589 26.4045 104.327 27.3545L105.117 26.7412ZM104.255 23.5029C104.255 20.4579 105.108 17.9659 106.787 15.9898L106.025 15.3422C104.169 17.5263 103.255 20.2589 103.255 23.5029L104.255 23.5029ZM106.786 15.9908C108.488 13.9996 110.403 13.0459 112.544 13.0459L112.544 12.0459C110.056 12.0459 107.879 13.1723 106.026 15.3412L106.786 15.9908ZM112.544 13.0459C113.032 13.0459 113.499 13.1167 113.947 13.2573L114.246 12.3032C113.698 12.1313 113.13 12.0459 112.544 12.0459L112.544 13.0459ZM113.958 13.2607C114.454 13.4037 114.745 13.536 114.887 13.6387L115.475 12.83C115.186 12.6203 114.755 12.4498 114.235 12.2999L113.958 13.2607ZM114.908 13.6532L115.244 13.8729L115.791 13.0353L115.454 12.8156L114.908 13.6532ZM115.712 13.9148L117.865 13.0066L117.477 12.0852L115.323 12.9934L115.712 13.9148ZM117.671 13.0459L117.949 13.0459L117.949 12.0459L117.671 12.0459L117.671 13.0459ZM113.874 8.92214L112.072 8.32155L111.756 9.27024L113.558 9.87082L113.874 8.92214ZM112.07 8.32078C111.455 8.11922 110.918 8.00293 110.479 8.00293L110.479 9.00293C110.762 9.00293 111.182 9.08195 111.758 9.27101L112.07 8.32078ZM110.479 8.00293C110.131 8.00293 109.821 8.1612 109.56 8.37736C109.297 8.5941 109.046 8.89838 108.802 9.26697L109.636 9.81896C109.851 9.4942 110.039 9.27846 110.196 9.14851C110.354 9.01799 110.445 9.00293 110.479 9.00293L110.479 8.00293ZM109.379 9.06943L108.515 8.77646L108.194 9.72353L109.058 10.0165L109.379 9.06943ZM108.815 9.44423L109.445 7.95009L108.524 7.56163L107.894 9.05577L108.815 9.44423ZM109.443 7.95477C109.891 6.92232 110.391 6.60058 110.874 6.60058L110.874 5.60058C109.795 5.60058 109.035 6.38236 108.526 7.55694L109.443 7.95477ZM110.874 6.60058C111.029 6.60058 111.221 6.62019 111.453 6.66483L111.642 5.68282C111.367 5.62981 111.109 5.60058 110.874 5.60058L110.874 6.60058ZM111.457 6.66547C111.707 6.71173 111.894 6.75976 112.026 6.80645L112.359 5.86346C112.159 5.79297 111.916 5.73357 111.639 5.68218L111.457 6.66547ZM112.071 6.82003L112.305 6.87862L112.548 5.90848L112.314 5.84989L112.071 6.82003ZM112.269 6.86789L114.07 7.46848L114.387 6.5198L112.585 5.91921L112.269 6.86789ZM114.073 7.46925C114.686 7.67032 115.218 7.78988 115.651 7.80157L115.678 6.80194C115.387 6.7941 114.962 6.70858 114.384 6.51902L114.073 7.46925ZM115.664 7.80175C116.376 7.80175 116.925 7.22041 117.353 6.50344L116.495 5.9907C116.083 6.67997 115.792 6.80175 115.664 6.80175L115.664 7.80175ZM116.759 6.719L117.638 7.02661L117.968 6.08276L117.089 5.77514L116.759 6.719ZM117.342 6.36045L116.712 7.85459L117.634 8.24306L118.263 6.74891L117.342 6.36045ZM116.714 7.84991C116.263 8.8892 115.772 9.2041 115.312 9.2041L115.312 10.2041C116.377 10.2041 117.125 9.41548 117.632 8.24774L116.714 7.84991ZM115.312 9.2041C115.156 9.2041 114.953 9.18426 114.697 9.13864L114.521 10.1231C114.813 10.1751 115.078 10.2041 115.312 10.2041L115.312 9.2041ZM114.714 9.14196C114.451 9.08557 114.263 9.03303 114.14 8.98691L113.789 9.92324C113.979 9.99431 114.221 10.059 114.505 10.1198L114.714 9.14196ZM114.079 8.96837L113.83 8.90977L113.601 9.88319L113.85 9.94178L114.079 8.96837ZM125.962 16.457L125.466 16.393L125.393 16.957L125.962 16.957L125.962 16.457ZM126.108 16.457L126.108 16.957L126.391 16.957L126.537 16.7143L126.108 16.457ZM126.372 16.0322L125.959 15.7499L125.954 15.7575L125.949 15.7652L126.372 16.0322ZM128.394 13.9082L128.704 14.3004L128.709 14.296L128.394 13.9082ZM129.961 12.9707L129.757 12.5141L129.755 12.5153L129.961 12.9707ZM134.15 13.3955L133.778 13.7293L133.784 13.736L134.15 13.3955ZM134.751 18.0977L135.245 18.1748L135.245 18.1737L134.751 18.0977ZM133.696 24.8506L133.202 24.7734L133.196 24.8118L133.196 24.8506L133.696 24.8506ZM134.912 25.0996L134.508 24.8055L134.503 24.8116L134.912 25.0996ZM135.645 23.8252L135.195 23.6058L135.189 23.6188L135.183 23.6321L135.645 23.8252ZM135.952 23.1953L136.212 22.768L135.743 22.4833L135.503 22.9759L135.952 23.1953ZM136.699 23.6494L137.174 23.8075L137.3 23.4293L136.959 23.2221L136.699 23.6494ZM136.509 24.1475L136.046 23.9581L136.042 23.9695L136.509 24.1475ZM135.952 25.2754L135.511 25.0393L135.51 25.0422L135.952 25.2754ZM133.784 27.7949L134.054 28.2158L134.06 28.2122L133.784 27.7949ZM130.093 25.9932L129.593 25.9932L129.593 25.9963L130.093 25.9932ZM130.181 24.8506L129.687 24.7734L129.685 24.7815L130.181 24.8506ZM131.235 18.0977L130.742 18.0176L130.741 18.0205L131.235 18.0977ZM126.255 17.8633L125.865 17.5501L125.862 17.5535L126.255 17.8633ZM125.596 18.6982L125.203 18.3884L125.122 18.4912L125.102 18.6205L125.596 18.6982ZM124.131 28L124.131 28.5L124.558 28.5L124.625 28.0778L124.131 28ZM120.615 28L120.121 27.9222L120.03 28.5L120.615 28.5L120.615 28ZM122.505 16.0029L122.02 15.8817L122.014 15.9032L122.011 15.9251L122.505 16.0029ZM120.527 17.0137L120.07 16.8106L120.066 16.8206L120.527 17.0137ZM120.264 17.6436L120.014 18.0766L120.506 18.3604L120.725 17.8366L120.264 17.6436ZM119.502 17.2041L119.028 17.046L118.899 17.4332L119.252 17.6372L119.502 17.2041ZM119.678 16.7061L119.215 16.5167L119.211 16.5259L119.208 16.5352L119.678 16.7061ZM120.234 15.5781L119.795 15.3387L119.792 15.3449L120.234 15.5781ZM122.417 13.0586L122.141 12.6414L122.417 13.0586ZM126.021 16.0029L125.526 15.9305L125.525 15.9389L126.021 16.0029ZM125.962 16.957L126.108 16.957L126.108 15.957L125.962 15.957L125.962 16.957ZM126.537 16.7143C126.593 16.6216 126.678 16.4839 126.795 16.2992L125.949 15.7652C125.832 15.9516 125.741 16.0971 125.68 16.1998L126.537 16.7143ZM126.785 16.3146C126.891 16.1591 127.134 15.8639 127.536 15.4128L126.79 14.7474C126.391 15.1947 126.107 15.5343 125.959 15.7499L126.785 16.3146ZM127.536 15.4128C127.92 14.9826 128.309 14.6124 128.704 14.3004L128.083 13.516C127.638 13.868 127.207 14.2792 126.79 14.7474L127.536 15.4128ZM128.709 14.296C129.088 13.9874 129.572 13.6961 130.167 13.4261L129.755 12.5153C129.1 12.8117 128.539 13.1454 128.078 13.5204L128.709 14.296ZM130.165 13.4273C130.741 13.17 131.307 13.0459 131.865 13.0459L131.865 12.0459C131.154 12.0459 130.45 12.205 129.757 12.5141L130.165 13.4273ZM131.865 13.0459C132.789 13.0459 133.394 13.3009 133.778 13.7293L134.523 13.0617C133.891 12.3573 132.973 12.0459 131.865 12.0459L131.865 13.0459ZM133.784 13.736C134.175 14.1567 134.427 14.9016 134.427 16.0908L135.427 16.0908C135.427 14.7996 135.16 13.7476 134.517 13.055L133.784 13.736ZM134.427 16.0908C134.427 16.6347 134.371 17.2772 134.257 18.0216L135.245 18.1737C135.365 17.3946 135.427 16.6993 135.427 16.0908L134.427 16.0908ZM134.257 18.0205L133.202 24.7734L134.19 24.9277L135.245 18.1748L134.257 18.0205ZM133.196 24.8506C133.196 24.8429 133.197 24.8372 133.197 24.8339C133.197 24.8304 133.197 24.8282 133.197 24.8274C133.197 24.826 133.197 24.8274 133.196 24.8325C133.195 24.8428 133.193 24.86 133.188 24.8856L134.175 25.05C134.183 24.9987 134.196 24.9185 134.196 24.8506L133.196 24.8506ZM133.188 24.8856C133.176 24.9589 133.167 25.0374 133.167 25.1143L134.167 25.1143C134.167 25.1149 134.167 25.1099 134.168 25.0981C134.169 25.0865 134.171 25.0707 134.175 25.05L133.188 24.8856ZM133.167 25.1143C133.167 25.3647 133.206 25.6404 133.359 25.8662C133.535 26.1271 133.807 26.2441 134.092 26.2441L134.092 25.2441C134.083 25.2441 134.1 25.2427 134.127 25.2565C134.158 25.2714 134.178 25.2927 134.188 25.3071C134.195 25.3182 134.189 25.3141 134.181 25.2802C134.174 25.2463 134.167 25.1927 134.167 25.1143L133.167 25.1143ZM134.092 26.2441C134.365 26.2441 134.601 26.1242 134.789 25.9762C134.978 25.8276 135.154 25.624 135.321 25.3876L134.503 24.8116C134.367 25.0049 134.255 25.1236 134.171 25.1898C134.086 25.2567 134.063 25.2441 134.092 25.2441L134.092 26.2441ZM135.316 25.3937C135.648 24.9377 135.913 24.4793 136.106 24.0183L135.183 23.6321C135.025 24.0109 134.801 24.4021 134.508 24.8055L135.316 25.3937ZM136.094 24.0446L136.401 23.4147L135.503 22.9759L135.195 23.6058L136.094 24.0446ZM135.692 23.6226L136.44 24.0767L136.959 23.2221L136.212 22.768L135.692 23.6226ZM136.225 23.4913C136.191 23.5925 136.133 23.7463 136.046 23.9581L136.972 24.3368C137.061 24.1189 137.129 23.9407 137.174 23.8075L136.225 23.4913ZM136.042 23.9695C135.977 24.1401 135.806 24.4889 135.511 25.0393L136.393 25.5115C136.684 24.9681 136.885 24.565 136.976 24.3255L136.042 23.9695ZM135.51 25.0422C135.239 25.5558 134.953 25.9968 134.654 26.3681L135.433 26.9951C135.779 26.5657 136.099 26.0691 136.394 25.5086L135.51 25.0422ZM134.654 26.3681C134.37 26.7209 133.992 27.0587 133.509 27.3777L134.06 28.2122C134.612 27.8476 135.073 27.4431 135.433 26.9951L134.654 26.3681ZM133.514 27.3741C133.068 27.66 132.624 27.793 132.173 27.793L132.173 28.793C132.835 28.793 133.465 28.5939 134.054 28.2158L133.514 27.3741ZM132.173 27.793C131.576 27.793 131.214 27.6294 130.991 27.3826C130.759 27.1258 130.597 26.6917 130.593 25.99L129.593 25.9963C129.598 26.8278 129.788 27.5436 130.249 28.0534C130.719 28.5732 131.392 28.793 132.173 28.793L132.173 27.793ZM130.593 25.9932C130.593 25.6792 130.62 25.3219 130.676 24.9197L129.685 24.7815C129.624 25.2191 129.593 25.6235 129.593 25.9932L130.593 25.9932ZM130.675 24.9277L131.729 18.1748L130.741 18.0205L129.687 24.7734L130.675 24.9277ZM131.729 18.1777C131.791 17.7961 131.823 17.4416 131.823 17.1162L130.823 17.1162C130.823 17.3767 130.797 17.6765 130.742 18.0176L131.729 18.1777ZM131.823 17.1162C131.823 16.4984 131.712 15.9444 131.411 15.5347C131.089 15.0962 130.609 14.9023 130.063 14.9023L130.063 15.9023C130.358 15.9023 130.508 15.9941 130.605 16.1269C130.724 16.2885 130.823 16.5914 130.823 17.1162L131.823 17.1162ZM130.063 14.9023C129.318 14.9023 128.541 15.2418 127.748 15.8183L128.336 16.627C129.047 16.1098 129.618 15.9023 130.063 15.9023L130.063 14.9023ZM127.748 15.8183C126.971 16.3833 126.34 16.9596 125.865 17.5501L126.645 18.1765C127.049 17.6732 127.609 17.1558 128.336 16.627L127.748 15.8183ZM125.862 17.5535L125.203 18.3884L125.988 19.0081L126.647 18.1731L125.862 17.5535ZM125.102 18.6205L123.637 27.9222L124.625 28.0778L126.09 18.776L125.102 18.6205ZM124.131 27.5L120.615 27.5L120.615 28.5L124.131 28.5L124.131 27.5ZM121.109 28.0778L122.999 16.0807L122.011 15.9251L120.121 27.9222L121.109 28.0778ZM122.99 16.1242C123.023 15.9905 123.034 15.8426 123.034 15.6953L122.034 15.6953C122.034 15.8019 122.025 15.8591 122.02 15.8817L122.99 16.1242ZM123.034 15.6953C123.034 15.4538 122.996 15.1843 122.845 14.9629C122.67 14.7072 122.401 14.5947 122.124 14.5947L122.124 15.5947C122.131 15.5947 122.113 15.5959 122.084 15.5816C122.053 15.5662 122.03 15.5438 122.019 15.5269C122.009 15.5132 122.014 15.5138 122.021 15.5435C122.028 15.5732 122.034 15.6221 122.034 15.6953L123.034 15.6953ZM122.124 14.5947C121.856 14.5947 121.621 14.7098 121.431 14.853C121.24 14.9971 121.06 15.1951 120.888 15.4261L121.69 16.0231C121.831 15.8342 121.946 15.7172 122.033 15.6514C122.122 15.5847 122.148 15.5947 122.124 15.5947L122.124 14.5947ZM120.888 15.4261C120.555 15.8731 120.282 16.3345 120.07 16.8106L120.984 17.2167C121.163 16.8139 121.398 16.416 121.69 16.0231L120.888 15.4261ZM120.066 16.8206L119.802 17.4505L120.725 17.8366L120.989 17.2067L120.066 16.8206ZM120.514 17.2105L119.752 16.771L119.252 17.6372L120.014 18.0766L120.514 17.2105ZM119.976 17.3622C120.013 17.2515 120.07 17.0904 120.148 16.8769L119.208 16.5352C119.129 16.7514 119.069 16.9224 119.028 17.046L119.976 17.3622ZM120.141 16.8954C120.218 16.7059 120.393 16.3498 120.677 15.8113L119.792 15.3449C119.51 15.8807 119.313 16.2765 119.215 16.5167L120.141 16.8954ZM120.673 15.8175C120.955 15.3018 121.246 14.8587 121.547 14.4854L120.768 13.8584C120.424 14.2858 120.1 14.7802 119.795 15.3387L120.673 15.8175ZM121.547 14.4854C121.831 14.1326 122.209 13.7948 122.693 13.4758L122.141 12.6414C121.589 13.0059 121.128 13.4104 120.768 13.8584L121.547 14.4854ZM122.693 13.4758C123.136 13.1827 123.584 13.0459 124.043 13.0459L124.043 12.0459C123.369 12.0459 122.733 12.2509 122.141 12.6414L122.693 13.4758ZM124.043 13.0459C124.635 13.0459 124.993 13.2127 125.215 13.4674C125.448 13.7354 125.608 14.1893 125.608 14.9189L126.608 14.9189C126.608 14.0666 126.424 13.3339 125.969 12.8109C125.502 12.2746 124.828 12.0459 124.043 12.0459L124.043 13.0459ZM125.608 14.9189C125.608 15.2118 125.582 15.5483 125.526 15.9305L126.515 16.0753C126.576 15.6567 126.608 15.2706 126.608 14.9189L125.608 14.9189ZM125.525 15.9389L125.466 16.393L126.458 16.521L126.516 16.0669L125.525 15.9389Z" fill="#ED1C24"/>
</svg>
