<svg width="70" height="295" viewBox="0 0 70 295" fill="none" xmlns="http://www.w3.org/2000/svg">
<path d="M26.3448 291.686L26.8299 291.564L26.7496 291.243L26.4227 291.192L26.3448 291.686ZM9.25006 288.99L9.32796 288.496L9.31529 288.495L9.25006 288.99ZM6.40826 289.269L6.80826 289.569L6.81423 289.561L6.81987 289.552L6.40826 289.269ZM6.10065 290.792L6.02825 291.287L6.60065 291.37L6.60065 290.792L6.10065 290.792ZM4.89947 290.616L4.39947 290.616L4.39947 291.048L4.82708 291.111L4.89947 290.616ZM4.89947 282.091L4.98167 281.598L4.39947 281.501L4.39947 282.091L4.89947 282.091ZM5.95416 282.267L6.44207 282.157L6.36846 281.829L6.03636 281.773L5.95416 282.267ZM6.55475 284.947L6.06684 285.057L6.14121 285.388L6.47724 285.441L6.55475 284.947ZM26.3448 288.053L26.2673 288.547L26.8448 288.637L26.8448 288.053L26.3448 288.053ZM25.2755 279.82L25.6427 279.481L25.6404 279.479L25.2755 279.82ZM21.2471 277.799L20.7471 277.799L20.7471 278.173L21.1063 278.279L21.2471 277.799ZM21.2471 276.451L21.3721 275.967L20.7471 275.806L20.7471 276.451L21.2471 276.451ZM28.0001 278.194L28.5001 278.194L28.5001 277.807L28.125 277.71L28.0001 278.194ZM28.0001 294.264L27.9179 294.757L28.5001 294.854L28.5001 294.264L28.0001 294.264ZM26.9454 294.088L26.4603 294.209L26.5398 294.527L26.8632 294.581L26.9454 294.088ZM26.4227 291.192L9.32793 288.496L9.17219 289.484L26.2669 292.179L26.4227 291.192ZM9.31529 288.495C8.57068 288.397 8.00097 288.344 7.62408 288.344L7.62408 289.344C7.93079 289.344 8.44507 289.389 9.18483 289.486L9.31529 288.495ZM7.62408 288.344C6.97058 288.344 6.33925 288.488 5.99666 288.985L6.81987 289.552C6.8679 289.483 7.04711 289.344 7.62408 289.344L7.62408 288.344ZM6.00826 288.969C5.84409 289.187 5.74653 289.463 5.68744 289.756C5.62745 290.053 5.60065 290.401 5.60065 290.792L6.60065 290.792C6.60065 290.441 6.62512 290.164 6.66766 289.953C6.71111 289.738 6.76736 289.623 6.80826 289.569L6.00826 288.969ZM6.17305 290.297L4.97187 290.121L4.82708 291.111L6.02825 291.287L6.17305 290.297ZM5.39947 290.616L5.39947 282.091L4.39947 282.091L4.39947 290.616L5.39947 290.616ZM4.81727 282.584L5.87196 282.76L6.03636 281.773L4.98167 281.598L4.81727 282.584ZM5.46626 282.376L6.06684 285.057L7.04265 284.838L6.44207 282.157L5.46626 282.376ZM6.47724 285.441L26.2673 288.547L26.4223 287.559L6.63226 284.453L6.47724 285.441ZM26.8448 288.053L26.8448 283.204L25.8448 283.204L25.8448 288.053L26.8448 288.053ZM26.8448 283.204C26.8448 281.646 26.4706 280.377 25.6427 279.481L24.9082 280.16C25.5061 280.807 25.8448 281.794 25.8448 283.204L26.8448 283.204ZM25.6404 279.479C24.8223 278.605 23.37 277.901 21.388 277.319L21.1063 278.279C23.0501 278.849 24.2833 279.493 24.9105 280.162L25.6404 279.479ZM21.7471 277.799L21.7471 276.451L20.7471 276.451L20.7471 277.799L21.7471 277.799ZM21.1222 276.935L27.8751 278.678L28.125 277.71L21.3721 275.967L21.1222 276.935ZM27.5001 278.194L27.5001 294.264L28.5001 294.264L28.5001 278.194L27.5001 278.194ZM28.0823 293.77L27.0276 293.595L26.8632 294.581L27.9179 294.757L28.0823 293.77ZM27.4304 293.967L26.8299 291.564L25.8597 291.807L26.4603 294.209L27.4304 293.967ZM15.2559 264.366L15.5237 264.788L15.526 264.787L15.2559 264.366ZM16.2081 269.493L15.9288 269.908L15.9294 269.908L16.2081 269.493ZM25.5977 270.152L25.8691 270.572L25.8727 270.57L25.5977 270.152ZM24.6602 265.025L24.9369 264.609L24.9356 264.608L24.6602 265.025ZM26.5352 272.994L26.8647 273.37L26.868 273.367L26.5352 272.994ZM15.2706 271.969L15.6152 271.607L15.6142 271.606L15.2706 271.969ZM14.3184 261.524L14.6496 261.899L14.6514 261.897L14.3184 261.524ZM18.7569 263.104C17.1735 263.104 15.8939 263.362 14.9858 263.945L15.526 264.787C16.2 264.354 17.2543 264.104 18.7569 264.104L18.7569 263.104ZM14.9881 263.944C14.0692 264.527 13.5547 265.338 13.5547 266.358L14.5547 266.358C14.5547 265.738 14.8411 265.221 15.5237 264.788L14.9881 263.944ZM13.5547 266.358C13.5547 267.724 14.4333 268.901 15.9288 269.908L16.4874 269.078C15.1118 268.152 14.5547 267.239 14.5547 266.358L13.5547 266.358ZM15.9294 269.908C17.4664 270.94 19.5244 271.429 22.0528 271.429L22.0528 270.429C19.6398 270.429 17.8013 269.96 16.4867 269.078L15.9294 269.908ZM22.0528 271.429C23.6561 271.429 24.9509 271.166 25.8691 270.572L25.3263 269.732C24.643 270.174 23.5745 270.429 22.0528 270.429L22.0528 271.429ZM25.8727 270.57C26.7864 269.968 27.2989 269.15 27.2989 268.131L26.2989 268.131C26.2989 268.752 26.0106 269.282 25.3227 269.735L25.8727 270.57ZM27.2989 268.131C27.2989 266.765 26.4252 265.598 24.9369 264.609L24.3835 265.442C25.7468 266.348 26.2989 267.25 26.2989 268.131L27.2989 268.131ZM24.9356 264.608C23.3891 263.588 21.3127 263.104 18.7569 263.104L18.7569 264.104C21.2011 264.104 23.0602 264.569 24.3848 265.443L24.9356 264.608ZM19.0059 260.442C21.4803 260.442 23.5516 261.261 25.2511 262.896L25.9443 262.175C24.0501 260.353 21.7268 259.442 19.0059 259.442L19.0059 260.442ZM25.2511 262.896C26.9523 264.532 27.793 266.488 27.793 268.79L28.793 268.79C28.793 266.209 27.8369 263.995 25.9443 262.175L25.2511 262.896ZM27.793 268.79C27.793 270.424 27.2545 271.683 26.2025 272.621L26.868 273.367C28.1596 272.216 28.793 270.671 28.793 268.79L27.793 268.79ZM26.2057 272.618C25.1355 273.556 23.6997 274.047 21.8477 274.047L21.8477 275.047C23.8824 275.047 25.5717 274.503 26.8647 273.37L26.2057 272.618ZM21.8477 274.047C19.3931 274.047 17.3255 273.234 15.6152 271.607L14.9259 272.331C16.829 274.141 19.1461 275.047 21.8477 275.047L21.8477 274.047ZM15.6142 271.606C13.894 269.978 13.046 268.037 13.046 265.758L12.046 265.758C12.046 268.322 13.0144 270.522 14.9269 272.332L15.6142 271.606ZM13.046 265.758C13.046 264.104 13.5896 262.836 14.6496 261.899L13.9872 261.15C12.684 262.302 12.046 263.857 12.046 265.758L13.046 265.758ZM14.6514 261.897C15.7218 260.942 17.1562 260.442 19.0059 260.442L19.0059 259.442C16.9689 259.442 15.2784 259.997 13.9855 261.151L14.6514 261.897ZM24.8506 257.525L24.7729 258.019L24.7815 258.021L24.8506 257.525ZM8.64947 254.977L8.55798 255.468L8.57177 255.47L8.64947 254.977ZM7.38971 254.845L7.40133 254.345L7.38971 254.345L7.38971 254.845ZM5.79303 256.412L5.7097 256.905L6.29303 257.004L6.29303 256.412L5.79303 256.412ZM4.75299 256.236L4.25504 256.282L4.28991 256.665L4.66966 256.729L4.75299 256.236ZM4.37213 253.57L4.86322 253.476L4.86242 253.472L4.37213 253.57ZM3.87408 251.432L3.38737 251.546L3.39052 251.56L3.3944 251.573L3.87408 251.432ZM3.6983 250.685L3.77595 250.191L3.04125 250.075L3.21159 250.799L3.6983 250.685ZM24.8506 254.01L24.773 254.504L24.8116 254.51L24.8506 254.51L24.8506 254.01ZM23.8253 252.032L23.6058 252.482L23.6144 252.486L23.8253 252.032ZM23.1954 251.725L22.7681 251.465L22.4834 251.933L22.976 252.174L23.1954 251.725ZM23.6495 250.978L23.8076 250.503L23.4293 250.377L23.2222 250.718L23.6495 250.978ZM24.1475 251.168L23.9581 251.631L23.9695 251.635L24.1475 251.168ZM25.2754 251.725L25.0393 252.165L25.0422 252.167L25.2754 251.725ZM27.795 253.893L28.2159 253.623L28.2122 253.617L27.795 253.893ZM24.9284 257.031L8.72718 254.483L8.57177 255.47L24.7729 258.019L24.9284 257.031ZM8.74093 254.485C8.29511 254.402 7.84849 254.355 7.40133 254.345L7.37808 255.345C7.77077 255.354 8.164 255.395 8.55802 255.468L8.74093 254.485ZM7.38971 254.345C6.74971 254.345 6.15572 254.476 5.77719 254.886L6.51199 255.565C6.60221 255.467 6.83829 255.345 7.38971 255.345L7.38971 254.345ZM5.77719 254.886C5.42095 255.272 5.29303 255.816 5.29303 256.412L6.29303 256.412C6.29303 255.934 6.39948 255.687 6.51199 255.565L5.77719 254.886ZM5.87635 255.919L4.83631 255.743L4.66966 256.729L5.7097 256.905L5.87635 255.919ZM5.25093 256.191C5.17121 255.314 5.04183 254.409 4.86321 253.476L3.88105 253.664C4.054 254.568 4.17852 255.44 4.25504 256.282L5.25093 256.191ZM4.86242 253.472C4.67591 252.54 4.5065 251.81 4.35376 251.291L3.3944 251.573C3.53463 252.05 3.69725 252.745 3.88184 253.668L4.86242 253.472ZM4.36079 251.317L4.18501 250.57L3.21159 250.799L3.38737 251.546L4.36079 251.317ZM3.62065 251.179L24.773 254.504L24.9283 253.516L3.77595 250.191L3.62065 251.179ZM24.8506 254.51C24.843 254.51 24.8372 254.51 24.8339 254.509C24.8305 254.509 24.8282 254.509 24.8274 254.509C24.8261 254.509 24.8275 254.509 24.8326 254.51C24.8429 254.511 24.86 254.513 24.8856 254.518L25.05 253.531C24.9988 253.523 24.9186 253.51 24.8506 253.51L24.8506 254.51ZM24.8856 254.518C24.9589 254.53 25.0375 254.539 25.1143 254.539L25.1143 253.539C25.115 253.539 25.11 253.539 25.0982 253.538C25.0866 253.537 25.0707 253.535 25.05 253.531L24.8856 254.518ZM25.1143 254.539C25.3626 254.539 25.6353 254.502 25.8596 254.356C26.121 254.185 26.2442 253.916 26.2442 253.629L25.2442 253.629C25.2442 253.633 25.2437 253.612 25.2598 253.581C25.2767 253.547 25.2999 253.527 25.3139 253.518C25.3246 253.511 25.3194 253.517 25.2838 253.525C25.2486 253.532 25.1937 253.539 25.1143 253.539L25.1143 254.539ZM26.2442 253.629C26.2442 253.357 26.125 253.121 25.9789 252.932C25.8316 252.741 25.6295 252.561 25.3938 252.39L24.8056 253.198C24.9995 253.339 25.1197 253.455 25.1873 253.543C25.2559 253.632 25.2442 253.657 25.2442 253.629L26.2442 253.629ZM25.3938 252.39C24.9417 252.061 24.4892 251.79 24.0361 251.579L23.6144 252.486C24.0012 252.665 24.3983 252.902 24.8056 253.198L25.3938 252.39ZM24.0447 251.583L23.4148 251.275L22.976 252.174L23.6058 252.482L24.0447 251.583ZM23.6226 251.984L24.0767 251.237L23.2222 250.718L22.7681 251.465L23.6226 251.984ZM23.4914 251.452C23.5926 251.486 23.7464 251.544 23.9582 251.631L24.3368 250.705C24.119 250.616 23.9408 250.548 23.8076 250.503L23.4914 251.452ZM23.9695 251.635C24.1402 251.7 24.489 251.871 25.0393 252.165L25.5116 251.284C24.9682 250.993 24.565 250.792 24.3255 250.701L23.9695 251.635ZM25.0422 252.167C25.5559 252.438 25.9968 252.723 26.3682 253.022L26.9952 252.243C26.5658 251.898 26.0692 251.578 25.5087 251.282L25.0422 252.167ZM26.3682 253.022C26.721 253.306 27.0587 253.685 27.3777 254.168L28.2122 253.617C27.8476 253.065 27.4432 252.604 26.9952 252.243L26.3682 253.022ZM27.3741 254.163C27.6591 254.607 27.793 255.056 27.793 255.519L28.793 255.519C28.793 254.848 28.5949 254.214 28.2158 253.623L27.3741 254.163ZM27.793 255.519C27.793 256.125 27.6268 256.493 27.3764 256.718C27.1159 256.952 26.6755 257.113 25.9639 257.113L25.9639 258.113C26.805 258.113 27.5292 257.925 28.0451 257.461C28.571 256.988 28.793 256.308 28.793 255.519L27.793 255.519ZM25.9639 257.113C25.6707 257.113 25.3235 257.087 24.9197 257.03L24.7815 258.021C25.2177 258.081 25.6127 258.113 25.9639 258.113L25.9639 257.113ZM16.003 243.976L16.0799 243.481L16.0721 243.48L16.003 243.976ZM24.8506 245.353L24.7738 245.847L24.812 245.853L24.8506 245.853L24.8506 245.353ZM25.0997 244.137L24.7996 244.537L24.8056 244.541L25.0997 244.137ZM23.8253 243.346L24.0447 242.896L24.0317 242.89L24.0183 242.884L23.8253 243.346ZM23.1954 243.082L22.7681 242.822L22.4663 243.319L23.0023 243.543L23.1954 243.082ZM23.6495 242.335L23.8076 241.861L23.4293 241.735L23.2222 242.075L23.6495 242.335ZM24.1475 242.511L24.3255 242.043L24.3184 242.041L24.1475 242.511ZM25.2754 243.067L25.0393 243.508L25.0422 243.51L25.2754 243.067ZM27.795 245.235L28.2159 244.965L28.2122 244.96L27.795 245.235ZM24.8506 248.868L24.7737 249.362L24.7815 249.363L24.8506 248.868ZM16.003 247.491L16.0799 246.997L16.0417 246.991L16.003 246.991L16.003 247.491ZM15.8565 247.477L15.9387 246.983L15.9272 246.982L15.8565 247.477ZM17.0137 249.469L16.8106 249.926L16.8207 249.93L17.0137 249.469ZM17.6436 249.732L18.0767 249.982L18.3605 249.49L17.8367 249.271L17.6436 249.732ZM17.2042 250.494L17.046 250.968L17.4333 251.098L17.6373 250.744L17.2042 250.494ZM16.7061 250.318L16.5168 250.781L16.5259 250.785L16.5352 250.788L16.7061 250.318ZM15.5782 249.762L15.3387 250.201L15.345 250.204L15.5782 249.762ZM13.0587 247.579L12.6414 247.855L13.0587 247.579ZM9.01568 246.056L9.36926 246.409L9.37294 246.405L9.01568 246.056ZM5.58795 246.056L5.23067 246.406L5.2344 246.409L5.58795 246.056ZM5.58795 242.628L5.2344 242.274L5.58795 242.628ZM9.01568 242.628L9.36924 242.274L9.01568 242.628ZM15.9261 244.47L24.7738 245.847L24.9275 244.858L16.0799 243.482L15.9261 244.47ZM24.8506 245.853C24.843 245.853 24.8372 245.852 24.8339 245.852C24.8305 245.852 24.8282 245.852 24.8274 245.852C24.8261 245.852 24.8275 245.852 24.8326 245.852C24.8429 245.854 24.86 245.856 24.8856 245.86L25.05 244.874C24.9988 244.865 24.9186 244.853 24.8506 244.853L24.8506 245.853ZM24.8856 245.86C24.9589 245.873 25.0375 245.882 25.1143 245.882L25.1143 244.882C25.115 244.882 25.11 244.882 25.0981 244.881C25.0866 244.88 25.0707 244.877 25.05 244.874L24.8856 245.86ZM25.1143 245.882C25.3626 245.882 25.6353 245.844 25.8596 245.698C26.121 245.528 26.2442 245.259 26.2442 244.972L25.2442 244.972C25.2442 244.976 25.2437 244.955 25.2598 244.923C25.2767 244.89 25.2999 244.869 25.3139 244.86C25.3246 244.853 25.3194 244.86 25.2838 244.868C25.2486 244.875 25.1937 244.882 25.1143 244.882L25.1143 245.882ZM26.2442 244.972C26.2442 244.7 26.125 244.464 25.9789 244.274C25.8316 244.084 25.6295 243.904 25.3938 243.732L24.8056 244.541C24.9995 244.682 25.1197 244.798 25.1873 244.885C25.2559 244.974 25.2442 245 25.2442 244.972L26.2442 244.972ZM25.3997 243.737C24.9484 243.398 24.4968 243.117 24.0447 242.896L23.6058 243.795C23.9936 243.984 24.3916 244.231 24.7997 244.537L25.3997 243.737ZM24.0183 242.884L23.3884 242.621L23.0023 243.543L23.6322 243.807L24.0183 242.884ZM23.6226 243.342L24.0767 242.595L23.2222 242.075L22.7681 242.822L23.6226 243.342ZM23.4914 242.809C23.6021 242.846 23.7631 242.903 23.9766 242.981L24.3184 242.041C24.1022 241.962 23.9312 241.902 23.8076 241.861L23.4914 242.809ZM23.9695 242.978C24.1402 243.043 24.489 243.213 25.0393 243.508L25.5116 242.627C24.9682 242.336 24.565 242.135 24.3255 242.044L23.9695 242.978ZM25.0422 243.51C25.5559 243.781 25.9968 244.066 26.3682 244.365L26.9952 243.586C26.5658 243.24 26.0692 242.921 25.5087 242.625L25.0422 243.51ZM26.3682 244.365C26.721 244.649 27.0587 245.028 27.3777 245.511L28.2122 244.96C27.8476 244.408 27.4432 243.947 26.9952 243.586L26.3682 244.365ZM27.3741 245.505C27.6591 245.95 27.793 246.399 27.793 246.861L28.793 246.861C28.793 246.191 28.5949 245.556 28.2158 244.965L27.3741 245.505ZM27.793 246.861C27.793 247.468 27.6268 247.835 27.3764 248.061C27.1159 248.295 26.6755 248.456 25.9639 248.456L25.9639 249.456C26.805 249.456 27.5292 249.268 28.0451 248.804C28.571 248.331 28.793 247.651 28.793 246.861L27.793 246.861ZM25.9639 248.456C25.6707 248.456 25.3235 248.429 24.9197 248.373L24.7815 249.363C25.2177 249.424 25.6127 249.456 25.9639 249.456L25.9639 248.456ZM24.9275 248.374L16.0799 246.997L15.9261 247.985L24.7738 249.362L24.9275 248.374ZM16.003 246.991C16.0036 246.991 15.9987 246.991 15.9868 246.99C15.9752 246.989 15.9594 246.987 15.9387 246.983L15.7743 247.97C15.8476 247.982 15.9261 247.991 16.003 247.991L16.003 246.991ZM15.9272 246.982C15.869 246.973 15.787 246.962 15.7247 246.962L15.7247 247.962C15.7114 247.962 15.7035 247.961 15.7055 247.961C15.7062 247.961 15.7097 247.962 15.7171 247.963C15.7318 247.964 15.7543 247.967 15.7858 247.972L15.9272 246.982ZM15.7247 246.962C15.4764 246.962 15.2037 246.999 14.9794 247.145C14.718 247.316 14.5948 247.585 14.5948 247.872L15.5948 247.872C15.5948 247.868 15.5952 247.889 15.5792 247.92C15.5623 247.954 15.5391 247.974 15.5251 247.983C15.5144 247.99 15.5196 247.984 15.5552 247.976C15.5904 247.969 15.6453 247.962 15.7247 247.962L15.7247 246.962ZM14.5948 247.872C14.5948 248.141 14.7098 248.375 14.8531 248.565C14.9972 248.756 15.1951 248.936 15.4262 249.108L16.0232 248.306C15.8343 248.165 15.7173 248.05 15.6514 247.963C15.5847 247.874 15.5948 247.848 15.5948 247.872L14.5948 247.872ZM15.4262 249.108C15.8731 249.441 16.3346 249.714 16.8107 249.926L17.2168 249.012C16.8139 248.833 16.416 248.598 16.0232 248.306L15.4262 249.108ZM16.8207 249.93L17.4505 250.194L17.8367 249.271L17.2068 249.008L16.8207 249.93ZM17.2105 249.483L16.7711 250.244L17.6373 250.744L18.0767 249.982L17.2105 249.483ZM17.3623 250.02C17.2515 249.983 17.0905 249.926 16.877 249.848L16.5352 250.788C16.7514 250.867 16.9224 250.927 17.046 250.968L17.3623 250.02ZM16.8954 249.856C16.7059 249.778 16.3499 249.603 15.8114 249.319L15.345 250.204C15.8807 250.486 16.2766 250.683 16.5168 250.781L16.8954 249.856ZM15.8176 249.323C15.3018 249.041 14.8588 248.75 14.4854 248.449L13.8584 249.228C14.2859 249.572 14.7803 249.896 15.3388 250.201L15.8176 249.323ZM14.4854 248.449C14.1326 248.165 13.7949 247.787 13.4759 247.304L12.6414 247.855C13.006 248.407 13.4105 248.868 13.8584 249.228L14.4854 248.449ZM13.4759 247.304C13.1827 246.86 13.046 246.412 13.046 245.953L12.046 245.953C12.046 246.627 12.251 247.263 12.6414 247.855L13.4759 247.304ZM13.046 245.953C13.046 245.357 13.2102 244.998 13.4575 244.777C13.7156 244.547 14.1529 244.388 14.8604 244.388L14.8604 243.388C14.025 243.388 13.3051 243.573 12.7917 244.031C12.2674 244.499 12.046 245.172 12.046 245.953L13.046 245.953ZM14.8604 244.388C15.1744 244.388 15.5317 244.415 15.9339 244.471L16.0721 243.48C15.6345 243.419 15.23 243.388 14.8604 243.388L14.8604 244.388ZM8.66213 245.702C8.30231 246.062 7.86064 246.244 7.30182 246.244L7.30182 247.244C8.11018 247.244 8.81109 246.967 9.36924 246.409L8.66213 245.702ZM7.30182 246.244C6.74299 246.244 6.30132 246.062 5.9415 245.702L5.2344 246.409C5.79255 246.967 6.49345 247.244 7.30182 247.244L7.30182 246.244ZM5.9452 245.706C5.58045 245.333 5.39947 244.889 5.39947 244.342L4.39947 244.342C4.39947 245.142 4.67748 245.84 5.23069 246.405L5.9452 245.706ZM5.39947 244.342C5.39947 243.783 5.58168 243.341 5.9415 242.981L5.2344 242.274C4.67624 242.833 4.39947 243.533 4.39947 244.342L5.39947 244.342ZM5.9415 242.981C6.30132 242.622 6.74299 242.439 7.30182 242.439L7.30182 241.439C6.49345 241.439 5.79255 241.716 5.2344 242.274L5.9415 242.981ZM7.30182 242.439C7.86064 242.439 8.30231 242.622 8.66213 242.981L9.36924 242.274C8.81108 241.716 8.11018 241.439 7.30182 241.439L7.30182 242.439ZM8.66213 242.981C9.02195 243.341 9.20416 243.783 9.20416 244.342L10.2042 244.342C10.2042 243.533 9.92739 242.833 9.36924 242.274L8.66213 242.981ZM9.20416 244.342C9.20416 244.889 9.02318 245.333 8.65843 245.706L9.37294 246.405C9.92615 245.84 10.2042 245.142 10.2042 244.342L9.20416 244.342ZM14.6553 240.68L14.5757 241.173L15.1553 241.267L15.1553 240.68L14.6553 240.68ZM13.293 240.46L12.8024 240.556L12.8694 240.898L13.2134 240.954L13.293 240.46ZM12.8536 238.219L13.3442 238.123L13.2769 237.779L12.931 237.725L12.8536 238.219ZM8.64947 237.56L8.18042 237.733L8.28208 238.008L8.57202 238.054L8.64947 237.56ZM7.59478 234.703L7.09478 234.703L7.09478 234.792L7.12574 234.876L7.59478 234.703ZM7.59478 233.897L7.6705 233.403L7.09478 233.315L7.09478 233.897L7.59478 233.897ZM12.8536 234.703L12.7779 235.197L13.3536 235.286L13.3536 234.703L12.8536 234.703ZM12.8536 230.382L12.9397 229.889L12.3536 229.787L12.3536 230.382L12.8536 230.382ZM14.9483 230.748L15.4483 230.748L15.4483 230.328L15.0344 230.256L14.9483 230.748ZM14.9483 232.213L15.4369 232.319L15.4483 232.267L15.4483 232.213L14.9483 232.213ZM14.3477 234.981L13.8591 234.875L13.7468 235.393L14.2699 235.475L14.3477 234.981ZM23.6495 236.446L23.7317 235.953L23.7273 235.952L23.6495 236.446ZM25.7442 234.879L25.2442 234.879L25.2442 234.884L25.7442 234.879ZM25.0557 232.608L24.6397 232.886L24.6494 232.9L24.6601 232.914L25.0557 232.608ZM24.8506 232.301L24.61 231.862L24.1324 232.125L24.4346 232.578L24.8506 232.301ZM25.5977 231.891L25.9101 231.5L25.6495 231.292L25.3571 231.452L25.5977 231.891ZM26.3448 232.564L25.997 232.924L26.0032 232.93L26.3448 232.564ZM27.546 234.278L27.1133 234.529L27.1146 234.531L27.546 234.278ZM25.085 240.079L25.085 240.579L25.0873 240.579L25.085 240.079ZM23.9571 239.991L23.8785 240.485L23.8864 240.486L23.9571 239.991ZM14.6553 238.512L14.7339 238.018L14.1553 237.926L14.1553 238.512L14.6553 238.512ZM14.7349 240.186L13.3726 239.966L13.2134 240.954L14.5757 241.173L14.7349 240.186ZM13.7837 240.364L13.3442 238.123L12.3629 238.315L12.8024 240.556L13.7837 240.364ZM12.931 237.725L8.72692 237.066L8.57202 238.054L12.7761 238.713L12.931 237.725ZM9.11852 237.386L8.06383 234.53L7.12574 234.876L8.18042 237.733L9.11852 237.386ZM8.09478 234.703L8.09478 233.897L7.09478 233.897L7.09478 234.703L8.09478 234.703ZM7.51907 234.392L12.7779 235.197L12.9293 234.209L7.6705 233.403L7.51907 234.392ZM13.3536 234.703L13.3536 230.382L12.3536 230.382L12.3536 234.703L13.3536 234.703ZM12.7675 230.874L14.8622 231.241L15.0344 230.256L12.9397 229.889L12.7675 230.874ZM14.4483 230.748L14.4483 232.213L15.4483 232.213L15.4483 230.748L14.4483 230.748ZM14.4597 232.107L13.8591 234.875L14.8363 235.087L15.4369 232.319L14.4597 232.107ZM14.2699 235.475L23.5717 236.94L23.7273 235.952L14.4255 234.488L14.2699 235.475ZM23.5673 236.939C23.7259 236.966 23.9297 236.976 24.1622 236.976L24.1622 235.976C23.9454 235.976 23.8075 235.966 23.7317 235.953L23.5673 236.939ZM24.1622 236.976C24.7711 236.976 25.3201 236.823 25.7112 236.428C26.1023 236.034 26.2498 235.483 26.2442 234.874L25.2442 234.884C25.2484 235.339 25.1371 235.587 25.0008 235.725C24.8646 235.862 24.6177 235.976 24.1622 235.976L24.1622 236.976ZM26.2442 234.879C26.2442 234.383 26.1613 233.894 25.9977 233.414L25.0512 233.737C25.1806 234.116 25.2442 234.496 25.2442 234.879L26.2442 234.879ZM25.9977 233.414C25.8437 232.962 25.6661 232.581 25.4514 232.303L24.6601 232.914C24.7774 233.066 24.9122 233.329 25.0512 233.737L25.9977 233.414ZM25.4717 232.331L25.2667 232.023L24.4346 232.578L24.6397 232.886L25.4717 232.331ZM25.0913 232.739L25.8383 232.329L25.3571 231.452L24.61 231.862L25.0913 232.739ZM25.2854 232.281C25.4629 232.423 25.6991 232.635 25.9971 232.924L26.6925 232.205C26.385 231.908 26.1231 231.671 25.9101 231.5L25.2854 232.281ZM26.0032 232.93C26.2464 233.157 26.6152 233.669 27.1134 234.529L27.9786 234.028C27.4806 233.168 27.0486 232.538 26.6864 232.199L26.0032 232.93ZM27.1146 234.531C27.5786 235.323 27.793 236.056 27.793 236.739L28.793 236.739C28.793 235.84 28.5094 234.933 27.9773 234.025L27.1146 234.531ZM27.793 236.739C27.793 237.775 27.5431 238.461 27.1304 238.89C26.721 239.317 26.0702 239.575 25.0827 239.579L25.0873 240.579C26.2385 240.574 27.1918 240.27 27.8516 239.583C28.5083 238.9 28.793 237.921 28.793 236.739L27.793 236.739ZM25.085 239.579C24.7712 239.579 24.4193 239.552 24.0278 239.496L23.8864 240.486C24.3152 240.547 24.7152 240.579 25.085 240.579L25.085 239.579ZM24.0356 239.497L14.7339 238.018L14.5768 239.006L23.8785 240.485L24.0356 239.497ZM14.1553 238.512L14.1553 240.68L15.1553 240.68L15.1553 238.512L14.1553 238.512ZM16.501 224.713L16.2213 225.127L16.2218 225.128L16.501 224.713ZM24.7042 222.926L24.3085 223.232L24.3108 223.234L24.7042 222.926ZM23.1954 221.417L22.9017 221.822L22.9055 221.824L23.1954 221.417ZM22.4483 220.875L22.7419 220.47L22.6451 220.4L22.527 220.381L22.4483 220.875ZM15.0948 219.703L15.1735 219.209L15.0202 219.185L14.8801 219.252L15.0948 219.703ZM12.546 215.807L12.6241 215.313L12.046 215.221L12.046 215.807L12.546 215.807ZM24.8506 217.755L24.7724 218.249L24.8113 218.255L24.8506 218.255L24.8506 217.755ZM23.8253 215.748L23.6144 216.201L23.8253 215.748ZM23.1954 215.455L22.7704 215.192L22.4734 215.671L22.9845 215.908L23.1954 215.455ZM23.6495 214.723L23.8076 214.248L23.4327 214.123L23.2245 214.459L23.6495 214.723ZM24.1475 214.913L23.9581 215.376L23.9695 215.38L24.1475 214.913ZM25.2754 215.455L25.0455 215.899L25.0486 215.901L25.2754 215.455ZM27.795 217.608L28.2159 217.338L28.2122 217.333L27.795 217.608ZM24.8506 221.271L24.9511 220.781L24.9442 220.779L24.8506 221.271ZM24.543 221.212L24.6366 220.721L24.043 220.608L24.043 221.212L24.543 221.212ZM24.543 221.329L24.043 221.329L24.043 221.612L24.2858 221.758L24.543 221.329ZM24.9532 221.578L24.6925 222.005L24.7013 222.01L24.7104 222.015L24.9532 221.578ZM25.8614 222.252L25.5447 222.639L25.5501 222.643L25.8614 222.252ZM27.004 223.321L27.3815 222.993L27.3766 222.988L27.004 223.321ZM27.8975 224.728L28.3494 224.513L28.3478 224.51L27.8975 224.728ZM27.0479 229.034L27.3546 229.429L27.3574 229.427L27.0479 229.034ZM15.6661 227.35L15.3413 227.73L15.3423 227.731L15.6661 227.35ZM12.7803 219.659L13.2575 219.809L13.2607 219.798L12.7803 219.659ZM13.2344 218.575L13.6388 218.869L13.6463 218.859L13.6532 218.848L13.2344 218.575ZM13.4542 218.238L13.873 218.511L14.0181 218.289L13.9149 218.044L13.4542 218.238ZM12.546 216.085L12.046 216.085L12.046 216.186L12.0853 216.279L12.546 216.085ZM13.7012 221.329C13.7012 222.789 14.625 224.05 16.2213 225.127L16.7808 224.299C15.3106 223.306 14.7012 222.31 14.7012 221.329L13.7012 221.329ZM16.2218 225.128C17.8568 226.228 20.0518 226.751 22.7559 226.751L22.7559 225.751C20.167 225.751 18.1922 225.248 16.7802 224.298L16.2218 225.128ZM22.7559 226.751C23.6855 226.751 24.4636 226.621 25.0252 226.301C25.6287 225.956 25.9512 225.407 25.9512 224.713L24.9512 224.713C24.9512 225.044 24.8246 225.264 24.5296 225.432C24.1928 225.624 23.6232 225.751 22.7559 225.751L22.7559 226.751ZM25.9512 224.713C25.9512 224.004 25.6346 223.302 25.0975 222.617L24.3108 223.234C24.7698 223.819 24.9512 224.309 24.9512 224.713L25.9512 224.713ZM25.0998 222.62C24.5804 221.948 24.0432 221.407 23.4852 221.01L22.9055 221.824C23.3631 222.15 23.8319 222.615 24.3085 223.232L25.0998 222.62ZM23.489 221.012L22.7419 220.47L22.1547 221.28L22.9018 221.822L23.489 221.012ZM22.527 220.381L15.1735 219.209L15.0161 220.197L22.3696 221.369L22.527 220.381ZM14.8801 219.252C14.4942 219.435 14.1893 219.712 13.9864 220.081C13.7867 220.445 13.7012 220.869 13.7012 221.329L14.7012 221.329C14.7012 220.989 14.7647 220.741 14.8628 220.563C14.9577 220.39 15.0997 220.254 15.3095 220.155L14.8801 219.252ZM12.4678 216.3L24.7724 218.249L24.9288 217.261L12.6241 215.313L12.4678 216.3ZM24.8506 218.255C24.843 218.255 24.8372 218.255 24.8339 218.254C24.8305 218.254 24.8282 218.254 24.8274 218.254C24.8261 218.254 24.8275 218.254 24.8326 218.255C24.8429 218.256 24.86 218.258 24.8856 218.263L25.05 217.276C24.9988 217.268 24.9186 217.255 24.8506 217.255L24.8506 218.255ZM24.8856 218.263C24.9589 218.275 25.0375 218.284 25.1143 218.284L25.1143 217.284C25.115 217.284 25.11 217.284 25.0981 217.283C25.0866 217.282 25.0707 217.28 25.05 217.276L24.8856 218.263ZM25.1143 218.284C25.3626 218.284 25.6353 218.247 25.8596 218.101C26.121 217.93 26.2442 217.661 26.2442 217.374L25.2442 217.374C25.2442 217.378 25.2437 217.357 25.2598 217.326C25.2767 217.293 25.2999 217.272 25.3139 217.263C25.3245 217.256 25.3194 217.262 25.2838 217.27C25.2486 217.278 25.1937 217.284 25.1143 217.284L25.1143 218.284ZM26.2442 217.374C26.2442 217.103 26.1258 216.867 25.9814 216.676C25.8355 216.484 25.6348 216.301 25.3997 216.124L24.7997 216.924C24.9942 217.07 25.1158 217.19 25.1847 217.281C25.2551 217.374 25.2442 217.401 25.2442 217.374L26.2442 217.374ZM25.3997 216.124C24.9465 215.785 24.492 215.507 24.0361 215.295L23.6144 216.201C23.9983 216.38 24.3935 216.62 24.7997 216.924L25.3997 216.124ZM24.0361 215.295L23.4062 215.002L22.9845 215.908L23.6144 216.201L24.0361 215.295ZM23.6203 215.719L24.0744 214.986L23.2245 214.459L22.7704 215.192L23.6203 215.719ZM23.4914 215.197C23.5926 215.231 23.7464 215.289 23.9582 215.376L24.3368 214.45C24.119 214.361 23.9407 214.293 23.8076 214.248L23.4914 215.197ZM23.9695 215.38C24.144 215.447 24.4957 215.614 25.0455 215.899L25.5054 215.011C24.9615 214.729 24.5612 214.536 24.3255 214.446L23.9695 215.38ZM25.0486 215.901C25.5601 216.161 25.9988 216.441 26.3682 216.738L26.9952 215.959C26.5638 215.612 26.065 215.296 25.5023 215.01L25.0486 215.901ZM26.3682 216.738C26.721 217.022 27.0587 217.401 27.3777 217.884L28.2122 217.333C27.8476 216.781 27.4432 216.32 26.9952 215.959L26.3682 216.738ZM27.3741 217.878C27.6591 218.323 27.793 218.772 27.793 219.234L28.793 219.234C28.793 218.564 28.5949 217.929 28.2158 217.338L27.3741 217.878ZM27.793 219.234C27.793 219.866 27.6258 220.251 27.3763 220.484C27.1206 220.724 26.6906 220.888 25.9932 220.888L25.9932 221.888C26.829 221.888 27.5489 221.693 28.0598 221.214C28.5769 220.73 28.793 220.038 28.793 219.234L27.793 219.234ZM25.9932 220.888C25.6468 220.888 25.2996 220.852 24.9511 220.781L24.7502 221.76C25.1634 221.845 25.5779 221.888 25.9932 221.888L25.9932 220.888ZM24.9442 220.779L24.6366 220.721L24.4495 221.703L24.7571 221.762L24.9442 220.779ZM24.043 221.212L24.043 221.329L25.043 221.329L25.043 221.212L24.043 221.212ZM24.2858 221.758C24.3817 221.815 24.5171 221.898 24.6925 222.005L25.2139 221.151C25.0377 221.044 24.8997 220.96 24.8003 220.9L24.2858 221.758ZM24.7104 222.015C24.8413 222.088 25.1114 222.284 25.5448 222.639L26.178 221.865C25.752 221.516 25.4166 221.264 25.196 221.141L24.7104 222.015ZM25.5501 222.643C25.96 222.969 26.3199 223.307 26.6313 223.655L27.3766 222.988C27.024 222.594 26.6222 222.218 26.1726 221.861L25.5501 222.643ZM26.6264 223.649C26.9129 223.979 27.188 224.408 27.4472 224.945L28.3478 224.51C28.0602 223.914 27.7396 223.406 27.3815 222.993L26.6264 223.649ZM27.4456 224.942C27.681 225.439 27.793 225.922 27.793 226.397L28.793 226.397C28.793 225.759 28.6413 225.13 28.3494 224.514L27.4456 224.942ZM27.793 226.397C27.793 227.356 27.4422 228.087 26.7384 228.642L27.3574 229.427C28.3138 228.673 28.793 227.646 28.793 226.397L27.793 226.397ZM26.7413 228.639C26.0311 229.191 24.9743 229.501 23.503 229.501L23.503 230.501C25.0981 230.501 26.4046 230.167 27.3546 229.429L26.7413 228.639ZM23.503 229.501C20.458 229.501 17.966 228.648 15.9898 226.969L15.3423 227.731C17.5263 229.587 20.2589 230.501 23.503 230.501L23.503 229.501ZM15.9909 226.969C13.9996 225.268 13.046 223.353 13.046 221.212L12.046 221.212C12.046 223.7 13.1724 225.877 15.3413 227.73L15.9909 226.969ZM13.046 221.212C13.046 220.724 13.1168 220.257 13.2574 219.809L12.3033 219.51C12.1314 220.057 12.046 220.626 12.046 221.212L13.046 221.212ZM13.2607 219.798C13.4038 219.302 13.536 219.011 13.6388 218.869L12.8301 218.281C12.6203 218.57 12.4498 219.001 12.2999 219.521L13.2607 219.798ZM13.6532 218.848L13.873 218.511L13.0354 217.965L12.8156 218.302L13.6532 218.848ZM13.9149 218.044L13.0067 215.891L12.0853 216.279L12.9935 218.433L13.9149 218.044ZM13.046 216.085L13.046 215.807L12.046 215.807L12.046 216.085L13.046 216.085ZM27.6045 213.8L27.9333 214.177L27.9377 214.173L27.6045 213.8ZM28.4395 210.05L28.2485 210.512L28.2507 210.513L28.4395 210.05ZM30.2999 211.163L29.969 211.538L29.9727 211.541L30.2999 211.163ZM32.4971 213.595L32.0647 213.846L32.0754 213.864L32.0875 213.881L32.4971 213.595ZM32.8047 214.034L33.0984 214.439L33.4962 214.15L33.2144 213.747L32.8047 214.034ZM31.8965 214.693L31.5203 215.023L31.8208 215.366L32.1902 215.098L31.8965 214.693ZM31.3399 214.137L30.9863 214.49L30.994 214.498L31.002 214.505L31.3399 214.137ZM30.0508 213.141L29.7632 213.55L29.7662 213.552L30.0508 213.141ZM28.293 212.291L28.4061 211.804L27.793 211.662L27.793 212.291L28.293 212.291ZM27.2759 213.423C26.9178 213.735 26.4721 213.9 25.9053 213.9L25.9053 214.9C26.6862 214.9 27.3733 214.665 27.9332 214.177L27.2759 213.423ZM25.9053 213.9C25.3465 213.9 24.9048 213.718 24.545 213.358L23.8379 214.065C24.3961 214.624 25.097 214.9 25.9053 214.9L25.9053 213.9ZM24.545 213.358C24.1852 212.999 24.003 212.557 24.003 211.998L23.003 211.998C23.003 212.806 23.2798 213.507 23.8379 214.065L24.545 213.358ZM24.003 211.998C24.003 211.453 24.1947 211.015 24.5889 210.652L23.9112 209.917C23.3094 210.471 23.003 211.176 23.003 211.998L24.003 211.998ZM24.5889 210.652C24.9782 210.293 25.4988 210.096 26.1983 210.096L26.1983 209.096C25.2963 209.096 24.518 209.357 23.9112 209.917L24.5889 210.652ZM26.1983 210.096C26.8918 210.096 27.5742 210.233 28.2485 210.512L28.6305 209.588C27.84 209.261 27.0282 209.096 26.1983 209.096L26.1983 210.096ZM28.2507 210.513C28.9513 210.799 29.5207 211.142 29.969 211.538L30.6307 210.788C30.0829 210.305 29.4121 209.907 28.6284 209.587L28.2507 210.513ZM29.9727 211.541C30.4663 211.968 30.8995 212.393 31.2738 212.814L32.0212 212.149C31.6142 211.691 31.1491 211.237 30.627 210.785L29.9727 211.541ZM31.2738 212.814C31.655 213.242 31.9132 213.585 32.0647 213.846L32.9295 213.344C32.7294 212.999 32.4213 212.599 32.0212 212.149L31.2738 212.814ZM32.0875 213.881L32.3951 214.321L33.2144 213.747L32.9067 213.308L32.0875 213.881ZM32.511 213.63L31.6028 214.289L32.1902 215.098L33.0984 214.439L32.511 213.63ZM32.2728 214.364C32.1195 214.189 31.9194 213.99 31.6778 213.768L31.002 214.505C31.2292 214.714 31.4002 214.885 31.5203 215.023L32.2728 214.364ZM31.6935 213.783C31.4336 213.523 30.9699 213.169 30.3354 212.73L29.7662 213.552C30.4013 213.991 30.797 214.301 30.9863 214.49L31.6935 213.783ZM30.3384 212.732C29.6786 212.268 29.0338 211.95 28.4061 211.804L28.18 212.778C28.646 212.886 29.1731 213.135 29.7632 213.55L30.3384 212.732ZM27.793 212.291C27.793 212.739 27.6282 213.108 27.2714 213.427L27.9377 214.173C28.4988 213.671 28.793 213.034 28.793 212.291L27.793 212.291ZM34.0059 191.71L34.3473 191.345L34.1034 191.117L33.7994 191.255L34.0059 191.71ZM34.8995 192.545L35.253 192.898L35.6188 192.533L35.2408 192.18L34.8995 192.545ZM34.3135 193.102L33.9743 192.734L33.9673 192.741L34.3135 193.102ZM32.6583 194.361L32.9453 194.771L32.9462 194.77L32.6583 194.361ZM26.3448 197.188L26.4653 197.674L26.466 197.674L26.3448 197.188ZM17.1895 197.174L17.3108 196.689L17.31 196.689L17.1895 197.174ZM13.0586 195.709L12.8365 196.157L12.8394 196.158L13.0586 195.709ZM9.54302 193.717L9.27155 194.137L9.27246 194.137L9.54302 193.717ZM6.62798 191.505L6.29032 191.874L6.62798 191.505ZM4.50396 189.498L4.15325 189.854L4.15329 189.854L4.50396 189.498ZM3.09771 188.019L2.7063 188.33L2.71107 188.336L2.71602 188.342L3.09771 188.019ZM2.64361 187.447L2.34991 187.043L1.92715 187.349L2.2522 187.758L2.64361 187.447ZM3.55181 186.788L3.94225 186.476L3.64422 186.103L3.25811 186.383L3.55181 186.788ZM6.54009 189.293L6.83071 188.886L6.8291 188.885L6.54009 189.293ZM10.3194 191.505L10.1049 191.957L10.1063 191.957L10.3194 191.505ZM15.6954 193.248L15.5806 193.735L15.5822 193.735L15.6954 193.248ZM33.6645 192.075L34.5581 192.91L35.2408 192.18L34.3473 191.345L33.6645 192.075ZM34.5459 192.191C34.4162 192.321 34.2266 192.501 33.9744 192.734L34.6527 193.469C34.9083 193.233 35.1093 193.042 35.253 192.898L34.5459 192.191ZM33.9673 192.741C33.7552 192.944 33.2357 193.343 32.3703 193.953L32.9462 194.77C33.7996 194.169 34.3835 193.727 34.6598 193.462L33.9673 192.741ZM32.3712 193.952C31.5431 194.533 30.672 195.047 29.7577 195.494L30.1975 196.392C31.1582 195.922 32.0742 195.381 32.9453 194.771L32.3712 193.952ZM29.7577 195.494C28.8626 195.933 27.688 196.337 26.2235 196.703L26.466 197.674C27.9703 197.297 29.2176 196.872 30.1975 196.392L29.7577 195.494ZM26.2243 196.703C24.7696 197.065 23.2916 197.245 21.7891 197.245L21.7891 198.245C23.3726 198.245 24.9316 198.055 26.4653 197.674L26.2243 196.703ZM21.7891 197.245C20.2878 197.245 18.7953 197.06 17.3108 196.689L17.0682 197.659C18.6306 198.05 20.2045 198.245 21.7891 198.245L21.7891 197.245ZM17.31 196.689C15.8056 196.315 14.4625 195.838 13.2779 195.26L12.8394 196.158C14.0962 196.772 15.5071 197.271 17.069 197.659L17.31 196.689ZM13.2808 195.261C12.0764 194.664 10.9207 194.009 9.81359 193.296L9.27246 194.137C10.4114 194.87 11.5995 195.543 12.8365 196.157L13.2808 195.261ZM9.8145 193.297C8.70008 192.576 7.75158 191.856 6.96565 191.136L6.29032 191.874C7.12548 192.638 8.12034 193.392 9.27155 194.137L9.8145 193.297ZM6.96565 191.136C6.1583 190.397 5.45481 189.732 4.85463 189.142L4.15329 189.854C4.76405 190.455 5.47657 191.129 6.29032 191.874L6.96565 191.136ZM4.85467 189.142C4.24369 188.54 3.7873 188.059 3.4794 187.696L2.71602 188.342C3.05265 188.739 3.53376 189.245 4.15325 189.854L4.85467 189.142ZM3.48912 187.707L3.03502 187.136L2.2522 187.758L2.7063 188.33L3.48912 187.707ZM2.93731 187.852L3.84551 187.193L3.25811 186.383L2.34991 187.043L2.93731 187.852ZM3.16138 187.1C3.33736 187.32 3.59927 187.596 3.936 187.923L4.63247 187.206C4.30514 186.888 4.07876 186.646 3.94225 186.476L3.16138 187.1ZM3.936 187.923C4.3006 188.277 5.08535 188.875 6.25108 189.701L6.8291 188.885C5.65109 188.051 4.93193 187.496 4.63247 187.206L3.936 187.923ZM6.24947 189.7C7.43681 190.548 8.72223 191.3 10.1049 191.957L10.5339 191.053C9.20171 190.421 7.9676 189.698 6.83071 188.886L6.24947 189.7ZM10.1063 191.957C11.4976 192.613 13.3265 193.203 15.5806 193.735L15.8101 192.761C13.5915 192.238 11.8365 191.667 10.5324 191.053L10.1063 191.957ZM15.5822 193.735C17.8478 194.262 20.2053 194.524 22.6534 194.524L22.6534 193.524C20.2773 193.524 17.996 193.27 15.8086 192.761L15.5822 193.735ZM22.6534 194.524C24.784 194.524 26.8151 194.326 28.7456 193.928L28.5436 192.949C26.685 193.332 24.7219 193.524 22.6534 193.524L22.6534 194.524ZM28.7456 193.928C30.6459 193.536 32.0591 193.142 32.9527 192.737L32.5396 191.826C31.7535 192.182 30.4324 192.559 28.5436 192.949L28.7456 193.928ZM32.9527 192.737L34.2124 192.165L33.7994 191.255L32.5396 191.826L32.9527 192.737ZM26.3448 185.323L26.8346 185.223L26.765 184.884L26.4229 184.829L26.3448 185.323ZM9.39654 182.643L9.47465 182.149L8.89654 182.057L8.89654 182.643L9.39654 182.643ZM9.39654 185.88L9.31905 186.374L9.89654 186.464L9.89654 185.88L9.39654 185.88ZM7.9024 185.646L7.4038 185.683L7.43344 186.078L7.82491 186.139L7.9024 185.646ZM7.419 183.404L6.94928 183.576L6.95005 183.578L7.419 183.404ZM6.55474 181.632L6.96808 181.35L6.96395 181.345L6.55474 181.632ZM4.78228 179.654L5.07637 179.25L5.06607 179.242L5.05541 179.235L4.78228 179.654ZM4.44537 179.435L3.94537 179.435L3.94537 179.705L4.17223 179.853L4.44537 179.435ZM4.44537 178.204L4.52393 177.71L3.94537 177.618L3.94537 178.204L4.44537 178.204ZM23.503 181.236L23.4244 181.73L23.4302 181.731L23.503 181.236ZM26.4327 180.855L26.838 181.148L26.8426 181.142L26.847 181.135L26.4327 180.855ZM26.7989 178.922L26.8772 178.428L26.2989 178.336L26.2989 178.922L26.7989 178.922ZM28.0001 179.112L28.5001 179.112L28.5001 178.685L28.0783 178.618L28.0001 179.112ZM28.0001 188.443L27.9112 188.935L28.5001 189.042L28.5001 188.443L28.0001 188.443ZM26.9454 188.253L26.4556 188.353L26.5235 188.685L26.8565 188.745L26.9454 188.253ZM26.4229 184.829L9.47465 182.149L9.31843 183.136L26.2667 185.817L26.4229 184.829ZM8.89654 182.643L8.89654 185.88L9.89654 185.88L9.89654 182.643L8.89654 182.643ZM9.47402 185.386L7.97988 185.152L7.82491 186.139L9.31905 186.374L9.47402 185.386ZM8.401 185.608C8.33902 184.782 8.1683 183.989 7.88795 183.231L6.95005 183.578C7.19705 184.246 7.34859 184.947 7.4038 185.683L8.401 185.608ZM7.88871 183.233C7.61587 182.485 7.31082 181.854 6.96804 181.35L6.14144 181.913C6.42366 182.328 6.69479 182.878 6.94929 183.576L7.88871 183.233ZM6.96395 181.345C6.63135 180.871 6.29569 180.448 5.95652 180.078L5.21937 180.754C5.52473 181.087 5.83361 181.475 6.14554 181.919L6.96395 181.345ZM5.95652 180.078C5.62647 179.718 5.33146 179.435 5.07637 179.25L4.48819 180.059C4.66278 180.186 4.90489 180.411 5.21937 180.754L5.95652 180.078ZM5.05541 179.235L4.7185 179.016L4.17223 179.853L4.50915 180.073L5.05541 179.235ZM4.94537 179.435L4.94537 178.204L3.94537 178.204L3.94537 179.435L4.94537 179.435ZM4.3668 178.698L23.4244 181.73L23.5815 180.743L4.52393 177.71L4.3668 178.698ZM23.4302 181.731C24.0993 181.829 24.627 181.883 24.9971 181.883L24.9971 180.883C24.7032 180.883 24.2348 180.839 23.5757 180.742L23.4302 181.731ZM24.9971 181.883C25.7601 181.883 26.4436 181.694 26.838 181.148L26.0273 180.563C25.9139 180.72 25.6404 180.883 24.9971 180.883L24.9971 181.883ZM26.847 181.135C27.1821 180.639 27.2989 179.859 27.2989 178.922L26.2989 178.922C26.2989 179.84 26.1715 180.349 26.0184 180.576L26.847 181.135ZM26.7206 179.416L27.9218 179.606L28.0783 178.618L26.8772 178.428L26.7206 179.416ZM27.5001 179.112L27.5001 188.443L28.5001 188.443L28.5001 179.112L27.5001 179.112ZM28.0889 187.951L27.0342 187.761L26.8565 188.745L27.9112 188.935L28.0889 187.951ZM27.4352 188.153L26.8346 185.223L25.855 185.424L26.4556 188.353L27.4352 188.153ZM6.54009 161.476L6.85178 161.867L6.85477 161.864L6.54009 161.476ZM24.1036 163.292L24.417 162.902L24.4164 162.902L24.1036 163.292ZM28.1758 174.088L27.6915 173.964L27.6904 173.968L28.1758 174.088ZM27.6338 175.582L27.2156 175.308L27.2033 175.327L27.1927 175.347L27.6338 175.582ZM27.3995 176.021L27.1976 176.479L27.6222 176.666L27.8406 176.257L27.3995 176.021ZM25.9053 175.362L25.4936 175.079L25.1508 175.576L25.7035 175.82L25.9053 175.362ZM24.4405 167.423L24.0941 167.783L24.0942 167.784L24.4405 167.423ZM17.8047 164.508L17.8914 164.015L17.3047 163.912L17.3047 164.508L17.8047 164.508ZM17.8047 164.625L17.3047 164.625L17.3047 164.776L17.3887 164.902L17.8047 164.625ZM17.9952 164.859L17.6235 165.194L17.6323 165.204L17.6416 165.213L17.9952 164.859ZM18.4346 165.504L18.8656 165.25L18.8634 165.247L18.4346 165.504ZM18.9766 166.544L19.4357 166.345L19.431 166.335L18.9766 166.544ZM19.4161 167.95L19.904 167.841L19.9026 167.835L19.4161 167.95ZM18.0684 173.268L18.392 173.649L18.3938 173.647L18.0684 173.268ZM7.12603 172.037L7.47155 171.676L7.47056 171.675L7.12603 172.037ZM17.2042 167.657L17.7042 167.66L17.7042 167.657L17.2042 167.657ZM16.9405 165.987L17.4173 165.837L17.4156 165.832L16.9405 165.987ZM16.4131 164.713L16.8445 164.46L16.8419 164.456L16.4131 164.713ZM16.1495 164.273L16.5782 164.016L16.4574 163.815L16.2253 163.779L16.1495 164.273ZM4.94537 166.031C4.94537 164.246 5.58446 162.877 6.85177 161.867L6.22841 161.085C4.70276 162.301 3.94537 163.969 3.94537 166.031L4.94537 166.031ZM6.85477 161.864C8.11753 160.841 10.0177 160.291 12.6338 160.291L12.6338 159.291C9.89841 159.291 7.73609 159.864 6.22541 161.087L6.85477 161.864ZM12.6338 160.291C17.2877 160.291 20.991 161.437 23.7907 163.682L24.4164 162.902C21.3959 160.479 17.4527 159.291 12.6338 159.291L12.6338 160.291ZM23.7901 163.682C26.5896 165.934 27.9542 168.615 27.9542 171.744L28.9542 171.744C28.9542 168.271 27.4183 165.318 24.417 162.902L23.7901 163.682ZM27.9542 171.744C27.9542 172.547 27.8654 173.286 27.6915 173.964L28.6601 174.212C28.8573 173.444 28.9542 172.621 28.9542 171.744L27.9542 171.744ZM27.6904 173.968C27.5161 174.675 27.3512 175.101 27.2156 175.308L28.0521 175.856C28.2876 175.497 28.484 174.926 28.6613 174.208L27.6904 173.968ZM27.1927 175.347L26.9583 175.786L27.8406 176.257L28.075 175.817L27.1927 175.347ZM27.6013 175.564L26.1071 174.905L25.7035 175.82L27.1976 176.479L27.6013 175.564ZM26.317 175.646C26.8844 174.823 27.1524 173.82 27.1524 172.667L26.1524 172.667C26.1524 173.663 25.9224 174.456 25.4936 175.079L26.317 175.646ZM27.1524 172.667C27.1524 170.453 26.3615 168.574 24.7868 167.062L24.0942 167.784C25.4687 169.103 26.1524 170.72 26.1524 172.667L27.1524 172.667ZM24.7868 167.062C23.2054 165.543 20.8868 164.543 17.8914 164.015L17.718 165C20.6016 165.508 22.7068 166.451 24.0941 167.783L24.7868 167.062ZM17.3047 164.508L17.3047 164.625L18.3047 164.625L18.3047 164.508L17.3047 164.508ZM17.3887 164.902C17.4481 164.991 17.5308 165.091 17.6235 165.194L18.3668 164.525C18.2838 164.433 18.2395 164.376 18.2208 164.348L17.3887 164.902ZM17.6416 165.213C17.6415 165.213 17.6447 165.216 17.6512 165.224C17.6577 165.231 17.6661 165.241 17.6767 165.255C17.6981 165.283 17.725 165.32 17.7578 165.368C17.8236 165.465 17.906 165.595 18.0059 165.761L18.8634 165.247C18.6654 164.917 18.4881 164.645 18.3487 164.506L17.6416 165.213ZM18.0037 165.757C18.1902 166.074 18.3631 166.406 18.5223 166.753L19.431 166.335C19.2581 165.959 19.0697 165.597 18.8656 165.25L18.0037 165.757ZM18.5177 166.742C18.6581 167.067 18.7966 167.505 18.9296 168.066L19.9026 167.835C19.7621 167.243 19.6076 166.743 19.4355 166.345L18.5177 166.742ZM18.9282 168.06C19.0471 168.59 19.1065 169.125 19.1065 169.664L20.1065 169.664C20.1065 169.051 20.0389 168.443 19.904 167.841L18.9282 168.06ZM19.1065 169.664C19.1065 171.062 18.6426 172.117 17.743 172.888L18.3938 173.647C19.545 172.661 20.1065 171.313 20.1065 169.664L19.1065 169.664ZM17.7448 172.886C16.8279 173.665 15.5169 174.086 13.7471 174.086L13.7471 175.086C15.6687 175.086 17.2386 174.628 18.392 173.649L17.7448 172.886ZM13.7471 174.086C11.2289 174.086 9.14872 173.279 7.47155 171.676L6.78051 172.399C8.65803 174.194 10.9919 175.086 13.7471 175.086L13.7471 174.086ZM7.47056 171.675C5.77497 170.063 4.94537 168.189 4.94537 166.031L3.94537 166.031C3.94537 168.483 4.90287 170.613 6.7815 172.399L7.47056 171.675ZM5.60064 166.31C5.60064 167.62 6.37736 168.735 7.72033 169.665L8.28954 168.843C7.09345 168.015 6.60064 167.167 6.60064 166.31L5.60064 166.31ZM7.72033 169.665C9.10138 170.621 10.9366 171.072 13.1758 171.072L13.1758 170.072C11.0596 170.072 9.44755 169.645 8.28954 168.843L7.72033 169.665ZM13.1758 171.072C14.5596 171.072 15.6882 170.824 16.4829 170.249C17.3069 169.652 17.6986 168.76 17.7041 167.66L16.7042 167.655C16.6999 168.498 16.4154 169.063 15.8966 169.438C15.3485 169.835 14.4679 170.072 13.1758 170.072L13.1758 171.072ZM17.7042 167.657C17.7042 167.047 17.6077 166.44 17.4173 165.837L16.4637 166.138C16.6248 166.648 16.7042 167.154 16.7042 167.657L17.7042 167.657ZM17.4156 165.832C17.2264 165.254 17.0375 164.789 16.8445 164.46L15.9818 164.966C16.1208 165.203 16.2835 165.588 16.4653 166.143L17.4156 165.832ZM16.8419 164.456L16.5782 164.016L15.7207 164.531L15.9844 164.97L16.8419 164.456ZM16.2253 163.779C14.1125 163.455 12.3467 163.29 10.9346 163.29L10.9346 164.29C12.2765 164.29 13.9872 164.447 16.0736 164.768L16.2253 163.779ZM10.9346 163.29C9.29613 163.29 7.99076 163.501 7.07804 163.977C6.61433 164.218 6.2392 164.535 5.98154 164.938C5.72251 165.343 5.60064 165.806 5.60064 166.31L6.60064 166.31C6.60064 165.973 6.68018 165.702 6.82399 165.477C6.96916 165.25 7.19828 165.042 7.54023 164.863C8.23883 164.499 9.35046 164.29 10.9346 164.29L10.9346 163.29ZM4.89947 143.37L4.97797 142.876L4.39947 142.784L4.39947 143.37L4.89947 143.37ZM7.75591 143.824L8.25591 143.824L8.25591 143.397L7.83441 143.33L7.75591 143.824ZM7.75591 152.73L7.25591 152.73L7.25591 153.104L7.61407 153.21L7.75591 152.73ZM13.7471 154.503L13.6053 154.982L14.5882 155.273L14.2123 154.32L13.7471 154.503ZM25.7735 147.618L26.1308 147.268L26.1299 147.267L25.7735 147.618ZM27.1065 159.366L27.4979 159.677L27.5041 159.67L27.51 159.661L27.1065 159.366ZM26.6524 159.938L26.5735 160.431L26.862 160.477L27.0438 160.249L26.6524 159.938ZM21.7012 159.146L21.2012 159.146L21.2012 159.573L21.6223 159.64L21.7012 159.146ZM21.7012 157.389L21.6478 156.892L21.2012 156.94L21.2012 157.389L21.7012 157.389ZM26.1983 156.905L26.2517 157.402L26.4787 157.378L26.6089 157.191L26.1983 156.905ZM24.792 150.68L24.4722 151.064L24.4739 151.065L24.792 150.68ZM16.5303 149.991L16.8557 150.371L16.8585 150.368L16.5303 149.991ZM15.5489 154.078L15.0575 154.171L15.0579 154.173L15.5489 154.078ZM15.8565 155.25L16.3292 155.087L16.3257 155.077L16.3219 155.067L15.8565 155.25ZM16.003 155.675L16.3486 156.036L16.5801 155.815L16.4757 155.512L16.003 155.675ZM14.6553 156.964L14.5303 157.448L14.7998 157.518L15.0009 157.325L14.6553 156.964ZM4.89947 154.444L4.39947 154.444L4.39947 154.832L4.77444 154.928L4.89947 154.444ZM4.82096 143.864L7.67741 144.318L7.83441 143.33L4.97797 142.876L4.82096 143.864ZM7.25591 143.824L7.25591 152.73L8.25591 152.73L8.25591 143.824L7.25591 143.824ZM7.61407 153.21L13.6053 154.982L13.889 154.023L7.89776 152.251L7.61407 153.21ZM14.2123 154.32C13.8402 153.376 13.6465 152.24 13.6465 150.899L12.6465 150.899C12.6465 152.333 12.8533 153.599 13.282 154.686L14.2123 154.32ZM13.6465 150.899C13.6465 149.117 14.1647 147.785 15.1489 146.835L14.4547 146.116C13.2319 147.295 12.6465 148.912 12.6465 150.899L13.6465 150.899ZM15.1489 146.835C16.1455 145.874 17.445 145.379 19.0938 145.379L19.0938 144.379C17.227 144.379 15.6652 144.948 14.4547 146.116L15.1489 146.835ZM19.0938 145.379C21.6216 145.379 23.718 146.242 25.4171 147.969L26.1299 147.267C24.2352 145.342 21.8785 144.379 19.0938 144.379L19.0938 145.379ZM25.4161 147.968C27.0964 149.685 27.9542 151.958 27.9542 154.84L28.9542 154.84C28.9542 151.745 28.0248 149.204 26.1308 147.268L25.4161 147.968ZM27.9542 154.84C27.9542 155.702 27.8123 156.529 27.5291 157.323L28.471 157.659C28.7933 156.755 28.9542 155.814 28.9542 154.84L27.9542 154.84ZM27.5291 157.323C27.2316 158.158 26.953 158.729 26.703 159.071L27.51 159.661C27.8459 159.202 28.163 158.523 28.471 157.659L27.5291 157.323ZM26.7151 159.055L26.261 159.626L27.0438 160.249L27.4979 159.677L26.7151 159.055ZM26.7313 159.444L21.7801 158.653L21.6223 159.64L26.5735 160.431L26.7313 159.444ZM22.2012 159.146L22.2012 157.389L21.2012 157.389L21.2012 159.146L22.2012 159.146ZM21.7547 157.886L26.2517 157.402L26.1449 156.408L21.6478 156.892L21.7547 157.886ZM26.6089 157.191C27.0868 156.503 27.2989 155.61 27.2989 154.562L26.2989 154.562C26.2989 155.486 26.1106 156.155 25.7877 156.62L26.6089 157.191ZM27.2989 154.562C27.2989 152.902 26.5416 151.475 25.1102 150.294L24.4739 151.065C25.7182 152.092 26.2989 153.252 26.2989 154.562L27.2989 154.562ZM25.1119 150.295C23.6683 149.094 21.8493 148.51 19.6944 148.51L19.6944 149.51C21.6606 149.51 23.24 150.039 24.4722 151.064L25.1119 150.295ZM19.6944 148.51C18.2602 148.51 17.0735 148.856 16.2021 149.614L16.8585 150.368C17.4911 149.818 18.4137 149.51 19.6944 149.51L19.6944 148.51ZM16.2049 149.612C15.3287 150.363 14.9024 151.383 14.9024 152.613L15.9024 152.613C15.9024 151.637 16.2281 150.909 16.8557 150.371L16.2049 149.612ZM14.9024 152.613C14.9024 153.108 14.955 153.627 15.0575 154.171L16.0402 153.985C15.9475 153.494 15.9024 153.037 15.9024 152.613L14.9024 152.613ZM15.0579 154.173C15.1577 154.692 15.2671 155.117 15.3911 155.433L16.3219 155.067C16.2311 154.836 16.1354 154.48 16.0399 153.984L15.0579 154.173ZM15.3838 155.413L15.5303 155.838L16.4757 155.512L16.3292 155.087L15.3838 155.413ZM15.6574 155.313L14.3097 156.603L15.0009 157.325L16.3486 156.036L15.6574 155.313ZM14.7804 156.48L5.02449 153.96L4.77444 154.928L14.5303 157.448L14.7804 156.48ZM5.39947 154.444L5.39947 143.37L4.39947 143.37L4.39947 154.444L5.39947 154.444ZM4.89946 127.022L4.97797 126.529L4.39946 126.437L4.39946 127.022L4.89946 127.022ZM7.75591 127.477L8.25591 127.477L8.25591 127.05L7.83441 126.983L7.75591 127.477ZM7.75591 136.383L7.25591 136.383L7.25591 136.756L7.61407 136.862L7.75591 136.383ZM13.7471 138.155L13.6053 138.635L14.5882 138.926L14.2123 137.972L13.7471 138.155ZM25.7735 131.271L26.1308 130.921L26.1299 130.92L25.7735 131.271ZM27.1065 143.019L27.4979 143.33L27.5041 143.322L27.51 143.314L27.1065 143.019ZM26.6524 143.59L26.5735 144.084L26.862 144.13L27.0438 143.901L26.6524 143.59ZM21.7012 142.799L21.2012 142.799L21.2012 143.225L21.6223 143.293L21.7012 142.799ZM21.7012 141.041L21.6478 140.544L21.2012 140.592L21.2012 141.041L21.7012 141.041ZM26.1983 140.558L26.2517 141.055L26.4786 141.03L26.6089 140.843L26.1983 140.558ZM24.792 134.332L24.4722 134.716L24.4739 134.718L24.792 134.332ZM16.5303 133.644L16.8557 134.023L16.8585 134.021L16.5303 133.644ZM15.5489 137.73L15.0575 137.823L15.0579 137.825L15.5489 137.73ZM15.8565 138.902L16.3292 138.739L16.3257 138.729L16.3219 138.72L15.8565 138.902ZM16.003 139.327L16.3486 139.688L16.5801 139.467L16.4757 139.164L16.003 139.327ZM14.6553 140.616L14.5303 141.1L14.7998 141.17L15.0009 140.978L14.6553 140.616ZM4.89947 138.097L4.39947 138.097L4.39947 138.484L4.77444 138.581L4.89947 138.097ZM4.82096 127.516L7.67741 127.97L7.83441 126.983L4.97797 126.529L4.82096 127.516ZM7.25591 127.477L7.25591 136.383L8.25591 136.383L8.25591 127.477L7.25591 127.477ZM7.61407 136.862L13.6053 138.635L13.889 137.676L7.89776 135.903L7.61407 136.862ZM14.2123 137.972C13.8402 137.028 13.6465 135.892 13.6465 134.552L12.6465 134.552C12.6465 135.985 12.8533 137.251 13.282 138.339L14.2123 137.972ZM13.6465 134.552C13.6465 132.769 14.1647 131.437 15.1489 130.488L14.4547 129.768C13.2319 130.948 12.6465 132.565 12.6465 134.552L13.6465 134.552ZM15.1489 130.488C16.1455 129.527 17.445 129.031 19.0938 129.031L19.0938 128.031C17.227 128.031 15.6652 128.6 14.4547 129.768L15.1489 130.488ZM19.0938 129.031C21.6216 129.031 23.718 129.894 25.4171 131.621L26.1299 130.92C24.2352 128.994 21.8785 128.031 19.0938 128.031L19.0938 129.031ZM25.4161 131.62C27.0964 133.337 27.9542 135.611 27.9542 138.492L28.9542 138.492C28.9542 135.397 28.0248 132.856 26.1308 130.921L25.4161 131.62ZM27.9542 138.492C27.9542 139.354 27.8123 140.181 27.5291 140.976L28.471 141.311C28.7933 140.407 28.9542 139.466 28.9542 138.492L27.9542 138.492ZM27.5291 140.976C27.2316 141.811 26.953 142.382 26.703 142.723L27.51 143.314C27.8459 142.855 28.163 142.176 28.471 141.311L27.5291 140.976ZM26.7151 142.707L26.261 143.279L27.0438 143.901L27.4979 143.33L26.7151 142.707ZM26.7313 143.096L21.7801 142.305L21.6223 143.293L26.5735 144.084L26.7313 143.096ZM22.2012 142.799L22.2012 141.041L21.2012 141.041L21.2012 142.799L22.2012 142.799ZM21.7547 141.538L26.2517 141.055L26.1449 140.06L21.6478 140.544L21.7547 141.538ZM26.6089 140.843C27.0868 140.155 27.2989 139.262 27.2989 138.214L26.2989 138.214C26.2989 139.138 26.1106 139.808 25.7877 140.272L26.6089 140.843ZM27.2989 138.214C27.2989 136.554 26.5416 135.127 25.1102 133.946L24.4739 134.718C25.7182 135.744 26.2989 136.905 26.2989 138.214L27.2989 138.214ZM25.1119 133.948C23.6683 132.746 21.8493 132.162 19.6944 132.162L19.6944 133.162C21.6606 133.162 23.24 133.691 24.4722 134.716L25.1119 133.948ZM19.6944 132.162C18.2602 132.162 17.0735 132.508 16.2021 133.266L16.8585 134.021C17.4911 133.47 18.4137 133.162 19.6944 133.162L19.6944 132.162ZM16.2049 133.264C15.3287 134.015 14.9024 135.035 14.9024 136.266L15.9024 136.266C15.9024 135.289 16.2281 134.561 16.8557 134.023L16.2049 133.264ZM14.9024 136.266C14.9024 136.76 14.955 137.279 15.0575 137.823L16.0402 137.638C15.9475 137.146 15.9024 136.689 15.9024 136.266L14.9024 136.266ZM15.0579 137.825C15.1577 138.344 15.2671 138.769 15.3911 139.085L16.3219 138.72C16.2311 138.488 16.1354 138.133 16.0399 137.636L15.0579 137.825ZM15.3838 139.065L15.5303 139.49L16.4757 139.164L16.3292 138.739L15.3838 139.065ZM15.6574 138.966L14.3097 140.255L15.0009 140.978L16.3486 139.688L15.6574 138.966ZM14.7804 140.132L5.02449 137.613L4.77444 138.581L14.5303 141.1L14.7804 140.132ZM5.39947 138.097L5.39946 127.022L4.39946 127.022L4.39947 138.097L5.39947 138.097ZM3.55181 123.961L3.21341 124.329L3.45443 124.551L3.75389 124.418L3.55181 123.961ZM2.64361 123.126L2.29005 122.772L1.92133 123.141L2.30521 123.494L2.64361 123.126ZM3.22954 122.584L3.5609 122.959L3.56868 122.951L3.22954 122.584ZM4.88482 121.354L5.16869 121.765L5.17186 121.763L4.88482 121.354ZM7.58013 119.771L7.79815 120.221L7.79999 120.221L7.58013 119.771ZM11.2276 118.526L11.3481 119.012L11.3489 119.011L11.2276 118.526ZM20.3682 118.541L20.4895 118.056L20.4888 118.056L20.3682 118.541ZM24.4844 120.021L24.2622 120.468L24.2651 120.47L24.4844 120.021ZM28.0147 122.027L27.7407 122.446L27.7432 122.447L28.0147 122.027ZM33.0538 126.217L32.7031 126.573L32.706 126.576L33.0538 126.217ZM34.4161 127.682L34.0198 127.987L34.0269 127.996L34.0344 128.005L34.4161 127.682ZM34.8995 128.253L35.1963 128.655L35.6264 128.338L35.2812 127.93L34.8995 128.253ZM34.0059 128.912L33.6155 129.224L33.9158 129.6L34.3027 129.314L34.0059 128.912ZM27.2383 124.21L27.0226 124.661L27.0253 124.662L27.2383 124.21ZM21.877 122.467L21.9902 121.98L21.9897 121.98L21.877 122.467ZM8.91314 122.262L9.01168 122.752L9.01217 122.752L8.91314 122.262ZM4.81157 123.404L5.01367 123.862L5.01808 123.86L4.81157 123.404ZM3.89021 123.593L2.982 122.758L2.30521 123.494L3.21341 124.329L3.89021 123.593ZM2.99716 123.48C3.12326 123.353 3.30981 123.181 3.56083 122.958L2.89826 122.209C2.64147 122.437 2.43738 122.625 2.29005 122.772L2.99716 123.48ZM3.56868 122.951C3.7922 122.745 4.31423 122.354 5.16868 121.765L4.60095 120.942C3.75618 121.525 3.1747 121.954 2.8904 122.217L3.56868 122.951ZM5.17186 121.763C5.99927 121.183 6.87459 120.669 7.79815 120.221L7.36211 119.322C6.39113 119.792 5.46958 120.333 4.59777 120.944L5.17186 121.763ZM7.79999 120.221C8.69464 119.783 9.87372 119.378 11.3481 119.012L11.1071 118.041C9.59317 118.417 8.34061 118.842 7.36027 119.322L7.79999 120.221ZM11.3489 119.011C12.7932 118.65 14.2662 118.47 15.7686 118.47L15.7686 117.47C14.1851 117.47 12.6307 117.66 11.1063 118.041L11.3489 119.011ZM15.7686 118.47C17.26 118.47 18.7527 118.655 20.2477 119.026L20.4888 118.056C18.9173 117.665 17.3437 117.47 15.7686 117.47L15.7686 118.47ZM20.2469 119.026C21.7407 119.4 23.0782 119.881 24.2623 120.468L24.7066 119.573C23.4493 118.949 22.0426 118.444 20.4895 118.056L20.2469 119.026ZM24.2651 120.47C25.467 121.056 26.6255 121.715 27.7407 122.446L28.2887 121.609C27.1383 120.855 25.9432 120.176 24.7037 119.571L24.2651 120.47ZM27.7432 122.447C28.8585 123.168 29.8079 123.885 30.5945 124.596L31.265 123.854C30.4305 123.1 29.4365 122.351 28.2862 121.607L27.7432 122.447ZM30.5945 124.596C31.4012 125.325 32.1039 125.984 32.7031 126.573L33.4044 125.86C32.7927 125.259 32.0794 124.59 31.265 123.854L30.5945 124.596ZM32.706 126.576C33.315 127.166 33.7488 127.634 34.0198 127.987L34.8124 127.377C34.4974 126.967 34.023 126.459 33.4016 125.858L32.706 126.576ZM34.0344 128.005L34.5178 128.576L35.2812 127.93L34.7978 127.359L34.0344 128.005ZM34.6026 127.851L33.7091 128.51L34.3027 129.314L35.1963 128.655L34.6026 127.851ZM34.3963 128.6C34.2204 128.38 33.9585 128.104 33.6217 127.777L32.9253 128.495C33.2526 128.812 33.479 129.054 33.6155 129.224L34.3963 128.6ZM33.6217 127.777C33.2571 127.423 32.4724 126.825 31.3066 125.999L30.7286 126.815C31.9066 127.65 32.6258 128.204 32.9253 128.495L33.6217 127.777ZM31.3066 125.999C30.1099 125.152 28.8246 124.404 27.4514 123.758L27.0253 124.662C28.3473 125.285 29.5816 126.003 30.7286 126.815L31.3066 125.999ZM27.4541 123.759C26.0612 123.093 24.2356 122.502 21.9902 121.98L21.7638 122.954C23.9715 123.467 25.7201 124.038 27.0226 124.661L27.4541 123.759ZM21.9897 121.98C19.7145 121.453 17.3474 121.19 14.8897 121.19L14.8897 122.19C17.2757 122.19 19.5669 122.445 21.7643 122.954L21.9897 121.98ZM14.8897 121.19C12.7598 121.19 10.7343 121.384 8.8141 121.772L9.01217 122.752C10.8615 122.378 12.8203 122.19 14.8897 122.19L14.8897 121.19ZM8.81459 121.772C6.91413 122.154 5.49977 122.543 4.60507 122.949L5.01808 123.86C5.80306 123.504 7.12308 123.132 9.01168 122.752L8.81459 121.772ZM4.60949 122.947L3.34973 123.504L3.75389 124.418L5.01366 123.862L4.60949 122.947Z" fill="#ED1C24"/>
<path d="M58.8477 279.894L46.2501 274.796C45.5469 274.493 44.9463 274.347 44.4483 274.356C44.0479 274.356 43.7501 274.571 43.5547 275.001C43.3497 275.431 43.2471 276.212 43.2471 277.345L41.8995 277.345L41.8995 268.951L43.1006 268.951L43.7012 271.5L65.293 280.348L65.293 282.457L46.2501 290.997C45.0294 291.534 44.2237 292.018 43.8331 292.447C43.4424 292.867 43.2471 293.482 43.2471 294.293L41.8995 294.293L41.8995 283.497L43.1006 283.497L43.7012 286.646L57.2071 280.655L58.8477 280.201L58.8477 279.894ZM40.6983 262.345L61.1036 262.345C62.2071 262.345 62.9346 262.208 63.2862 261.935C63.628 261.651 63.7989 261.09 63.7989 260.25L65.0001 260.25L65.0001 268.951L63.7989 268.951L63.3448 266.842L45.9571 266.842C44.795 266.842 44.004 266.998 43.584 267.311C43.1641 267.623 42.9542 268.17 42.9542 268.951L41.753 268.951C41.7139 267.975 41.6065 266.935 41.4307 265.831C41.2452 264.728 41.084 263.863 40.9473 263.238L40.6983 262.345ZM54.8047 245.382L60.1954 245.382C61.3575 245.382 62.1485 245.226 62.5684 244.913C62.9883 244.601 63.1983 244.059 63.1983 243.287L64.3995 243.287C64.4385 244.166 64.5362 245.094 64.6924 246.07C64.8389 247.047 64.9805 247.799 65.1172 248.326L65.293 249.132L62.4512 249.425L62.4512 249.732C62.5294 249.791 62.6368 249.874 62.7735 249.981C62.9004 250.079 63.1251 250.294 63.4473 250.626C63.7598 250.948 64.043 251.295 64.2969 251.666C64.5411 252.037 64.7706 252.516 64.9854 253.102C65.1905 253.678 65.293 254.254 65.293 254.83C65.293 256.148 64.9708 257.179 64.3262 257.921C63.6719 258.663 62.8467 259.034 61.8506 259.034C60.9522 259.034 60.1319 258.722 59.3897 258.097C58.6475 257.462 58.0665 256.695 57.6465 255.797C57.2266 254.889 56.8751 253.99 56.5919 253.102C56.2989 252.213 56.1036 251.461 56.0059 250.846L55.8448 249.879L55.0977 249.879C52.5977 249.879 51.3477 250.777 51.3477 252.574C51.3477 252.838 51.3819 253.121 51.4503 253.424C51.5186 253.727 51.5967 253.966 51.6846 254.142L51.8018 254.376L55.0977 255.431L55.0977 257.833L50.8936 257.833C50.7764 257.638 50.6397 257.354 50.4835 256.983C50.3174 256.612 50.0977 255.875 49.8243 254.771C49.5411 253.668 49.3995 252.589 49.3995 251.534C49.3995 249.552 49.8829 248.033 50.8497 246.979C51.8067 245.914 53.1251 245.382 54.8047 245.382ZM62.1436 252.735C62.1436 252.257 62.0215 251.778 61.7774 251.3C61.5235 250.812 61.2794 250.46 61.045 250.245L60.6495 249.879L57.5001 249.879C57.5196 249.996 57.5489 250.157 57.5879 250.362C57.627 250.558 57.7393 250.919 57.9249 251.446C58.1006 251.964 58.296 252.423 58.5108 252.823C58.7159 253.224 59.0137 253.585 59.4044 253.907C59.795 254.22 60.21 254.376 60.6495 254.376C61.1085 254.376 61.4747 254.234 61.7481 253.951C62.0118 253.658 62.1436 253.253 62.1436 252.735ZM49.3995 233.517C49.3995 233.116 49.4385 232.716 49.5167 232.315C49.5948 231.915 49.6778 231.617 49.7657 231.422L49.8536 231.114L45.9571 231.114C44.795 231.114 44.004 231.271 43.584 231.583C43.1641 231.896 42.9542 232.442 42.9542 233.224L41.753 233.224C41.7139 232.247 41.6065 231.207 41.4307 230.104C41.2452 229 41.084 228.141 40.9473 227.525L40.6983 226.617L60.1954 226.617C61.3575 226.617 62.1485 226.466 62.5684 226.163C62.9883 225.851 63.1983 225.304 63.1983 224.522L64.3995 224.522C64.4385 225.401 64.5362 226.334 64.6924 227.32C64.8389 228.297 64.9805 229.044 65.1172 229.562L65.293 230.367L62.4512 230.675L62.4512 230.968C62.5294 231.026 62.6368 231.109 62.7735 231.217C62.9004 231.314 63.1251 231.529 63.4473 231.861C63.7598 232.184 64.043 232.53 64.2969 232.901C64.5411 233.272 64.7706 233.751 64.9854 234.337C65.1905 234.913 65.293 235.489 65.293 236.065C65.293 237.628 64.6338 238.971 63.3155 240.094C61.9971 241.207 60.2588 241.764 58.1006 241.764C55.503 241.764 53.4034 240.997 51.8018 239.464C50.2003 237.921 49.3995 235.938 49.3995 233.517ZM51.3477 233.663C51.3477 234.64 51.8311 235.46 52.7979 236.124C53.7549 236.788 55.2247 237.12 57.2071 237.12C58.8477 237.12 60.0587 236.837 60.8399 236.271C61.6114 235.694 61.9971 234.928 61.9971 233.971C61.9971 233.492 61.8897 233.014 61.6749 232.535C61.4503 232.047 61.2208 231.695 60.9864 231.48L60.6495 231.114L52.4024 231.114C51.6993 231.71 51.3477 232.56 51.3477 233.663ZM49.253 216.861L61.1036 216.861C62.2071 216.861 62.9346 216.725 63.2862 216.451C63.628 216.168 63.7989 215.606 63.7989 214.767L65.0001 214.767L65.0001 223.468L63.7989 223.468L63.3448 221.373L54.4971 221.373C53.335 221.373 52.544 221.529 52.1241 221.842C51.7042 222.145 51.4942 222.687 51.4942 223.468L50.293 223.468C50.254 222.403 50.1465 221.324 49.9708 220.23C49.795 219.127 49.6241 218.287 49.4581 217.711L49.253 216.861ZM42.6172 217.418C43.0958 216.949 43.7061 216.715 44.4483 216.715C45.1905 216.715 45.8008 216.949 46.2794 217.418C46.7579 217.887 46.9971 218.502 46.9971 219.264C46.9971 220.025 46.7579 220.641 46.2794 221.109C45.8008 221.578 45.1905 221.812 44.4483 221.812C43.7061 221.812 43.0958 221.578 42.6172 221.109C42.1387 220.641 41.8995 220.025 41.8995 219.264C41.8995 218.502 42.1387 217.887 42.6172 217.418ZM55.4053 188.209L61.1036 188.209C62.2071 188.209 62.9346 188.072 63.2862 187.799C63.628 187.516 63.7989 186.954 63.7989 186.114L65.0001 186.114L65.0001 194.508L63.7989 194.508L63.3448 192.706L55.6983 192.706C53.6963 192.706 52.6954 193.458 52.6954 194.962C52.6954 195.44 52.8077 195.914 53.0323 196.383C53.2471 196.852 53.4766 197.208 53.7208 197.452L54.043 197.818C54.3458 197.721 54.8975 197.667 55.6983 197.657L61.1036 197.657C62.2071 197.657 62.9346 197.525 63.2862 197.262C63.628 196.988 63.7989 196.471 63.7989 195.709L65.0001 195.709L65.0001 203.956L63.7989 203.956L63.3448 202.169L55.6983 202.169C53.6963 202.169 52.6954 202.916 52.6954 204.41C52.6954 204.85 52.7979 205.294 53.003 205.743C53.1983 206.192 53.3985 206.529 53.6036 206.754L53.8965 207.105L61.1036 207.105C62.2071 207.105 62.9346 206.974 63.2862 206.71C63.628 206.437 63.7989 205.919 63.7989 205.157L65.0001 205.157L65.0001 213.712L63.7989 213.712L63.3448 211.617L54.4971 211.617C53.335 211.617 52.544 211.773 52.1241 212.086C51.7042 212.389 51.4942 212.931 51.4942 213.712L50.293 213.712C50.254 212.833 50.1612 211.905 50.0147 210.929C49.8682 209.942 49.7217 209.19 49.5753 208.673L49.3995 207.867L52.0948 207.56L52.0948 207.267C52.0167 207.228 51.919 207.164 51.8018 207.076C51.6846 206.979 51.4698 206.778 51.1573 206.476C50.8448 206.163 50.5713 205.831 50.337 205.479C50.0928 205.128 49.878 204.669 49.6924 204.103C49.4971 203.526 49.3995 202.931 49.3995 202.315C49.3995 201.739 49.4971 201.202 49.6924 200.704C49.878 200.196 50.1026 199.806 50.3663 199.532C50.6202 199.249 50.879 199.005 51.1426 198.8C51.3965 198.585 51.6163 198.434 51.8018 198.346L52.0948 198.258L52.0948 197.965C52.0167 197.926 51.919 197.857 51.8018 197.76C51.6846 197.652 51.4698 197.442 51.1573 197.13C50.8448 196.808 50.5713 196.461 50.337 196.09C50.0928 195.719 49.878 195.245 49.6924 194.669C49.4971 194.083 49.3995 193.482 49.3995 192.867C49.3995 191.471 49.9122 190.348 50.9376 189.498C51.9532 188.639 53.4424 188.209 55.4053 188.209ZM49.253 178.453L61.1036 178.453C62.2071 178.453 62.9346 178.316 63.2862 178.043C63.628 177.76 63.7989 177.198 63.7989 176.358L65.0001 176.358L65.0001 185.06L63.7989 185.06L63.3448 182.965L54.4971 182.965C53.335 182.965 52.544 183.121 52.1241 183.434C51.7042 183.736 51.4942 184.278 51.4942 185.06L50.293 185.06C50.254 183.995 50.1465 182.916 49.9708 181.822C49.795 180.719 49.6241 179.879 49.4581 179.303L49.253 178.453ZM42.6172 179.01C43.0958 178.541 43.7061 178.307 44.4483 178.307C45.1905 178.307 45.8008 178.541 46.2794 179.01C46.7579 179.479 46.9971 180.094 46.9971 180.855C46.9971 181.617 46.7579 182.232 46.2794 182.701C45.8008 183.17 45.1905 183.404 44.4483 183.404C43.7061 183.404 43.0958 183.17 42.6172 182.701C42.1387 182.232 41.8995 181.617 41.8995 180.855C41.8995 180.094 42.1387 179.479 42.6172 179.01ZM54.2042 168.697L61.1036 168.697C62.1387 168.697 62.8467 168.512 63.2276 168.141C63.6085 167.76 63.7989 167.047 63.7989 166.002L65.0001 166.002L65.0001 175.304L63.7989 175.304L63.3448 173.209L54.4971 173.209C53.335 173.209 52.544 173.365 52.1241 173.678C51.7042 173.98 51.4942 174.522 51.4942 175.304L50.293 175.304C50.254 174.425 50.1612 173.497 50.0147 172.521C49.8682 171.534 49.7217 170.782 49.5753 170.265L49.3995 169.459L52.2559 169.151L52.2559 168.858C52.1778 168.8 52.0753 168.722 51.9483 168.624C51.8116 168.517 51.5821 168.287 51.2598 167.936C50.9376 167.584 50.6544 167.232 50.4102 166.881C50.1563 166.52 49.9268 166.07 49.7217 165.533C49.5069 164.986 49.3995 164.444 49.3995 163.907C49.3995 163.507 49.4385 163.116 49.5167 162.735C49.5948 162.354 49.6778 162.086 49.7657 161.93L49.8536 161.651L55.2442 161.651L55.2442 164.054L52.4024 165.108C52.4415 165.772 52.6124 166.402 52.9151 166.998C53.2081 167.594 53.4961 168.023 53.7794 168.287L54.2042 168.697ZM57.6465 134.054L46.4258 134.054C45.0879 134.054 44.2237 134.215 43.8331 134.537C43.4424 134.859 43.2471 135.548 43.2471 136.603L41.8995 136.603L41.8995 129.103L43.1006 129.103L43.7012 131.651L65.293 131.651L65.293 133.907L48.6524 146.505L46.9971 147.105L46.9971 147.413L60.503 147.413C61.8409 147.413 62.7002 147.252 63.0811 146.93C63.462 146.607 63.6524 145.919 63.6524 144.864L65.0001 144.864L65.0001 152.364L63.7989 152.364L63.1983 149.801L46.4258 149.801C45.0879 149.801 44.2237 149.962 43.8331 150.284C43.4424 150.606 43.2471 151.3 43.2471 152.364L41.8995 152.364L41.8995 145.611L56.0059 134.962L57.6465 134.361L57.6465 134.054ZM54.8047 113.956L60.1954 113.956C61.3575 113.956 62.1485 113.8 62.5684 113.487C62.9883 113.175 63.1983 112.633 63.1983 111.861L64.3995 111.861C64.4385 112.74 64.5362 113.668 64.6924 114.645C64.8389 115.621 64.9805 116.373 65.1172 116.9L65.293 117.706L62.4512 117.999L62.4512 118.307C62.5294 118.365 62.6368 118.448 62.7735 118.556C62.9004 118.653 63.1251 118.868 63.4473 119.2C63.7598 119.522 64.043 119.869 64.2969 120.24C64.5411 120.611 64.7706 121.09 64.9854 121.676C65.1905 122.252 65.293 122.828 65.293 123.404C65.293 124.723 64.9708 125.753 64.3262 126.495C63.6719 127.237 62.8467 127.608 61.8506 127.608C60.9522 127.608 60.1319 127.296 59.3897 126.671C58.6475 126.036 58.0665 125.27 57.6465 124.371C57.2266 123.463 56.8751 122.564 56.5919 121.676C56.2989 120.787 56.1036 120.035 56.0059 119.42L55.8448 118.453L55.0977 118.453C52.5977 118.453 51.3477 119.352 51.3477 121.148C51.3477 121.412 51.3819 121.695 51.4502 121.998C51.5186 122.301 51.5967 122.54 51.6846 122.716L51.8018 122.95L55.0977 124.005L55.0977 126.407L50.8936 126.407C50.7764 126.212 50.6397 125.929 50.4835 125.558C50.3174 125.187 50.0977 124.449 49.8243 123.346C49.5411 122.242 49.3995 121.163 49.3995 120.108C49.3995 118.126 49.8829 116.607 50.8497 115.553C51.8067 114.488 53.1251 113.956 54.8047 113.956ZM62.1436 121.31C62.1436 120.831 62.0215 120.353 61.7774 119.874C61.5235 119.386 61.2794 119.034 61.045 118.819L60.6495 118.453L57.5001 118.453C57.5196 118.57 57.5489 118.731 57.5879 118.937C57.627 119.132 57.7393 119.493 57.9249 120.021C58.1006 120.538 58.296 120.997 58.5108 121.397C58.7159 121.798 59.0137 122.159 59.4044 122.481C59.795 122.794 60.21 122.95 60.6495 122.95C61.1085 122.95 61.4747 122.809 61.7481 122.525C62.0118 122.232 62.1436 121.827 62.1436 121.31ZM65.293 102.398C65.293 103.6 65.1368 104.752 64.8243 105.855C64.502 106.949 64.1797 107.745 63.8575 108.243L63.3448 108.99L45.9571 108.99C44.795 108.99 44.004 109.146 43.584 109.459C43.1641 109.771 42.9542 110.318 42.9542 111.1L41.753 111.1C41.7139 110.123 41.6065 109.083 41.4307 107.979C41.2452 106.876 41.084 106.012 40.9473 105.387L40.6983 104.493L51.8018 104.493L51.8018 104.186C51.7432 104.146 51.6602 104.083 51.5528 103.995C51.4356 103.907 51.2403 103.717 50.9668 103.424C50.6836 103.121 50.4395 102.804 50.2344 102.472C50.0196 102.14 49.8292 101.71 49.6631 101.183C49.4874 100.646 49.3995 100.099 49.3995 99.542C49.3995 97.9795 50.0586 96.6416 51.377 95.5283C52.6954 94.4053 54.4385 93.8437 56.6065 93.8437C59.2237 93.8437 61.3282 94.6299 62.92 96.2021C64.502 97.7744 65.293 99.8398 65.293 102.398ZM63.3448 101.944C63.3448 100.968 62.8663 100.147 61.9092 99.4834C60.9522 98.8193 59.4825 98.4873 57.5001 98.4873C55.8594 98.4873 54.6485 98.7754 53.8672 99.3516C53.086 99.918 52.6954 100.68 52.6954 101.637C52.6954 102.115 52.8077 102.599 53.0323 103.087C53.2471 103.565 53.4766 103.912 53.7208 104.127L54.043 104.493L61.9971 104.493C62.0948 104.415 62.2217 104.308 62.378 104.171C62.5245 104.024 62.7247 103.727 62.9786 103.277C63.2227 102.828 63.3448 102.384 63.3448 101.944ZM57.046 86.9443C61.3428 86.9443 63.4961 85.7432 63.5059 83.3408C63.5059 82.4229 63.0225 81.6465 62.0557 81.0117C61.0792 80.3672 59.6094 80.0449 57.6465 80.0449C53.3497 80.0449 51.2012 81.2412 51.2012 83.6338C51.2012 84.5518 51.6846 85.333 52.6514 85.9775C53.6182 86.6221 55.0831 86.9443 57.046 86.9443ZM57.2071 75.2402C59.4825 75.2402 61.4014 76.0508 62.9639 77.6719C64.5167 79.293 65.293 81.334 65.293 83.7949C65.293 86.1191 64.5606 88.0234 63.0958 89.5078C61.6211 90.9922 59.7559 91.7344 57.5001 91.7344C55.2247 91.7344 53.3057 90.9287 51.7432 89.3174C50.1807 87.6963 49.3995 85.6553 49.3995 83.1943C49.3995 80.8701 50.1368 78.9658 51.6114 77.4814C53.086 75.9873 54.9512 75.2402 57.2071 75.2402ZM57.2071 66.6855L53.003 62.6426C52.5049 62.1445 52.1045 61.8906 51.8018 61.8809C51.2061 61.8809 50.9034 62.5303 50.8936 63.8291L49.7071 63.8291L49.7071 56.4902L50.8936 56.4902L51.3477 58.4385L55.8448 62.7891L63.3448 57.2373L63.7989 55.2891L65.0001 55.2891L65.0001 61.1338L57.5001 66.6855L57.2071 66.6855ZM40.6983 67.2861L61.1036 67.2861C62.2071 67.2861 62.9346 67.1494 63.2862 66.876C63.628 66.5928 63.7989 66.0312 63.7989 65.1914L65.0001 65.1914L65.0001 73.8926L63.7989 73.8926L63.3448 71.7832L45.9571 71.7832C44.795 71.7832 44.004 71.9395 43.584 72.252C43.1641 72.5645 42.9542 73.1113 42.9542 73.8926L41.753 73.8926C41.7139 72.916 41.6065 71.876 41.4307 70.7725C41.2452 69.6689 41.084 68.8047 40.9473 68.1797L40.6983 67.2861ZM57.0459 49.7373C61.3428 49.7373 63.4961 48.5361 63.5059 46.1338C63.5059 45.2158 63.0225 44.4395 62.0557 43.8047C61.0792 43.1602 59.6094 42.8379 57.6465 42.8379C53.3497 42.8379 51.2012 44.0342 51.2012 46.4268C51.2012 47.3447 51.6846 48.126 52.6514 48.7705C53.6182 49.415 55.0831 49.7373 57.0459 49.7373ZM57.2071 38.0332C59.4825 38.0332 61.4014 38.8437 62.9639 40.4648C64.5167 42.0859 65.293 44.127 65.293 46.5879C65.293 48.9121 64.5606 50.8164 63.0958 52.3008C61.6211 53.7852 59.7559 54.5273 57.5001 54.5273C55.2247 54.5273 53.3057 53.7217 51.7432 52.1104C50.1807 50.4893 49.3995 48.4482 49.3995 45.9873C49.3995 43.6631 50.1368 41.7588 51.6114 40.2744C53.086 38.7803 54.9512 38.0332 57.2071 38.0332ZM65.293 29.3467L53.6036 34.8984C52.5391 35.3965 51.8213 35.8604 51.4502 36.29C51.0792 36.7197 50.8936 37.3057 50.8936 38.0479L49.7071 38.0479L49.7071 28.5996L50.8936 28.5996L51.3477 30.9873L58.1006 27.8379L59.9024 27.3984L59.9024 27.0908L53.2959 24.0879C52.7979 23.8926 52.3487 23.7949 51.9483 23.7949C51.2452 23.7949 50.8936 24.4932 50.8936 25.8896L49.7071 25.8896L49.7071 18.8437L50.8936 18.8437L51.3477 20.9385L65.293 27.2373L65.293 29.3467Z" fill="#ED1C24"/>
</svg>
