<svg width="75" height="292" viewBox="0 0 75 292" fill="none" xmlns="http://www.w3.org/2000/svg">
<path d="M6.55469 281.947L6.06962 282.069L6.14989 282.39L6.47682 282.441L6.55469 281.947ZM23.6494 284.643L23.5715 285.137L23.5842 285.138L23.6494 284.643ZM26.5059 284.379L26.9059 284.679L26.9118 284.671L26.9175 284.663L26.5059 284.379ZM26.7988 282.841L26.8712 282.346L26.2988 282.262L26.2988 282.841L26.7988 282.841ZM28 283.017L28.5 283.017L28.5 282.584L28.0724 282.522L28 283.017ZM28 291.264L27.9178 291.757L28.5 291.854L28.5 291.264L28 291.264ZM26.9453 291.088L26.4602 291.209L26.5398 291.527L26.8631 291.581L26.9453 291.088ZM26.3447 288.686L26.8298 288.564L26.7495 288.243L26.4226 288.192L26.3447 288.686ZM9.25 285.99L9.3279 285.496L9.31523 285.495L9.25 285.99ZM6.42285 286.283L6.8212 286.585L6.82698 286.578L6.83247 286.57L6.42285 286.283ZM6.10059 287.792L6.02819 288.287L6.60059 288.37L6.60059 287.792L6.10059 287.792ZM4.89941 287.616L4.39941 287.616L4.39941 288.048L4.82701 288.111L4.89941 287.616ZM4.89942 279.354L4.98826 278.862L4.39942 278.756L4.39942 279.354L4.89942 279.354ZM5.9541 279.545L6.43917 279.424L6.36083 279.11L6.04294 279.053L5.9541 279.545ZM6.47682 282.441L23.5715 285.136L23.7273 284.149L6.63256 281.453L6.47682 282.441ZM23.5842 285.138C24.3288 285.236 24.8985 285.289 25.2754 285.289L25.2754 284.289C24.9687 284.289 24.4544 284.244 23.7146 284.147L23.5842 285.138ZM25.2754 285.289C25.9276 285.289 26.5521 285.151 26.9059 284.679L26.1059 284.079C26.0495 284.154 25.8536 284.289 25.2754 284.289L25.2754 285.289ZM26.9175 284.663C27.2071 284.243 27.2988 283.591 27.2988 282.841L26.2988 282.841C26.2988 283.575 26.1953 283.949 26.0943 284.095L26.9175 284.663ZM26.7264 283.336L27.9276 283.511L28.0724 282.522L26.8712 282.346L26.7264 283.336ZM27.5 283.017L27.5 291.264L28.5 291.264L28.5 283.017L27.5 283.017ZM28.0822 290.77L27.0275 290.595L26.8631 291.581L27.9178 291.757L28.0822 290.77ZM27.4304 290.967L26.8298 288.564L25.8597 288.807L26.4602 291.209L27.4304 290.967ZM26.4226 288.192L9.32787 285.496L9.17213 286.484L26.2669 289.179L26.4226 288.192ZM9.31523 285.495C8.57212 285.397 8.01135 285.344 7.65332 285.344L7.65332 286.344C7.93982 286.344 8.44351 286.388 9.18477 286.486L9.31523 285.495ZM7.65332 285.344C6.99112 285.344 6.36299 285.497 6.01324 285.996L6.83247 286.57C6.89287 286.484 7.08506 286.344 7.65332 286.344L7.65332 285.344ZM6.02451 285.981C5.70354 286.404 5.60059 287.054 5.60059 287.792L6.60059 287.792C6.60059 287.085 6.71248 286.729 6.8212 286.585L6.02451 285.981ZM6.17299 287.297L4.97181 287.121L4.82701 288.111L6.02819 288.287L6.17299 287.297ZM5.39941 287.616L5.39942 279.354L4.39942 279.354L4.39941 287.616L5.39941 287.616ZM4.81057 279.847L5.86526 280.037L6.04294 279.053L4.98826 278.862L4.81057 279.847ZM5.46903 279.666L6.06962 282.069L7.03976 281.826L6.43917 279.424L5.46903 279.666ZM16.457 274.052L16.393 274.548L16.957 274.62L16.957 274.052L16.457 274.052ZM16.457 273.905L16.957 273.905L16.957 273.622L16.7143 273.477L16.457 273.905ZM16.0322 273.642L15.7499 274.054L15.7575 274.059L15.7652 274.064L16.0322 273.642ZM13.9082 271.62L14.3005 271.31L14.296 271.304L13.9082 271.62ZM12.9707 270.053L12.5141 270.256L12.5153 270.259L12.9707 270.053ZM13.3955 265.863L13.7293 266.236L13.736 266.229L13.3955 265.863ZM18.0977 265.263L18.1748 264.769L18.1737 264.769L18.0977 265.263ZM24.8506 266.317L24.7734 266.811L24.8118 266.817L24.8506 266.817L24.8506 266.317ZM25.0996 265.102L24.8055 265.506L24.8116 265.51L25.0996 265.102ZM23.8252 264.369L23.6058 264.818L23.6188 264.825L23.6321 264.83L23.8252 264.369ZM23.1953 264.062L22.7681 263.802L22.4833 264.27L22.9759 264.511L23.1953 264.062ZM23.6494 263.314L23.8075 262.84L23.4293 262.714L23.2222 263.055L23.6494 263.314ZM24.1475 263.505L23.9581 263.968L23.9695 263.972L24.1475 263.505ZM25.2754 264.062L25.0393 264.502L25.0422 264.504L25.2754 264.062ZM27.7949 266.229L28.2158 265.959L28.2122 265.954L27.7949 266.229ZM25.9932 269.921L25.9932 270.421L25.9964 270.421L25.9932 269.921ZM24.8506 269.833L24.7734 270.327L24.7815 270.328L24.8506 269.833ZM18.0977 268.778L18.0176 269.272L18.0205 269.272L18.0977 268.778ZM17.8633 273.759L17.5501 274.149L17.5535 274.151L17.8633 273.759ZM18.6982 274.418L18.3884 274.81L18.4912 274.892L18.6205 274.912L18.6982 274.418ZM28 275.883L28.5 275.883L28.5 275.455L28.0778 275.389L28 275.883ZM28 279.398L27.9222 279.892L28.5 279.983L28.5 279.398L28 279.398ZM16.0029 277.509L15.8817 277.994L15.9032 277.999L15.9251 278.003L16.0029 277.509ZM17.0137 279.486L16.8106 279.943L16.8206 279.948L17.0137 279.486ZM17.6436 279.75L18.0766 280L18.3604 279.508L17.8366 279.289L17.6436 279.75ZM17.2041 280.512L17.046 280.986L17.4332 281.115L17.6372 280.762L17.2041 280.512ZM16.7061 280.336L16.5167 280.799L16.5259 280.802L16.5352 280.806L16.7061 280.336ZM15.5781 279.779L15.3387 280.218L15.3449 280.222L15.5781 279.779ZM13.0586 277.597L12.6414 277.872L13.0586 277.597ZM16.0029 273.993L15.9305 274.488L15.9389 274.489L16.0029 273.993ZM16.957 274.052L16.957 273.905L15.957 273.905L15.957 274.052L16.957 274.052ZM16.7143 273.477C16.6216 273.421 16.4839 273.336 16.2992 273.219L15.7652 274.064C15.9516 274.182 16.0971 274.272 16.1998 274.334L16.7143 273.477ZM16.3146 273.229C16.1591 273.123 15.8639 272.879 15.4128 272.477L14.7474 273.224C15.1947 273.622 15.5343 273.907 15.7499 274.054L16.3146 273.229ZM15.4128 272.477C14.9826 272.094 14.6124 271.705 14.3004 271.31L13.516 271.93C13.8681 272.375 14.2792 272.807 14.7474 273.224L15.4128 272.477ZM14.296 271.304C13.9874 270.925 13.6961 270.442 13.4261 269.846L12.5153 270.259C12.8117 270.913 13.1454 271.475 13.5204 271.936L14.296 271.304ZM13.4273 269.849C13.17 269.272 13.0459 268.707 13.0459 268.148L12.0459 268.148C12.0459 268.86 12.205 269.564 12.5141 270.256L13.4273 269.849ZM13.0459 268.148C13.0459 267.225 13.3009 266.62 13.7293 266.236L13.0617 265.491C12.3573 266.123 12.0459 267.041 12.0459 268.148L13.0459 268.148ZM13.736 266.229C14.1567 265.838 14.9016 265.587 16.0908 265.587L16.0908 264.587C14.7996 264.587 13.7476 264.853 13.055 265.497L13.736 266.229ZM16.0908 265.587C16.6347 265.587 17.2772 265.642 18.0216 265.757L18.1737 264.769C17.3946 264.649 16.6993 264.587 16.0908 264.587L16.0908 265.587ZM18.0205 265.757L24.7734 266.811L24.9277 265.823L18.1748 264.769L18.0205 265.757ZM24.8506 266.817C24.8429 266.817 24.8372 266.817 24.8339 266.817C24.8304 266.817 24.8282 266.817 24.8274 266.817C24.826 266.816 24.8274 266.817 24.8325 266.817C24.8428 266.818 24.86 266.821 24.8856 266.825L25.05 265.839C24.9987 265.83 24.9185 265.817 24.8506 265.817L24.8506 266.817ZM24.8856 266.825C24.9589 266.837 25.0374 266.847 25.1143 266.847L25.1143 265.847C25.1149 265.847 25.11 265.847 25.0981 265.846C25.0865 265.844 25.0707 265.842 25.05 265.839L24.8856 266.825ZM25.1143 266.847C25.3647 266.847 25.6404 266.807 25.8662 266.655C26.1271 266.479 26.2441 266.207 26.2441 265.922L25.2441 265.922C25.2441 265.931 25.2427 265.914 25.2565 265.886C25.2714 265.856 25.2927 265.836 25.3071 265.826C25.3182 265.818 25.3142 265.825 25.2802 265.832C25.2463 265.84 25.1927 265.847 25.1143 265.847L25.1143 266.847ZM26.2441 265.922C26.2441 265.649 26.1242 265.413 25.9762 265.225C25.8276 265.036 25.6241 264.859 25.3876 264.693L24.8116 265.51C25.0049 265.646 25.1236 265.758 25.1899 265.843C25.2567 265.928 25.2441 265.951 25.2441 265.922L26.2441 265.922ZM25.3937 264.697C24.9377 264.366 24.4793 264.101 24.0183 263.908L23.6321 264.83C24.0109 264.989 24.4021 265.213 24.8055 265.506L25.3937 264.697ZM24.0446 263.92L23.4147 263.612L22.9759 264.511L23.6058 264.818L24.0446 263.92ZM23.6226 264.321L24.0767 263.574L23.2222 263.055L22.7681 263.802L23.6226 264.321ZM23.4913 263.789C23.5925 263.823 23.7463 263.881 23.9581 263.968L24.3368 263.042C24.1189 262.953 23.9407 262.885 23.8075 262.84L23.4913 263.789ZM23.9695 263.972C24.1401 264.037 24.4889 264.207 25.0393 264.502L25.5115 263.621C24.9681 263.33 24.565 263.129 24.3255 263.038L23.9695 263.972ZM25.0422 264.504C25.5559 264.775 25.9968 265.06 26.3681 265.359L26.9951 264.58C26.5657 264.235 26.0692 263.915 25.5086 263.619L25.0422 264.504ZM26.3681 265.359C26.721 265.643 27.0587 266.022 27.3777 266.505L28.2122 265.954C27.8476 265.402 27.4431 264.941 26.9951 264.58L26.3681 265.359ZM27.3741 266.499C27.66 266.945 27.793 267.39 27.793 267.841L28.793 267.841C28.793 267.179 28.5939 266.549 28.2158 265.96L27.3741 266.499ZM27.793 267.841C27.793 268.437 27.6294 268.8 27.3826 269.023C27.1258 269.255 26.6917 269.416 25.99 269.421L25.9964 270.421C26.8278 270.416 27.5436 270.225 28.0534 269.764C28.5732 269.294 28.793 268.621 28.793 267.841L27.793 267.841ZM25.9932 269.421C25.6792 269.421 25.3219 269.394 24.9197 269.338L24.7815 270.328C25.2191 270.389 25.6235 270.421 25.9932 270.421L25.9932 269.421ZM24.9277 269.339L18.1748 268.284L18.0205 269.272L24.7734 270.327L24.9277 269.339ZM18.1777 268.285C17.7961 268.223 17.4416 268.19 17.1162 268.19L17.1162 269.19C17.3767 269.19 17.6765 269.217 18.0176 269.272L18.1777 268.285ZM17.1162 268.19C16.4984 268.19 15.9444 268.301 15.5347 268.602C15.0962 268.925 14.9023 269.404 14.9023 269.95L15.9023 269.95C15.9023 269.656 15.9941 269.506 16.1269 269.408C16.2885 269.289 16.5915 269.19 17.1162 269.19L17.1162 268.19ZM14.9023 269.95C14.9023 270.696 15.2418 271.473 15.8183 272.266L16.627 271.678C16.1098 270.966 15.9023 270.396 15.9023 269.95L14.9023 269.95ZM15.8183 272.266C16.3833 273.043 16.9596 273.674 17.5501 274.149L18.1765 273.369C17.6732 272.965 17.1558 272.405 16.627 271.678L15.8183 272.266ZM17.5535 274.151L18.3884 274.81L19.0081 274.026L18.1731 273.366L17.5535 274.151ZM18.6205 274.912L27.9222 276.377L28.0778 275.389L18.776 273.924L18.6205 274.912ZM27.5 275.883L27.5 279.398L28.5 279.398L28.5 275.883L27.5 275.883ZM28.0778 278.905L16.0807 277.015L15.9251 278.003L27.9222 279.892L28.0778 278.905ZM16.1242 277.024C15.9905 276.99 15.8426 276.979 15.6953 276.979L15.6953 277.979C15.8019 277.979 15.8591 277.988 15.8817 277.994L16.1242 277.024ZM15.6953 276.979C15.4538 276.979 15.1843 277.018 14.9629 277.169C14.7072 277.344 14.5947 277.612 14.5947 277.89L15.5947 277.89C15.5947 277.882 15.5959 277.9 15.5816 277.93C15.5662 277.961 15.5438 277.983 15.5269 277.995C15.5132 278.004 15.5138 277.999 15.5435 277.993C15.5732 277.986 15.6221 277.979 15.6953 277.979L15.6953 276.979ZM14.5947 277.89C14.5947 278.158 14.7098 278.393 14.853 278.583C14.9971 278.774 15.1951 278.954 15.4261 279.126L16.0231 278.323C15.8342 278.183 15.7172 278.068 15.6514 277.98C15.5847 277.892 15.5947 277.865 15.5947 277.89L14.5947 277.89ZM15.4261 279.126C15.8731 279.458 16.3345 279.732 16.8106 279.943L17.2167 279.029C16.8139 278.85 16.416 278.616 16.0231 278.323L15.4261 279.126ZM16.8206 279.948L17.4505 280.211L17.8366 279.289L17.2067 279.025L16.8206 279.948ZM17.2105 279.5L16.771 280.262L17.6372 280.762L18.0766 280L17.2105 279.5ZM17.3622 280.037C17.2515 280 17.0904 279.944 16.8769 279.866L16.5352 280.806C16.7514 280.884 16.9224 280.945 17.046 280.986L17.3622 280.037ZM16.8954 279.873C16.7059 279.796 16.3498 279.621 15.8113 279.337L15.3449 280.222C15.8807 280.504 16.2766 280.7 16.5167 280.799L16.8954 279.873ZM15.8176 279.34C15.3018 279.059 14.8587 278.767 14.4854 278.467L13.8584 279.246C14.2858 279.59 14.7802 279.914 15.3387 280.218L15.8176 279.34ZM14.4854 278.467C14.1326 278.183 13.7948 277.804 13.4758 277.321L12.6414 277.872C13.006 278.424 13.4104 278.885 13.8584 279.246L14.4854 278.467ZM13.4758 277.321C13.1827 276.877 13.0459 276.43 13.0459 275.971L12.0459 275.971C12.0459 276.644 12.2509 277.281 12.6414 277.872L13.4758 277.321ZM13.0459 275.971C13.0459 275.379 13.2127 275.02 13.4674 274.799C13.7354 274.566 14.1893 274.405 14.9189 274.405L14.9189 273.405C14.0666 273.405 13.3339 273.589 12.8109 274.044C12.2746 274.511 12.0459 275.186 12.0459 275.971L13.0459 275.971ZM14.9189 274.405C15.2118 274.405 15.5484 274.432 15.9305 274.488L16.0753 273.498C15.6567 273.437 15.2706 273.405 14.9189 273.405L14.9189 274.405ZM15.9389 274.489L16.393 274.548L16.521 273.556L16.0669 273.497L15.9389 274.489ZM21.2471 237.46L20.7471 237.46L20.7471 237.801L21.0652 237.926L21.2471 237.46ZM21.2471 236.273L21.3803 235.792L20.7471 235.616L20.7471 236.273L21.2471 236.273ZM26.6524 237.768L27.0886 237.523L26.9867 237.341L26.7856 237.286L26.6524 237.768ZM27.165 238.764L27.6185 238.553L27.6143 238.544L27.165 238.764ZM25.832 251.244L26.1631 251.619L26.1641 251.618L25.832 251.244ZM8.59083 249.735L8.93115 249.369L8.9305 249.368L8.59083 249.735ZM4.82618 237.416L5.31069 237.54L5.31097 237.538L4.82618 237.416ZM5.5586 235.189L5.12505 234.94L5.11683 234.955L5.10957 234.97L5.5586 235.189ZM5.95411 234.501L6.03209 234.007L5.69204 233.953L5.52056 234.252L5.95411 234.501ZM11.7988 235.424L12.2988 235.424L12.2988 234.997L11.8768 234.93L11.7988 235.424ZM11.7988 236.654L11.7988 237.154L12.2988 237.154L12.2988 236.654L11.7988 236.654ZM9.49903 247.099L9.79081 246.693L9.78998 246.692L9.49903 247.099ZM24.8799 248.124L25.1754 248.527L25.1774 248.526L24.8799 248.124ZM27.2988 244.271C27.2988 242.616 26.8008 241.161 25.7985 239.931C24.8027 238.709 23.3324 237.738 21.429 236.994L21.0652 237.926C22.8629 238.628 24.1685 239.514 25.0233 240.563C25.8716 241.603 26.2988 242.832 26.2988 244.271L27.2988 244.271ZM21.7471 237.46L21.7471 236.273L20.7471 236.273L20.7471 237.46L21.7471 237.46ZM21.1139 236.755L26.5191 238.25L26.7856 237.286L21.3803 235.792L21.1139 236.755ZM26.2161 238.012C26.3462 238.244 26.5125 238.567 26.7158 238.983L27.6143 238.544C27.4075 238.121 27.2319 237.779 27.0886 237.523L26.2161 238.012ZM26.7117 238.975C26.8854 239.348 27.1392 240.146 27.4726 241.411L28.4396 241.156C28.1089 239.901 27.8353 239.019 27.6184 238.553L26.7117 238.975ZM27.4726 241.411C27.7947 242.633 27.9541 243.815 27.9541 244.96L28.9541 244.96C28.9541 243.722 28.7815 242.453 28.4396 241.156L27.4726 241.411ZM27.9541 244.96C27.9541 247.474 27.1269 249.425 25.5 250.87L26.1641 251.618C28.0332 249.958 28.9541 247.719 28.9541 244.96L27.9541 244.96ZM25.501 250.869C23.8554 252.323 21.6444 253.073 18.8154 253.073L18.8154 254.073C21.8263 254.073 24.293 253.271 26.1631 251.619L25.501 250.869ZM18.8154 253.073C14.8681 253.073 11.5847 251.834 8.93115 249.369L8.2505 250.102C11.1047 252.753 14.6378 254.073 18.8154 254.073L18.8154 253.073ZM8.9305 249.368C6.26448 246.9 4.94532 243.941 4.94532 240.463L3.94532 240.463C3.94532 244.231 5.38982 247.453 8.25115 250.102L8.9305 249.368ZM4.94532 240.463C4.94532 239.469 5.06714 238.495 5.31069 237.54L4.34167 237.293C4.0774 238.329 3.94532 239.386 3.94532 240.463L4.94532 240.463ZM5.31097 237.538C5.56277 236.541 5.79684 235.84 6.00763 235.409L5.10957 234.97C4.85162 235.496 4.5974 236.279 4.34139 237.294L5.31097 237.538ZM5.99215 235.439L6.38766 234.75L5.52056 234.252L5.12505 234.94L5.99215 235.439ZM5.87613 234.995L11.7209 235.918L11.8768 234.93L6.03209 234.007L5.87613 234.995ZM11.2988 235.424L11.2988 236.654L12.2988 236.654L12.2988 235.424L11.2988 235.424ZM11.7988 236.154C9.81186 236.154 8.24379 236.516 7.18754 237.327L7.79685 238.12C8.59607 237.506 9.89909 237.154 11.7988 237.154L11.7988 236.154ZM7.18754 237.327C6.10518 238.159 5.60059 239.419 5.60059 241.005L6.60059 241.005C6.60059 239.641 7.02374 238.714 7.79685 238.12L7.18754 237.327ZM5.60059 241.005C5.60059 243.632 6.83257 245.806 9.20808 247.505L9.78998 246.692C7.63424 245.15 6.60059 243.26 6.60059 241.005L5.60059 241.005ZM9.20725 247.505C11.5806 249.21 14.8971 250.03 19.0938 250.03L19.0938 249.03C15.0091 249.03 11.9292 248.229 9.79081 246.693L9.20725 247.505ZM19.0938 250.03C21.7172 250.03 23.7717 249.556 25.1754 248.527L24.5843 247.721C23.4295 248.567 21.6266 249.03 19.0938 249.03L19.0938 250.03ZM25.1774 248.526C26.5868 247.482 27.2988 246.048 27.2988 244.271L26.2988 244.271C26.2988 245.738 25.7316 246.871 24.5823 247.722L25.1774 248.526ZM15.2559 224.276L15.5236 224.699L15.526 224.697L15.2559 224.276ZM16.208 229.403L15.9287 229.818L15.9294 229.818L16.208 229.403ZM25.5977 230.063L25.8691 230.482L25.8727 230.48L25.5977 230.063ZM24.6602 224.936L24.9369 224.519L24.9355 224.518L24.6602 224.936ZM26.5352 232.904L26.8646 233.28L26.8679 233.277L26.5352 232.904ZM15.2705 231.879L15.6151 231.517L15.6142 231.516L15.2705 231.879ZM14.3184 221.435L14.6496 221.809L14.6513 221.808L14.3184 221.435ZM18.7568 223.015C17.1735 223.015 15.8939 223.273 14.9858 223.856L15.526 224.697C16.1999 224.264 17.2543 224.015 18.7568 224.015L18.7568 223.015ZM14.9881 223.854C14.0692 224.437 13.5547 225.248 13.5547 226.269L14.5547 226.269C14.5547 225.649 14.841 225.132 15.5236 224.699L14.9881 223.854ZM13.5547 226.269C13.5547 227.634 14.4332 228.811 15.9287 229.818L16.4873 228.989C15.1117 228.062 14.5547 227.149 14.5547 226.269L13.5547 226.269ZM15.9294 229.818C17.4664 230.85 19.5243 231.339 22.0527 231.339L22.0527 230.339C19.6397 230.339 17.8012 229.871 16.4867 228.988L15.9294 229.818ZM22.0527 231.339C23.656 231.339 24.9509 231.076 25.8691 230.482L25.3263 229.643C24.6429 230.084 23.5744 230.339 22.0527 230.339L22.0527 231.339ZM25.8727 230.48C26.7864 229.878 27.2988 229.06 27.2988 228.041L26.2988 228.041C26.2988 228.663 26.0105 229.192 25.3227 229.645L25.8727 230.48ZM27.2988 228.041C27.2988 226.675 26.4252 225.508 24.9369 224.519L24.3835 225.352C25.7467 226.258 26.2988 227.16 26.2988 228.041L27.2988 228.041ZM24.9355 224.518C23.3891 223.498 21.3126 223.015 18.7568 223.015L18.7568 224.015C21.2011 224.015 23.0602 224.479 24.3848 225.353L24.9355 224.518ZM19.0059 220.353C21.4803 220.353 23.5515 221.171 25.251 222.806L25.9443 222.085C24.05 220.263 21.7268 219.353 19.0059 219.353L19.0059 220.353ZM25.251 222.806C26.9523 224.442 27.793 226.398 27.793 228.7L28.793 228.7C28.793 226.12 27.8368 223.905 25.9443 222.085L25.251 222.806ZM27.793 228.7C27.793 230.334 27.2545 231.593 26.2024 232.531L26.8679 233.277C28.1596 232.126 28.793 230.582 28.793 228.7L27.793 228.7ZM26.2057 232.528C25.1354 233.466 23.6997 233.957 21.8477 233.957L21.8477 234.957C23.8824 234.957 25.5716 234.413 26.8646 233.28L26.2057 232.528ZM21.8477 233.957C19.393 233.957 17.3254 233.144 15.6151 231.517L14.9259 232.241C16.8289 234.052 19.1461 234.957 21.8477 234.957L21.8477 233.957ZM15.6142 231.516C13.8939 229.888 13.0459 227.947 13.0459 225.668L12.0459 225.668C12.0459 228.232 13.0143 230.432 14.9269 232.242L15.6142 231.516ZM13.0459 225.668C13.0459 224.014 13.5895 222.747 14.6496 221.809L13.9871 221.06C12.6839 222.212 12.0459 223.768 12.0459 225.668L13.0459 225.668ZM14.6513 221.808C15.7217 220.852 17.1562 220.353 19.0059 220.353L19.0059 219.353C16.9688 219.353 15.2783 219.908 13.9854 221.062L14.6513 221.808ZM24.8506 217.436L24.7729 217.93L24.7815 217.931L24.8506 217.436ZM8.64942 214.887L8.55794 215.378L8.57172 215.381L8.64942 214.887ZM7.38966 214.755L7.40129 214.255L7.38966 214.255L7.38966 214.755ZM5.79298 216.322L5.70965 216.815L6.29298 216.914L6.29298 216.322L5.79298 216.322ZM4.75294 216.146L4.25499 216.192L4.28986 216.575L4.66961 216.639L4.75294 216.146ZM4.37208 213.48L4.86318 213.386L4.86237 213.382L4.37208 213.48ZM3.87403 211.342L3.38733 211.456L3.39047 211.47L3.39435 211.483L3.87403 211.342ZM3.69825 210.595L3.7759 210.101L3.0412 209.985L3.21154 210.709L3.69825 210.595ZM24.8506 213.92L24.7729 214.414L24.8115 214.42L24.8506 214.42L24.8506 213.92ZM23.8252 211.942L23.6057 212.392L23.6143 212.396L23.8252 211.942ZM23.1953 211.635L22.7681 211.375L22.4833 211.843L22.9759 212.084L23.1953 211.635ZM23.6494 210.888L23.8075 210.413L23.4293 210.287L23.2222 210.628L23.6494 210.888ZM24.1475 211.078L23.9581 211.541L23.9695 211.545L24.1475 211.078ZM25.2754 211.635L25.0393 212.076L25.0422 212.077L25.2754 211.635ZM27.7949 213.803L28.2158 213.533L28.2122 213.527L27.7949 213.803ZM24.9283 216.942L8.72713 214.393L8.57172 215.381L24.7729 217.929L24.9283 216.942ZM8.74088 214.395C8.29506 214.312 7.84844 214.265 7.40128 214.255L7.37803 215.255C7.77072 215.264 8.16395 215.305 8.55797 215.378L8.74088 214.395ZM7.38966 214.255C6.74967 214.255 6.15567 214.387 5.77714 214.797L6.51194 215.475C6.60217 215.377 6.83825 215.255 7.38966 215.255L7.38966 214.255ZM5.77714 214.797C5.4209 215.183 5.29298 215.727 5.29298 216.322L6.29298 216.322C6.29298 215.844 6.39943 215.597 6.51194 215.475L5.77714 214.797ZM5.8763 215.829L4.83627 215.653L4.66961 216.639L5.70965 216.815L5.8763 215.829ZM5.25089 216.101C5.17116 215.224 5.04178 214.319 4.86316 213.386L3.881 213.575C4.05395 214.478 4.17847 215.35 4.25499 216.192L5.25089 216.101ZM4.86237 213.382C4.67586 212.45 4.50645 211.72 4.35372 211.201L3.39435 211.483C3.53459 211.96 3.6972 212.656 3.88179 213.579L4.86237 213.382ZM4.36074 211.227L4.18496 210.48L3.21154 210.709L3.38733 211.456L4.36074 211.227ZM3.62061 211.089L24.7729 214.414L24.9282 213.426L3.7759 210.101L3.62061 211.089ZM24.8506 214.42C24.843 214.42 24.8372 214.42 24.8339 214.42C24.8304 214.419 24.8282 214.419 24.8274 214.419C24.826 214.419 24.8275 214.419 24.8325 214.42C24.8428 214.421 24.86 214.424 24.8856 214.428L25.05 213.441C24.9987 213.433 24.9186 213.42 24.8506 213.42L24.8506 214.42ZM24.8856 214.428C24.9589 214.44 25.0374 214.449 25.1143 214.449L25.1143 213.449C25.1149 213.449 25.11 213.449 25.0981 213.448C25.0865 213.447 25.0707 213.445 25.05 213.441L24.8856 214.428ZM25.1143 214.449C25.3625 214.449 25.6353 214.412 25.8595 214.266C26.1209 214.095 26.2442 213.827 26.2442 213.539L25.2442 213.539C25.2442 213.543 25.2437 213.522 25.2597 213.491C25.2767 213.458 25.2998 213.437 25.3138 213.428C25.3245 213.421 25.3193 213.427 25.2838 213.435C25.2485 213.443 25.1937 213.449 25.1143 213.449L25.1143 214.449ZM26.2442 213.539C26.2442 213.267 26.125 213.031 25.9788 212.842C25.8316 212.651 25.6295 212.471 25.3937 212.3L24.8055 213.108C24.9994 213.249 25.1196 213.365 25.1872 213.453C25.2559 213.542 25.2442 213.567 25.2442 213.539L26.2442 213.539ZM25.3937 212.3C24.9417 211.971 24.4892 211.7 24.0361 211.489L23.6143 212.396C24.0011 212.576 24.3982 212.812 24.8055 213.108L25.3937 212.3ZM24.0446 211.493L23.4147 211.185L22.9759 212.084L23.6058 212.392L24.0446 211.493ZM23.6226 211.894L24.0767 211.147L23.2222 210.628L22.7681 211.375L23.6226 211.894ZM23.4913 211.362C23.5925 211.396 23.7463 211.454 23.9582 211.541L24.3368 210.615C24.1189 210.526 23.9407 210.458 23.8075 210.413L23.4913 211.362ZM23.9695 211.545C24.1401 211.61 24.4889 211.781 25.0393 212.076L25.5115 211.194C24.9681 210.903 24.565 210.702 24.3255 210.611L23.9695 211.545ZM25.0422 212.077C25.5559 212.348 25.9968 212.634 26.3681 212.932L26.9952 212.153C26.5657 211.808 26.0692 211.488 25.5086 211.192L25.0422 212.077ZM26.3681 212.932C26.721 213.216 27.0587 213.595 27.3777 214.078L28.2122 213.527C27.8476 212.975 27.4431 212.514 26.9952 212.153L26.3681 212.932ZM27.3741 214.073C27.659 214.517 27.793 214.966 27.793 215.429L28.793 215.429C28.793 214.758 28.5949 214.124 28.2158 213.533L27.3741 214.073ZM27.793 215.429C27.793 216.035 27.6268 216.403 27.3764 216.628C27.1158 216.862 26.6755 217.023 25.9639 217.023L25.9639 218.023C26.805 218.023 27.5292 217.835 28.0451 217.372C28.571 216.899 28.793 216.219 28.793 215.429L27.793 215.429ZM25.9639 217.023C25.6706 217.023 25.3234 216.997 24.9197 216.94L24.7815 217.931C25.2176 217.992 25.6126 218.023 25.9639 218.023L25.9639 217.023ZM16.501 204.472L16.7926 204.066L16.7914 204.065L16.501 204.472ZM23.1953 200.854L23.5225 200.475L23.5176 200.471L23.1953 200.854ZM22.4483 200.224L22.7706 199.841L22.6637 199.751L22.5257 199.73L22.4483 200.224ZM15.2559 199.096L15.3333 198.602L15.1753 198.577L15.0323 198.648L15.2559 199.096ZM14.9629 199.271L15.225 199.697L15.2327 199.693L15.2403 199.688L14.9629 199.271ZM14.4942 199.872L14.9182 200.137L14.9229 200.129L14.9275 200.122L14.4942 199.872ZM13.1465 198.759L13.5705 199.024L13.9704 198.384L13.2253 198.265L13.1465 198.759ZM8.64943 198.041L8.55794 198.533L8.57062 198.535L8.64943 198.041ZM6.14454 198.305L6.50531 198.651L6.51195 198.644L6.14454 198.305ZM5.79298 199.477L5.72325 199.972L6.29298 200.052L6.29298 199.477L5.79298 199.477ZM4.75294 199.33L4.255 199.375L4.29087 199.77L4.68321 199.825L4.75294 199.33ZM4.37208 196.649L4.86336 196.556L4.86257 196.552L4.37208 196.649ZM3.87404 194.496L3.38733 194.611L3.39048 194.624L3.39435 194.637L3.87404 194.496ZM3.69826 193.749L3.77657 193.255L3.04096 193.139L3.21155 193.864L3.69826 193.749ZM24.8506 197.104L24.7723 197.597L24.8112 197.604L24.8506 197.604L24.8506 197.104ZM25.0996 195.888L24.7996 196.288L24.8055 196.292L25.0996 195.888ZM23.8252 195.097L24.0447 194.647L24.0361 194.643L23.8252 195.097ZM23.1953 194.804L22.7728 194.536L22.4686 195.017L22.9845 195.257L23.1953 194.804ZM23.6494 194.086L23.8075 193.612L23.4362 193.488L23.2269 193.819L23.6494 194.086ZM24.1475 194.262L24.3255 193.794L24.3183 193.792L24.1475 194.262ZM25.2754 194.804L25.0455 195.248L25.0486 195.249L25.2754 194.804ZM27.7949 196.957L28.2158 196.687L28.2122 196.682L27.7949 196.957ZM24.8506 200.619L24.9511 200.129L24.9442 200.128L24.8506 200.619ZM24.543 200.561L24.6365 200.069L24.043 199.956L24.043 200.561L24.543 200.561ZM24.543 200.678L24.043 200.678L24.043 200.961L24.2857 201.106L24.543 200.678ZM24.9531 200.941L24.6758 201.357L24.684 201.363L24.6924 201.368L24.9531 200.941ZM27.0039 202.816L27.3896 202.498L27.3888 202.497L27.0039 202.816ZM27.8975 204.325L28.3559 204.126L28.3544 204.122L27.8975 204.325ZM27.0332 208.881L27.3405 209.275L27.3433 209.273L27.0332 208.881ZM15.6953 207.152L15.3682 207.53L15.3683 207.531L15.6953 207.152ZM12.707 199.799L13.1893 199.931L13.1921 199.92L12.707 199.799ZM13 198.993L13.416 199.271L13.4201 199.264L13.424 199.258L13 198.993ZM13.7012 200.941C13.7012 202.431 14.6141 203.74 16.2106 204.879L16.7914 204.065C15.3215 203.016 14.7012 201.971 14.7012 200.941L13.7012 200.941ZM16.2094 204.878C17.8421 206.05 19.9659 206.612 22.5361 206.612L22.5361 205.612C20.1063 205.612 18.2068 205.081 16.7926 204.066L16.2094 204.878ZM22.5361 206.612C23.5379 206.612 24.369 206.475 24.966 206.142C25.272 205.972 25.5244 205.745 25.6982 205.454C25.8724 205.163 25.9512 204.834 25.9512 204.486L24.9512 204.486C24.9512 204.68 24.9085 204.826 24.8398 204.941C24.7706 205.057 24.6587 205.169 24.4789 205.269C24.1041 205.478 23.4777 205.612 22.5361 205.612L22.5361 206.612ZM25.9512 204.486C25.9512 203.784 25.6401 203.049 25.114 202.296L24.2942 202.868C24.7642 203.541 24.9512 204.075 24.9512 204.486L25.9512 204.486ZM25.114 202.296C24.5988 201.558 24.0692 200.949 23.5225 200.475L22.8681 201.232C23.3371 201.637 23.8133 202.18 24.2942 202.868L25.114 202.296ZM23.5176 200.471L22.7706 199.841L22.126 200.606L22.873 201.236L23.5176 200.471ZM22.5257 199.73L15.3333 198.602L15.1784 199.59L22.3708 200.718L22.5257 199.73ZM15.0323 198.648C14.9279 198.701 14.8109 198.772 14.6856 198.855L15.2403 199.688C15.3493 199.615 15.4276 199.569 15.4795 199.543L15.0323 198.648ZM14.7009 198.846C14.5632 198.93 14.4491 199.054 14.3563 199.173C14.2589 199.297 14.1605 199.45 14.0608 199.623L14.9275 200.122C15.0134 199.972 15.0859 199.863 15.1447 199.788C15.2082 199.706 15.2357 199.691 15.225 199.697L14.7009 198.846ZM14.0702 199.607C13.8209 200.006 13.7012 200.456 13.7012 200.941L14.7012 200.941C14.7012 200.626 14.7768 200.363 14.9182 200.137L14.0702 199.607ZM13.2253 198.265L8.72823 197.547L8.57062 198.535L13.0677 199.253L13.2253 198.265ZM8.74088 197.549C8.29132 197.466 7.84079 197.424 7.38966 197.424L7.38966 198.424C7.77838 198.424 8.16769 198.46 8.55797 198.533L8.74088 197.549ZM7.38966 197.424C6.74967 197.424 6.15567 197.555 5.77714 197.966L6.51195 198.644C6.60217 198.546 6.83825 198.424 7.38966 198.424L7.38966 197.424ZM5.78385 197.958C5.41997 198.337 5.29298 198.883 5.29298 199.477L6.29298 199.477C6.29298 198.996 6.40037 198.76 6.50524 198.651L5.78385 197.958ZM5.86272 198.981L4.82268 198.835L4.68321 199.825L5.72325 199.972L5.86272 198.981ZM5.25089 199.285C5.17118 198.408 5.04185 197.498 4.86334 196.556L3.88082 196.742C4.05388 197.656 4.17846 198.533 4.255 199.375L5.25089 199.285ZM4.86257 196.552C4.67609 195.61 4.50662 194.875 4.35372 194.355L3.39435 194.637C3.53442 195.113 3.69699 195.814 3.8816 196.746L4.86257 196.552ZM4.36075 194.382L4.18496 193.635L3.21155 193.864L3.38733 194.611L4.36075 194.382ZM3.61994 194.243L24.7723 197.597L24.9289 196.61L3.77657 193.255L3.61994 194.243ZM24.8506 197.604C24.843 197.604 24.8372 197.603 24.8339 197.603C24.8304 197.603 24.8282 197.603 24.8274 197.603C24.826 197.603 24.8275 197.603 24.8325 197.603C24.8429 197.605 24.86 197.607 24.8856 197.611L25.05 196.625C24.9987 196.616 24.9186 196.604 24.8506 196.604L24.8506 197.604ZM24.8856 197.611C24.9589 197.624 25.0374 197.633 25.1143 197.633L25.1143 196.633C25.1149 196.633 25.11 196.633 25.0981 196.632C25.0865 196.63 25.0707 196.628 25.05 196.625L24.8856 197.611ZM25.1143 197.633C25.3625 197.633 25.6353 197.595 25.8595 197.449C26.1209 197.279 26.2442 197.01 26.2442 196.723L25.2442 196.723C25.2442 196.727 25.2437 196.706 25.2597 196.674C25.2767 196.641 25.2998 196.62 25.3138 196.611C25.3245 196.604 25.3194 196.611 25.2838 196.619C25.2485 196.626 25.1937 196.633 25.1143 196.633L25.1143 197.633ZM26.2442 196.723C26.2442 196.451 26.125 196.215 25.9788 196.025C25.8316 195.835 25.6295 195.655 25.3937 195.483L24.8055 196.292C24.9994 196.433 25.1196 196.549 25.1872 196.636C25.2559 196.725 25.2442 196.751 25.2442 196.723L26.2442 196.723ZM25.3996 195.488C24.9483 195.149 24.4967 194.868 24.0446 194.647L23.6058 195.546C23.9935 195.735 24.3915 195.982 24.7996 196.288L25.3996 195.488ZM24.0361 194.643L23.4062 194.35L22.9845 195.257L23.6143 195.55L24.0361 194.643ZM23.6179 195.071L24.072 194.353L23.2269 193.819L22.7728 194.536L23.6179 195.071ZM23.4913 194.56C23.6021 194.597 23.7631 194.654 23.9766 194.732L24.3183 193.792C24.1022 193.713 23.9312 193.653 23.8075 193.612L23.4913 194.56ZM23.9695 194.729C24.144 194.795 24.4956 194.963 25.0455 195.248L25.5053 194.36C24.9614 194.078 24.5612 193.884 24.3255 193.794L23.9695 194.729ZM25.0486 195.249C25.56 195.51 25.9988 195.789 26.3681 196.087L26.9952 195.308C26.5638 194.961 26.065 194.645 25.5022 194.358L25.0486 195.249ZM26.3681 196.087C26.721 196.371 27.0587 196.749 27.3777 197.233L28.2122 196.682C27.8476 196.129 27.4431 195.668 26.9952 195.308L26.3681 196.087ZM27.3741 197.227C27.659 197.671 27.793 198.121 27.793 198.583L28.793 198.583C28.793 197.913 28.5949 197.278 28.2158 196.687L27.3741 197.227ZM27.793 198.583C27.793 199.215 27.6258 199.599 27.3763 199.833C27.1206 200.072 26.6906 200.236 25.9932 200.236L25.9932 201.236C26.829 201.236 27.5489 201.041 28.0598 200.563C28.5769 200.079 28.793 199.387 28.793 198.583L27.793 198.583ZM25.9932 200.236C25.6468 200.236 25.2996 200.201 24.9511 200.129L24.7501 201.109C25.1634 201.194 25.5779 201.236 25.9932 201.236L25.9932 200.236ZM24.9442 200.128L24.6365 200.069L24.4494 201.052L24.757 201.11L24.9442 200.128ZM24.043 200.561L24.043 200.678L25.043 200.678L25.043 200.561L24.043 200.561ZM24.2857 201.106C24.3731 201.159 24.5021 201.242 24.6758 201.357L25.2305 200.525C25.0527 200.407 24.9082 200.314 24.8002 200.249L24.2857 201.106ZM24.6924 201.368C24.8281 201.451 25.1016 201.664 25.5345 202.038L26.1882 201.281C25.7617 200.913 25.4297 200.647 25.2139 200.515L24.6924 201.368ZM25.5345 202.038C25.9451 202.392 26.3062 202.758 26.619 203.136L27.3888 202.497C27.0376 202.074 26.6369 201.668 26.1882 201.281L25.5345 202.038ZM26.6182 203.135C26.904 203.481 27.1799 203.942 27.4406 204.528L28.3544 204.122C28.0682 203.478 27.7484 202.933 27.3896 202.498L26.6182 203.135ZM27.4391 204.525C27.6778 205.073 27.793 205.611 27.793 206.142L28.793 206.142C28.793 205.461 28.6445 204.788 28.3559 204.126L27.4391 204.525ZM27.793 206.142C27.793 207.166 27.4317 207.928 26.7231 208.489L27.3433 209.273C28.3144 208.505 28.793 207.442 28.793 206.142L27.793 206.142ZM26.7259 208.486C26.0089 209.045 24.9108 209.362 23.3565 209.362L23.3565 210.362C25.0247 210.362 26.3779 210.025 27.3405 209.275L26.7259 208.486ZM23.3565 209.362C20.447 209.362 18.0127 208.495 16.0223 206.774L15.3683 207.531C17.5577 209.423 20.2307 210.362 23.3565 210.362L23.3565 209.362ZM16.0225 206.774C14.0027 205.027 13.0459 203.139 13.0459 201.103L12.0459 201.103C12.0459 203.5 13.1888 205.645 15.3682 207.53L16.0225 206.774ZM13.0459 201.103C13.0459 200.661 13.0955 200.272 13.1891 199.931L12.2249 199.666C12.1037 200.107 12.0459 200.587 12.0459 201.103L13.0459 201.103ZM13.1921 199.92C13.2891 199.532 13.3706 199.339 13.416 199.271L12.584 198.716C12.4341 198.941 12.3203 199.284 12.222 199.678L13.1921 199.92ZM13.424 199.258L13.5705 199.024L12.7225 198.494L12.576 198.728L13.424 199.258ZM4.89943 182.675L4.39943 182.675L4.39943 183.107L4.82703 183.17L4.89943 182.675ZM6.1299 169.564L6.51587 169.882L6.51738 169.88L6.1299 169.564ZM14.1865 170.282L13.7625 170.547L13.7644 170.55L14.1865 170.282ZM15.1094 172.143L15.5815 171.978L15.5799 171.973L15.1094 172.143ZM15.4903 173.695L15.9883 173.651L15.9881 173.649L15.4903 173.695ZM15.5488 174.354L15.0508 174.399L15.0839 174.771L15.4508 174.845L15.5488 174.354ZM15.6953 174.384L15.5973 174.874L16.1953 174.994L16.1953 174.384L15.6953 174.384ZM15.7393 173.769L16.236 173.826L16.2362 173.824L15.7393 173.769ZM16.0908 172.392L16.568 172.541L16.5705 172.533L16.0908 172.392ZM16.8819 170.648L17.2979 170.926L17.3003 170.922L16.8819 170.648ZM18.4492 169.257L18.703 169.688L18.7056 169.686L18.4492 169.257ZM26.0371 170.839L25.6631 171.171L25.6642 171.172L26.0371 170.839ZM28 186.322L27.9178 186.815L28.5 186.912L28.5 186.322L28 186.322ZM26.9453 186.146L26.4603 186.268L26.5398 186.586L26.8631 186.64L26.9453 186.146ZM26.3447 183.744L26.8298 183.623L26.7495 183.302L26.4226 183.25L26.3447 183.744ZM9.25002 181.049L9.32791 180.555L9.31524 180.553L9.25002 181.049ZM6.40822 181.327L6.80822 181.627L6.81418 181.619L6.81982 181.611L6.40822 181.327ZM6.1006 182.851L6.0282 183.345L6.6006 183.429L6.6006 182.851L6.1006 182.851ZM26.3447 180.111L26.2675 180.605L26.8447 180.696L26.8447 180.111L26.3447 180.111ZM24.792 173.959L24.466 174.338L24.4663 174.338L24.792 173.959ZM16.6035 178.588L16.1035 178.588L16.1035 179.016L16.5263 179.082L16.6035 178.588ZM14.8018 178.295L14.7246 178.789L15.3018 178.879L15.3018 178.295L14.8018 178.295ZM13.4981 173.227L13.1784 173.611L13.4981 173.227ZM6.5547 177.006L6.0547 177.006L6.0547 177.434L6.47749 177.5L6.5547 177.006ZM5.39943 182.675L5.39943 174.149L4.39943 174.149L4.39943 182.675L5.39943 182.675ZM5.39943 174.149C5.39943 172.14 5.80203 170.749 6.51586 169.882L5.74393 169.247C4.81714 170.372 4.39943 172.038 4.39943 174.149L5.39943 174.149ZM6.51738 169.88C7.23046 169.006 8.21759 168.556 9.54299 168.556L9.54299 167.556C7.95823 167.556 6.66996 168.111 5.74242 169.248L6.51738 169.88ZM9.54299 168.556C10.5601 168.556 11.4242 168.757 12.1506 169.142L12.619 168.258C11.7242 167.784 10.6938 167.556 9.54299 167.556L9.54299 168.556ZM12.1506 169.142C12.9022 169.54 13.4287 170.013 13.7625 170.547L14.6105 170.017C14.1632 169.301 13.4884 168.719 12.619 168.258L12.1506 169.142ZM13.7644 170.55C14.1372 171.137 14.4278 171.725 14.6389 172.312L15.5799 171.973C15.3417 171.311 15.0171 170.658 14.6086 170.014L13.7644 170.55ZM14.6373 172.307C14.8452 172.903 14.9586 173.378 14.9924 173.742L15.9881 173.649C15.9438 173.173 15.8032 172.613 15.5814 171.978L14.6373 172.307ZM14.9922 173.74L15.0508 174.399L16.0469 174.31L15.9883 173.651L14.9922 173.74ZM15.4508 174.845L15.5973 174.874L15.7934 173.894L15.6469 173.864L15.4508 174.845ZM16.1953 174.384C16.1953 174.255 16.2077 174.071 16.236 173.826L15.2426 173.711C15.2123 173.974 15.1953 174.2 15.1953 174.384L16.1953 174.384ZM16.2362 173.824C16.2595 173.614 16.362 173.198 16.5679 172.541L15.6137 172.242C15.4095 172.894 15.2777 173.395 15.2423 173.713L16.2362 173.824ZM16.5705 172.533C16.7538 171.91 16.9978 171.376 17.2979 170.926L16.4658 170.371C16.1019 170.917 15.8185 171.545 15.6112 172.251L16.5705 172.533ZM17.3003 170.922C17.5778 170.498 18.0335 170.082 18.703 169.688L18.1955 168.826C17.4392 169.272 16.8499 169.784 16.4634 170.375L17.3003 170.922ZM18.7056 169.686C19.3198 169.319 20.0535 169.127 20.9248 169.127L20.9248 168.127C19.9016 168.127 18.985 168.355 18.1929 168.828L18.7056 169.686ZM20.9248 169.127C22.892 169.127 24.4562 169.811 25.6631 171.171L26.4111 170.507C25.0009 168.918 23.1569 168.127 20.9248 168.127L20.9248 169.127ZM25.6642 171.172C26.859 172.509 27.5 174.561 27.5 177.416L28.5 177.416C28.5 174.432 27.8324 172.098 26.41 170.506L25.6642 171.172ZM27.5 177.416L27.5 186.322L28.5 186.322L28.5 177.416L27.5 177.416ZM28.0822 185.829L27.0275 185.653L26.8631 186.64L27.9178 186.815L28.0822 185.829ZM27.4304 186.025L26.8298 183.623L25.8597 183.865L26.4603 186.268L27.4304 186.025ZM26.4226 183.25L9.32789 180.555L9.17214 181.543L26.2669 184.238L26.4226 183.25ZM9.31524 180.553C8.57063 180.455 8.00093 180.402 7.62404 180.402L7.62404 181.402C7.93075 181.402 8.44503 181.447 9.18479 181.545L9.31524 180.553ZM7.62404 180.402C6.97054 180.402 6.33921 180.547 5.99661 181.043L6.81982 181.611C6.86786 181.541 7.04707 181.402 7.62404 181.402L7.62404 180.402ZM6.00822 181.027C5.84405 181.246 5.74649 181.521 5.6874 181.814C5.6274 182.111 5.6006 182.459 5.6006 182.851L6.6006 182.851C6.6006 182.5 6.62507 182.223 6.66761 182.012C6.71106 181.797 6.76731 181.682 6.80822 181.627L6.00822 181.027ZM6.173 182.356L4.97183 182.18L4.82703 183.17L6.0282 183.345L6.173 182.356ZM26.8447 180.111L26.8447 177.958L25.8447 177.958L25.8447 180.111L26.8447 180.111ZM26.8447 177.958C26.8447 176.082 26.2949 174.59 25.1177 173.58L24.4663 174.338C25.3595 175.105 25.8447 176.279 25.8447 177.958L26.8447 177.958ZM25.118 173.58C23.9525 172.578 22.3409 172.111 20.3535 172.111L20.3535 173.111C22.1943 173.111 23.5417 173.543 24.466 174.338L25.118 173.58ZM20.3535 172.111C19.024 172.111 17.9355 172.451 17.1841 173.217C16.4344 173.981 16.1035 175.085 16.1035 176.435L17.1035 176.435C17.1035 175.235 17.3977 174.427 17.898 173.917C18.3965 173.409 19.1831 173.111 20.3535 173.111L20.3535 172.111ZM16.1035 176.435L16.1035 178.588L17.1035 178.588L17.1035 176.435L16.1035 176.435ZM16.5263 179.082L26.2675 180.605L26.422 179.617L16.6808 178.094L16.5263 179.082ZM15.3018 178.295L15.3018 176.405L14.3018 176.405L14.3018 178.295L15.3018 178.295ZM15.3018 176.405C15.3018 174.898 14.8276 173.682 13.8177 172.842L13.1784 173.611C13.9068 174.217 14.3018 175.119 14.3018 176.405L15.3018 176.405ZM13.8177 172.842C12.8259 172.017 11.4394 171.643 9.73342 171.643L9.73341 172.643C11.3087 172.643 12.4319 172.99 13.1784 173.611L13.8177 172.842ZM9.73342 171.643C8.60532 171.643 7.66611 171.904 7.0087 172.516C6.34454 173.135 6.0547 174.029 6.0547 175.102L7.0547 175.102C7.0547 174.202 7.29465 173.616 7.69006 173.248C8.09222 172.874 8.74237 172.643 9.73341 172.643L9.73342 171.643ZM6.0547 175.102L6.0547 177.006L7.0547 177.006L7.0547 175.102L6.0547 175.102ZM6.47749 177.5L14.7246 178.789L14.879 177.801L6.63192 176.512L6.47749 177.5ZM24.8506 165.961L24.7729 166.455L24.7815 166.456L24.8506 165.961ZM8.64943 163.412L8.55794 163.904L8.57173 163.906L8.64943 163.412ZM7.38967 163.28L7.40129 162.78L7.38967 162.78L7.38967 163.28ZM5.79299 164.848L5.70966 165.341L6.29299 165.439L6.29299 164.848L5.79299 164.848ZM4.75295 164.672L4.255 164.717L4.28987 165.101L4.66962 165.165L4.75295 164.672ZM4.37209 162.006L4.86318 161.912L4.86238 161.908L4.37209 162.006ZM3.87404 159.867L3.38733 159.982L3.39048 159.995L3.39436 160.008L3.87404 159.867ZM3.69826 159.12L3.77591 158.626L3.04121 158.511L3.21155 159.235L3.69826 159.12ZM24.8506 162.445L24.773 162.939L24.8115 162.945L24.8506 162.945L24.8506 162.445ZM23.8252 160.468L23.6058 160.917L23.6143 160.921L23.8252 160.468ZM23.1953 160.16L22.7681 159.9L22.4833 160.369L22.9759 160.609L23.1953 160.16ZM23.6494 159.413L23.8075 158.939L23.4293 158.813L23.2222 159.153L23.6494 159.413ZM24.1475 159.604L23.9581 160.066L23.9695 160.071L24.1475 159.604ZM25.2754 160.16L25.0393 160.601L25.0422 160.602L25.2754 160.16ZM27.7949 162.328L28.2158 162.058L28.2122 162.053L27.7949 162.328ZM24.9283 165.467L8.72714 162.918L8.57173 163.906L24.7729 166.455L24.9283 165.467ZM8.74089 162.921C8.29506 162.838 7.84845 162.791 7.40129 162.78L7.37804 163.78C7.77073 163.789 8.16396 163.83 8.55798 163.904L8.74089 162.921ZM7.38967 162.78C6.74967 162.78 6.15568 162.912 5.77715 163.322L6.51195 164C6.60217 163.903 6.83825 163.78 7.38967 163.78L7.38967 162.78ZM5.77715 163.322C5.42091 163.708 5.29299 164.252 5.29299 164.848L6.29299 164.848C6.29299 164.369 6.39944 164.122 6.51195 164L5.77715 163.322ZM5.87631 164.355L4.83627 164.179L4.66962 165.165L5.70966 165.341L5.87631 164.355ZM5.25089 164.627C5.17117 163.75 5.04178 162.845 4.86317 161.912L3.88101 162.1C4.05395 163.003 4.17848 163.875 4.255 164.717L5.25089 164.627ZM4.86238 161.908C4.67587 160.975 4.50646 160.245 4.35372 159.726L3.39436 160.008C3.53459 160.485 3.69721 161.181 3.8818 162.104L4.86238 161.908ZM4.36075 159.753L4.18497 159.006L3.21155 159.235L3.38733 159.982L4.36075 159.753ZM3.62061 159.614L24.773 162.939L24.9283 161.951L3.77591 158.626L3.62061 159.614ZM24.8506 162.945C24.843 162.945 24.8372 162.945 24.8339 162.945C24.8304 162.945 24.8282 162.945 24.8274 162.945C24.826 162.944 24.8275 162.944 24.8325 162.945C24.8429 162.946 24.86 162.949 24.8856 162.953L25.05 161.967C24.9987 161.958 24.9186 161.945 24.8506 161.945L24.8506 162.945ZM24.8856 162.953C24.9589 162.965 25.0374 162.975 25.1143 162.975L25.1143 161.975C25.1149 161.975 25.11 161.975 25.0981 161.973C25.0865 161.972 25.0707 161.97 25.05 161.967L24.8856 162.953ZM25.1143 162.975C25.3625 162.975 25.6353 162.937 25.8595 162.791C26.1209 162.621 26.2442 162.352 26.2442 162.064L25.2442 162.064C25.2442 162.068 25.2437 162.047 25.2597 162.016C25.2767 161.983 25.2998 161.962 25.3139 161.953C25.3245 161.946 25.3194 161.953 25.2838 161.96C25.2485 161.968 25.1937 161.975 25.1143 161.975L25.1143 162.975ZM26.2442 162.064C26.2442 161.792 26.125 161.556 25.9788 161.367C25.8316 161.176 25.6295 160.997 25.3937 160.825L24.8055 161.634C24.9995 161.775 25.1196 161.891 25.1872 161.978C25.2559 162.067 25.2442 162.092 25.2442 162.064L26.2442 162.064ZM25.3937 160.825C24.9417 160.496 24.4892 160.225 24.0361 160.014L23.6143 160.921C24.0011 161.101 24.3982 161.338 24.8055 161.634L25.3937 160.825ZM24.0446 160.018L23.4147 159.711L22.9759 160.609L23.6058 160.917L24.0446 160.018ZM23.6226 160.42L24.0767 159.673L23.2222 159.153L22.7681 159.9L23.6226 160.42ZM23.4913 159.887C23.5925 159.921 23.7464 159.98 23.9582 160.066L24.3368 159.141C24.1189 159.052 23.9407 158.983 23.8075 158.939L23.4913 159.887ZM23.9695 160.071C24.1401 160.136 24.4889 160.306 25.0393 160.601L25.5115 159.719C24.9681 159.428 24.565 159.228 24.3255 159.136L23.9695 160.071ZM25.0422 160.602C25.5559 160.873 25.9968 161.159 26.3682 161.458L26.9952 160.679C26.5657 160.333 26.0692 160.013 25.5086 159.718L25.0422 160.602ZM26.3682 161.458C26.721 161.742 27.0587 162.121 27.3777 162.604L28.2122 162.053C27.8476 161.501 27.4431 161.039 26.9952 160.679L26.3682 161.458ZM27.3741 162.598C27.6591 163.042 27.793 163.492 27.793 163.954L28.793 163.954C28.793 163.284 28.5949 162.649 28.2158 162.058L27.3741 162.598ZM27.793 163.954C27.793 164.561 27.6268 164.928 27.3764 165.153C27.1158 165.388 26.6755 165.549 25.9639 165.549L25.9639 166.549C26.805 166.549 27.5292 166.361 28.0451 165.897C28.571 165.424 28.793 164.744 28.793 163.954L27.793 163.954ZM25.9639 165.549C25.6706 165.549 25.3234 165.522 24.9197 165.466L24.7815 166.456C25.2176 166.517 25.6126 166.549 25.9639 166.549L25.9639 165.549ZM15.2559 147.958L15.5237 148.38L15.526 148.379L15.2559 147.958ZM16.208 153.085L15.9287 153.5L15.9294 153.5L16.208 153.085ZM25.5977 153.744L25.8691 154.164L25.8727 154.162L25.5977 153.744ZM24.6602 148.617L24.9369 148.201L24.9356 148.2L24.6602 148.617ZM26.5352 156.586L26.8647 156.962L26.8679 156.959L26.5352 156.586ZM15.2705 155.561L15.6152 155.198L15.6142 155.197L15.2705 155.561ZM14.3184 145.116L14.6496 145.491L14.6513 145.489L14.3184 145.116ZM18.7569 146.696C17.1735 146.696 15.8939 146.954 14.9858 147.537L15.526 148.379C16.1999 147.946 17.2543 147.696 18.7569 147.696L18.7569 146.696ZM14.9881 147.536C14.0692 148.118 13.5547 148.93 13.5547 149.95L14.5547 149.95C14.5547 149.33 14.841 148.813 15.5237 148.38L14.9881 147.536ZM13.5547 149.95C13.5547 151.316 14.4332 152.493 15.9287 153.5L16.4873 152.67C15.1117 151.744 14.5547 150.831 14.5547 149.95L13.5547 149.95ZM15.9294 153.5C17.4664 154.532 19.5244 155.021 22.0528 155.021L22.0528 154.021C19.6398 154.021 17.8013 153.552 16.4867 152.67L15.9294 153.5ZM22.0528 155.021C23.656 155.021 24.9509 154.758 25.8691 154.164L25.3263 153.324C24.6429 153.766 23.5745 154.021 22.0528 154.021L22.0528 155.021ZM25.8727 154.162C26.7864 153.56 27.2988 152.742 27.2988 151.723L26.2988 151.723C26.2988 152.344 26.0105 152.874 25.3227 153.327L25.8727 154.162ZM27.2988 151.723C27.2988 150.357 26.4252 149.19 24.9369 148.201L24.3835 149.034C25.7467 149.939 26.2988 150.842 26.2988 151.723L27.2988 151.723ZM24.9356 148.2C23.3891 147.179 21.3126 146.696 18.7569 146.696L18.7569 147.696C21.2011 147.696 23.0602 148.16 24.3848 149.035L24.9356 148.2ZM19.0059 144.034C21.4803 144.034 23.5516 144.852 25.251 146.487L25.9443 145.767C24.0501 143.944 21.7268 143.034 19.0059 143.034L19.0059 144.034ZM25.251 146.487C26.9523 148.124 27.793 150.08 27.793 152.382L28.793 152.382C28.793 149.801 27.8368 147.587 25.9443 145.767L25.251 146.487ZM27.793 152.382C27.793 154.016 27.2545 155.275 26.2024 156.213L26.8679 156.959C28.1596 155.807 28.793 154.263 28.793 152.382L27.793 152.382ZM26.2057 156.21C25.1354 157.147 23.6997 157.639 21.8477 157.639L21.8477 158.639C23.8824 158.639 25.5716 158.095 26.8646 156.962L26.2057 156.21ZM21.8477 157.639C19.393 157.639 17.3254 156.825 15.6152 155.198L14.9259 155.923C16.8289 157.733 19.1461 158.639 21.8477 158.639L21.8477 157.639ZM15.6142 155.197C13.8939 153.57 13.0459 151.629 13.0459 149.35L12.0459 149.35C12.0459 151.914 13.0143 154.114 14.9269 155.924L15.6142 155.197ZM13.0459 149.35C13.0459 147.695 13.5896 146.428 14.6496 145.491L13.9872 144.742C12.6839 145.894 12.0459 147.449 12.0459 149.35L13.0459 149.35ZM14.6513 145.489C15.7217 144.534 17.1562 144.034 19.0059 144.034L19.0059 143.034C16.9688 143.034 15.2783 143.589 13.9854 144.743L14.6513 145.489ZM15.2559 131.317L15.5237 131.74L15.526 131.738L15.2559 131.317ZM16.208 136.444L15.9287 136.859L15.9294 136.859L16.208 136.444ZM25.5977 137.104L25.8691 137.523L25.8727 137.521L25.5977 137.104ZM24.6602 131.977L24.9369 131.56L24.9356 131.559L24.6602 131.977ZM26.5352 139.945L26.8647 140.321L26.8679 140.319L26.5352 139.945ZM15.2705 138.92L15.6152 138.558L15.6142 138.557L15.2705 138.92ZM14.3184 128.476L14.6496 128.85L14.6513 128.849L14.3184 128.476ZM18.7569 130.056C17.1735 130.056 15.8939 130.314 14.9858 130.897L15.526 131.738C16.1999 131.306 17.2543 131.056 18.7569 131.056L18.7569 130.056ZM14.9881 130.895C14.0692 131.478 13.5547 132.289 13.5547 133.31L14.5547 133.31C14.5547 132.69 14.841 132.173 15.5237 131.74L14.9881 130.895ZM13.5547 133.31C13.5547 134.675 14.4332 135.852 15.9287 136.859L16.4873 136.03C15.1117 135.103 14.5547 134.19 14.5547 133.31L13.5547 133.31ZM15.9294 136.859C17.4664 137.891 19.5244 138.38 22.0528 138.38L22.0528 137.38C19.6398 137.38 17.8013 136.912 16.4867 136.029L15.9294 136.859ZM22.0528 138.38C23.6561 138.38 24.9509 138.117 25.8691 137.523L25.3263 136.684C24.6429 137.125 23.5745 137.38 22.0528 137.38L22.0528 138.38ZM25.8727 137.521C26.7864 136.919 27.2988 136.101 27.2988 135.082L26.2988 135.082C26.2988 135.704 26.0105 136.233 25.3227 136.686L25.8727 137.521ZM27.2988 135.082C27.2989 133.716 26.4252 132.549 24.9369 131.56L24.3835 132.393C25.7467 133.299 26.2989 134.201 26.2988 135.082L27.2988 135.082ZM24.9356 131.559C23.3891 130.539 21.3126 130.056 18.7569 130.056L18.7569 131.056C21.2011 131.056 23.0602 131.52 24.3848 132.394L24.9356 131.559ZM19.0059 127.394C21.4803 127.394 23.5516 128.212 25.251 129.847L25.9443 129.126C24.0501 127.304 21.7268 126.394 19.0059 126.394L19.0059 127.394ZM25.251 129.847C26.9523 131.483 27.793 133.439 27.793 135.741L28.793 135.741C28.793 133.161 27.8368 130.947 25.9443 129.126L25.251 129.847ZM27.793 135.741C27.793 137.375 27.2545 138.634 26.2024 139.572L26.8679 140.319C28.1596 139.167 28.793 137.623 28.793 135.741L27.793 135.741ZM26.2057 139.569C25.1354 140.507 23.6997 140.998 21.8477 140.998L21.8477 141.998C23.8824 141.998 25.5716 141.454 26.8646 140.321L26.2057 139.569ZM21.8477 140.998C19.393 140.998 17.3254 140.185 15.6152 138.558L14.9259 139.282C16.8289 141.093 19.1461 141.998 21.8477 141.998L21.8477 140.998ZM15.6142 138.557C13.8939 136.929 13.0459 134.988 13.0459 132.709L12.0459 132.709C12.0459 135.273 13.0143 137.473 14.9269 139.283L15.6142 138.557ZM13.0459 132.709C13.0459 131.055 13.5896 129.788 14.6496 128.85L13.9872 128.101C12.6839 129.253 12.0459 130.809 12.0459 132.709L13.0459 132.709ZM14.6513 128.849C15.7217 127.893 17.1562 127.394 19.0059 127.394L19.0059 126.394C16.9688 126.394 15.2783 126.949 13.9854 128.103L14.6513 128.849ZM16.501 119.716L16.7926 119.31L16.7914 119.309L16.501 119.716ZM23.1953 116.098L23.5226 115.72L23.5176 115.715L23.1953 116.098ZM22.4483 115.468L22.7706 115.086L22.6638 114.995L22.5257 114.974L22.4483 115.468ZM15.2559 114.34L15.3333 113.846L15.1753 113.821L15.0323 113.893L15.2559 114.34ZM14.9629 114.516L15.225 114.941L15.2327 114.937L15.2403 114.932L14.9629 114.516ZM14.4942 115.116L14.9182 115.381L14.923 115.374L14.9275 115.366L14.4942 115.116ZM13.1465 114.003L13.5705 114.268L13.9704 113.628L13.2253 113.509L13.1465 114.003ZM8.64944 113.285L8.55795 113.777L8.57063 113.779L8.64944 113.285ZM6.14456 113.549L6.50532 113.895L6.51196 113.888L6.14456 113.549ZM5.79299 114.721L5.72326 115.216L6.29299 115.296L6.29299 114.721L5.79299 114.721ZM4.75295 114.574L4.25501 114.619L4.29088 115.014L4.68322 115.069L4.75295 114.574ZM4.3721 111.894L4.86337 111.8L4.86258 111.796L4.3721 111.894ZM3.87405 109.74L3.38734 109.855L3.39049 109.868L3.39437 109.881L3.87405 109.74ZM3.69827 108.993L3.77658 108.499L3.04097 108.383L3.21156 109.108L3.69827 108.993ZM24.8506 112.348L24.7723 112.841L24.8112 112.848L24.8506 112.848L24.8506 112.348ZM25.0996 111.132L24.7996 111.532L24.8055 111.536L25.0996 111.132ZM23.8252 110.341L24.0447 109.891L24.0361 109.887L23.8252 110.341ZM23.1953 110.048L22.7728 109.781L22.4686 110.261L22.9845 110.501L23.1953 110.048ZM23.6494 109.33L23.8076 108.856L23.4362 108.732L23.2269 109.063L23.6494 109.33ZM24.1475 109.506L24.3255 109.039L24.3184 109.036L24.1475 109.506ZM25.2754 110.048L25.0455 110.492L25.0486 110.493L25.2754 110.048ZM27.7949 112.201L28.2158 111.931L28.2122 111.926L27.7949 112.201ZM24.8506 115.863L24.9511 115.373L24.9442 115.372L24.8506 115.863ZM24.543 115.805L24.6365 115.314L24.043 115.2L24.043 115.805L24.543 115.805ZM24.543 115.922L24.043 115.922L24.043 116.205L24.2857 116.351L24.543 115.922ZM24.9531 116.186L24.6758 116.602L24.684 116.607L24.6924 116.612L24.9531 116.186ZM27.0039 118.061L27.3896 117.742L27.3888 117.741L27.0039 118.061ZM27.8975 119.569L28.3559 119.37L28.3544 119.366L27.8975 119.569ZM27.0332 124.125L27.3405 124.519L27.3433 124.517L27.0332 124.125ZM15.6953 122.396L15.3682 122.775L15.3683 122.775L15.6953 122.396ZM12.7071 115.043L13.1893 115.176L13.1921 115.164L12.7071 115.043ZM13 114.237L13.416 114.515L13.4201 114.509L13.424 114.502L13 114.237ZM13.7012 116.186C13.7012 117.676 14.6141 118.984 16.2106 120.123L16.7914 119.309C15.3215 118.26 14.7012 117.215 14.7012 116.186L13.7012 116.186ZM16.2094 120.122C17.8421 121.294 19.966 121.856 22.5362 121.856L22.5362 120.856C20.1064 120.856 18.2068 120.325 16.7926 119.31L16.2094 120.122ZM22.5362 121.856C23.5379 121.856 24.369 121.72 24.966 121.387C25.272 121.216 25.5244 120.989 25.6982 120.698C25.8724 120.407 25.9512 120.078 25.9512 119.73L24.9512 119.73C24.9512 119.924 24.9086 120.07 24.8398 120.185C24.7707 120.301 24.6587 120.413 24.4789 120.513C24.1042 120.722 23.4777 120.856 22.5362 120.856L22.5362 121.856ZM25.9512 119.73C25.9512 119.029 25.6401 118.293 25.114 117.54L24.2942 118.113C24.7642 118.785 24.9512 119.319 24.9512 119.73L25.9512 119.73ZM25.114 117.54C24.5988 116.802 24.0692 116.193 23.5225 115.72L22.8681 116.476C23.3371 116.882 23.8133 117.424 24.2942 118.113L25.114 117.54ZM23.5176 115.715L22.7706 115.086L22.126 115.85L22.873 116.48L23.5176 115.715ZM22.5257 114.974L15.3333 113.846L15.1784 114.834L22.3708 115.962L22.5257 114.974ZM15.0323 113.893C14.9279 113.945 14.8109 114.016 14.6856 114.1L15.2403 114.932C15.3493 114.859 15.4276 114.813 15.4795 114.787L15.0323 113.893ZM14.7009 114.09C14.5632 114.175 14.4491 114.298 14.3564 114.417C14.2589 114.542 14.1605 114.694 14.0609 114.867L14.9275 115.366C15.0134 115.216 15.0859 115.107 15.1447 115.032C15.2082 114.951 15.2357 114.935 15.225 114.941L14.7009 114.09ZM14.0702 114.851C13.8209 115.25 13.7012 115.7 13.7012 116.186L14.7012 116.186C14.7012 115.87 14.7768 115.607 14.9182 115.381L14.0702 114.851ZM13.2253 113.509L8.72825 112.791L8.57063 113.779L13.0677 114.497L13.2253 113.509ZM8.74089 112.794C8.29133 112.71 7.8408 112.668 7.38967 112.668L7.38967 113.668C7.77839 113.668 8.16771 113.704 8.55798 113.777L8.74089 112.794ZM7.38967 112.668C6.74968 112.668 6.15568 112.8 5.77715 113.21L6.51196 113.888C6.60218 113.79 6.83826 113.668 7.38967 113.668L7.38967 112.668ZM5.78386 113.203C5.41998 113.582 5.29299 114.127 5.29299 114.721L6.29299 114.721C6.29299 114.24 6.40038 114.004 6.50525 113.895L5.78386 113.203ZM5.86273 114.226L4.82269 114.079L4.68322 115.069L5.72326 115.216L5.86273 114.226ZM5.2509 114.529C5.17119 113.652 5.04186 112.743 4.86335 111.8L3.88084 111.987C4.0539 112.9 4.17847 113.778 4.25501 114.619L5.2509 114.529ZM4.86258 111.796C4.6761 110.854 4.50663 110.119 4.35373 109.599L3.39437 109.881C3.53443 110.358 3.697 111.058 3.88161 111.991L4.86258 111.796ZM4.36076 109.626L4.18498 108.879L3.21156 109.108L3.38734 109.855L4.36076 109.626ZM3.61995 109.487L24.7723 112.841L24.9289 111.854L3.77658 108.499L3.61995 109.487ZM24.8506 112.848C24.843 112.848 24.8372 112.847 24.8339 112.847C24.8304 112.847 24.8282 112.847 24.8274 112.847C24.826 112.847 24.8275 112.847 24.8325 112.847C24.8429 112.849 24.86 112.851 24.8856 112.856L25.05 111.869C24.9988 111.861 24.9186 111.848 24.8506 111.848L24.8506 112.848ZM24.8856 112.856C24.9589 112.868 25.0374 112.877 25.1143 112.877L25.1143 111.877C25.1149 111.877 25.11 111.877 25.0981 111.876C25.0865 111.875 25.0707 111.873 25.05 111.869L24.8856 112.856ZM25.1143 112.877C25.3625 112.877 25.6353 112.839 25.8595 112.693C26.1209 112.523 26.2442 112.254 26.2442 111.967L25.2442 111.967C25.2442 111.971 25.2437 111.95 25.2597 111.918C25.2767 111.885 25.2998 111.865 25.3139 111.855C25.3245 111.848 25.3194 111.855 25.2838 111.863C25.2485 111.87 25.1937 111.877 25.1143 111.877L25.1143 112.877ZM26.2442 111.967C26.2442 111.695 26.125 111.459 25.9788 111.269C25.8316 111.079 25.6295 110.899 25.3937 110.727L24.8055 111.536C24.9995 111.677 25.1196 111.793 25.1872 111.88C25.2559 111.969 25.2442 111.995 25.2442 111.967L26.2442 111.967ZM25.3996 110.732C24.9484 110.393 24.4967 110.112 24.0446 109.892L23.6058 110.79C23.9935 110.979 24.3915 111.226 24.7996 111.532L25.3996 110.732ZM24.0361 109.887L23.4062 109.594L22.9845 110.501L23.6144 110.794L24.0361 109.887ZM23.6179 110.315L24.072 109.597L23.2269 109.063L22.7728 109.781L23.6179 110.315ZM23.4913 109.804C23.6021 109.841 23.7631 109.898 23.9766 109.976L24.3184 109.036C24.1022 108.957 23.9312 108.897 23.8076 108.856L23.4913 109.804ZM23.9695 109.973C24.144 110.04 24.4956 110.207 25.0455 110.492L25.5053 109.604C24.9614 109.322 24.5612 109.128 24.3255 109.039L23.9695 109.973ZM25.0486 110.493C25.5601 110.754 25.9988 111.034 26.3682 111.331L26.9952 110.552C26.5638 110.205 26.065 109.889 25.5023 109.602L25.0486 110.493ZM26.3682 111.331C26.721 111.615 27.0587 111.994 27.3777 112.477L28.2122 111.926C27.8476 111.374 27.4431 110.912 26.9952 110.552L26.3682 111.331ZM27.3741 112.471C27.6591 112.915 27.793 113.365 27.793 113.827L28.793 113.827C28.793 113.157 28.5949 112.522 28.2158 111.931L27.3741 112.471ZM27.793 113.827C27.793 114.459 27.6258 114.844 27.3763 115.077C27.1206 115.317 26.6906 115.48 25.9932 115.48L25.9932 116.48C26.829 116.48 27.5489 116.285 28.0598 115.807C28.5769 115.323 28.793 114.631 28.793 113.827L27.793 113.827ZM25.9932 115.48C25.6468 115.48 25.2996 115.445 24.9511 115.373L24.7501 116.353C25.1634 116.438 25.5779 116.48 25.9932 116.48L25.9932 115.48ZM24.9442 115.372L24.6365 115.314L24.4494 116.296L24.7571 116.354L24.9442 115.372ZM24.043 115.805L24.043 115.922L25.043 115.922L25.043 115.805L24.043 115.805ZM24.2857 116.351C24.3731 116.403 24.5021 116.486 24.6758 116.602L25.2305 115.77C25.0527 115.651 24.9082 115.558 24.8002 115.493L24.2857 116.351ZM24.6924 116.612C24.8281 116.695 25.1016 116.908 25.5345 117.282L26.1882 116.525C25.7618 116.157 25.4297 115.891 25.2139 115.759L24.6924 116.612ZM25.5345 117.282C25.9452 117.636 26.3062 118.002 26.6191 118.38L27.3888 117.741C27.0376 117.318 26.6369 116.912 26.1882 116.525L25.5345 117.282ZM26.6182 118.379C26.904 118.725 27.1799 119.186 27.4406 119.772L28.3544 119.366C28.0682 118.722 27.7484 118.177 27.3896 117.742L26.6182 118.379ZM27.4391 119.769C27.6778 120.317 27.793 120.855 27.793 121.386L28.793 121.386C28.793 120.706 28.6445 120.032 28.3559 119.37L27.4391 119.769ZM27.793 121.386C27.793 122.41 27.4317 123.172 26.7231 123.733L27.3433 124.517C28.3144 123.749 28.793 122.686 28.793 121.386L27.793 121.386ZM26.7259 123.731C26.0089 124.289 24.9109 124.606 23.3565 124.606L23.3565 125.606C25.0247 125.606 26.3779 125.269 27.3405 124.519L26.7259 123.731ZM23.3565 124.606C20.447 124.606 18.0127 123.739 16.0223 122.018L15.3683 122.775C17.5577 124.667 20.2308 125.606 23.3565 125.606L23.3565 124.606ZM16.0225 122.018C14.0027 120.271 13.0459 118.383 13.0459 116.347L12.0459 116.347C12.0459 118.744 13.1888 120.889 15.3682 122.775L16.0225 122.018ZM13.0459 116.347C13.0459 115.905 13.0955 115.516 13.1892 115.176L12.225 114.91C12.1037 115.351 12.0459 115.831 12.0459 116.347L13.0459 116.347ZM13.1921 115.164C13.2892 114.776 13.3706 114.583 13.416 114.515L12.584 113.96C12.4341 114.185 12.3203 114.529 12.222 114.922L13.1921 115.164ZM13.424 114.502L13.5705 114.268L12.7225 113.738L12.576 113.972L13.424 114.502ZM27.6045 108.407L27.9332 108.784L27.9377 108.78L27.6045 108.407ZM28.4395 104.657L28.2485 105.119L28.2506 105.12L28.4395 104.657ZM30.2998 105.771L29.969 106.145L29.9726 106.149L30.2998 105.771ZM32.4971 108.202L32.0647 108.453L32.0753 108.472L32.0875 108.489L32.4971 108.202ZM32.8047 108.642L33.0984 109.046L33.4962 108.758L33.2143 108.355L32.8047 108.642ZM31.8965 109.301L31.5202 109.63L31.8208 109.974L32.1902 109.705L31.8965 109.301ZM31.3399 108.744L30.9863 109.098L30.994 109.105L31.002 109.113L31.3399 108.744ZM30.0508 107.748L29.7632 108.157L29.7662 108.159L30.0508 107.748ZM28.293 106.898L28.4061 106.411L27.793 106.269L27.793 106.898L28.293 106.898ZM27.2758 108.03C26.9178 108.343 26.4721 108.508 25.9053 108.508L25.9053 109.508C26.6862 109.508 27.3733 109.272 27.9332 108.784L27.2758 108.03ZM25.9053 108.508C25.3465 108.508 24.9048 108.326 24.545 107.966L23.8379 108.673C24.396 109.231 25.0969 109.508 25.9053 109.508L25.9053 108.508ZM24.545 107.966C24.1852 107.606 24.003 107.164 24.003 106.605L23.003 106.605C23.003 107.414 23.2797 108.115 23.8379 108.673L24.545 107.966ZM24.003 106.605C24.003 106.06 24.1946 105.623 24.5889 105.259L23.9112 104.524C23.3093 105.079 23.003 105.784 23.003 106.605L24.003 106.605ZM24.5889 105.259C24.9781 104.901 25.4987 104.703 26.1983 104.703L26.1983 103.703C25.2962 103.703 24.518 103.965 23.9112 104.524L24.5889 105.259ZM26.1983 104.703C26.8918 104.703 27.5741 104.841 28.2485 105.119L28.6305 104.195C27.84 103.868 27.0282 103.703 26.1983 103.703L26.1983 104.703ZM28.2506 105.12C28.9513 105.406 29.5207 105.75 29.969 106.145L30.6306 105.396C30.0829 104.912 29.412 104.514 28.6283 104.194L28.2506 105.12ZM29.9726 106.149C30.4662 106.576 30.8995 107 31.2738 107.421L32.0212 106.757C31.6142 106.299 31.1491 105.844 30.627 105.392L29.9726 106.149ZM31.2738 107.421C31.655 107.85 31.9132 108.192 32.0647 108.453L32.9295 107.951C32.7294 107.607 32.4212 107.207 32.0212 106.757L31.2738 107.421ZM32.0875 108.489L32.3951 108.928L33.2143 108.355L32.9067 107.915L32.0875 108.489ZM32.511 108.237L31.6028 108.896L32.1902 109.705L33.0984 109.046L32.511 108.237ZM32.2728 108.972C32.1195 108.796 31.9193 108.597 31.6777 108.376L31.002 109.113C31.2291 109.321 31.4001 109.493 31.5202 109.63L32.2728 108.972ZM31.6934 108.391C31.4335 108.131 30.9699 107.776 30.3354 107.337L29.7662 108.159C30.4013 108.599 30.797 108.908 30.9863 109.098L31.6934 108.391ZM30.3384 107.339C29.6786 106.875 29.0338 106.557 28.4061 106.411L28.1799 107.385C28.646 107.494 29.173 107.742 29.7632 108.157L30.3384 107.339ZM27.793 106.898C27.793 107.346 27.6282 107.716 27.2714 108.034L27.9377 108.78C28.4988 108.279 28.793 107.642 28.793 106.898L27.793 106.898ZM34.0059 86.3174L34.3473 85.9521L34.1034 85.7242L33.7994 85.862L34.0059 86.3174ZM34.8994 87.1523L35.253 87.5059L35.6187 87.1402L35.2408 86.787L34.8994 87.1523ZM34.3135 87.709L33.9743 87.3415L33.9672 87.3483L34.3135 87.709ZM32.6582 88.9688L32.9453 89.3781L32.9462 89.3775L32.6582 88.9688ZM26.3448 91.7959L26.4653 92.2812L26.466 92.281L26.3448 91.7959ZM17.1895 91.7813L17.3107 91.2962L17.31 91.296L17.1895 91.7813ZM13.0586 90.3164L12.8364 90.7643L12.8393 90.7658L13.0586 90.3164ZM9.543 88.3242L9.27152 88.7441L9.27243 88.7447L9.543 88.3242ZM6.62796 86.1123L6.2903 86.4811L6.62796 86.1123ZM4.50394 84.1055L4.15322 84.4618L4.15327 84.4619L4.50394 84.1055ZM3.09769 82.626L2.70627 82.9371L2.71104 82.9431L2.71599 82.9489L3.09769 82.626ZM2.64358 82.0547L2.34989 81.65L1.92713 81.9569L2.25217 82.3658L2.64358 82.0547ZM3.55179 81.3955L3.94222 81.0832L3.64419 80.7106L3.25809 80.9909L3.55179 81.3955ZM6.54007 83.9004L6.83069 83.4935L6.82908 83.4924L6.54007 83.9004ZM10.3194 86.1123L10.1049 86.564L10.1063 86.5646L10.3194 86.1123ZM15.6953 87.8555L15.5806 88.3421L15.5821 88.3425L15.6953 87.8555ZM33.6645 86.6827L34.5581 87.5177L35.2408 86.787L34.3473 85.9521L33.6645 86.6827ZM34.5459 86.7988C34.4162 86.9285 34.2265 87.1088 33.9744 87.3416L34.6526 88.0764C34.9083 87.8404 35.1093 87.6496 35.253 87.5059L34.5459 86.7988ZM33.9672 87.3483C33.7552 87.5518 33.2357 87.9503 32.3703 88.56L32.9462 89.3775C33.7995 88.7763 34.3835 88.3349 34.6598 88.0697L33.9672 87.3483ZM32.3712 88.5594C31.543 89.14 30.672 89.6541 29.7577 90.1017L30.1974 90.9999C31.1582 90.5295 32.0742 89.9889 32.9453 89.3781L32.3712 88.5594ZM29.7577 90.1017C28.8626 90.54 27.688 90.9447 26.2235 91.3108L26.466 92.281C27.9702 91.9049 29.2175 91.4796 30.1974 90.9999L29.7577 90.1017ZM26.2242 91.3106C24.7696 91.6719 23.2915 91.8525 21.7891 91.8525L21.7891 92.8525C23.3726 92.8525 24.9316 92.6621 26.4653 92.2812L26.2242 91.3106ZM21.7891 91.8525C20.2877 91.8525 18.7952 91.6673 17.3107 91.2962L17.0682 92.2663C18.6306 92.6569 20.2045 92.8525 21.7891 92.8525L21.7891 91.8525ZM17.31 91.296C15.8055 90.9223 14.4624 90.4451 13.2779 89.8671L12.8393 90.7658C14.0962 91.3791 15.507 91.8785 17.0689 92.2665L17.31 91.296ZM13.2808 89.8685C12.0764 89.2711 10.9207 88.6162 9.81356 87.9037L9.27243 88.7447C10.4114 89.4776 11.5995 90.1508 12.8364 90.7643L13.2808 89.8685ZM9.81447 87.9043C8.70005 87.1838 7.75156 86.4632 6.96562 85.7435L6.2903 86.4811C7.12545 87.2458 8.12032 87.9998 9.27152 88.7441L9.81447 87.9043ZM6.96562 85.7435C6.15828 85.0043 5.45479 84.3396 4.8546 83.7491L4.15327 84.4619C4.76402 85.0628 5.47654 85.7359 6.2903 86.4811L6.96562 85.7435ZM4.85465 83.7491C4.24367 83.1478 3.78728 82.6669 3.47938 82.303L2.71599 82.9489C3.05263 83.3468 3.53373 83.8522 4.15322 84.4618L4.85465 83.7491ZM3.4891 82.3149L3.035 81.7436L2.25217 82.3658L2.70627 82.9371L3.4891 82.3149ZM2.93728 82.4593L3.84548 81.8002L3.25809 80.9909L2.34989 81.65L2.93728 82.4593ZM3.16135 81.7079C3.33734 81.9278 3.59924 82.2038 3.93597 82.5307L4.63245 81.8131C4.30511 81.4954 4.07874 81.2538 3.94222 81.0832L3.16135 81.7079ZM3.93597 82.5307C4.30057 82.8845 5.08532 83.4827 6.25106 84.3084L6.82908 83.4924C5.65106 82.658 4.93191 82.1037 4.63245 81.8131L3.93597 82.5307ZM6.24945 84.3073C7.43679 85.1554 8.7222 85.9074 10.1049 86.564L10.5338 85.6606C9.20168 85.0281 7.96757 84.3056 6.83069 83.4935L6.24945 84.3073ZM10.1063 86.5646C11.4975 87.2199 13.3265 87.8106 15.5806 88.3421L15.8101 87.3688C13.5915 86.8457 11.8365 86.2742 10.5324 85.66L10.1063 86.5646ZM15.5821 88.3425C17.8478 88.8692 20.2052 89.1318 22.6533 89.1318L22.6533 88.1318C20.2773 88.1318 17.996 87.8769 15.8086 87.3685L15.5821 88.3425ZM22.6533 89.1318C24.784 89.1318 26.8151 88.9336 28.7455 88.5356L28.5436 87.5562C26.685 87.9394 24.7219 88.1318 22.6533 88.1318L22.6533 89.1318ZM28.7455 88.5356C30.6458 88.1438 32.0591 87.7492 32.9526 87.344L32.5396 86.4333C31.7534 86.7898 30.4324 87.1668 28.5436 87.5562L28.7455 88.5356ZM32.9526 87.344L34.2124 86.7728L33.7994 85.862L32.5396 86.4333L32.9526 87.344ZM26.3448 79.9307L26.8346 79.8303L26.765 79.4909L26.4229 79.4368L26.3448 79.9307ZM9.39651 77.25L9.47463 76.7561L8.89651 76.6647L8.89651 77.25L9.39651 77.25ZM9.39651 80.4873L9.31903 80.9813L9.89651 81.0719L9.89651 80.4873L9.39651 80.4873ZM7.90237 80.2529L7.40377 80.2903L7.43341 80.6855L7.82489 80.7469L7.90237 80.2529ZM7.41898 78.0117L6.94926 78.1831L6.95002 78.1852L7.41898 78.0117ZM6.55472 76.2393L6.96806 75.9578L6.96392 75.9519L6.55472 76.2393ZM4.78226 74.2617L5.07634 73.8574L5.06605 73.8499L5.05539 73.8429L4.78226 74.2617ZM4.44534 74.042L3.94534 74.042L3.94534 74.3128L4.17221 74.4608L4.44534 74.042ZM4.44534 72.8115L4.52391 72.3177L3.94534 72.2257L3.94534 72.8115L4.44534 72.8115ZM23.503 75.8438L23.4244 76.3376L23.4302 76.3384L23.503 75.8438ZM26.4326 75.4629L26.838 75.7556L26.8426 75.7493L26.8469 75.7428L26.4326 75.4629ZM26.7989 73.5293L26.8771 73.0355L26.2989 72.9438L26.2989 73.5293L26.7989 73.5293ZM28 73.7197L28.5 73.7197L28.5 73.2928L28.0783 73.2259L28 73.7197ZM28 83.0508L27.9112 83.5428L28.5 83.6491L28.5 83.0508L28 83.0508ZM26.9453 82.8604L26.4555 82.9608L26.5235 83.2923L26.8565 83.3524L26.9453 82.8604ZM26.4229 79.4368L9.47463 76.7561L9.3184 77.7439L26.2666 80.4245L26.4229 79.4368ZM8.89651 77.25L8.89651 80.4873L9.89651 80.4873L9.89651 77.25L8.89651 77.25ZM9.474 79.9933L7.97986 79.759L7.82489 80.7469L9.31903 80.9813L9.474 79.9933ZM8.40097 80.2155C8.339 79.3892 8.16827 78.5962 7.88793 77.8383L6.95002 78.1852C7.19702 78.853 7.34856 79.5541 7.40377 80.2903L8.40097 80.2155ZM7.88869 77.8403C7.61584 77.0925 7.31079 76.4613 6.96802 75.9579L6.14142 76.5207C6.42364 76.9352 6.69476 77.4856 6.94926 78.1831L7.88869 77.8403ZM6.96392 75.9519C6.63132 75.4782 6.29566 75.0556 5.9565 74.6856L5.21934 75.3613C5.52471 75.6944 5.83358 76.0823 6.14551 76.5266L6.96392 75.9519ZM5.9565 74.6856C5.62644 74.3255 5.33144 74.0429 5.07634 73.8574L4.48817 74.6661C4.66276 74.7931 4.90487 75.0182 5.21934 75.3613L5.9565 74.6856ZM5.05539 73.8429L4.71848 73.6232L4.17221 74.4608L4.50912 74.6805L5.05539 73.8429ZM4.94534 74.042L4.94534 72.8115L3.94534 72.8115L3.94534 74.042L4.94534 74.042ZM4.36678 73.3053L23.4244 76.3375L23.5815 75.35L4.52391 72.3177L4.36678 73.3053ZM23.4302 76.3384C24.0993 76.4368 24.627 76.4902 24.9971 76.4902L24.9971 75.4902C24.7031 75.4902 24.2348 75.446 23.5757 75.3491L23.4302 76.3384ZM24.9971 76.4902C25.76 76.4902 26.4436 76.3018 26.838 75.7556L26.0273 75.1701C25.9139 75.3271 25.6404 75.4902 24.9971 75.4902L24.9971 76.4902ZM26.8469 75.7428C27.1821 75.2468 27.2989 74.4666 27.2989 73.5293L26.2989 73.5293C26.2989 74.4475 26.1715 74.9563 26.0184 75.183L26.8469 75.7428ZM26.7206 74.0231L27.9217 74.2136L28.0783 73.2259L26.8771 73.0355L26.7206 74.0231ZM27.5 73.7197L27.5 83.0508L28.5 83.0508L28.5 73.7197L27.5 73.7197ZM28.0889 82.5587L27.0342 82.3683L26.8565 83.3524L27.9112 83.5428L28.0889 82.5587ZM27.4352 82.7599L26.8346 79.8303L25.8549 80.0311L26.4555 82.9608L27.4352 82.7599ZM6.54007 56.083L6.85176 56.474L6.85475 56.4716L6.54007 56.083ZM24.1035 57.8994L24.417 57.5099L24.4164 57.5094L24.1035 57.8994ZM28.1758 68.6953L27.6915 68.571L27.6904 68.5756L28.1758 68.6953ZM27.6338 70.1895L27.2156 69.9154L27.2032 69.9343L27.1926 69.9542L27.6338 70.1895ZM27.3994 70.6289L27.1976 71.0864L27.6222 71.2737L27.8406 70.8642L27.3994 70.6289ZM25.9053 69.9697L25.4936 69.686L25.1508 70.1834L25.7035 70.4272L25.9053 69.9697ZM24.4405 62.0303L24.0941 62.3909L24.0941 62.3909L24.4405 62.0303ZM17.8047 59.1152L17.8914 58.6228L17.3047 58.5195L17.3047 59.1152L17.8047 59.1152ZM17.8047 59.2324L17.3047 59.2324L17.3047 59.3838L17.3887 59.5098L17.8047 59.2324ZM17.9951 59.4668L17.6235 59.8013L17.6323 59.8111L17.6416 59.8204L17.9951 59.4668ZM18.4346 60.1113L18.8656 59.8578L18.8633 59.8541L18.4346 60.1113ZM18.9766 61.1514L19.4356 60.9529L19.4309 60.9426L18.9766 61.1514ZM19.416 62.5576L19.904 62.4483L19.9025 62.4422L19.416 62.5576ZM18.0684 67.875L18.392 68.2562L18.3938 68.2546L18.0684 67.875ZM7.12601 66.6445L7.47153 66.2831L7.47054 66.2822L7.12601 66.6445ZM17.2041 62.2647L17.7041 62.2672L17.7041 62.2647L17.2041 62.2647ZM16.9405 60.5947L17.4173 60.4442L17.4156 60.4391L16.9405 60.5947ZM16.4131 59.3203L16.8445 59.0674L16.8419 59.0631L16.4131 59.3203ZM16.1494 58.8809L16.5782 58.6236L16.4574 58.4223L16.2253 58.3866L16.1494 58.8809ZM4.94534 60.6387C4.94534 58.8535 5.58444 57.4843 6.85175 56.474L6.22839 55.692C4.70274 56.9083 3.94534 58.5761 3.94534 60.6387L4.94534 60.6387ZM6.85475 56.4716C8.11751 55.4489 10.0177 54.8984 12.6338 54.8984L12.6338 53.8984C9.89839 53.8984 7.73607 54.471 6.22539 55.6944L6.85475 56.4716ZM12.6338 54.8984C17.2876 54.8984 20.9909 56.044 23.7907 58.2895L24.4164 57.5094C21.3959 55.0869 17.4527 53.8984 12.6338 53.8984L12.6338 54.8984ZM23.7901 58.289C26.5896 60.5418 27.9541 63.2228 27.9541 66.3516L28.9541 66.3516C28.9541 62.8788 27.4183 59.925 24.417 57.5099L23.7901 58.289ZM27.9541 66.3516C27.9541 67.1546 27.8654 67.8937 27.6915 68.571L28.6601 68.8197C28.8573 68.0517 28.9541 67.2282 28.9541 66.3516L27.9541 66.3516ZM27.6904 68.5756C27.516 69.2825 27.3512 69.7085 27.2156 69.9154L28.0521 70.4635C28.2876 70.104 28.484 69.5339 28.6613 68.815L27.6904 68.5756ZM27.1926 69.9542L26.9583 70.3936L27.8406 70.8642L28.075 70.4248L27.1926 69.9542ZM27.6013 70.1715L26.1071 69.5123L25.7035 70.4272L27.1976 71.0864L27.6013 70.1715ZM26.317 70.2535C26.8843 69.4303 27.1524 68.427 27.1524 67.2744L26.1524 67.2744C26.1524 68.2703 25.9224 69.0639 25.4936 69.686L26.317 70.2535ZM27.1524 67.2744C27.1524 65.0609 26.3615 63.1818 24.7868 61.6696L24.0941 62.3909C25.4687 63.7108 26.1524 65.3278 26.1524 67.2744L27.1524 67.2744ZM24.7868 61.6697C23.2054 60.1507 20.8868 59.1502 17.8914 58.6228L17.718 59.6077C20.6016 60.1154 22.7068 61.0583 24.0941 62.3909L24.7868 61.6697ZM17.3047 59.1152L17.3047 59.2324L18.3047 59.2324L18.3047 59.1152L17.3047 59.1152ZM17.3887 59.5098C17.448 59.5988 17.5307 59.6982 17.6235 59.8013L18.3668 59.1323C18.2838 59.0401 18.2395 58.9832 18.2207 58.9551L17.3887 59.5098ZM17.6416 59.8204C17.6415 59.8203 17.6447 59.8234 17.6512 59.8311C17.6576 59.8386 17.6661 59.8489 17.6767 59.8626C17.6981 59.8903 17.725 59.9274 17.7578 59.9755C17.8236 60.0719 17.906 60.2021 18.0059 60.3686L18.8633 59.8541C18.6653 59.5241 18.4881 59.2526 18.3487 59.1132L17.6416 59.8204ZM18.0036 60.3648C18.1901 60.6819 18.363 61.0136 18.5223 61.3601L19.4309 60.9426C19.2581 60.5665 19.0697 60.2048 18.8656 59.8578L18.0036 60.3648ZM18.5177 61.3498C18.6581 61.6746 18.7966 62.1126 18.9296 62.6731L19.9025 62.4422C19.7621 61.8503 19.6076 61.3508 19.4355 60.9529L18.5177 61.3498ZM18.9282 62.667C19.0471 63.1978 19.1065 63.7324 19.1065 64.2715L20.1065 64.2715C20.1065 63.6583 20.0389 63.0503 19.9039 62.4483L18.9282 62.667ZM19.1065 64.2715C19.1065 65.6699 18.6426 66.7243 17.743 67.4954L18.3938 68.2546C19.5449 67.2679 20.1065 65.92 20.1065 64.2715L19.1065 64.2715ZM17.7448 67.4939C16.8279 68.2723 15.5169 68.6934 13.7471 68.6934L13.7471 69.6934C15.6687 69.6934 17.2386 69.2355 18.392 68.2561L17.7448 67.4939ZM13.7471 68.6934C11.2289 68.6934 9.14869 67.8866 7.47153 66.2831L6.78049 67.0059C8.65801 68.8009 10.9919 69.6934 13.7471 69.6934L13.7471 68.6934ZM7.47054 66.2822C5.77495 64.67 4.94534 62.796 4.94534 60.6387L3.94534 60.6387C3.94534 63.0907 4.90285 65.2206 6.78148 67.0069L7.47054 66.2822ZM5.60062 60.917C5.60062 62.2278 6.37734 63.3427 7.72031 64.2724L8.28952 63.4502C7.09342 62.6222 6.60062 61.7742 6.60062 60.917L5.60062 60.917ZM7.72031 64.2724C9.10136 65.2285 10.9366 65.6797 13.1758 65.6797L13.1758 64.6797C11.0595 64.6797 9.44753 64.2519 8.28952 63.4502L7.72031 64.2724ZM13.1758 65.6797C14.5595 65.6797 15.6882 65.4311 16.4829 64.856C17.3069 64.2597 17.6986 63.367 17.7041 62.2672L16.7041 62.2621C16.6999 63.1056 16.4154 63.6705 15.8966 64.0459C15.3485 64.4425 14.4679 64.6797 13.1758 64.6797L13.1758 65.6797ZM17.7041 62.2647C17.7041 61.6545 17.6077 61.0471 17.4173 60.4442L16.4637 60.7453C16.6248 61.2556 16.7041 61.7615 16.7041 62.2647L17.7041 62.2647ZM17.4156 60.4391C17.2264 59.8614 17.0375 59.3968 16.8445 59.0675L15.9818 59.5732C16.1208 59.8103 16.2834 60.1952 16.4653 60.7504L17.4156 60.4391ZM16.8419 59.0631L16.5782 58.6236L15.7207 59.1381L15.9844 59.5776L16.8419 59.0631ZM16.2253 58.3866C14.1125 58.0624 12.3467 57.8975 10.9346 57.8975L10.9346 58.8975C12.2764 58.8975 13.9872 59.0548 16.0736 59.3751L16.2253 58.3866ZM10.9346 57.8975C9.29611 57.8975 7.99074 58.1082 7.07802 58.584C6.61431 58.8256 6.23917 59.1424 5.98152 59.5453C5.72249 59.9503 5.60062 60.4137 5.60062 60.917L6.60062 60.917C6.60062 60.5804 6.68016 60.309 6.82397 60.0841C6.96914 59.8571 7.19826 59.649 7.54021 59.4707C8.23881 59.1066 9.35044 58.8975 10.9346 58.8975L10.9346 57.8975ZM28 52.5234L27.9191 53.0169L28.5 53.1121L28.5 52.5234L28 52.5234ZM27.1065 52.377L26.8427 52.8017L26.9273 52.8543L27.0256 52.8704L27.1065 52.377ZM7.59476 40.2627L7.8585 39.8379L7.09476 39.3637L7.09476 40.2627L7.59476 40.2627ZM8.45902 49.7695L8.81559 49.419L8.81257 49.416L8.45902 49.7695ZM11.1983 50.9414L11.6983 50.9414L11.6983 50.5162L11.2786 50.4479L11.1983 50.9414ZM11.1983 52.4355L11.1213 52.9296L11.6983 53.0195L11.6983 52.4355L11.1983 52.4355ZM4.89945 51.4541L4.39945 51.4541L4.39945 51.8822L4.82247 51.9481L4.89945 51.4541ZM4.89945 37.5234L4.98236 37.0304L4.39945 36.9323L4.39945 37.5234L4.89945 37.5234ZM6.55472 37.8018L6.77315 37.352L6.7085 37.3206L6.63763 37.3087L6.55472 37.8018ZM28 48.2168L28.5 48.2168L28.5 47.9038L28.2185 47.767L28 48.2168ZM28.0809 52.03L27.1874 51.8835L27.0256 52.8704L27.9191 53.0169L28.0809 52.03ZM27.3702 51.9522L7.8585 39.8379L7.33102 40.6875L26.8427 52.8017L27.3702 51.9522ZM7.09476 40.2627L7.09476 47.2793L8.09476 47.2793L8.09476 40.2627L7.09476 40.2627ZM7.09476 47.2793C7.09476 48.4506 7.40774 49.4254 8.10546 50.1231L8.81257 49.416C8.35796 48.9614 8.09476 48.276 8.09476 47.2793L7.09476 47.2793ZM8.10246 50.1201C8.77542 50.8046 9.80972 51.2219 11.1179 51.4349L11.2786 50.4479C10.0673 50.2507 9.27543 49.8868 8.81558 49.419L8.10246 50.1201ZM10.6983 50.9414L10.6983 52.4355L11.6983 52.4355L11.6983 50.9414L10.6983 50.9414ZM11.2753 51.9415L4.97643 50.9601L4.82247 51.9481L11.1213 52.9296L11.2753 51.9415ZM5.39945 51.4541L5.39945 37.5234L4.39945 37.5234L4.39945 51.4541L5.39945 51.4541ZM4.81654 38.0165L6.47182 38.2948L6.63763 37.3087L4.98236 37.0304L4.81654 38.0165ZM6.33629 38.2515L27.7816 48.6666L28.2185 47.767L6.77315 37.352L6.33629 38.2515ZM27.5 48.2168L27.5 52.5234L28.5 52.5234L28.5 48.2168L27.5 48.2168ZM4.89945 23.0068L4.97795 22.513L4.39945 22.4211L4.39945 23.0068L4.89945 23.0068ZM7.7559 23.4609L8.2559 23.4609L8.2559 23.0341L7.8344 22.9671L7.7559 23.4609ZM7.7559 32.3672L7.2559 32.3672L7.2559 32.7407L7.61405 32.8466L7.7559 32.3672ZM13.7471 34.1397L13.6053 34.6191L14.5882 34.9099L14.2123 33.9563L13.7471 34.1397ZM25.7735 27.2549L26.1308 26.9052L26.1299 26.9042L25.7735 27.2549ZM27.1065 39.0029L27.4979 39.3141L27.5041 39.3062L27.51 39.2982L27.1065 39.0029ZM26.6524 39.5742L26.5735 40.068L26.862 40.1141L27.0438 39.8853L26.6524 39.5742ZM21.7012 38.7832L21.2012 38.7832L21.2012 39.2097L21.6223 39.2769L21.7012 38.7832ZM21.7012 37.0254L21.6478 36.5283L21.2012 36.5763L21.2012 37.0254L21.7012 37.0254ZM26.1983 36.542L26.2517 37.0391L26.4786 37.0147L26.6089 36.8273L26.1983 36.542ZM24.792 30.3164L24.4722 30.7008L24.4739 30.7021L24.792 30.3164ZM16.5303 29.6279L16.8557 30.0076L16.8585 30.0051L16.5303 29.6279ZM15.5489 33.7148L15.0575 33.8076L15.0579 33.8093L15.5489 33.7148ZM15.8565 34.8867L16.3292 34.7237L16.3257 34.7137L16.3219 34.7039L15.8565 34.8867ZM16.003 35.3115L16.3486 35.6728L16.5801 35.4514L16.4757 35.1485L16.003 35.3115ZM14.6553 36.6006L14.5303 37.0847L14.7998 37.1543L15.0009 36.9619L14.6553 36.6006ZM4.89945 34.0811L4.39945 34.0811L4.39945 34.4683L4.77442 34.5652L4.89945 34.0811ZM4.82095 23.5006L7.6774 23.9547L7.8344 22.9671L4.97795 22.513L4.82095 23.5006ZM7.2559 23.4609L7.2559 32.3672L8.2559 32.3672L8.2559 23.4609L7.2559 23.4609ZM7.61405 32.8466L13.6053 34.6191L13.889 33.6602L7.89774 31.8877L7.61405 32.8466ZM14.2123 33.9563C13.8402 33.0125 13.6465 31.8763 13.6465 30.5361L12.6465 30.5361C12.6465 31.9694 12.8532 33.2356 13.2819 34.323L14.2123 33.9563ZM13.6465 30.5361C13.6465 28.7539 14.1647 27.4216 15.1489 26.4722L14.4547 25.7524C13.2319 26.9319 12.6465 28.5489 12.6465 30.5361L13.6465 30.5361ZM15.1489 26.4722C16.1455 25.5109 17.445 25.0156 19.0938 25.0156L19.0938 24.0156C17.227 24.0156 15.6651 24.5848 14.4547 25.7524L15.1489 26.4722ZM19.0938 25.0156C21.6215 25.0156 23.718 25.8788 25.4171 27.6056L26.1299 26.9042C24.2352 24.9786 21.8785 24.0156 19.0938 24.0156L19.0938 25.0156ZM25.4161 27.6046C27.0964 29.3216 27.9541 31.5952 27.9541 34.4766L28.9541 34.4766C28.9541 31.3814 28.0248 28.8405 26.1308 26.9052L25.4161 27.6046ZM27.9541 34.4766C27.9541 35.3384 27.8122 36.1653 27.529 36.9601L28.471 37.2958C28.7933 36.3913 28.9541 35.4507 28.9541 34.4766L27.9541 34.4766ZM27.529 36.9601C27.2316 37.7949 26.953 38.3659 26.703 38.7077L27.51 39.2982C27.8459 38.8392 28.163 38.1602 28.471 37.2958L27.529 36.9601ZM26.7151 38.6918L26.261 39.2631L27.0438 39.8853L27.4979 39.3141L26.7151 38.6918ZM26.7313 39.0805L21.7801 38.2895L21.6223 39.2769L26.5735 40.068L26.7313 39.0805ZM22.2012 38.7832L22.2012 37.0254L21.2012 37.0254L21.2012 38.7832L22.2012 38.7832ZM21.7546 37.5225L26.2517 37.0391L26.1448 36.0449L21.6478 36.5283L21.7546 37.5225ZM26.6089 36.8273C27.0867 36.1397 27.2989 35.2466 27.2989 34.1982L26.2989 34.1982C26.2989 35.1225 26.1106 35.792 25.7877 36.2567L26.6089 36.8273ZM27.2989 34.1982C27.2989 32.5387 26.5416 31.1114 25.1102 29.9307L24.4739 30.7021C25.7182 31.7285 26.2989 32.8891 26.2989 34.1982L27.2989 34.1982ZM25.1118 29.9321C23.6683 28.7308 21.8493 28.1465 19.6944 28.1465L19.6944 29.1465C21.6606 29.1465 23.24 29.6754 24.4722 30.7007L25.1118 29.9321ZM19.6944 28.1465C18.2602 28.1465 17.0734 28.4926 16.2021 29.2507L16.8585 30.0051C17.4911 29.4547 18.4137 29.1465 19.6944 29.1465L19.6944 28.1465ZM16.2049 29.2483C15.3287 29.9994 14.9024 31.0192 14.9024 32.25L15.9024 32.25C15.9024 31.2737 16.228 30.5456 16.8557 30.0076L16.2049 29.2483ZM14.9024 32.25C14.9024 32.7442 14.9549 33.2638 15.0575 33.8075L16.0402 33.6221C15.9475 33.1308 15.9024 32.6737 15.9024 32.25L14.9024 32.25ZM15.0579 33.8093C15.1577 34.3282 15.2671 34.7538 15.3911 35.0695L16.3219 34.7039C16.231 34.4727 16.1354 34.1171 16.0399 33.6204L15.0579 33.8093ZM15.3838 35.0497L15.5303 35.4745L16.4757 35.1485L16.3292 34.7237L15.3838 35.0497ZM15.6574 34.9502L14.3097 36.2393L15.0009 36.9619L16.3486 35.6728L15.6574 34.9502ZM14.7803 36.1165L5.02448 33.5969L4.77442 34.5652L14.5303 37.0847L14.7803 36.1165ZM5.39945 34.0811L5.39945 23.0068L4.39945 23.0068L4.39945 34.0811L5.39945 34.0811ZM3.5518 19.9453L3.2134 20.3134L3.45441 20.535L3.75388 20.4027L3.5518 19.9453ZM2.64359 19.1104L2.29004 18.7568L1.92132 19.1255L2.30519 19.4784L2.64359 19.1104ZM3.22953 18.5684L3.56089 18.9429L3.56867 18.9358L3.22953 18.5684ZM4.8848 17.3379L5.16868 17.7495L5.17185 17.7473L4.8848 17.3379ZM7.58012 15.7559L7.79814 16.2058L7.79997 16.2049L7.58012 15.7559ZM11.2276 14.5107L11.3481 14.996L11.3488 14.9958L11.2276 14.5107ZM20.3682 14.5254L20.4895 14.0403L20.4887 14.0401L20.3682 14.5254ZM24.4844 16.0049L24.2622 16.4528L24.2651 16.4542L24.4844 16.0049ZM28.0147 18.0117L27.7407 18.43L27.7432 18.4316L28.0147 18.0117ZM33.0537 22.2012L32.7031 22.5576L32.7059 22.5604L33.0537 22.2012ZM34.4161 23.666L34.0197 23.9709L34.0268 23.9801L34.0344 23.989L34.4161 23.666ZM34.8995 24.2373L35.1963 24.6397L35.6264 24.3224L35.2811 23.9143L34.8995 24.2373ZM34.0059 24.8965L33.6155 25.2088L33.9158 25.5843L34.3027 25.2989L34.0059 24.8965ZM27.2383 20.1943L27.0226 20.6454L27.0253 20.6467L27.2383 20.1943ZM21.877 18.4512L21.9902 17.9642L21.9897 17.9641L21.877 18.4512ZM8.91312 18.2461L9.01167 18.7363L9.01216 18.7362L8.91312 18.2461ZM4.81156 19.3887L5.01365 19.846L5.01806 19.844L4.81156 19.3887ZM3.8902 19.5772L2.98199 18.7423L2.30519 19.4784L3.2134 20.3134L3.8902 19.5772ZM2.99715 19.4639C3.12325 19.3378 3.30979 19.1649 3.56082 18.9429L2.89824 18.1939C2.64145 18.421 2.43737 18.6095 2.29004 18.7568L2.99715 19.4639ZM3.56867 18.9358C3.79219 18.7294 4.31422 18.3388 5.16867 17.7495L4.60094 16.9263C3.75617 17.5089 3.17469 17.9385 2.89039 18.201L3.56867 18.9358ZM5.17185 17.7473C5.99926 17.1671 6.87458 16.6533 7.79814 16.2058L7.36209 15.3059C6.39112 15.7764 5.46957 16.3172 4.59776 16.9285L5.17185 17.7473ZM7.79997 16.2049C8.69463 15.7669 9.87371 15.3622 11.3481 14.996L11.1071 14.0255C9.59316 14.4015 8.3406 14.8268 7.36026 15.3068L7.79997 16.2049ZM11.3488 14.9958C12.7932 14.6347 14.2662 14.4541 15.7686 14.4541L15.7686 13.4541C14.1851 13.4541 12.6307 13.6446 11.1063 14.0257L11.3488 14.9958ZM15.7686 14.4541C17.2599 14.4541 18.7527 14.6393 20.2477 15.0106L20.4887 14.0401C18.9173 13.6498 17.3436 13.4541 15.7686 13.4541L15.7686 14.4541ZM20.2469 15.0105C21.7407 15.3839 23.0782 15.8655 24.2622 16.4528L24.7066 15.557C23.4492 14.9333 22.0426 14.4286 20.4895 14.0403L20.2469 15.0105ZM24.2651 16.4542C25.467 17.0408 26.6255 17.6993 27.7407 18.43L28.2887 17.5935C27.1383 16.8398 25.9432 16.1604 24.7037 15.5555L24.2651 16.4542ZM27.7432 18.4316C28.8585 19.1527 29.8078 19.8691 30.5945 20.58L31.2649 19.838C30.4305 19.084 29.4365 18.3356 28.2862 17.5918L27.7432 18.4316ZM30.5945 20.58C31.4012 21.3089 32.1038 21.968 32.7031 22.5576L33.4044 21.8448C32.7927 21.2429 32.0793 20.5739 31.2649 19.838L30.5945 20.58ZM32.7059 22.5604C33.315 23.1501 33.7488 23.6186 34.0197 23.9709L34.8124 23.3612C34.4974 22.9517 34.023 22.4437 33.4016 21.842L32.7059 22.5604ZM34.0344 23.989L34.5178 24.5603L35.2811 23.9143L34.7977 23.343L34.0344 23.989ZM34.6026 23.8349L33.7091 24.4941L34.3027 25.2989L35.1963 24.6397L34.6026 23.8349ZM34.3963 24.5841C34.2203 24.3642 33.9584 24.0882 33.6217 23.7613L32.9252 24.4789C33.2526 24.7966 33.4789 25.0382 33.6155 25.2088L34.3963 24.5841ZM33.6217 23.7613C33.2571 23.4075 32.4724 22.8093 31.3066 21.9836L30.7286 22.7996C31.9066 23.634 32.6258 24.1883 32.9252 24.4789L33.6217 23.7613ZM31.3066 21.9836C30.1099 21.1359 28.8246 20.3888 27.4514 19.742L27.0253 20.6467C28.3473 21.2694 29.5816 21.9871 30.7286 22.7996L31.3066 21.9836ZM27.454 19.7433C26.0612 19.0771 24.2356 18.4861 21.9902 17.9642L21.7638 18.9382C23.9715 19.4514 25.7201 20.0225 27.0226 20.6454L27.454 19.7433ZM21.9897 17.9641C19.7145 17.4375 17.3474 17.1748 14.8897 17.1748L14.8897 18.1748C17.2757 18.1748 19.5669 18.4297 21.7643 18.9383L21.9897 17.9641ZM14.8897 17.1748C12.7598 17.1748 10.7343 17.368 8.81409 17.756L9.01216 18.7362C10.8615 18.3625 12.8203 18.1748 14.8897 18.1748L14.8897 17.1748ZM8.81458 17.7559C6.91412 18.138 5.49976 18.5276 4.60506 18.9333L5.01806 19.844C5.80305 19.4881 7.12307 19.116 9.01167 18.7363L8.81458 17.7559ZM4.60948 18.9313L3.34971 19.488L3.75388 20.4027L5.01364 19.846L4.60948 18.9313Z" fill="#ED1C24"/>
<path d="M52.1064 290.253L44.8994 290.253L44.8994 269.848L52.1064 269.848L52.1064 271.649C50.124 271.649 48.752 271.962 47.9902 272.587C47.2285 273.202 46.8477 274.242 46.8477 275.707L46.8477 277.655L63.5029 277.655C64.7822 277.655 65.627 277.455 66.0371 277.055C66.4473 276.654 66.6523 275.854 66.6523 274.652L68 274.652L68 285.448L66.7988 285.448L66.1982 282.445L46.8477 282.445L46.8477 284.394C46.8477 285.858 47.2285 286.903 47.9902 287.528C48.752 288.144 50.124 288.451 52.1064 288.451L52.1064 290.253ZM57.2041 263.695L64.1035 263.695C65.1387 263.695 65.8467 263.51 66.2275 263.139C66.6084 262.758 66.7988 262.045 66.7988 261L68 261L68 270.302L66.7988 270.302L66.3447 268.207L57.4971 268.207C56.335 268.207 55.5439 268.363 55.124 268.676C54.7041 268.979 54.4941 269.521 54.4941 270.302L53.293 270.302C53.2539 269.423 53.1611 268.495 53.0146 267.519C52.8682 266.532 52.7217 265.78 52.5752 265.263L52.3994 264.457L55.2559 264.149L55.2559 263.856C55.1777 263.798 55.0752 263.72 54.9482 263.622C54.8115 263.515 54.582 263.285 54.2598 262.934C53.9375 262.582 53.6543 262.23 53.4102 261.879C53.1563 261.518 52.9268 261.068 52.7217 260.531C52.5068 259.984 52.3994 259.442 52.3994 258.905C52.3994 258.505 52.4385 258.114 52.5166 257.733C52.5947 257.353 52.6777 257.084 52.7656 256.928L52.8535 256.649L58.2441 256.649L58.2441 259.052L55.4023 260.106C55.4414 260.771 55.6123 261.4 55.915 261.996C56.208 262.592 56.4961 263.021 56.7793 263.285L57.2041 263.695ZM52.2529 239.101L63.1953 239.101C64.3574 239.101 65.1484 238.944 65.5684 238.632C65.9883 238.319 66.1982 237.772 66.1982 236.991L67.3994 236.991C67.4385 237.87 67.5361 238.803 67.6924 239.789C67.8389 240.766 67.9805 241.513 68.1172 242.03L68.293 242.851L65.4512 243.144L65.4512 243.451C65.5293 243.51 65.6367 243.588 65.7734 243.686C65.9004 243.783 66.125 244.003 66.4473 244.345C66.7598 244.687 67.043 245.048 67.2969 245.429C67.541 245.81 67.7705 246.298 67.9854 246.894C68.1904 247.479 68.293 248.08 68.293 248.695C68.293 250.18 67.7705 251.376 66.7256 252.284C65.6709 253.192 64.1963 253.646 62.3018 253.646L57.4971 253.646C56.335 253.646 55.5439 253.803 55.124 254.115C54.7041 254.418 54.4941 254.96 54.4941 255.741L53.293 255.741C53.2539 254.677 53.1465 253.598 52.9707 252.504C52.7949 251.4 52.624 250.57 52.458 250.014L52.2529 249.149L61.9941 249.149C63.9961 249.149 64.9971 248.3 64.9971 246.601C64.9971 246.122 64.8896 245.634 64.6748 245.136C64.4502 244.628 64.2207 244.242 63.9863 243.979L63.6494 243.598L57.4971 243.598C56.335 243.598 55.5439 243.754 55.124 244.066C54.7041 244.369 54.4941 244.911 54.4941 245.692L53.293 245.692C53.2539 244.628 53.1465 243.549 52.9707 242.455C52.7949 241.352 52.624 240.512 52.458 239.936L52.2529 239.101ZM58.4053 210.434L64.1035 210.434C65.207 210.434 65.9346 210.297 66.2861 210.023C66.6279 209.74 66.7988 209.179 66.7988 208.339L68 208.339L68 216.732L66.7988 216.732L66.3447 214.931L58.6982 214.931C56.6963 214.931 55.6953 215.683 55.6953 217.187C55.6953 217.665 55.8076 218.139 56.0322 218.607C56.2471 219.076 56.4766 219.433 56.7207 219.677L57.043 220.043C57.3457 219.945 57.8975 219.892 58.6982 219.882L64.1035 219.882C65.207 219.882 65.9346 219.75 66.2861 219.486C66.6279 219.213 66.7988 218.695 66.7988 217.934L68 217.934L68 226.181L66.7988 226.181L66.3447 224.394L58.6982 224.394C56.6963 224.394 55.6953 225.141 55.6953 226.635C55.6953 227.074 55.7979 227.519 56.0029 227.968C56.1982 228.417 56.3984 228.754 56.6035 228.979L56.8965 229.33L64.1035 229.33C65.207 229.33 65.9346 229.198 66.2861 228.935C66.6279 228.661 66.7988 228.144 66.7988 227.382L68 227.382L68 235.937L66.7988 235.937L66.3447 233.842L57.4971 233.842C56.335 233.842 55.5439 233.998 55.124 234.311C54.7041 234.613 54.4941 235.155 54.4941 235.937L53.293 235.937C53.2539 235.058 53.1611 234.13 53.0146 233.153C52.8682 232.167 52.7217 231.415 52.5752 230.897L52.3994 230.092L55.0947 229.784L55.0947 229.491C55.0166 229.452 54.9189 229.389 54.8018 229.301C54.6846 229.203 54.4697 229.003 54.1572 228.7C53.8447 228.388 53.5713 228.056 53.3369 227.704C53.0928 227.353 52.8779 226.894 52.6924 226.327C52.4971 225.751 52.3994 225.155 52.3994 224.54C52.3994 223.964 52.4971 223.427 52.6924 222.929C52.8779 222.421 53.1025 222.03 53.3662 221.757C53.6201 221.474 53.8789 221.229 54.1426 221.024C54.3965 220.81 54.6162 220.658 54.8018 220.57L55.0947 220.482L55.0947 220.189C55.0166 220.15 54.9189 220.082 54.8018 219.984C54.6846 219.877 54.4697 219.667 54.1572 219.354C53.8447 219.032 53.5713 218.686 53.3369 218.314C53.0928 217.943 52.8779 217.47 52.6924 216.894C52.4971 216.308 52.3994 215.707 52.3994 215.092C52.3994 213.695 52.9121 212.572 53.9375 211.723C54.9531 210.863 56.4424 210.434 58.4053 210.434ZM57.8047 193.485L63.1953 193.485C64.3574 193.485 65.1484 193.329 65.5684 193.017C65.9883 192.704 66.1982 192.162 66.1982 191.391L67.3994 191.391C67.4385 192.27 67.5361 193.197 67.6924 194.174C67.8389 195.15 67.9805 195.902 68.1172 196.43L68.293 197.235L65.4512 197.528L65.4512 197.836C65.5293 197.895 65.6367 197.978 65.7734 198.085C65.9004 198.183 66.125 198.397 66.4473 198.729C66.7598 199.052 67.043 199.398 67.2969 199.77C67.541 200.141 67.7705 200.619 67.9854 201.205C68.1904 201.781 68.293 202.357 68.293 202.934C68.293 204.252 67.9707 205.282 67.3262 206.024C66.6719 206.767 65.8467 207.138 64.8506 207.138C63.9521 207.138 63.1318 206.825 62.3896 206.2C61.6475 205.565 61.0664 204.799 60.6465 203.9C60.2266 202.992 59.875 202.094 59.5918 201.205C59.2988 200.316 59.1035 199.564 59.0059 198.949L58.8447 197.982L58.0977 197.982C55.5977 197.982 54.3477 198.881 54.3477 200.678C54.3477 200.941 54.3818 201.225 54.4502 201.527C54.5186 201.83 54.5967 202.069 54.6846 202.245L54.8018 202.479L58.0977 203.534L58.0977 205.937L53.8936 205.937C53.7764 205.741 53.6396 205.458 53.4834 205.087C53.3174 204.716 53.0977 203.979 52.8242 202.875C52.541 201.771 52.3994 200.692 52.3994 199.638C52.3994 197.655 52.8828 196.137 53.8496 195.082C54.8066 194.018 56.125 193.485 57.8047 193.485ZM65.1436 200.839C65.1436 200.36 65.0215 199.882 64.7773 199.403C64.5234 198.915 64.2793 198.563 64.0449 198.349L63.6494 197.982L60.5 197.982C60.5195 198.1 60.5488 198.261 60.5879 198.466C60.627 198.661 60.7393 199.022 60.9248 199.55C61.1006 200.067 61.2959 200.526 61.5107 200.927C61.7158 201.327 62.0137 201.688 62.4043 202.011C62.7949 202.323 63.21 202.479 63.6494 202.479C64.1084 202.479 64.4746 202.338 64.748 202.055C65.0117 201.762 65.1436 201.356 65.1436 200.839ZM58.4053 173.666L64.1035 173.666C65.207 173.666 65.9346 173.529 66.2861 173.256C66.6279 172.973 66.7988 172.411 66.7988 171.571L68 171.571L68 180.272L66.7988 180.272L66.3447 178.178L58.6982 178.178C56.6963 178.178 55.6953 179.027 55.6953 180.727C55.6953 181.205 55.8076 181.693 56.0322 182.191C56.2471 182.689 56.4766 183.07 56.7207 183.334L57.043 183.715L64.1035 183.715C65.207 183.715 65.9346 183.578 66.2861 183.305C66.6279 183.021 66.7988 182.46 66.7988 181.62L68 181.62L68 190.321L66.7988 190.321L66.3447 188.227L57.4971 188.227C56.335 188.227 55.5439 188.383 55.124 188.695C54.7041 188.998 54.4941 189.54 54.4941 190.321L53.293 190.321C53.2539 189.442 53.1611 188.515 53.0146 187.538C52.8682 186.552 52.7217 185.8 52.5752 185.282L52.3994 184.477L55.2559 184.169L55.2559 183.876C55.1777 183.817 55.0752 183.739 54.9482 183.642C54.8115 183.534 54.582 183.31 54.2598 182.968C53.9375 182.626 53.6543 182.27 53.4102 181.898C53.1563 181.518 52.9268 181.034 52.7217 180.448C52.5068 179.853 52.3994 179.242 52.3994 178.617C52.3994 177.133 52.9268 175.937 53.9814 175.028C55.0264 174.12 56.501 173.666 58.4053 173.666ZM66.5059 148.764C66.5059 145.482 64.6553 143.383 60.9541 142.465L60.9541 140.824L66.6523 141.571C66.7891 141.815 66.96 142.152 67.165 142.582C67.3604 143.012 67.624 143.905 67.9561 145.263C68.2881 146.62 68.4541 147.987 68.4541 149.364C68.4541 152.88 67.3848 155.712 65.2461 157.86C63.0977 159.999 60.2656 161.068 56.75 161.068C53.1465 161.068 50.1973 159.911 47.9023 157.597C45.5977 155.272 44.4453 152.279 44.4453 148.617C44.4453 147.416 44.5723 146.234 44.8262 145.072C45.0801 143.9 45.3242 143.021 45.5586 142.436L45.9541 141.571L51.9453 141.571L51.9453 143.227C50.1484 143.451 48.7764 144.037 47.8291 144.984C46.8721 145.932 46.3936 147.191 46.3936 148.764C46.3936 150.824 47.209 152.489 48.8398 153.759C50.4707 155.028 52.9072 155.663 56.1494 155.663C59.6455 155.663 62.248 155.033 63.957 153.773C65.6563 152.514 66.5059 150.844 66.5059 148.764ZM57.8047 125.692L63.1953 125.692C64.3574 125.692 65.1484 125.536 65.5684 125.224C65.9883 124.911 66.1982 124.369 66.1982 123.598L67.3994 123.598C67.4385 124.477 67.5361 125.404 67.6924 126.381C67.8389 127.357 67.9805 128.109 68.1172 128.637L68.293 129.442L65.4512 129.735L65.4512 130.043C65.5293 130.102 65.6367 130.185 65.7734 130.292C65.9004 130.39 66.125 130.604 66.4473 130.937C66.7598 131.259 67.043 131.605 67.2969 131.977C67.541 132.348 67.7705 132.826 67.9854 133.412C68.1904 133.988 68.293 134.564 68.293 135.141C68.293 136.459 67.9707 137.489 67.3262 138.231C66.6719 138.974 65.8467 139.345 64.8506 139.345C63.9522 139.345 63.1318 139.032 62.3897 138.407C61.6475 137.772 61.0664 137.006 60.6465 136.107C60.2266 135.199 59.875 134.301 59.5918 133.412C59.2988 132.523 59.1035 131.771 59.0059 131.156L58.8447 130.189L58.0977 130.189C55.5977 130.189 54.3477 131.088 54.3477 132.885C54.3477 133.148 54.3818 133.432 54.4502 133.734C54.5186 134.037 54.5967 134.276 54.6846 134.452L54.8018 134.687L58.0977 135.741L58.0977 138.144L53.8936 138.144C53.7764 137.948 53.6397 137.665 53.4834 137.294C53.3174 136.923 53.0977 136.186 52.8242 135.082C52.541 133.979 52.3994 132.899 52.3994 131.845C52.3994 129.862 52.8828 128.344 53.8496 127.289C54.8066 126.225 56.125 125.692 57.8047 125.692ZM65.1436 133.046C65.1436 132.567 65.0215 132.089 64.7773 131.61C64.5234 131.122 64.2793 130.771 64.0449 130.556L63.6494 130.189L60.5 130.189C60.5195 130.307 60.5488 130.468 60.5879 130.673C60.627 130.868 60.7393 131.229 60.9248 131.757C61.1006 132.274 61.2959 132.733 61.5107 133.134C61.7158 133.534 62.0137 133.896 62.4043 134.218C62.7949 134.53 63.21 134.687 63.6494 134.687C64.1084 134.687 64.4746 134.545 64.748 134.262C65.0117 133.969 65.1436 133.563 65.1436 133.046ZM67.8535 116.083L71.0029 116.083C72.0674 116.083 72.7803 115.883 73.1416 115.482C73.5127 115.082 73.6982 114.281 73.6982 113.08L74.8994 113.08L74.8994 122.675L73.6982 122.675L73.2441 120.58L57.4971 120.58C56.335 120.58 55.5439 120.736 55.124 121.049C54.7041 121.352 54.4941 121.894 54.4941 122.675L53.293 122.675C53.2539 121.796 53.1611 120.868 53.0147 119.892C52.8682 118.905 52.7217 118.144 52.5752 117.606L52.3994 116.83L55.2559 116.522L55.2559 116.229C55.1777 116.171 55.0752 116.093 54.9482 115.995C54.8115 115.888 54.582 115.673 54.2598 115.351C53.9375 115.019 53.6543 114.667 53.4102 114.296C53.1563 113.925 52.9268 113.451 52.7217 112.875C52.5068 112.289 52.3994 111.708 52.3994 111.132C52.3994 109.569 53.0586 108.231 54.377 107.118C55.6953 105.995 57.4385 105.434 59.6064 105.434C62.2041 105.434 64.3037 106.205 65.9053 107.748C67.4971 109.281 68.293 111.259 68.293 113.681C68.293 114.081 68.2539 114.481 68.1758 114.882C68.0977 115.282 68.0195 115.58 67.9414 115.775L67.8535 116.083ZM66.3447 113.534C66.3447 112.558 65.8662 111.737 64.9092 111.073C63.9522 110.409 62.4824 110.077 60.5 110.077C58.8594 110.077 57.6484 110.365 56.8672 110.941C56.0859 111.508 55.6953 112.27 55.6953 113.227C55.6953 113.705 55.8076 114.188 56.0322 114.677C56.2471 115.155 56.4766 115.512 56.7207 115.746L57.043 116.083L64.9971 116.083C65.0947 116.005 65.2217 115.897 65.3779 115.761C65.5244 115.614 65.7246 115.316 65.9785 114.867C66.2227 114.418 66.3447 113.974 66.3447 113.534ZM60.0459 98.5342C64.3428 98.5342 66.4961 97.333 66.5059 94.9307C66.5059 94.0127 66.0225 93.2363 65.0557 92.6016C64.0791 91.957 62.6094 91.6348 60.6465 91.6348C56.3496 91.6348 54.2012 92.8311 54.2012 95.2236C54.2012 96.1416 54.6846 96.9229 55.6514 97.5674C56.6182 98.2119 58.083 98.5342 60.0459 98.5342ZM60.207 86.8301C62.4824 86.8301 64.4014 87.6406 65.9639 89.2617C67.5166 90.8828 68.293 92.9238 68.293 95.3848C68.293 97.709 67.5605 99.6133 66.0957 101.098C64.6211 102.582 62.7559 103.324 60.5 103.324C58.2246 103.324 56.3057 102.519 54.7432 100.907C53.1807 99.2861 52.3994 97.2451 52.3994 94.7842C52.3994 92.46 53.1367 90.5557 54.6113 89.0713C56.0859 87.5771 57.9512 86.8301 60.207 86.8301ZM54.6553 85.3213L53.1465 85.3213L52.707 82.9189L48.7959 82.9189L47.5947 79.3301L47.5947 78.4219L52.707 78.4219L52.707 73.6318L55.0947 73.6318L55.0947 75.2725L54.3477 78.4219L63.1953 78.4219C64.5918 78.4219 65.2949 77.7236 65.3047 76.3271C65.3047 75.8486 65.2314 75.3848 65.085 74.9355C64.9287 74.4863 64.7822 74.1592 64.6455 73.9541L64.3965 73.6318L65.3047 73.0313C65.3828 73.0898 65.4951 73.168 65.6416 73.2656C65.7783 73.3633 66.0176 73.583 66.3594 73.9248C66.6914 74.2666 66.9893 74.6279 67.2529 75.0088C67.5068 75.3896 67.7461 75.8779 67.9707 76.4736C68.1855 77.0596 68.293 77.6602 68.293 78.2754C68.293 79.7793 67.8975 80.9316 67.1064 81.7324C66.3057 82.5234 65.1533 82.9189 63.6494 82.9189L54.6553 82.9189L54.6553 85.3213ZM54.3477 63.7148C54.3477 64.4375 54.6943 65.0625 55.3877 65.5898C56.0713 66.1172 57.126 66.4932 58.5518 66.7178L58.0977 61.459L57.3506 61.459C56.4131 61.459 55.6807 61.6738 55.1533 62.1035C54.6162 62.5332 54.3477 63.0703 54.3477 63.7148ZM52.3994 63.4072C52.3994 61.3857 52.9658 59.8037 54.0986 58.6611C55.2217 57.5088 56.8037 56.8936 58.8447 56.8154L60.207 58.3096L60.207 66.7178C61.8477 66.6396 63.083 66.2051 63.9131 65.4141C64.7334 64.623 65.1436 63.5049 65.1436 62.0596C65.1436 61.2588 65.0361 60.502 64.8213 59.7891C64.5967 59.0664 64.377 58.5439 64.1621 58.2217L63.7959 57.709L64.543 56.9619C64.6406 57.0205 64.7773 57.1084 64.9531 57.2256C65.1289 57.333 65.4316 57.5967 65.8613 58.0166C66.291 58.4365 66.6719 58.8857 67.0039 59.3643C67.3262 59.8428 67.624 60.4873 67.8975 61.2979C68.1611 62.1084 68.293 62.9629 68.293 63.8613C68.293 66.0391 67.5654 67.8604 66.1104 69.3252C64.6455 70.7803 62.8242 71.5078 60.6465 71.5078C58.3223 71.5078 56.3691 70.7217 54.7871 69.1494C53.1953 67.5771 52.3994 65.6631 52.3994 63.4072Z" fill="#ED1C24"/>
</svg>
