<svg width="268" height="85" viewBox="0 0 268 85" fill="none" xmlns="http://www.w3.org/2000/svg">
<rect x="0.5" y="0.5" width="267" height="84" fill="white" stroke="#ED1C24"/>
<path d="M13.7861 14.7275C13.417 14.7275 13.0361 14.6836 12.6436 14.5957C12.2568 14.5078 11.9609 14.4141 11.7559 14.3145L11.4482 14.1914V12.3018H12.292L12.8018 13.7432C13.042 13.8604 13.3057 13.9189 13.5928 13.9189C14.0967 13.9189 14.4805 13.793 14.7441 13.541C15.0078 13.2891 15.1396 12.9346 15.1396 12.4775C15.1396 12.0791 15.0195 11.7568 14.7793 11.5107C14.5391 11.2588 14.2402 11.1328 13.8828 11.1328C13.7773 11.1328 13.6719 11.1475 13.5664 11.1768C13.4609 11.2061 13.3848 11.2324 13.3379 11.2559L13.25 11.3086L12.8018 10.6758L15.1396 8.69824V8.61035H13.6104C13.165 8.61035 12.8398 8.7041 12.6348 8.8916C12.4355 9.07324 12.3096 9.36914 12.2568 9.7793H11.6328V7.44141H16.9414V8.25L14.5068 10.2803V10.377C14.5186 10.377 14.5889 10.3682 14.7178 10.3506C14.8525 10.333 14.9756 10.3242 15.0869 10.3242C15.6963 10.3242 16.1855 10.5146 16.5547 10.8955C16.9297 11.2705 17.1172 11.7686 17.1172 12.3896C17.1172 13.0518 16.8213 13.6084 16.2295 14.0596C15.6436 14.5049 14.8291 14.7275 13.7861 14.7275ZM20 10.9482C20 12.9287 20.5127 13.9189 21.5381 13.9189C22.4404 13.9189 22.8887 12.958 22.8828 11.0361C22.8828 9.05566 22.373 8.06836 21.3535 8.07422C20.4512 8.06836 20 9.02637 20 10.9482ZM24.7725 10.8604C24.7725 12.0498 24.459 12.9932 23.832 13.6904C23.2109 14.3818 22.4141 14.7275 21.4414 14.7275C20.4805 14.7275 19.6836 14.3965 19.0508 13.7344C18.4238 13.0664 18.1104 12.1992 18.1104 11.1328C18.1104 9.94336 18.4209 9 19.042 8.30273C19.6689 7.60547 20.4688 7.25684 21.4414 7.25684C22.4023 7.25684 23.1963 7.59082 23.8232 8.25879C24.4561 8.92676 24.7725 9.79395 24.7725 10.8604ZM41.6914 24H31.0742V23.3672L32.6035 23.0068V12.75C32.6035 11.9473 32.5068 11.4316 32.3135 11.2031C32.1201 10.9746 31.707 10.8604 31.0742 10.8604V10.1396H41.6035V13.8311H40.6982C40.6982 12.835 40.5283 12.1377 40.1885 11.7393C39.8486 11.335 39.2686 11.1328 38.4482 11.1328H35.0293V16.3535H37.1035C37.7773 16.3535 38.2139 16.248 38.4131 16.0371C38.6182 15.8262 38.7207 15.3604 38.7207 14.6396H39.6172V19.2275H38.7207C38.7207 18.4717 38.6094 17.9678 38.3867 17.7158C38.1641 17.4639 37.7363 17.3379 37.1035 17.3379H35.0293V23.0068H38.1846C39.1338 23.0068 39.8193 22.79 40.2412 22.3564C40.6689 21.917 40.9736 21.1143 41.1553 19.9482H42.0518L41.6914 24ZM46.9209 17.4258V21.8379C46.9209 22.4238 47.0322 22.8252 47.2549 23.042C47.4834 23.2588 47.9111 23.3672 48.5381 23.3672V24H43.3174V23.3672L44.5742 23.1035V17.6104C44.5742 16.9482 44.4805 16.4971 44.293 16.2568C44.1113 16.0166 43.7861 15.8965 43.3174 15.8965V15.2725C43.8447 15.2256 44.3779 15.1582 44.917 15.0703C45.4561 14.9766 45.8633 14.8945 46.1387 14.8242L46.5605 14.7275L46.7363 16.4414H46.8242C46.8594 16.3945 46.9062 16.333 46.9648 16.2568C47.0293 16.1748 47.167 16.0371 47.3779 15.8438C47.5889 15.6504 47.7998 15.4805 48.0107 15.334C48.2275 15.1816 48.4971 15.0439 48.8193 14.9209C49.1475 14.792 49.4727 14.7275 49.7949 14.7275C50.0352 14.7275 50.2695 14.751 50.498 14.7979C50.7266 14.8389 50.8877 14.8828 50.9814 14.9297L51.1484 15V18.0586H49.9795L49.3467 16.2568C48.9131 16.2568 48.4941 16.3535 48.0898 16.5469C47.6914 16.7402 47.3955 16.9336 47.2021 17.127L46.9209 17.4258ZM55.376 17.4258V21.8379C55.376 22.4238 55.4873 22.8252 55.71 23.042C55.9385 23.2588 56.3662 23.3672 56.9932 23.3672V24H51.7725V23.3672L53.0293 23.1035V17.6104C53.0293 16.9482 52.9355 16.4971 52.748 16.2568C52.5664 16.0166 52.2412 15.8965 51.7725 15.8965V15.2725C52.2998 15.2256 52.833 15.1582 53.3721 15.0703C53.9111 14.9766 54.3184 14.8945 54.5938 14.8242L55.0156 14.7275L55.1914 16.4414H55.2793C55.3145 16.3945 55.3613 16.333 55.4199 16.2568C55.4844 16.1748 55.6221 16.0371 55.833 15.8438C56.0439 15.6504 56.2549 15.4805 56.4658 15.334C56.6826 15.1816 56.9521 15.0439 57.2744 14.9209C57.6025 14.792 57.9277 14.7275 58.25 14.7275C58.4902 14.7275 58.7246 14.751 58.9531 14.7979C59.1816 14.8389 59.3428 14.8828 59.4365 14.9297L59.6035 15V18.0586H58.4346L57.8018 16.2568C57.3682 16.2568 56.9492 16.3535 56.5449 16.5469C56.1465 16.7402 55.8506 16.9336 55.6572 17.127L55.376 17.4258ZM68.1465 17.8828V21.3018C68.1465 21.9639 68.2402 22.415 68.4277 22.6553C68.6152 22.8896 68.9404 23.0068 69.4033 23.0068V23.6396C68.876 23.6865 68.3428 23.7568 67.8037 23.8506C67.2646 23.9385 66.8574 24.0117 66.582 24.0703L66.1689 24.1758L65.9844 22.4707H65.8965C65.8613 22.5176 65.8115 22.582 65.7471 22.6641C65.6885 22.7402 65.5596 22.875 65.3604 23.0684C65.167 23.2559 64.959 23.4258 64.7363 23.5781C64.5137 23.7246 64.2266 23.8623 63.875 23.9912C63.5293 24.1143 63.1836 24.1758 62.8379 24.1758C62.0938 24.1758 61.502 23.9824 61.0625 23.5957C60.623 23.2031 60.4033 22.708 60.4033 22.1104C60.4033 21.5947 60.5879 21.1201 60.957 20.6865C61.332 20.2529 61.7832 19.9131 62.3105 19.667C62.8438 19.4209 63.374 19.2129 63.9014 19.043C64.4287 18.8672 64.877 18.75 65.2461 18.6914L65.8086 18.6035V18.0586C65.8086 16.5 65.2373 15.7207 64.0947 15.7207C63.9014 15.7207 63.708 15.7441 63.5146 15.791C63.3271 15.8379 63.1807 15.8848 63.0752 15.9316L62.9258 15.9932L62.293 17.9707H61.0361V15.6328C61.1533 15.5625 61.3203 15.4805 61.5371 15.3867C61.7539 15.2871 62.1875 15.1523 62.8379 14.9824C63.4883 14.8125 64.1182 14.7275 64.7275 14.7275C65.7939 14.7275 66.6289 15.0146 67.2324 15.5889C67.8418 16.1572 68.1465 16.9219 68.1465 17.8828ZM63.9189 22.4707C64.2412 22.4707 64.5576 22.3975 64.8682 22.251C65.1846 22.0986 65.4189 21.9492 65.5713 21.8027L65.8086 21.5742V19.5C65.7266 19.5117 65.6182 19.5293 65.4834 19.5527C65.3486 19.5762 65.1113 19.6436 64.7715 19.7549C64.4316 19.8604 64.1328 19.9834 63.875 20.124C63.6172 20.2588 63.3799 20.4463 63.1631 20.6865C62.9463 20.9268 62.8379 21.1904 62.8379 21.4775C62.8379 22.1396 63.1982 22.4707 63.9189 22.4707ZM73.6396 17.4258V21.8379C73.6396 22.4238 73.751 22.8252 73.9736 23.042C74.2021 23.2588 74.6299 23.3672 75.2568 23.3672V24H70.0361V23.3672L71.293 23.1035V17.6104C71.293 16.9482 71.1992 16.4971 71.0117 16.2568C70.8301 16.0166 70.5049 15.8965 70.0361 15.8965V15.2725C70.5635 15.2256 71.0967 15.1582 71.6357 15.0703C72.1748 14.9766 72.582 14.8945 72.8574 14.8242L73.2793 14.7275L73.4551 16.4414H73.543C73.5781 16.3945 73.625 16.333 73.6836 16.2568C73.748 16.1748 73.8857 16.0371 74.0967 15.8438C74.3076 15.6504 74.5186 15.4805 74.7295 15.334C74.9463 15.1816 75.2158 15.0439 75.5381 14.9209C75.8662 14.792 76.1914 14.7275 76.5137 14.7275C76.7539 14.7275 76.9883 14.751 77.2168 14.7979C77.4453 14.8389 77.6064 14.8828 77.7002 14.9297L77.8672 15V18.0586H76.6982L76.0654 16.2568C75.6318 16.2568 75.2129 16.3535 74.8086 16.5469C74.4102 16.7402 74.1143 16.9336 73.9209 17.127L73.6396 17.4258ZM87.9395 15.7207C87.459 15.7207 87.04 15.9404 86.6826 16.3799C86.3311 16.8135 86.0908 17.4639 85.9619 18.3311L89.3809 18.0586C89.3809 16.5 88.9004 15.7207 87.9395 15.7207ZM88.1152 14.7275C89.2461 14.7275 90.1309 15.0557 90.7695 15.7119C91.4141 16.3682 91.7598 17.2998 91.8066 18.5068L90.9102 19.2275H85.8652V19.3242C85.8652 20.2969 86.1377 21.0791 86.6826 21.6709C87.2334 22.2627 87.9219 22.5586 88.748 22.5586C89.252 22.5586 89.7295 22.4941 90.1807 22.3652C90.6318 22.2305 90.9512 22.0928 91.1387 21.9521L91.4463 21.75L91.8066 22.1104C91.7715 22.1689 91.7188 22.2451 91.6484 22.3389C91.5781 22.4268 91.4199 22.5908 91.1738 22.8311C90.9277 23.0713 90.6611 23.2822 90.374 23.4639C90.0928 23.6396 89.7236 23.8037 89.2666 23.9561C88.8154 24.1025 88.3438 24.1758 87.8516 24.1758C86.5801 24.1758 85.5254 23.748 84.6875 22.8926C83.8555 22.0371 83.4395 20.9385 83.4395 19.5967C83.4395 18.249 83.8994 17.1006 84.8193 16.1514C85.7451 15.2021 86.8438 14.7275 88.1152 14.7275ZM88.0273 13.5586H87.4912V12.8379L89.293 10.2275H90.9102V11.2734L88.0273 13.5586ZM107.469 18.3311V21.8379C107.469 22.459 107.554 22.8691 107.724 23.0684C107.894 23.2676 108.23 23.3672 108.734 23.3672V24H103.874V23.3672L105.131 23.1035V18.4189C105.131 17.71 104.996 17.2031 104.727 16.8984C104.457 16.5938 104.023 16.4414 103.426 16.4414C103.104 16.4414 102.775 16.5176 102.441 16.6699C102.113 16.8164 101.864 16.9688 101.694 17.127L101.439 17.3379V21.8379C101.439 22.459 101.524 22.8691 101.694 23.0684C101.864 23.2676 102.201 23.3672 102.705 23.3672V24H97.8447V23.3672L99.1016 23.1035V12.3896C99.1016 11.7275 99.0078 11.2764 98.8203 11.0361C98.6387 10.7959 98.3135 10.6758 97.8447 10.6758V10.0518C98.4072 10.0049 98.9873 9.92871 99.585 9.82324C100.188 9.71191 100.646 9.6123 100.956 9.52441L101.439 9.41895V16.2568H101.536C101.571 16.2217 101.618 16.1689 101.677 16.0986C101.735 16.0283 101.864 15.9053 102.063 15.7295C102.263 15.5537 102.474 15.3984 102.696 15.2637C102.919 15.123 103.203 15 103.549 14.8945C103.895 14.7832 104.243 14.7275 104.595 14.7275C105.485 14.7275 106.186 15.0352 106.695 15.6504C107.211 16.2598 107.469 17.1533 107.469 18.3311ZM118.719 21.3018C118.719 21.9639 118.812 22.415 119 22.6553C119.188 22.8896 119.516 23.0068 119.984 23.0068V23.6396C119.457 23.6865 118.921 23.7568 118.376 23.8506C117.837 23.9385 117.43 24.0117 117.154 24.0703L116.741 24.1758L116.565 22.4707H116.469C116.434 22.5176 116.384 22.582 116.319 22.6641C116.255 22.7402 116.114 22.875 115.897 23.0684C115.681 23.2559 115.455 23.4258 115.221 23.5781C114.986 23.7246 114.688 23.8623 114.324 23.9912C113.967 24.1143 113.604 24.1758 113.234 24.1758C112.344 24.1758 111.641 23.8711 111.125 23.2617C110.609 22.6523 110.352 21.7588 110.352 20.5811V17.6104C110.352 16.9482 110.258 16.4971 110.07 16.2568C109.889 16.0166 109.563 15.8965 109.095 15.8965V15.2725C109.657 15.2256 110.237 15.1494 110.835 15.0439C111.438 14.9326 111.896 14.833 112.206 14.7451L112.689 14.6396V20.4932C112.689 21.2021 112.824 21.709 113.094 22.0137C113.363 22.3184 113.8 22.4707 114.403 22.4707C114.726 22.4707 115.051 22.3975 115.379 22.251C115.713 22.0986 115.962 21.9492 116.126 21.8027L116.381 21.5742V17.6104C116.381 16.9482 116.287 16.4971 116.1 16.2568C115.918 16.0166 115.593 15.8965 115.124 15.8965V15.2725C115.687 15.2256 116.267 15.1494 116.864 15.0439C117.468 14.9326 117.931 14.833 118.253 14.7451L118.719 14.6396V21.3018ZM135.55 18.4189V21.8379C135.55 22.459 135.632 22.8691 135.796 23.0684C135.966 23.2676 136.303 23.3672 136.807 23.3672V24H132.131V23.3672L133.212 23.1035V18.4189C133.212 17.7568 133.065 17.2617 132.772 16.9336C132.485 16.6055 132.09 16.4414 131.586 16.4414C131.287 16.4414 130.988 16.5088 130.689 16.6436C130.391 16.7725 130.162 16.9072 130.004 17.0479L129.784 17.25C129.843 17.4902 129.875 17.8799 129.881 18.4189V21.8379C129.881 22.459 129.96 22.8691 130.118 23.0684C130.282 23.2676 130.593 23.3672 131.05 23.3672V24H126.462V23.3672L127.534 23.1035V18.4189C127.534 17.7568 127.391 17.2617 127.104 16.9336C126.816 16.6055 126.421 16.4414 125.917 16.4414C125.653 16.4414 125.378 16.5088 125.091 16.6436C124.804 16.7725 124.581 16.9072 124.423 17.0479L124.212 17.25V21.8379C124.212 22.459 124.291 22.8691 124.449 23.0684C124.613 23.2676 124.924 23.3672 125.381 23.3672V24H120.608V23.3672L121.865 23.1035V17.6104C121.865 16.9482 121.771 16.4971 121.584 16.2568C121.402 16.0166 121.077 15.8965 120.608 15.8965V15.2725C121.136 15.2256 121.669 15.1582 122.208 15.0703C122.747 14.9766 123.154 14.8945 123.43 14.8242L123.852 14.7275L124.027 16.2568H124.115C124.15 16.2217 124.197 16.1689 124.256 16.0986C124.32 16.0283 124.452 15.9053 124.651 15.7295C124.851 15.5537 125.056 15.3984 125.267 15.2637C125.483 15.123 125.756 15 126.084 14.8945C126.418 14.7832 126.752 14.7275 127.086 14.7275C127.426 14.7275 127.739 14.7832 128.026 14.8945C128.313 15 128.545 15.1289 128.721 15.2812C128.902 15.4277 129.055 15.5742 129.178 15.7207C129.307 15.8613 129.397 15.9873 129.45 16.0986L129.521 16.2568H129.608C129.644 16.2217 129.69 16.1689 129.749 16.0986C129.813 16.0283 129.945 15.9053 130.145 15.7295C130.35 15.5537 130.566 15.3984 130.795 15.2637C131.023 15.123 131.313 15 131.665 14.8945C132.022 14.7832 132.386 14.7275 132.755 14.7275C133.604 14.7275 134.281 15.041 134.785 15.668C135.295 16.2891 135.55 17.2061 135.55 18.4189ZM145.35 17.8828V21.3018C145.35 21.9639 145.443 22.415 145.631 22.6553C145.818 22.8896 146.144 23.0068 146.606 23.0068V23.6396C146.079 23.6865 145.546 23.7568 145.007 23.8506C144.468 23.9385 144.061 24.0117 143.785 24.0703L143.372 24.1758L143.188 22.4707H143.1C143.064 22.5176 143.015 22.582 142.95 22.6641C142.892 22.7402 142.763 22.875 142.563 23.0684C142.37 23.2559 142.162 23.4258 141.939 23.5781C141.717 23.7246 141.43 23.8623 141.078 23.9912C140.732 24.1143 140.387 24.1758 140.041 24.1758C139.297 24.1758 138.705 23.9824 138.266 23.5957C137.826 23.2031 137.606 22.708 137.606 22.1104C137.606 21.5947 137.791 21.1201 138.16 20.6865C138.535 20.2529 138.986 19.9131 139.514 19.667C140.047 19.4209 140.577 19.2129 141.104 19.043C141.632 18.8672 142.08 18.75 142.449 18.6914L143.012 18.6035V18.0586C143.012 16.5 142.44 15.7207 141.298 15.7207C141.104 15.7207 140.911 15.7441 140.718 15.791C140.53 15.8379 140.384 15.8848 140.278 15.9316L140.129 15.9932L139.496 17.9707H138.239V15.6328C138.356 15.5625 138.523 15.4805 138.74 15.3867C138.957 15.2871 139.391 15.1523 140.041 14.9824C140.691 14.8125 141.321 14.7275 141.931 14.7275C142.997 14.7275 143.832 15.0146 144.436 15.5889C145.045 16.1572 145.35 16.9219 145.35 17.8828ZM141.122 22.4707C141.444 22.4707 141.761 22.3975 142.071 22.251C142.388 22.0986 142.622 21.9492 142.774 21.8027L143.012 21.5742V19.5C142.93 19.5117 142.821 19.5293 142.687 19.5527C142.552 19.5762 142.314 19.6436 141.975 19.7549C141.635 19.8604 141.336 19.9834 141.078 20.124C140.82 20.2588 140.583 20.4463 140.366 20.6865C140.149 20.9268 140.041 21.1904 140.041 21.4775C140.041 22.1396 140.401 22.4707 141.122 22.4707ZM156.872 18.3311V21.8379C156.872 22.459 156.954 22.8691 157.118 23.0684C157.288 23.2676 157.625 23.3672 158.129 23.3672V24H153.269V23.3672L154.525 23.1035V18.4189C154.525 17.71 154.391 17.2031 154.121 16.8984C153.852 16.5938 153.418 16.4414 152.82 16.4414C152.498 16.4414 152.17 16.5176 151.836 16.6699C151.508 16.8164 151.259 16.9688 151.089 17.127L150.843 17.3379V21.8379C150.843 22.459 150.925 22.8691 151.089 23.0684C151.259 23.2676 151.596 23.3672 152.1 23.3672V24H147.239V23.3672L148.496 23.1035V17.6104C148.496 16.9482 148.402 16.4971 148.215 16.2568C148.033 16.0166 147.708 15.8965 147.239 15.8965V15.2725C147.767 15.2256 148.3 15.1582 148.839 15.0703C149.378 14.9766 149.785 14.8945 150.061 14.8242L150.482 14.7275L150.658 16.4414H150.746C150.781 16.3945 150.831 16.333 150.896 16.2568C150.966 16.1748 151.109 16.0371 151.326 15.8438C151.543 15.6504 151.769 15.4805 152.003 15.334C152.237 15.1816 152.533 15.0439 152.891 14.9209C153.248 14.792 153.614 14.7275 153.989 14.7275C154.88 14.7275 155.583 15.0352 156.099 15.6504C156.614 16.2598 156.872 17.1533 156.872 18.3311ZM166.224 19.5879C166.224 18.2812 165.989 17.2969 165.521 16.6348C165.052 15.9668 164.475 15.6328 163.789 15.6328C163.191 15.6328 162.667 15.9551 162.216 16.5996C161.765 17.2383 161.539 18.1465 161.539 19.3242C161.539 20.6309 161.773 21.6182 162.242 22.2861C162.711 22.9482 163.288 23.2793 163.974 23.2793C164.571 23.2793 165.096 22.96 165.547 22.3213C165.998 21.6768 166.224 20.7656 166.224 19.5879ZM168.649 19.4121C168.649 20.7656 168.181 21.8994 167.243 22.8135C166.312 23.7217 165.131 24.1758 163.701 24.1758C162.348 24.1758 161.243 23.7451 160.388 22.8838C159.538 22.0225 159.113 20.8945 159.113 19.5C159.113 18.1465 159.579 17.0127 160.511 16.0986C161.448 15.1846 162.632 14.7275 164.062 14.7275C165.415 14.7275 166.517 15.1611 167.366 16.0283C168.222 16.8896 168.649 18.0176 168.649 19.4121ZM170.601 23.7627C170.325 23.4873 170.188 23.1475 170.188 22.7432C170.188 22.333 170.325 21.9902 170.601 21.7148C170.876 21.4395 171.219 21.3018 171.629 21.3018C172.039 21.3018 172.382 21.4395 172.657 21.7148C172.933 21.9902 173.07 22.333 173.07 22.7432C173.07 23.1475 172.933 23.4873 172.657 23.7627C172.382 24.0381 172.039 24.1758 171.629 24.1758C171.219 24.1758 170.876 24.0381 170.601 23.7627ZM186.482 23.2793C187.684 23.2793 188.674 22.7666 189.453 21.7412C190.232 20.7158 190.622 19.2188 190.622 17.25C190.622 15.1289 190.244 13.5352 189.488 12.4688C188.732 11.3965 187.789 10.8604 186.658 10.8604C185.457 10.8604 184.467 11.373 183.688 12.3984C182.908 13.4238 182.519 14.9209 182.519 16.8896C182.519 19.0107 182.896 20.6074 183.652 21.6797C184.408 22.7461 185.352 23.2793 186.482 23.2793ZM186.21 24.2725C184.353 24.2725 182.823 23.6279 181.622 22.3389C180.421 21.0439 179.82 19.3477 179.82 17.25C179.82 15.0996 180.494 13.333 181.842 11.9502C183.195 10.5615 184.892 9.86719 186.931 9.86719C188.788 9.86719 190.317 10.5146 191.519 11.8096C192.72 13.0986 193.32 14.792 193.32 16.8896C193.32 19.04 192.644 20.8096 191.29 22.1982C189.942 23.5811 188.249 24.2725 186.21 24.2725ZM203.129 23.9121V25.9775C203.129 26.5635 203.252 26.9648 203.498 27.1816C203.744 27.3984 204.222 27.5068 204.931 27.5068V28.1396H199.534V27.5068L200.791 27.2432V17.6104C200.791 16.9482 200.697 16.4971 200.51 16.2568C200.328 16.0166 200.003 15.8965 199.534 15.8965V15.2725C200.062 15.2256 200.595 15.1582 201.134 15.0703C201.673 14.9766 202.08 14.8945 202.355 14.8242L202.769 14.7275L202.953 16.4414H203.041C203.076 16.3945 203.123 16.333 203.182 16.2568C203.246 16.1748 203.381 16.0371 203.586 15.8438C203.797 15.6504 204.017 15.4805 204.245 15.334C204.474 15.1816 204.755 15.0439 205.089 14.9209C205.429 14.792 205.766 14.7275 206.1 14.7275C207.037 14.7275 207.84 15.126 208.508 15.9229C209.182 16.7139 209.519 17.7568 209.519 19.0518C209.519 20.6221 209.064 21.8701 208.156 22.7959C207.254 23.7158 206.059 24.1758 204.57 24.1758C204.33 24.1758 204.09 24.1523 203.85 24.1055C203.609 24.0586 203.431 24.0117 203.313 23.9648L203.129 23.9121ZM204.843 23.1914C205.481 23.1914 206.015 22.8838 206.442 22.2686C206.876 21.6475 207.093 20.7246 207.093 19.5C207.093 17.4609 206.401 16.4414 205.019 16.4414C204.731 16.4414 204.43 16.5176 204.113 16.6699C203.797 16.8164 203.554 16.9688 203.384 17.127L203.129 17.3379V22.2861C203.176 22.3564 203.249 22.4414 203.349 22.541C203.454 22.6348 203.656 22.7666 203.955 22.9365C204.26 23.1064 204.556 23.1914 204.843 23.1914ZM218.527 17.8828V21.3018C218.527 21.9639 218.621 22.415 218.809 22.6553C218.996 22.8896 219.321 23.0068 219.784 23.0068V23.6396C219.257 23.6865 218.724 23.7568 218.185 23.8506C217.646 23.9385 217.238 24.0117 216.963 24.0703L216.55 24.1758L216.365 22.4707H216.277C216.242 22.5176 216.192 22.582 216.128 22.6641C216.069 22.7402 215.94 22.875 215.741 23.0684C215.548 23.2559 215.34 23.4258 215.117 23.5781C214.895 23.7246 214.607 23.8623 214.256 23.9912C213.91 24.1143 213.564 24.1758 213.219 24.1758C212.475 24.1758 211.883 23.9824 211.443 23.5957C211.004 23.2031 210.784 22.708 210.784 22.1104C210.784 21.5947 210.969 21.1201 211.338 20.6865C211.713 20.2529 212.164 19.9131 212.691 19.667C213.225 19.4209 213.755 19.2129 214.282 19.043C214.81 18.8672 215.258 18.75 215.627 18.6914L216.189 18.6035V18.0586C216.189 16.5 215.618 15.7207 214.476 15.7207C214.282 15.7207 214.089 15.7441 213.896 15.791C213.708 15.8379 213.562 15.8848 213.456 15.9316L213.307 15.9932L212.674 17.9707H211.417V15.6328C211.534 15.5625 211.701 15.4805 211.918 15.3867C212.135 15.2871 212.568 15.1523 213.219 14.9824C213.869 14.8125 214.499 14.7275 215.108 14.7275C216.175 14.7275 217.01 15.0146 217.613 15.5889C218.223 16.1572 218.527 16.9219 218.527 17.8828ZM214.3 22.4707C214.622 22.4707 214.938 22.3975 215.249 22.251C215.565 22.0986 215.8 21.9492 215.952 21.8027L216.189 21.5742V19.5C216.107 19.5117 215.999 19.5293 215.864 19.5527C215.729 19.5762 215.492 19.6436 215.152 19.7549C214.812 19.8604 214.514 19.9834 214.256 20.124C213.998 20.2588 213.761 20.4463 213.544 20.6865C213.327 20.9268 213.219 21.1904 213.219 21.4775C213.219 22.1396 213.579 22.4707 214.3 22.4707ZM225.726 14.7275C225.966 14.7275 226.206 14.751 226.446 14.7979C226.687 14.8389 226.865 14.8828 226.982 14.9297L227.167 15V12.3896C227.167 11.7275 227.073 11.2764 226.886 11.0361C226.698 10.7959 226.373 10.6758 225.91 10.6758V10.0518C226.473 10.0049 227.053 9.92871 227.65 9.82324C228.254 9.71191 228.711 9.6123 229.021 9.52441L229.505 9.41895V21.3018C229.505 21.9639 229.599 22.415 229.786 22.6553C229.974 22.8896 230.302 23.0068 230.771 23.0068V23.6396C230.243 23.6865 229.707 23.7568 229.162 23.8506C228.623 23.9385 228.216 24.0117 227.94 24.0703L227.527 24.1758L227.343 22.4707H227.255C227.22 22.5176 227.173 22.582 227.114 22.6641C227.056 22.7402 226.921 22.875 226.71 23.0684C226.499 23.2559 226.279 23.4258 226.051 23.5781C225.822 23.7246 225.538 23.8623 225.198 23.9912C224.864 24.1143 224.53 24.1758 224.196 24.1758C223.259 24.1758 222.453 23.7803 221.779 22.9893C221.111 22.1982 220.777 21.1553 220.777 19.8604C220.777 18.29 221.229 17.042 222.131 16.1162C223.039 15.1904 224.237 14.7275 225.726 14.7275ZM225.453 15.7207C224.814 15.7207 224.278 16.0312 223.845 16.6523C223.417 17.2676 223.203 18.1875 223.203 19.4121C223.203 21.4512 223.895 22.4707 225.277 22.4707C225.6 22.4707 225.916 22.3975 226.227 22.251C226.543 22.0986 226.777 21.9434 226.93 21.7852L227.167 21.5479V16.4414C227.12 16.3945 227.05 16.3301 226.956 16.248C226.868 16.1602 226.675 16.0518 226.376 15.9229C226.083 15.7881 225.775 15.7207 225.453 15.7207ZM235.007 17.4258V21.8379C235.007 22.4238 235.118 22.8252 235.341 23.042C235.569 23.2588 235.997 23.3672 236.624 23.3672V24H231.403V23.3672L232.66 23.1035V17.6104C232.66 16.9482 232.566 16.4971 232.379 16.2568C232.197 16.0166 231.872 15.8965 231.403 15.8965V15.2725C231.931 15.2256 232.464 15.1582 233.003 15.0703C233.542 14.9766 233.949 14.8945 234.225 14.8242L234.646 14.7275L234.822 16.4414H234.91C234.945 16.3945 234.992 16.333 235.051 16.2568C235.115 16.1748 235.253 16.0371 235.464 15.8438C235.675 15.6504 235.886 15.4805 236.097 15.334C236.313 15.1816 236.583 15.0439 236.905 14.9209C237.233 14.792 237.559 14.7275 237.881 14.7275C238.121 14.7275 238.355 14.751 238.584 14.7979C238.812 14.8389 238.974 14.8828 239.067 14.9297L239.234 15V18.0586H238.065L237.433 16.2568C236.999 16.2568 236.58 16.3535 236.176 16.5469C235.777 16.7402 235.481 16.9336 235.288 17.127L235.007 17.4258ZM244.543 15.7207C244.062 15.7207 243.644 15.9404 243.286 16.3799C242.935 16.8135 242.694 17.4639 242.565 18.3311L245.984 18.0586C245.984 16.5 245.504 15.7207 244.543 15.7207ZM244.719 14.7275C245.85 14.7275 246.734 15.0557 247.373 15.7119C248.018 16.3682 248.363 17.2998 248.41 18.5068L247.514 19.2275H242.469V19.3242C242.469 20.2969 242.741 21.0791 243.286 21.6709C243.837 22.2627 244.525 22.5586 245.352 22.5586C245.855 22.5586 246.333 22.4941 246.784 22.3652C247.235 22.2305 247.555 22.0928 247.742 21.9521L248.05 21.75L248.41 22.1104C248.375 22.1689 248.322 22.2451 248.252 22.3389C248.182 22.4268 248.023 22.5908 247.777 22.8311C247.531 23.0713 247.265 23.2822 246.978 23.4639C246.696 23.6396 246.327 23.8037 245.87 23.9561C245.419 24.1025 244.947 24.1758 244.455 24.1758C243.184 24.1758 242.129 23.748 241.291 22.8926C240.459 22.0371 240.043 20.9385 240.043 19.5967C240.043 18.249 240.503 17.1006 241.423 16.1514C242.349 15.2021 243.447 14.7275 244.719 14.7275ZM21.1689 46.0068L19.9121 42.5879H15.1396L14.3311 44.5742C14.2139 44.873 14.1523 45.1719 14.1465 45.4707C14.1465 45.7578 14.2344 45.9658 14.4102 46.0947C14.5859 46.2178 14.9199 46.2793 15.4121 46.2793V47H10.9121V46.3672L12.4414 46.0068L17.5742 32.9639H18.8311L23.3311 44.6621C23.5596 45.2598 23.8203 45.6787 24.1133 45.9189C24.4062 46.1592 24.834 46.2793 25.3965 46.2793V47H19.5518V46.3672L21.1689 46.0068ZM17.4775 36.4707L15.5 41.6035H19.4639L17.5742 36.4707H17.4775ZM40.6104 41.4189V44.8379C40.6104 45.459 40.6924 45.8691 40.8564 46.0684C41.0264 46.2676 41.3633 46.3672 41.8672 46.3672V47H37.1914V46.3672L38.2725 46.1035V41.4189C38.2725 40.7568 38.126 40.2617 37.833 39.9336C37.5459 39.6055 37.1504 39.4414 36.6465 39.4414C36.3477 39.4414 36.0488 39.5088 35.75 39.6436C35.4512 39.7725 35.2227 39.9072 35.0645 40.0479L34.8447 40.25C34.9033 40.4902 34.9355 40.8799 34.9414 41.4189V44.8379C34.9414 45.459 35.0205 45.8691 35.1787 46.0684C35.3428 46.2676 35.6533 46.3672 36.1104 46.3672V47H31.5225V46.3672L32.5947 46.1035V41.4189C32.5947 40.7568 32.4512 40.2617 32.1641 39.9336C31.877 39.6055 31.4814 39.4414 30.9775 39.4414C30.7139 39.4414 30.4385 39.5088 30.1514 39.6436C29.8643 39.7725 29.6416 39.9072 29.4834 40.0479L29.2725 40.25V44.8379C29.2725 45.459 29.3516 45.8691 29.5098 46.0684C29.6738 46.2676 29.9844 46.3672 30.4414 46.3672V47H25.6689V46.3672L26.9258 46.1035V40.6104C26.9258 39.9482 26.832 39.4971 26.6445 39.2568C26.4629 39.0166 26.1377 38.8965 25.6689 38.8965V38.2725C26.1963 38.2256 26.7295 38.1582 27.2686 38.0703C27.8076 37.9766 28.2148 37.8945 28.4902 37.8242L28.9121 37.7275L29.0879 39.2568H29.1758C29.2109 39.2217 29.2578 39.1689 29.3164 39.0986C29.3809 39.0283 29.5127 38.9053 29.7119 38.7295C29.9111 38.5537 30.1162 38.3984 30.3271 38.2637C30.5439 38.123 30.8164 38 31.1445 37.8945C31.4785 37.7832 31.8125 37.7275 32.1465 37.7275C32.4863 37.7275 32.7998 37.7832 33.0869 37.8945C33.374 38 33.6055 38.1289 33.7812 38.2812C33.9629 38.4277 34.1152 38.5742 34.2383 38.7207C34.3672 38.8613 34.458 38.9873 34.5107 39.0986L34.5811 39.2568H34.6689C34.7041 39.2217 34.751 39.1689 34.8096 39.0986C34.874 39.0283 35.0059 38.9053 35.2051 38.7295C35.4102 38.5537 35.627 38.3984 35.8555 38.2637C36.084 38.123 36.374 38 36.7256 37.8945C37.083 37.7832 37.4463 37.7275 37.8154 37.7275C38.665 37.7275 39.3418 38.041 39.8457 38.668C40.3555 39.2891 40.6104 40.2061 40.6104 41.4189ZM50.4102 40.8828V44.3018C50.4102 44.9639 50.5039 45.415 50.6914 45.6553C50.8789 45.8896 51.2041 46.0068 51.667 46.0068V46.6396C51.1396 46.6865 50.6064 46.7568 50.0674 46.8506C49.5283 46.9385 49.1211 47.0117 48.8457 47.0703L48.4326 47.1758L48.248 45.4707H48.1602C48.125 45.5176 48.0752 45.582 48.0107 45.6641C47.9521 45.7402 47.8232 45.875 47.624 46.0684C47.4307 46.2559 47.2227 46.4258 47 46.5781C46.7773 46.7246 46.4902 46.8623 46.1387 46.9912C45.793 47.1143 45.4473 47.1758 45.1016 47.1758C44.3574 47.1758 43.7656 46.9824 43.3262 46.5957C42.8867 46.2031 42.667 45.708 42.667 45.1104C42.667 44.5947 42.8516 44.1201 43.2207 43.6865C43.5957 43.2529 44.0469 42.9131 44.5742 42.667C45.1074 42.4209 45.6377 42.2129 46.165 42.043C46.6924 41.8672 47.1406 41.75 47.5098 41.6914L48.0723 41.6035V41.0586C48.0723 39.5 47.501 38.7207 46.3584 38.7207C46.165 38.7207 45.9717 38.7441 45.7783 38.791C45.5908 38.8379 45.4443 38.8848 45.3389 38.9316L45.1895 38.9932L44.5566 40.9707H43.2998V38.6328C43.417 38.5625 43.584 38.4805 43.8008 38.3867C44.0176 38.2871 44.4512 38.1523 45.1016 37.9824C45.752 37.8125 46.3818 37.7275 46.9912 37.7275C48.0576 37.7275 48.8926 38.0146 49.4961 38.5889C50.1055 39.1572 50.4102 39.9219 50.4102 40.8828ZM46.1826 45.4707C46.5049 45.4707 46.8213 45.3975 47.1318 45.251C47.4482 45.0986 47.6826 44.9492 47.835 44.8027L48.0723 44.5742V42.5C47.9902 42.5117 47.8818 42.5293 47.7471 42.5527C47.6123 42.5762 47.375 42.6436 47.0352 42.7549C46.6953 42.8604 46.3965 42.9834 46.1387 43.124C45.8809 43.2588 45.6436 43.4463 45.4268 43.6865C45.21 43.9268 45.1016 44.1904 45.1016 44.4775C45.1016 45.1396 45.4619 45.4707 46.1826 45.4707ZM55.9033 40.4258V44.8379C55.9033 45.4238 56.0146 45.8252 56.2373 46.042C56.4658 46.2588 56.8936 46.3672 57.5205 46.3672V47H52.2998V46.3672L53.5566 46.1035V40.6104C53.5566 39.9482 53.4629 39.4971 53.2754 39.2568C53.0938 39.0166 52.7686 38.8965 52.2998 38.8965V38.2725C52.8271 38.2256 53.3604 38.1582 53.8994 38.0703C54.4385 37.9766 54.8457 37.8945 55.1211 37.8242L55.543 37.7275L55.7188 39.4414H55.8066C55.8418 39.3945 55.8887 39.333 55.9473 39.2568C56.0117 39.1748 56.1494 39.0371 56.3604 38.8438C56.5713 38.6504 56.7822 38.4805 56.9932 38.334C57.21 38.1816 57.4795 38.0439 57.8018 37.9209C58.1299 37.792 58.4551 37.7275 58.7773 37.7275C59.0176 37.7275 59.252 37.751 59.4805 37.7979C59.709 37.8389 59.8701 37.8828 59.9639 37.9297L60.1309 38V41.0586H58.9619L58.3291 39.2568C57.8955 39.2568 57.4766 39.3535 57.0723 39.5469C56.6738 39.7402 56.3779 39.9336 56.1846 40.127L55.9033 40.4258ZM68.0498 42.5879C68.0498 41.2812 67.8154 40.2969 67.3467 39.6348C66.8779 38.9668 66.3008 38.6328 65.6152 38.6328C65.0176 38.6328 64.4932 38.9551 64.042 39.5996C63.5908 40.2383 63.3652 41.1465 63.3652 42.3242C63.3652 43.6309 63.5996 44.6182 64.0684 45.2861C64.5371 45.9482 65.1143 46.2793 65.7998 46.2793C66.3975 46.2793 66.9219 45.96 67.373 45.3213C67.8242 44.6768 68.0498 43.7656 68.0498 42.5879ZM70.4756 42.4121C70.4756 43.7656 70.0068 44.8994 69.0693 45.8135C68.1377 46.7217 66.957 47.1758 65.5273 47.1758C64.1738 47.1758 63.0693 46.7451 62.2139 45.8838C61.3643 45.0225 60.9395 43.8945 60.9395 42.5C60.9395 41.1465 61.4053 40.0127 62.3369 39.0986C63.2744 38.1846 64.458 37.7275 65.8877 37.7275C67.2412 37.7275 68.3428 38.1611 69.1924 39.0283C70.0479 39.8896 70.4756 41.0176 70.4756 42.4121ZM78.0518 46.1035V38.9932H76.6982V38.1758L78.0518 37.9121V35.3896C78.0518 33.292 79.1299 32.2432 81.2861 32.2432C81.7666 32.2432 82.2764 32.3193 82.8154 32.4717C83.3545 32.6182 83.7764 32.7676 84.0811 32.9199L84.5293 33.1396V35.5742H83.2637L82.4551 33.5C82.2148 33.3828 81.9453 33.3242 81.6465 33.3242C80.8086 33.3242 80.3896 34.042 80.3896 35.4775V37.9121H83.0879V39.1689H82.2793L80.3896 38.8086V44.8379C80.3896 45.4238 80.5127 45.8252 80.7588 46.042C81.0049 46.2588 81.4824 46.3672 82.1914 46.3672V47H76.7861V46.3672L78.0518 46.1035ZM90.9014 42.5879C90.9014 41.2812 90.667 40.2969 90.1982 39.6348C89.7295 38.9668 89.1523 38.6328 88.4668 38.6328C87.8691 38.6328 87.3447 38.9551 86.8936 39.5996C86.4424 40.2383 86.2168 41.1465 86.2168 42.3242C86.2168 43.6309 86.4512 44.6182 86.9199 45.2861C87.3887 45.9482 87.9658 46.2793 88.6514 46.2793C89.249 46.2793 89.7734 45.96 90.2246 45.3213C90.6758 44.6768 90.9014 43.7656 90.9014 42.5879ZM93.3271 42.4121C93.3271 43.7656 92.8584 44.8994 91.9209 45.8135C90.9893 46.7217 89.8086 47.1758 88.3789 47.1758C87.0254 47.1758 85.9209 46.7451 85.0654 45.8838C84.2158 45.0225 83.791 43.8945 83.791 42.5C83.791 41.1465 84.2568 40.0127 85.1885 39.0986C86.126 38.1846 87.3096 37.7275 88.7393 37.7275C90.0928 37.7275 91.1943 38.1611 92.0439 39.0283C92.8994 39.8896 93.3271 41.0176 93.3271 42.4121ZM98.0205 37.6396V44.8379C98.0205 45.459 98.1025 45.8691 98.2666 46.0684C98.4365 46.2676 98.7734 46.3672 99.2773 46.3672V47H94.417V46.3672L95.6738 46.1035V40.6104C95.6738 39.9482 95.5801 39.4971 95.3926 39.2568C95.2109 39.0166 94.8857 38.8965 94.417 38.8965V38.2725C94.9795 38.2256 95.5596 38.1494 96.1572 38.0439C96.7607 37.9326 97.2236 37.833 97.5459 37.7451L98.0205 37.6396ZM95.8232 35.6094C95.5479 35.334 95.4102 34.9912 95.4102 34.5811C95.4102 34.1709 95.5479 33.8281 95.8232 33.5527C96.0986 33.2773 96.4385 33.1396 96.8428 33.1396C97.2529 33.1396 97.5957 33.2773 97.8711 33.5527C98.1465 33.8281 98.2842 34.1709 98.2842 34.5811C98.2842 34.9912 98.1465 35.334 97.8711 35.6094C97.5957 35.8848 97.2529 36.0225 96.8428 36.0225C96.4385 36.0225 96.0986 35.8848 95.8232 35.6094ZM108.541 46.9121V48.9775C108.541 49.5635 108.664 49.9648 108.91 50.1816C109.156 50.3984 109.634 50.5068 110.343 50.5068V51.1396H104.946V50.5068L106.203 50.2432V40.6104C106.203 39.9482 106.109 39.4971 105.922 39.2568C105.74 39.0166 105.415 38.8965 104.946 38.8965V38.2725C105.474 38.2256 106.007 38.1582 106.546 38.0703C107.085 37.9766 107.492 37.8945 107.768 37.8242L108.181 37.7275L108.365 39.4414H108.453C108.488 39.3945 108.535 39.333 108.594 39.2568C108.658 39.1748 108.793 39.0371 108.998 38.8438C109.209 38.6504 109.429 38.4805 109.657 38.334C109.886 38.1816 110.167 38.0439 110.501 37.9209C110.841 37.792 111.178 37.7275 111.512 37.7275C112.449 37.7275 113.252 38.126 113.92 38.9229C114.594 39.7139 114.931 40.7568 114.931 42.0518C114.931 43.6221 114.477 44.8701 113.568 45.7959C112.666 46.7158 111.471 47.1758 109.982 47.1758C109.742 47.1758 109.502 47.1523 109.262 47.1055C109.021 47.0586 108.843 47.0117 108.726 46.9648L108.541 46.9121ZM110.255 46.1914C110.894 46.1914 111.427 45.8838 111.854 45.2686C112.288 44.6475 112.505 43.7246 112.505 42.5C112.505 40.4609 111.813 39.4414 110.431 39.4414C110.144 39.4414 109.842 39.5176 109.525 39.6699C109.209 39.8164 108.966 39.9688 108.796 40.127L108.541 40.3379V45.2861C108.588 45.3564 108.661 45.4414 108.761 45.541C108.866 45.6348 109.068 45.7666 109.367 45.9365C109.672 46.1064 109.968 46.1914 110.255 46.1914ZM120.881 38.7207C120.4 38.7207 119.981 38.9404 119.624 39.3799C119.272 39.8135 119.032 40.4639 118.903 41.3311L122.322 41.0586C122.322 39.5 121.842 38.7207 120.881 38.7207ZM121.057 37.7275C122.188 37.7275 123.072 38.0557 123.711 38.7119C124.355 39.3682 124.701 40.2998 124.748 41.5068L123.852 42.2275H118.807V42.3242C118.807 43.2969 119.079 44.0791 119.624 44.6709C120.175 45.2627 120.863 45.5586 121.689 45.5586C122.193 45.5586 122.671 45.4941 123.122 45.3652C123.573 45.2305 123.893 45.0928 124.08 44.9521L124.388 44.75L124.748 45.1104C124.713 45.1689 124.66 45.2451 124.59 45.3389C124.52 45.4268 124.361 45.5908 124.115 45.8311C123.869 46.0713 123.603 46.2822 123.315 46.4639C123.034 46.6396 122.665 46.8037 122.208 46.9561C121.757 47.1025 121.285 47.1758 120.793 47.1758C119.521 47.1758 118.467 46.748 117.629 45.8926C116.797 45.0371 116.381 43.9385 116.381 42.5967C116.381 41.249 116.841 40.1006 117.761 39.1514C118.687 38.2021 119.785 37.7275 121.057 37.7275ZM129.345 40.4258V44.8379C129.345 45.4238 129.456 45.8252 129.679 46.042C129.907 46.2588 130.335 46.3672 130.962 46.3672V47H125.741V46.3672L126.998 46.1035V40.6104C126.998 39.9482 126.904 39.4971 126.717 39.2568C126.535 39.0166 126.21 38.8965 125.741 38.8965V38.2725C126.269 38.2256 126.802 38.1582 127.341 38.0703C127.88 37.9766 128.287 37.8945 128.562 37.8242L128.984 37.7275L129.16 39.4414H129.248C129.283 39.3945 129.33 39.333 129.389 39.2568C129.453 39.1748 129.591 39.0371 129.802 38.8438C130.013 38.6504 130.224 38.4805 130.435 38.334C130.651 38.1816 130.921 38.0439 131.243 37.9209C131.571 37.792 131.896 37.7275 132.219 37.7275C132.459 37.7275 132.693 37.751 132.922 37.7979C133.15 37.8389 133.312 37.8828 133.405 37.9297L133.572 38V41.0586H132.403L131.771 39.2568C131.337 39.2568 130.918 39.3535 130.514 39.5469C130.115 39.7402 129.819 39.9336 129.626 40.127L129.345 40.4258ZM139.417 44.75C139.417 44.4395 139.253 44.1582 138.925 43.9062C138.603 43.6543 138.213 43.4258 137.756 43.2207C137.305 43.0156 136.851 42.7959 136.394 42.5615C135.937 42.3271 135.544 42.0137 135.216 41.6211C134.894 41.2227 134.732 40.7656 134.732 40.25C134.732 39.5293 135.037 38.9287 135.646 38.4482C136.262 37.9678 137.129 37.7275 138.248 37.7275C138.729 37.7275 139.191 37.7744 139.637 37.8682C140.088 37.9561 140.422 38.0469 140.639 38.1406L140.946 38.2725V40.6104H140.208C140.05 39.292 139.426 38.6328 138.336 38.6328C137.949 38.6328 137.627 38.7412 137.369 38.958C137.111 39.1689 136.982 39.4209 136.982 39.7139C136.982 40.0713 137.144 40.376 137.466 40.6279C137.794 40.8799 138.187 41.0967 138.644 41.2783C139.101 41.4541 139.555 41.6475 140.006 41.8584C140.463 42.0693 140.853 42.374 141.175 42.7725C141.503 43.165 141.667 43.6455 141.667 44.2139C141.667 45.0635 141.324 45.7695 140.639 46.332C139.953 46.8945 139.007 47.1758 137.8 47.1758C137.19 47.1758 136.604 47.1172 136.042 47C135.485 46.8828 135.087 46.7627 134.847 46.6396L134.469 46.4639V43.7568H135.189C135.324 44.5713 135.608 45.1953 136.042 45.6289C136.481 46.0625 137.035 46.2793 137.703 46.2793C138.184 46.2793 138.588 46.127 138.916 45.8223C139.25 45.5176 139.417 45.1602 139.417 44.75ZM152.188 44.3018C152.188 44.9639 152.281 45.415 152.469 45.6553C152.656 45.8896 152.984 46.0068 153.453 46.0068V46.6396C152.926 46.6865 152.39 46.7568 151.845 46.8506C151.306 46.9385 150.898 47.0117 150.623 47.0703L150.21 47.1758L150.034 45.4707H149.938C149.902 45.5176 149.853 45.582 149.788 45.6641C149.724 45.7402 149.583 45.875 149.366 46.0684C149.149 46.2559 148.924 46.4258 148.689 46.5781C148.455 46.7246 148.156 46.8623 147.793 46.9912C147.436 47.1143 147.072 47.1758 146.703 47.1758C145.812 47.1758 145.109 46.8711 144.594 46.2617C144.078 45.6523 143.82 44.7588 143.82 43.5811V40.6104C143.82 39.9482 143.727 39.4971 143.539 39.2568C143.357 39.0166 143.032 38.8965 142.563 38.8965V38.2725C143.126 38.2256 143.706 38.1494 144.304 38.0439C144.907 37.9326 145.364 37.833 145.675 37.7451L146.158 37.6396V43.4932C146.158 44.2021 146.293 44.709 146.562 45.0137C146.832 45.3184 147.269 45.4707 147.872 45.4707C148.194 45.4707 148.52 45.3975 148.848 45.251C149.182 45.0986 149.431 44.9492 149.595 44.8027L149.85 44.5742V40.6104C149.85 39.9482 149.756 39.4971 149.568 39.2568C149.387 39.0166 149.062 38.8965 148.593 38.8965V38.2725C149.155 38.2256 149.735 38.1494 150.333 38.0439C150.937 37.9326 151.399 37.833 151.722 37.7451L152.188 37.6396V44.3018ZM161.996 40.8828V44.3018C161.996 44.9639 162.09 45.415 162.277 45.6553C162.465 45.8896 162.79 46.0068 163.253 46.0068V46.6396C162.726 46.6865 162.192 46.7568 161.653 46.8506C161.114 46.9385 160.707 47.0117 160.432 47.0703L160.019 47.1758L159.834 45.4707H159.746C159.711 45.5176 159.661 45.582 159.597 45.6641C159.538 45.7402 159.409 45.875 159.21 46.0684C159.017 46.2559 158.809 46.4258 158.586 46.5781C158.363 46.7246 158.076 46.8623 157.725 46.9912C157.379 47.1143 157.033 47.1758 156.688 47.1758C155.943 47.1758 155.352 46.9824 154.912 46.5957C154.473 46.2031 154.253 45.708 154.253 45.1104C154.253 44.5947 154.438 44.1201 154.807 43.6865C155.182 43.2529 155.633 42.9131 156.16 42.667C156.693 42.4209 157.224 42.2129 157.751 42.043C158.278 41.8672 158.727 41.75 159.096 41.6914L159.658 41.6035V41.0586C159.658 39.5 159.087 38.7207 157.944 38.7207C157.751 38.7207 157.558 38.7441 157.364 38.791C157.177 38.8379 157.03 38.8848 156.925 38.9316L156.775 38.9932L156.143 40.9707H154.886V38.6328C155.003 38.5625 155.17 38.4805 155.387 38.3867C155.604 38.2871 156.037 38.1523 156.688 37.9824C157.338 37.8125 157.968 37.7275 158.577 37.7275C159.644 37.7275 160.479 38.0146 161.082 38.5889C161.691 39.1572 161.996 39.9219 161.996 40.8828ZM157.769 45.4707C158.091 45.4707 158.407 45.3975 158.718 45.251C159.034 45.0986 159.269 44.9492 159.421 44.8027L159.658 44.5742V42.5C159.576 42.5117 159.468 42.5293 159.333 42.5527C159.198 42.5762 158.961 42.6436 158.621 42.7549C158.281 42.8604 157.982 42.9834 157.725 43.124C157.467 43.2588 157.229 43.4463 157.013 43.6865C156.796 43.9268 156.688 44.1904 156.688 44.4775C156.688 45.1396 157.048 45.4707 157.769 45.4707ZM169.194 37.7275C169.435 37.7275 169.675 37.751 169.915 37.7979C170.155 37.8389 170.334 37.8828 170.451 37.9297L170.636 38V35.3896C170.636 34.7275 170.542 34.2764 170.354 34.0361C170.167 33.7959 169.842 33.6758 169.379 33.6758V33.0518C169.941 33.0049 170.521 32.9287 171.119 32.8232C171.723 32.7119 172.18 32.6123 172.49 32.5244L172.974 32.4189V44.3018C172.974 44.9639 173.067 45.415 173.255 45.6553C173.442 45.8896 173.771 46.0068 174.239 46.0068V46.6396C173.712 46.6865 173.176 46.7568 172.631 46.8506C172.092 46.9385 171.685 47.0117 171.409 47.0703L170.996 47.1758L170.812 45.4707H170.724C170.688 45.5176 170.642 45.582 170.583 45.6641C170.524 45.7402 170.39 45.875 170.179 46.0684C169.968 46.2559 169.748 46.4258 169.52 46.5781C169.291 46.7246 169.007 46.8623 168.667 46.9912C168.333 47.1143 167.999 47.1758 167.665 47.1758C166.728 47.1758 165.922 46.7803 165.248 45.9893C164.58 45.1982 164.246 44.1553 164.246 42.8604C164.246 41.29 164.697 40.042 165.6 39.1162C166.508 38.1904 167.706 37.7275 169.194 37.7275ZM168.922 38.7207C168.283 38.7207 167.747 39.0312 167.313 39.6523C166.886 40.2676 166.672 41.1875 166.672 42.4121C166.672 44.4512 167.363 45.4707 168.746 45.4707C169.068 45.4707 169.385 45.3975 169.695 45.251C170.012 45.0986 170.246 44.9434 170.398 44.7852L170.636 44.5479V39.4414C170.589 39.3945 170.519 39.3301 170.425 39.248C170.337 39.1602 170.144 39.0518 169.845 38.9229C169.552 38.7881 169.244 38.7207 168.922 38.7207ZM178.476 37.6396V44.8379C178.476 45.459 178.558 45.8691 178.722 46.0684C178.892 46.2676 179.229 46.3672 179.732 46.3672V47H174.872V46.3672L176.129 46.1035V40.6104C176.129 39.9482 176.035 39.4971 175.848 39.2568C175.666 39.0166 175.341 38.8965 174.872 38.8965V38.2725C175.435 38.2256 176.015 38.1494 176.612 38.0439C177.216 37.9326 177.679 37.833 178.001 37.7451L178.476 37.6396ZM176.278 35.6094C176.003 35.334 175.865 34.9912 175.865 34.5811C175.865 34.1709 176.003 33.8281 176.278 33.5527C176.554 33.2773 176.894 33.1396 177.298 33.1396C177.708 33.1396 178.051 33.2773 178.326 33.5527C178.602 33.8281 178.739 34.1709 178.739 34.5811C178.739 34.9912 178.602 35.334 178.326 35.6094C178.051 35.8848 177.708 36.0225 177.298 36.0225C176.894 36.0225 176.554 35.8848 176.278 35.6094ZM185.665 37.7275C185.905 37.7275 186.146 37.751 186.386 37.7979C186.626 37.8389 186.805 37.8828 186.922 37.9297L187.106 38V35.3896C187.106 34.7275 187.013 34.2764 186.825 34.0361C186.638 33.7959 186.312 33.6758 185.85 33.6758V33.0518C186.412 33.0049 186.992 32.9287 187.59 32.8232C188.193 32.7119 188.65 32.6123 188.961 32.5244L189.444 32.4189V44.3018C189.444 44.9639 189.538 45.415 189.726 45.6553C189.913 45.8896 190.241 46.0068 190.71 46.0068V46.6396C190.183 46.6865 189.646 46.7568 189.102 46.8506C188.562 46.9385 188.155 47.0117 187.88 47.0703L187.467 47.1758L187.282 45.4707H187.194C187.159 45.5176 187.112 45.582 187.054 45.6641C186.995 45.7402 186.86 45.875 186.649 46.0684C186.438 46.2559 186.219 46.4258 185.99 46.5781C185.762 46.7246 185.478 46.8623 185.138 46.9912C184.804 47.1143 184.47 47.1758 184.136 47.1758C183.198 47.1758 182.393 46.7803 181.719 45.9893C181.051 45.1982 180.717 44.1553 180.717 42.8604C180.717 41.29 181.168 40.042 182.07 39.1162C182.979 38.1904 184.177 37.7275 185.665 37.7275ZM185.393 38.7207C184.754 38.7207 184.218 39.0312 183.784 39.6523C183.356 40.2676 183.143 41.1875 183.143 42.4121C183.143 44.4512 183.834 45.4707 185.217 45.4707C185.539 45.4707 185.855 45.3975 186.166 45.251C186.482 45.0986 186.717 44.9434 186.869 44.7852L187.106 44.5479V39.4414C187.06 39.3945 186.989 39.3301 186.896 39.248C186.808 39.1602 186.614 39.0518 186.315 38.9229C186.022 38.7881 185.715 38.7207 185.393 38.7207ZM198.813 42.5879C198.813 41.2812 198.579 40.2969 198.11 39.6348C197.642 38.9668 197.064 38.6328 196.379 38.6328C195.781 38.6328 195.257 38.9551 194.806 39.5996C194.354 40.2383 194.129 41.1465 194.129 42.3242C194.129 43.6309 194.363 44.6182 194.832 45.2861C195.301 45.9482 195.878 46.2793 196.563 46.2793C197.161 46.2793 197.686 45.96 198.137 45.3213C198.588 44.6768 198.813 43.7656 198.813 42.5879ZM201.239 42.4121C201.239 43.7656 200.771 44.8994 199.833 45.8135C198.901 46.7217 197.721 47.1758 196.291 47.1758C194.938 47.1758 193.833 46.7451 192.978 45.8838C192.128 45.0225 191.703 43.8945 191.703 42.5C191.703 41.1465 192.169 40.0127 193.101 39.0986C194.038 38.1846 195.222 37.7275 196.651 37.7275C198.005 37.7275 199.106 38.1611 199.956 39.0283C200.812 39.8896 201.239 41.0176 201.239 42.4121ZM210.969 46.9121V48.9775C210.969 49.5635 211.092 49.9648 211.338 50.1816C211.584 50.3984 212.062 50.5068 212.771 50.5068V51.1396H207.374V50.5068L208.631 50.2432V40.6104C208.631 39.9482 208.537 39.4971 208.35 39.2568C208.168 39.0166 207.843 38.8965 207.374 38.8965V38.2725C207.901 38.2256 208.435 38.1582 208.974 38.0703C209.513 37.9766 209.92 37.8945 210.195 37.8242L210.608 37.7275L210.793 39.4414H210.881C210.916 39.3945 210.963 39.333 211.021 39.2568C211.086 39.1748 211.221 39.0371 211.426 38.8438C211.637 38.6504 211.856 38.4805 212.085 38.334C212.313 38.1816 212.595 38.0439 212.929 37.9209C213.269 37.792 213.605 37.7275 213.939 37.7275C214.877 37.7275 215.68 38.126 216.348 38.9229C217.021 39.7139 217.358 40.7568 217.358 42.0518C217.358 43.6221 216.904 44.8701 215.996 45.7959C215.094 46.7158 213.898 47.1758 212.41 47.1758C212.17 47.1758 211.93 47.1523 211.689 47.1055C211.449 47.0586 211.271 47.0117 211.153 46.9648L210.969 46.9121ZM212.683 46.1914C213.321 46.1914 213.854 45.8838 214.282 45.2686C214.716 44.6475 214.933 43.7246 214.933 42.5C214.933 40.4609 214.241 39.4414 212.858 39.4414C212.571 39.4414 212.27 39.5176 211.953 39.6699C211.637 39.8164 211.394 39.9688 211.224 40.127L210.969 40.3379V45.2861C211.016 45.3564 211.089 45.4414 211.188 45.541C211.294 45.6348 211.496 45.7666 211.795 45.9365C212.1 46.1064 212.396 46.1914 212.683 46.1914ZM223.309 38.7207C222.828 38.7207 222.409 38.9404 222.052 39.3799C221.7 39.8135 221.46 40.4639 221.331 41.3311L224.75 41.0586C224.75 39.5 224.27 38.7207 223.309 38.7207ZM223.484 37.7275C224.615 37.7275 225.5 38.0557 226.139 38.7119C226.783 39.3682 227.129 40.2998 227.176 41.5068L226.279 42.2275H221.234V42.3242C221.234 43.2969 221.507 44.0791 222.052 44.6709C222.603 45.2627 223.291 45.5586 224.117 45.5586C224.621 45.5586 225.099 45.4941 225.55 45.3652C226.001 45.2305 226.32 45.0928 226.508 44.9521L226.815 44.75L227.176 45.1104C227.141 45.1689 227.088 45.2451 227.018 45.3389C226.947 45.4268 226.789 45.5908 226.543 45.8311C226.297 46.0713 226.03 46.2822 225.743 46.4639C225.462 46.6396 225.093 46.8037 224.636 46.9561C224.185 47.1025 223.713 47.1758 223.221 47.1758C221.949 47.1758 220.895 46.748 220.057 45.8926C219.225 45.0371 218.809 43.9385 218.809 42.5967C218.809 41.249 219.269 40.1006 220.188 39.1514C221.114 38.2021 222.213 37.7275 223.484 37.7275ZM231.676 32.4189V44.8379C231.676 45.459 231.761 45.8691 231.931 46.0684C232.101 46.2676 232.438 46.3672 232.941 46.3672V47H228.081V46.3672L229.338 46.1035V35.3896C229.338 34.7275 229.244 34.2764 229.057 34.0361C228.875 33.7959 228.55 33.6758 228.081 33.6758V33.0518C228.644 33.0049 229.224 32.9287 229.821 32.8232C230.425 32.7119 230.882 32.6123 231.192 32.5244L231.676 32.4189ZM241.036 42.5879C241.036 41.2812 240.802 40.2969 240.333 39.6348C239.864 38.9668 239.287 38.6328 238.602 38.6328C238.004 38.6328 237.479 38.9551 237.028 39.5996C236.577 40.2383 236.352 41.1465 236.352 42.3242C236.352 43.6309 236.586 44.6182 237.055 45.2861C237.523 45.9482 238.101 46.2793 238.786 46.2793C239.384 46.2793 239.908 45.96 240.359 45.3213C240.811 44.6768 241.036 43.7656 241.036 42.5879ZM243.462 42.4121C243.462 43.7656 242.993 44.8994 242.056 45.8135C241.124 46.7217 239.943 47.1758 238.514 47.1758C237.16 47.1758 236.056 46.7451 235.2 45.8838C234.351 45.0225 233.926 43.8945 233.926 42.5C233.926 41.1465 234.392 40.0127 235.323 39.0986C236.261 38.1846 237.444 37.7275 238.874 37.7275C240.228 37.7275 241.329 38.1611 242.179 39.0283C243.034 39.8896 243.462 41.0176 243.462 42.4121ZM16.6689 60.7275C16.9092 60.7275 17.1494 60.751 17.3896 60.7979C17.6299 60.8389 17.8086 60.8828 17.9258 60.9297L18.1104 61V58.3896C18.1104 57.7275 18.0166 57.2764 17.8291 57.0361C17.6416 56.7959 17.3164 56.6758 16.8535 56.6758V56.0518C17.416 56.0049 17.9961 55.9287 18.5938 55.8232C19.1973 55.7119 19.6543 55.6123 19.9648 55.5244L20.4482 55.4189V67.3018C20.4482 67.9639 20.542 68.415 20.7295 68.6553C20.917 68.8896 21.2451 69.0068 21.7139 69.0068V69.6396C21.1865 69.6865 20.6504 69.7568 20.1055 69.8506C19.5664 69.9385 19.1592 70.0117 18.8838 70.0703L18.4707 70.1758L18.2861 68.4707H18.1982C18.1631 68.5176 18.1162 68.582 18.0576 68.6641C17.999 68.7402 17.8643 68.875 17.6533 69.0684C17.4424 69.2559 17.2227 69.4258 16.9941 69.5781C16.7656 69.7246 16.4814 69.8623 16.1416 69.9912C15.8076 70.1143 15.4736 70.1758 15.1396 70.1758C14.2021 70.1758 13.3965 69.7803 12.7227 68.9893C12.0547 68.1982 11.7207 67.1553 11.7207 65.8604C11.7207 64.29 12.1719 63.042 13.0742 62.1162C13.9824 61.1904 15.1807 60.7275 16.6689 60.7275ZM16.3965 61.7207C15.7578 61.7207 15.2217 62.0312 14.7881 62.6523C14.3604 63.2676 14.1465 64.1875 14.1465 65.4121C14.1465 67.4512 14.8379 68.4707 16.2207 68.4707C16.543 68.4707 16.8594 68.3975 17.1699 68.251C17.4863 68.0986 17.7207 67.9434 17.873 67.7852L18.1104 67.5479V62.4414C18.0635 62.3945 17.9932 62.3301 17.8994 62.248C17.8115 62.1602 17.6182 62.0518 17.3193 61.9229C17.0264 61.7881 16.7188 61.7207 16.3965 61.7207ZM27.207 61.7207C26.7266 61.7207 26.3076 61.9404 25.9502 62.3799C25.5986 62.8135 25.3584 63.4639 25.2295 64.3311L28.6484 64.0586C28.6484 62.5 28.168 61.7207 27.207 61.7207ZM27.3828 60.7275C28.5137 60.7275 29.3984 61.0557 30.0371 61.7119C30.6816 62.3682 31.0273 63.2998 31.0742 64.5068L30.1777 65.2275H25.1328V65.3242C25.1328 66.2969 25.4053 67.0791 25.9502 67.6709C26.501 68.2627 27.1895 68.5586 28.0156 68.5586C28.5195 68.5586 28.9971 68.4941 29.4482 68.3652C29.8994 68.2305 30.2188 68.0928 30.4062 67.9521L30.7139 67.75L31.0742 68.1104C31.0391 68.1689 30.9863 68.2451 30.916 68.3389C30.8457 68.4268 30.6875 68.5908 30.4414 68.8311C30.1953 69.0713 29.9287 69.2822 29.6416 69.4639C29.3604 69.6396 28.9912 69.8037 28.5342 69.9561C28.083 70.1025 27.6113 70.1758 27.1191 70.1758C25.8477 70.1758 24.793 69.748 23.9551 68.8926C23.123 68.0371 22.707 66.9385 22.707 65.5967C22.707 64.249 23.167 63.1006 24.0869 62.1514C25.0127 61.2021 26.1113 60.7275 27.3828 60.7275ZM37.2881 67.75C37.2881 67.4395 37.124 67.1582 36.7959 66.9062C36.4736 66.6543 36.084 66.4258 35.627 66.2207C35.1758 66.0156 34.7217 65.7959 34.2646 65.5615C33.8076 65.3271 33.415 65.0137 33.0869 64.6211C32.7646 64.2227 32.6035 63.7656 32.6035 63.25C32.6035 62.5293 32.9082 61.9287 33.5176 61.4482C34.1328 60.9678 35 60.7275 36.1191 60.7275C36.5996 60.7275 37.0625 60.7744 37.5078 60.8682C37.959 60.9561 38.293 61.0469 38.5098 61.1406L38.8174 61.2725V63.6104H38.0791C37.9209 62.292 37.2969 61.6328 36.207 61.6328C35.8203 61.6328 35.498 61.7412 35.2402 61.958C34.9824 62.1689 34.8535 62.4209 34.8535 62.7139C34.8535 63.0713 35.0146 63.376 35.3369 63.6279C35.665 63.8799 36.0576 64.0967 36.5146 64.2783C36.9717 64.4541 37.4258 64.6475 37.877 64.8584C38.334 65.0693 38.7236 65.374 39.0459 65.7725C39.374 66.165 39.5381 66.6455 39.5381 67.2139C39.5381 68.0635 39.1953 68.7695 38.5098 69.332C37.8242 69.8945 36.8779 70.1758 35.6709 70.1758C35.0615 70.1758 34.4756 70.1172 33.9131 70C33.3564 69.8828 32.958 69.7627 32.7178 69.6396L32.3398 69.4639V66.7568H33.0605C33.1953 67.5713 33.4795 68.1953 33.9131 68.6289C34.3525 69.0625 34.9062 69.2793 35.5742 69.2793C36.0547 69.2793 36.459 69.127 36.7871 68.8223C37.1211 68.5176 37.2881 68.1602 37.2881 67.75ZM45.3828 61.7207C44.9023 61.7207 44.4834 61.9404 44.126 62.3799C43.7744 62.8135 43.5342 63.4639 43.4053 64.3311L46.8242 64.0586C46.8242 62.5 46.3438 61.7207 45.3828 61.7207ZM45.5586 60.7275C46.6895 60.7275 47.5742 61.0557 48.2129 61.7119C48.8574 62.3682 49.2031 63.2998 49.25 64.5068L48.3535 65.2275H43.3086V65.3242C43.3086 66.2969 43.5811 67.0791 44.126 67.6709C44.6768 68.2627 45.3652 68.5586 46.1914 68.5586C46.6953 68.5586 47.1729 68.4941 47.624 68.3652C48.0752 68.2305 48.3945 68.0928 48.582 67.9521L48.8896 67.75L49.25 68.1104C49.2148 68.1689 49.1621 68.2451 49.0918 68.3389C49.0215 68.4268 48.8633 68.5908 48.6172 68.8311C48.3711 69.0713 48.1045 69.2822 47.8174 69.4639C47.5361 69.6396 47.167 69.8037 46.71 69.9561C46.2588 70.1025 45.7871 70.1758 45.2949 70.1758C44.0234 70.1758 42.9688 69.748 42.1309 68.8926C41.2988 68.0371 40.8828 66.9385 40.8828 65.5967C40.8828 64.249 41.3428 63.1006 42.2627 62.1514C43.1885 61.2021 44.2871 60.7275 45.5586 60.7275ZM53.8467 60.6396V69.9121C53.8467 71.2422 53.4717 72.3086 52.7217 73.1113C51.9717 73.9199 51.0254 74.3242 49.8828 74.3242C49.5605 74.3242 49.25 74.2861 48.9512 74.21C48.6465 74.1396 48.4297 74.0693 48.3008 73.999L48.0811 73.8672V71.5293H49.1621L49.9707 73.4189C50.9902 73.3135 51.5 72.2646 51.5 70.2725V63.6104C51.5 62.9482 51.4062 62.4971 51.2188 62.2568C51.0371 62.0166 50.7119 61.8965 50.2432 61.8965V61.2725C50.8057 61.2256 51.3857 61.1494 51.9834 61.0439C52.5869 60.9326 53.0498 60.833 53.3721 60.7451L53.8467 60.6396ZM51.6494 58.6094C51.374 58.334 51.2363 57.9912 51.2363 57.5811C51.2363 57.1709 51.374 56.8281 51.6494 56.5527C51.9248 56.2773 52.2646 56.1396 52.6689 56.1396C53.0791 56.1396 53.4219 56.2773 53.6973 56.5527C53.9727 56.8281 54.1104 57.1709 54.1104 57.5811C54.1104 57.9912 53.9727 58.334 53.6973 58.6094C53.4219 58.8848 53.0791 59.0225 52.6689 59.0225C52.2646 59.0225 51.9248 58.8848 51.6494 58.6094ZM63.1104 65.5879C63.1104 64.2812 62.876 63.2969 62.4072 62.6348C61.9385 61.9668 61.3613 61.6328 60.6758 61.6328C60.0781 61.6328 59.5537 61.9551 59.1025 62.5996C58.6514 63.2383 58.4258 64.1465 58.4258 65.3242C58.4258 66.6309 58.6602 67.6182 59.1289 68.2861C59.5977 68.9482 60.1748 69.2793 60.8604 69.2793C61.458 69.2793 61.9824 68.96 62.4336 68.3213C62.8848 67.6768 63.1104 66.7656 63.1104 65.5879ZM65.5361 65.4121C65.5361 66.7656 65.0674 67.8994 64.1299 68.8135C63.1982 69.7217 62.0176 70.1758 60.5879 70.1758C59.2344 70.1758 58.1299 69.7451 57.2744 68.8838C56.4248 68.0225 56 66.8945 56 65.5C56 64.1465 56.4658 63.0127 57.3975 62.0986C58.335 61.1846 59.5186 60.7275 60.9482 60.7275C62.3018 60.7275 63.4033 61.1611 64.2529 62.0283C65.1084 62.8896 65.5361 64.0176 65.5361 65.4121ZM76.9795 67.75C76.9795 67.4395 76.8154 67.1582 76.4873 66.9062C76.165 66.6543 75.7754 66.4258 75.3184 66.2207C74.8672 66.0156 74.4131 65.7959 73.9561 65.5615C73.499 65.3271 73.1064 65.0137 72.7783 64.6211C72.4561 64.2227 72.2949 63.7656 72.2949 63.25C72.2949 62.5293 72.5996 61.9287 73.209 61.4482C73.8242 60.9678 74.6914 60.7275 75.8105 60.7275C76.291 60.7275 76.7539 60.7744 77.1992 60.8682C77.6504 60.9561 77.9844 61.0469 78.2012 61.1406L78.5088 61.2725V63.6104H77.7705C77.6123 62.292 76.9883 61.6328 75.8984 61.6328C75.5117 61.6328 75.1895 61.7412 74.9316 61.958C74.6738 62.1689 74.5449 62.4209 74.5449 62.7139C74.5449 63.0713 74.7061 63.376 75.0283 63.6279C75.3564 63.8799 75.749 64.0967 76.2061 64.2783C76.6631 64.4541 77.1172 64.6475 77.5684 64.8584C78.0254 65.0693 78.415 65.374 78.7373 65.7725C79.0654 66.165 79.2295 66.6455 79.2295 67.2139C79.2295 68.0635 78.8867 68.7695 78.2012 69.332C77.5156 69.8945 76.5693 70.1758 75.3623 70.1758C74.7529 70.1758 74.167 70.1172 73.6045 70C73.0479 69.8828 72.6494 69.7627 72.4092 69.6396L72.0312 69.4639V66.7568H72.752C72.8867 67.5713 73.1709 68.1953 73.6045 68.6289C74.0439 69.0625 74.5977 69.2793 75.2656 69.2793C75.7461 69.2793 76.1504 69.127 76.4785 68.8223C76.8125 68.5176 76.9795 68.1602 76.9795 67.75ZM85.0742 61.7207C84.5938 61.7207 84.1748 61.9404 83.8174 62.3799C83.4658 62.8135 83.2256 63.4639 83.0967 64.3311L86.5156 64.0586C86.5156 62.5 86.0352 61.7207 85.0742 61.7207ZM85.25 60.7275C86.3809 60.7275 87.2656 61.0557 87.9043 61.7119C88.5488 62.3682 88.8945 63.2998 88.9414 64.5068L88.0449 65.2275H83V65.3242C83 66.2969 83.2725 67.0791 83.8174 67.6709C84.3682 68.2627 85.0566 68.5586 85.8828 68.5586C86.3867 68.5586 86.8643 68.4941 87.3154 68.3652C87.7666 68.2305 88.0859 68.0928 88.2734 67.9521L88.5811 67.75L88.9414 68.1104C88.9062 68.1689 88.8535 68.2451 88.7832 68.3389C88.7129 68.4268 88.5547 68.5908 88.3086 68.8311C88.0625 69.0713 87.7959 69.2822 87.5088 69.4639C87.2275 69.6396 86.8584 69.8037 86.4014 69.9561C85.9502 70.1025 85.4785 70.1758 84.9863 70.1758C83.7148 70.1758 82.6602 69.748 81.8223 68.8926C80.9902 68.0371 80.5742 66.9385 80.5742 65.5967C80.5742 64.249 81.0342 63.1006 81.9541 62.1514C82.8799 61.2021 83.9785 60.7275 85.25 60.7275ZM95.7002 65.1396L97.6777 67.9258C98.0996 68.5117 98.4307 68.8984 98.6709 69.0859C98.9111 69.2734 99.2393 69.3672 99.6553 69.3672V70H94.707V69.3672L95.7881 69.1035L93.9863 66.4932L92.7295 68.0225C92.4893 68.3213 92.3691 68.5908 92.3691 68.8311C92.3691 68.9775 92.4424 69.1035 92.5889 69.209C92.7412 69.3145 92.9668 69.3672 93.2656 69.3672V70H89.3984V69.3672L90.5674 69.1035L93.3623 65.5879L91.4727 62.9775C91.0625 62.415 90.7314 62.0342 90.4795 61.835C90.2275 61.6357 89.9258 61.5361 89.5742 61.5361V60.9121H94.3467V61.5361L93.2656 61.8086L94.9795 64.2432L96.1484 62.8018C96.3887 62.5029 96.5088 62.2627 96.5088 62.0811C96.5088 61.9346 96.4326 61.8086 96.2803 61.7031C96.1338 61.5918 95.9111 61.5361 95.6123 61.5361V60.9121H99.3916V61.5361L98.2227 61.8086L95.7002 65.1396ZM109.561 67.3018C109.561 67.9639 109.654 68.415 109.842 68.6553C110.029 68.8896 110.357 69.0068 110.826 69.0068V69.6396C110.299 69.6865 109.763 69.7568 109.218 69.8506C108.679 69.9385 108.271 70.0117 107.996 70.0703L107.583 70.1758L107.407 68.4707H107.311C107.275 68.5176 107.226 68.582 107.161 68.6641C107.097 68.7402 106.956 68.875 106.739 69.0684C106.522 69.2559 106.297 69.4258 106.062 69.5781C105.828 69.7246 105.529 69.8623 105.166 69.9912C104.809 70.1143 104.445 70.1758 104.076 70.1758C103.186 70.1758 102.482 69.8711 101.967 69.2617C101.451 68.6523 101.193 67.7588 101.193 66.5811V63.6104C101.193 62.9482 101.1 62.4971 100.912 62.2568C100.73 62.0166 100.405 61.8965 99.9365 61.8965V61.2725C100.499 61.2256 101.079 61.1494 101.677 61.0439C102.28 60.9326 102.737 60.833 103.048 60.7451L103.531 60.6396V66.4932C103.531 67.2021 103.666 67.709 103.936 68.0137C104.205 68.3184 104.642 68.4707 105.245 68.4707C105.567 68.4707 105.893 68.3975 106.221 68.251C106.555 68.0986 106.804 67.9492 106.968 67.8027L107.223 67.5742V63.6104C107.223 62.9482 107.129 62.4971 106.941 62.2568C106.76 62.0166 106.435 61.8965 105.966 61.8965V61.2725C106.528 61.2256 107.108 61.1494 107.706 61.0439C108.31 60.9326 108.772 60.833 109.095 60.7451L109.561 60.6396V67.3018ZM119.369 63.8828V67.3018C119.369 67.9639 119.463 68.415 119.65 68.6553C119.838 68.8896 120.163 69.0068 120.626 69.0068V69.6396C120.099 69.6865 119.565 69.7568 119.026 69.8506C118.487 69.9385 118.08 70.0117 117.805 70.0703L117.392 70.1758L117.207 68.4707H117.119C117.084 68.5176 117.034 68.582 116.97 68.6641C116.911 68.7402 116.782 68.875 116.583 69.0684C116.39 69.2559 116.182 69.4258 115.959 69.5781C115.736 69.7246 115.449 69.8623 115.098 69.9912C114.752 70.1143 114.406 70.1758 114.061 70.1758C113.316 70.1758 112.725 69.9824 112.285 69.5957C111.846 69.2031 111.626 68.708 111.626 68.1104C111.626 67.5947 111.811 67.1201 112.18 66.6865C112.555 66.2529 113.006 65.9131 113.533 65.667C114.066 65.4209 114.597 65.2129 115.124 65.043C115.651 64.8672 116.1 64.75 116.469 64.6914L117.031 64.6035V64.0586C117.031 62.5 116.46 61.7207 115.317 61.7207C115.124 61.7207 114.931 61.7441 114.737 61.791C114.55 61.8379 114.403 61.8848 114.298 61.9316L114.148 61.9932L113.516 63.9707H112.259V61.6328C112.376 61.5625 112.543 61.4805 112.76 61.3867C112.977 61.2871 113.41 61.1523 114.061 60.9824C114.711 60.8125 115.341 60.7275 115.95 60.7275C117.017 60.7275 117.852 61.0146 118.455 61.5889C119.064 62.1572 119.369 62.9219 119.369 63.8828ZM115.142 68.4707C115.464 68.4707 115.78 68.3975 116.091 68.251C116.407 68.0986 116.642 67.9492 116.794 67.8027L117.031 67.5742V65.5C116.949 65.5117 116.841 65.5293 116.706 65.5527C116.571 65.5762 116.334 65.6436 115.994 65.7549C115.654 65.8604 115.355 65.9834 115.098 66.124C114.84 66.2588 114.603 66.4463 114.386 66.6865C114.169 66.9268 114.061 67.1904 114.061 67.4775C114.061 68.1396 114.421 68.4707 115.142 68.4707ZM124.766 55.4189V67.8379C124.766 68.459 124.851 68.8691 125.021 69.0684C125.19 69.2676 125.527 69.3672 126.031 69.3672V70H121.171V69.3672L122.428 69.1035V58.3896C122.428 57.7275 122.334 57.2764 122.146 57.0361C121.965 56.7959 121.64 56.6758 121.171 56.6758V56.0518C121.733 56.0049 122.313 55.9287 122.911 55.8232C123.515 55.7119 123.972 55.6123 124.282 55.5244L124.766 55.4189ZM127.517 69.7627C127.241 69.4873 127.104 69.1475 127.104 68.7432C127.104 68.333 127.241 67.9902 127.517 67.7148C127.792 67.4395 128.135 67.3018 128.545 67.3018C128.955 67.3018 129.298 67.4395 129.573 67.7148C129.849 67.9902 129.986 68.333 129.986 68.7432C129.986 69.1475 129.849 69.4873 129.573 69.7627C129.298 70.0381 128.955 70.1758 128.545 70.1758C128.135 70.1758 127.792 70.0381 127.517 69.7627Z" fill="#ED1C24"/>
</svg>
