<svg width="268" height="128" viewBox="0 0 268 128" fill="none" xmlns="http://www.w3.org/2000/svg">
<rect x="0.5" y="0.5" width="267" height="127" fill="white" stroke="#ED1C24"/>
<path d="M12.8018 13.8311V9.24316H11.2725V8.59277C11.835 8.52246 12.3389 8.38184 12.7842 8.1709C13.2295 7.95996 13.5342 7.76953 13.6982 7.59961L13.9355 7.35352H14.6035V12.5742C14.6035 13.1016 14.6943 13.459 14.876 13.6465C15.0635 13.8281 15.4209 13.9189 15.9482 13.9189V14.5518H11.4482V14.0068L12.8018 13.8311ZM19.8506 7.25684C20.6885 7.25684 21.3271 7.42383 21.7666 7.75781C22.2061 8.08594 22.4258 8.49023 22.4258 8.9707C22.4258 9.31641 22.3057 9.62402 22.0654 9.89355C21.8252 10.1631 21.585 10.3477 21.3447 10.4473L20.9844 10.5879V10.6758C21.0312 10.6875 21.0957 10.708 21.1777 10.7373C21.2656 10.7607 21.4209 10.8281 21.6436 10.9395C21.8662 11.0449 22.0566 11.168 22.2148 11.3086C22.3789 11.4434 22.5283 11.6309 22.6631 11.8711C22.8037 12.1113 22.874 12.375 22.874 12.6621C22.874 13.2363 22.6104 13.7256 22.083 14.1299C21.5557 14.5283 20.7998 14.7275 19.8154 14.7275C18.8428 14.7275 18.1045 14.5488 17.6006 14.1914C17.0967 13.8281 16.8447 13.377 16.8447 12.8379C16.8447 12.4395 16.9795 12.0908 17.249 11.792C17.5186 11.4932 17.7852 11.291 18.0488 11.1855L18.4707 11.0361V10.9482C18.4355 10.9365 18.3857 10.916 18.3213 10.8867C18.2627 10.8574 18.1543 10.7959 17.9961 10.7021C17.8438 10.6025 17.7061 10.4912 17.583 10.3682C17.4658 10.2393 17.3574 10.0752 17.2578 9.87598C17.1641 9.6709 17.1172 9.44824 17.1172 9.20801C17.1172 8.69238 17.3662 8.23828 17.8643 7.8457C18.3623 7.45312 19.0244 7.25684 19.8506 7.25684ZM20.8965 12.8027C20.8965 12.5508 20.7705 12.3135 20.5186 12.0908C20.2666 11.8682 20.0088 11.71 19.7451 11.6162L19.3672 11.4932C19.2969 11.5283 19.2119 11.5781 19.1123 11.6426C19.0186 11.707 18.8867 11.8535 18.7168 12.082C18.5527 12.3105 18.4707 12.5508 18.4707 12.8027C18.4707 13.1367 18.5791 13.4062 18.7959 13.6113C19.0186 13.8164 19.3232 13.9189 19.71 13.9189C20.0791 13.9189 20.3691 13.8193 20.5801 13.6201C20.791 13.4209 20.8965 13.1484 20.8965 12.8027ZM20.6504 8.33789C20.4922 8.16211 20.2725 8.07422 19.9912 8.07422C19.7158 8.07422 19.4961 8.16211 19.332 8.33789C19.1738 8.50781 19.0947 8.74805 19.0947 9.05859C19.0947 9.29883 19.1797 9.50977 19.3496 9.69141C19.5195 9.87305 19.6865 9.99316 19.8506 10.0518L20.0879 10.1396C20.1465 10.1162 20.2197 10.0781 20.3076 10.0254C20.4014 9.97266 20.5215 9.85254 20.668 9.66504C20.8203 9.47754 20.8965 9.27539 20.8965 9.05859C20.8965 8.74805 20.8145 8.50781 20.6504 8.33789ZM38.624 23.0068L37.3672 19.5879H32.5947L31.7861 21.5742C31.6689 21.873 31.6074 22.1719 31.6016 22.4707C31.6016 22.7578 31.6895 22.9658 31.8652 23.0947C32.041 23.2178 32.375 23.2793 32.8672 23.2793V24H28.3672V23.3672L29.8965 23.0068L35.0293 9.96387H36.2861L40.7861 21.6621C41.0146 22.2598 41.2754 22.6787 41.5684 22.9189C41.8613 23.1592 42.2891 23.2793 42.8516 23.2793V24H37.0068V23.3672L38.624 23.0068ZM34.9326 13.4707L32.9551 18.6035H36.9189L35.0293 13.4707H34.9326ZM51.8604 14.6396V21.8379C51.8604 22.459 51.9424 22.8691 52.1064 23.0684C52.2764 23.2676 52.6133 23.3672 53.1172 23.3672V24H48.2568V23.3672L49.5137 23.1035V17.6104C49.5137 16.9482 49.4199 16.4971 49.2324 16.2568C49.0508 16.0166 48.7256 15.8965 48.2568 15.8965V15.2725C48.8193 15.2256 49.3994 15.1494 49.9971 15.0439C50.6006 14.9326 51.0635 14.833 51.3857 14.7451L51.8604 14.6396ZM49.6631 12.6094C49.3877 12.334 49.25 11.9912 49.25 11.5811C49.25 11.1709 49.3877 10.8281 49.6631 10.5527C49.9385 10.2773 50.2783 10.1396 50.6826 10.1396C51.0928 10.1396 51.4355 10.2773 51.7109 10.5527C51.9863 10.8281 52.124 11.1709 52.124 11.5811C52.124 11.9912 51.9863 12.334 51.7109 12.6094C51.4355 12.8848 51.0928 13.0225 50.6826 13.0225C50.2783 13.0225 49.9385 12.8848 49.6631 12.6094ZM59.0498 14.7275C59.29 14.7275 59.5303 14.751 59.7705 14.7979C60.0107 14.8389 60.1895 14.8828 60.3066 14.9297L60.4912 15V12.3896C60.4912 11.7275 60.3975 11.2764 60.21 11.0361C60.0225 10.7959 59.6973 10.6758 59.2344 10.6758V10.0518C59.7969 10.0049 60.377 9.92871 60.9746 9.82324C61.5781 9.71191 62.0352 9.6123 62.3457 9.52441L62.8291 9.41895V21.3018C62.8291 21.9639 62.9229 22.415 63.1104 22.6553C63.2979 22.8896 63.626 23.0068 64.0947 23.0068V23.6396C63.5674 23.6865 63.0312 23.7568 62.4863 23.8506C61.9473 23.9385 61.54 24.0117 61.2646 24.0703L60.8516 24.1758L60.667 22.4707H60.5791C60.5439 22.5176 60.4971 22.582 60.4385 22.6641C60.3799 22.7402 60.2451 22.875 60.0342 23.0684C59.8232 23.2559 59.6035 23.4258 59.375 23.5781C59.1465 23.7246 58.8623 23.8623 58.5225 23.9912C58.1885 24.1143 57.8545 24.1758 57.5205 24.1758C56.583 24.1758 55.7773 23.7803 55.1035 22.9893C54.4355 22.1982 54.1016 21.1553 54.1016 19.8604C54.1016 18.29 54.5527 17.042 55.4551 16.1162C56.3633 15.1904 57.5615 14.7275 59.0498 14.7275ZM58.7773 15.7207C58.1387 15.7207 57.6025 16.0312 57.1689 16.6523C56.7412 17.2676 56.5273 18.1875 56.5273 19.4121C56.5273 21.4512 57.2188 22.4707 58.6016 22.4707C58.9238 22.4707 59.2402 22.3975 59.5508 22.251C59.8672 22.0986 60.1016 21.9434 60.2539 21.7852L60.4912 21.5479V16.4414C60.4443 16.3945 60.374 16.3301 60.2803 16.248C60.1924 16.1602 59.999 16.0518 59.7002 15.9229C59.4072 15.7881 59.0996 15.7207 58.7773 15.7207ZM72.6465 17.8828V21.3018C72.6465 21.9639 72.7402 22.415 72.9277 22.6553C73.1152 22.8896 73.4404 23.0068 73.9033 23.0068V23.6396C73.376 23.6865 72.8428 23.7568 72.3037 23.8506C71.7646 23.9385 71.3574 24.0117 71.082 24.0703L70.6689 24.1758L70.4844 22.4707H70.3965C70.3613 22.5176 70.3115 22.582 70.2471 22.6641C70.1885 22.7402 70.0596 22.875 69.8604 23.0684C69.667 23.2559 69.459 23.4258 69.2363 23.5781C69.0137 23.7246 68.7266 23.8623 68.375 23.9912C68.0293 24.1143 67.6836 24.1758 67.3379 24.1758C66.5938 24.1758 66.002 23.9824 65.5625 23.5957C65.123 23.2031 64.9033 22.708 64.9033 22.1104C64.9033 21.5947 65.0879 21.1201 65.457 20.6865C65.832 20.2529 66.2832 19.9131 66.8105 19.667C67.3438 19.4209 67.874 19.2129 68.4014 19.043C68.9287 18.8672 69.377 18.75 69.7461 18.6914L70.3086 18.6035V18.0586C70.3086 16.5 69.7373 15.7207 68.5947 15.7207C68.4014 15.7207 68.208 15.7441 68.0146 15.791C67.8271 15.8379 67.6807 15.8848 67.5752 15.9316L67.4258 15.9932L66.793 17.9707H65.5361V15.6328C65.6533 15.5625 65.8203 15.4805 66.0371 15.3867C66.2539 15.2871 66.6875 15.1523 67.3379 14.9824C67.9883 14.8125 68.6182 14.7275 69.2275 14.7275C70.2939 14.7275 71.1289 15.0146 71.7324 15.5889C72.3418 16.1572 72.6465 16.9219 72.6465 17.8828ZM68.4189 22.4707C68.7412 22.4707 69.0576 22.3975 69.3682 22.251C69.6846 22.0986 69.9189 21.9492 70.0713 21.8027L70.3086 21.5742V19.5C70.2266 19.5117 70.1182 19.5293 69.9834 19.5527C69.8486 19.5762 69.6113 19.6436 69.2715 19.7549C68.9316 19.8604 68.6328 19.9834 68.375 20.124C68.1172 20.2588 67.8799 20.4463 67.6631 20.6865C67.4463 20.9268 67.3379 21.1904 67.3379 21.4775C67.3379 22.1396 67.6982 22.4707 68.4189 22.4707ZM79.8447 14.7275C80.085 14.7275 80.3252 14.751 80.5654 14.7979C80.8057 14.8389 80.9844 14.8828 81.1016 14.9297L81.2861 15V12.3896C81.2861 11.7275 81.1924 11.2764 81.0049 11.0361C80.8174 10.7959 80.4922 10.6758 80.0293 10.6758V10.0518C80.5918 10.0049 81.1719 9.92871 81.7695 9.82324C82.373 9.71191 82.8301 9.6123 83.1406 9.52441L83.624 9.41895V21.3018C83.624 21.9639 83.7178 22.415 83.9053 22.6553C84.0928 22.8896 84.4209 23.0068 84.8896 23.0068V23.6396C84.3623 23.6865 83.8262 23.7568 83.2812 23.8506C82.7422 23.9385 82.335 24.0117 82.0596 24.0703L81.6465 24.1758L81.4619 22.4707H81.374C81.3389 22.5176 81.292 22.582 81.2334 22.6641C81.1748 22.7402 81.04 22.875 80.8291 23.0684C80.6182 23.2559 80.3984 23.4258 80.1699 23.5781C79.9414 23.7246 79.6572 23.8623 79.3174 23.9912C78.9834 24.1143 78.6494 24.1758 78.3154 24.1758C77.3779 24.1758 76.5723 23.7803 75.8984 22.9893C75.2305 22.1982 74.8965 21.1553 74.8965 19.8604C74.8965 18.29 75.3477 17.042 76.25 16.1162C77.1582 15.1904 78.3564 14.7275 79.8447 14.7275ZM79.5723 15.7207C78.9336 15.7207 78.3975 16.0312 77.9639 16.6523C77.5361 17.2676 77.3223 18.1875 77.3223 19.4121C77.3223 21.4512 78.0137 22.4707 79.3965 22.4707C79.7188 22.4707 80.0352 22.3975 80.3457 22.251C80.6621 22.0986 80.8965 21.9434 81.0488 21.7852L81.2861 21.5479V16.4414C81.2393 16.3945 81.1689 16.3301 81.0752 16.248C80.9873 16.1602 80.7939 16.0518 80.4951 15.9229C80.2021 15.7881 79.8945 15.7207 79.5723 15.7207ZM90.3828 15.7207C89.9023 15.7207 89.4834 15.9404 89.126 16.3799C88.7744 16.8135 88.5342 17.4639 88.4053 18.3311L91.8242 18.0586C91.8242 16.5 91.3438 15.7207 90.3828 15.7207ZM90.5586 14.7275C91.6895 14.7275 92.5742 15.0557 93.2129 15.7119C93.8574 16.3682 94.2031 17.2998 94.25 18.5068L93.3535 19.2275H88.3086V19.3242C88.3086 20.2969 88.5811 21.0791 89.126 21.6709C89.6768 22.2627 90.3652 22.5586 91.1914 22.5586C91.6953 22.5586 92.1729 22.4941 92.624 22.3652C93.0752 22.2305 93.3945 22.0928 93.582 21.9521L93.8896 21.75L94.25 22.1104C94.2148 22.1689 94.1621 22.2451 94.0918 22.3389C94.0215 22.4268 93.8633 22.5908 93.6172 22.8311C93.3711 23.0713 93.1045 23.2822 92.8174 23.4639C92.5361 23.6396 92.167 23.8037 91.71 23.9561C91.2588 24.1025 90.7871 24.1758 90.2949 24.1758C89.0234 24.1758 87.9688 23.748 87.1309 22.8926C86.2988 22.0371 85.8828 20.9385 85.8828 19.5967C85.8828 18.249 86.3428 17.1006 87.2627 16.1514C88.1885 15.2021 89.2871 14.7275 90.5586 14.7275ZM105.236 15.7207C104.756 15.7207 104.337 15.9404 103.979 16.3799C103.628 16.8135 103.388 17.4639 103.259 18.3311L106.678 18.0586C106.678 16.5 106.197 15.7207 105.236 15.7207ZM105.412 14.7275C106.543 14.7275 107.428 15.0557 108.066 15.7119C108.711 16.3682 109.057 17.2998 109.104 18.5068L108.207 19.2275H103.162V19.3242C103.162 20.2969 103.435 21.0791 103.979 21.6709C104.53 22.2627 105.219 22.5586 106.045 22.5586C106.549 22.5586 107.026 22.4941 107.478 22.3652C107.929 22.2305 108.248 22.0928 108.436 21.9521L108.743 21.75L109.104 22.1104C109.068 22.1689 109.016 22.2451 108.945 22.3389C108.875 22.4268 108.717 22.5908 108.471 22.8311C108.225 23.0713 107.958 23.2822 107.671 23.4639C107.39 23.6396 107.021 23.8037 106.563 23.9561C106.112 24.1025 105.641 24.1758 105.148 24.1758C103.877 24.1758 102.822 23.748 101.984 22.8926C101.152 22.0371 100.736 20.9385 100.736 19.5967C100.736 18.249 101.196 17.1006 102.116 16.1514C103.042 15.2021 104.141 14.7275 105.412 14.7275ZM105.324 13.5586H104.788V12.8379L106.59 10.2275H108.207V11.2734L105.324 13.5586ZM123.148 17.8828V21.3018C123.148 21.9639 123.242 22.415 123.43 22.6553C123.617 22.8896 123.942 23.0068 124.405 23.0068V23.6396C123.878 23.6865 123.345 23.7568 122.806 23.8506C122.267 23.9385 121.859 24.0117 121.584 24.0703L121.171 24.1758L120.986 22.4707H120.898C120.863 22.5176 120.813 22.582 120.749 22.6641C120.69 22.7402 120.562 22.875 120.362 23.0684C120.169 23.2559 119.961 23.4258 119.738 23.5781C119.516 23.7246 119.229 23.8623 118.877 23.9912C118.531 24.1143 118.186 24.1758 117.84 24.1758C117.096 24.1758 116.504 23.9824 116.064 23.5957C115.625 23.2031 115.405 22.708 115.405 22.1104C115.405 21.5947 115.59 21.1201 115.959 20.6865C116.334 20.2529 116.785 19.9131 117.312 19.667C117.846 19.4209 118.376 19.2129 118.903 19.043C119.431 18.8672 119.879 18.75 120.248 18.6914L120.811 18.6035V18.0586C120.811 16.5 120.239 15.7207 119.097 15.7207C118.903 15.7207 118.71 15.7441 118.517 15.791C118.329 15.8379 118.183 15.8848 118.077 15.9316L117.928 15.9932L117.295 17.9707H116.038V15.6328C116.155 15.5625 116.322 15.4805 116.539 15.3867C116.756 15.2871 117.189 15.1523 117.84 14.9824C118.49 14.8125 119.12 14.7275 119.729 14.7275C120.796 14.7275 121.631 15.0146 122.234 15.5889C122.844 16.1572 123.148 16.9219 123.148 17.8828ZM118.921 22.4707C119.243 22.4707 119.56 22.3975 119.87 22.251C120.187 22.0986 120.421 21.9492 120.573 21.8027L120.811 21.5742V19.5C120.729 19.5117 120.62 19.5293 120.485 19.5527C120.351 19.5762 120.113 19.6436 119.773 19.7549C119.434 19.8604 119.135 19.9834 118.877 20.124C118.619 20.2588 118.382 20.4463 118.165 20.6865C117.948 20.9268 117.84 21.1904 117.84 21.4775C117.84 22.1396 118.2 22.4707 118.921 22.4707ZM128.545 23.9121V25.9775C128.545 26.5635 128.668 26.9648 128.914 27.1816C129.16 27.3984 129.638 27.5068 130.347 27.5068V28.1396H124.95V27.5068L126.207 27.2432V17.6104C126.207 16.9482 126.113 16.4971 125.926 16.2568C125.744 16.0166 125.419 15.8965 124.95 15.8965V15.2725C125.478 15.2256 126.011 15.1582 126.55 15.0703C127.089 14.9766 127.496 14.8945 127.771 14.8242L128.185 14.7275L128.369 16.4414H128.457C128.492 16.3945 128.539 16.333 128.598 16.2568C128.662 16.1748 128.797 16.0371 129.002 15.8438C129.213 15.6504 129.433 15.4805 129.661 15.334C129.89 15.1816 130.171 15.0439 130.505 14.9209C130.845 14.792 131.182 14.7275 131.516 14.7275C132.453 14.7275 133.256 15.126 133.924 15.9229C134.598 16.7139 134.935 17.7568 134.935 19.0518C134.935 20.6221 134.48 21.8701 133.572 22.7959C132.67 23.7158 131.475 24.1758 129.986 24.1758C129.746 24.1758 129.506 24.1523 129.266 24.1055C129.025 24.0586 128.847 24.0117 128.729 23.9648L128.545 23.9121ZM130.259 23.1914C130.897 23.1914 131.431 22.8838 131.858 22.2686C132.292 21.6475 132.509 20.7246 132.509 19.5C132.509 17.4609 131.817 16.4414 130.435 16.4414C130.147 16.4414 129.846 16.5176 129.529 16.6699C129.213 16.8164 128.97 16.9688 128.8 17.127L128.545 17.3379V22.2861C128.592 22.3564 128.665 22.4414 128.765 22.541C128.87 22.6348 129.072 22.7666 129.371 22.9365C129.676 23.1064 129.972 23.1914 130.259 23.1914ZM140.885 15.7207C140.404 15.7207 139.985 15.9404 139.628 16.3799C139.276 16.8135 139.036 17.4639 138.907 18.3311L142.326 18.0586C142.326 16.5 141.846 15.7207 140.885 15.7207ZM141.061 14.7275C142.191 14.7275 143.076 15.0557 143.715 15.7119C144.359 16.3682 144.705 17.2998 144.752 18.5068L143.855 19.2275H138.811V19.3242C138.811 20.2969 139.083 21.0791 139.628 21.6709C140.179 22.2627 140.867 22.5586 141.693 22.5586C142.197 22.5586 142.675 22.4941 143.126 22.3652C143.577 22.2305 143.896 22.0928 144.084 21.9521L144.392 21.75L144.752 22.1104C144.717 22.1689 144.664 22.2451 144.594 22.3389C144.523 22.4268 144.365 22.5908 144.119 22.8311C143.873 23.0713 143.606 23.2822 143.319 23.4639C143.038 23.6396 142.669 23.8037 142.212 23.9561C141.761 24.1025 141.289 24.1758 140.797 24.1758C139.525 24.1758 138.471 23.748 137.633 22.8926C136.801 22.0371 136.385 20.9385 136.385 19.5967C136.385 18.249 136.845 17.1006 137.765 16.1514C138.69 15.2021 139.789 14.7275 141.061 14.7275ZM155.378 18.3311V21.8379C155.378 22.459 155.46 22.8691 155.624 23.0684C155.794 23.2676 156.131 23.3672 156.635 23.3672V24H151.774V23.3672L153.031 23.1035V18.4189C153.031 17.71 152.896 17.2031 152.627 16.8984C152.357 16.5938 151.924 16.4414 151.326 16.4414C151.004 16.4414 150.676 16.5176 150.342 16.6699C150.014 16.8164 149.765 16.9688 149.595 17.127L149.349 17.3379V21.8379C149.349 22.459 149.431 22.8691 149.595 23.0684C149.765 23.2676 150.102 23.3672 150.605 23.3672V24H145.745V23.3672L147.002 23.1035V17.6104C147.002 16.9482 146.908 16.4971 146.721 16.2568C146.539 16.0166 146.214 15.8965 145.745 15.8965V15.2725C146.272 15.2256 146.806 15.1582 147.345 15.0703C147.884 14.9766 148.291 14.8945 148.566 14.8242L148.988 14.7275L149.164 16.4414H149.252C149.287 16.3945 149.337 16.333 149.401 16.2568C149.472 16.1748 149.615 16.0371 149.832 15.8438C150.049 15.6504 150.274 15.4805 150.509 15.334C150.743 15.1816 151.039 15.0439 151.396 14.9209C151.754 14.792 152.12 14.7275 152.495 14.7275C153.386 14.7275 154.089 15.0352 154.604 15.6504C155.12 16.2598 155.378 17.1533 155.378 18.3311ZM165.178 17.8828V21.3018C165.178 21.9639 165.271 22.415 165.459 22.6553C165.646 22.8896 165.972 23.0068 166.435 23.0068V23.6396C165.907 23.6865 165.374 23.7568 164.835 23.8506C164.296 23.9385 163.889 24.0117 163.613 24.0703L163.2 24.1758L163.016 22.4707H162.928C162.893 22.5176 162.843 22.582 162.778 22.6641C162.72 22.7402 162.591 22.875 162.392 23.0684C162.198 23.2559 161.99 23.4258 161.768 23.5781C161.545 23.7246 161.258 23.8623 160.906 23.9912C160.561 24.1143 160.215 24.1758 159.869 24.1758C159.125 24.1758 158.533 23.9824 158.094 23.5957C157.654 23.2031 157.435 22.708 157.435 22.1104C157.435 21.5947 157.619 21.1201 157.988 20.6865C158.363 20.2529 158.814 19.9131 159.342 19.667C159.875 19.4209 160.405 19.2129 160.933 19.043C161.46 18.8672 161.908 18.75 162.277 18.6914L162.84 18.6035V18.0586C162.84 16.5 162.269 15.7207 161.126 15.7207C160.933 15.7207 160.739 15.7441 160.546 15.791C160.358 15.8379 160.212 15.8848 160.106 15.9316L159.957 15.9932L159.324 17.9707H158.067V15.6328C158.185 15.5625 158.352 15.4805 158.568 15.3867C158.785 15.2871 159.219 15.1523 159.869 14.9824C160.52 14.8125 161.149 14.7275 161.759 14.7275C162.825 14.7275 163.66 15.0146 164.264 15.5889C164.873 16.1572 165.178 16.9219 165.178 17.8828ZM160.95 22.4707C161.272 22.4707 161.589 22.3975 161.899 22.251C162.216 22.0986 162.45 21.9492 162.603 21.8027L162.84 21.5742V19.5C162.758 19.5117 162.649 19.5293 162.515 19.5527C162.38 19.5762 162.143 19.6436 161.803 19.7549C161.463 19.8604 161.164 19.9834 160.906 20.124C160.648 20.2588 160.411 20.4463 160.194 20.6865C159.978 20.9268 159.869 21.1904 159.869 21.4775C159.869 22.1396 160.229 22.4707 160.95 22.4707ZM172.288 21.75C172.288 21.4395 172.124 21.1582 171.796 20.9062C171.474 20.6543 171.084 20.4258 170.627 20.2207C170.176 20.0156 169.722 19.7959 169.265 19.5615C168.808 19.3271 168.415 19.0137 168.087 18.6211C167.765 18.2227 167.604 17.7656 167.604 17.25C167.604 16.5293 167.908 15.9287 168.518 15.4482C169.133 14.9678 170 14.7275 171.119 14.7275C171.6 14.7275 172.062 14.7744 172.508 14.8682C172.959 14.9561 173.293 15.0469 173.51 15.1406L173.817 15.2725V17.6104H173.079C172.921 16.292 172.297 15.6328 171.207 15.6328C170.82 15.6328 170.498 15.7412 170.24 15.958C169.982 16.1689 169.854 16.4209 169.854 16.7139C169.854 17.0713 170.015 17.376 170.337 17.6279C170.665 17.8799 171.058 18.0967 171.515 18.2783C171.972 18.4541 172.426 18.6475 172.877 18.8584C173.334 19.0693 173.724 19.374 174.046 19.7725C174.374 20.165 174.538 20.6455 174.538 21.2139C174.538 22.0635 174.195 22.7695 173.51 23.332C172.824 23.8945 171.878 24.1758 170.671 24.1758C170.062 24.1758 169.476 24.1172 168.913 24C168.356 23.8828 167.958 23.7627 167.718 23.6396L167.34 23.4639V20.7568H168.061C168.195 21.5713 168.479 22.1953 168.913 22.6289C169.353 23.0625 169.906 23.2793 170.574 23.2793C171.055 23.2793 171.459 23.127 171.787 22.8223C172.121 22.5176 172.288 22.1602 172.288 21.75ZM190.191 21.3018C190.191 21.9639 190.285 22.415 190.473 22.6553C190.66 22.8896 190.988 23.0068 191.457 23.0068V23.6396C190.93 23.6865 190.394 23.7568 189.849 23.8506C189.31 23.9385 188.902 24.0117 188.627 24.0703L188.214 24.1758L188.038 22.4707H187.941C187.906 22.5176 187.856 22.582 187.792 22.6641C187.728 22.7402 187.587 22.875 187.37 23.0684C187.153 23.2559 186.928 23.4258 186.693 23.5781C186.459 23.7246 186.16 23.8623 185.797 23.9912C185.439 24.1143 185.076 24.1758 184.707 24.1758C183.816 24.1758 183.113 23.8711 182.598 23.2617C182.082 22.6523 181.824 21.7588 181.824 20.5811V17.6104C181.824 16.9482 181.73 16.4971 181.543 16.2568C181.361 16.0166 181.036 15.8965 180.567 15.8965V15.2725C181.13 15.2256 181.71 15.1494 182.308 15.0439C182.911 14.9326 183.368 14.833 183.679 14.7451L184.162 14.6396V20.4932C184.162 21.2021 184.297 21.709 184.566 22.0137C184.836 22.3184 185.272 22.4707 185.876 22.4707C186.198 22.4707 186.523 22.3975 186.852 22.251C187.186 22.0986 187.435 21.9492 187.599 21.8027L187.854 21.5742V17.6104C187.854 16.9482 187.76 16.4971 187.572 16.2568C187.391 16.0166 187.065 15.8965 186.597 15.8965V15.2725C187.159 15.2256 187.739 15.1494 188.337 15.0439C188.94 14.9326 189.403 14.833 189.726 14.7451L190.191 14.6396V21.3018ZM207.022 18.4189V21.8379C207.022 22.459 207.104 22.8691 207.269 23.0684C207.438 23.2676 207.775 23.3672 208.279 23.3672V24H203.604V23.3672L204.685 23.1035V18.4189C204.685 17.7568 204.538 17.2617 204.245 16.9336C203.958 16.6055 203.562 16.4414 203.059 16.4414C202.76 16.4414 202.461 16.5088 202.162 16.6436C201.863 16.7725 201.635 16.9072 201.477 17.0479L201.257 17.25C201.315 17.4902 201.348 17.8799 201.354 18.4189V21.8379C201.354 22.459 201.433 22.8691 201.591 23.0684C201.755 23.2676 202.065 23.3672 202.522 23.3672V24H197.935V23.3672L199.007 23.1035V18.4189C199.007 17.7568 198.863 17.2617 198.576 16.9336C198.289 16.6055 197.894 16.4414 197.39 16.4414C197.126 16.4414 196.851 16.5088 196.563 16.6436C196.276 16.7725 196.054 16.9072 195.896 17.0479L195.685 17.25V21.8379C195.685 22.459 195.764 22.8691 195.922 23.0684C196.086 23.2676 196.396 23.3672 196.854 23.3672V24H192.081V23.3672L193.338 23.1035V17.6104C193.338 16.9482 193.244 16.4971 193.057 16.2568C192.875 16.0166 192.55 15.8965 192.081 15.8965V15.2725C192.608 15.2256 193.142 15.1582 193.681 15.0703C194.22 14.9766 194.627 14.8945 194.902 14.8242L195.324 14.7275L195.5 16.2568H195.588C195.623 16.2217 195.67 16.1689 195.729 16.0986C195.793 16.0283 195.925 15.9053 196.124 15.7295C196.323 15.5537 196.528 15.3984 196.739 15.2637C196.956 15.123 197.229 15 197.557 14.8945C197.891 14.7832 198.225 14.7275 198.559 14.7275C198.898 14.7275 199.212 14.7832 199.499 14.8945C199.786 15 200.018 15.1289 200.193 15.2812C200.375 15.4277 200.527 15.5742 200.65 15.7207C200.779 15.8613 200.87 15.9873 200.923 16.0986L200.993 16.2568H201.081C201.116 16.2217 201.163 16.1689 201.222 16.0986C201.286 16.0283 201.418 15.9053 201.617 15.7295C201.822 15.5537 202.039 15.3984 202.268 15.2637C202.496 15.123 202.786 15 203.138 14.8945C203.495 14.7832 203.858 14.7275 204.228 14.7275C205.077 14.7275 205.754 15.041 206.258 15.668C206.768 16.2891 207.022 17.2061 207.022 18.4189ZM20.9932 41.3311V44.8379C20.9932 45.459 21.0752 45.8691 21.2393 46.0684C21.4092 46.2676 21.7461 46.3672 22.25 46.3672V47H17.3896V46.3672L18.6465 46.1035V41.4189C18.6465 40.71 18.5117 40.2031 18.2422 39.8984C17.9727 39.5938 17.5391 39.4414 16.9414 39.4414C16.6191 39.4414 16.291 39.5176 15.957 39.6699C15.6289 39.8164 15.3799 39.9688 15.21 40.127L14.9639 40.3379V44.8379C14.9639 45.459 15.0459 45.8691 15.21 46.0684C15.3799 46.2676 15.7168 46.3672 16.2207 46.3672V47H11.3604V46.3672L12.6172 46.1035V40.6104C12.6172 39.9482 12.5234 39.4971 12.3359 39.2568C12.1543 39.0166 11.8291 38.8965 11.3604 38.8965V38.2725C11.8877 38.2256 12.4209 38.1582 12.96 38.0703C13.499 37.9766 13.9062 37.8945 14.1816 37.8242L14.6035 37.7275L14.7793 39.4414H14.8672C14.9023 39.3945 14.9521 39.333 15.0166 39.2568C15.0869 39.1748 15.2305 39.0371 15.4473 38.8438C15.6641 38.6504 15.8896 38.4805 16.124 38.334C16.3584 38.1816 16.6543 38.0439 17.0117 37.9209C17.3691 37.792 17.7354 37.7275 18.1104 37.7275C19.001 37.7275 19.7041 38.0352 20.2197 38.6504C20.7354 39.2598 20.9932 40.1533 20.9932 41.3311ZM32.2344 44.3018C32.2344 44.9639 32.3281 45.415 32.5156 45.6553C32.7031 45.8896 33.0312 46.0068 33.5 46.0068V46.6396C32.9727 46.6865 32.4365 46.7568 31.8916 46.8506C31.3525 46.9385 30.9453 47.0117 30.6699 47.0703L30.2568 47.1758L30.0811 45.4707H29.9844C29.9492 45.5176 29.8994 45.582 29.835 45.6641C29.7705 45.7402 29.6299 45.875 29.4131 46.0684C29.1963 46.2559 28.9707 46.4258 28.7363 46.5781C28.502 46.7246 28.2031 46.8623 27.8398 46.9912C27.4824 47.1143 27.1191 47.1758 26.75 47.1758C25.8594 47.1758 25.1562 46.8711 24.6406 46.2617C24.125 45.6523 23.8672 44.7588 23.8672 43.5811V40.6104C23.8672 39.9482 23.7734 39.4971 23.5859 39.2568C23.4043 39.0166 23.0791 38.8965 22.6104 38.8965V38.2725C23.1729 38.2256 23.7529 38.1494 24.3506 38.0439C24.9541 37.9326 25.4111 37.833 25.7217 37.7451L26.2051 37.6396V43.4932C26.2051 44.2021 26.3398 44.709 26.6094 45.0137C26.8789 45.3184 27.3154 45.4707 27.9189 45.4707C28.2412 45.4707 28.5664 45.3975 28.8945 45.251C29.2285 45.0986 29.4775 44.9492 29.6416 44.8027L29.8965 44.5742V40.6104C29.8965 39.9482 29.8027 39.4971 29.6152 39.2568C29.4336 39.0166 29.1084 38.8965 28.6396 38.8965V38.2725C29.2021 38.2256 29.7822 38.1494 30.3799 38.0439C30.9834 37.9326 31.4463 37.833 31.7686 37.7451L32.2344 37.6396V44.3018ZM28.2793 36.5586H27.7344V35.8379L29.5361 33.2275H31.1621V34.2734L28.2793 36.5586ZM49.0654 41.4189V44.8379C49.0654 45.459 49.1475 45.8691 49.3115 46.0684C49.4814 46.2676 49.8184 46.3672 50.3223 46.3672V47H45.6465V46.3672L46.7275 46.1035V41.4189C46.7275 40.7568 46.5811 40.2617 46.2881 39.9336C46.001 39.6055 45.6055 39.4414 45.1016 39.4414C44.8027 39.4414 44.5039 39.5088 44.2051 39.6436C43.9062 39.7725 43.6777 39.9072 43.5195 40.0479L43.2998 40.25C43.3584 40.4902 43.3906 40.8799 43.3965 41.4189V44.8379C43.3965 45.459 43.4756 45.8691 43.6338 46.0684C43.7979 46.2676 44.1084 46.3672 44.5654 46.3672V47H39.9775V46.3672L41.0498 46.1035V41.4189C41.0498 40.7568 40.9062 40.2617 40.6191 39.9336C40.332 39.6055 39.9365 39.4414 39.4326 39.4414C39.1689 39.4414 38.8936 39.5088 38.6064 39.6436C38.3193 39.7725 38.0967 39.9072 37.9385 40.0479L37.7275 40.25V44.8379C37.7275 45.459 37.8066 45.8691 37.9648 46.0684C38.1289 46.2676 38.4395 46.3672 38.8965 46.3672V47H34.124V46.3672L35.3809 46.1035V40.6104C35.3809 39.9482 35.2871 39.4971 35.0996 39.2568C34.918 39.0166 34.5928 38.8965 34.124 38.8965V38.2725C34.6514 38.2256 35.1846 38.1582 35.7236 38.0703C36.2627 37.9766 36.6699 37.8945 36.9453 37.8242L37.3672 37.7275L37.543 39.2568H37.6309C37.666 39.2217 37.7129 39.1689 37.7715 39.0986C37.8359 39.0283 37.9678 38.9053 38.167 38.7295C38.3662 38.5537 38.5713 38.3984 38.7822 38.2637C38.999 38.123 39.2715 38 39.5996 37.8945C39.9336 37.7832 40.2676 37.7275 40.6016 37.7275C40.9414 37.7275 41.2549 37.7832 41.542 37.8945C41.8291 38 42.0605 38.1289 42.2363 38.2812C42.418 38.4277 42.5703 38.5742 42.6934 38.7207C42.8223 38.8613 42.9131 38.9873 42.9658 39.0986L43.0361 39.2568H43.124C43.1592 39.2217 43.2061 39.1689 43.2646 39.0986C43.3291 39.0283 43.4609 38.9053 43.6602 38.7295C43.8652 38.5537 44.082 38.3984 44.3105 38.2637C44.5391 38.123 44.8291 38 45.1807 37.8945C45.5381 37.7832 45.9014 37.7275 46.2705 37.7275C47.1201 37.7275 47.7969 38.041 48.3008 38.668C48.8105 39.2891 49.0654 40.2061 49.0654 41.4189ZM55.8066 38.7207C55.3262 38.7207 54.9072 38.9404 54.5498 39.3799C54.1982 39.8135 53.958 40.4639 53.8291 41.3311L57.248 41.0586C57.248 39.5 56.7676 38.7207 55.8066 38.7207ZM55.9824 37.7275C57.1133 37.7275 57.998 38.0557 58.6367 38.7119C59.2812 39.3682 59.627 40.2998 59.6738 41.5068L58.7773 42.2275H53.7324V42.3242C53.7324 43.2969 54.0049 44.0791 54.5498 44.6709C55.1006 45.2627 55.7891 45.5586 56.6152 45.5586C57.1191 45.5586 57.5967 45.4941 58.0479 45.3652C58.499 45.2305 58.8184 45.0928 59.0059 44.9521L59.3135 44.75L59.6738 45.1104C59.6387 45.1689 59.5859 45.2451 59.5156 45.3389C59.4453 45.4268 59.2871 45.5908 59.041 45.8311C58.7949 46.0713 58.5283 46.2822 58.2412 46.4639C57.96 46.6396 57.5908 46.8037 57.1338 46.9561C56.6826 47.1025 56.2109 47.1758 55.7188 47.1758C54.4473 47.1758 53.3926 46.748 52.5547 45.8926C51.7227 45.0371 51.3066 43.9385 51.3066 42.5967C51.3066 41.249 51.7666 40.1006 52.6865 39.1514C53.6123 38.2021 54.7109 37.7275 55.9824 37.7275ZM64.2705 40.4258V44.8379C64.2705 45.4238 64.3818 45.8252 64.6045 46.042C64.833 46.2588 65.2607 46.3672 65.8877 46.3672V47H60.667V46.3672L61.9238 46.1035V40.6104C61.9238 39.9482 61.8301 39.4971 61.6426 39.2568C61.4609 39.0166 61.1357 38.8965 60.667 38.8965V38.2725C61.1943 38.2256 61.7275 38.1582 62.2666 38.0703C62.8057 37.9766 63.2129 37.8945 63.4883 37.8242L63.9102 37.7275L64.0859 39.4414H64.1738C64.209 39.3945 64.2559 39.333 64.3145 39.2568C64.3789 39.1748 64.5166 39.0371 64.7275 38.8438C64.9385 38.6504 65.1494 38.4805 65.3604 38.334C65.5771 38.1816 65.8467 38.0439 66.1689 37.9209C66.4971 37.792 66.8223 37.7275 67.1445 37.7275C67.3848 37.7275 67.6191 37.751 67.8477 37.7979C68.0762 37.8389 68.2373 37.8828 68.3311 37.9297L68.498 38V41.0586H67.3291L66.6963 39.2568C66.2627 39.2568 65.8438 39.3535 65.4395 39.5469C65.041 39.7402 64.7451 39.9336 64.5518 40.127L64.2705 40.4258ZM76.417 42.5879C76.417 41.2812 76.1826 40.2969 75.7139 39.6348C75.2451 38.9668 74.668 38.6328 73.9824 38.6328C73.3848 38.6328 72.8604 38.9551 72.4092 39.5996C71.958 40.2383 71.7324 41.1465 71.7324 42.3242C71.7324 43.6309 71.9668 44.6182 72.4355 45.2861C72.9043 45.9482 73.4814 46.2793 74.167 46.2793C74.7646 46.2793 75.2891 45.96 75.7402 45.3213C76.1914 44.6768 76.417 43.7656 76.417 42.5879ZM78.8428 42.4121C78.8428 43.7656 78.374 44.8994 77.4365 45.8135C76.5049 46.7217 75.3242 47.1758 73.8945 47.1758C72.541 47.1758 71.4365 46.7451 70.5811 45.8838C69.7314 45.0225 69.3066 43.8945 69.3066 42.5C69.3066 41.1465 69.7725 40.0127 70.7041 39.0986C71.6416 38.1846 72.8252 37.7275 74.2549 37.7275C75.6084 37.7275 76.71 38.1611 77.5596 39.0283C78.415 39.8896 78.8428 41.0176 78.8428 42.4121ZM89.9258 38.7207C89.4453 38.7207 89.0264 38.9404 88.6689 39.3799C88.3174 39.8135 88.0771 40.4639 87.9482 41.3311L91.3672 41.0586C91.3672 39.5 90.8867 38.7207 89.9258 38.7207ZM90.1016 37.7275C91.2324 37.7275 92.1172 38.0557 92.7559 38.7119C93.4004 39.3682 93.7461 40.2998 93.793 41.5068L92.8965 42.2275H87.8516V42.3242C87.8516 43.2969 88.124 44.0791 88.6689 44.6709C89.2197 45.2627 89.9082 45.5586 90.7344 45.5586C91.2383 45.5586 91.7158 45.4941 92.167 45.3652C92.6182 45.2305 92.9375 45.0928 93.125 44.9521L93.4326 44.75L93.793 45.1104C93.7578 45.1689 93.7051 45.2451 93.6348 45.3389C93.5645 45.4268 93.4062 45.5908 93.1602 45.8311C92.9141 46.0713 92.6475 46.2822 92.3604 46.4639C92.0791 46.6396 91.71 46.8037 91.2529 46.9561C90.8018 47.1025 90.3301 47.1758 89.8379 47.1758C88.5664 47.1758 87.5117 46.748 86.6738 45.8926C85.8418 45.0371 85.4258 43.9385 85.4258 42.5967C85.4258 41.249 85.8857 40.1006 86.8057 39.1514C87.7314 38.2021 88.8301 37.7275 90.1016 37.7275ZM109.552 41.3311V44.8379C109.552 45.459 109.634 45.8691 109.798 46.0684C109.968 46.2676 110.305 46.3672 110.809 46.3672V47H105.948V46.3672L107.205 46.1035V41.4189C107.205 40.71 107.07 40.2031 106.801 39.8984C106.531 39.5938 106.098 39.4414 105.5 39.4414C105.178 39.4414 104.85 39.5176 104.516 39.6699C104.188 39.8164 103.938 39.9688 103.769 40.127L103.522 40.3379V44.8379C103.522 45.459 103.604 45.8691 103.769 46.0684C103.938 46.2676 104.275 46.3672 104.779 46.3672V47H99.9189V46.3672L101.176 46.1035V40.6104C101.176 39.9482 101.082 39.4971 100.895 39.2568C100.713 39.0166 100.388 38.8965 99.9189 38.8965V38.2725C100.446 38.2256 100.979 38.1582 101.519 38.0703C102.058 37.9766 102.465 37.8945 102.74 37.8242L103.162 37.7275L103.338 39.4414H103.426C103.461 39.3945 103.511 39.333 103.575 39.2568C103.646 39.1748 103.789 39.0371 104.006 38.8438C104.223 38.6504 104.448 38.4805 104.683 38.334C104.917 38.1816 105.213 38.0439 105.57 37.9209C105.928 37.792 106.294 37.7275 106.669 37.7275C107.56 37.7275 108.263 38.0352 108.778 38.6504C109.294 39.2598 109.552 40.1533 109.552 41.3311ZM119.352 40.8828V44.3018C119.352 44.9639 119.445 45.415 119.633 45.6553C119.82 45.8896 120.146 46.0068 120.608 46.0068V46.6396C120.081 46.6865 119.548 46.7568 119.009 46.8506C118.47 46.9385 118.062 47.0117 117.787 47.0703L117.374 47.1758L117.189 45.4707H117.102C117.066 45.5176 117.017 45.582 116.952 45.6641C116.894 45.7402 116.765 45.875 116.565 46.0684C116.372 46.2559 116.164 46.4258 115.941 46.5781C115.719 46.7246 115.432 46.8623 115.08 46.9912C114.734 47.1143 114.389 47.1758 114.043 47.1758C113.299 47.1758 112.707 46.9824 112.268 46.5957C111.828 46.2031 111.608 45.708 111.608 45.1104C111.608 44.5947 111.793 44.1201 112.162 43.6865C112.537 43.2529 112.988 42.9131 113.516 42.667C114.049 42.4209 114.579 42.2129 115.106 42.043C115.634 41.8672 116.082 41.75 116.451 41.6914L117.014 41.6035V41.0586C117.014 39.5 116.442 38.7207 115.3 38.7207C115.106 38.7207 114.913 38.7441 114.72 38.791C114.532 38.8379 114.386 38.8848 114.28 38.9316L114.131 38.9932L113.498 40.9707H112.241V38.6328C112.358 38.5625 112.525 38.4805 112.742 38.3867C112.959 38.2871 113.393 38.1523 114.043 37.9824C114.693 37.8125 115.323 37.7275 115.933 37.7275C116.999 37.7275 117.834 38.0146 118.438 38.5889C119.047 39.1572 119.352 39.9219 119.352 40.8828ZM115.124 45.4707C115.446 45.4707 115.763 45.3975 116.073 45.251C116.39 45.0986 116.624 44.9492 116.776 44.8027L117.014 44.5742V42.5C116.932 42.5117 116.823 42.5293 116.688 42.5527C116.554 42.5762 116.316 42.6436 115.977 42.7549C115.637 42.8604 115.338 42.9834 115.08 43.124C114.822 43.2588 114.585 43.4463 114.368 43.6865C114.151 43.9268 114.043 44.1904 114.043 44.4775C114.043 45.1396 114.403 45.4707 115.124 45.4707ZM116.653 35.8379L115.396 35.4775C114.975 35.3604 114.644 35.3018 114.403 35.3018C114.128 35.3018 113.888 35.5098 113.683 35.9258L113.05 35.75L113.322 34.8535C113.527 34.1914 113.888 33.8604 114.403 33.8604C114.538 33.8604 114.693 33.875 114.869 33.9043C115.051 33.9336 115.2 33.9658 115.317 34.001L115.484 34.0361L116.741 34.3965C117.163 34.5137 117.494 34.5752 117.734 34.5811C117.998 34.5811 118.238 34.3701 118.455 33.9482L119.079 34.1328L118.815 35.0293C118.61 35.6914 118.25 36.0225 117.734 36.0225C117.6 36.0225 117.441 36.0078 117.26 35.9785C117.084 35.9434 116.94 35.9082 116.829 35.873L116.653 35.8379ZM128.712 42.5879C128.712 41.2812 128.478 40.2969 128.009 39.6348C127.54 38.9668 126.963 38.6328 126.277 38.6328C125.68 38.6328 125.155 38.9551 124.704 39.5996C124.253 40.2383 124.027 41.1465 124.027 42.3242C124.027 43.6309 124.262 44.6182 124.73 45.2861C125.199 45.9482 125.776 46.2793 126.462 46.2793C127.06 46.2793 127.584 45.96 128.035 45.3213C128.486 44.6768 128.712 43.7656 128.712 42.5879ZM131.138 42.4121C131.138 43.7656 130.669 44.8994 129.731 45.8135C128.8 46.7217 127.619 47.1758 126.189 47.1758C124.836 47.1758 123.731 46.7451 122.876 45.8838C122.026 45.0225 121.602 43.8945 121.602 42.5C121.602 41.1465 122.067 40.0127 122.999 39.0986C123.937 38.1846 125.12 37.7275 126.55 37.7275C127.903 37.7275 129.005 38.1611 129.854 39.0283C130.71 39.8896 131.138 41.0176 131.138 42.4121ZM142.669 37.7275C142.909 37.7275 143.149 37.751 143.39 37.7979C143.63 37.8389 143.809 37.8828 143.926 37.9297L144.11 38V35.3896C144.11 34.7275 144.017 34.2764 143.829 34.0361C143.642 33.7959 143.316 33.6758 142.854 33.6758V33.0518C143.416 33.0049 143.996 32.9287 144.594 32.8232C145.197 32.7119 145.654 32.6123 145.965 32.5244L146.448 32.4189V44.3018C146.448 44.9639 146.542 45.415 146.729 45.6553C146.917 45.8896 147.245 46.0068 147.714 46.0068V46.6396C147.187 46.6865 146.65 46.7568 146.105 46.8506C145.566 46.9385 145.159 47.0117 144.884 47.0703L144.471 47.1758L144.286 45.4707H144.198C144.163 45.5176 144.116 45.582 144.058 45.6641C143.999 45.7402 143.864 45.875 143.653 46.0684C143.442 46.2559 143.223 46.4258 142.994 46.5781C142.766 46.7246 142.481 46.8623 142.142 46.9912C141.808 47.1143 141.474 47.1758 141.14 47.1758C140.202 47.1758 139.396 46.7803 138.723 45.9893C138.055 45.1982 137.721 44.1553 137.721 42.8604C137.721 41.29 138.172 40.042 139.074 39.1162C139.982 38.1904 141.181 37.7275 142.669 37.7275ZM142.396 38.7207C141.758 38.7207 141.222 39.0312 140.788 39.6523C140.36 40.2676 140.146 41.1875 140.146 42.4121C140.146 44.4512 140.838 45.4707 142.221 45.4707C142.543 45.4707 142.859 45.3975 143.17 45.251C143.486 45.0986 143.721 44.9434 143.873 44.7852L144.11 44.5479V39.4414C144.063 39.3945 143.993 39.3301 143.899 39.248C143.812 39.1602 143.618 39.0518 143.319 38.9229C143.026 38.7881 142.719 38.7207 142.396 38.7207ZM153.207 38.7207C152.727 38.7207 152.308 38.9404 151.95 39.3799C151.599 39.8135 151.358 40.4639 151.229 41.3311L154.648 41.0586C154.648 39.5 154.168 38.7207 153.207 38.7207ZM153.383 37.7275C154.514 37.7275 155.398 38.0557 156.037 38.7119C156.682 39.3682 157.027 40.2998 157.074 41.5068L156.178 42.2275H151.133V42.3242C151.133 43.2969 151.405 44.0791 151.95 44.6709C152.501 45.2627 153.189 45.5586 154.016 45.5586C154.52 45.5586 154.997 45.4941 155.448 45.3652C155.899 45.2305 156.219 45.0928 156.406 44.9521L156.714 44.75L157.074 45.1104C157.039 45.1689 156.986 45.2451 156.916 45.3389C156.846 45.4268 156.688 45.5908 156.441 45.8311C156.195 46.0713 155.929 46.2822 155.642 46.4639C155.36 46.6396 154.991 46.8037 154.534 46.9561C154.083 47.1025 153.611 47.1758 153.119 47.1758C151.848 47.1758 150.793 46.748 149.955 45.8926C149.123 45.0371 148.707 43.9385 148.707 42.5967C148.707 41.249 149.167 40.1006 150.087 39.1514C151.013 38.2021 152.111 37.7275 153.383 37.7275ZM162.198 47.1758L158.867 39.9775C158.592 39.3799 158.343 38.9902 158.12 38.8086C157.897 38.627 157.546 38.5361 157.065 38.5361V37.9121H162.286V38.5361L160.845 38.8086L162.919 43.1328L163.191 44.2139H163.279L165.257 39.9775C165.374 39.6787 165.436 39.4092 165.441 39.1689C165.441 38.7471 165.02 38.5361 164.176 38.5361V37.9121H168.315V38.5361L167.059 38.8086L163.191 47.1758H162.198ZM172.895 38.7207C172.414 38.7207 171.995 38.9404 171.638 39.3799C171.286 39.8135 171.046 40.4639 170.917 41.3311L174.336 41.0586C174.336 39.5 173.855 38.7207 172.895 38.7207ZM173.07 37.7275C174.201 37.7275 175.086 38.0557 175.725 38.7119C176.369 39.3682 176.715 40.2998 176.762 41.5068L175.865 42.2275H170.82V42.3242C170.82 43.2969 171.093 44.0791 171.638 44.6709C172.188 45.2627 172.877 45.5586 173.703 45.5586C174.207 45.5586 174.685 45.4941 175.136 45.3652C175.587 45.2305 175.906 45.0928 176.094 44.9521L176.401 44.75L176.762 45.1104C176.727 45.1689 176.674 45.2451 176.604 45.3389C176.533 45.4268 176.375 45.5908 176.129 45.8311C175.883 46.0713 175.616 46.2822 175.329 46.4639C175.048 46.6396 174.679 46.8037 174.222 46.9561C173.771 47.1025 173.299 47.1758 172.807 47.1758C171.535 47.1758 170.48 46.748 169.643 45.8926C168.811 45.0371 168.395 43.9385 168.395 42.5967C168.395 41.249 168.854 40.1006 169.774 39.1514C170.7 38.2021 171.799 37.7275 173.07 37.7275ZM188.108 44.75C188.108 44.4395 187.944 44.1582 187.616 43.9062C187.294 43.6543 186.904 43.4258 186.447 43.2207C185.996 43.0156 185.542 42.7959 185.085 42.5615C184.628 42.3271 184.235 42.0137 183.907 41.6211C183.585 41.2227 183.424 40.7656 183.424 40.25C183.424 39.5293 183.729 38.9287 184.338 38.4482C184.953 37.9678 185.82 37.7275 186.939 37.7275C187.42 37.7275 187.883 37.7744 188.328 37.8682C188.779 37.9561 189.113 38.0469 189.33 38.1406L189.638 38.2725V40.6104H188.899C188.741 39.292 188.117 38.6328 187.027 38.6328C186.641 38.6328 186.318 38.7412 186.061 38.958C185.803 39.1689 185.674 39.4209 185.674 39.7139C185.674 40.0713 185.835 40.376 186.157 40.6279C186.485 40.8799 186.878 41.0967 187.335 41.2783C187.792 41.4541 188.246 41.6475 188.697 41.8584C189.154 42.0693 189.544 42.374 189.866 42.7725C190.194 43.165 190.358 43.6455 190.358 44.2139C190.358 45.0635 190.016 45.7695 189.33 46.332C188.645 46.8945 187.698 47.1758 186.491 47.1758C185.882 47.1758 185.296 47.1172 184.733 47C184.177 46.8828 183.778 46.7627 183.538 46.6396L183.16 46.4639V43.7568H183.881C184.016 44.5713 184.3 45.1953 184.733 45.6289C185.173 46.0625 185.727 46.2793 186.395 46.2793C186.875 46.2793 187.279 46.127 187.607 45.8223C187.941 45.5176 188.108 45.1602 188.108 44.75ZM196.203 38.7207C195.723 38.7207 195.304 38.9404 194.946 39.3799C194.595 39.8135 194.354 40.4639 194.226 41.3311L197.645 41.0586C197.645 39.5 197.164 38.7207 196.203 38.7207ZM196.379 37.7275C197.51 37.7275 198.395 38.0557 199.033 38.7119C199.678 39.3682 200.023 40.2998 200.07 41.5068L199.174 42.2275H194.129V42.3242C194.129 43.2969 194.401 44.0791 194.946 44.6709C195.497 45.2627 196.186 45.5586 197.012 45.5586C197.516 45.5586 197.993 45.4941 198.444 45.3652C198.896 45.2305 199.215 45.0928 199.402 44.9521L199.71 44.75L200.07 45.1104C200.035 45.1689 199.982 45.2451 199.912 45.3389C199.842 45.4268 199.684 45.5908 199.438 45.8311C199.191 46.0713 198.925 46.2822 198.638 46.4639C198.356 46.6396 197.987 46.8037 197.53 46.9561C197.079 47.1025 196.607 47.1758 196.115 47.1758C194.844 47.1758 193.789 46.748 192.951 45.8926C192.119 45.0371 191.703 43.9385 191.703 42.5967C191.703 41.249 192.163 40.1006 193.083 39.1514C194.009 38.2021 195.107 37.7275 196.379 37.7275ZM204.667 40.4258V44.8379C204.667 45.4238 204.778 45.8252 205.001 46.042C205.229 46.2588 205.657 46.3672 206.284 46.3672V47H201.063V46.3672L202.32 46.1035V40.6104C202.32 39.9482 202.227 39.4971 202.039 39.2568C201.857 39.0166 201.532 38.8965 201.063 38.8965V38.2725C201.591 38.2256 202.124 38.1582 202.663 38.0703C203.202 37.9766 203.609 37.8945 203.885 37.8242L204.307 37.7275L204.482 39.4414H204.57C204.605 39.3945 204.652 39.333 204.711 39.2568C204.775 39.1748 204.913 39.0371 205.124 38.8438C205.335 38.6504 205.546 38.4805 205.757 38.334C205.974 38.1816 206.243 38.0439 206.565 37.9209C206.894 37.792 207.219 37.7275 207.541 37.7275C207.781 37.7275 208.016 37.751 208.244 37.7979C208.473 37.8389 208.634 37.8828 208.728 37.9297L208.895 38V41.0586H207.726L207.093 39.2568C206.659 39.2568 206.24 39.3535 205.836 39.5469C205.438 39.7402 205.142 39.9336 204.948 40.127L204.667 40.4258ZM14.9639 63.4258V67.8379C14.9639 68.4238 15.0752 68.8252 15.2979 69.042C15.5264 69.2588 15.9541 69.3672 16.5811 69.3672V70H11.3604V69.3672L12.6172 69.1035V63.6104C12.6172 62.9482 12.5234 62.4971 12.3359 62.2568C12.1543 62.0166 11.8291 61.8965 11.3604 61.8965V61.2725C11.8877 61.2256 12.4209 61.1582 12.96 61.0703C13.499 60.9766 13.9062 60.8945 14.1816 60.8242L14.6035 60.7275L14.7793 62.4414H14.8672C14.9023 62.3945 14.9492 62.333 15.0078 62.2568C15.0723 62.1748 15.21 62.0371 15.4209 61.8438C15.6318 61.6504 15.8428 61.4805 16.0537 61.334C16.2705 61.1816 16.54 61.0439 16.8623 60.9209C17.1904 60.792 17.5156 60.7275 17.8379 60.7275C18.0781 60.7275 18.3125 60.751 18.541 60.7979C18.7695 60.8389 18.9307 60.8828 19.0244 60.9297L19.1914 61V64.0586H18.0225L17.3896 62.2568C16.9561 62.2568 16.5371 62.3535 16.1328 62.5469C15.7344 62.7402 15.4385 62.9336 15.2451 63.127L14.9639 63.4258ZM24.5 61.7207C24.0195 61.7207 23.6006 61.9404 23.2432 62.3799C22.8916 62.8135 22.6514 63.4639 22.5225 64.3311L25.9414 64.0586C25.9414 62.5 25.4609 61.7207 24.5 61.7207ZM24.6758 60.7275C25.8066 60.7275 26.6914 61.0557 27.3301 61.7119C27.9746 62.3682 28.3203 63.2998 28.3672 64.5068L27.4707 65.2275H22.4258V65.3242C22.4258 66.2969 22.6982 67.0791 23.2432 67.6709C23.7939 68.2627 24.4824 68.5586 25.3086 68.5586C25.8125 68.5586 26.29 68.4941 26.7412 68.3652C27.1924 68.2305 27.5117 68.0928 27.6992 67.9521L28.0068 67.75L28.3672 68.1104C28.332 68.1689 28.2793 68.2451 28.209 68.3389C28.1387 68.4268 27.9805 68.5908 27.7344 68.8311C27.4883 69.0713 27.2217 69.2822 26.9346 69.4639C26.6533 69.6396 26.2842 69.8037 25.8271 69.9561C25.376 70.1025 24.9043 70.1758 24.4121 70.1758C23.1406 70.1758 22.0859 69.748 21.248 68.8926C20.416 68.0371 20 66.9385 20 65.5967C20 64.249 20.46 63.1006 21.3799 62.1514C22.3057 61.2021 23.4043 60.7275 24.6758 60.7275ZM30.7139 69.1035V61.9932H29.3604V61.1758L30.7139 60.9121V58.3896C30.7139 56.292 31.792 55.2432 33.9482 55.2432C34.4287 55.2432 34.9385 55.3193 35.4775 55.4717C36.0166 55.6182 36.4385 55.7676 36.7432 55.9199L37.1914 56.1396V58.5742H35.9258L35.1172 56.5C34.877 56.3828 34.6074 56.3242 34.3086 56.3242C33.4707 56.3242 33.0518 57.042 33.0518 58.4775V60.9121H35.75V62.1689H34.9414L33.0518 61.8086V67.8379C33.0518 68.4238 33.1748 68.8252 33.4209 69.042C33.667 69.2588 34.1445 69.3672 34.8535 69.3672V70H29.4482V69.3672L30.7139 69.1035ZM40.9531 61.7207C40.4727 61.7207 40.0537 61.9404 39.6963 62.3799C39.3447 62.8135 39.1045 63.4639 38.9756 64.3311L42.3945 64.0586C42.3945 62.5 41.9141 61.7207 40.9531 61.7207ZM41.1289 60.7275C42.2598 60.7275 43.1445 61.0557 43.7832 61.7119C44.4277 62.3682 44.7734 63.2998 44.8203 64.5068L43.9238 65.2275H38.8789V65.3242C38.8789 66.2969 39.1514 67.0791 39.6963 67.6709C40.2471 68.2627 40.9355 68.5586 41.7617 68.5586C42.2656 68.5586 42.7432 68.4941 43.1943 68.3652C43.6455 68.2305 43.9648 68.0928 44.1523 67.9521L44.46 67.75L44.8203 68.1104C44.7852 68.1689 44.7324 68.2451 44.6621 68.3389C44.5918 68.4268 44.4336 68.5908 44.1875 68.8311C43.9414 69.0713 43.6748 69.2822 43.3877 69.4639C43.1064 69.6396 42.7373 69.8037 42.2803 69.9561C41.8291 70.1025 41.3574 70.1758 40.8652 70.1758C39.5938 70.1758 38.5391 69.748 37.7012 68.8926C36.8691 68.0371 36.4531 66.9385 36.4531 65.5967C36.4531 64.249 36.9131 63.1006 37.833 62.1514C38.7588 61.2021 39.8574 60.7275 41.1289 60.7275ZM49.417 63.4258V67.8379C49.417 68.4238 49.5283 68.8252 49.751 69.042C49.9795 69.2588 50.4072 69.3672 51.0342 69.3672V70H45.8135V69.3672L47.0703 69.1035V63.6104C47.0703 62.9482 46.9766 62.4971 46.7891 62.2568C46.6074 62.0166 46.2822 61.8965 45.8135 61.8965V61.2725C46.3408 61.2256 46.874 61.1582 47.4131 61.0703C47.9521 60.9766 48.3594 60.8945 48.6348 60.8242L49.0566 60.7275L49.2324 62.4414H49.3203C49.3555 62.3945 49.4023 62.333 49.4609 62.2568C49.5254 62.1748 49.6631 62.0371 49.874 61.8438C50.085 61.6504 50.2959 61.4805 50.5068 61.334C50.7236 61.1816 50.9932 61.0439 51.3154 60.9209C51.6436 60.792 51.9688 60.7275 52.291 60.7275C52.5312 60.7275 52.7656 60.751 52.9941 60.7979C53.2227 60.8389 53.3838 60.8828 53.4775 60.9297L53.6445 61V64.0586H52.4756L51.8428 62.2568C51.4092 62.2568 50.9902 62.3535 50.5859 62.5469C50.1875 62.7402 49.8916 62.9336 49.6982 63.127L49.417 63.4258ZM57.8721 60.6396V67.8379C57.8721 68.459 57.9541 68.8691 58.1182 69.0684C58.2881 69.2676 58.625 69.3672 59.1289 69.3672V70H54.2686V69.3672L55.5254 69.1035V63.6104C55.5254 62.9482 55.4316 62.4971 55.2441 62.2568C55.0625 62.0166 54.7373 61.8965 54.2686 61.8965V61.2725C54.8311 61.2256 55.4111 61.1494 56.0088 61.0439C56.6123 60.9326 57.0752 60.833 57.3975 60.7451L57.8721 60.6396ZM55.6748 58.6094C55.3994 58.334 55.2617 57.9912 55.2617 57.5811C55.2617 57.1709 55.3994 56.8281 55.6748 56.5527C55.9502 56.2773 56.29 56.1396 56.6943 56.1396C57.1045 56.1396 57.4473 56.2773 57.7227 56.5527C57.998 56.8281 58.1357 57.1709 58.1357 57.5811C58.1357 57.9912 57.998 58.334 57.7227 58.6094C57.4473 58.8848 57.1045 59.0225 56.6943 59.0225C56.29 59.0225 55.9502 58.8848 55.6748 58.6094ZM65.0615 60.7275C65.3018 60.7275 65.542 60.751 65.7822 60.7979C66.0225 60.8389 66.2012 60.8828 66.3184 60.9297L66.5029 61V58.3896C66.5029 57.7275 66.4092 57.2764 66.2217 57.0361C66.0342 56.7959 65.709 56.6758 65.2461 56.6758V56.0518C65.8086 56.0049 66.3887 55.9287 66.9863 55.8232C67.5898 55.7119 68.0469 55.6123 68.3574 55.5244L68.8408 55.4189V67.3018C68.8408 67.9639 68.9346 68.415 69.1221 68.6553C69.3096 68.8896 69.6377 69.0068 70.1064 69.0068V69.6396C69.5791 69.6865 69.043 69.7568 68.498 69.8506C67.959 69.9385 67.5518 70.0117 67.2764 70.0703L66.8633 70.1758L66.6787 68.4707H66.5908C66.5557 68.5176 66.5088 68.582 66.4502 68.6641C66.3916 68.7402 66.2568 68.875 66.0459 69.0684C65.835 69.2559 65.6152 69.4258 65.3867 69.5781C65.1582 69.7246 64.874 69.8623 64.5342 69.9912C64.2002 70.1143 63.8662 70.1758 63.5322 70.1758C62.5947 70.1758 61.7891 69.7803 61.1152 68.9893C60.4473 68.1982 60.1133 67.1553 60.1133 65.8604C60.1133 64.29 60.5645 63.042 61.4668 62.1162C62.375 61.1904 63.5732 60.7275 65.0615 60.7275ZM64.7891 61.7207C64.1504 61.7207 63.6143 62.0312 63.1807 62.6523C62.7529 63.2676 62.5391 64.1875 62.5391 65.4121C62.5391 67.4512 63.2305 68.4707 64.6133 68.4707C64.9355 68.4707 65.252 68.3975 65.5625 68.251C65.8789 68.0986 66.1133 67.9434 66.2656 67.7852L66.5029 67.5479V62.4414C66.4561 62.3945 66.3857 62.3301 66.292 62.248C66.2041 62.1602 66.0107 62.0518 65.7119 61.9229C65.4189 61.7881 65.1113 61.7207 64.7891 61.7207ZM78.6582 63.8828V67.3018C78.6582 67.9639 78.752 68.415 78.9395 68.6553C79.127 68.8896 79.4521 69.0068 79.915 69.0068V69.6396C79.3877 69.6865 78.8545 69.7568 78.3154 69.8506C77.7764 69.9385 77.3691 70.0117 77.0938 70.0703L76.6807 70.1758L76.4961 68.4707H76.4082C76.373 68.5176 76.3232 68.582 76.2588 68.6641C76.2002 68.7402 76.0713 68.875 75.8721 69.0684C75.6787 69.2559 75.4707 69.4258 75.248 69.5781C75.0254 69.7246 74.7383 69.8623 74.3867 69.9912C74.041 70.1143 73.6953 70.1758 73.3496 70.1758C72.6055 70.1758 72.0137 69.9824 71.5742 69.5957C71.1348 69.2031 70.915 68.708 70.915 68.1104C70.915 67.5947 71.0996 67.1201 71.4688 66.6865C71.8438 66.2529 72.2949 65.9131 72.8223 65.667C73.3555 65.4209 73.8857 65.2129 74.4131 65.043C74.9404 64.8672 75.3887 64.75 75.7578 64.6914L76.3203 64.6035V64.0586C76.3203 62.5 75.749 61.7207 74.6064 61.7207C74.4131 61.7207 74.2197 61.7441 74.0264 61.791C73.8389 61.8379 73.6924 61.8848 73.5869 61.9316L73.4375 61.9932L72.8047 63.9707H71.5479V61.6328C71.665 61.5625 71.832 61.4805 72.0488 61.3867C72.2656 61.2871 72.6992 61.1523 73.3496 60.9824C74 60.8125 74.6299 60.7275 75.2393 60.7275C76.3057 60.7275 77.1406 61.0146 77.7441 61.5889C78.3535 62.1572 78.6582 62.9219 78.6582 63.8828ZM74.4307 68.4707C74.7529 68.4707 75.0693 68.3975 75.3799 68.251C75.6963 68.0986 75.9307 67.9492 76.083 67.8027L76.3203 67.5742V65.5C76.2383 65.5117 76.1299 65.5293 75.9951 65.5527C75.8604 65.5762 75.623 65.6436 75.2832 65.7549C74.9434 65.8604 74.6445 65.9834 74.3867 66.124C74.1289 66.2588 73.8916 66.4463 73.6748 66.6865C73.458 66.9268 73.3496 67.1904 73.3496 67.4775C73.3496 68.1396 73.71 68.4707 74.4307 68.4707ZM81.4092 69.7627C81.1338 69.4873 80.9961 69.1475 80.9961 68.7432C80.9961 68.333 81.1338 67.9902 81.4092 67.7148C81.6846 67.4395 82.0273 67.3018 82.4375 67.3018C82.8477 67.3018 83.1904 67.4395 83.4658 67.7148C83.7412 67.9902 83.8789 68.333 83.8789 68.7432C83.8789 69.1475 83.7412 69.4873 83.4658 69.7627C83.1904 70.0381 82.8477 70.1758 82.4375 70.1758C82.0273 70.1758 81.6846 70.0381 81.4092 69.7627ZM12.8018 105.831V101.243H11.2725V100.593C11.835 100.522 12.3389 100.382 12.7842 100.171C13.2295 99.96 13.5342 99.7695 13.6982 99.5996L13.9355 99.3535H14.6035V104.574C14.6035 105.102 14.6943 105.459 14.876 105.646C15.0635 105.828 15.4209 105.919 15.9482 105.919V106.552H11.4482V106.007L12.8018 105.831ZM19.6396 99.2568C20.5889 99.2568 21.3506 99.5527 21.9248 100.145C22.499 100.73 22.7861 101.516 22.7861 102.5C22.7861 103.736 22.4141 104.75 21.6699 105.541C20.9258 106.332 20.0088 106.728 18.9189 106.728C18.6553 106.728 18.3887 106.707 18.1191 106.666C17.8496 106.625 17.6475 106.581 17.5127 106.534L17.293 106.464L17.4775 105.831C17.835 105.948 18.1953 106.007 18.5586 106.007C19.1973 106.007 19.7334 105.778 20.167 105.321C20.6064 104.858 20.8496 104.249 20.8965 103.493H20.8086C20.7734 103.54 20.7119 103.607 20.624 103.695C20.542 103.777 20.3545 103.886 20.0615 104.021C19.7686 104.149 19.4463 104.214 19.0947 104.214C18.374 104.214 17.8027 103.997 17.3809 103.563C16.9648 103.13 16.7568 102.535 16.7568 101.779C16.7568 101.082 17.0264 100.487 17.5654 99.9951C18.1104 99.5029 18.8018 99.2568 19.6396 99.2568ZM19.7275 99.9775C19.4404 99.9775 19.1885 100.124 18.9717 100.417C18.7549 100.704 18.6465 101.111 18.6465 101.639C18.6465 102.693 19.0068 103.221 19.7275 103.221C19.9209 103.221 20.1113 103.177 20.2988 103.089C20.4922 102.995 20.6445 102.907 20.7559 102.825L20.8965 102.676C20.8965 101.727 20.7822 101.041 20.5537 100.619C20.3252 100.191 20.0498 99.9775 19.7275 99.9775ZM39.6172 116H29V115.367L30.5293 115.007V104.75C30.5293 103.947 30.4326 103.432 30.2393 103.203C30.0459 102.975 29.6328 102.86 29 102.86V102.14H39.5293V105.831H38.624C38.624 104.835 38.4541 104.138 38.1143 103.739C37.7744 103.335 37.1943 103.133 36.374 103.133H32.9551V108.354H35.0293C35.7031 108.354 36.1396 108.248 36.3389 108.037C36.5439 107.826 36.6465 107.36 36.6465 106.64H37.543V111.228H36.6465C36.6465 110.472 36.5352 109.968 36.3125 109.716C36.0898 109.464 35.6621 109.338 35.0293 109.338H32.9551V115.007H36.1104C37.0596 115.007 37.7451 114.79 38.167 114.356C38.5947 113.917 38.8994 113.114 39.0811 111.948H39.9775L39.6172 116ZM44.8467 109.426V113.838C44.8467 114.424 44.958 114.825 45.1807 115.042C45.4092 115.259 45.8369 115.367 46.4639 115.367V116H41.2432V115.367L42.5 115.104V109.61C42.5 108.948 42.4062 108.497 42.2188 108.257C42.0371 108.017 41.7119 107.896 41.2432 107.896V107.272C41.7705 107.226 42.3037 107.158 42.8428 107.07C43.3818 106.977 43.7891 106.895 44.0645 106.824L44.4863 106.728L44.6621 108.441H44.75C44.7852 108.395 44.832 108.333 44.8906 108.257C44.9551 108.175 45.0928 108.037 45.3037 107.844C45.5146 107.65 45.7256 107.48 45.9365 107.334C46.1533 107.182 46.4229 107.044 46.7451 106.921C47.0732 106.792 47.3984 106.728 47.7207 106.728C47.9609 106.728 48.1953 106.751 48.4238 106.798C48.6523 106.839 48.8135 106.883 48.9072 106.93L49.0742 107V110.059H47.9053L47.2725 108.257C46.8389 108.257 46.4199 108.354 46.0156 108.547C45.6172 108.74 45.3213 108.934 45.1279 109.127L44.8467 109.426ZM57.6172 109.883V113.302C57.6172 113.964 57.7109 114.415 57.8984 114.655C58.0859 114.89 58.4111 115.007 58.874 115.007V115.64C58.3467 115.687 57.8135 115.757 57.2744 115.851C56.7354 115.938 56.3281 116.012 56.0527 116.07L55.6396 116.176L55.4551 114.471H55.3672C55.332 114.518 55.2822 114.582 55.2178 114.664C55.1592 114.74 55.0303 114.875 54.8311 115.068C54.6377 115.256 54.4297 115.426 54.207 115.578C53.9844 115.725 53.6973 115.862 53.3457 115.991C53 116.114 52.6543 116.176 52.3086 116.176C51.5645 116.176 50.9727 115.982 50.5332 115.596C50.0938 115.203 49.874 114.708 49.874 114.11C49.874 113.595 50.0586 113.12 50.4277 112.687C50.8027 112.253 51.2539 111.913 51.7812 111.667C52.3145 111.421 52.8447 111.213 53.3721 111.043C53.8994 110.867 54.3477 110.75 54.7168 110.691L55.2793 110.604V110.059C55.2793 108.5 54.708 107.721 53.5654 107.721C53.3721 107.721 53.1787 107.744 52.9854 107.791C52.7979 107.838 52.6514 107.885 52.5459 107.932L52.3965 107.993L51.7637 109.971H50.5068V107.633C50.624 107.562 50.791 107.48 51.0078 107.387C51.2246 107.287 51.6582 107.152 52.3086 106.982C52.959 106.812 53.5889 106.728 54.1982 106.728C55.2646 106.728 56.0996 107.015 56.7031 107.589C57.3125 108.157 57.6172 108.922 57.6172 109.883ZM53.3896 114.471C53.7119 114.471 54.0283 114.397 54.3389 114.251C54.6553 114.099 54.8896 113.949 55.042 113.803L55.2793 113.574V111.5C55.1973 111.512 55.0889 111.529 54.9541 111.553C54.8193 111.576 54.582 111.644 54.2422 111.755C53.9023 111.86 53.6035 111.983 53.3457 112.124C53.0879 112.259 52.8506 112.446 52.6338 112.687C52.417 112.927 52.3086 113.19 52.3086 113.478C52.3086 114.14 52.6689 114.471 53.3896 114.471ZM69.5 107.721C69.0195 107.721 68.6006 107.94 68.2432 108.38C67.8916 108.813 67.6514 109.464 67.5225 110.331L70.9414 110.059C70.9414 108.5 70.4609 107.721 69.5 107.721ZM69.6758 106.728C70.8066 106.728 71.6914 107.056 72.3301 107.712C72.9746 108.368 73.3203 109.3 73.3672 110.507L72.4707 111.228H67.4258V111.324C67.4258 112.297 67.6982 113.079 68.2432 113.671C68.7939 114.263 69.4824 114.559 70.3086 114.559C70.8125 114.559 71.29 114.494 71.7412 114.365C72.1924 114.23 72.5117 114.093 72.6992 113.952L73.0068 113.75L73.3672 114.11C73.332 114.169 73.2793 114.245 73.209 114.339C73.1387 114.427 72.9805 114.591 72.7344 114.831C72.4883 115.071 72.2217 115.282 71.9346 115.464C71.6533 115.64 71.2842 115.804 70.8271 115.956C70.376 116.103 69.9043 116.176 69.4121 116.176C68.1406 116.176 67.0859 115.748 66.248 114.893C65.416 114.037 65 112.938 65 111.597C65 110.249 65.46 109.101 66.3799 108.151C67.3057 107.202 68.4043 106.728 69.6758 106.728ZM79.5811 113.75C79.5811 113.439 79.417 113.158 79.0889 112.906C78.7666 112.654 78.377 112.426 77.9199 112.221C77.4688 112.016 77.0146 111.796 76.5576 111.562C76.1006 111.327 75.708 111.014 75.3799 110.621C75.0576 110.223 74.8965 109.766 74.8965 109.25C74.8965 108.529 75.2012 107.929 75.8105 107.448C76.4258 106.968 77.293 106.728 78.4121 106.728C78.8926 106.728 79.3555 106.774 79.8008 106.868C80.252 106.956 80.5859 107.047 80.8027 107.141L81.1104 107.272V109.61H80.3721C80.2139 108.292 79.5898 107.633 78.5 107.633C78.1133 107.633 77.791 107.741 77.5332 107.958C77.2754 108.169 77.1465 108.421 77.1465 108.714C77.1465 109.071 77.3076 109.376 77.6299 109.628C77.958 109.88 78.3506 110.097 78.8076 110.278C79.2646 110.454 79.7188 110.647 80.1699 110.858C80.627 111.069 81.0166 111.374 81.3389 111.772C81.667 112.165 81.8311 112.646 81.8311 113.214C81.8311 114.063 81.4883 114.77 80.8027 115.332C80.1172 115.895 79.1709 116.176 77.9639 116.176C77.3545 116.176 76.7686 116.117 76.2061 116C75.6494 115.883 75.251 115.763 75.0107 115.64L74.6328 115.464V112.757H75.3535C75.4883 113.571 75.7725 114.195 76.2061 114.629C76.6455 115.062 77.1992 115.279 77.8672 115.279C78.3477 115.279 78.752 115.127 79.0801 114.822C79.4141 114.518 79.5811 114.16 79.5811 113.75ZM86.3223 115.912V117.978C86.3223 118.563 86.4453 118.965 86.6914 119.182C86.9375 119.398 87.415 119.507 88.124 119.507V120.14H82.7275V119.507L83.9844 119.243V109.61C83.9844 108.948 83.8906 108.497 83.7031 108.257C83.5215 108.017 83.1963 107.896 82.7275 107.896V107.272C83.2549 107.226 83.7881 107.158 84.3271 107.07C84.8662 106.977 85.2734 106.895 85.5488 106.824L85.9619 106.728L86.1465 108.441H86.2344C86.2695 108.395 86.3164 108.333 86.375 108.257C86.4395 108.175 86.5742 108.037 86.7793 107.844C86.9902 107.65 87.21 107.48 87.4385 107.334C87.667 107.182 87.9482 107.044 88.2822 106.921C88.6221 106.792 88.959 106.728 89.293 106.728C90.2305 106.728 91.0332 107.126 91.7012 107.923C92.375 108.714 92.7119 109.757 92.7119 111.052C92.7119 112.622 92.2578 113.87 91.3496 114.796C90.4473 115.716 89.252 116.176 87.7637 116.176C87.5234 116.176 87.2832 116.152 87.043 116.105C86.8027 116.059 86.624 116.012 86.5068 115.965L86.3223 115.912ZM88.0361 115.191C88.6748 115.191 89.208 114.884 89.6357 114.269C90.0693 113.647 90.2861 112.725 90.2861 111.5C90.2861 109.461 89.5947 108.441 88.2119 108.441C87.9248 108.441 87.623 108.518 87.3066 108.67C86.9902 108.816 86.7471 108.969 86.5771 109.127L86.3223 109.338V114.286C86.3691 114.356 86.4424 114.441 86.542 114.541C86.6475 114.635 86.8496 114.767 87.1484 114.937C87.4531 115.106 87.749 115.191 88.0361 115.191ZM98.6621 107.721C98.1816 107.721 97.7627 107.94 97.4053 108.38C97.0537 108.813 96.8135 109.464 96.6846 110.331L100.104 110.059C100.104 108.5 99.623 107.721 98.6621 107.721ZM98.8379 106.728C99.9688 106.728 100.854 107.056 101.492 107.712C102.137 108.368 102.482 109.3 102.529 110.507L101.633 111.228H96.5879V111.324C96.5879 112.297 96.8604 113.079 97.4053 113.671C97.9561 114.263 98.6445 114.559 99.4707 114.559C99.9746 114.559 100.452 114.494 100.903 114.365C101.354 114.23 101.674 114.093 101.861 113.952L102.169 113.75L102.529 114.11C102.494 114.169 102.441 114.245 102.371 114.339C102.301 114.427 102.143 114.591 101.896 114.831C101.65 115.071 101.384 115.282 101.097 115.464C100.815 115.64 100.446 115.804 99.9893 115.956C99.5381 116.103 99.0664 116.176 98.5742 116.176C97.3027 116.176 96.248 115.748 95.4102 114.893C94.5781 114.037 94.1621 112.938 94.1621 111.597C94.1621 110.249 94.6221 109.101 95.542 108.151C96.4678 107.202 97.5664 106.728 98.8379 106.728ZM103.883 111.588C103.883 110.223 104.369 109.071 105.342 108.134C106.314 107.196 107.539 106.728 109.016 106.728C109.578 106.728 110.1 106.798 110.58 106.938C111.061 107.073 111.395 107.208 111.582 107.343L111.89 107.536V110.243H110.809L110 107.993C109.76 107.812 109.399 107.721 108.919 107.721C108.198 107.721 107.583 108.037 107.073 108.67C106.563 109.297 106.309 110.149 106.309 111.228C106.309 112.235 106.581 113.044 107.126 113.653C107.677 114.257 108.365 114.559 109.191 114.559C109.695 114.559 110.173 114.494 110.624 114.365C111.075 114.23 111.395 114.093 111.582 113.952L111.89 113.75L112.25 114.11C112.215 114.169 112.162 114.245 112.092 114.339C112.021 114.427 111.863 114.591 111.617 114.831C111.371 115.071 111.104 115.282 110.817 115.464C110.536 115.64 110.167 115.804 109.71 115.956C109.259 116.103 108.787 116.176 108.295 116.176C107.07 116.176 106.027 115.736 105.166 114.857C104.311 113.973 103.883 112.883 103.883 111.588ZM116.759 106.64V113.838C116.759 114.459 116.841 114.869 117.005 115.068C117.175 115.268 117.512 115.367 118.016 115.367V116H113.155V115.367L114.412 115.104V109.61C114.412 108.948 114.318 108.497 114.131 108.257C113.949 108.017 113.624 107.896 113.155 107.896V107.272C113.718 107.226 114.298 107.149 114.896 107.044C115.499 106.933 115.962 106.833 116.284 106.745L116.759 106.64ZM114.562 104.609C114.286 104.334 114.148 103.991 114.148 103.581C114.148 103.171 114.286 102.828 114.562 102.553C114.837 102.277 115.177 102.14 115.581 102.14C115.991 102.14 116.334 102.277 116.609 102.553C116.885 102.828 117.022 103.171 117.022 103.581C117.022 103.991 116.885 104.334 116.609 104.609C116.334 104.885 115.991 105.022 115.581 105.022C115.177 105.022 114.837 104.885 114.562 104.609ZM126.559 109.883V113.302C126.559 113.964 126.652 114.415 126.84 114.655C127.027 114.89 127.353 115.007 127.815 115.007V115.64C127.288 115.687 126.755 115.757 126.216 115.851C125.677 115.938 125.27 116.012 124.994 116.07L124.581 116.176L124.396 114.471H124.309C124.273 114.518 124.224 114.582 124.159 114.664C124.101 114.74 123.972 114.875 123.772 115.068C123.579 115.256 123.371 115.426 123.148 115.578C122.926 115.725 122.639 115.862 122.287 115.991C121.941 116.114 121.596 116.176 121.25 116.176C120.506 116.176 119.914 115.982 119.475 115.596C119.035 115.203 118.815 114.708 118.815 114.11C118.815 113.595 119 113.12 119.369 112.687C119.744 112.253 120.195 111.913 120.723 111.667C121.256 111.421 121.786 111.213 122.313 111.043C122.841 110.867 123.289 110.75 123.658 110.691L124.221 110.604V110.059C124.221 108.5 123.649 107.721 122.507 107.721C122.313 107.721 122.12 107.744 121.927 107.791C121.739 107.838 121.593 107.885 121.487 107.932L121.338 107.993L120.705 109.971H119.448V107.633C119.565 107.562 119.732 107.48 119.949 107.387C120.166 107.287 120.6 107.152 121.25 106.982C121.9 106.812 122.53 106.728 123.14 106.728C124.206 106.728 125.041 107.015 125.645 107.589C126.254 108.157 126.559 108.922 126.559 109.883ZM122.331 114.471C122.653 114.471 122.97 114.397 123.28 114.251C123.597 114.099 123.831 113.949 123.983 113.803L124.221 113.574V111.5C124.139 111.512 124.03 111.529 123.896 111.553C123.761 111.576 123.523 111.644 123.184 111.755C122.844 111.86 122.545 111.983 122.287 112.124C122.029 112.259 121.792 112.446 121.575 112.687C121.358 112.927 121.25 113.19 121.25 113.478C121.25 114.14 121.61 114.471 122.331 114.471ZM131.955 101.419V113.838C131.955 114.459 132.04 114.869 132.21 115.068C132.38 115.268 132.717 115.367 133.221 115.367V116H128.36V115.367L129.617 115.104V104.39C129.617 103.728 129.523 103.276 129.336 103.036C129.154 102.796 128.829 102.676 128.36 102.676V102.052C128.923 102.005 129.503 101.929 130.101 101.823C130.704 101.712 131.161 101.612 131.472 101.524L131.955 101.419ZM134.706 115.763C134.431 115.487 134.293 115.147 134.293 114.743C134.293 114.333 134.431 113.99 134.706 113.715C134.981 113.439 135.324 113.302 135.734 113.302C136.145 113.302 136.487 113.439 136.763 113.715C137.038 113.99 137.176 114.333 137.176 114.743C137.176 115.147 137.038 115.487 136.763 115.763C136.487 116.038 136.145 116.176 135.734 116.176C135.324 116.176 134.981 116.038 134.706 115.763Z" fill="#ED1C24"/>
</svg>
