<svg width="268" height="137" viewBox="0 0 268 137" fill="none" xmlns="http://www.w3.org/2000/svg">
<rect x="0.5" y="0.5" width="267" height="136" fill="white" stroke="#ED1C24"/>
<path d="M13.7861 20.7275C13.417 20.7275 13.0361 20.6836 12.6436 20.5957C12.2568 20.5078 11.9609 20.4141 11.7559 20.3145L11.4482 20.1914V18.3018H12.292L12.8018 19.7432C13.042 19.8604 13.3057 19.9189 13.5928 19.9189C14.0967 19.9189 14.4805 19.793 14.7441 19.541C15.0078 19.2891 15.1396 18.9346 15.1396 18.4775C15.1396 18.0791 15.0195 17.7568 14.7793 17.5107C14.5391 17.2588 14.2402 17.1328 13.8828 17.1328C13.7773 17.1328 13.6719 17.1475 13.5664 17.1768C13.4609 17.2061 13.3848 17.2324 13.3379 17.2559L13.25 17.3086L12.8018 16.6758L15.1396 14.6982V14.6104H13.6104C13.165 14.6104 12.8398 14.7041 12.6348 14.8916C12.4355 15.0732 12.3096 15.3691 12.2568 15.7793H11.6328V13.4414H16.9414V14.25L14.5068 16.2803V16.377C14.5186 16.377 14.5889 16.3682 14.7178 16.3506C14.8525 16.333 14.9756 16.3242 15.0869 16.3242C15.6963 16.3242 16.1855 16.5146 16.5547 16.8955C16.9297 17.2705 17.1172 17.7686 17.1172 18.3896C17.1172 19.0518 16.8213 19.6084 16.2295 20.0596C15.6436 20.5049 14.8291 20.7275 13.7861 20.7275ZM19.1914 20.5518V20.1914L22.707 14.6104H20.0967C19.3408 14.6104 18.9189 15.0791 18.8311 16.0166H18.207V13.4414H23.7881V14.3379L21.2656 20.5518H19.1914ZM35.126 30H29.457V29.3672L30.9863 29.0068V18.75C30.9863 17.9473 30.8896 17.4316 30.6963 17.2031C30.5029 16.9746 30.0898 16.8604 29.457 16.8604V16.1396H35.4863C37.6367 16.1396 39.3271 16.7461 40.5576 17.959C41.7939 19.1719 42.4121 20.8154 42.4121 22.8896C42.4121 25.0107 41.7471 26.7275 40.417 28.04C39.0869 29.3467 37.3232 30 35.126 30ZM35.126 17.1328H33.4121V29.0068H35.2139C36.6201 29.0068 37.7217 28.5293 38.5186 27.5742C39.3154 26.6133 39.7139 25.1719 39.7139 23.25C39.7139 21.1113 39.3242 19.5586 38.5449 18.5918C37.7656 17.6191 36.626 17.1328 35.126 17.1328ZM48.4414 21.7207C47.9609 21.7207 47.542 21.9404 47.1846 22.3799C46.833 22.8135 46.5928 23.4639 46.4639 24.3311L49.8828 24.0586C49.8828 22.5 49.4023 21.7207 48.4414 21.7207ZM48.6172 20.7275C49.748 20.7275 50.6328 21.0557 51.2715 21.7119C51.916 22.3682 52.2617 23.2998 52.3086 24.5068L51.4121 25.2275H46.3672V25.3242C46.3672 26.2969 46.6396 27.0791 47.1846 27.6709C47.7354 28.2627 48.4238 28.5586 49.25 28.5586C49.7539 28.5586 50.2314 28.4941 50.6826 28.3652C51.1338 28.2305 51.4531 28.0928 51.6406 27.9521L51.9482 27.75L52.3086 28.1104C52.2734 28.1689 52.2207 28.2451 52.1504 28.3389C52.0801 28.4268 51.9219 28.5908 51.6758 28.8311C51.4297 29.0713 51.1631 29.2822 50.876 29.4639C50.5947 29.6396 50.2256 29.8037 49.7686 29.9561C49.3174 30.1025 48.8457 30.1758 48.3535 30.1758C47.082 30.1758 46.0273 29.748 45.1895 28.8926C44.3574 28.0371 43.9414 26.9385 43.9414 25.5967C43.9414 24.249 44.4014 23.1006 45.3213 22.1514C46.2471 21.2021 47.3457 20.7275 48.6172 20.7275ZM57.4326 30.1758L54.1016 22.9775C53.8262 22.3799 53.5771 21.9902 53.3545 21.8086C53.1318 21.627 52.7803 21.5361 52.2998 21.5361V20.9121H57.5205V21.5361L56.0791 21.8086L58.1533 26.1328L58.4258 27.2139H58.5137L60.4912 22.9775C60.6084 22.6787 60.6699 22.4092 60.6758 22.1689C60.6758 21.7471 60.2539 21.5361 59.4102 21.5361V20.9121H63.5498V21.5361L62.293 21.8086L58.4258 30.1758H57.4326ZM68.1289 21.7207C67.6484 21.7207 67.2295 21.9404 66.8721 22.3799C66.5205 22.8135 66.2803 23.4639 66.1514 24.3311L69.5703 24.0586C69.5703 22.5 69.0898 21.7207 68.1289 21.7207ZM68.3047 20.7275C69.4355 20.7275 70.3203 21.0557 70.959 21.7119C71.6035 22.3682 71.9492 23.2998 71.9961 24.5068L71.0996 25.2275H66.0547V25.3242C66.0547 26.2969 66.3271 27.0791 66.8721 27.6709C67.4229 28.2627 68.1113 28.5586 68.9375 28.5586C69.4414 28.5586 69.9189 28.4941 70.3701 28.3652C70.8213 28.2305 71.1406 28.0928 71.3281 27.9521L71.6357 27.75L71.9961 28.1104C71.9609 28.1689 71.9082 28.2451 71.8379 28.3389C71.7676 28.4268 71.6094 28.5908 71.3633 28.8311C71.1172 29.0713 70.8506 29.2822 70.5635 29.4639C70.2822 29.6396 69.9131 29.8037 69.4561 29.9561C69.0049 30.1025 68.5332 30.1758 68.041 30.1758C66.7695 30.1758 65.7148 29.748 64.877 28.8926C64.0449 28.0371 63.6289 26.9385 63.6289 25.5967C63.6289 24.249 64.0889 23.1006 65.0088 22.1514C65.9346 21.2021 67.0332 20.7275 68.3047 20.7275ZM87.9307 24.4189V27.8379C87.9307 28.459 88.0127 28.8691 88.1768 29.0684C88.3467 29.2676 88.6836 29.3672 89.1875 29.3672V30H84.5117V29.3672L85.5928 29.1035V24.4189C85.5928 23.7568 85.4463 23.2617 85.1533 22.9336C84.8662 22.6055 84.4707 22.4414 83.9668 22.4414C83.668 22.4414 83.3691 22.5088 83.0703 22.6436C82.7715 22.7725 82.543 22.9072 82.3848 23.0479L82.165 23.25C82.2236 23.4902 82.2559 23.8799 82.2617 24.4189V27.8379C82.2617 28.459 82.3408 28.8691 82.499 29.0684C82.6631 29.2676 82.9736 29.3672 83.4307 29.3672V30H78.8428V29.3672L79.915 29.1035V24.4189C79.915 23.7568 79.7715 23.2617 79.4844 22.9336C79.1973 22.6055 78.8018 22.4414 78.2979 22.4414C78.0342 22.4414 77.7588 22.5088 77.4717 22.6436C77.1846 22.7725 76.9619 22.9072 76.8037 23.0479L76.5928 23.25V27.8379C76.5928 28.459 76.6719 28.8691 76.8301 29.0684C76.9941 29.2676 77.3047 29.3672 77.7617 29.3672V30H72.9893V29.3672L74.2461 29.1035V23.6104C74.2461 22.9482 74.1523 22.4971 73.9648 22.2568C73.7832 22.0166 73.458 21.8965 72.9893 21.8965V21.2725C73.5166 21.2256 74.0498 21.1582 74.5889 21.0703C75.1279 20.9766 75.5352 20.8945 75.8105 20.8242L76.2324 20.7275L76.4082 22.2568H76.4961C76.5312 22.2217 76.5781 22.1689 76.6367 22.0986C76.7012 22.0283 76.833 21.9053 77.0322 21.7295C77.2314 21.5537 77.4365 21.3984 77.6475 21.2637C77.8643 21.123 78.1367 21 78.4648 20.8945C78.7988 20.7832 79.1328 20.7275 79.4668 20.7275C79.8066 20.7275 80.1201 20.7832 80.4072 20.8945C80.6943 21 80.9258 21.1289 81.1016 21.2812C81.2832 21.4277 81.4355 21.5742 81.5586 21.7207C81.6875 21.8613 81.7783 21.9873 81.8311 22.0986L81.9014 22.2568H81.9893C82.0244 22.2217 82.0713 22.1689 82.1299 22.0986C82.1943 22.0283 82.3262 21.9053 82.5254 21.7295C82.7305 21.5537 82.9473 21.3984 83.1758 21.2637C83.4043 21.123 83.6943 21 84.0459 20.8945C84.4033 20.7832 84.7666 20.7275 85.1357 20.7275C85.9854 20.7275 86.6621 21.041 87.166 21.668C87.6758 22.2891 87.9307 23.2061 87.9307 24.4189ZM97.2822 25.5879C97.2822 24.2812 97.0479 23.2969 96.5791 22.6348C96.1104 21.9668 95.5332 21.6328 94.8477 21.6328C94.25 21.6328 93.7256 21.9551 93.2744 22.5996C92.8232 23.2383 92.5977 24.1465 92.5977 25.3242C92.5977 26.6309 92.832 27.6182 93.3008 28.2861C93.7695 28.9482 94.3467 29.2793 95.0322 29.2793C95.6299 29.2793 96.1543 28.96 96.6055 28.3213C97.0566 27.6768 97.2822 26.7656 97.2822 25.5879ZM99.708 25.4121C99.708 26.7656 99.2393 27.8994 98.3018 28.8135C97.3701 29.7217 96.1895 30.1758 94.7598 30.1758C93.4062 30.1758 92.3018 29.7451 91.4463 28.8838C90.5967 28.0225 90.1719 26.8945 90.1719 25.5C90.1719 24.1465 90.6377 23.0127 91.5693 22.0986C92.5068 21.1846 93.6904 20.7275 95.1201 20.7275C96.4736 20.7275 97.5752 21.1611 98.4248 22.0283C99.2803 22.8896 99.708 24.0176 99.708 25.4121ZM106.019 27.75C106.019 27.4395 105.854 27.1582 105.526 26.9062C105.204 26.6543 104.814 26.4258 104.357 26.2207C103.906 26.0156 103.452 25.7959 102.995 25.5615C102.538 25.3271 102.146 25.0137 101.817 24.6211C101.495 24.2227 101.334 23.7656 101.334 23.25C101.334 22.5293 101.639 21.9287 102.248 21.4482C102.863 20.9678 103.73 20.7275 104.85 20.7275C105.33 20.7275 105.793 20.7744 106.238 20.8682C106.689 20.9561 107.023 21.0469 107.24 21.1406L107.548 21.2725V23.6104H106.81C106.651 22.292 106.027 21.6328 104.938 21.6328C104.551 21.6328 104.229 21.7412 103.971 21.958C103.713 22.1689 103.584 22.4209 103.584 22.7139C103.584 23.0713 103.745 23.376 104.067 23.6279C104.396 23.8799 104.788 24.0967 105.245 24.2783C105.702 24.4541 106.156 24.6475 106.607 24.8584C107.064 25.0693 107.454 25.374 107.776 25.7725C108.104 26.165 108.269 26.6455 108.269 27.2139C108.269 28.0635 107.926 28.7695 107.24 29.332C106.555 29.8945 105.608 30.1758 104.401 30.1758C103.792 30.1758 103.206 30.1172 102.644 30C102.087 29.8828 101.688 29.7627 101.448 29.6396L101.07 29.4639V26.7568H101.791C101.926 27.5713 102.21 28.1953 102.644 28.6289C103.083 29.0625 103.637 29.2793 104.305 29.2793C104.785 29.2793 105.189 29.127 105.518 28.8223C105.852 28.5176 106.019 28.1602 106.019 27.75ZM119.694 20.7275C119.935 20.7275 120.175 20.751 120.415 20.7979C120.655 20.8389 120.834 20.8828 120.951 20.9297L121.136 21V18.3896C121.136 17.7275 121.042 17.2764 120.854 17.0361C120.667 16.7959 120.342 16.6758 119.879 16.6758V16.0518C120.441 16.0049 121.021 15.9287 121.619 15.8232C122.223 15.7119 122.68 15.6123 122.99 15.5244L123.474 15.4189V27.3018C123.474 27.9639 123.567 28.415 123.755 28.6553C123.942 28.8896 124.271 29.0068 124.739 29.0068V29.6396C124.212 29.6865 123.676 29.7568 123.131 29.8506C122.592 29.9385 122.185 30.0117 121.909 30.0703L121.496 30.1758L121.312 28.4707H121.224C121.188 28.5176 121.142 28.582 121.083 28.6641C121.024 28.7402 120.89 28.875 120.679 29.0684C120.468 29.2559 120.248 29.4258 120.02 29.5781C119.791 29.7246 119.507 29.8623 119.167 29.9912C118.833 30.1143 118.499 30.1758 118.165 30.1758C117.228 30.1758 116.422 29.7803 115.748 28.9893C115.08 28.1982 114.746 27.1553 114.746 25.8604C114.746 24.29 115.197 23.042 116.1 22.1162C117.008 21.1904 118.206 20.7275 119.694 20.7275ZM119.422 21.7207C118.783 21.7207 118.247 22.0312 117.813 22.6523C117.386 23.2676 117.172 24.1875 117.172 25.4121C117.172 27.4512 117.863 28.4707 119.246 28.4707C119.568 28.4707 119.885 28.3975 120.195 28.251C120.512 28.0986 120.746 27.9434 120.898 27.7852L121.136 27.5479V22.4414C121.089 22.3945 121.019 22.3301 120.925 22.248C120.837 22.1602 120.644 22.0518 120.345 21.9229C120.052 21.7881 119.744 21.7207 119.422 21.7207ZM128.976 20.6396V27.8379C128.976 28.459 129.058 28.8691 129.222 29.0684C129.392 29.2676 129.729 29.3672 130.232 29.3672V30H125.372V29.3672L126.629 29.1035V23.6104C126.629 22.9482 126.535 22.4971 126.348 22.2568C126.166 22.0166 125.841 21.8965 125.372 21.8965V21.2725C125.935 21.2256 126.515 21.1494 127.112 21.0439C127.716 20.9326 128.179 20.833 128.501 20.7451L128.976 20.6396ZM126.778 18.6094C126.503 18.334 126.365 17.9912 126.365 17.5811C126.365 17.1709 126.503 16.8281 126.778 16.5527C127.054 16.2773 127.394 16.1396 127.798 16.1396C128.208 16.1396 128.551 16.2773 128.826 16.5527C129.102 16.8281 129.239 17.1709 129.239 17.5811C129.239 17.9912 129.102 18.334 128.826 18.6094C128.551 18.8848 128.208 19.0225 127.798 19.0225C127.394 19.0225 127.054 18.8848 126.778 18.6094ZM139.206 30H131.217L131.032 29.5518L136.525 21.8086H134.724C133.282 21.8086 132.564 22.5879 132.57 24.1465H131.665V20.9121H139.408L139.584 21.3604L134.1 29.1035H136.253C136.938 29.1035 137.463 28.9131 137.826 28.5322C138.195 28.1455 138.512 27.4336 138.775 26.3965H139.584L139.206 30ZM145.525 21.7207C145.045 21.7207 144.626 21.9404 144.269 22.3799C143.917 22.8135 143.677 23.4639 143.548 24.3311L146.967 24.0586C146.967 22.5 146.486 21.7207 145.525 21.7207ZM145.701 20.7275C146.832 20.7275 147.717 21.0557 148.355 21.7119C149 22.3682 149.346 23.2998 149.393 24.5068L148.496 25.2275H143.451V25.3242C143.451 26.2969 143.724 27.0791 144.269 27.6709C144.819 28.2627 145.508 28.5586 146.334 28.5586C146.838 28.5586 147.315 28.4941 147.767 28.3652C148.218 28.2305 148.537 28.0928 148.725 27.9521L149.032 27.75L149.393 28.1104C149.357 28.1689 149.305 28.2451 149.234 28.3389C149.164 28.4268 149.006 28.5908 148.76 28.8311C148.514 29.0713 148.247 29.2822 147.96 29.4639C147.679 29.6396 147.31 29.8037 146.853 29.9561C146.401 30.1025 145.93 30.1758 145.438 30.1758C144.166 30.1758 143.111 29.748 142.273 28.8926C141.441 28.0371 141.025 26.9385 141.025 25.5967C141.025 24.249 141.485 23.1006 142.405 22.1514C143.331 21.2021 144.43 20.7275 145.701 20.7275ZM153.989 23.4258V27.8379C153.989 28.4238 154.101 28.8252 154.323 29.042C154.552 29.2588 154.979 29.3672 155.606 29.3672V30H150.386V29.3672L151.643 29.1035V23.6104C151.643 22.9482 151.549 22.4971 151.361 22.2568C151.18 22.0166 150.854 21.8965 150.386 21.8965V21.2725C150.913 21.2256 151.446 21.1582 151.985 21.0703C152.524 20.9766 152.932 20.8945 153.207 20.8242L153.629 20.7275L153.805 22.4414H153.893C153.928 22.3945 153.975 22.333 154.033 22.2568C154.098 22.1748 154.235 22.0371 154.446 21.8438C154.657 21.6504 154.868 21.4805 155.079 21.334C155.296 21.1816 155.565 21.0439 155.888 20.9209C156.216 20.792 156.541 20.7275 156.863 20.7275C157.104 20.7275 157.338 20.751 157.566 20.7979C157.795 20.8389 157.956 20.8828 158.05 20.9297L158.217 21V24.0586H157.048L156.415 22.2568C155.981 22.2568 155.562 22.3535 155.158 22.5469C154.76 22.7402 154.464 22.9336 154.271 23.127L153.989 23.4258ZM170.899 25.5879C170.899 24.2812 170.665 23.2969 170.196 22.6348C169.728 21.9668 169.15 21.6328 168.465 21.6328C167.867 21.6328 167.343 21.9551 166.892 22.5996C166.44 23.2383 166.215 24.1465 166.215 25.3242C166.215 26.6309 166.449 27.6182 166.918 28.2861C167.387 28.9482 167.964 29.2793 168.649 29.2793C169.247 29.2793 169.771 28.96 170.223 28.3213C170.674 27.6768 170.899 26.7656 170.899 25.5879ZM173.325 25.4121C173.325 26.7656 172.856 27.8994 171.919 28.8135C170.987 29.7217 169.807 30.1758 168.377 30.1758C167.023 30.1758 165.919 29.7451 165.063 28.8838C164.214 28.0225 163.789 26.8945 163.789 25.5C163.789 24.1465 164.255 23.0127 165.187 22.0986C166.124 21.1846 167.308 20.7275 168.737 20.7275C170.091 20.7275 171.192 21.1611 172.042 22.0283C172.897 22.8896 173.325 24.0176 173.325 25.4121ZM184.944 20.7275C185.29 20.7275 185.645 20.7744 186.008 20.8682C186.371 20.9561 186.641 21.0469 186.816 21.1406L187.106 21.2725L188.636 20.7275V31.9775C188.636 32.5986 188.721 33.0088 188.891 33.208C189.061 33.4072 189.397 33.5068 189.901 33.5068V34.1396H184.681V33.5068L186.298 33.2432V28.6465H186.21C186.187 28.6816 186.146 28.7373 186.087 28.8135C186.034 28.8838 185.917 29.0068 185.735 29.1826C185.56 29.3584 185.369 29.5166 185.164 29.6572C184.959 29.792 184.687 29.9121 184.347 30.0176C184.013 30.123 183.673 30.1758 183.327 30.1758C182.39 30.1758 181.584 29.7803 180.91 28.9893C180.242 28.1982 179.908 27.1553 179.908 25.8604C179.908 24.29 180.362 23.042 181.271 22.1162C182.185 21.1904 183.409 20.7275 184.944 20.7275ZM184.584 21.7207C183.945 21.7207 183.409 22.0312 182.976 22.6523C182.548 23.2676 182.334 24.1875 182.334 25.4121C182.334 27.4512 183.025 28.4707 184.408 28.4707C184.73 28.4707 185.047 28.3975 185.357 28.251C185.674 28.0986 185.908 27.9434 186.061 27.7852L186.298 27.5479V22.5293C186.251 22.4707 186.181 22.3975 186.087 22.3096C185.999 22.2158 185.806 22.0957 185.507 21.9492C185.214 21.7969 184.906 21.7207 184.584 21.7207ZM200.07 27.3018C200.07 27.9639 200.164 28.415 200.352 28.6553C200.539 28.8896 200.867 29.0068 201.336 29.0068V29.6396C200.809 29.6865 200.272 29.7568 199.728 29.8506C199.188 29.9385 198.781 30.0117 198.506 30.0703L198.093 30.1758L197.917 28.4707H197.82C197.785 28.5176 197.735 28.582 197.671 28.6641C197.606 28.7402 197.466 28.875 197.249 29.0684C197.032 29.2559 196.807 29.4258 196.572 29.5781C196.338 29.7246 196.039 29.8623 195.676 29.9912C195.318 30.1143 194.955 30.1758 194.586 30.1758C193.695 30.1758 192.992 29.8711 192.477 29.2617C191.961 28.6523 191.703 27.7588 191.703 26.5811V23.6104C191.703 22.9482 191.609 22.4971 191.422 22.2568C191.24 22.0166 190.915 21.8965 190.446 21.8965V21.2725C191.009 21.2256 191.589 21.1494 192.187 21.0439C192.79 20.9326 193.247 20.833 193.558 20.7451L194.041 20.6396V26.4932C194.041 27.2021 194.176 27.709 194.445 28.0137C194.715 28.3184 195.151 28.4707 195.755 28.4707C196.077 28.4707 196.402 28.3975 196.73 28.251C197.064 28.0986 197.313 27.9492 197.478 27.8027L197.732 27.5742V23.6104C197.732 22.9482 197.639 22.4971 197.451 22.2568C197.27 22.0166 196.944 21.8965 196.476 21.8965V21.2725C197.038 21.2256 197.618 21.1494 198.216 21.0439C198.819 20.9326 199.282 20.833 199.604 20.7451L200.07 20.6396V27.3018ZM206.82 21.7207C206.34 21.7207 205.921 21.9404 205.563 22.3799C205.212 22.8135 204.972 23.4639 204.843 24.3311L208.262 24.0586C208.262 22.5 207.781 21.7207 206.82 21.7207ZM206.996 20.7275C208.127 20.7275 209.012 21.0557 209.65 21.7119C210.295 22.3682 210.641 23.2998 210.688 24.5068L209.791 25.2275H204.746V25.3242C204.746 26.2969 205.019 27.0791 205.563 27.6709C206.114 28.2627 206.803 28.5586 207.629 28.5586C208.133 28.5586 208.61 28.4941 209.062 28.3652C209.513 28.2305 209.832 28.0928 210.02 27.9521L210.327 27.75L210.688 28.1104C210.652 28.1689 210.6 28.2451 210.529 28.3389C210.459 28.4268 210.301 28.5908 210.055 28.8311C209.809 29.0713 209.542 29.2822 209.255 29.4639C208.974 29.6396 208.604 29.8037 208.147 29.9561C207.696 30.1025 207.225 30.1758 206.732 30.1758C205.461 30.1758 204.406 29.748 203.568 28.8926C202.736 28.0371 202.32 26.9385 202.32 25.5967C202.32 24.249 202.78 23.1006 203.7 22.1514C204.626 21.2021 205.725 20.7275 206.996 20.7275ZM14.8672 52.9121V54.9775C14.8672 55.5635 14.9902 55.9648 15.2363 56.1816C15.4824 56.3984 15.96 56.5068 16.6689 56.5068V57.1396H11.2725V56.5068L12.5293 56.2432V46.6104C12.5293 45.9482 12.4355 45.4971 12.248 45.2568C12.0664 45.0166 11.7412 44.8965 11.2725 44.8965V44.2725C11.7998 44.2256 12.333 44.1582 12.8721 44.0703C13.4111 43.9766 13.8184 43.8945 14.0938 43.8242L14.5068 43.7275L14.6914 45.4414H14.7793C14.8145 45.3945 14.8613 45.333 14.9199 45.2568C14.9844 45.1748 15.1191 45.0371 15.3242 44.8438C15.5352 44.6504 15.7549 44.4805 15.9834 44.334C16.2119 44.1816 16.4932 44.0439 16.8271 43.9209C17.167 43.792 17.5039 43.7275 17.8379 43.7275C18.7754 43.7275 19.5781 44.126 20.2461 44.9229C20.9199 45.7139 21.2568 46.7568 21.2568 48.0518C21.2568 49.6221 20.8027 50.8701 19.8945 51.7959C18.9922 52.7158 17.7969 53.1758 16.3086 53.1758C16.0684 53.1758 15.8281 53.1523 15.5879 53.1055C15.3477 53.0586 15.1689 53.0117 15.0518 52.9648L14.8672 52.9121ZM16.5811 52.1914C17.2197 52.1914 17.7529 51.8838 18.1807 51.2686C18.6143 50.6475 18.8311 49.7246 18.8311 48.5C18.8311 46.4609 18.1396 45.4414 16.7568 45.4414C16.4697 45.4414 16.168 45.5176 15.8516 45.6699C15.5352 45.8164 15.292 45.9688 15.1221 46.127L14.8672 46.3379V51.2861C14.9141 51.3564 14.9873 51.4414 15.0869 51.541C15.1924 51.6348 15.3945 51.7666 15.6934 51.9365C15.998 52.1064 16.2939 52.1914 16.5811 52.1914ZM27.207 44.7207C26.7266 44.7207 26.3076 44.9404 25.9502 45.3799C25.5986 45.8135 25.3584 46.4639 25.2295 47.3311L28.6484 47.0586C28.6484 45.5 28.168 44.7207 27.207 44.7207ZM27.3828 43.7275C28.5137 43.7275 29.3984 44.0557 30.0371 44.7119C30.6816 45.3682 31.0273 46.2998 31.0742 47.5068L30.1777 48.2275H25.1328V48.3242C25.1328 49.2969 25.4053 50.0791 25.9502 50.6709C26.501 51.2627 27.1895 51.5586 28.0156 51.5586C28.5195 51.5586 28.9971 51.4941 29.4482 51.3652C29.8994 51.2305 30.2188 51.0928 30.4062 50.9521L30.7139 50.75L31.0742 51.1104C31.0391 51.1689 30.9863 51.2451 30.916 51.3389C30.8457 51.4268 30.6875 51.5908 30.4414 51.8311C30.1953 52.0713 29.9287 52.2822 29.6416 52.4639C29.3604 52.6396 28.9912 52.8037 28.5342 52.9561C28.083 53.1025 27.6113 53.1758 27.1191 53.1758C25.8477 53.1758 24.793 52.748 23.9551 51.8926C23.123 51.0371 22.707 49.9385 22.707 48.5967C22.707 47.249 23.167 46.1006 24.0869 45.1514C25.0127 44.2021 26.1113 43.7275 27.3828 43.7275ZM41.7002 47.3311V50.8379C41.7002 51.459 41.7822 51.8691 41.9463 52.0684C42.1162 52.2676 42.4531 52.3672 42.957 52.3672V53H38.0967V52.3672L39.3535 52.1035V47.4189C39.3535 46.71 39.2188 46.2031 38.9492 45.8984C38.6797 45.5938 38.2461 45.4414 37.6484 45.4414C37.3262 45.4414 36.998 45.5176 36.6641 45.6699C36.3359 45.8164 36.0869 45.9688 35.917 46.127L35.6709 46.3379V50.8379C35.6709 51.459 35.7529 51.8691 35.917 52.0684C36.0869 52.2676 36.4238 52.3672 36.9277 52.3672V53H32.0674V52.3672L33.3242 52.1035V46.6104C33.3242 45.9482 33.2305 45.4971 33.043 45.2568C32.8613 45.0166 32.5361 44.8965 32.0674 44.8965V44.2725C32.5947 44.2256 33.1279 44.1582 33.667 44.0703C34.2061 43.9766 34.6133 43.8945 34.8887 43.8242L35.3105 43.7275L35.4863 45.4414H35.5742C35.6094 45.3945 35.6592 45.333 35.7236 45.2568C35.7939 45.1748 35.9375 45.0371 36.1543 44.8438C36.3711 44.6504 36.5967 44.4805 36.8311 44.334C37.0654 44.1816 37.3613 44.0439 37.7188 43.9209C38.0762 43.792 38.4424 43.7275 38.8174 43.7275C39.708 43.7275 40.4111 44.0352 40.9268 44.6504C41.4424 45.2598 41.7002 46.1533 41.7002 47.3311ZM48.8018 50.75C48.8018 50.4395 48.6377 50.1582 48.3096 49.9062C47.9873 49.6543 47.5977 49.4258 47.1406 49.2207C46.6895 49.0156 46.2354 48.7959 45.7783 48.5615C45.3213 48.3271 44.9287 48.0137 44.6006 47.6211C44.2783 47.2227 44.1172 46.7656 44.1172 46.25C44.1172 45.5293 44.4219 44.9287 45.0312 44.4482C45.6465 43.9678 46.5137 43.7275 47.6328 43.7275C48.1133 43.7275 48.5762 43.7744 49.0215 43.8682C49.4727 43.9561 49.8066 44.0469 50.0234 44.1406L50.3311 44.2725V46.6104H49.5928C49.4346 45.292 48.8105 44.6328 47.7207 44.6328C47.334 44.6328 47.0117 44.7412 46.7539 44.958C46.4961 45.1689 46.3672 45.4209 46.3672 45.7139C46.3672 46.0713 46.5283 46.376 46.8506 46.6279C47.1787 46.8799 47.5713 47.0967 48.0283 47.2783C48.4854 47.4541 48.9395 47.6475 49.3906 47.8584C49.8477 48.0693 50.2373 48.374 50.5596 48.7725C50.8877 49.165 51.0518 49.6455 51.0518 50.2139C51.0518 51.0635 50.709 51.7695 50.0234 52.332C49.3379 52.8945 48.3916 53.1758 47.1846 53.1758C46.5752 53.1758 45.9893 53.1172 45.4268 53C44.8701 52.8828 44.4717 52.7627 44.2314 52.6396L43.8535 52.4639V49.7568H44.5742C44.709 50.5713 44.9932 51.1953 45.4268 51.6289C45.8662 52.0625 46.4199 52.2793 47.0879 52.2793C47.5684 52.2793 47.9727 52.127 48.3008 51.8223C48.6348 51.5176 48.8018 51.1602 48.8018 50.75ZM59.9551 46.8828V50.3018C59.9551 50.9639 60.0488 51.415 60.2363 51.6553C60.4238 51.8896 60.749 52.0068 61.2119 52.0068V52.6396C60.6846 52.6865 60.1514 52.7568 59.6123 52.8506C59.0732 52.9385 58.666 53.0117 58.3906 53.0703L57.9775 53.1758L57.793 51.4707H57.7051C57.6699 51.5176 57.6201 51.582 57.5557 51.6641C57.4971 51.7402 57.3682 51.875 57.1689 52.0684C56.9756 52.2559 56.7676 52.4258 56.5449 52.5781C56.3223 52.7246 56.0352 52.8623 55.6836 52.9912C55.3379 53.1143 54.9922 53.1758 54.6465 53.1758C53.9023 53.1758 53.3105 52.9824 52.8711 52.5957C52.4316 52.2031 52.2119 51.708 52.2119 51.1104C52.2119 50.5947 52.3965 50.1201 52.7656 49.6865C53.1406 49.2529 53.5918 48.9131 54.1191 48.667C54.6523 48.4209 55.1826 48.2129 55.71 48.043C56.2373 47.8672 56.6855 47.75 57.0547 47.6914L57.6172 47.6035V47.0586C57.6172 45.5 57.0459 44.7207 55.9033 44.7207C55.71 44.7207 55.5166 44.7441 55.3232 44.791C55.1357 44.8379 54.9893 44.8848 54.8838 44.9316L54.7344 44.9932L54.1016 46.9707H52.8447V44.6328C52.9619 44.5625 53.1289 44.4805 53.3457 44.3867C53.5625 44.2871 53.9961 44.1523 54.6465 43.9824C55.2969 43.8125 55.9268 43.7275 56.5361 43.7275C57.6025 43.7275 58.4375 44.0146 59.041 44.5889C59.6504 45.1572 59.9551 45.9219 59.9551 46.8828ZM55.7275 51.4707C56.0498 51.4707 56.3662 51.3975 56.6768 51.251C56.9932 51.0986 57.2275 50.9492 57.3799 50.8027L57.6172 50.5742V48.5C57.5352 48.5117 57.4268 48.5293 57.292 48.5527C57.1572 48.5762 56.9199 48.6436 56.5801 48.7549C56.2402 48.8604 55.9414 48.9834 55.6836 49.124C55.4258 49.2588 55.1885 49.4463 54.9717 49.6865C54.7549 49.9268 54.6465 50.1904 54.6465 50.4775C54.6465 51.1396 55.0068 51.4707 55.7275 51.4707ZM76.7861 47.4189V50.8379C76.7861 51.459 76.8682 51.8691 77.0322 52.0684C77.2021 52.2676 77.5391 52.3672 78.043 52.3672V53H73.3672V52.3672L74.4482 52.1035V47.4189C74.4482 46.7568 74.3018 46.2617 74.0088 45.9336C73.7217 45.6055 73.3262 45.4414 72.8223 45.4414C72.5234 45.4414 72.2246 45.5088 71.9258 45.6436C71.627 45.7725 71.3984 45.9072 71.2402 46.0479L71.0205 46.25C71.0791 46.4902 71.1113 46.8799 71.1172 47.4189V50.8379C71.1172 51.459 71.1963 51.8691 71.3545 52.0684C71.5186 52.2676 71.8291 52.3672 72.2861 52.3672V53H67.6982V52.3672L68.7705 52.1035V47.4189C68.7705 46.7568 68.627 46.2617 68.3398 45.9336C68.0527 45.6055 67.6572 45.4414 67.1533 45.4414C66.8896 45.4414 66.6143 45.5088 66.3271 45.6436C66.04 45.7725 65.8174 45.9072 65.6592 46.0479L65.4482 46.25V50.8379C65.4482 51.459 65.5273 51.8691 65.6855 52.0684C65.8496 52.2676 66.1602 52.3672 66.6172 52.3672V53H61.8447V52.3672L63.1016 52.1035V46.6104C63.1016 45.9482 63.0078 45.4971 62.8203 45.2568C62.6387 45.0166 62.3135 44.8965 61.8447 44.8965V44.2725C62.3721 44.2256 62.9053 44.1582 63.4443 44.0703C63.9834 43.9766 64.3906 43.8945 64.666 43.8242L65.0879 43.7275L65.2637 45.2568H65.3516C65.3867 45.2217 65.4336 45.1689 65.4922 45.0986C65.5566 45.0283 65.6885 44.9053 65.8877 44.7295C66.0869 44.5537 66.292 44.3984 66.5029 44.2637C66.7197 44.123 66.9922 44 67.3203 43.8945C67.6543 43.7832 67.9883 43.7275 68.3223 43.7275C68.6621 43.7275 68.9756 43.7832 69.2627 43.8945C69.5498 44 69.7812 44.1289 69.957 44.2812C70.1387 44.4277 70.291 44.5742 70.4141 44.7207C70.543 44.8613 70.6338 44.9873 70.6865 45.0986L70.7568 45.2568H70.8447C70.8799 45.2217 70.9268 45.1689 70.9854 45.0986C71.0498 45.0283 71.1816 44.9053 71.3809 44.7295C71.5859 44.5537 71.8027 44.3984 72.0312 44.2637C72.2598 44.123 72.5498 44 72.9014 43.8945C73.2588 43.7832 73.6221 43.7275 73.9912 43.7275C74.8408 43.7275 75.5176 44.041 76.0215 44.668C76.5312 45.2891 76.7861 46.2061 76.7861 47.4189ZM86.1377 48.5879C86.1377 47.2812 85.9033 46.2969 85.4346 45.6348C84.9658 44.9668 84.3887 44.6328 83.7031 44.6328C83.1055 44.6328 82.5811 44.9551 82.1299 45.5996C81.6787 46.2383 81.4531 47.1465 81.4531 48.3242C81.4531 49.6309 81.6875 50.6182 82.1562 51.2861C82.625 51.9482 83.2021 52.2793 83.8877 52.2793C84.4854 52.2793 85.0098 51.96 85.4609 51.3213C85.9121 50.6768 86.1377 49.7656 86.1377 48.5879ZM88.5635 48.4121C88.5635 49.7656 88.0947 50.8994 87.1572 51.8135C86.2256 52.7217 85.0449 53.1758 83.6152 53.1758C82.2617 53.1758 81.1572 52.7451 80.3018 51.8838C79.4521 51.0225 79.0273 49.8945 79.0273 48.5C79.0273 47.1465 79.4932 46.0127 80.4248 45.0986C81.3623 44.1846 82.5459 43.7275 83.9756 43.7275C85.3291 43.7275 86.4307 44.1611 87.2803 45.0283C88.1357 45.8896 88.5635 47.0176 88.5635 48.4121ZM94.874 50.75C94.874 50.4395 94.71 50.1582 94.3818 49.9062C94.0596 49.6543 93.6699 49.4258 93.2129 49.2207C92.7617 49.0156 92.3076 48.7959 91.8506 48.5615C91.3936 48.3271 91.001 48.0137 90.6729 47.6211C90.3506 47.2227 90.1895 46.7656 90.1895 46.25C90.1895 45.5293 90.4941 44.9287 91.1035 44.4482C91.7188 43.9678 92.5859 43.7275 93.7051 43.7275C94.1855 43.7275 94.6484 43.7744 95.0938 43.8682C95.5449 43.9561 95.8789 44.0469 96.0957 44.1406L96.4033 44.2725V46.6104H95.665C95.5068 45.292 94.8828 44.6328 93.793 44.6328C93.4062 44.6328 93.084 44.7412 92.8262 44.958C92.5684 45.1689 92.4395 45.4209 92.4395 45.7139C92.4395 46.0713 92.6006 46.376 92.9229 46.6279C93.251 46.8799 93.6436 47.0967 94.1006 47.2783C94.5576 47.4541 95.0117 47.6475 95.4629 47.8584C95.9199 48.0693 96.3096 48.374 96.6318 48.7725C96.96 49.165 97.124 49.6455 97.124 50.2139C97.124 51.0635 96.7812 51.7695 96.0957 52.332C95.4102 52.8945 94.4639 53.1758 93.2568 53.1758C92.6475 53.1758 92.0615 53.1172 91.499 53C90.9424 52.8828 90.5439 52.7627 90.3037 52.6396L89.9258 52.4639V49.7568H90.6465C90.7812 50.5713 91.0654 51.1953 91.499 51.6289C91.9385 52.0625 92.4922 52.2793 93.1602 52.2793C93.6406 52.2793 94.0449 52.127 94.373 51.8223C94.707 51.5176 94.874 51.1602 94.874 50.75ZM118.183 47.4189V50.8379C118.183 51.459 118.265 51.8691 118.429 52.0684C118.599 52.2676 118.936 52.3672 119.439 52.3672V53H114.764V52.3672L115.845 52.1035V47.4189C115.845 46.7568 115.698 46.2617 115.405 45.9336C115.118 45.6055 114.723 45.4414 114.219 45.4414C113.92 45.4414 113.621 45.5088 113.322 45.6436C113.023 45.7725 112.795 45.9072 112.637 46.0479L112.417 46.25C112.476 46.4902 112.508 46.8799 112.514 47.4189V50.8379C112.514 51.459 112.593 51.8691 112.751 52.0684C112.915 52.2676 113.226 52.3672 113.683 52.3672V53H109.095V52.3672L110.167 52.1035V47.4189C110.167 46.7568 110.023 46.2617 109.736 45.9336C109.449 45.6055 109.054 45.4414 108.55 45.4414C108.286 45.4414 108.011 45.5088 107.724 45.6436C107.437 45.7725 107.214 45.9072 107.056 46.0479L106.845 46.25V50.8379C106.845 51.459 106.924 51.8691 107.082 52.0684C107.246 52.2676 107.557 52.3672 108.014 52.3672V53H103.241V52.3672L104.498 52.1035V46.6104C104.498 45.9482 104.404 45.4971 104.217 45.2568C104.035 45.0166 103.71 44.8965 103.241 44.8965V44.2725C103.769 44.2256 104.302 44.1582 104.841 44.0703C105.38 43.9766 105.787 43.8945 106.062 43.8242L106.484 43.7275L106.66 45.2568H106.748C106.783 45.2217 106.83 45.1689 106.889 45.0986C106.953 45.0283 107.085 44.9053 107.284 44.7295C107.483 44.5537 107.688 44.3984 107.899 44.2637C108.116 44.123 108.389 44 108.717 43.8945C109.051 43.7832 109.385 43.7275 109.719 43.7275C110.059 43.7275 110.372 43.7832 110.659 43.8945C110.946 44 111.178 44.1289 111.354 44.2812C111.535 44.4277 111.688 44.5742 111.811 44.7207C111.939 44.8613 112.03 44.9873 112.083 45.0986L112.153 45.2568H112.241C112.276 45.2217 112.323 45.1689 112.382 45.0986C112.446 45.0283 112.578 44.9053 112.777 44.7295C112.982 44.5537 113.199 44.3984 113.428 44.2637C113.656 44.123 113.946 44 114.298 43.8945C114.655 43.7832 115.019 43.7275 115.388 43.7275C116.237 43.7275 116.914 44.041 117.418 44.668C117.928 45.2891 118.183 46.2061 118.183 47.4189ZM127.982 46.8828V50.3018C127.982 50.9639 128.076 51.415 128.264 51.6553C128.451 51.8896 128.776 52.0068 129.239 52.0068V52.6396C128.712 52.6865 128.179 52.7568 127.64 52.8506C127.101 52.9385 126.693 53.0117 126.418 53.0703L126.005 53.1758L125.82 51.4707H125.732C125.697 51.5176 125.647 51.582 125.583 51.6641C125.524 51.7402 125.396 51.875 125.196 52.0684C125.003 52.2559 124.795 52.4258 124.572 52.5781C124.35 52.7246 124.062 52.8623 123.711 52.9912C123.365 53.1143 123.02 53.1758 122.674 53.1758C121.93 53.1758 121.338 52.9824 120.898 52.5957C120.459 52.2031 120.239 51.708 120.239 51.1104C120.239 50.5947 120.424 50.1201 120.793 49.6865C121.168 49.2529 121.619 48.9131 122.146 48.667C122.68 48.4209 123.21 48.2129 123.737 48.043C124.265 47.8672 124.713 47.75 125.082 47.6914L125.645 47.6035V47.0586C125.645 45.5 125.073 44.7207 123.931 44.7207C123.737 44.7207 123.544 44.7441 123.351 44.791C123.163 44.8379 123.017 44.8848 122.911 44.9316L122.762 44.9932L122.129 46.9707H120.872V44.6328C120.989 44.5625 121.156 44.4805 121.373 44.3867C121.59 44.2871 122.023 44.1523 122.674 43.9824C123.324 43.8125 123.954 43.7275 124.563 43.7275C125.63 43.7275 126.465 44.0146 127.068 44.5889C127.678 45.1572 127.982 45.9219 127.982 46.8828ZM123.755 51.4707C124.077 51.4707 124.394 51.3975 124.704 51.251C125.021 51.0986 125.255 50.9492 125.407 50.8027L125.645 50.5742V48.5C125.562 48.5117 125.454 48.5293 125.319 48.5527C125.185 48.5762 124.947 48.6436 124.607 48.7549C124.268 48.8604 123.969 48.9834 123.711 49.124C123.453 49.2588 123.216 49.4463 122.999 49.6865C122.782 49.9268 122.674 50.1904 122.674 50.4775C122.674 51.1396 123.034 51.4707 123.755 51.4707ZM135.093 50.75C135.093 50.4395 134.929 50.1582 134.601 49.9062C134.278 49.6543 133.889 49.4258 133.432 49.2207C132.98 49.0156 132.526 48.7959 132.069 48.5615C131.612 48.3271 131.22 48.0137 130.892 47.6211C130.569 47.2227 130.408 46.7656 130.408 46.25C130.408 45.5293 130.713 44.9287 131.322 44.4482C131.938 43.9678 132.805 43.7275 133.924 43.7275C134.404 43.7275 134.867 43.7744 135.312 43.8682C135.764 43.9561 136.098 44.0469 136.314 44.1406L136.622 44.2725V46.6104H135.884C135.726 45.292 135.102 44.6328 134.012 44.6328C133.625 44.6328 133.303 44.7412 133.045 44.958C132.787 45.1689 132.658 45.4209 132.658 45.7139C132.658 46.0713 132.819 46.376 133.142 46.6279C133.47 46.8799 133.862 47.0967 134.319 47.2783C134.776 47.4541 135.23 47.6475 135.682 47.8584C136.139 48.0693 136.528 48.374 136.851 48.7725C137.179 49.165 137.343 49.6455 137.343 50.2139C137.343 51.0635 137 51.7695 136.314 52.332C135.629 52.8945 134.683 53.1758 133.476 53.1758C132.866 53.1758 132.28 53.1172 131.718 53C131.161 52.8828 130.763 52.7627 130.522 52.6396L130.145 52.4639V49.7568H130.865C131 50.5713 131.284 51.1953 131.718 51.6289C132.157 52.0625 132.711 52.2793 133.379 52.2793C133.859 52.2793 134.264 52.127 134.592 51.8223C134.926 51.5176 135.093 51.1602 135.093 50.75ZM148.681 50.75C148.681 50.4395 148.517 50.1582 148.188 49.9062C147.866 49.6543 147.477 49.4258 147.02 49.2207C146.568 49.0156 146.114 48.7959 145.657 48.5615C145.2 48.3271 144.808 48.0137 144.479 47.6211C144.157 47.2227 143.996 46.7656 143.996 46.25C143.996 45.5293 144.301 44.9287 144.91 44.4482C145.525 43.9678 146.393 43.7275 147.512 43.7275C147.992 43.7275 148.455 43.7744 148.9 43.8682C149.352 43.9561 149.686 44.0469 149.902 44.1406L150.21 44.2725V46.6104H149.472C149.313 45.292 148.689 44.6328 147.6 44.6328C147.213 44.6328 146.891 44.7412 146.633 44.958C146.375 45.1689 146.246 45.4209 146.246 45.7139C146.246 46.0713 146.407 46.376 146.729 46.6279C147.058 46.8799 147.45 47.0967 147.907 47.2783C148.364 47.4541 148.818 47.6475 149.27 47.8584C149.727 48.0693 150.116 48.374 150.438 48.7725C150.767 49.165 150.931 49.6455 150.931 50.2139C150.931 51.0635 150.588 51.7695 149.902 52.332C149.217 52.8945 148.271 53.1758 147.063 53.1758C146.454 53.1758 145.868 53.1172 145.306 53C144.749 52.8828 144.351 52.7627 144.11 52.6396L143.732 52.4639V49.7568H144.453C144.588 50.5713 144.872 51.1953 145.306 51.6289C145.745 52.0625 146.299 52.2793 146.967 52.2793C147.447 52.2793 147.852 52.127 148.18 51.8223C148.514 51.5176 148.681 51.1602 148.681 50.75ZM156.775 44.7207C156.295 44.7207 155.876 44.9404 155.519 45.3799C155.167 45.8135 154.927 46.4639 154.798 47.3311L158.217 47.0586C158.217 45.5 157.736 44.7207 156.775 44.7207ZM156.951 43.7275C158.082 43.7275 158.967 44.0557 159.605 44.7119C160.25 45.3682 160.596 46.2998 160.643 47.5068L159.746 48.2275H154.701V48.3242C154.701 49.2969 154.974 50.0791 155.519 50.6709C156.069 51.2627 156.758 51.5586 157.584 51.5586C158.088 51.5586 158.565 51.4941 159.017 51.3652C159.468 51.2305 159.787 51.0928 159.975 50.9521L160.282 50.75L160.643 51.1104C160.607 51.1689 160.555 51.2451 160.484 51.3389C160.414 51.4268 160.256 51.5908 160.01 51.8311C159.764 52.0713 159.497 52.2822 159.21 52.4639C158.929 52.6396 158.56 52.8037 158.103 52.9561C157.651 53.1025 157.18 53.1758 156.688 53.1758C155.416 53.1758 154.361 52.748 153.523 51.8926C152.691 51.0371 152.275 49.9385 152.275 48.5967C152.275 47.249 152.735 46.1006 153.655 45.1514C154.581 44.2021 155.68 43.7275 156.951 43.7275ZM176.577 47.4189V50.8379C176.577 51.459 176.659 51.8691 176.823 52.0684C176.993 52.2676 177.33 52.3672 177.834 52.3672V53H173.158V52.3672L174.239 52.1035V47.4189C174.239 46.7568 174.093 46.2617 173.8 45.9336C173.513 45.6055 173.117 45.4414 172.613 45.4414C172.314 45.4414 172.016 45.5088 171.717 45.6436C171.418 45.7725 171.189 45.9072 171.031 46.0479L170.812 46.25C170.87 46.4902 170.902 46.8799 170.908 47.4189V50.8379C170.908 51.459 170.987 51.8691 171.146 52.0684C171.31 52.2676 171.62 52.3672 172.077 52.3672V53H167.489V52.3672L168.562 52.1035V47.4189C168.562 46.7568 168.418 46.2617 168.131 45.9336C167.844 45.6055 167.448 45.4414 166.944 45.4414C166.681 45.4414 166.405 45.5088 166.118 45.6436C165.831 45.7725 165.608 45.9072 165.45 46.0479L165.239 46.25V50.8379C165.239 51.459 165.318 51.8691 165.477 52.0684C165.641 52.2676 165.951 52.3672 166.408 52.3672V53H161.636V52.3672L162.893 52.1035V46.6104C162.893 45.9482 162.799 45.4971 162.611 45.2568C162.43 45.0166 162.104 44.8965 161.636 44.8965V44.2725C162.163 44.2256 162.696 44.1582 163.235 44.0703C163.774 43.9766 164.182 43.8945 164.457 43.8242L164.879 43.7275L165.055 45.2568H165.143C165.178 45.2217 165.225 45.1689 165.283 45.0986C165.348 45.0283 165.479 44.9053 165.679 44.7295C165.878 44.5537 166.083 44.3984 166.294 44.2637C166.511 44.123 166.783 44 167.111 43.8945C167.445 43.7832 167.779 43.7275 168.113 43.7275C168.453 43.7275 168.767 43.7832 169.054 43.8945C169.341 44 169.572 44.1289 169.748 44.2812C169.93 44.4277 170.082 44.5742 170.205 44.7207C170.334 44.8613 170.425 44.9873 170.478 45.0986L170.548 45.2568H170.636C170.671 45.2217 170.718 45.1689 170.776 45.0986C170.841 45.0283 170.973 44.9053 171.172 44.7295C171.377 44.5537 171.594 44.3984 171.822 44.2637C172.051 44.123 172.341 44 172.692 43.8945C173.05 43.7832 173.413 43.7275 173.782 43.7275C174.632 43.7275 175.309 44.041 175.812 44.668C176.322 45.2891 176.577 46.2061 176.577 47.4189ZM191.062 48.5879C191.062 47.2812 190.827 46.2969 190.358 45.6348C189.89 44.9668 189.312 44.6328 188.627 44.6328C188.029 44.6328 187.505 44.9551 187.054 45.5996C186.603 46.2383 186.377 47.1465 186.377 48.3242C186.377 49.6309 186.611 50.6182 187.08 51.2861C187.549 51.9482 188.126 52.2793 188.812 52.2793C189.409 52.2793 189.934 51.96 190.385 51.3213C190.836 50.6768 191.062 49.7656 191.062 48.5879ZM193.487 48.4121C193.487 49.7656 193.019 50.8994 192.081 51.8135C191.149 52.7217 189.969 53.1758 188.539 53.1758C187.186 53.1758 186.081 52.7451 185.226 51.8838C184.376 51.0225 183.951 49.8945 183.951 48.5C183.951 47.1465 184.417 46.0127 185.349 45.0986C186.286 44.1846 187.47 43.7275 188.899 43.7275C190.253 43.7275 191.354 44.1611 192.204 45.0283C193.06 45.8896 193.487 47.0176 193.487 48.4121ZM195.931 52.1035V44.9932H194.577V44.1758L195.931 43.9121V41.3896C195.931 39.292 197.009 38.2432 199.165 38.2432C199.646 38.2432 200.155 38.3193 200.694 38.4717C201.233 38.6182 201.655 38.7676 201.96 38.9199L202.408 39.1396V41.5742H201.143L200.334 39.5C200.094 39.3828 199.824 39.3242 199.525 39.3242C198.688 39.3242 198.269 40.042 198.269 41.4775V43.9121H200.967V45.1689H200.158L198.269 44.8086V50.8379C198.269 51.4238 198.392 51.8252 198.638 52.042C198.884 52.2588 199.361 52.3672 200.07 52.3672V53H194.665V52.3672L195.931 52.1035ZM206.17 44.7207C205.689 44.7207 205.271 44.9404 204.913 45.3799C204.562 45.8135 204.321 46.4639 204.192 47.3311L207.611 47.0586C207.611 45.5 207.131 44.7207 206.17 44.7207ZM206.346 43.7275C207.477 43.7275 208.361 44.0557 209 44.7119C209.645 45.3682 209.99 46.2998 210.037 47.5068L209.141 48.2275H204.096V48.3242C204.096 49.2969 204.368 50.0791 204.913 50.6709C205.464 51.2627 206.152 51.5586 206.979 51.5586C207.482 51.5586 207.96 51.4941 208.411 51.3652C208.862 51.2305 209.182 51.0928 209.369 50.9521L209.677 50.75L210.037 51.1104C210.002 51.1689 209.949 51.2451 209.879 51.3389C209.809 51.4268 209.65 51.5908 209.404 51.8311C209.158 52.0713 208.892 52.2822 208.604 52.4639C208.323 52.6396 207.954 52.8037 207.497 52.9561C207.046 53.1025 206.574 53.1758 206.082 53.1758C204.811 53.1758 203.756 52.748 202.918 51.8926C202.086 51.0371 201.67 49.9385 201.67 48.5967C201.67 47.249 202.13 46.1006 203.05 45.1514C203.976 44.2021 205.074 43.7275 206.346 43.7275ZM220.663 47.3311V50.8379C220.663 51.459 220.745 51.8691 220.909 52.0684C221.079 52.2676 221.416 52.3672 221.92 52.3672V53H217.06V52.3672L218.316 52.1035V47.4189C218.316 46.71 218.182 46.2031 217.912 45.8984C217.643 45.5938 217.209 45.4414 216.611 45.4414C216.289 45.4414 215.961 45.5176 215.627 45.6699C215.299 45.8164 215.05 45.9688 214.88 46.127L214.634 46.3379V50.8379C214.634 51.459 214.716 51.8691 214.88 52.0684C215.05 52.2676 215.387 52.3672 215.891 52.3672V53H211.03V52.3672L212.287 52.1035V46.6104C212.287 45.9482 212.193 45.4971 212.006 45.2568C211.824 45.0166 211.499 44.8965 211.03 44.8965V44.2725C211.558 44.2256 212.091 44.1582 212.63 44.0703C213.169 43.9766 213.576 43.8945 213.852 43.8242L214.273 43.7275L214.449 45.4414H214.537C214.572 45.3945 214.622 45.333 214.687 45.2568C214.757 45.1748 214.9 45.0371 215.117 44.8438C215.334 44.6504 215.56 44.4805 215.794 44.334C216.028 44.1816 216.324 44.0439 216.682 43.9209C217.039 43.792 217.405 43.7275 217.78 43.7275C218.671 43.7275 219.374 44.0352 219.89 44.6504C220.405 45.2598 220.663 46.1533 220.663 47.3311ZM227.853 43.7275C228.093 43.7275 228.333 43.751 228.573 43.7979C228.813 43.8389 228.992 43.8828 229.109 43.9297L229.294 44V41.3896C229.294 40.7275 229.2 40.2764 229.013 40.0361C228.825 39.7959 228.5 39.6758 228.037 39.6758V39.0518C228.6 39.0049 229.18 38.9287 229.777 38.8232C230.381 38.7119 230.838 38.6123 231.148 38.5244L231.632 38.4189V50.3018C231.632 50.9639 231.726 51.415 231.913 51.6553C232.101 51.8896 232.429 52.0068 232.897 52.0068V52.6396C232.37 52.6865 231.834 52.7568 231.289 52.8506C230.75 52.9385 230.343 53.0117 230.067 53.0703L229.654 53.1758L229.47 51.4707H229.382C229.347 51.5176 229.3 51.582 229.241 51.6641C229.183 51.7402 229.048 51.875 228.837 52.0684C228.626 52.2559 228.406 52.4258 228.178 52.5781C227.949 52.7246 227.665 52.8623 227.325 52.9912C226.991 53.1143 226.657 53.1758 226.323 53.1758C225.386 53.1758 224.58 52.7803 223.906 51.9893C223.238 51.1982 222.904 50.1553 222.904 48.8604C222.904 47.29 223.355 46.042 224.258 45.1162C225.166 44.1904 226.364 43.7275 227.853 43.7275ZM227.58 44.7207C226.941 44.7207 226.405 45.0312 225.972 45.6523C225.544 46.2676 225.33 47.1875 225.33 48.4121C225.33 50.4512 226.021 51.4707 227.404 51.4707C227.727 51.4707 228.043 51.3975 228.354 51.251C228.67 51.0986 228.904 50.9434 229.057 50.7852L229.294 50.5479V45.4414C229.247 45.3945 229.177 45.3301 229.083 45.248C228.995 45.1602 228.802 45.0518 228.503 44.9229C228.21 44.7881 227.902 44.7207 227.58 44.7207ZM238.391 44.7207C237.91 44.7207 237.491 44.9404 237.134 45.3799C236.782 45.8135 236.542 46.4639 236.413 47.3311L239.832 47.0586C239.832 45.5 239.352 44.7207 238.391 44.7207ZM238.566 43.7275C239.697 43.7275 240.582 44.0557 241.221 44.7119C241.865 45.3682 242.211 46.2998 242.258 47.5068L241.361 48.2275H236.316V48.3242C236.316 49.2969 236.589 50.0791 237.134 50.6709C237.685 51.2627 238.373 51.5586 239.199 51.5586C239.703 51.5586 240.181 51.4941 240.632 51.3652C241.083 51.2305 241.402 51.0928 241.59 50.9521L241.897 50.75L242.258 51.1104C242.223 51.1689 242.17 51.2451 242.1 51.3389C242.029 51.4268 241.871 51.5908 241.625 51.8311C241.379 52.0713 241.112 52.2822 240.825 52.4639C240.544 52.6396 240.175 52.8037 239.718 52.9561C239.267 53.1025 238.795 53.1758 238.303 53.1758C237.031 53.1758 235.977 52.748 235.139 51.8926C234.307 51.0371 233.891 49.9385 233.891 48.5967C233.891 47.249 234.351 46.1006 235.271 45.1514C236.196 44.2021 237.295 43.7275 238.566 43.7275ZM246.854 46.4258V50.8379C246.854 51.4238 246.966 51.8252 247.188 52.042C247.417 52.2588 247.845 52.3672 248.472 52.3672V53H243.251V52.3672L244.508 52.1035V46.6104C244.508 45.9482 244.414 45.4971 244.227 45.2568C244.045 45.0166 243.72 44.8965 243.251 44.8965V44.2725C243.778 44.2256 244.312 44.1582 244.851 44.0703C245.39 43.9766 245.797 43.8945 246.072 43.8242L246.494 43.7275L246.67 45.4414H246.758C246.793 45.3945 246.84 45.333 246.898 45.2568C246.963 45.1748 247.101 45.0371 247.312 44.8438C247.522 44.6504 247.733 44.4805 247.944 44.334C248.161 44.1816 248.431 44.0439 248.753 43.9209C249.081 43.792 249.406 43.7275 249.729 43.7275C249.969 43.7275 250.203 43.751 250.432 43.7979C250.66 43.8389 250.821 43.8828 250.915 43.9297L251.082 44V47.0586H249.913L249.28 45.2568C248.847 45.2568 248.428 45.3535 248.023 45.5469C247.625 45.7402 247.329 45.9336 247.136 46.127L246.854 46.4258ZM16.2207 67.7207C15.7402 67.7207 15.3213 67.9404 14.9639 68.3799C14.6123 68.8135 14.3721 69.4639 14.2432 70.3311L17.6621 70.0586C17.6621 68.5 17.1816 67.7207 16.2207 67.7207ZM16.3965 66.7275C17.5273 66.7275 18.4121 67.0557 19.0508 67.7119C19.6953 68.3682 20.041 69.2998 20.0879 70.5068L19.1914 71.2275H14.1465V71.3242C14.1465 72.2969 14.4189 73.0791 14.9639 73.6709C15.5146 74.2627 16.2031 74.5586 17.0293 74.5586C17.5332 74.5586 18.0107 74.4941 18.4619 74.3652C18.9131 74.2305 19.2324 74.0928 19.4199 73.9521L19.7275 73.75L20.0879 74.1104C20.0527 74.1689 20 74.2451 19.9297 74.3389C19.8594 74.4268 19.7012 74.5908 19.4551 74.8311C19.209 75.0713 18.9424 75.2822 18.6553 75.4639C18.374 75.6396 18.0049 75.8037 17.5479 75.9561C17.0967 76.1025 16.625 76.1758 16.1328 76.1758C14.8613 76.1758 13.8066 75.748 12.9688 74.8926C12.1367 74.0371 11.7207 72.9385 11.7207 71.5967C11.7207 70.249 12.1807 69.1006 13.1006 68.1514C14.0264 67.2021 15.125 66.7275 16.3965 66.7275ZM21.9775 80.1396H20.7207L26.4775 60.6982H27.7432L21.9775 80.1396ZM35.5654 71.5879C35.5654 70.2812 35.3311 69.2969 34.8623 68.6348C34.3936 67.9668 33.8164 67.6328 33.1309 67.6328C32.5332 67.6328 32.0088 67.9551 31.5576 68.5996C31.1064 69.2383 30.8809 70.1465 30.8809 71.3242C30.8809 72.6309 31.1152 73.6182 31.584 74.2861C32.0527 74.9482 32.6299 75.2793 33.3154 75.2793C33.9131 75.2793 34.4375 74.96 34.8887 74.3213C35.3398 73.6768 35.5654 72.7656 35.5654 71.5879ZM37.9912 71.4121C37.9912 72.7656 37.5225 73.8994 36.585 74.8135C35.6533 75.7217 34.4727 76.1758 33.043 76.1758C31.6895 76.1758 30.585 75.7451 29.7295 74.8838C28.8799 74.0225 28.4551 72.8945 28.4551 71.5C28.4551 70.1465 28.9209 69.0127 29.8525 68.0986C30.79 67.1846 31.9736 66.7275 33.4033 66.7275C34.7568 66.7275 35.8584 67.1611 36.708 68.0283C37.5635 68.8896 37.9912 70.0176 37.9912 71.4121ZM48.6172 73.3018C48.6172 73.9639 48.7109 74.415 48.8984 74.6553C49.0859 74.8896 49.4141 75.0068 49.8828 75.0068V75.6396C49.3555 75.6865 48.8193 75.7568 48.2744 75.8506C47.7354 75.9385 47.3281 76.0117 47.0527 76.0703L46.6396 76.1758L46.4639 74.4707H46.3672C46.332 74.5176 46.2822 74.582 46.2178 74.6641C46.1533 74.7402 46.0127 74.875 45.7959 75.0684C45.5791 75.2559 45.3535 75.4258 45.1191 75.5781C44.8848 75.7246 44.5859 75.8623 44.2227 75.9912C43.8652 76.1143 43.502 76.1758 43.1328 76.1758C42.2422 76.1758 41.5391 75.8711 41.0234 75.2617C40.5078 74.6523 40.25 73.7588 40.25 72.5811V69.6104C40.25 68.9482 40.1562 68.4971 39.9688 68.2568C39.7871 68.0166 39.4619 67.8965 38.9932 67.8965V67.2725C39.5557 67.2256 40.1357 67.1494 40.7334 67.0439C41.3369 66.9326 41.7939 66.833 42.1045 66.7451L42.5879 66.6396V72.4932C42.5879 73.2021 42.7227 73.709 42.9922 74.0137C43.2617 74.3184 43.6982 74.4707 44.3018 74.4707C44.624 74.4707 44.9492 74.3975 45.2773 74.251C45.6113 74.0986 45.8604 73.9492 46.0244 73.8027L46.2793 73.5742V69.6104C46.2793 68.9482 46.1855 68.4971 45.998 68.2568C45.8164 68.0166 45.4912 67.8965 45.0225 67.8965V67.2725C45.585 67.2256 46.165 67.1494 46.7627 67.0439C47.3662 66.9326 47.8291 66.833 48.1514 66.7451L48.6172 66.6396V73.3018ZM70.5811 70.4189V73.8379C70.5811 74.459 70.6631 74.8691 70.8271 75.0684C70.9971 75.2676 71.334 75.3672 71.8379 75.3672V76H67.1621V75.3672L68.2432 75.1035V70.4189C68.2432 69.7568 68.0967 69.2617 67.8037 68.9336C67.5166 68.6055 67.1211 68.4414 66.6172 68.4414C66.3184 68.4414 66.0195 68.5088 65.7207 68.6436C65.4219 68.7725 65.1934 68.9072 65.0352 69.0479L64.8154 69.25C64.874 69.4902 64.9062 69.8799 64.9121 70.4189V73.8379C64.9121 74.459 64.9912 74.8691 65.1494 75.0684C65.3135 75.2676 65.624 75.3672 66.0811 75.3672V76H61.4932V75.3672L62.5654 75.1035V70.4189C62.5654 69.7568 62.4219 69.2617 62.1348 68.9336C61.8477 68.6055 61.4521 68.4414 60.9482 68.4414C60.6846 68.4414 60.4092 68.5088 60.1221 68.6436C59.835 68.7725 59.6123 68.9072 59.4541 69.0479L59.2432 69.25V73.8379C59.2432 74.459 59.3223 74.8691 59.4805 75.0684C59.6445 75.2676 59.9551 75.3672 60.4121 75.3672V76H55.6396V75.3672L56.8965 75.1035V69.6104C56.8965 68.9482 56.8027 68.4971 56.6152 68.2568C56.4336 68.0166 56.1084 67.8965 55.6396 67.8965V67.2725C56.167 67.2256 56.7002 67.1582 57.2393 67.0703C57.7783 66.9766 58.1855 66.8945 58.4609 66.8242L58.8828 66.7275L59.0586 68.2568H59.1465C59.1816 68.2217 59.2285 68.1689 59.2871 68.0986C59.3516 68.0283 59.4834 67.9053 59.6826 67.7295C59.8818 67.5537 60.0869 67.3984 60.2979 67.2637C60.5146 67.123 60.7871 67 61.1152 66.8945C61.4492 66.7832 61.7832 66.7275 62.1172 66.7275C62.457 66.7275 62.7705 66.7832 63.0576 66.8945C63.3447 67 63.5762 67.1289 63.752 67.2812C63.9336 67.4277 64.0859 67.5742 64.209 67.7207C64.3379 67.8613 64.4287 67.9873 64.4814 68.0986L64.5518 68.2568H64.6396C64.6748 68.2217 64.7217 68.1689 64.7803 68.0986C64.8447 68.0283 64.9766 67.9053 65.1758 67.7295C65.3809 67.5537 65.5977 67.3984 65.8262 67.2637C66.0547 67.123 66.3447 67 66.6963 66.8945C67.0537 66.7832 67.417 66.7275 67.7861 66.7275C68.6357 66.7275 69.3125 67.041 69.8164 67.668C70.3262 68.2891 70.5811 69.2061 70.5811 70.4189ZM80.3809 69.8828V73.3018C80.3809 73.9639 80.4746 74.415 80.6621 74.6553C80.8496 74.8896 81.1748 75.0068 81.6377 75.0068V75.6396C81.1104 75.6865 80.5771 75.7568 80.0381 75.8506C79.499 75.9385 79.0918 76.0117 78.8164 76.0703L78.4033 76.1758L78.2188 74.4707H78.1309C78.0957 74.5176 78.0459 74.582 77.9814 74.6641C77.9229 74.7402 77.7939 74.875 77.5947 75.0684C77.4014 75.2559 77.1934 75.4258 76.9707 75.5781C76.748 75.7246 76.4609 75.8623 76.1094 75.9912C75.7637 76.1143 75.418 76.1758 75.0723 76.1758C74.3281 76.1758 73.7363 75.9824 73.2969 75.5957C72.8574 75.2031 72.6377 74.708 72.6377 74.1104C72.6377 73.5947 72.8223 73.1201 73.1914 72.6865C73.5664 72.2529 74.0176 71.9131 74.5449 71.667C75.0781 71.4209 75.6084 71.2129 76.1357 71.043C76.6631 70.8672 77.1113 70.75 77.4805 70.6914L78.043 70.6035V70.0586C78.043 68.5 77.4717 67.7207 76.3291 67.7207C76.1357 67.7207 75.9424 67.7441 75.749 67.791C75.5615 67.8379 75.415 67.8848 75.3096 67.9316L75.1602 67.9932L74.5273 69.9707H73.2705V67.6328C73.3877 67.5625 73.5547 67.4805 73.7715 67.3867C73.9883 67.2871 74.4219 67.1523 75.0723 66.9824C75.7227 66.8125 76.3525 66.7275 76.9619 66.7275C78.0283 66.7275 78.8633 67.0146 79.4668 67.5889C80.0762 68.1572 80.3809 68.9219 80.3809 69.8828ZM76.1533 74.4707C76.4756 74.4707 76.792 74.3975 77.1025 74.251C77.4189 74.0986 77.6533 73.9492 77.8057 73.8027L78.043 73.5742V71.5C77.9609 71.5117 77.8525 71.5293 77.7178 71.5527C77.583 71.5762 77.3457 71.6436 77.0059 71.7549C76.666 71.8604 76.3672 71.9834 76.1094 72.124C75.8516 72.2588 75.6143 72.4463 75.3975 72.6865C75.1807 72.9268 75.0723 73.1904 75.0723 73.4775C75.0723 74.1396 75.4326 74.4707 76.1533 74.4707ZM86.5859 66.7275C86.9844 66.7275 87.3564 66.7686 87.7021 66.8506C88.0537 66.9268 88.2998 67 88.4404 67.0703L88.6602 67.1758L92.167 66.5518V68.7139H91.6309L89.8994 67.8965L89.4688 67.5361L89.3809 67.6328C89.4512 67.6914 89.5332 67.7822 89.627 67.9053C89.7266 68.0225 89.8584 68.2686 90.0225 68.6436C90.1924 69.0127 90.2773 69.3936 90.2773 69.7861C90.2773 70.6768 89.9463 71.4121 89.2842 71.9922C88.6279 72.5664 87.7285 72.8535 86.5859 72.8535L85.6895 72.7568C85.209 73.126 84.9688 73.4863 84.9688 73.8379C84.9688 74.0781 85.0332 74.2451 85.1621 74.3389C85.2969 74.4268 85.5635 74.4707 85.9619 74.4707H88.3877C89.3486 74.4707 90.0693 74.667 90.5498 75.0596C91.0303 75.4463 91.2705 75.9707 91.2705 76.6328C91.2705 77.6523 90.793 78.5225 89.8379 79.2432C88.8828 79.9639 87.5293 80.3242 85.7773 80.3242C83.3164 80.3242 82.0859 79.6914 82.0859 78.4258C82.0859 78.0273 82.2646 77.6348 82.6221 77.248C82.9854 76.8613 83.3486 76.5713 83.7119 76.3779L84.248 76.0879V76C83.6855 76 83.29 75.9209 83.0615 75.7627C82.833 75.5986 82.7188 75.3467 82.7188 75.0068C82.7188 74.6611 82.9062 74.2891 83.2812 73.8906C83.6621 73.4863 84.04 73.1699 84.415 72.9414L84.9688 72.5811C84.9102 72.5693 84.834 72.543 84.7402 72.502C84.6523 72.4551 84.4883 72.3584 84.248 72.2119C84.0078 72.0596 83.7969 71.8926 83.6152 71.7109C83.4395 71.5234 83.2754 71.2598 83.123 70.9199C82.9766 70.5742 82.9033 70.1963 82.9033 69.7861C82.9033 68.8955 83.2314 68.1631 83.8877 67.5889C84.5439 67.0146 85.4434 66.7275 86.5859 66.7275ZM87.667 76.0879H85.1533C84.5557 76.627 84.2539 77.1689 84.248 77.7139C84.248 78.1826 84.4297 78.5693 84.793 78.874C85.1621 79.1787 85.6719 79.3311 86.3223 79.3311C87.1016 79.3311 87.7314 79.126 88.2119 78.7158C88.6924 78.3115 88.9326 77.8252 88.9326 77.2568C88.9326 76.8467 88.833 76.5479 88.6338 76.3604C88.4346 76.1787 88.1123 76.0879 87.667 76.0879ZM87.9395 69.8828C87.9395 69.1621 87.8135 68.623 87.5615 68.2656C87.3096 67.9023 86.9844 67.7207 86.5859 67.7207C86.1992 67.7207 85.877 67.8936 85.6191 68.2393C85.3672 68.5791 85.2412 69.0654 85.2412 69.6982C85.2412 70.4189 85.3672 70.9609 85.6191 71.3242C85.8711 71.6816 86.1934 71.8604 86.5859 71.8604C86.9727 71.8604 87.2949 71.6904 87.5527 71.3506C87.8105 71.0107 87.9395 70.5215 87.9395 69.8828ZM99.8135 71.5879C99.8135 70.2812 99.5791 69.2969 99.1104 68.6348C98.6416 67.9668 98.0645 67.6328 97.3789 67.6328C96.7812 67.6328 96.2568 67.9551 95.8057 68.5996C95.3545 69.2383 95.1289 70.1465 95.1289 71.3242C95.1289 72.6309 95.3633 73.6182 95.832 74.2861C96.3008 74.9482 96.8779 75.2793 97.5635 75.2793C98.1611 75.2793 98.6855 74.96 99.1367 74.3213C99.5879 73.6768 99.8135 72.7656 99.8135 71.5879ZM102.239 71.4121C102.239 72.7656 101.771 73.8994 100.833 74.8135C99.9014 75.7217 98.7207 76.1758 97.291 76.1758C95.9375 76.1758 94.833 75.7451 93.9775 74.8838C93.1279 74.0225 92.7031 72.8945 92.7031 71.5C92.7031 70.1465 93.1689 69.0127 94.1006 68.0986C95.0381 67.1846 96.2217 66.7275 97.6514 66.7275C99.0049 66.7275 100.106 67.1611 100.956 68.0283C101.812 68.8896 102.239 70.0176 102.239 71.4121ZM111.248 69.8828V73.3018C111.248 73.9639 111.342 74.415 111.529 74.6553C111.717 74.8896 112.042 75.0068 112.505 75.0068V75.6396C111.978 75.6865 111.444 75.7568 110.905 75.8506C110.366 75.9385 109.959 76.0117 109.684 76.0703L109.271 76.1758L109.086 74.4707H108.998C108.963 74.5176 108.913 74.582 108.849 74.6641C108.79 74.7402 108.661 74.875 108.462 75.0684C108.269 75.2559 108.061 75.4258 107.838 75.5781C107.615 75.7246 107.328 75.8623 106.977 75.9912C106.631 76.1143 106.285 76.1758 105.939 76.1758C105.195 76.1758 104.604 75.9824 104.164 75.5957C103.725 75.2031 103.505 74.708 103.505 74.1104C103.505 73.5947 103.689 73.1201 104.059 72.6865C104.434 72.2529 104.885 71.9131 105.412 71.667C105.945 71.4209 106.476 71.2129 107.003 71.043C107.53 70.8672 107.979 70.75 108.348 70.6914L108.91 70.6035V70.0586C108.91 68.5 108.339 67.7207 107.196 67.7207C107.003 67.7207 106.81 67.7441 106.616 67.791C106.429 67.8379 106.282 67.8848 106.177 67.9316L106.027 67.9932L105.395 69.9707H104.138V67.6328C104.255 67.5625 104.422 67.4805 104.639 67.3867C104.855 67.2871 105.289 67.1523 105.939 66.9824C106.59 66.8125 107.22 66.7275 107.829 66.7275C108.896 66.7275 109.73 67.0146 110.334 67.5889C110.943 68.1572 111.248 68.9219 111.248 69.8828ZM107.021 74.4707C107.343 74.4707 107.659 74.3975 107.97 74.251C108.286 74.0986 108.521 73.9492 108.673 73.8027L108.91 73.5742V71.5C108.828 71.5117 108.72 71.5293 108.585 71.5527C108.45 71.5762 108.213 71.6436 107.873 71.7549C107.533 71.8604 107.234 71.9834 106.977 72.124C106.719 72.2588 106.481 72.4463 106.265 72.6865C106.048 72.9268 105.939 73.1904 105.939 73.4775C105.939 74.1396 106.3 74.4707 107.021 74.4707ZM116.741 69.4258V73.8379C116.741 74.4238 116.853 74.8252 117.075 75.042C117.304 75.2588 117.731 75.3672 118.358 75.3672V76H113.138V75.3672L114.395 75.1035V69.6104C114.395 68.9482 114.301 68.4971 114.113 68.2568C113.932 68.0166 113.606 67.8965 113.138 67.8965V67.2725C113.665 67.2256 114.198 67.1582 114.737 67.0703C115.276 66.9766 115.684 66.8945 115.959 66.8242L116.381 66.7275L116.557 68.4414H116.645C116.68 68.3945 116.727 68.333 116.785 68.2568C116.85 68.1748 116.987 68.0371 117.198 67.8438C117.409 67.6504 117.62 67.4805 117.831 67.334C118.048 67.1816 118.317 67.0439 118.64 66.9209C118.968 66.792 119.293 66.7275 119.615 66.7275C119.855 66.7275 120.09 66.751 120.318 66.7979C120.547 66.8389 120.708 66.8828 120.802 66.9297L120.969 67V70.0586H119.8L119.167 68.2568C118.733 68.2568 118.314 68.3535 117.91 68.5469C117.512 68.7402 117.216 68.9336 117.022 69.127L116.741 69.4258ZM132.122 71.1396L134.1 73.9258C134.521 74.5117 134.853 74.8984 135.093 75.0859C135.333 75.2734 135.661 75.3672 136.077 75.3672V76H131.129V75.3672L132.21 75.1035L130.408 72.4932L129.151 74.0225C128.911 74.3213 128.791 74.5908 128.791 74.8311C128.791 74.9775 128.864 75.1035 129.011 75.209C129.163 75.3145 129.389 75.3672 129.688 75.3672V76H125.82V75.3672L126.989 75.1035L129.784 71.5879L127.895 68.9775C127.484 68.415 127.153 68.0342 126.901 67.835C126.649 67.6357 126.348 67.5361 125.996 67.5361V66.9121H130.769V67.5361L129.688 67.8086L131.401 70.2432L132.57 68.8018C132.811 68.5029 132.931 68.2627 132.931 68.0811C132.931 67.9346 132.854 67.8086 132.702 67.7031C132.556 67.5918 132.333 67.5361 132.034 67.5361V66.9121H135.813V67.5361L134.645 67.8086L132.122 71.1396ZM141.667 73.75C141.667 73.4395 141.503 73.1582 141.175 72.9062C140.853 72.6543 140.463 72.4258 140.006 72.2207C139.555 72.0156 139.101 71.7959 138.644 71.5615C138.187 71.3271 137.794 71.0137 137.466 70.6211C137.144 70.2227 136.982 69.7656 136.982 69.25C136.982 68.5293 137.287 67.9287 137.896 67.4482C138.512 66.9678 139.379 66.7275 140.498 66.7275C140.979 66.7275 141.441 66.7744 141.887 66.8682C142.338 66.9561 142.672 67.0469 142.889 67.1406L143.196 67.2725V69.6104H142.458C142.3 68.292 141.676 67.6328 140.586 67.6328C140.199 67.6328 139.877 67.7412 139.619 67.958C139.361 68.1689 139.232 68.4209 139.232 68.7139C139.232 69.0713 139.394 69.376 139.716 69.6279C140.044 69.8799 140.437 70.0967 140.894 70.2783C141.351 70.4541 141.805 70.6475 142.256 70.8584C142.713 71.0693 143.103 71.374 143.425 71.7725C143.753 72.165 143.917 72.6455 143.917 73.2139C143.917 74.0635 143.574 74.7695 142.889 75.332C142.203 75.8945 141.257 76.1758 140.05 76.1758C139.44 76.1758 138.854 76.1172 138.292 76C137.735 75.8828 137.337 75.7627 137.097 75.6396L136.719 75.4639V72.7568H137.439C137.574 73.5713 137.858 74.1953 138.292 74.6289C138.731 75.0625 139.285 75.2793 139.953 75.2793C140.434 75.2793 140.838 75.127 141.166 74.8223C141.5 74.5176 141.667 74.1602 141.667 73.75ZM157.505 71.5879C157.505 70.2812 157.271 69.2969 156.802 68.6348C156.333 67.9668 155.756 67.6328 155.07 67.6328C154.473 67.6328 153.948 67.9551 153.497 68.5996C153.046 69.2383 152.82 70.1465 152.82 71.3242C152.82 72.6309 153.055 73.6182 153.523 74.2861C153.992 74.9482 154.569 75.2793 155.255 75.2793C155.853 75.2793 156.377 74.96 156.828 74.3213C157.279 73.6768 157.505 72.7656 157.505 71.5879ZM159.931 71.4121C159.931 72.7656 159.462 73.8994 158.524 74.8135C157.593 75.7217 156.412 76.1758 154.982 76.1758C153.629 76.1758 152.524 75.7451 151.669 74.8838C150.819 74.0225 150.395 72.8945 150.395 71.5C150.395 70.1465 150.86 69.0127 151.792 68.0986C152.729 67.1846 153.913 66.7275 155.343 66.7275C156.696 66.7275 157.798 67.1611 158.647 68.0283C159.503 68.8896 159.931 70.0176 159.931 71.4121ZM170.557 73.3018C170.557 73.9639 170.65 74.415 170.838 74.6553C171.025 74.8896 171.354 75.0068 171.822 75.0068V75.6396C171.295 75.6865 170.759 75.7568 170.214 75.8506C169.675 75.9385 169.268 76.0117 168.992 76.0703L168.579 76.1758L168.403 74.4707H168.307C168.271 74.5176 168.222 74.582 168.157 74.6641C168.093 74.7402 167.952 74.875 167.735 75.0684C167.519 75.2559 167.293 75.4258 167.059 75.5781C166.824 75.7246 166.525 75.8623 166.162 75.9912C165.805 76.1143 165.441 76.1758 165.072 76.1758C164.182 76.1758 163.479 75.8711 162.963 75.2617C162.447 74.6523 162.189 73.7588 162.189 72.5811V69.6104C162.189 68.9482 162.096 68.4971 161.908 68.2568C161.727 68.0166 161.401 67.8965 160.933 67.8965V67.2725C161.495 67.2256 162.075 67.1494 162.673 67.0439C163.276 66.9326 163.733 66.833 164.044 66.7451L164.527 66.6396V72.4932C164.527 73.2021 164.662 73.709 164.932 74.0137C165.201 74.3184 165.638 74.4707 166.241 74.4707C166.563 74.4707 166.889 74.3975 167.217 74.251C167.551 74.0986 167.8 73.9492 167.964 73.8027L168.219 73.5742V69.6104C168.219 68.9482 168.125 68.4971 167.938 68.2568C167.756 68.0166 167.431 67.8965 166.962 67.8965V67.2725C167.524 67.2256 168.104 67.1494 168.702 67.0439C169.306 66.9326 169.769 66.833 170.091 66.7451L170.557 66.6396V73.3018ZM172.358 67.9932V67.1758L173.8 66.9121V64.3896L175.593 63.7568H176.138V66.9121H179.012V68.1689H178.027L176.138 67.8086V73.3896C176.138 74.2275 176.557 74.6465 177.395 74.6465C177.682 74.6465 177.96 74.6025 178.229 74.5146C178.499 74.4268 178.695 74.333 178.818 74.2334L179.012 74.1104L179.372 74.5586C179.337 74.6055 179.29 74.667 179.231 74.7432C179.173 74.8135 179.044 74.9424 178.845 75.1299C178.646 75.3115 178.438 75.4756 178.221 75.6221C178.01 75.7686 177.737 75.8975 177.403 76.0088C177.075 76.1201 176.744 76.1758 176.41 76.1758C174.67 76.1758 173.8 75.3086 173.8 73.5742V67.9932H172.358ZM183.521 69.4258V73.8379C183.521 74.4238 183.632 74.8252 183.854 75.042C184.083 75.2588 184.511 75.3672 185.138 75.3672V76H179.917V75.3672L181.174 75.1035V69.6104C181.174 68.9482 181.08 68.4971 180.893 68.2568C180.711 68.0166 180.386 67.8965 179.917 67.8965V67.2725C180.444 67.2256 180.978 67.1582 181.517 67.0703C182.056 66.9766 182.463 66.8945 182.738 66.8242L183.16 66.7275L183.336 68.4414H183.424C183.459 68.3945 183.506 68.333 183.564 68.2568C183.629 68.1748 183.767 68.0371 183.978 67.8438C184.188 67.6504 184.399 67.4805 184.61 67.334C184.827 67.1816 185.097 67.0439 185.419 66.9209C185.747 66.792 186.072 66.7275 186.395 66.7275C186.635 66.7275 186.869 66.751 187.098 66.7979C187.326 66.8389 187.487 66.8828 187.581 66.9297L187.748 67V70.0586H186.579L185.946 68.2568C185.513 68.2568 185.094 68.3535 184.689 68.5469C184.291 68.7402 183.995 68.9336 183.802 69.127L183.521 69.4258ZM194.313 71.1396L196.291 73.9258C196.713 74.5117 197.044 74.8984 197.284 75.0859C197.524 75.2734 197.853 75.3672 198.269 75.3672V76H193.32V75.3672L194.401 75.1035L192.6 72.4932L191.343 74.0225C191.103 74.3213 190.982 74.5908 190.982 74.8311C190.982 74.9775 191.056 75.1035 191.202 75.209C191.354 75.3145 191.58 75.3672 191.879 75.3672V76H188.012V75.3672L189.181 75.1035L191.976 71.5879L190.086 68.9775C189.676 68.415 189.345 68.0342 189.093 67.835C188.841 67.6357 188.539 67.5361 188.188 67.5361V66.9121H192.96V67.5361L191.879 67.8086L193.593 70.2432L194.762 68.8018C195.002 68.5029 195.122 68.2627 195.122 68.0811C195.122 67.9346 195.046 67.8086 194.894 67.7031C194.747 67.5918 194.524 67.5361 194.226 67.5361V66.9121H198.005V67.5361L196.836 67.8086L194.313 71.1396ZM203.858 73.75C203.858 73.4395 203.694 73.1582 203.366 72.9062C203.044 72.6543 202.654 72.4258 202.197 72.2207C201.746 72.0156 201.292 71.7959 200.835 71.5615C200.378 71.3271 199.985 71.0137 199.657 70.6211C199.335 70.2227 199.174 69.7656 199.174 69.25C199.174 68.5293 199.479 67.9287 200.088 67.4482C200.703 66.9678 201.57 66.7275 202.689 66.7275C203.17 66.7275 203.633 66.7744 204.078 66.8682C204.529 66.9561 204.863 67.0469 205.08 67.1406L205.388 67.2725V69.6104H204.649C204.491 68.292 203.867 67.6328 202.777 67.6328C202.391 67.6328 202.068 67.7412 201.811 67.958C201.553 68.1689 201.424 68.4209 201.424 68.7139C201.424 69.0713 201.585 69.376 201.907 69.6279C202.235 69.8799 202.628 70.0967 203.085 70.2783C203.542 70.4541 203.996 70.6475 204.447 70.8584C204.904 71.0693 205.294 71.374 205.616 71.7725C205.944 72.165 206.108 72.6455 206.108 73.2139C206.108 74.0635 205.766 74.7695 205.08 75.332C204.395 75.8945 203.448 76.1758 202.241 76.1758C201.632 76.1758 201.046 76.1172 200.483 76C199.927 75.8828 199.528 75.7627 199.288 75.6396L198.91 75.4639V72.7568H199.631C199.766 73.5713 200.05 74.1953 200.483 74.6289C200.923 75.0625 201.477 75.2793 202.145 75.2793C202.625 75.2793 203.029 75.127 203.357 74.8223C203.691 74.5176 203.858 74.1602 203.858 73.75ZM207.954 75.7627C207.679 75.4873 207.541 75.1475 207.541 74.7432C207.541 74.333 207.679 73.9902 207.954 73.7148C208.229 73.4395 208.572 73.3018 208.982 73.3018C209.393 73.3018 209.735 73.4395 210.011 73.7148C210.286 73.9902 210.424 74.333 210.424 74.7432C210.424 75.1475 210.286 75.4873 210.011 75.7627C209.735 76.0381 209.393 76.1758 208.982 76.1758C208.572 76.1758 208.229 76.0381 207.954 75.7627ZM13.7861 112.728C13.417 112.728 13.0361 112.684 12.6436 112.596C12.2568 112.508 11.9609 112.414 11.7559 112.314L11.4482 112.191V110.302H12.292L12.8018 111.743C13.042 111.86 13.3057 111.919 13.5928 111.919C14.0967 111.919 14.4805 111.793 14.7441 111.541C15.0078 111.289 15.1396 110.935 15.1396 110.478C15.1396 110.079 15.0195 109.757 14.7793 109.511C14.5391 109.259 14.2402 109.133 13.8828 109.133C13.7773 109.133 13.6719 109.147 13.5664 109.177C13.4609 109.206 13.3848 109.232 13.3379 109.256L13.25 109.309L12.8018 108.676L15.1396 106.698V106.61H13.6104C13.165 106.61 12.8398 106.704 12.6348 106.892C12.4355 107.073 12.3096 107.369 12.2568 107.779H11.6328V105.441H16.9414V106.25L14.5068 108.28V108.377C14.5186 108.377 14.5889 108.368 14.7178 108.351C14.8525 108.333 14.9756 108.324 15.0869 108.324C15.6963 108.324 16.1855 108.515 16.5547 108.896C16.9297 109.271 17.1172 109.769 17.1172 110.39C17.1172 111.052 16.8213 111.608 16.2295 112.06C15.6436 112.505 14.8291 112.728 13.7861 112.728ZM21.0283 105.257C21.8662 105.257 22.5049 105.424 22.9443 105.758C23.3838 106.086 23.6035 106.49 23.6035 106.971C23.6035 107.316 23.4834 107.624 23.2432 107.894C23.0029 108.163 22.7627 108.348 22.5225 108.447L22.1621 108.588V108.676C22.209 108.688 22.2734 108.708 22.3555 108.737C22.4434 108.761 22.5986 108.828 22.8213 108.939C23.0439 109.045 23.2344 109.168 23.3926 109.309C23.5566 109.443 23.7061 109.631 23.8408 109.871C23.9814 110.111 24.0518 110.375 24.0518 110.662C24.0518 111.236 23.7881 111.726 23.2607 112.13C22.7334 112.528 21.9775 112.728 20.9932 112.728C20.0205 112.728 19.2822 112.549 18.7783 112.191C18.2744 111.828 18.0225 111.377 18.0225 110.838C18.0225 110.439 18.1572 110.091 18.4268 109.792C18.6963 109.493 18.9629 109.291 19.2266 109.186L19.6484 109.036V108.948C19.6133 108.937 19.5635 108.916 19.499 108.887C19.4404 108.857 19.332 108.796 19.1738 108.702C19.0215 108.603 18.8838 108.491 18.7607 108.368C18.6436 108.239 18.5352 108.075 18.4355 107.876C18.3418 107.671 18.2949 107.448 18.2949 107.208C18.2949 106.692 18.5439 106.238 19.042 105.846C19.54 105.453 20.2021 105.257 21.0283 105.257ZM22.0742 110.803C22.0742 110.551 21.9482 110.313 21.6963 110.091C21.4443 109.868 21.1865 109.71 20.9229 109.616L20.5449 109.493C20.4746 109.528 20.3896 109.578 20.29 109.643C20.1963 109.707 20.0645 109.854 19.8945 110.082C19.7305 110.311 19.6484 110.551 19.6484 110.803C19.6484 111.137 19.7568 111.406 19.9736 111.611C20.1963 111.816 20.501 111.919 20.8877 111.919C21.2568 111.919 21.5469 111.819 21.7578 111.62C21.9688 111.421 22.0742 111.148 22.0742 110.803ZM21.8281 106.338C21.6699 106.162 21.4502 106.074 21.1689 106.074C20.8936 106.074 20.6738 106.162 20.5098 106.338C20.3516 106.508 20.2725 106.748 20.2725 107.059C20.2725 107.299 20.3574 107.51 20.5273 107.691C20.6973 107.873 20.8643 107.993 21.0283 108.052L21.2656 108.14C21.3242 108.116 21.3975 108.078 21.4854 108.025C21.5791 107.973 21.6992 107.853 21.8457 107.665C21.998 107.478 22.0742 107.275 22.0742 107.059C22.0742 106.748 21.9922 106.508 21.8281 106.338ZM34.6689 121.007L33.4121 117.588H28.6396L27.8311 119.574C27.7139 119.873 27.6523 120.172 27.6465 120.471C27.6465 120.758 27.7344 120.966 27.9102 121.095C28.0859 121.218 28.4199 121.279 28.9121 121.279V122H24.4121V121.367L25.9414 121.007L31.0742 107.964H32.3311L36.8311 119.662C37.0596 120.26 37.3203 120.679 37.6133 120.919C37.9062 121.159 38.334 121.279 38.8965 121.279V122H33.0518V121.367L34.6689 121.007ZM30.9775 111.471L29 116.604H32.9639L31.0742 111.471H30.9775ZM42.6758 107.419V119.838C42.6758 120.459 42.7607 120.869 42.9307 121.068C43.1006 121.268 43.4375 121.367 43.9414 121.367V122H39.0811V121.367L40.3379 121.104V110.39C40.3379 109.728 40.2441 109.276 40.0566 109.036C39.875 108.796 39.5498 108.676 39.0811 108.676V108.052C39.6436 108.005 40.2236 107.929 40.8213 107.823C41.4248 107.712 41.8818 107.612 42.1924 107.524L42.6758 107.419ZM48.8809 112.728C49.2793 112.728 49.6514 112.769 49.9971 112.851C50.3486 112.927 50.5947 113 50.7354 113.07L50.9551 113.176L54.4619 112.552V114.714H53.9258L52.1943 113.896L51.7637 113.536L51.6758 113.633C51.7461 113.691 51.8281 113.782 51.9219 113.905C52.0215 114.022 52.1533 114.269 52.3174 114.644C52.4873 115.013 52.5723 115.394 52.5723 115.786C52.5723 116.677 52.2412 117.412 51.5791 117.992C50.9229 118.566 50.0234 118.854 48.8809 118.854L47.9844 118.757C47.5039 119.126 47.2637 119.486 47.2637 119.838C47.2637 120.078 47.3281 120.245 47.457 120.339C47.5918 120.427 47.8584 120.471 48.2568 120.471H50.6826C51.6436 120.471 52.3643 120.667 52.8447 121.06C53.3252 121.446 53.5654 121.971 53.5654 122.633C53.5654 123.652 53.0879 124.522 52.1328 125.243C51.1777 125.964 49.8242 126.324 48.0723 126.324C45.6113 126.324 44.3809 125.691 44.3809 124.426C44.3809 124.027 44.5596 123.635 44.917 123.248C45.2803 122.861 45.6436 122.571 46.0068 122.378L46.543 122.088V122C45.9805 122 45.585 121.921 45.3564 121.763C45.1279 121.599 45.0137 121.347 45.0137 121.007C45.0137 120.661 45.2012 120.289 45.5762 119.891C45.957 119.486 46.335 119.17 46.71 118.941L47.2637 118.581C47.2051 118.569 47.1289 118.543 47.0352 118.502C46.9473 118.455 46.7832 118.358 46.543 118.212C46.3027 118.06 46.0918 117.893 45.9102 117.711C45.7344 117.523 45.5703 117.26 45.418 116.92C45.2715 116.574 45.1982 116.196 45.1982 115.786C45.1982 114.896 45.5264 114.163 46.1826 113.589C46.8389 113.015 47.7383 112.728 48.8809 112.728ZM49.9619 122.088H47.4482C46.8506 122.627 46.5488 123.169 46.543 123.714C46.543 124.183 46.7246 124.569 47.0879 124.874C47.457 125.179 47.9668 125.331 48.6172 125.331C49.3965 125.331 50.0264 125.126 50.5068 124.716C50.9873 124.312 51.2275 123.825 51.2275 123.257C51.2275 122.847 51.1279 122.548 50.9287 122.36C50.7295 122.179 50.4072 122.088 49.9619 122.088ZM50.2344 115.883C50.2344 115.162 50.1084 114.623 49.8564 114.266C49.6045 113.902 49.2793 113.721 48.8809 113.721C48.4941 113.721 48.1719 113.894 47.9141 114.239C47.6621 114.579 47.5361 115.065 47.5361 115.698C47.5361 116.419 47.6621 116.961 47.9141 117.324C48.166 117.682 48.4883 117.86 48.8809 117.86C49.2676 117.86 49.5898 117.69 49.8477 117.351C50.1055 117.011 50.2344 116.521 50.2344 115.883ZM64.1738 119.302C64.1738 119.964 64.2676 120.415 64.4551 120.655C64.6426 120.89 64.9707 121.007 65.4395 121.007V121.64C64.9121 121.687 64.376 121.757 63.8311 121.851C63.292 121.938 62.8848 122.012 62.6094 122.07L62.1963 122.176L62.0205 120.471H61.9238C61.8887 120.518 61.8389 120.582 61.7744 120.664C61.71 120.74 61.5693 120.875 61.3525 121.068C61.1357 121.256 60.9102 121.426 60.6758 121.578C60.4414 121.725 60.1426 121.862 59.7793 121.991C59.4219 122.114 59.0586 122.176 58.6895 122.176C57.7988 122.176 57.0957 121.871 56.5801 121.262C56.0645 120.652 55.8066 119.759 55.8066 118.581V115.61C55.8066 114.948 55.7129 114.497 55.5254 114.257C55.3438 114.017 55.0186 113.896 54.5498 113.896V113.272C55.1123 113.226 55.6924 113.149 56.29 113.044C56.8936 112.933 57.3506 112.833 57.6611 112.745L58.1445 112.64V118.493C58.1445 119.202 58.2793 119.709 58.5488 120.014C58.8184 120.318 59.2549 120.471 59.8584 120.471C60.1807 120.471 60.5059 120.397 60.834 120.251C61.168 120.099 61.417 119.949 61.5811 119.803L61.8359 119.574V115.61C61.8359 114.948 61.7422 114.497 61.5547 114.257C61.373 114.017 61.0479 113.896 60.5791 113.896V113.272C61.1416 113.226 61.7217 113.149 62.3193 113.044C62.9229 112.933 63.3857 112.833 63.708 112.745L64.1738 112.64V119.302ZM70.9238 113.721C70.4434 113.721 70.0244 113.94 69.667 114.38C69.3154 114.813 69.0752 115.464 68.9463 116.331L72.3652 116.059C72.3652 114.5 71.8848 113.721 70.9238 113.721ZM71.0996 112.728C72.2305 112.728 73.1152 113.056 73.7539 113.712C74.3984 114.368 74.7441 115.3 74.791 116.507L73.8945 117.228H68.8496V117.324C68.8496 118.297 69.1221 119.079 69.667 119.671C70.2178 120.263 70.9062 120.559 71.7324 120.559C72.2363 120.559 72.7139 120.494 73.165 120.365C73.6162 120.23 73.9355 120.093 74.123 119.952L74.4307 119.75L74.791 120.11C74.7559 120.169 74.7031 120.245 74.6328 120.339C74.5625 120.427 74.4043 120.591 74.1582 120.831C73.9121 121.071 73.6455 121.282 73.3584 121.464C73.0771 121.64 72.708 121.804 72.251 121.956C71.7998 122.103 71.3281 122.176 70.8359 122.176C69.5645 122.176 68.5098 121.748 67.6719 120.893C66.8398 120.037 66.4238 118.938 66.4238 117.597C66.4238 116.249 66.8838 115.101 67.8037 114.151C68.7295 113.202 69.8281 112.728 71.0996 112.728ZM71.0117 111.559H70.4756V110.838L72.2773 108.228H73.8945V109.273L71.0117 111.559ZM90.7256 116.419V119.838C90.7256 120.459 90.8076 120.869 90.9717 121.068C91.1416 121.268 91.4785 121.367 91.9824 121.367V122H87.3066V121.367L88.3877 121.104V116.419C88.3877 115.757 88.2412 115.262 87.9482 114.934C87.6611 114.605 87.2656 114.441 86.7617 114.441C86.4629 114.441 86.1641 114.509 85.8652 114.644C85.5664 114.772 85.3379 114.907 85.1797 115.048L84.96 115.25C85.0186 115.49 85.0508 115.88 85.0566 116.419V119.838C85.0566 120.459 85.1357 120.869 85.2939 121.068C85.458 121.268 85.7686 121.367 86.2256 121.367V122H81.6377V121.367L82.71 121.104V116.419C82.71 115.757 82.5664 115.262 82.2793 114.934C81.9922 114.605 81.5967 114.441 81.0928 114.441C80.8291 114.441 80.5537 114.509 80.2666 114.644C79.9795 114.772 79.7568 114.907 79.5986 115.048L79.3877 115.25V119.838C79.3877 120.459 79.4668 120.869 79.625 121.068C79.7891 121.268 80.0996 121.367 80.5566 121.367V122H75.7842V121.367L77.041 121.104V115.61C77.041 114.948 76.9473 114.497 76.7598 114.257C76.5781 114.017 76.2529 113.896 75.7842 113.896V113.272C76.3115 113.226 76.8447 113.158 77.3838 113.07C77.9229 112.977 78.3301 112.895 78.6055 112.824L79.0273 112.728L79.2031 114.257H79.291C79.3262 114.222 79.373 114.169 79.4316 114.099C79.4961 114.028 79.6279 113.905 79.8271 113.729C80.0264 113.554 80.2314 113.398 80.4424 113.264C80.6592 113.123 80.9316 113 81.2598 112.895C81.5938 112.783 81.9277 112.728 82.2617 112.728C82.6016 112.728 82.915 112.783 83.2021 112.895C83.4893 113 83.7207 113.129 83.8965 113.281C84.0781 113.428 84.2305 113.574 84.3535 113.721C84.4824 113.861 84.5732 113.987 84.626 114.099L84.6963 114.257H84.7842C84.8193 114.222 84.8662 114.169 84.9248 114.099C84.9893 114.028 85.1211 113.905 85.3203 113.729C85.5254 113.554 85.7422 113.398 85.9707 113.264C86.1992 113.123 86.4893 113 86.8408 112.895C87.1982 112.783 87.5615 112.728 87.9307 112.728C88.7803 112.728 89.457 113.041 89.9609 113.668C90.4707 114.289 90.7256 115.206 90.7256 116.419ZM93.4678 121.763C93.1924 121.487 93.0547 121.147 93.0547 120.743C93.0547 120.333 93.1924 119.99 93.4678 119.715C93.7432 119.439 94.0859 119.302 94.4961 119.302C94.9062 119.302 95.249 119.439 95.5244 119.715C95.7998 119.99 95.9375 120.333 95.9375 120.743C95.9375 121.147 95.7998 121.487 95.5244 121.763C95.249 122.038 94.9062 122.176 94.4961 122.176C94.0859 122.176 93.7432 122.038 93.4678 121.763Z" fill="#ED1C24"/>
</svg>
