<svg width="227" height="160" viewBox="0 0 227 160" fill="none" xmlns="http://www.w3.org/2000/svg">
<rect x="0.5" y="0.5" width="226" height="159" fill="white" stroke="#ED1C24"/>
<path d="M17.8018 18.8311V14.2432H16.2725V13.5928C16.835 13.5225 17.3389 13.3818 17.7842 13.1709C18.2295 12.96 18.5342 12.7695 18.6982 12.5996L18.9355 12.3535H19.6035V17.5742C19.6035 18.1016 19.6943 18.459 19.876 18.6465C20.0635 18.8281 20.4209 18.9189 20.9482 18.9189V19.5518H16.4482V19.0068L17.8018 18.8311ZM24.1826 15.0166L22.8379 16.4932L22.3896 16.7568V16.8535H24.543V14.4717H24.4551L24.1826 15.0166ZM26.3447 17.75V17.9258C26.3447 18.2832 26.4297 18.5381 26.5996 18.6904C26.7695 18.8428 27.0742 18.9189 27.5137 18.9189V19.5518H23.374V19.0068L24.543 18.8311V17.75H21.2207V16.9414L25.3604 12.4414H26.3447V16.8535H27.4258V17.75H26.3447ZM48.5811 28.0068L47.3242 24.5879H42.5518L41.7432 26.5742C41.626 26.873 41.5645 27.1719 41.5586 27.4707C41.5586 27.7578 41.6465 27.9658 41.8223 28.0947C41.998 28.2178 42.332 28.2793 42.8242 28.2793V29H38.3242V28.3672L39.8535 28.0068L44.9863 14.9639H46.2432L50.7432 26.6621C50.9717 27.2598 51.2324 27.6787 51.5254 27.9189C51.8184 28.1592 52.2461 28.2793 52.8086 28.2793V29H46.9639V28.3672L48.5811 28.0068ZM44.8896 18.4707L42.9121 23.6035H46.876L44.9863 18.4707H44.8896ZM58.1084 19.7275C58.4541 19.7275 58.8086 19.7744 59.1719 19.8682C59.5352 19.9561 59.8047 20.0469 59.9805 20.1406L60.2705 20.2725L61.7998 19.7275V30.9775C61.7998 31.5986 61.8848 32.0088 62.0547 32.208C62.2246 32.4072 62.5615 32.5068 63.0654 32.5068V33.1396H57.8447V32.5068L59.4619 32.2432V27.6465H59.374C59.3506 27.6816 59.3096 27.7373 59.251 27.8135C59.1982 27.8838 59.0811 28.0068 58.8994 28.1826C58.7236 28.3584 58.5332 28.5166 58.3281 28.6572C58.123 28.792 57.8506 28.9121 57.5107 29.0176C57.1768 29.123 56.8369 29.1758 56.4912 29.1758C55.5537 29.1758 54.748 28.7803 54.0742 27.9893C53.4062 27.1982 53.0723 26.1553 53.0723 24.8604C53.0723 23.29 53.5264 22.042 54.4346 21.1162C55.3486 20.1904 56.5732 19.7275 58.1084 19.7275ZM57.748 20.7207C57.1094 20.7207 56.5732 21.0312 56.1396 21.6523C55.7119 22.2676 55.498 23.1875 55.498 24.4121C55.498 26.4512 56.1895 27.4707 57.5723 27.4707C57.8945 27.4707 58.2109 27.3975 58.5215 27.251C58.8379 27.0986 59.0723 26.9434 59.2246 26.7852L59.4619 26.5479V21.5293C59.415 21.4707 59.3447 21.3975 59.251 21.3096C59.1631 21.2158 58.9697 21.0957 58.6709 20.9492C58.3779 20.7969 58.0703 20.7207 57.748 20.7207ZM73.2344 26.3018C73.2344 26.9639 73.3281 27.415 73.5156 27.6553C73.7031 27.8896 74.0312 28.0068 74.5 28.0068V28.6396C73.9727 28.6865 73.4365 28.7568 72.8916 28.8506C72.3525 28.9385 71.9453 29.0117 71.6699 29.0703L71.2568 29.1758L71.0811 27.4707H70.9844C70.9492 27.5176 70.8994 27.582 70.835 27.6641C70.7705 27.7402 70.6299 27.875 70.4131 28.0684C70.1963 28.2559 69.9707 28.4258 69.7363 28.5781C69.502 28.7246 69.2031 28.8623 68.8398 28.9912C68.4824 29.1143 68.1191 29.1758 67.75 29.1758C66.8594 29.1758 66.1562 28.8711 65.6406 28.2617C65.125 27.6523 64.8672 26.7588 64.8672 25.5811V22.6104C64.8672 21.9482 64.7734 21.4971 64.5859 21.2568C64.4043 21.0166 64.0791 20.8965 63.6104 20.8965V20.2725C64.1729 20.2256 64.7529 20.1494 65.3506 20.0439C65.9541 19.9326 66.4111 19.833 66.7217 19.7451L67.2051 19.6396V25.4932C67.2051 26.2021 67.3398 26.709 67.6094 27.0137C67.8789 27.3184 68.3154 27.4707 68.9189 27.4707C69.2412 27.4707 69.5664 27.3975 69.8945 27.251C70.2285 27.0986 70.4775 26.9492 70.6416 26.8027L70.8965 26.5742V22.6104C70.8965 21.9482 70.8027 21.4971 70.6152 21.2568C70.4336 21.0166 70.1084 20.8965 69.6396 20.8965V20.2725C70.2021 20.2256 70.7822 20.1494 71.3799 20.0439C71.9834 19.9326 72.4463 19.833 72.7686 19.7451L73.2344 19.6396V26.3018ZM79.9844 20.7207C79.5039 20.7207 79.085 20.9404 78.7275 21.3799C78.376 21.8135 78.1357 22.4639 78.0068 23.3311L81.4258 23.0586C81.4258 21.5 80.9453 20.7207 79.9844 20.7207ZM80.1602 19.7275C81.291 19.7275 82.1758 20.0557 82.8145 20.7119C83.459 21.3682 83.8047 22.2998 83.8516 23.5068L82.9551 24.2275H77.9102V24.3242C77.9102 25.2969 78.1826 26.0791 78.7275 26.6709C79.2783 27.2627 79.9668 27.5586 80.793 27.5586C81.2969 27.5586 81.7744 27.4941 82.2256 27.3652C82.6768 27.2305 82.9961 27.0928 83.1836 26.9521L83.4912 26.75L83.8516 27.1104C83.8164 27.1689 83.7637 27.2451 83.6934 27.3389C83.623 27.4268 83.4648 27.5908 83.2188 27.8311C82.9727 28.0713 82.7061 28.2822 82.4189 28.4639C82.1377 28.6396 81.7686 28.8037 81.3115 28.9561C80.8604 29.1025 80.3887 29.1758 79.8965 29.1758C78.625 29.1758 77.5703 28.748 76.7324 27.8926C75.9004 27.0371 75.4844 25.9385 75.4844 24.5967C75.4844 23.249 75.9443 22.1006 76.8643 21.1514C77.79 20.2021 78.8887 19.7275 80.1602 19.7275ZM88.3516 14.4189V26.8379C88.3516 27.459 88.4365 27.8691 88.6064 28.0684C88.7764 28.2676 89.1133 28.3672 89.6172 28.3672V29H84.7568V28.3672L86.0137 28.1035V17.3896C86.0137 16.7275 85.9199 16.2764 85.7324 16.0361C85.5508 15.7959 85.2256 15.6758 84.7568 15.6758V15.0518C85.3193 15.0049 85.8994 14.9287 86.4971 14.8232C87.1006 14.7119 87.5576 14.6123 87.8682 14.5244L88.3516 14.4189ZM96.1826 24.1396L98.1602 26.9258C98.582 27.5117 98.9131 27.8984 99.1533 28.0859C99.3936 28.2734 99.7217 28.3672 100.138 28.3672V29H95.1895V28.3672L96.2705 28.1035L94.4688 25.4932L93.2119 27.0225C92.9717 27.3213 92.8516 27.5908 92.8516 27.8311C92.8516 27.9775 92.9248 28.1035 93.0713 28.209C93.2236 28.3145 93.4492 28.3672 93.748 28.3672V29H89.8809V28.3672L91.0498 28.1035L93.8447 24.5879L91.9551 21.9775C91.5449 21.415 91.2139 21.0342 90.9619 20.835C90.71 20.6357 90.4082 20.5361 90.0566 20.5361V19.9121H94.8291V20.5361L93.748 20.8086L95.4619 23.2432L96.6309 21.8018C96.8711 21.5029 96.9912 21.2627 96.9912 21.0811C96.9912 20.9346 96.915 20.8086 96.7627 20.7031C96.6162 20.5918 96.3936 20.5361 96.0947 20.5361V19.9121H99.874V20.5361L98.7051 20.8086L96.1826 24.1396ZM111.036 19.7275C111.382 19.7275 111.736 19.7744 112.1 19.8682C112.463 19.9561 112.732 20.0469 112.908 20.1406L113.198 20.2725L114.728 19.7275V30.9775C114.728 31.5986 114.812 32.0088 114.982 32.208C115.152 32.4072 115.489 32.5068 115.993 32.5068V33.1396H110.772V32.5068L112.39 32.2432V27.6465H112.302C112.278 27.6816 112.237 27.7373 112.179 27.8135C112.126 27.8838 112.009 28.0068 111.827 28.1826C111.651 28.3584 111.461 28.5166 111.256 28.6572C111.051 28.792 110.778 28.9121 110.438 29.0176C110.104 29.123 109.765 29.1758 109.419 29.1758C108.481 29.1758 107.676 28.7803 107.002 27.9893C106.334 27.1982 106 26.1553 106 24.8604C106 23.29 106.454 22.042 107.362 21.1162C108.276 20.1904 109.501 19.7275 111.036 19.7275ZM110.676 20.7207C110.037 20.7207 109.501 21.0312 109.067 21.6523C108.64 22.2676 108.426 23.1875 108.426 24.4121C108.426 26.4512 109.117 27.4707 110.5 27.4707C110.822 27.4707 111.139 27.3975 111.449 27.251C111.766 27.0986 112 26.9434 112.152 26.7852L112.39 26.5479V21.5293C112.343 21.4707 112.272 21.3975 112.179 21.3096C112.091 21.2158 111.897 21.0957 111.599 20.9492C111.306 20.7969 110.998 20.7207 110.676 20.7207ZM126.162 26.3018C126.162 26.9639 126.256 27.415 126.443 27.6553C126.631 27.8896 126.959 28.0068 127.428 28.0068V28.6396C126.9 28.6865 126.364 28.7568 125.819 28.8506C125.28 28.9385 124.873 29.0117 124.598 29.0703L124.185 29.1758L124.009 27.4707H123.912C123.877 27.5176 123.827 27.582 123.763 27.6641C123.698 27.7402 123.558 27.875 123.341 28.0684C123.124 28.2559 122.898 28.4258 122.664 28.5781C122.43 28.7246 122.131 28.8623 121.768 28.9912C121.41 29.1143 121.047 29.1758 120.678 29.1758C119.787 29.1758 119.084 28.8711 118.568 28.2617C118.053 27.6523 117.795 26.7588 117.795 25.5811V22.6104C117.795 21.9482 117.701 21.4971 117.514 21.2568C117.332 21.0166 117.007 20.8965 116.538 20.8965V20.2725C117.101 20.2256 117.681 20.1494 118.278 20.0439C118.882 19.9326 119.339 19.833 119.649 19.7451L120.133 19.6396V25.4932C120.133 26.2021 120.268 26.709 120.537 27.0137C120.807 27.3184 121.243 27.4707 121.847 27.4707C122.169 27.4707 122.494 27.3975 122.822 27.251C123.156 27.0986 123.405 26.9492 123.569 26.8027L123.824 26.5742V22.6104C123.824 21.9482 123.73 21.4971 123.543 21.2568C123.361 21.0166 123.036 20.8965 122.567 20.8965V20.2725C123.13 20.2256 123.71 20.1494 124.308 20.0439C124.911 19.9326 125.374 19.833 125.696 19.7451L126.162 19.6396V26.3018ZM132.912 20.7207C132.432 20.7207 132.013 20.9404 131.655 21.3799C131.304 21.8135 131.063 22.4639 130.935 23.3311L134.354 23.0586C134.354 21.5 133.873 20.7207 132.912 20.7207ZM133.088 19.7275C134.219 19.7275 135.104 20.0557 135.742 20.7119C136.387 21.3682 136.732 22.2998 136.779 23.5068L135.883 24.2275H130.838V24.3242C130.838 25.2969 131.11 26.0791 131.655 26.6709C132.206 27.2627 132.895 27.5586 133.721 27.5586C134.225 27.5586 134.702 27.4941 135.153 27.3652C135.604 27.2305 135.924 27.0928 136.111 26.9521L136.419 26.75L136.779 27.1104C136.744 27.1689 136.691 27.2451 136.621 27.3389C136.551 27.4268 136.393 27.5908 136.146 27.8311C135.9 28.0713 135.634 28.2822 135.347 28.4639C135.065 28.6396 134.696 28.8037 134.239 28.9561C133.788 29.1025 133.316 29.1758 132.824 29.1758C131.553 29.1758 130.498 28.748 129.66 27.8926C128.828 27.0371 128.412 25.9385 128.412 24.5967C128.412 23.249 128.872 22.1006 129.792 21.1514C130.718 20.2021 131.816 19.7275 133.088 19.7275ZM143.266 24.5879C143.266 23.2227 143.752 22.0713 144.725 21.1338C145.697 20.1963 146.922 19.7275 148.398 19.7275C148.961 19.7275 149.482 19.7979 149.963 19.9385C150.443 20.0732 150.777 20.208 150.965 20.3428L151.272 20.5361V23.2432H150.191L149.383 20.9932C149.143 20.8115 148.782 20.7207 148.302 20.7207C147.581 20.7207 146.966 21.0371 146.456 21.6699C145.946 22.2969 145.691 23.1494 145.691 24.2275C145.691 25.2354 145.964 26.0439 146.509 26.6533C147.06 27.2568 147.748 27.5586 148.574 27.5586C149.078 27.5586 149.556 27.4941 150.007 27.3652C150.458 27.2305 150.777 27.0928 150.965 26.9521L151.272 26.75L151.633 27.1104C151.598 27.1689 151.545 27.2451 151.475 27.3389C151.404 27.4268 151.246 27.5908 151 27.8311C150.754 28.0713 150.487 28.2822 150.2 28.4639C149.919 28.6396 149.55 28.8037 149.093 28.9561C148.642 29.1025 148.17 29.1758 147.678 29.1758C146.453 29.1758 145.41 28.7363 144.549 27.8574C143.693 26.9727 143.266 25.8828 143.266 24.5879ZM159.833 24.5879C159.833 23.2812 159.599 22.2969 159.13 21.6348C158.661 20.9668 158.084 20.6328 157.398 20.6328C156.801 20.6328 156.276 20.9551 155.825 21.5996C155.374 22.2383 155.148 23.1465 155.148 24.3242C155.148 25.6309 155.383 26.6182 155.852 27.2861C156.32 27.9482 156.897 28.2793 157.583 28.2793C158.181 28.2793 158.705 27.96 159.156 27.3213C159.607 26.6768 159.833 25.7656 159.833 24.5879ZM162.259 24.4121C162.259 25.7656 161.79 26.8994 160.853 27.8135C159.921 28.7217 158.74 29.1758 157.311 29.1758C155.957 29.1758 154.853 28.7451 153.997 27.8838C153.147 27.0225 152.723 25.8945 152.723 24.5C152.723 23.1465 153.188 22.0127 154.12 21.0986C155.058 20.1846 156.241 19.7275 157.671 19.7275C159.024 19.7275 160.126 20.1611 160.976 21.0283C161.831 21.8896 162.259 23.0176 162.259 24.4121ZM172.981 23.3311V26.8379C172.981 27.459 173.063 27.8691 173.228 28.0684C173.397 28.2676 173.734 28.3672 174.238 28.3672V29H169.378V28.3672L170.635 28.1035V23.4189C170.635 22.71 170.5 22.2031 170.23 21.8984C169.961 21.5938 169.527 21.4414 168.93 21.4414C168.607 21.4414 168.279 21.5176 167.945 21.6699C167.617 21.8164 167.368 21.9688 167.198 22.127L166.952 22.3379V26.8379C166.952 27.459 167.034 27.8691 167.198 28.0684C167.368 28.2676 167.705 28.3672 168.209 28.3672V29H163.349V28.3672L164.605 28.1035V22.6104C164.605 21.9482 164.512 21.4971 164.324 21.2568C164.143 21.0166 163.817 20.8965 163.349 20.8965V20.2725C163.876 20.2256 164.409 20.1582 164.948 20.0703C165.487 19.9766 165.895 19.8945 166.17 19.8242L166.592 19.7275L166.768 21.4414H166.855C166.891 21.3945 166.94 21.333 167.005 21.2568C167.075 21.1748 167.219 21.0371 167.436 20.8438C167.652 20.6504 167.878 20.4805 168.112 20.334C168.347 20.1816 168.643 20.0439 169 19.9209C169.357 19.792 169.724 19.7275 170.099 19.7275C170.989 19.7275 171.692 20.0352 172.208 20.6504C172.724 21.2598 172.981 22.1533 172.981 23.3311ZM180.171 19.7275C180.411 19.7275 180.651 19.751 180.892 19.7979C181.132 19.8389 181.311 19.8828 181.428 19.9297L181.612 20V17.3896C181.612 16.7275 181.519 16.2764 181.331 16.0361C181.144 15.7959 180.818 15.6758 180.355 15.6758V15.0518C180.918 15.0049 181.498 14.9287 182.096 14.8232C182.699 14.7119 183.156 14.6123 183.467 14.5244L183.95 14.4189V26.3018C183.95 26.9639 184.044 27.415 184.231 27.6553C184.419 27.8896 184.747 28.0068 185.216 28.0068V28.6396C184.688 28.6865 184.152 28.7568 183.607 28.8506C183.068 28.9385 182.661 29.0117 182.386 29.0703L181.973 29.1758L181.788 27.4707H181.7C181.665 27.5176 181.618 27.582 181.56 27.6641C181.501 27.7402 181.366 27.875 181.155 28.0684C180.944 28.2559 180.725 28.4258 180.496 28.5781C180.268 28.7246 179.983 28.8623 179.644 28.9912C179.31 29.1143 178.976 29.1758 178.642 29.1758C177.704 29.1758 176.898 28.7803 176.225 27.9893C175.557 27.1982 175.223 26.1553 175.223 24.8604C175.223 23.29 175.674 22.042 176.576 21.1162C177.484 20.1904 178.683 19.7275 180.171 19.7275ZM179.898 20.7207C179.26 20.7207 178.724 21.0312 178.29 21.6523C177.862 22.2676 177.648 23.1875 177.648 24.4121C177.648 26.4512 178.34 27.4707 179.723 27.4707C180.045 27.4707 180.361 27.3975 180.672 27.251C180.988 27.0986 181.223 26.9434 181.375 26.7852L181.612 26.5479V21.4414C181.565 21.3945 181.495 21.3301 181.401 21.248C181.313 21.1602 181.12 21.0518 180.821 20.9229C180.528 20.7881 180.221 20.7207 179.898 20.7207ZM195.385 26.3018C195.385 26.9639 195.479 27.415 195.666 27.6553C195.854 27.8896 196.182 28.0068 196.65 28.0068V28.6396C196.123 28.6865 195.587 28.7568 195.042 28.8506C194.503 28.9385 194.096 29.0117 193.82 29.0703L193.407 29.1758L193.231 27.4707H193.135C193.1 27.5176 193.05 27.582 192.985 27.6641C192.921 27.7402 192.78 27.875 192.563 28.0684C192.347 28.2559 192.121 28.4258 191.887 28.5781C191.652 28.7246 191.354 28.8623 190.99 28.9912C190.633 29.1143 190.27 29.1758 189.9 29.1758C189.01 29.1758 188.307 28.8711 187.791 28.2617C187.275 27.6523 187.018 26.7588 187.018 25.5811V22.6104C187.018 21.9482 186.924 21.4971 186.736 21.2568C186.555 21.0166 186.229 20.8965 185.761 20.8965V20.2725C186.323 20.2256 186.903 20.1494 187.501 20.0439C188.104 19.9326 188.562 19.833 188.872 19.7451L189.355 19.6396V25.4932C189.355 26.2021 189.49 26.709 189.76 27.0137C190.029 27.3184 190.466 27.4707 191.069 27.4707C191.392 27.4707 191.717 27.3975 192.045 27.251C192.379 27.0986 192.628 26.9492 192.792 26.8027L193.047 26.5742V22.6104C193.047 21.9482 192.953 21.4971 192.766 21.2568C192.584 21.0166 192.259 20.8965 191.79 20.8965V20.2725C192.353 20.2256 192.933 20.1494 193.53 20.0439C194.134 19.9326 194.597 19.833 194.919 19.7451L195.385 19.6396V26.3018ZM205.624 29H197.635L197.45 28.5518L202.943 20.8086H201.142C199.7 20.8086 198.982 21.5879 198.988 23.1465H198.083V19.9121H205.826L206.002 20.3604L200.518 28.1035H202.671C203.356 28.1035 203.881 27.9131 204.244 27.5322C204.613 27.1455 204.93 26.4336 205.193 25.3965H206.002L205.624 29ZM24.2793 45.8828V49.3018C24.2793 49.9639 24.373 50.415 24.5605 50.6553C24.748 50.8896 25.0732 51.0068 25.5361 51.0068V51.6396C25.0088 51.6865 24.4756 51.7568 23.9365 51.8506C23.3975 51.9385 22.9902 52.0117 22.7148 52.0703L22.3018 52.1758L22.1172 50.4707H22.0293C21.9941 50.5176 21.9443 50.582 21.8799 50.6641C21.8213 50.7402 21.6924 50.875 21.4932 51.0684C21.2998 51.2559 21.0918 51.4258 20.8691 51.5781C20.6465 51.7246 20.3594 51.8623 20.0078 51.9912C19.6621 52.1143 19.3164 52.1758 18.9707 52.1758C18.2266 52.1758 17.6348 51.9824 17.1953 51.5957C16.7559 51.2031 16.5361 50.708 16.5361 50.1104C16.5361 49.5947 16.7207 49.1201 17.0898 48.6865C17.4648 48.2529 17.916 47.9131 18.4434 47.667C18.9766 47.4209 19.5068 47.2129 20.0342 47.043C20.5615 46.8672 21.0098 46.75 21.3789 46.6914L21.9414 46.6035V46.0586C21.9414 44.5 21.3701 43.7207 20.2275 43.7207C20.0342 43.7207 19.8408 43.7441 19.6475 43.791C19.46 43.8379 19.3135 43.8848 19.208 43.9316L19.0586 43.9932L18.4258 45.9707H17.1689V43.6328C17.2861 43.5625 17.4531 43.4805 17.6699 43.3867C17.8867 43.2871 18.3203 43.1523 18.9707 42.9824C19.6211 42.8125 20.251 42.7275 20.8604 42.7275C21.9268 42.7275 22.7617 43.0146 23.3652 43.5889C23.9746 44.1572 24.2793 44.9219 24.2793 45.8828ZM20.0518 50.4707C20.374 50.4707 20.6904 50.3975 21.001 50.251C21.3174 50.0986 21.5518 49.9492 21.7041 49.8027L21.9414 49.5742V47.5C21.8594 47.5117 21.751 47.5293 21.6162 47.5527C21.4814 47.5762 21.2441 47.6436 20.9043 47.7549C20.5645 47.8604 20.2656 47.9834 20.0078 48.124C19.75 48.2588 19.5127 48.4463 19.2959 48.6865C19.0791 48.9268 18.9707 49.1904 18.9707 49.4775C18.9707 50.1396 19.3311 50.4707 20.0518 50.4707ZM41.1104 46.4189V49.8379C41.1104 50.459 41.1924 50.8691 41.3564 51.0684C41.5264 51.2676 41.8633 51.3672 42.3672 51.3672V52H37.6914V51.3672L38.7725 51.1035V46.4189C38.7725 45.7568 38.626 45.2617 38.333 44.9336C38.0459 44.6055 37.6504 44.4414 37.1465 44.4414C36.8477 44.4414 36.5488 44.5088 36.25 44.6436C35.9512 44.7725 35.7227 44.9072 35.5645 45.0479L35.3447 45.25C35.4033 45.4902 35.4355 45.8799 35.4414 46.4189V49.8379C35.4414 50.459 35.5205 50.8691 35.6787 51.0684C35.8428 51.2676 36.1533 51.3672 36.6104 51.3672V52H32.0225V51.3672L33.0947 51.1035V46.4189C33.0947 45.7568 32.9512 45.2617 32.6641 44.9336C32.377 44.6055 31.9814 44.4414 31.4775 44.4414C31.2139 44.4414 30.9385 44.5088 30.6514 44.6436C30.3643 44.7725 30.1416 44.9072 29.9834 45.0479L29.7725 45.25V49.8379C29.7725 50.459 29.8516 50.8691 30.0098 51.0684C30.1738 51.2676 30.4844 51.3672 30.9414 51.3672V52H26.1689V51.3672L27.4258 51.1035V45.6104C27.4258 44.9482 27.332 44.4971 27.1445 44.2568C26.9629 44.0166 26.6377 43.8965 26.1689 43.8965V43.2725C26.6963 43.2256 27.2295 43.1582 27.7686 43.0703C28.3076 42.9766 28.7148 42.8945 28.9902 42.8242L29.4121 42.7275L29.5879 44.2568H29.6758C29.7109 44.2217 29.7578 44.1689 29.8164 44.0986C29.8809 44.0283 30.0127 43.9053 30.2119 43.7295C30.4111 43.5537 30.6162 43.3984 30.8271 43.2637C31.0439 43.123 31.3164 43 31.6445 42.8945C31.9785 42.7832 32.3125 42.7275 32.6465 42.7275C32.9863 42.7275 33.2998 42.7832 33.5869 42.8945C33.874 43 34.1055 43.1289 34.2812 43.2812C34.4629 43.4277 34.6152 43.5742 34.7383 43.7207C34.8672 43.8613 34.958 43.9873 35.0107 44.0986L35.0811 44.2568H35.1689C35.2041 44.2217 35.251 44.1689 35.3096 44.0986C35.374 44.0283 35.5059 43.9053 35.7051 43.7295C35.9102 43.5537 36.127 43.3984 36.3555 43.2637C36.584 43.123 36.874 43 37.2256 42.8945C37.583 42.7832 37.9463 42.7275 38.3154 42.7275C39.165 42.7275 39.8418 43.041 40.3457 43.668C40.8555 44.2891 41.1104 45.2061 41.1104 46.4189ZM47.7637 52.1758C47.0898 52.1758 46.4453 52.082 45.8301 51.8945C45.2207 51.7012 44.7783 51.5078 44.5029 51.3145L44.0723 51.0068V40.3896C44.0723 39.7275 43.9785 39.2764 43.791 39.0361C43.6035 38.7959 43.2754 38.6758 42.8066 38.6758V38.0518C43.3691 38.0049 43.9521 37.9287 44.5557 37.8232C45.1592 37.7119 45.6221 37.6123 45.9443 37.5244L46.4102 37.4189V44.2568H46.498C46.5215 44.2217 46.5625 44.1689 46.6211 44.0986C46.6855 44.0283 46.8086 43.9053 46.9902 43.7295C47.1777 43.5537 47.377 43.3984 47.5879 43.2637C47.7988 43.123 48.0654 43 48.3877 42.8945C48.7158 42.7832 49.0469 42.7275 49.3809 42.7275C50.3184 42.7275 51.1211 43.126 51.7891 43.9229C52.4629 44.7139 52.7998 45.7568 52.7998 47.0518C52.7998 48.6221 52.3428 49.8701 51.4287 50.7959C50.5205 51.7158 49.2988 52.1758 47.7637 52.1758ZM48.124 51.1914C48.7627 51.1914 49.2959 50.8838 49.7236 50.2686C50.1572 49.6475 50.374 48.7246 50.374 47.5C50.374 45.4609 49.6826 44.4414 48.2998 44.4414C48.0127 44.4414 47.708 44.5176 47.3857 44.6699C47.0693 44.8164 46.8291 44.9688 46.665 45.127L46.4102 45.3379V50.2861C46.4688 50.3564 46.5449 50.4414 46.6387 50.541C46.7383 50.6348 46.9375 50.7666 47.2363 50.9365C47.541 51.1064 47.8369 51.1914 48.124 51.1914ZM63.4258 49.3018C63.4258 49.9639 63.5195 50.415 63.707 50.6553C63.8945 50.8896 64.2227 51.0068 64.6914 51.0068V51.6396C64.1641 51.6865 63.6279 51.7568 63.083 51.8506C62.5439 51.9385 62.1367 52.0117 61.8613 52.0703L61.4482 52.1758L61.2725 50.4707H61.1758C61.1406 50.5176 61.0908 50.582 61.0264 50.6641C60.9619 50.7402 60.8213 50.875 60.6045 51.0684C60.3877 51.2559 60.1621 51.4258 59.9277 51.5781C59.6934 51.7246 59.3945 51.8623 59.0312 51.9912C58.6738 52.1143 58.3105 52.1758 57.9414 52.1758C57.0508 52.1758 56.3477 51.8711 55.832 51.2617C55.3164 50.6523 55.0586 49.7588 55.0586 48.5811V45.6104C55.0586 44.9482 54.9648 44.4971 54.7773 44.2568C54.5957 44.0166 54.2705 43.8965 53.8018 43.8965V43.2725C54.3643 43.2256 54.9443 43.1494 55.542 43.0439C56.1455 42.9326 56.6025 42.833 56.9131 42.7451L57.3965 42.6396V48.4932C57.3965 49.2021 57.5312 49.709 57.8008 50.0137C58.0703 50.3184 58.5068 50.4707 59.1104 50.4707C59.4326 50.4707 59.7578 50.3975 60.0859 50.251C60.4199 50.0986 60.6689 49.9492 60.833 49.8027L61.0879 49.5742V45.6104C61.0879 44.9482 60.9941 44.4971 60.8066 44.2568C60.625 44.0166 60.2998 43.8965 59.8311 43.8965V43.2725C60.3936 43.2256 60.9736 43.1494 61.5713 43.0439C62.1748 42.9326 62.6377 42.833 62.96 42.7451L63.4258 42.6396V49.3018ZM68.8223 37.4189V49.8379C68.8223 50.459 68.9072 50.8691 69.0771 51.0684C69.2471 51.2676 69.584 51.3672 70.0879 51.3672V52H65.2275V51.3672L66.4844 51.1035V40.3896C66.4844 39.7275 66.3906 39.2764 66.2031 39.0361C66.0215 38.7959 65.6963 38.6758 65.2275 38.6758V38.0518C65.79 38.0049 66.3701 37.9287 66.9678 37.8232C67.5713 37.7119 68.0283 37.6123 68.3389 37.5244L68.8223 37.4189ZM78.6309 45.8828V49.3018C78.6309 49.9639 78.7246 50.415 78.9121 50.6553C79.0996 50.8896 79.4248 51.0068 79.8877 51.0068V51.6396C79.3604 51.6865 78.8271 51.7568 78.2881 51.8506C77.749 51.9385 77.3418 52.0117 77.0664 52.0703L76.6533 52.1758L76.4688 50.4707H76.3809C76.3457 50.5176 76.2959 50.582 76.2314 50.6641C76.1729 50.7402 76.0439 50.875 75.8447 51.0684C75.6514 51.2559 75.4434 51.4258 75.2207 51.5781C74.998 51.7246 74.7109 51.8623 74.3594 51.9912C74.0137 52.1143 73.668 52.1758 73.3223 52.1758C72.5781 52.1758 71.9863 51.9824 71.5469 51.5957C71.1074 51.2031 70.8877 50.708 70.8877 50.1104C70.8877 49.5947 71.0723 49.1201 71.4414 48.6865C71.8164 48.2529 72.2676 47.9131 72.7949 47.667C73.3281 47.4209 73.8584 47.2129 74.3857 47.043C74.9131 46.8672 75.3613 46.75 75.7305 46.6914L76.293 46.6035V46.0586C76.293 44.5 75.7217 43.7207 74.5791 43.7207C74.3857 43.7207 74.1924 43.7441 73.999 43.791C73.8115 43.8379 73.665 43.8848 73.5596 43.9316L73.4102 43.9932L72.7773 45.9707H71.5205V43.6328C71.6377 43.5625 71.8047 43.4805 72.0215 43.3867C72.2383 43.2871 72.6719 43.1523 73.3223 42.9824C73.9727 42.8125 74.6025 42.7275 75.2119 42.7275C76.2783 42.7275 77.1133 43.0146 77.7168 43.5889C78.3262 44.1572 78.6309 44.9219 78.6309 45.8828ZM74.4033 50.4707C74.7256 50.4707 75.042 50.3975 75.3525 50.251C75.6689 50.0986 75.9033 49.9492 76.0557 49.8027L76.293 49.5742V47.5C76.2109 47.5117 76.1025 47.5293 75.9678 47.5527C75.833 47.5762 75.5957 47.6436 75.2559 47.7549C74.916 47.8604 74.6172 47.9834 74.3594 48.124C74.1016 48.2588 73.8643 48.4463 73.6475 48.6865C73.4307 48.9268 73.3223 49.1904 73.3223 49.4775C73.3223 50.1396 73.6826 50.4707 74.4033 50.4707ZM72.1533 41.7432L74.4033 38.5879H76.293L78.543 41.7432H77.6377L75.3877 39.9414H75.2998L73.0498 41.7432H72.1533ZM90.1533 46.3311V49.8379C90.1533 50.459 90.2354 50.8691 90.3994 51.0684C90.5693 51.2676 90.9062 51.3672 91.4102 51.3672V52H86.5498V51.3672L87.8066 51.1035V46.4189C87.8066 45.71 87.6719 45.2031 87.4023 44.8984C87.1328 44.5938 86.6992 44.4414 86.1016 44.4414C85.7793 44.4414 85.4512 44.5176 85.1172 44.6699C84.7891 44.8164 84.54 44.9688 84.3701 45.127L84.124 45.3379V49.8379C84.124 50.459 84.2061 50.8691 84.3701 51.0684C84.54 51.2676 84.877 51.3672 85.3809 51.3672V52H80.5205V51.3672L81.7773 51.1035V45.6104C81.7773 44.9482 81.6836 44.4971 81.4961 44.2568C81.3145 44.0166 80.9893 43.8965 80.5205 43.8965V43.2725C81.0479 43.2256 81.5811 43.1582 82.1201 43.0703C82.6592 42.9766 83.0664 42.8945 83.3418 42.8242L83.7637 42.7275L83.9395 44.4414H84.0273C84.0625 44.3945 84.1123 44.333 84.1768 44.2568C84.2471 44.1748 84.3906 44.0371 84.6074 43.8438C84.8242 43.6504 85.0498 43.4805 85.2842 43.334C85.5186 43.1816 85.8145 43.0439 86.1719 42.9209C86.5293 42.792 86.8955 42.7275 87.2705 42.7275C88.1611 42.7275 88.8643 43.0352 89.3799 43.6504C89.8955 44.2598 90.1533 45.1533 90.1533 46.3311ZM92.3945 47.5879C92.3945 46.2227 92.8809 45.0713 93.8535 44.1338C94.8262 43.1963 96.0508 42.7275 97.5273 42.7275C98.0898 42.7275 98.6113 42.7979 99.0918 42.9385C99.5723 43.0732 99.9062 43.208 100.094 43.3428L100.401 43.5361V46.2432H99.3203L98.5117 43.9932C98.2715 43.8115 97.9111 43.7207 97.4307 43.7207C96.71 43.7207 96.0947 44.0371 95.585 44.6699C95.0752 45.2969 94.8203 46.1494 94.8203 47.2275C94.8203 48.2354 95.0928 49.0439 95.6377 49.6533C96.1885 50.2568 96.877 50.5586 97.7031 50.5586C98.207 50.5586 98.6846 50.4941 99.1357 50.3652C99.5869 50.2305 99.9062 50.0928 100.094 49.9521L100.401 49.75L100.762 50.1104C100.727 50.1689 100.674 50.2451 100.604 50.3389C100.533 50.4268 100.375 50.5908 100.129 50.8311C99.8828 51.0713 99.6162 51.2822 99.3291 51.4639C99.0479 51.6396 98.6787 51.8037 98.2217 51.9561C97.7705 52.1025 97.2988 52.1758 96.8066 52.1758C95.582 52.1758 94.5391 51.7363 93.6777 50.8574C92.8223 49.9727 92.3945 48.8828 92.3945 47.5879ZM105.271 42.6396V49.8379C105.271 50.459 105.353 50.8691 105.517 51.0684C105.687 51.2676 106.023 51.3672 106.527 51.3672V52H101.667V51.3672L102.924 51.1035V45.6104C102.924 44.9482 102.83 44.4971 102.643 44.2568C102.461 44.0166 102.136 43.8965 101.667 43.8965V43.2725C102.229 43.2256 102.81 43.1494 103.407 43.0439C104.011 42.9326 104.474 42.833 104.796 42.7451L105.271 42.6396ZM103.073 40.6094C102.798 40.334 102.66 39.9912 102.66 39.5811C102.66 39.1709 102.798 38.8281 103.073 38.5527C103.349 38.2773 103.688 38.1396 104.093 38.1396C104.503 38.1396 104.846 38.2773 105.121 38.5527C105.396 38.8281 105.534 39.1709 105.534 39.5811C105.534 39.9912 105.396 40.334 105.121 40.6094C104.846 40.8848 104.503 41.0225 104.093 41.0225C103.688 41.0225 103.349 40.8848 103.073 40.6094ZM115.07 45.8828V49.3018C115.07 49.9639 115.164 50.415 115.352 50.6553C115.539 50.8896 115.864 51.0068 116.327 51.0068V51.6396C115.8 51.6865 115.267 51.7568 114.728 51.8506C114.188 51.9385 113.781 52.0117 113.506 52.0703L113.093 52.1758L112.908 50.4707H112.82C112.785 50.5176 112.735 50.582 112.671 50.6641C112.612 50.7402 112.483 50.875 112.284 51.0684C112.091 51.2559 111.883 51.4258 111.66 51.5781C111.438 51.7246 111.15 51.8623 110.799 51.9912C110.453 52.1143 110.107 52.1758 109.762 52.1758C109.018 52.1758 108.426 51.9824 107.986 51.5957C107.547 51.2031 107.327 50.708 107.327 50.1104C107.327 49.5947 107.512 49.1201 107.881 48.6865C108.256 48.2529 108.707 47.9131 109.234 47.667C109.768 47.4209 110.298 47.2129 110.825 47.043C111.353 46.8672 111.801 46.75 112.17 46.6914L112.732 46.6035V46.0586C112.732 44.5 112.161 43.7207 111.019 43.7207C110.825 43.7207 110.632 43.7441 110.438 43.791C110.251 43.8379 110.104 43.8848 109.999 43.9316L109.85 43.9932L109.217 45.9707H107.96V43.6328C108.077 43.5625 108.244 43.4805 108.461 43.3867C108.678 43.2871 109.111 43.1523 109.762 42.9824C110.412 42.8125 111.042 42.7275 111.651 42.7275C112.718 42.7275 113.553 43.0146 114.156 43.5889C114.766 44.1572 115.07 44.9219 115.07 45.8828ZM110.843 50.4707C111.165 50.4707 111.481 50.3975 111.792 50.251C112.108 50.0986 112.343 49.9492 112.495 49.8027L112.732 49.5742V47.5C112.65 47.5117 112.542 47.5293 112.407 47.5527C112.272 47.5762 112.035 47.6436 111.695 47.7549C111.355 47.8604 111.057 47.9834 110.799 48.124C110.541 48.2588 110.304 48.4463 110.087 48.6865C109.87 48.9268 109.762 49.1904 109.762 49.4775C109.762 50.1396 110.122 50.4707 110.843 50.4707ZM122.181 49.75C122.181 49.4395 122.017 49.1582 121.688 48.9062C121.366 48.6543 120.977 48.4258 120.52 48.2207C120.068 48.0156 119.614 47.7959 119.157 47.5615C118.7 47.3271 118.308 47.0137 117.979 46.6211C117.657 46.2227 117.496 45.7656 117.496 45.25C117.496 44.5293 117.801 43.9287 118.41 43.4482C119.025 42.9678 119.893 42.7275 121.012 42.7275C121.492 42.7275 121.955 42.7744 122.4 42.8682C122.852 42.9561 123.186 43.0469 123.402 43.1406L123.71 43.2725V45.6104H122.972C122.813 44.292 122.189 43.6328 121.1 43.6328C120.713 43.6328 120.391 43.7412 120.133 43.958C119.875 44.1689 119.746 44.4209 119.746 44.7139C119.746 45.0713 119.907 45.376 120.229 45.6279C120.558 45.8799 120.95 46.0967 121.407 46.2783C121.864 46.4541 122.318 46.6475 122.77 46.8584C123.227 47.0693 123.616 47.374 123.938 47.7725C124.267 48.165 124.431 48.6455 124.431 49.2139C124.431 50.0635 124.088 50.7695 123.402 51.332C122.717 51.8945 121.771 52.1758 120.563 52.1758C119.954 52.1758 119.368 52.1172 118.806 52C118.249 51.8828 117.851 51.7627 117.61 51.6396L117.232 51.4639V48.7568H117.953C118.088 49.5713 118.372 50.1953 118.806 50.6289C119.245 51.0625 119.799 51.2793 120.467 51.2793C120.947 51.2793 121.352 51.127 121.68 50.8223C122.014 50.5176 122.181 50.1602 122.181 49.75ZM126.276 51.7627C126.001 51.4873 125.863 51.1475 125.863 50.7432C125.863 50.333 126.001 49.9902 126.276 49.7148C126.552 49.4395 126.895 49.3018 127.305 49.3018C127.715 49.3018 128.058 49.4395 128.333 49.7148C128.608 49.9902 128.746 50.333 128.746 50.7432C128.746 51.1475 128.608 51.4873 128.333 51.7627C128.058 52.0381 127.715 52.1758 127.305 52.1758C126.895 52.1758 126.552 52.0381 126.276 51.7627ZM17.8018 87.8311V83.2432H16.2725V82.5928C16.835 82.5225 17.3389 82.3818 17.7842 82.1709C18.2295 81.96 18.5342 81.7695 18.6982 81.5996L18.9355 81.3535H19.6035V86.5742C19.6035 87.1016 19.6943 87.459 19.876 87.6465C20.0635 87.8281 20.4209 87.9189 20.9482 87.9189V88.5518H16.4482V88.0068L17.8018 87.8311ZM27.0654 82.6982H23.4707L23.2861 84.3242H23.374C23.6143 84.084 24.0654 83.9639 24.7275 83.9639C25.6182 83.9639 26.3213 84.1895 26.8369 84.6406C27.3525 85.0859 27.6104 85.6396 27.6104 86.3018C27.6104 87.0107 27.3027 87.6025 26.6875 88.0771C26.0781 88.5459 25.2432 88.7803 24.1826 88.7803C23.8135 88.7803 23.4385 88.7334 23.0576 88.6396C22.6826 88.5459 22.4043 88.4492 22.2227 88.3496L21.9326 88.1914V86.3018H22.75L23.2334 87.7432C23.4502 87.8604 23.7373 87.9189 24.0947 87.9189C24.5869 87.9189 24.9648 87.793 25.2285 87.541C25.4922 87.2891 25.624 86.9346 25.624 86.4775C25.624 85.9854 25.4834 85.5928 25.2021 85.2998C24.9209 85.0068 24.5518 84.8604 24.0947 84.8604C23.8545 84.8604 23.6289 84.9072 23.418 85.001C23.2129 85.0889 23.0664 85.1738 22.9785 85.2559L22.8379 85.3965L22.2051 84.8604L22.6533 81.4414H27.25L27.0654 82.6982ZM43.3604 97.0068L42.1035 93.5879H37.3311L36.5225 95.5742C36.4053 95.873 36.3438 96.1719 36.3379 96.4707C36.3379 96.7578 36.4258 96.9658 36.6016 97.0947C36.7773 97.2178 37.1113 97.2793 37.6035 97.2793V98H33.1035V97.3672L34.6328 97.0068L39.7656 83.9639H41.0225L45.5225 95.6621C45.751 96.2598 46.0117 96.6787 46.3047 96.9189C46.5977 97.1592 47.0254 97.2793 47.5879 97.2793V98H41.7432V97.3672L43.3604 97.0068ZM39.6689 87.4707L37.6914 92.6035H41.6553L39.7656 87.4707H39.6689ZM52.8877 88.7275C53.2334 88.7275 53.5879 88.7744 53.9512 88.8682C54.3145 88.9561 54.584 89.0469 54.7598 89.1406L55.0498 89.2725L56.5791 88.7275V99.9775C56.5791 100.599 56.6641 101.009 56.834 101.208C57.0039 101.407 57.3408 101.507 57.8447 101.507V102.14H52.624V101.507L54.2412 101.243V96.6465H54.1533C54.1299 96.6816 54.0889 96.7373 54.0303 96.8135C53.9775 96.8838 53.8604 97.0068 53.6787 97.1826C53.5029 97.3584 53.3125 97.5166 53.1074 97.6572C52.9023 97.792 52.6299 97.9121 52.29 98.0176C51.9561 98.123 51.6162 98.1758 51.2705 98.1758C50.333 98.1758 49.5273 97.7803 48.8535 96.9893C48.1855 96.1982 47.8516 95.1553 47.8516 93.8604C47.8516 92.29 48.3057 91.042 49.2139 90.1162C50.1279 89.1904 51.3525 88.7275 52.8877 88.7275ZM52.5273 89.7207C51.8887 89.7207 51.3525 90.0312 50.9189 90.6523C50.4912 91.2676 50.2773 92.1875 50.2773 93.4121C50.2773 95.4512 50.9688 96.4707 52.3516 96.4707C52.6738 96.4707 52.9902 96.3975 53.3008 96.251C53.6172 96.0986 53.8516 95.9434 54.0039 95.7852L54.2412 95.5479V90.5293C54.1943 90.4707 54.124 90.3975 54.0303 90.3096C53.9424 90.2158 53.749 90.0957 53.4502 89.9492C53.1572 89.7969 52.8496 89.7207 52.5273 89.7207ZM68.0137 95.3018C68.0137 95.9639 68.1074 96.415 68.2949 96.6553C68.4824 96.8896 68.8105 97.0068 69.2793 97.0068V97.6396C68.752 97.6865 68.2158 97.7568 67.6709 97.8506C67.1318 97.9385 66.7246 98.0117 66.4492 98.0703L66.0361 98.1758L65.8604 96.4707H65.7637C65.7285 96.5176 65.6787 96.582 65.6143 96.6641C65.5498 96.7402 65.4092 96.875 65.1924 97.0684C64.9756 97.2559 64.75 97.4258 64.5156 97.5781C64.2812 97.7246 63.9824 97.8623 63.6191 97.9912C63.2617 98.1143 62.8984 98.1758 62.5293 98.1758C61.6387 98.1758 60.9355 97.8711 60.4199 97.2617C59.9043 96.6523 59.6465 95.7588 59.6465 94.5811V91.6104C59.6465 90.9482 59.5527 90.4971 59.3652 90.2568C59.1836 90.0166 58.8584 89.8965 58.3896 89.8965V89.2725C58.9521 89.2256 59.5322 89.1494 60.1299 89.0439C60.7334 88.9326 61.1904 88.833 61.501 88.7451L61.9844 88.6396V94.4932C61.9844 95.2021 62.1191 95.709 62.3887 96.0137C62.6582 96.3184 63.0947 96.4707 63.6982 96.4707C64.0205 96.4707 64.3457 96.3975 64.6738 96.251C65.0078 96.0986 65.2568 95.9492 65.4209 95.8027L65.6758 95.5742V91.6104C65.6758 90.9482 65.582 90.4971 65.3945 90.2568C65.2129 90.0166 64.8877 89.8965 64.4189 89.8965V89.2725C64.9814 89.2256 65.5615 89.1494 66.1592 89.0439C66.7627 88.9326 67.2256 88.833 67.5479 88.7451L68.0137 88.6396V95.3018ZM74.7637 89.7207C74.2832 89.7207 73.8643 89.9404 73.5068 90.3799C73.1553 90.8135 72.915 91.4639 72.7861 92.3311L76.2051 92.0586C76.2051 90.5 75.7246 89.7207 74.7637 89.7207ZM74.9395 88.7275C76.0703 88.7275 76.9551 89.0557 77.5938 89.7119C78.2383 90.3682 78.584 91.2998 78.6309 92.5068L77.7344 93.2275H72.6895V93.3242C72.6895 94.2969 72.9619 95.0791 73.5068 95.6709C74.0576 96.2627 74.7461 96.5586 75.5723 96.5586C76.0762 96.5586 76.5537 96.4941 77.0049 96.3652C77.4561 96.2305 77.7754 96.0928 77.9629 95.9521L78.2705 95.75L78.6309 96.1104C78.5957 96.1689 78.543 96.2451 78.4727 96.3389C78.4023 96.4268 78.2441 96.5908 77.998 96.8311C77.752 97.0713 77.4854 97.2822 77.1982 97.4639C76.917 97.6396 76.5479 97.8037 76.0908 97.9561C75.6396 98.1025 75.168 98.1758 74.6758 98.1758C73.4043 98.1758 72.3496 97.748 71.5117 96.8926C70.6797 96.0371 70.2637 94.9385 70.2637 93.5967C70.2637 92.249 70.7236 91.1006 71.6436 90.1514C72.5693 89.2021 73.668 88.7275 74.9395 88.7275ZM83.1309 83.4189V95.8379C83.1309 96.459 83.2158 96.8691 83.3857 97.0684C83.5557 97.2676 83.8926 97.3672 84.3965 97.3672V98H79.5361V97.3672L80.793 97.1035V86.3896C80.793 85.7275 80.6992 85.2764 80.5117 85.0361C80.3301 84.7959 80.0049 84.6758 79.5361 84.6758V84.0518C80.0986 84.0049 80.6787 83.9287 81.2764 83.8232C81.8799 83.7119 82.3369 83.6123 82.6475 83.5244L83.1309 83.4189ZM90.9619 93.1396L92.9395 95.9258C93.3613 96.5117 93.6924 96.8984 93.9326 97.0859C94.1729 97.2734 94.501 97.3672 94.917 97.3672V98H89.9688V97.3672L91.0498 97.1035L89.248 94.4932L87.9912 96.0225C87.751 96.3213 87.6309 96.5908 87.6309 96.8311C87.6309 96.9775 87.7041 97.1035 87.8506 97.209C88.0029 97.3145 88.2285 97.3672 88.5273 97.3672V98H84.6602V97.3672L85.8291 97.1035L88.624 93.5879L86.7344 90.9775C86.3242 90.415 85.9932 90.0342 85.7412 89.835C85.4893 89.6357 85.1875 89.5361 84.8359 89.5361V88.9121H89.6084V89.5361L88.5273 89.8086L90.2412 92.2432L91.4102 90.8018C91.6504 90.5029 91.7705 90.2627 91.7705 90.0811C91.7705 89.9346 91.6943 89.8086 91.542 89.7031C91.3955 89.5918 91.1729 89.5361 90.874 89.5361V88.9121H94.6533V89.5361L93.4844 89.8086L90.9619 93.1396ZM100.507 95.75C100.507 95.4395 100.343 95.1582 100.015 94.9062C99.6924 94.6543 99.3027 94.4258 98.8457 94.2207C98.3945 94.0156 97.9404 93.7959 97.4834 93.5615C97.0264 93.3271 96.6338 93.0137 96.3057 92.6211C95.9834 92.2227 95.8223 91.7656 95.8223 91.25C95.8223 90.5293 96.127 89.9287 96.7363 89.4482C97.3516 88.9678 98.2188 88.7275 99.3379 88.7275C99.8184 88.7275 100.281 88.7744 100.727 88.8682C101.178 88.9561 101.512 89.0469 101.729 89.1406L102.036 89.2725V91.6104H101.298C101.14 90.292 100.516 89.6328 99.4258 89.6328C99.0391 89.6328 98.7168 89.7412 98.459 89.958C98.2012 90.1689 98.0723 90.4209 98.0723 90.7139C98.0723 91.0713 98.2334 91.376 98.5557 91.6279C98.8838 91.8799 99.2764 92.0967 99.7334 92.2783C100.19 92.4541 100.645 92.6475 101.096 92.8584C101.553 93.0693 101.942 93.374 102.265 93.7725C102.593 94.165 102.757 94.6455 102.757 95.2139C102.757 96.0635 102.414 96.7695 101.729 97.332C101.043 97.8945 100.097 98.1758 98.8896 98.1758C98.2803 98.1758 97.6943 98.1172 97.1318 98C96.5752 97.8828 96.1768 97.7627 95.9365 97.6396L95.5586 97.4639V94.7568H96.2793C96.4141 95.5713 96.6982 96.1953 97.1318 96.6289C97.5713 97.0625 98.125 97.2793 98.793 97.2793C99.2734 97.2793 99.6777 97.127 100.006 96.8223C100.34 96.5176 100.507 96.1602 100.507 95.75ZM109.234 93.5879C109.234 92.2227 109.721 91.0713 110.693 90.1338C111.666 89.1963 112.891 88.7275 114.367 88.7275C114.93 88.7275 115.451 88.7979 115.932 88.9385C116.412 89.0732 116.746 89.208 116.934 89.3428L117.241 89.5361V92.2432H116.16L115.352 89.9932C115.111 89.8115 114.751 89.7207 114.271 89.7207C113.55 89.7207 112.935 90.0371 112.425 90.6699C111.915 91.2969 111.66 92.1494 111.66 93.2275C111.66 94.2354 111.933 95.0439 112.478 95.6533C113.028 96.2568 113.717 96.5586 114.543 96.5586C115.047 96.5586 115.524 96.4941 115.976 96.3652C116.427 96.2305 116.746 96.0928 116.934 95.9521L117.241 95.75L117.602 96.1104C117.566 96.1689 117.514 96.2451 117.443 96.3389C117.373 96.4268 117.215 96.5908 116.969 96.8311C116.723 97.0713 116.456 97.2822 116.169 97.4639C115.888 97.6396 115.519 97.8037 115.062 97.9561C114.61 98.1025 114.139 98.1758 113.646 98.1758C112.422 98.1758 111.379 97.7363 110.518 96.8574C109.662 95.9727 109.234 94.8828 109.234 93.5879ZM128.043 95.3018C128.043 95.9639 128.137 96.415 128.324 96.6553C128.512 96.8896 128.84 97.0068 129.309 97.0068V97.6396C128.781 97.6865 128.245 97.7568 127.7 97.8506C127.161 97.9385 126.754 98.0117 126.479 98.0703L126.065 98.1758L125.89 96.4707H125.793C125.758 96.5176 125.708 96.582 125.644 96.6641C125.579 96.7402 125.438 96.875 125.222 97.0684C125.005 97.2559 124.779 97.4258 124.545 97.5781C124.311 97.7246 124.012 97.8623 123.648 97.9912C123.291 98.1143 122.928 98.1758 122.559 98.1758C121.668 98.1758 120.965 97.8711 120.449 97.2617C119.934 96.6523 119.676 95.7588 119.676 94.5811V91.6104C119.676 90.9482 119.582 90.4971 119.395 90.2568C119.213 90.0166 118.888 89.8965 118.419 89.8965V89.2725C118.981 89.2256 119.562 89.1494 120.159 89.0439C120.763 88.9326 121.22 88.833 121.53 88.7451L122.014 88.6396V94.4932C122.014 95.2021 122.148 95.709 122.418 96.0137C122.688 96.3184 123.124 96.4707 123.728 96.4707C124.05 96.4707 124.375 96.3975 124.703 96.251C125.037 96.0986 125.286 95.9492 125.45 95.8027L125.705 95.5742V91.6104C125.705 90.9482 125.611 90.4971 125.424 90.2568C125.242 90.0166 124.917 89.8965 124.448 89.8965V89.2725C125.011 89.2256 125.591 89.1494 126.188 89.0439C126.792 88.9326 127.255 88.833 127.577 88.7451L128.043 88.6396V95.3018ZM133.536 88.6396V97.9121C133.536 99.2422 133.161 100.309 132.411 101.111C131.661 101.92 130.715 102.324 129.572 102.324C129.25 102.324 128.939 102.286 128.641 102.21C128.336 102.14 128.119 102.069 127.99 101.999L127.771 101.867V99.5293H128.852L129.66 101.419C130.68 101.313 131.189 100.265 131.189 98.2725V91.6104C131.189 90.9482 131.096 90.4971 130.908 90.2568C130.727 90.0166 130.401 89.8965 129.933 89.8965V89.2725C130.495 89.2256 131.075 89.1494 131.673 89.0439C132.276 88.9326 132.739 88.833 133.062 88.7451L133.536 88.6396ZM131.339 86.6094C131.063 86.334 130.926 85.9912 130.926 85.5811C130.926 85.1709 131.063 84.8281 131.339 84.5527C131.614 84.2773 131.954 84.1396 132.358 84.1396C132.769 84.1396 133.111 84.2773 133.387 84.5527C133.662 84.8281 133.8 85.1709 133.8 85.5811C133.8 85.9912 133.662 86.334 133.387 86.6094C133.111 86.8848 132.769 87.0225 132.358 87.0225C131.954 87.0225 131.614 86.8848 131.339 86.6094ZM142.8 93.5879C142.8 92.2812 142.565 91.2969 142.097 90.6348C141.628 89.9668 141.051 89.6328 140.365 89.6328C139.768 89.6328 139.243 89.9551 138.792 90.5996C138.341 91.2383 138.115 92.1465 138.115 93.3242C138.115 94.6309 138.35 95.6182 138.818 96.2861C139.287 96.9482 139.864 97.2793 140.55 97.2793C141.147 97.2793 141.672 96.96 142.123 96.3213C142.574 95.6768 142.8 94.7656 142.8 93.5879ZM145.226 93.4121C145.226 94.7656 144.757 95.8994 143.819 96.8135C142.888 97.7217 141.707 98.1758 140.277 98.1758C138.924 98.1758 137.819 97.7451 136.964 96.8838C136.114 96.0225 135.689 94.8945 135.689 93.5C135.689 92.1465 136.155 91.0127 137.087 90.0986C138.024 89.1846 139.208 88.7275 140.638 88.7275C141.991 88.7275 143.093 89.1611 143.942 90.0283C144.798 90.8896 145.226 92.0176 145.226 93.4121ZM25.9932 115.331V118.838C25.9932 119.459 26.0752 119.869 26.2393 120.068C26.4092 120.268 26.7461 120.367 27.25 120.367V121H22.3896V120.367L23.6465 120.104V115.419C23.6465 114.71 23.5117 114.203 23.2422 113.898C22.9727 113.594 22.5391 113.441 21.9414 113.441C21.6191 113.441 21.291 113.518 20.957 113.67C20.6289 113.816 20.3799 113.969 20.21 114.127L19.9639 114.338V118.838C19.9639 119.459 20.0459 119.869 20.21 120.068C20.3799 120.268 20.7168 120.367 21.2207 120.367V121H16.3604V120.367L17.6172 120.104V114.61C17.6172 113.948 17.5234 113.497 17.3359 113.257C17.1543 113.017 16.8291 112.896 16.3604 112.896V112.272C16.8877 112.226 17.4209 112.158 17.96 112.07C18.499 111.977 18.9062 111.895 19.1816 111.824L19.6035 111.728L19.7793 113.441H19.8672C19.9023 113.395 19.9521 113.333 20.0166 113.257C20.0869 113.175 20.2305 113.037 20.4473 112.844C20.6641 112.65 20.8896 112.48 21.124 112.334C21.3584 112.182 21.6543 112.044 22.0117 111.921C22.3691 111.792 22.7354 111.728 23.1104 111.728C24.001 111.728 24.7041 112.035 25.2197 112.65C25.7354 113.26 25.9932 114.153 25.9932 115.331ZM35.3447 116.588C35.3447 115.281 35.1104 114.297 34.6416 113.635C34.1729 112.967 33.5957 112.633 32.9102 112.633C32.3125 112.633 31.7881 112.955 31.3369 113.6C30.8857 114.238 30.6602 115.146 30.6602 116.324C30.6602 117.631 30.8945 118.618 31.3633 119.286C31.832 119.948 32.4092 120.279 33.0947 120.279C33.6924 120.279 34.2168 119.96 34.668 119.321C35.1191 118.677 35.3447 117.766 35.3447 116.588ZM37.7705 116.412C37.7705 117.766 37.3018 118.899 36.3643 119.813C35.4326 120.722 34.252 121.176 32.8223 121.176C31.4688 121.176 30.3643 120.745 29.5088 119.884C28.6592 119.022 28.2344 117.895 28.2344 116.5C28.2344 115.146 28.7002 114.013 29.6318 113.099C30.5693 112.185 31.7529 111.728 33.1826 111.728C34.5361 111.728 35.6377 112.161 36.4873 113.028C37.3428 113.89 37.7705 115.018 37.7705 116.412ZM53.8018 115.419V118.838C53.8018 119.459 53.8838 119.869 54.0479 120.068C54.2178 120.268 54.5547 120.367 55.0586 120.367V121H50.3828V120.367L51.4639 120.104V115.419C51.4639 114.757 51.3174 114.262 51.0244 113.934C50.7373 113.605 50.3418 113.441 49.8379 113.441C49.5391 113.441 49.2402 113.509 48.9414 113.644C48.6426 113.772 48.4141 113.907 48.2559 114.048L48.0361 114.25C48.0947 114.49 48.127 114.88 48.1328 115.419V118.838C48.1328 119.459 48.2119 119.869 48.3701 120.068C48.5342 120.268 48.8447 120.367 49.3018 120.367V121H44.7139V120.367L45.7861 120.104V115.419C45.7861 114.757 45.6426 114.262 45.3555 113.934C45.0684 113.605 44.6729 113.441 44.1689 113.441C43.9053 113.441 43.6299 113.509 43.3428 113.644C43.0557 113.772 42.833 113.907 42.6748 114.048L42.4639 114.25V118.838C42.4639 119.459 42.543 119.869 42.7012 120.068C42.8652 120.268 43.1758 120.367 43.6328 120.367V121H38.8604V120.367L40.1172 120.104V114.61C40.1172 113.948 40.0234 113.497 39.8359 113.257C39.6543 113.017 39.3291 112.896 38.8604 112.896V112.272C39.3877 112.226 39.9209 112.158 40.46 112.07C40.999 111.977 41.4062 111.895 41.6816 111.824L42.1035 111.728L42.2793 113.257H42.3672C42.4023 113.222 42.4492 113.169 42.5078 113.099C42.5723 113.028 42.7041 112.905 42.9033 112.729C43.1025 112.554 43.3076 112.398 43.5186 112.264C43.7354 112.123 44.0078 112 44.3359 111.895C44.6699 111.783 45.0039 111.728 45.3379 111.728C45.6777 111.728 45.9912 111.783 46.2783 111.895C46.5654 112 46.7969 112.129 46.9727 112.281C47.1543 112.428 47.3066 112.574 47.4297 112.721C47.5586 112.861 47.6494 112.987 47.7021 113.099L47.7725 113.257H47.8604C47.8955 113.222 47.9424 113.169 48.001 113.099C48.0654 113.028 48.1973 112.905 48.3965 112.729C48.6016 112.554 48.8184 112.398 49.0469 112.264C49.2754 112.123 49.5654 112 49.917 111.895C50.2744 111.783 50.6377 111.728 51.0068 111.728C51.8564 111.728 52.5332 112.041 53.0371 112.668C53.5469 113.289 53.8018 114.206 53.8018 115.419ZM60.543 112.721C60.0625 112.721 59.6436 112.94 59.2861 113.38C58.9346 113.813 58.6943 114.464 58.5654 115.331L61.9844 115.059C61.9844 113.5 61.5039 112.721 60.543 112.721ZM60.7188 111.728C61.8496 111.728 62.7344 112.056 63.373 112.712C64.0176 113.368 64.3633 114.3 64.4102 115.507L63.5137 116.228H58.4688V116.324C58.4688 117.297 58.7412 118.079 59.2861 118.671C59.8369 119.263 60.5254 119.559 61.3516 119.559C61.8555 119.559 62.333 119.494 62.7842 119.365C63.2354 119.23 63.5547 119.093 63.7422 118.952L64.0498 118.75L64.4102 119.11C64.375 119.169 64.3223 119.245 64.252 119.339C64.1816 119.427 64.0234 119.591 63.7773 119.831C63.5312 120.071 63.2646 120.282 62.9775 120.464C62.6963 120.64 62.3271 120.804 61.8701 120.956C61.4189 121.103 60.9473 121.176 60.4551 121.176C59.1836 121.176 58.1289 120.748 57.291 119.893C56.459 119.037 56.043 117.938 56.043 116.597C56.043 115.249 56.5029 114.101 57.4229 113.151C58.3486 112.202 59.4473 111.728 60.7188 111.728ZM80.1689 115.331V118.838C80.1689 119.459 80.251 119.869 80.415 120.068C80.585 120.268 80.9219 120.367 81.4258 120.367V121H76.5654V120.367L77.8223 120.104V115.419C77.8223 114.71 77.6875 114.203 77.418 113.898C77.1484 113.594 76.7148 113.441 76.1172 113.441C75.7949 113.441 75.4668 113.518 75.1328 113.67C74.8047 113.816 74.5557 113.969 74.3857 114.127L74.1396 114.338V118.838C74.1396 119.459 74.2217 119.869 74.3857 120.068C74.5557 120.268 74.8926 120.367 75.3965 120.367V121H70.5361V120.367L71.793 120.104V114.61C71.793 113.948 71.6992 113.497 71.5117 113.257C71.3301 113.017 71.0049 112.896 70.5361 112.896V112.272C71.0635 112.226 71.5967 112.158 72.1357 112.07C72.6748 111.977 73.082 111.895 73.3574 111.824L73.7793 111.728L73.9551 113.441H74.043C74.0781 113.395 74.1279 113.333 74.1924 113.257C74.2627 113.175 74.4062 113.037 74.623 112.844C74.8398 112.65 75.0654 112.48 75.2998 112.334C75.5342 112.182 75.8301 112.044 76.1875 111.921C76.5449 111.792 76.9111 111.728 77.2861 111.728C78.1768 111.728 78.8799 112.035 79.3955 112.65C79.9111 113.26 80.1689 114.153 80.1689 115.331ZM89.9688 114.883V118.302C89.9688 118.964 90.0625 119.415 90.25 119.655C90.4375 119.89 90.7627 120.007 91.2256 120.007V120.64C90.6982 120.687 90.165 120.757 89.626 120.851C89.0869 120.938 88.6797 121.012 88.4043 121.07L87.9912 121.176L87.8066 119.471H87.7188C87.6836 119.518 87.6338 119.582 87.5693 119.664C87.5107 119.74 87.3818 119.875 87.1826 120.068C86.9893 120.256 86.7812 120.426 86.5586 120.578C86.3359 120.725 86.0488 120.862 85.6973 120.991C85.3516 121.114 85.0059 121.176 84.6602 121.176C83.916 121.176 83.3242 120.982 82.8848 120.596C82.4453 120.203 82.2256 119.708 82.2256 119.11C82.2256 118.595 82.4102 118.12 82.7793 117.687C83.1543 117.253 83.6055 116.913 84.1328 116.667C84.666 116.421 85.1963 116.213 85.7236 116.043C86.251 115.867 86.6992 115.75 87.0684 115.691L87.6309 115.604V115.059C87.6309 113.5 87.0596 112.721 85.917 112.721C85.7236 112.721 85.5303 112.744 85.3369 112.791C85.1494 112.838 85.0029 112.885 84.8975 112.932L84.748 112.993L84.1152 114.971H82.8584V112.633C82.9756 112.562 83.1426 112.48 83.3594 112.387C83.5762 112.287 84.0098 112.152 84.6602 111.982C85.3105 111.812 85.9404 111.728 86.5498 111.728C87.6162 111.728 88.4512 112.015 89.0547 112.589C89.6641 113.157 89.9688 113.922 89.9688 114.883ZM85.7412 119.471C86.0635 119.471 86.3799 119.397 86.6904 119.251C87.0068 119.099 87.2412 118.949 87.3936 118.803L87.6309 118.574V116.5C87.5488 116.512 87.4404 116.529 87.3057 116.553C87.1709 116.576 86.9336 116.644 86.5938 116.755C86.2539 116.86 85.9551 116.983 85.6973 117.124C85.4395 117.259 85.2021 117.446 84.9854 117.687C84.7686 117.927 84.6602 118.19 84.6602 118.478C84.6602 119.14 85.0205 119.471 85.7412 119.471ZM87.2705 109.838L86.0137 109.478C85.5918 109.36 85.2607 109.302 85.0205 109.302C84.7451 109.302 84.5049 109.51 84.2998 109.926L83.667 109.75L83.9395 108.854C84.1445 108.191 84.5049 107.86 85.0205 107.86C85.1553 107.86 85.3105 107.875 85.4863 107.904C85.668 107.934 85.8174 107.966 85.9346 108.001L86.1016 108.036L87.3584 108.396C87.7803 108.514 88.1113 108.575 88.3516 108.581C88.6152 108.581 88.8555 108.37 89.0723 107.948L89.6963 108.133L89.4326 109.029C89.2275 109.691 88.8672 110.022 88.3516 110.022C88.2168 110.022 88.0586 110.008 87.877 109.979C87.7012 109.943 87.5576 109.908 87.4463 109.873L87.2705 109.838ZM99.3291 116.588C99.3291 115.281 99.0947 114.297 98.626 113.635C98.1572 112.967 97.5801 112.633 96.8945 112.633C96.2969 112.633 95.7725 112.955 95.3213 113.6C94.8701 114.238 94.6445 115.146 94.6445 116.324C94.6445 117.631 94.8789 118.618 95.3477 119.286C95.8164 119.948 96.3936 120.279 97.0791 120.279C97.6768 120.279 98.2012 119.96 98.6523 119.321C99.1035 118.677 99.3291 117.766 99.3291 116.588ZM101.755 116.412C101.755 117.766 101.286 118.899 100.349 119.813C99.417 120.722 98.2363 121.176 96.8066 121.176C95.4531 121.176 94.3486 120.745 93.4932 119.884C92.6436 119.022 92.2188 117.895 92.2188 116.5C92.2188 115.146 92.6846 114.013 93.6162 113.099C94.5537 112.185 95.7373 111.728 97.167 111.728C98.5205 111.728 99.6221 112.161 100.472 113.028C101.327 113.89 101.755 115.018 101.755 116.412ZM113.286 111.728C113.526 111.728 113.767 111.751 114.007 111.798C114.247 111.839 114.426 111.883 114.543 111.93L114.728 112V109.39C114.728 108.728 114.634 108.276 114.446 108.036C114.259 107.796 113.934 107.676 113.471 107.676V107.052C114.033 107.005 114.613 106.929 115.211 106.823C115.814 106.712 116.271 106.612 116.582 106.524L117.065 106.419V118.302C117.065 118.964 117.159 119.415 117.347 119.655C117.534 119.89 117.862 120.007 118.331 120.007V120.64C117.804 120.687 117.268 120.757 116.723 120.851C116.184 120.938 115.776 121.012 115.501 121.07L115.088 121.176L114.903 119.471H114.815C114.78 119.518 114.733 119.582 114.675 119.664C114.616 119.74 114.481 119.875 114.271 120.068C114.06 120.256 113.84 120.426 113.611 120.578C113.383 120.725 113.099 120.862 112.759 120.991C112.425 121.114 112.091 121.176 111.757 121.176C110.819 121.176 110.014 120.78 109.34 119.989C108.672 119.198 108.338 118.155 108.338 116.86C108.338 115.29 108.789 114.042 109.691 113.116C110.6 112.19 111.798 111.728 113.286 111.728ZM113.014 112.721C112.375 112.721 111.839 113.031 111.405 113.652C110.978 114.268 110.764 115.188 110.764 116.412C110.764 118.451 111.455 119.471 112.838 119.471C113.16 119.471 113.477 119.397 113.787 119.251C114.104 119.099 114.338 118.943 114.49 118.785L114.728 118.548V113.441C114.681 113.395 114.61 113.33 114.517 113.248C114.429 113.16 114.235 113.052 113.937 112.923C113.644 112.788 113.336 112.721 113.014 112.721ZM123.824 112.721C123.344 112.721 122.925 112.94 122.567 113.38C122.216 113.813 121.976 114.464 121.847 115.331L125.266 115.059C125.266 113.5 124.785 112.721 123.824 112.721ZM124 111.728C125.131 111.728 126.016 112.056 126.654 112.712C127.299 113.368 127.645 114.3 127.691 115.507L126.795 116.228H121.75V116.324C121.75 117.297 122.022 118.079 122.567 118.671C123.118 119.263 123.807 119.559 124.633 119.559C125.137 119.559 125.614 119.494 126.065 119.365C126.517 119.23 126.836 119.093 127.023 118.952L127.331 118.75L127.691 119.11C127.656 119.169 127.604 119.245 127.533 119.339C127.463 119.427 127.305 119.591 127.059 119.831C126.812 120.071 126.546 120.282 126.259 120.464C125.978 120.64 125.608 120.804 125.151 120.956C124.7 121.103 124.229 121.176 123.736 121.176C122.465 121.176 121.41 120.748 120.572 119.893C119.74 119.037 119.324 117.938 119.324 116.597C119.324 115.249 119.784 114.101 120.704 113.151C121.63 112.202 122.729 111.728 124 111.728ZM132.815 121.176L129.484 113.978C129.209 113.38 128.96 112.99 128.737 112.809C128.515 112.627 128.163 112.536 127.683 112.536V111.912H132.903V112.536L131.462 112.809L133.536 117.133L133.809 118.214H133.896L135.874 113.978C135.991 113.679 136.053 113.409 136.059 113.169C136.059 112.747 135.637 112.536 134.793 112.536V111.912H138.933V112.536L137.676 112.809L133.809 121.176H132.815ZM143.512 112.721C143.031 112.721 142.612 112.94 142.255 113.38C141.903 113.813 141.663 114.464 141.534 115.331L144.953 115.059C144.953 113.5 144.473 112.721 143.512 112.721ZM143.688 111.728C144.818 111.728 145.703 112.056 146.342 112.712C146.986 113.368 147.332 114.3 147.379 115.507L146.482 116.228H141.438V116.324C141.438 117.297 141.71 118.079 142.255 118.671C142.806 119.263 143.494 119.559 144.32 119.559C144.824 119.559 145.302 119.494 145.753 119.365C146.204 119.23 146.523 119.093 146.711 118.952L147.019 118.75L147.379 119.11C147.344 119.169 147.291 119.245 147.221 119.339C147.15 119.427 146.992 119.591 146.746 119.831C146.5 120.071 146.233 120.282 145.946 120.464C145.665 120.64 145.296 120.804 144.839 120.956C144.388 121.103 143.916 121.176 143.424 121.176C142.152 121.176 141.098 120.748 140.26 119.893C139.428 119.037 139.012 117.938 139.012 116.597C139.012 115.249 139.472 114.101 140.392 113.151C141.317 112.202 142.416 111.728 143.688 111.728ZM21.5811 141.75C21.5811 141.439 21.417 141.158 21.0889 140.906C20.7666 140.654 20.377 140.426 19.9199 140.221C19.4688 140.016 19.0146 139.796 18.5576 139.562C18.1006 139.327 17.708 139.014 17.3799 138.621C17.0576 138.223 16.8965 137.766 16.8965 137.25C16.8965 136.529 17.2012 135.929 17.8105 135.448C18.4258 134.968 19.293 134.728 20.4121 134.728C20.8926 134.728 21.3555 134.774 21.8008 134.868C22.252 134.956 22.5859 135.047 22.8027 135.141L23.1104 135.272V137.61H22.3721C22.2139 136.292 21.5898 135.633 20.5 135.633C20.1133 135.633 19.791 135.741 19.5332 135.958C19.2754 136.169 19.1465 136.421 19.1465 136.714C19.1465 137.071 19.3076 137.376 19.6299 137.628C19.958 137.88 20.3506 138.097 20.8076 138.278C21.2646 138.454 21.7188 138.647 22.1699 138.858C22.627 139.069 23.0166 139.374 23.3389 139.772C23.667 140.165 23.8311 140.646 23.8311 141.214C23.8311 142.063 23.4883 142.77 22.8027 143.332C22.1172 143.895 21.1709 144.176 19.9639 144.176C19.3545 144.176 18.7686 144.117 18.2061 144C17.6494 143.883 17.251 143.763 17.0107 143.64L16.6328 143.464V140.757H17.3535C17.4883 141.571 17.7725 142.195 18.2061 142.629C18.6455 143.062 19.1992 143.279 19.8672 143.279C20.3477 143.279 20.752 143.127 21.0801 142.822C21.4141 142.518 21.5811 142.16 21.5811 141.75ZM29.6758 135.721C29.1953 135.721 28.7764 135.94 28.4189 136.38C28.0674 136.813 27.8271 137.464 27.6982 138.331L31.1172 138.059C31.1172 136.5 30.6367 135.721 29.6758 135.721ZM29.8516 134.728C30.9824 134.728 31.8672 135.056 32.5059 135.712C33.1504 136.368 33.4961 137.3 33.543 138.507L32.6465 139.228H27.6016V139.324C27.6016 140.297 27.874 141.079 28.4189 141.671C28.9697 142.263 29.6582 142.559 30.4844 142.559C30.9883 142.559 31.4658 142.494 31.917 142.365C32.3682 142.23 32.6875 142.093 32.875 141.952L33.1826 141.75L33.543 142.11C33.5078 142.169 33.4551 142.245 33.3848 142.339C33.3145 142.427 33.1562 142.591 32.9102 142.831C32.6641 143.071 32.3975 143.282 32.1104 143.464C31.8291 143.64 31.46 143.804 31.0029 143.956C30.5518 144.103 30.0801 144.176 29.5879 144.176C28.3164 144.176 27.2617 143.748 26.4238 142.893C25.5918 142.037 25.1758 140.938 25.1758 139.597C25.1758 138.249 25.6357 137.101 26.5557 136.151C27.4814 135.202 28.5801 134.728 29.8516 134.728ZM38.1396 137.426V141.838C38.1396 142.424 38.251 142.825 38.4736 143.042C38.7021 143.259 39.1299 143.367 39.7568 143.367V144H34.5361V143.367L35.793 143.104V137.61C35.793 136.948 35.6992 136.497 35.5117 136.257C35.3301 136.017 35.0049 135.896 34.5361 135.896V135.272C35.0635 135.226 35.5967 135.158 36.1357 135.07C36.6748 134.977 37.082 134.895 37.3574 134.824L37.7793 134.728L37.9551 136.441H38.043C38.0781 136.395 38.125 136.333 38.1836 136.257C38.248 136.175 38.3857 136.037 38.5967 135.844C38.8076 135.65 39.0186 135.48 39.2295 135.334C39.4463 135.182 39.7158 135.044 40.0381 134.921C40.3662 134.792 40.6914 134.728 41.0137 134.728C41.2539 134.728 41.4883 134.751 41.7168 134.798C41.9453 134.839 42.1064 134.883 42.2002 134.93L42.3672 135V138.059H41.1982L40.5654 136.257C40.1318 136.257 39.7129 136.354 39.3086 136.547C38.9102 136.74 38.6143 136.934 38.4209 137.127L38.1396 137.426ZM51.0859 143.912V145.978C51.0859 146.563 51.209 146.965 51.4551 147.182C51.7012 147.398 52.1787 147.507 52.8877 147.507V148.14H47.4912V147.507L48.748 147.243V137.61C48.748 136.948 48.6543 136.497 48.4668 136.257C48.2852 136.017 47.96 135.896 47.4912 135.896V135.272C48.0186 135.226 48.5518 135.158 49.0908 135.07C49.6299 134.977 50.0371 134.895 50.3125 134.824L50.7256 134.728L50.9102 136.441H50.998C51.0332 136.395 51.0801 136.333 51.1387 136.257C51.2031 136.175 51.3379 136.037 51.543 135.844C51.7539 135.65 51.9736 135.48 52.2021 135.334C52.4307 135.182 52.7119 135.044 53.0459 134.921C53.3857 134.792 53.7227 134.728 54.0566 134.728C54.9941 134.728 55.7969 135.126 56.4648 135.923C57.1387 136.714 57.4756 137.757 57.4756 139.052C57.4756 140.622 57.0215 141.87 56.1133 142.796C55.2109 143.716 54.0156 144.176 52.5273 144.176C52.2871 144.176 52.0469 144.152 51.8066 144.105C51.5664 144.059 51.3877 144.012 51.2705 143.965L51.0859 143.912ZM52.7998 143.191C53.4385 143.191 53.9717 142.884 54.3994 142.269C54.833 141.647 55.0498 140.725 55.0498 139.5C55.0498 137.461 54.3584 136.441 52.9756 136.441C52.6885 136.441 52.3867 136.518 52.0703 136.67C51.7539 136.816 51.5107 136.969 51.3408 137.127L51.0859 137.338V142.286C51.1328 142.356 51.2061 142.441 51.3057 142.541C51.4111 142.635 51.6133 142.767 51.9121 142.937C52.2168 143.106 52.5127 143.191 52.7998 143.191ZM62.1689 137.426V141.838C62.1689 142.424 62.2803 142.825 62.5029 143.042C62.7314 143.259 63.1592 143.367 63.7861 143.367V144H58.5654V143.367L59.8223 143.104V137.61C59.8223 136.948 59.7285 136.497 59.541 136.257C59.3594 136.017 59.0342 135.896 58.5654 135.896V135.272C59.0928 135.226 59.626 135.158 60.165 135.07C60.7041 134.977 61.1113 134.895 61.3867 134.824L61.8086 134.728L61.9844 136.441H62.0723C62.1074 136.395 62.1543 136.333 62.2129 136.257C62.2773 136.175 62.415 136.037 62.626 135.844C62.8369 135.65 63.0479 135.48 63.2588 135.334C63.4756 135.182 63.7451 135.044 64.0674 134.921C64.3955 134.792 64.7207 134.728 65.043 134.728C65.2832 134.728 65.5176 134.751 65.7461 134.798C65.9746 134.839 66.1357 134.883 66.2295 134.93L66.3965 135V138.059H65.2275L64.5947 136.257C64.1611 136.257 63.7422 136.354 63.3379 136.547C62.9395 136.74 62.6436 136.934 62.4502 137.127L62.1689 137.426ZM74.3154 139.588C74.3154 138.281 74.0811 137.297 73.6123 136.635C73.1436 135.967 72.5664 135.633 71.8809 135.633C71.2832 135.633 70.7588 135.955 70.3076 136.6C69.8564 137.238 69.6309 138.146 69.6309 139.324C69.6309 140.631 69.8652 141.618 70.334 142.286C70.8027 142.948 71.3799 143.279 72.0654 143.279C72.6631 143.279 73.1875 142.96 73.6387 142.321C74.0898 141.677 74.3154 140.766 74.3154 139.588ZM76.7412 139.412C76.7412 140.766 76.2725 141.899 75.335 142.813C74.4033 143.722 73.2227 144.176 71.793 144.176C70.4395 144.176 69.335 143.745 68.4795 142.884C67.6299 142.022 67.2051 140.895 67.2051 139.5C67.2051 138.146 67.6709 137.013 68.6025 136.099C69.54 135.185 70.7236 134.728 72.1533 134.728C73.5068 134.728 74.6084 135.161 75.458 136.028C76.3135 136.89 76.7412 138.018 76.7412 139.412ZM87.4639 138.331V141.838C87.4639 142.459 87.5459 142.869 87.71 143.068C87.8799 143.268 88.2168 143.367 88.7207 143.367V144H83.8604V143.367L85.1172 143.104V138.419C85.1172 137.71 84.9824 137.203 84.7129 136.898C84.4434 136.594 84.0098 136.441 83.4121 136.441C83.0898 136.441 82.7617 136.518 82.4277 136.67C82.0996 136.816 81.8506 136.969 81.6807 137.127L81.4346 137.338V141.838C81.4346 142.459 81.5166 142.869 81.6807 143.068C81.8506 143.268 82.1875 143.367 82.6914 143.367V144H77.8311V143.367L79.0879 143.104V137.61C79.0879 136.948 78.9941 136.497 78.8066 136.257C78.625 136.017 78.2998 135.896 77.8311 135.896V135.272C78.3584 135.226 78.8916 135.158 79.4307 135.07C79.9697 134.977 80.377 134.895 80.6523 134.824L81.0742 134.728L81.25 136.441H81.3379C81.373 136.395 81.4229 136.333 81.4873 136.257C81.5576 136.175 81.7012 136.037 81.918 135.844C82.1348 135.65 82.3604 135.48 82.5947 135.334C82.8291 135.182 83.125 135.044 83.4824 134.921C83.8398 134.792 84.2061 134.728 84.5811 134.728C85.4717 134.728 86.1748 135.035 86.6904 135.65C87.2061 136.26 87.4639 137.153 87.4639 138.331ZM98.7051 141.302C98.7051 141.964 98.7988 142.415 98.9863 142.655C99.1738 142.89 99.502 143.007 99.9707 143.007V143.64C99.4434 143.687 98.9072 143.757 98.3623 143.851C97.8232 143.938 97.416 144.012 97.1406 144.07L96.7275 144.176L96.5518 142.471H96.4551C96.4199 142.518 96.3701 142.582 96.3057 142.664C96.2412 142.74 96.1006 142.875 95.8838 143.068C95.667 143.256 95.4414 143.426 95.207 143.578C94.9727 143.725 94.6738 143.862 94.3105 143.991C93.9531 144.114 93.5898 144.176 93.2207 144.176C92.3301 144.176 91.627 143.871 91.1113 143.262C90.5957 142.652 90.3379 141.759 90.3379 140.581V137.61C90.3379 136.948 90.2441 136.497 90.0566 136.257C89.875 136.017 89.5498 135.896 89.0811 135.896V135.272C89.6436 135.226 90.2236 135.149 90.8213 135.044C91.4248 134.933 91.8818 134.833 92.1924 134.745L92.6758 134.64V140.493C92.6758 141.202 92.8105 141.709 93.0801 142.014C93.3496 142.318 93.7861 142.471 94.3896 142.471C94.7119 142.471 95.0371 142.397 95.3652 142.251C95.6992 142.099 95.9482 141.949 96.1123 141.803L96.3672 141.574V137.61C96.3672 136.948 96.2734 136.497 96.0859 136.257C95.9043 136.017 95.5791 135.896 95.1104 135.896V135.272C95.6729 135.226 96.2529 135.149 96.8506 135.044C97.4541 134.933 97.917 134.833 98.2393 134.745L98.7051 134.64V141.302ZM110.228 138.331V141.838C110.228 142.459 110.31 142.869 110.474 143.068C110.644 143.268 110.98 143.367 111.484 143.367V144H106.624V143.367L107.881 143.104V138.419C107.881 137.71 107.746 137.203 107.477 136.898C107.207 136.594 106.773 136.441 106.176 136.441C105.854 136.441 105.525 136.518 105.191 136.67C104.863 136.816 104.614 136.969 104.444 137.127L104.198 137.338V141.838C104.198 142.459 104.28 142.869 104.444 143.068C104.614 143.268 104.951 143.367 105.455 143.367V144H100.595V143.367L101.852 143.104V137.61C101.852 136.948 101.758 136.497 101.57 136.257C101.389 136.017 101.063 135.896 100.595 135.896V135.272C101.122 135.226 101.655 135.158 102.194 135.07C102.733 134.977 103.141 134.895 103.416 134.824L103.838 134.728L104.014 136.441H104.102C104.137 136.395 104.187 136.333 104.251 136.257C104.321 136.175 104.465 136.037 104.682 135.844C104.898 135.65 105.124 135.48 105.358 135.334C105.593 135.182 105.889 135.044 106.246 134.921C106.604 134.792 106.97 134.728 107.345 134.728C108.235 134.728 108.938 135.035 109.454 135.65C109.97 136.26 110.228 137.153 110.228 138.331ZM112.469 139.588C112.469 138.223 112.955 137.071 113.928 136.134C114.9 135.196 116.125 134.728 117.602 134.728C118.164 134.728 118.686 134.798 119.166 134.938C119.646 135.073 119.98 135.208 120.168 135.343L120.476 135.536V138.243H119.395L118.586 135.993C118.346 135.812 117.985 135.721 117.505 135.721C116.784 135.721 116.169 136.037 115.659 136.67C115.149 137.297 114.895 138.149 114.895 139.228C114.895 140.235 115.167 141.044 115.712 141.653C116.263 142.257 116.951 142.559 117.777 142.559C118.281 142.559 118.759 142.494 119.21 142.365C119.661 142.23 119.98 142.093 120.168 141.952L120.476 141.75L120.836 142.11C120.801 142.169 120.748 142.245 120.678 142.339C120.607 142.427 120.449 142.591 120.203 142.831C119.957 143.071 119.69 143.282 119.403 143.464C119.122 143.64 118.753 143.804 118.296 143.956C117.845 144.103 117.373 144.176 116.881 144.176C115.656 144.176 114.613 143.736 113.752 142.857C112.896 141.973 112.469 140.883 112.469 139.588ZM125.345 134.64V141.838C125.345 142.459 125.427 142.869 125.591 143.068C125.761 143.268 126.098 143.367 126.602 143.367V144H121.741V143.367L122.998 143.104V137.61C122.998 136.948 122.904 136.497 122.717 136.257C122.535 136.017 122.21 135.896 121.741 135.896V135.272C122.304 135.226 122.884 135.149 123.481 135.044C124.085 134.933 124.548 134.833 124.87 134.745L125.345 134.64ZM123.147 132.609C122.872 132.334 122.734 131.991 122.734 131.581C122.734 131.171 122.872 130.828 123.147 130.553C123.423 130.277 123.763 130.14 124.167 130.14C124.577 130.14 124.92 130.277 125.195 130.553C125.471 130.828 125.608 131.171 125.608 131.581C125.608 131.991 125.471 132.334 125.195 132.609C124.92 132.885 124.577 133.022 124.167 133.022C123.763 133.022 123.423 132.885 123.147 132.609ZM135.145 137.883V141.302C135.145 141.964 135.238 142.415 135.426 142.655C135.613 142.89 135.938 143.007 136.401 143.007V143.64C135.874 143.687 135.341 143.757 134.802 143.851C134.263 143.938 133.855 144.012 133.58 144.07L133.167 144.176L132.982 142.471H132.895C132.859 142.518 132.81 142.582 132.745 142.664C132.687 142.74 132.558 142.875 132.358 143.068C132.165 143.256 131.957 143.426 131.734 143.578C131.512 143.725 131.225 143.862 130.873 143.991C130.527 144.114 130.182 144.176 129.836 144.176C129.092 144.176 128.5 143.982 128.061 143.596C127.621 143.203 127.401 142.708 127.401 142.11C127.401 141.595 127.586 141.12 127.955 140.687C128.33 140.253 128.781 139.913 129.309 139.667C129.842 139.421 130.372 139.213 130.899 139.043C131.427 138.867 131.875 138.75 132.244 138.691L132.807 138.604V138.059C132.807 136.5 132.235 135.721 131.093 135.721C130.899 135.721 130.706 135.744 130.513 135.791C130.325 135.838 130.179 135.885 130.073 135.932L129.924 135.993L129.291 137.971H128.034V135.633C128.151 135.562 128.318 135.48 128.535 135.387C128.752 135.287 129.186 135.152 129.836 134.982C130.486 134.812 131.116 134.728 131.726 134.728C132.792 134.728 133.627 135.015 134.23 135.589C134.84 136.157 135.145 136.922 135.145 137.883ZM130.917 142.471C131.239 142.471 131.556 142.397 131.866 142.251C132.183 142.099 132.417 141.949 132.569 141.803L132.807 141.574V139.5C132.725 139.512 132.616 139.529 132.481 139.553C132.347 139.576 132.109 139.644 131.77 139.755C131.43 139.86 131.131 139.983 130.873 140.124C130.615 140.259 130.378 140.446 130.161 140.687C129.944 140.927 129.836 141.19 129.836 141.478C129.836 142.14 130.196 142.471 130.917 142.471ZM142.343 134.728C142.583 134.728 142.823 134.751 143.063 134.798C143.304 134.839 143.482 134.883 143.6 134.93L143.784 135V132.39C143.784 131.728 143.69 131.276 143.503 131.036C143.315 130.796 142.99 130.676 142.527 130.676V130.052C143.09 130.005 143.67 129.929 144.268 129.823C144.871 129.712 145.328 129.612 145.639 129.524L146.122 129.419V141.302C146.122 141.964 146.216 142.415 146.403 142.655C146.591 142.89 146.919 143.007 147.388 143.007V143.64C146.86 143.687 146.324 143.757 145.779 143.851C145.24 143.938 144.833 144.012 144.558 144.07L144.145 144.176L143.96 142.471H143.872C143.837 142.518 143.79 142.582 143.731 142.664C143.673 142.74 143.538 142.875 143.327 143.068C143.116 143.256 142.896 143.426 142.668 143.578C142.439 143.725 142.155 143.862 141.815 143.991C141.481 144.114 141.147 144.176 140.813 144.176C139.876 144.176 139.07 143.78 138.396 142.989C137.729 142.198 137.395 141.155 137.395 139.86C137.395 138.29 137.846 137.042 138.748 136.116C139.656 135.19 140.854 134.728 142.343 134.728ZM142.07 135.721C141.432 135.721 140.896 136.031 140.462 136.652C140.034 137.268 139.82 138.188 139.82 139.412C139.82 141.451 140.512 142.471 141.895 142.471C142.217 142.471 142.533 142.397 142.844 142.251C143.16 142.099 143.395 141.943 143.547 141.785L143.784 141.548V136.441C143.737 136.395 143.667 136.33 143.573 136.248C143.485 136.16 143.292 136.052 142.993 135.923C142.7 135.788 142.393 135.721 142.07 135.721ZM155.491 139.588C155.491 138.281 155.257 137.297 154.788 136.635C154.319 135.967 153.742 135.633 153.057 135.633C152.459 135.633 151.935 135.955 151.483 136.6C151.032 137.238 150.807 138.146 150.807 139.324C150.807 140.631 151.041 141.618 151.51 142.286C151.979 142.948 152.556 143.279 153.241 143.279C153.839 143.279 154.363 142.96 154.814 142.321C155.266 141.677 155.491 140.766 155.491 139.588ZM157.917 139.412C157.917 140.766 157.448 141.899 156.511 142.813C155.579 143.722 154.398 144.176 152.969 144.176C151.615 144.176 150.511 143.745 149.655 142.884C148.806 142.022 148.381 140.895 148.381 139.5C148.381 138.146 148.847 137.013 149.778 136.099C150.716 135.185 151.899 134.728 153.329 134.728C154.683 134.728 155.784 135.161 156.634 136.028C157.489 136.89 157.917 138.018 157.917 139.412ZM159.868 143.763C159.593 143.487 159.455 143.147 159.455 142.743C159.455 142.333 159.593 141.99 159.868 141.715C160.144 141.439 160.486 141.302 160.896 141.302C161.307 141.302 161.649 141.439 161.925 141.715C162.2 141.99 162.338 142.333 162.338 142.743C162.338 143.147 162.2 143.487 161.925 143.763C161.649 144.038 161.307 144.176 160.896 144.176C160.486 144.176 160.144 144.038 159.868 143.763Z" fill="#ED1C24"/>
</svg>
