<svg width="227" height="134" viewBox="0 0 227 134" fill="none" xmlns="http://www.w3.org/2000/svg">
<rect x="0.5" y="0.5" width="226" height="133" fill="white" stroke="#ED1C24"/>
<path d="M17.8018 16.8811V12.2932H16.2725V11.6428C16.835 11.5725 17.3389 11.4319 17.7842 11.2209C18.2295 11.01 18.5342 10.8196 18.6982 10.6497L18.9355 10.4036H19.6035V15.6243C19.6035 16.1516 19.6943 16.509 19.876 16.6965C20.0635 16.8782 20.4209 16.969 20.9482 16.969V17.6018H16.4482V17.0569L17.8018 16.8811ZM24.1826 13.0667L22.8379 14.5432L22.3896 14.8069V14.9036H24.543V12.5217H24.4551L24.1826 13.0667ZM26.3447 15.8V15.9758C26.3447 16.3333 26.4297 16.5881 26.5996 16.7405C26.7695 16.8928 27.0742 16.969 27.5137 16.969V17.6018H23.374V17.0569L24.543 16.8811V15.8H21.2207V14.9915L25.3604 10.4915H26.3447V14.9036H27.4258V15.8H26.3447ZM39.5811 27.05H33.9121V26.4172L35.4414 26.0569V15.8C35.4414 14.9973 35.3447 14.4817 35.1514 14.2532C34.958 14.0247 34.5449 13.9104 33.9121 13.9104V13.1897H39.9414C42.0918 13.1897 43.7822 13.7961 45.0127 15.009C46.249 16.2219 46.8672 17.8655 46.8672 19.9397C46.8672 22.0608 46.2021 23.7776 44.8721 25.0901C43.542 26.3967 41.7783 27.05 39.5811 27.05ZM39.5811 14.1829H37.8672V26.0569H39.6689C41.0752 26.0569 42.1768 25.5793 42.9736 24.6243C43.7705 23.6633 44.1689 22.2219 44.1689 20.3C44.1689 18.1614 43.7793 16.6086 43 15.6418C42.2207 14.6692 41.0811 14.1829 39.5811 14.1829ZM51.6396 17.6897V24.8879C51.6396 25.509 51.7217 25.9192 51.8857 26.1184C52.0557 26.3176 52.3926 26.4172 52.8965 26.4172V27.05H48.0361V26.4172L49.293 26.1536V20.6604C49.293 19.9983 49.1992 19.5471 49.0117 19.3069C48.8301 19.0667 48.5049 18.9465 48.0361 18.9465V18.3225C48.5986 18.2756 49.1787 18.1995 49.7764 18.094C50.3799 17.9827 50.8428 17.8831 51.165 17.7952L51.6396 17.6897ZM49.4424 15.6594C49.167 15.384 49.0293 15.0413 49.0293 14.6311C49.0293 14.2209 49.167 13.8782 49.4424 13.6028C49.7178 13.3274 50.0576 13.1897 50.4619 13.1897C50.8721 13.1897 51.2148 13.3274 51.4902 13.6028C51.7656 13.8782 51.9033 14.2209 51.9033 14.6311C51.9033 15.0413 51.7656 15.384 51.4902 15.6594C51.2148 15.9348 50.8721 16.0725 50.4619 16.0725C50.0576 16.0725 49.7178 15.9348 49.4424 15.6594ZM54.874 26.1536V19.0432H53.5205V18.2258L54.874 17.9622V15.4397C54.874 13.342 55.9521 12.2932 58.1084 12.2932C58.5889 12.2932 59.0986 12.3694 59.6377 12.5217C60.1768 12.6682 60.5986 12.8176 60.9033 12.97L61.3516 13.1897V15.6243H60.0859L59.2773 13.55C59.0371 13.4329 58.7676 13.3743 58.4688 13.3743C57.6309 13.3743 57.2119 14.092 57.2119 15.5276V17.9622H59.9102V19.219H59.1016L57.2119 18.8586V24.8879C57.2119 25.4739 57.335 25.8752 57.5811 26.092C57.8271 26.3088 58.3047 26.4172 59.0137 26.4172V27.05H53.6084V26.4172L54.874 26.1536ZM65.1133 18.7708C64.6328 18.7708 64.2139 18.9905 63.8564 19.4299C63.5049 19.8635 63.2646 20.5139 63.1357 21.3811L66.5547 21.1086C66.5547 19.55 66.0742 18.7708 65.1133 18.7708ZM65.2891 17.7776C66.4199 17.7776 67.3047 18.1057 67.9434 18.762C68.5879 19.4182 68.9336 20.3499 68.9805 21.5569L68.084 22.2776H63.0391V22.3743C63.0391 23.3469 63.3115 24.1292 63.8564 24.7209C64.4072 25.3127 65.0957 25.6086 65.9219 25.6086C66.4258 25.6086 66.9033 25.5442 67.3545 25.4153C67.8057 25.2805 68.125 25.1428 68.3125 25.0022L68.6201 24.8L68.9805 25.1604C68.9453 25.219 68.8926 25.2952 68.8223 25.3889C68.752 25.4768 68.5938 25.6409 68.3477 25.8811C68.1016 26.1213 67.835 26.3323 67.5479 26.5139C67.2666 26.6897 66.8975 26.8538 66.4404 27.0061C65.9893 27.1526 65.5176 27.2258 65.0254 27.2258C63.7539 27.2258 62.6992 26.7981 61.8613 25.9426C61.0293 25.0872 60.6133 23.9885 60.6133 22.6467C60.6133 21.2991 61.0732 20.1506 61.9932 19.2014C62.9189 18.2522 64.0176 17.7776 65.2891 17.7776ZM73.5771 20.4758V24.8879C73.5771 25.4739 73.6885 25.8752 73.9111 26.092C74.1396 26.3088 74.5674 26.4172 75.1943 26.4172V27.05H69.9736V26.4172L71.2305 26.1536V20.6604C71.2305 19.9983 71.1367 19.5471 70.9492 19.3069C70.7676 19.0667 70.4424 18.9465 69.9736 18.9465V18.3225C70.501 18.2756 71.0342 18.2083 71.5732 18.1204C72.1123 18.0266 72.5195 17.9446 72.7949 17.8743L73.2168 17.7776L73.3926 19.4915H73.4805C73.5156 19.4446 73.5625 19.3831 73.6211 19.3069C73.6855 19.2249 73.8232 19.0872 74.0342 18.8938C74.2451 18.7004 74.4561 18.5305 74.667 18.384C74.8838 18.2317 75.1533 18.094 75.4756 17.9709C75.8037 17.842 76.1289 17.7776 76.4512 17.7776C76.6914 17.7776 76.9258 17.801 77.1543 17.8479C77.3828 17.8889 77.5439 17.9329 77.6377 17.9797L77.8047 18.05V21.1086H76.6357L76.0029 19.3069C75.5693 19.3069 75.1504 19.4036 74.7461 19.5969C74.3477 19.7903 74.0518 19.9836 73.8584 20.177L73.5771 20.4758ZM83.1133 18.7708C82.6328 18.7708 82.2139 18.9905 81.8564 19.4299C81.5049 19.8635 81.2646 20.5139 81.1357 21.3811L84.5547 21.1086C84.5547 19.55 84.0742 18.7708 83.1133 18.7708ZM83.2891 17.7776C84.4199 17.7776 85.3047 18.1057 85.9434 18.762C86.5879 19.4182 86.9336 20.3499 86.9805 21.5569L86.084 22.2776H81.0391V22.3743C81.0391 23.3469 81.3115 24.1292 81.8564 24.7209C82.4072 25.3127 83.0957 25.6086 83.9219 25.6086C84.4258 25.6086 84.9033 25.5442 85.3545 25.4153C85.8057 25.2805 86.125 25.1428 86.3125 25.0022L86.6201 24.8L86.9805 25.1604C86.9453 25.219 86.8926 25.2952 86.8223 25.3889C86.752 25.4768 86.5938 25.6409 86.3477 25.8811C86.1016 26.1213 85.835 26.3323 85.5479 26.5139C85.2666 26.6897 84.8975 26.8538 84.4404 27.0061C83.9893 27.1526 83.5176 27.2258 83.0254 27.2258C81.7539 27.2258 80.6992 26.7981 79.8613 25.9426C79.0293 25.0872 78.6133 23.9885 78.6133 22.6467C78.6133 21.2991 79.0732 20.1506 79.9932 19.2014C80.9189 18.2522 82.0176 17.7776 83.2891 17.7776ZM97.6064 21.3811V24.8879C97.6064 25.509 97.6885 25.9192 97.8525 26.1184C98.0225 26.3176 98.3594 26.4172 98.8633 26.4172V27.05H94.0029V26.4172L95.2598 26.1536V21.469C95.2598 20.76 95.125 20.2532 94.8555 19.9485C94.5859 19.6438 94.1523 19.4915 93.5547 19.4915C93.2324 19.4915 92.9043 19.5676 92.5703 19.72C92.2422 19.8665 91.9932 20.0188 91.8232 20.177L91.5771 20.3879V24.8879C91.5771 25.509 91.6592 25.9192 91.8232 26.1184C91.9932 26.3176 92.3301 26.4172 92.834 26.4172V27.05H87.9736V26.4172L89.2305 26.1536V20.6604C89.2305 19.9983 89.1367 19.5471 88.9492 19.3069C88.7676 19.0667 88.4424 18.9465 87.9736 18.9465V18.3225C88.501 18.2756 89.0342 18.2083 89.5732 18.1204C90.1123 18.0266 90.5195 17.9446 90.7949 17.8743L91.2168 17.7776L91.3926 19.4915H91.4805C91.5156 19.4446 91.5654 19.3831 91.6299 19.3069C91.7002 19.2249 91.8438 19.0872 92.0605 18.8938C92.2773 18.7004 92.5029 18.5305 92.7373 18.384C92.9717 18.2317 93.2676 18.094 93.625 17.9709C93.9824 17.842 94.3486 17.7776 94.7236 17.7776C95.6143 17.7776 96.3174 18.0852 96.833 18.7004C97.3486 19.3098 97.6064 20.2034 97.6064 21.3811ZM99.2236 19.0432V18.2258L100.665 17.9622V15.4397L102.458 14.8069H103.003V17.9622H105.877V19.219H104.893L103.003 18.8586V24.4397C103.003 25.2776 103.422 25.6965 104.26 25.6965C104.547 25.6965 104.825 25.6526 105.095 25.5647C105.364 25.4768 105.561 25.3831 105.684 25.2834L105.877 25.1604L106.237 25.6086C106.202 25.6555 106.155 25.717 106.097 25.7932C106.038 25.8635 105.909 25.9924 105.71 26.1799C105.511 26.3616 105.303 26.5256 105.086 26.6721C104.875 26.8186 104.603 26.9475 104.269 27.0588C103.94 27.1702 103.609 27.2258 103.275 27.2258C101.535 27.2258 100.665 26.3586 100.665 24.6243V19.0432H99.2236ZM111.643 18.7708C111.162 18.7708 110.743 18.9905 110.386 19.4299C110.034 19.8635 109.794 20.5139 109.665 21.3811L113.084 21.1086C113.084 19.55 112.604 18.7708 111.643 18.7708ZM111.818 17.7776C112.949 17.7776 113.834 18.1057 114.473 18.762C115.117 19.4182 115.463 20.3499 115.51 21.5569L114.613 22.2776H109.568V22.3743C109.568 23.3469 109.841 24.1292 110.386 24.7209C110.937 25.3127 111.625 25.6086 112.451 25.6086C112.955 25.6086 113.433 25.5442 113.884 25.4153C114.335 25.2805 114.654 25.1428 114.842 25.0022L115.149 24.8L115.51 25.1604C115.475 25.219 115.422 25.2952 115.352 25.3889C115.281 25.4768 115.123 25.6409 114.877 25.8811C114.631 26.1213 114.364 26.3323 114.077 26.5139C113.796 26.6897 113.427 26.8538 112.97 27.0061C112.519 27.1526 112.047 27.2258 111.555 27.2258C110.283 27.2258 109.229 26.7981 108.391 25.9426C107.559 25.0872 107.143 23.9885 107.143 22.6467C107.143 21.2991 107.603 20.1506 108.522 19.2014C109.448 18.2522 110.547 17.7776 111.818 17.7776ZM126.944 17.7776C127.185 17.7776 127.425 17.801 127.665 17.8479C127.905 17.8889 128.084 17.9329 128.201 17.9797L128.386 18.05V15.4397C128.386 14.7776 128.292 14.3264 128.104 14.0862C127.917 13.8459 127.592 13.7258 127.129 13.7258V13.1018C127.691 13.0549 128.271 12.9788 128.869 12.8733C129.473 12.762 129.93 12.6624 130.24 12.5745L130.724 12.469V24.3518C130.724 25.0139 130.817 25.4651 131.005 25.7053C131.192 25.9397 131.521 26.0569 131.989 26.0569V26.6897C131.462 26.7366 130.926 26.8069 130.381 26.9006C129.842 26.9885 129.435 27.0618 129.159 27.1204L128.746 27.2258L128.562 25.5208H128.474C128.438 25.5676 128.392 25.6321 128.333 25.7141C128.274 25.7903 128.14 25.925 127.929 26.1184C127.718 26.3059 127.498 26.4758 127.27 26.6282C127.041 26.7747 126.757 26.9124 126.417 27.0413C126.083 27.1643 125.749 27.2258 125.415 27.2258C124.478 27.2258 123.672 26.8303 122.998 26.0393C122.33 25.2483 121.996 24.2053 121.996 22.9104C121.996 21.3401 122.447 20.092 123.35 19.1663C124.258 18.2405 125.456 17.7776 126.944 17.7776ZM126.672 18.7708C126.033 18.7708 125.497 19.0813 125.063 19.7024C124.636 20.3176 124.422 21.2375 124.422 22.4622C124.422 24.5012 125.113 25.5208 126.496 25.5208C126.818 25.5208 127.135 25.4475 127.445 25.301C127.762 25.1487 127.996 24.9934 128.148 24.8352L128.386 24.5979V19.4915C128.339 19.4446 128.269 19.3801 128.175 19.2981C128.087 19.2102 127.894 19.1018 127.595 18.9729C127.302 18.8381 126.994 18.7708 126.672 18.7708ZM140.093 22.6379C140.093 21.3313 139.858 20.3469 139.39 19.6848C138.921 19.0168 138.344 18.6829 137.658 18.6829C137.061 18.6829 136.536 19.0051 136.085 19.6497C135.634 20.2883 135.408 21.1965 135.408 22.3743C135.408 23.6809 135.643 24.6682 136.111 25.3362C136.58 25.9983 137.157 26.3293 137.843 26.3293C138.44 26.3293 138.965 26.01 139.416 25.3713C139.867 24.7268 140.093 23.8157 140.093 22.6379ZM142.519 22.4622C142.519 23.8157 142.05 24.9495 141.112 25.8635C140.181 26.7717 139 27.2258 137.57 27.2258C136.217 27.2258 135.112 26.7952 134.257 25.9338C133.407 25.0725 132.982 23.9446 132.982 22.55C132.982 21.1965 133.448 20.0627 134.38 19.1487C135.317 18.2346 136.501 17.7776 137.931 17.7776C139.284 17.7776 140.386 18.2112 141.235 19.0784C142.091 19.9397 142.519 21.0676 142.519 22.4622ZM154.138 17.7776C154.483 17.7776 154.838 17.8245 155.201 17.9182C155.564 18.0061 155.834 18.0969 156.01 18.1907L156.3 18.3225L157.829 17.7776V29.0276C157.829 29.6487 157.914 30.0588 158.084 30.2581C158.254 30.4573 158.591 30.5569 159.095 30.5569V31.1897H153.874V30.5569L155.491 30.2932V25.6965H155.403C155.38 25.7317 155.339 25.7874 155.28 25.8635C155.228 25.9338 155.11 26.0569 154.929 26.2327C154.753 26.4084 154.562 26.5667 154.357 26.7073C154.152 26.842 153.88 26.9622 153.54 27.0676C153.206 27.1731 152.866 27.2258 152.521 27.2258C151.583 27.2258 150.777 26.8303 150.104 26.0393C149.436 25.2483 149.102 24.2053 149.102 22.9104C149.102 21.3401 149.556 20.092 150.464 19.1663C151.378 18.2405 152.603 17.7776 154.138 17.7776ZM153.777 18.7708C153.139 18.7708 152.603 19.0813 152.169 19.7024C151.741 20.3176 151.527 21.2375 151.527 22.4622C151.527 24.5012 152.219 25.5208 153.602 25.5208C153.924 25.5208 154.24 25.4475 154.551 25.301C154.867 25.1487 155.102 24.9934 155.254 24.8352L155.491 24.5979V19.5793C155.444 19.5208 155.374 19.4475 155.28 19.3596C155.192 19.2659 154.999 19.1458 154.7 18.9993C154.407 18.8469 154.1 18.7708 153.777 18.7708ZM169.264 24.3518C169.264 25.0139 169.357 25.4651 169.545 25.7053C169.732 25.9397 170.061 26.0569 170.529 26.0569V26.6897C170.002 26.7366 169.466 26.8069 168.921 26.9006C168.382 26.9885 167.975 27.0618 167.699 27.1204L167.286 27.2258L167.11 25.5208H167.014C166.979 25.5676 166.929 25.6321 166.864 25.7141C166.8 25.7903 166.659 25.925 166.442 26.1184C166.226 26.3059 166 26.4758 165.766 26.6282C165.531 26.7747 165.232 26.9124 164.869 27.0413C164.512 27.1643 164.148 27.2258 163.779 27.2258C162.889 27.2258 162.186 26.9211 161.67 26.3118C161.154 25.7024 160.896 24.8088 160.896 23.6311V20.6604C160.896 19.9983 160.803 19.5471 160.615 19.3069C160.434 19.0667 160.108 18.9465 159.64 18.9465V18.3225C160.202 18.2756 160.782 18.1995 161.38 18.094C161.983 17.9827 162.44 17.8831 162.751 17.7952L163.234 17.6897V23.5432C163.234 24.2522 163.369 24.759 163.639 25.0637C163.908 25.3684 164.345 25.5208 164.948 25.5208C165.271 25.5208 165.596 25.4475 165.924 25.301C166.258 25.1487 166.507 24.9993 166.671 24.8528L166.926 24.6243V20.6604C166.926 19.9983 166.832 19.5471 166.645 19.3069C166.463 19.0667 166.138 18.9465 165.669 18.9465V18.3225C166.231 18.2756 166.812 18.1995 167.409 18.094C168.013 17.9827 168.476 17.8831 168.798 17.7952L169.264 17.6897V24.3518ZM176.014 18.7708C175.533 18.7708 175.114 18.9905 174.757 19.4299C174.405 19.8635 174.165 20.5139 174.036 21.3811L177.455 21.1086C177.455 19.55 176.975 18.7708 176.014 18.7708ZM176.189 17.7776C177.32 17.7776 178.205 18.1057 178.844 18.762C179.488 19.4182 179.834 20.3499 179.881 21.5569L178.984 22.2776H173.939V22.3743C173.939 23.3469 174.212 24.1292 174.757 24.7209C175.308 25.3127 175.996 25.6086 176.822 25.6086C177.326 25.6086 177.804 25.5442 178.255 25.4153C178.706 25.2805 179.025 25.1428 179.213 25.0022L179.521 24.8L179.881 25.1604C179.846 25.219 179.793 25.2952 179.723 25.3889C179.652 25.4768 179.494 25.6409 179.248 25.8811C179.002 26.1213 178.735 26.3323 178.448 26.5139C178.167 26.6897 177.798 26.8538 177.341 27.0061C176.89 27.1526 176.418 27.2258 175.926 27.2258C174.654 27.2258 173.6 26.7981 172.762 25.9426C171.93 25.0872 171.514 23.9885 171.514 22.6467C171.514 21.2991 171.974 20.1506 172.894 19.2014C173.819 18.2522 174.918 17.7776 176.189 17.7776ZM21.2207 41.7708C20.7402 41.7708 20.3213 41.9905 19.9639 42.4299C19.6123 42.8635 19.3721 43.5139 19.2432 44.3811L22.6621 44.1086C22.6621 42.55 22.1816 41.7708 21.2207 41.7708ZM21.3965 40.7776C22.5273 40.7776 23.4121 41.1057 24.0508 41.762C24.6953 42.4182 25.041 43.3499 25.0879 44.5569L24.1914 45.2776H19.1465V45.3743C19.1465 46.3469 19.4189 47.1292 19.9639 47.7209C20.5146 48.3127 21.2031 48.6086 22.0293 48.6086C22.5332 48.6086 23.0107 48.5442 23.4619 48.4153C23.9131 48.2805 24.2324 48.1428 24.4199 48.0022L24.7275 47.8L25.0879 48.1604C25.0527 48.219 25 48.2952 24.9297 48.3889C24.8594 48.4768 24.7012 48.6409 24.4551 48.8811C24.209 49.1213 23.9424 49.3323 23.6553 49.5139C23.374 49.6897 23.0049 49.8538 22.5479 50.0061C22.0967 50.1526 21.625 50.2258 21.1328 50.2258C19.8613 50.2258 18.8066 49.7981 17.9688 48.9426C17.1367 48.0872 16.7207 46.9885 16.7207 45.6467C16.7207 44.2991 17.1807 43.1506 18.1006 42.2014C19.0264 41.2522 20.125 40.7776 21.3965 40.7776ZM31.3018 47.8C31.3018 47.4895 31.1377 47.2083 30.8096 46.9563C30.4873 46.7043 30.0977 46.4758 29.6406 46.2708C29.1895 46.0657 28.7354 45.8459 28.2783 45.6116C27.8213 45.3772 27.4287 45.0637 27.1006 44.6711C26.7783 44.2727 26.6172 43.8157 26.6172 43.3C26.6172 42.5793 26.9219 41.9788 27.5312 41.4983C28.1465 41.0178 29.0137 40.7776 30.1328 40.7776C30.6133 40.7776 31.0762 40.8245 31.5215 40.9182C31.9727 41.0061 32.3066 41.0969 32.5234 41.1907L32.8311 41.3225V43.6604H32.0928C31.9346 42.342 31.3105 41.6829 30.2207 41.6829C29.834 41.6829 29.5117 41.7913 29.2539 42.0081C28.9961 42.219 28.8672 42.4709 28.8672 42.7639C28.8672 43.1213 29.0283 43.426 29.3506 43.678C29.6787 43.9299 30.0713 44.1467 30.5283 44.3284C30.9854 44.5042 31.4395 44.6975 31.8906 44.9084C32.3477 45.1194 32.7373 45.4241 33.0596 45.8225C33.3877 46.2151 33.5518 46.6956 33.5518 47.2639C33.5518 48.1135 33.209 48.8196 32.5234 49.3821C31.8379 49.9446 30.8916 50.2258 29.6846 50.2258C29.0752 50.2258 28.4893 50.1672 27.9268 50.05C27.3701 49.9329 26.9717 49.8127 26.7314 49.6897L26.3535 49.5139V46.8069H27.0742C27.209 47.6213 27.4932 48.2454 27.9268 48.679C28.3662 49.1125 28.9199 49.3293 29.5879 49.3293C30.0684 49.3293 30.4727 49.177 30.8008 48.8723C31.1348 48.5676 31.3018 48.2102 31.3018 47.8ZM38.043 49.9622V52.0276C38.043 52.6135 38.166 53.0149 38.4121 53.2317C38.6582 53.4485 39.1357 53.5569 39.8447 53.5569V54.1897H34.4482V53.5569L35.7051 53.2932V43.6604C35.7051 42.9983 35.6113 42.5471 35.4238 42.3069C35.2422 42.0667 34.917 41.9465 34.4482 41.9465V41.3225C34.9756 41.2756 35.5088 41.2083 36.0479 41.1204C36.5869 41.0266 36.9941 40.9446 37.2695 40.8743L37.6826 40.7776L37.8672 42.4915H37.9551C37.9902 42.4446 38.0371 42.3831 38.0957 42.3069C38.1602 42.2249 38.2949 42.0872 38.5 41.8938C38.7109 41.7004 38.9307 41.5305 39.1592 41.384C39.3877 41.2317 39.6689 41.094 40.0029 40.9709C40.3428 40.842 40.6797 40.7776 41.0137 40.7776C41.9512 40.7776 42.7539 41.176 43.4219 41.9729C44.0957 42.7639 44.4326 43.8069 44.4326 45.1018C44.4326 46.6721 43.9785 47.9202 43.0703 48.8459C42.168 49.7659 40.9727 50.2258 39.4844 50.2258C39.2441 50.2258 39.0039 50.2024 38.7637 50.1555C38.5234 50.1086 38.3447 50.0618 38.2275 50.0149L38.043 49.9622ZM39.7568 49.2415C40.3955 49.2415 40.9287 48.9338 41.3564 48.3186C41.79 47.6975 42.0068 46.7747 42.0068 45.55C42.0068 43.511 41.3154 42.4915 39.9326 42.4915C39.6455 42.4915 39.3438 42.5676 39.0273 42.72C38.7109 42.8665 38.4678 43.0188 38.2979 43.177L38.043 43.3879V48.3362C38.0898 48.4065 38.1631 48.4915 38.2627 48.5911C38.3682 48.6848 38.5703 48.8167 38.8691 48.9866C39.1738 49.1565 39.4697 49.2415 39.7568 49.2415ZM50.3828 41.7708C49.9023 41.7708 49.4834 41.9905 49.126 42.4299C48.7744 42.8635 48.5342 43.5139 48.4053 44.3811L51.8242 44.1086C51.8242 42.55 51.3438 41.7708 50.3828 41.7708ZM50.5586 40.7776C51.6895 40.7776 52.5742 41.1057 53.2129 41.762C53.8574 42.4182 54.2031 43.3499 54.25 44.5569L53.3535 45.2776H48.3086V45.3743C48.3086 46.3469 48.5811 47.1292 49.126 47.7209C49.6768 48.3127 50.3652 48.6086 51.1914 48.6086C51.6953 48.6086 52.1729 48.5442 52.624 48.4153C53.0752 48.2805 53.3945 48.1428 53.582 48.0022L53.8896 47.8L54.25 48.1604C54.2148 48.219 54.1621 48.2952 54.0918 48.3889C54.0215 48.4768 53.8633 48.6409 53.6172 48.8811C53.3711 49.1213 53.1045 49.3323 52.8174 49.5139C52.5361 49.6897 52.167 49.8538 51.71 50.0061C51.2588 50.1526 50.7871 50.2258 50.2949 50.2258C49.0234 50.2258 47.9688 49.7981 47.1309 48.9426C46.2988 48.0872 45.8828 46.9885 45.8828 45.6467C45.8828 44.2991 46.3428 43.1506 47.2627 42.2014C48.1885 41.2522 49.2871 40.7776 50.5586 40.7776ZM58.8467 43.4758V47.8879C58.8467 48.4739 58.958 48.8752 59.1807 49.092C59.4092 49.3088 59.8369 49.4172 60.4639 49.4172V50.05H55.2432V49.4172L56.5 49.1536V43.6604C56.5 42.9983 56.4062 42.5471 56.2188 42.3069C56.0371 42.0667 55.7119 41.9465 55.2432 41.9465V41.3225C55.7705 41.2756 56.3037 41.2083 56.8428 41.1204C57.3818 41.0266 57.7891 40.9446 58.0645 40.8743L58.4863 40.7776L58.6621 42.4915H58.75C58.7852 42.4446 58.832 42.3831 58.8906 42.3069C58.9551 42.2249 59.0928 42.0872 59.3037 41.8938C59.5146 41.7004 59.7256 41.5305 59.9365 41.384C60.1533 41.2317 60.4229 41.094 60.7451 40.9709C61.0732 40.842 61.3984 40.7776 61.7207 40.7776C61.9609 40.7776 62.1953 40.801 62.4238 40.8479C62.6523 40.8889 62.8135 40.9329 62.9072 40.9797L63.0742 41.05V44.1086H61.9053L61.2725 42.3069C60.8389 42.3069 60.4199 42.4036 60.0156 42.5969C59.6172 42.7903 59.3213 42.9836 59.1279 43.177L58.8467 43.4758ZM71.6172 43.9329V47.3518C71.6172 48.0139 71.7109 48.4651 71.8984 48.7053C72.0859 48.9397 72.4111 49.0569 72.874 49.0569V49.6897C72.3467 49.7366 71.8135 49.8069 71.2744 49.9006C70.7354 49.9885 70.3281 50.0618 70.0527 50.1204L69.6396 50.2258L69.4551 48.5208H69.3672C69.332 48.5676 69.2822 48.6321 69.2178 48.7141C69.1592 48.7903 69.0303 48.925 68.8311 49.1184C68.6377 49.3059 68.4297 49.4758 68.207 49.6282C67.9844 49.7747 67.6973 49.9124 67.3457 50.0413C67 50.1643 66.6543 50.2258 66.3086 50.2258C65.5645 50.2258 64.9727 50.0325 64.5332 49.6458C64.0938 49.2532 63.874 48.7581 63.874 48.1604C63.874 47.6448 64.0586 47.1702 64.4277 46.7366C64.8027 46.303 65.2539 45.9631 65.7812 45.717C66.3145 45.4709 66.8447 45.2629 67.3721 45.093C67.8994 44.9172 68.3477 44.8 68.7168 44.7415L69.2793 44.6536V44.1086C69.2793 42.55 68.708 41.7708 67.5654 41.7708C67.3721 41.7708 67.1787 41.7942 66.9854 41.8411C66.7979 41.8879 66.6514 41.9348 66.5459 41.9817L66.3965 42.0432L65.7637 44.0208H64.5068V41.6829C64.624 41.6125 64.791 41.5305 65.0078 41.4368C65.2246 41.3372 65.6582 41.2024 66.3086 41.0325C66.959 40.8625 67.5889 40.7776 68.1982 40.7776C69.2646 40.7776 70.0996 41.0647 70.7031 41.6389C71.3125 42.2073 71.6172 42.9719 71.6172 43.9329ZM67.3896 48.5208C67.7119 48.5208 68.0283 48.4475 68.3389 48.301C68.6553 48.1487 68.8896 47.9993 69.042 47.8528L69.2793 47.6243V45.55C69.1973 45.5618 69.0889 45.5793 68.9541 45.6028C68.8193 45.6262 68.582 45.6936 68.2422 45.8049C67.9023 45.9104 67.6035 46.0334 67.3457 46.1741C67.0879 46.3088 66.8506 46.4963 66.6338 46.7366C66.417 46.9768 66.3086 47.2405 66.3086 47.5276C66.3086 48.1897 66.6689 48.5208 67.3896 48.5208ZM77.4619 50.2258L74.1309 43.0276C73.8555 42.4299 73.6064 42.0403 73.3838 41.8586C73.1611 41.677 72.8096 41.5862 72.3291 41.5862V40.9622H77.5498V41.5862L76.1084 41.8586L78.1826 46.1829L78.4551 47.2639H78.543L80.5205 43.0276C80.6377 42.7288 80.6992 42.4592 80.7051 42.219C80.7051 41.7971 80.2832 41.5862 79.4395 41.5862V40.9622H83.5791V41.5862L82.3223 41.8586L78.4551 50.2258H77.4619ZM91.4102 43.9329V47.3518C91.4102 48.0139 91.5039 48.4651 91.6914 48.7053C91.8789 48.9397 92.2041 49.0569 92.667 49.0569V49.6897C92.1396 49.7366 91.6064 49.8069 91.0674 49.9006C90.5283 49.9885 90.1211 50.0618 89.8457 50.1204L89.4326 50.2258L89.248 48.5208H89.1602C89.125 48.5676 89.0752 48.6321 89.0107 48.7141C88.9521 48.7903 88.8232 48.925 88.624 49.1184C88.4307 49.3059 88.2227 49.4758 88 49.6282C87.7773 49.7747 87.4902 49.9124 87.1387 50.0413C86.793 50.1643 86.4473 50.2258 86.1016 50.2258C85.3574 50.2258 84.7656 50.0325 84.3262 49.6458C83.8867 49.2532 83.667 48.7581 83.667 48.1604C83.667 47.6448 83.8516 47.1702 84.2207 46.7366C84.5957 46.303 85.0469 45.9631 85.5742 45.717C86.1074 45.4709 86.6377 45.2629 87.165 45.093C87.6924 44.9172 88.1406 44.8 88.5098 44.7415L89.0723 44.6536V44.1086C89.0723 42.55 88.501 41.7708 87.3584 41.7708C87.165 41.7708 86.9717 41.7942 86.7783 41.8411C86.5908 41.8879 86.4443 41.9348 86.3389 41.9817L86.1895 42.0432L85.5566 44.0208H84.2998V41.6829C84.417 41.6125 84.584 41.5305 84.8008 41.4368C85.0176 41.3372 85.4512 41.2024 86.1016 41.0325C86.752 40.8625 87.3818 40.7776 87.9912 40.7776C89.0576 40.7776 89.8926 41.0647 90.4961 41.6389C91.1055 42.2073 91.4102 42.9719 91.4102 43.9329ZM87.1826 48.5208C87.5049 48.5208 87.8213 48.4475 88.1318 48.301C88.4482 48.1487 88.6826 47.9993 88.835 47.8528L89.0723 47.6243V45.55C88.9902 45.5618 88.8818 45.5793 88.7471 45.6028C88.6123 45.6262 88.375 45.6936 88.0352 45.8049C87.6953 45.9104 87.3965 46.0334 87.1387 46.1741C86.8809 46.3088 86.6436 46.4963 86.4268 46.7366C86.21 46.9768 86.1016 47.2405 86.1016 47.5276C86.1016 48.1897 86.4619 48.5208 87.1826 48.5208ZM108.241 44.469V47.8879C108.241 48.509 108.323 48.9192 108.487 49.1184C108.657 49.3176 108.994 49.4172 109.498 49.4172V50.05H104.822V49.4172L105.903 49.1536V44.469C105.903 43.8069 105.757 43.3118 105.464 42.9836C105.177 42.6555 104.781 42.4915 104.277 42.4915C103.979 42.4915 103.68 42.5588 103.381 42.6936C103.082 42.8225 102.854 42.9573 102.695 43.0979L102.476 43.3C102.534 43.5403 102.566 43.9299 102.572 44.469V47.8879C102.572 48.509 102.651 48.9192 102.81 49.1184C102.974 49.3176 103.284 49.4172 103.741 49.4172V50.05H99.1533V49.4172L100.226 49.1536V44.469C100.226 43.8069 100.082 43.3118 99.7949 42.9836C99.5078 42.6555 99.1123 42.4915 98.6084 42.4915C98.3447 42.4915 98.0693 42.5588 97.7822 42.6936C97.4951 42.8225 97.2725 42.9573 97.1143 43.0979L96.9033 43.3V47.8879C96.9033 48.509 96.9824 48.9192 97.1406 49.1184C97.3047 49.3176 97.6152 49.4172 98.0723 49.4172V50.05H93.2998V49.4172L94.5566 49.1536V43.6604C94.5566 42.9983 94.4629 42.5471 94.2754 42.3069C94.0938 42.0667 93.7686 41.9465 93.2998 41.9465V41.3225C93.8271 41.2756 94.3604 41.2083 94.8994 41.1204C95.4385 41.0266 95.8457 40.9446 96.1211 40.8743L96.543 40.7776L96.7188 42.3069H96.8066C96.8418 42.2717 96.8887 42.219 96.9473 42.1487C97.0117 42.0784 97.1436 41.9553 97.3428 41.7795C97.542 41.6038 97.7471 41.4485 97.958 41.3137C98.1748 41.1731 98.4473 41.05 98.7754 40.9446C99.1094 40.8333 99.4434 40.7776 99.7773 40.7776C100.117 40.7776 100.431 40.8333 100.718 40.9446C101.005 41.05 101.236 41.179 101.412 41.3313C101.594 41.4778 101.746 41.6243 101.869 41.7708C101.998 41.9114 102.089 42.0374 102.142 42.1487L102.212 42.3069H102.3C102.335 42.2717 102.382 42.219 102.44 42.1487C102.505 42.0784 102.637 41.9553 102.836 41.7795C103.041 41.6038 103.258 41.4485 103.486 41.3137C103.715 41.1731 104.005 41.05 104.356 40.9446C104.714 40.8333 105.077 40.7776 105.446 40.7776C106.296 40.7776 106.973 41.0911 107.477 41.718C107.986 42.3391 108.241 43.2561 108.241 44.469ZM110.983 49.8127C110.708 49.5374 110.57 49.1975 110.57 48.7932C110.57 48.3831 110.708 48.0403 110.983 47.7649C111.259 47.4895 111.602 47.3518 112.012 47.3518C112.422 47.3518 112.765 47.4895 113.04 47.7649C113.315 48.0403 113.453 48.3831 113.453 48.7932C113.453 49.1975 113.315 49.5374 113.04 49.8127C112.765 50.0881 112.422 50.2258 112.012 50.2258C111.602 50.2258 111.259 50.0881 110.983 49.8127ZM17.8018 85.8811V81.2932H16.2725V80.6428C16.835 80.5725 17.3389 80.4319 17.7842 80.2209C18.2295 80.01 18.5342 79.8196 18.6982 79.6497L18.9355 79.4036H19.6035V84.6243C19.6035 85.1516 19.6943 85.509 19.876 85.6965C20.0635 85.8782 20.4209 85.969 20.9482 85.969V86.6018H16.4482V86.0569L17.8018 85.8811ZM27.0654 80.7483H23.4707L23.2861 82.3743H23.374C23.6143 82.134 24.0654 82.0139 24.7275 82.0139C25.6182 82.0139 26.3213 82.2395 26.8369 82.6907C27.3525 83.136 27.6104 83.6897 27.6104 84.3518C27.6104 85.0608 27.3027 85.6526 26.6875 86.1272C26.0781 86.5959 25.2432 86.8303 24.1826 86.8303C23.8135 86.8303 23.4385 86.7834 23.0576 86.6897C22.6826 86.5959 22.4043 86.4993 22.2227 86.3997L21.9326 86.2415V84.3518H22.75L23.2334 85.7932C23.4502 85.9104 23.7373 85.969 24.0947 85.969C24.5869 85.969 24.9648 85.843 25.2285 85.5911C25.4922 85.3391 25.624 84.9846 25.624 84.5276C25.624 84.0354 25.4834 83.6428 25.2021 83.3499C24.9209 83.0569 24.5518 82.9104 24.0947 82.9104C23.8545 82.9104 23.6289 82.9573 23.418 83.051C23.2129 83.1389 23.0664 83.2239 22.9785 83.3059L22.8379 83.4465L22.2051 82.9104L22.6533 79.4915H27.25L27.0654 80.7483ZM44.5293 92.2708V84.8C44.5293 83.9973 44.4326 83.4817 44.2393 83.2532C44.0518 83.0247 43.6387 82.9104 43 82.9104V82.1897H47.4121V82.8225L45.8828 83.1829V96.2258H44.7139L37.1553 85.7932L36.7949 84.8H36.6982V93.4397C36.6982 94.2424 36.7949 94.7581 36.9883 94.9866C37.1816 95.2151 37.5947 95.3293 38.2275 95.3293V96.05H33.8242V95.4172L35.3535 95.0569V84.8C35.3535 83.9973 35.2568 83.4817 35.0635 83.2532C34.8701 83.0247 34.457 82.9104 33.8242 82.9104V82.1897H37.5156L44.0811 91.2776L44.4414 92.2708H44.5293ZM56.2363 89.9329V93.3518C56.2363 94.0139 56.3301 94.4651 56.5176 94.7053C56.7051 94.9397 57.0303 95.0569 57.4932 95.0569V95.6897C56.9658 95.7366 56.4326 95.8069 55.8936 95.9006C55.3545 95.9885 54.9473 96.0618 54.6719 96.1204L54.2588 96.2258L54.0742 94.5208H53.9863C53.9512 94.5676 53.9014 94.6321 53.8369 94.7141C53.7783 94.7903 53.6494 94.925 53.4502 95.1184C53.2568 95.3059 53.0488 95.4758 52.8262 95.6282C52.6035 95.7747 52.3164 95.9124 51.9648 96.0413C51.6191 96.1643 51.2734 96.2258 50.9277 96.2258C50.1836 96.2258 49.5918 96.0325 49.1523 95.6458C48.7129 95.2532 48.4932 94.7581 48.4932 94.1604C48.4932 93.6448 48.6777 93.1702 49.0469 92.7366C49.4219 92.303 49.873 91.9631 50.4004 91.717C50.9336 91.4709 51.4639 91.2629 51.9912 91.093C52.5186 90.9172 52.9668 90.8 53.3359 90.7415L53.8984 90.6536V90.1086C53.8984 88.55 53.3271 87.7708 52.1846 87.7708C51.9912 87.7708 51.7979 87.7942 51.6045 87.8411C51.417 87.8879 51.2705 87.9348 51.165 87.9817L51.0156 88.0432L50.3828 90.0208H49.126V87.6829C49.2432 87.6125 49.4102 87.5305 49.627 87.4368C49.8438 87.3372 50.2773 87.2024 50.9277 87.0325C51.5781 86.8625 52.208 86.7776 52.8174 86.7776C53.8838 86.7776 54.7188 87.0647 55.3223 87.6389C55.9316 88.2073 56.2363 88.9719 56.2363 89.9329ZM52.0088 94.5208C52.3311 94.5208 52.6475 94.4475 52.958 94.301C53.2744 94.1487 53.5088 93.9993 53.6611 93.8528L53.8984 93.6243V91.55C53.8164 91.5618 53.708 91.5793 53.5732 91.6028C53.4385 91.6262 53.2012 91.6936 52.8613 91.8049C52.5215 91.9104 52.2227 92.0334 51.9648 92.1741C51.707 92.3088 51.4697 92.4963 51.2529 92.7366C51.0361 92.9768 50.9277 93.2405 50.9277 93.5276C50.9277 94.1897 51.2881 94.5208 52.0088 94.5208ZM53.5381 84.8879L52.2812 84.5276C51.8594 84.4104 51.5283 84.3518 51.2881 84.3518C51.0127 84.3518 50.7725 84.5598 50.5674 84.9758L49.9346 84.8L50.207 83.9036C50.4121 83.2415 50.7725 82.9104 51.2881 82.9104C51.4229 82.9104 51.5781 82.925 51.7539 82.9543C51.9355 82.9836 52.085 83.0159 52.2021 83.051L52.3691 83.0862L53.626 83.4465C54.0479 83.5637 54.3789 83.6252 54.6191 83.6311C54.8828 83.6311 55.123 83.4202 55.3398 82.9983L55.9639 83.1829L55.7002 84.0793C55.4951 84.7415 55.1348 85.0725 54.6191 85.0725C54.4844 85.0725 54.3262 85.0579 54.1445 85.0286C53.9688 84.9934 53.8252 84.9583 53.7139 84.9231L53.5381 84.8879ZM65.5967 91.6379C65.5967 90.3313 65.3623 89.3469 64.8936 88.6848C64.4248 88.0168 63.8477 87.6829 63.1621 87.6829C62.5645 87.6829 62.04 88.0051 61.5889 88.6497C61.1377 89.2883 60.9121 90.1965 60.9121 91.3743C60.9121 92.6809 61.1465 93.6682 61.6152 94.3362C62.084 94.9983 62.6611 95.3293 63.3467 95.3293C63.9443 95.3293 64.4688 95.01 64.9199 94.3713C65.3711 93.7268 65.5967 92.8157 65.5967 91.6379ZM68.0225 91.4622C68.0225 92.8157 67.5537 93.9495 66.6162 94.8635C65.6846 95.7717 64.5039 96.2258 63.0742 96.2258C61.7207 96.2258 60.6162 95.7952 59.7607 94.9338C58.9111 94.0725 58.4863 92.9446 58.4863 91.55C58.4863 90.1965 58.9521 89.0627 59.8838 88.1487C60.8213 87.2346 62.0049 86.7776 63.4346 86.7776C64.7881 86.7776 65.8896 87.2112 66.7393 88.0784C67.5947 88.9397 68.0225 90.0676 68.0225 91.4622ZM74.6055 91.6379C74.6055 90.2727 75.0918 89.1213 76.0645 88.1838C77.0371 87.2463 78.2617 86.7776 79.7383 86.7776C80.3008 86.7776 80.8223 86.8479 81.3027 86.9885C81.7832 87.1233 82.1172 87.2581 82.3047 87.3928L82.6123 87.5862V90.2932H81.5312L80.7227 88.0432C80.4824 87.8616 80.1221 87.7708 79.6416 87.7708C78.9209 87.7708 78.3057 88.0872 77.7959 88.72C77.2861 89.3469 77.0312 90.1995 77.0312 91.2776C77.0312 92.2854 77.3037 93.094 77.8486 93.7034C78.3994 94.3069 79.0879 94.6086 79.9141 94.6086C80.418 94.6086 80.8955 94.5442 81.3467 94.4153C81.7979 94.2805 82.1172 94.1428 82.3047 94.0022L82.6123 93.8L82.9727 94.1604C82.9375 94.219 82.8848 94.2952 82.8145 94.3889C82.7441 94.4768 82.5859 94.6409 82.3398 94.8811C82.0938 95.1213 81.8271 95.3323 81.54 95.5139C81.2588 95.6897 80.8896 95.8538 80.4326 96.0061C79.9814 96.1526 79.5098 96.2258 79.0176 96.2258C77.793 96.2258 76.75 95.7864 75.8887 94.9075C75.0332 94.0227 74.6055 92.9329 74.6055 91.6379ZM91.1729 91.6379C91.1729 90.3313 90.9385 89.3469 90.4697 88.6848C90.001 88.0168 89.4238 87.6829 88.7383 87.6829C88.1406 87.6829 87.6162 88.0051 87.165 88.6497C86.7139 89.2883 86.4883 90.1965 86.4883 91.3743C86.4883 92.6809 86.7227 93.6682 87.1914 94.3362C87.6602 94.9983 88.2373 95.3293 88.9229 95.3293C89.5205 95.3293 90.0449 95.01 90.4961 94.3713C90.9473 93.7268 91.1729 92.8157 91.1729 91.6379ZM93.5986 91.4622C93.5986 92.8157 93.1299 93.9495 92.1924 94.8635C91.2607 95.7717 90.0801 96.2258 88.6504 96.2258C87.2969 96.2258 86.1924 95.7952 85.3369 94.9338C84.4873 94.0725 84.0625 92.9446 84.0625 91.55C84.0625 90.1965 84.5283 89.0627 85.46 88.1487C86.3975 87.2346 87.5811 86.7776 89.0107 86.7776C90.3643 86.7776 91.4658 87.2112 92.3154 88.0784C93.1709 88.9397 93.5986 90.0676 93.5986 91.4622ZM98.292 89.4758V93.8879C98.292 94.4739 98.4033 94.8752 98.626 95.092C98.8545 95.3088 99.2822 95.4172 99.9092 95.4172V96.05H94.6885V95.4172L95.9453 95.1536V89.6604C95.9453 88.9983 95.8516 88.5471 95.6641 88.3069C95.4824 88.0667 95.1572 87.9465 94.6885 87.9465V87.3225C95.2158 87.2756 95.749 87.2083 96.2881 87.1204C96.8271 87.0266 97.2344 86.9446 97.5098 86.8743L97.9316 86.7776L98.1074 88.4915H98.1953C98.2305 88.4446 98.2773 88.3831 98.3359 88.3069C98.4004 88.2249 98.5381 88.0872 98.749 87.8938C98.96 87.7004 99.1709 87.5305 99.3818 87.384C99.5986 87.2317 99.8682 87.094 100.19 86.9709C100.519 86.842 100.844 86.7776 101.166 86.7776C101.406 86.7776 101.641 86.801 101.869 86.8479C102.098 86.8889 102.259 86.9329 102.353 86.9797L102.52 87.05V90.1086H101.351L100.718 88.3069C100.284 88.3069 99.8652 88.4036 99.4609 88.5969C99.0625 88.7903 98.7666 88.9836 98.5732 89.177L98.292 89.4758ZM106.747 89.4758V93.8879C106.747 94.4739 106.858 94.8752 107.081 95.092C107.31 95.3088 107.737 95.4172 108.364 95.4172V96.05H103.144V95.4172L104.4 95.1536V89.6604C104.4 88.9983 104.307 88.5471 104.119 88.3069C103.938 88.0667 103.612 87.9465 103.144 87.9465V87.3225C103.671 87.2756 104.204 87.2083 104.743 87.1204C105.282 87.0266 105.689 86.9446 105.965 86.8743L106.387 86.7776L106.562 88.4915H106.65C106.686 88.4446 106.732 88.3831 106.791 88.3069C106.855 88.2249 106.993 88.0872 107.204 87.8938C107.415 87.7004 107.626 87.5305 107.837 87.384C108.054 87.2317 108.323 87.094 108.646 86.9709C108.974 86.842 109.299 86.7776 109.621 86.7776C109.861 86.7776 110.096 86.801 110.324 86.8479C110.553 86.8889 110.714 86.9329 110.808 86.9797L110.975 87.05V90.1086H109.806L109.173 88.3069C108.739 88.3069 108.32 88.4036 107.916 88.5969C107.518 88.7903 107.222 88.9836 107.028 89.177L106.747 89.4758ZM116.283 87.7708C115.803 87.7708 115.384 87.9905 115.026 88.4299C114.675 88.8635 114.435 89.5139 114.306 90.3811L117.725 90.1086C117.725 88.55 117.244 87.7708 116.283 87.7708ZM116.459 86.7776C117.59 86.7776 118.475 87.1057 119.113 87.762C119.758 88.4182 120.104 89.3499 120.15 90.5569L119.254 91.2776H114.209V91.3743C114.209 92.3469 114.481 93.1292 115.026 93.7209C115.577 94.3127 116.266 94.6086 117.092 94.6086C117.596 94.6086 118.073 94.5442 118.524 94.4153C118.976 94.2805 119.295 94.1428 119.482 94.0022L119.79 93.8L120.15 94.1604C120.115 94.219 120.062 94.2952 119.992 94.3889C119.922 94.4768 119.764 94.6409 119.518 94.8811C119.271 95.1213 119.005 95.3323 118.718 95.5139C118.437 95.6897 118.067 95.8538 117.61 96.0061C117.159 96.1526 116.688 96.2258 116.195 96.2258C114.924 96.2258 113.869 95.7981 113.031 94.9426C112.199 94.0872 111.783 92.9885 111.783 91.6467C111.783 90.2991 112.243 89.1506 113.163 88.2014C114.089 87.2522 115.188 86.7776 116.459 86.7776ZM126.364 93.8C126.364 93.4895 126.2 93.2083 125.872 92.9563C125.55 92.7043 125.16 92.4758 124.703 92.2708C124.252 92.0657 123.798 91.8459 123.341 91.6116C122.884 91.3772 122.491 91.0637 122.163 90.6711C121.841 90.2727 121.68 89.8157 121.68 89.3C121.68 88.5793 121.984 87.9788 122.594 87.4983C123.209 87.0178 124.076 86.7776 125.195 86.7776C125.676 86.7776 126.139 86.8245 126.584 86.9182C127.035 87.0061 127.369 87.0969 127.586 87.1907L127.894 87.3225V89.6604H127.155C126.997 88.342 126.373 87.6829 125.283 87.6829C124.896 87.6829 124.574 87.7913 124.316 88.0081C124.059 88.219 123.93 88.4709 123.93 88.7639C123.93 89.1213 124.091 89.426 124.413 89.678C124.741 89.9299 125.134 90.1467 125.591 90.3284C126.048 90.5042 126.502 90.6975 126.953 90.9084C127.41 91.1194 127.8 91.4241 128.122 91.8225C128.45 92.2151 128.614 92.6956 128.614 93.2639C128.614 94.1135 128.271 94.8196 127.586 95.3821C126.9 95.9446 125.954 96.2258 124.747 96.2258C124.138 96.2258 123.552 96.1672 122.989 96.05C122.433 95.9329 122.034 95.8127 121.794 95.6897L121.416 95.5139V92.8069H122.137C122.271 93.6213 122.556 94.2454 122.989 94.679C123.429 95.1125 123.982 95.3293 124.65 95.3293C125.131 95.3293 125.535 95.177 125.863 94.8723C126.197 94.5676 126.364 94.2102 126.364 93.8ZM133.105 95.9622V98.0276C133.105 98.6135 133.229 99.0149 133.475 99.2317C133.721 99.4485 134.198 99.5569 134.907 99.5569V100.19H129.511V99.5569L130.768 99.2932V89.6604C130.768 88.9983 130.674 88.5471 130.486 88.3069C130.305 88.0667 129.979 87.9465 129.511 87.9465V87.3225C130.038 87.2756 130.571 87.2083 131.11 87.1204C131.649 87.0266 132.057 86.9446 132.332 86.8743L132.745 86.7776L132.93 88.4915H133.018C133.053 88.4446 133.1 88.3831 133.158 88.3069C133.223 88.2249 133.357 88.0872 133.562 87.8938C133.773 87.7004 133.993 87.5305 134.222 87.384C134.45 87.2317 134.731 87.094 135.065 86.9709C135.405 86.842 135.742 86.7776 136.076 86.7776C137.014 86.7776 137.816 87.176 138.484 87.9729C139.158 88.7639 139.495 89.8069 139.495 91.1018C139.495 92.6721 139.041 93.9202 138.133 94.8459C137.23 95.7659 136.035 96.2258 134.547 96.2258C134.307 96.2258 134.066 96.2024 133.826 96.1555C133.586 96.1086 133.407 96.0618 133.29 96.0149L133.105 95.9622ZM134.819 95.2415C135.458 95.2415 135.991 94.9338 136.419 94.3186C136.853 93.6975 137.069 92.7747 137.069 91.55C137.069 89.511 136.378 88.4915 134.995 88.4915C134.708 88.4915 134.406 88.5676 134.09 88.72C133.773 88.8665 133.53 89.0188 133.36 89.177L133.105 89.3879V94.3362C133.152 94.4065 133.226 94.4915 133.325 94.5911C133.431 94.6848 133.633 94.8167 133.932 94.9866C134.236 95.1565 134.532 95.2415 134.819 95.2415ZM148.056 91.6379C148.056 90.3313 147.821 89.3469 147.353 88.6848C146.884 88.0168 146.307 87.6829 145.621 87.6829C145.023 87.6829 144.499 88.0051 144.048 88.6497C143.597 89.2883 143.371 90.1965 143.371 91.3743C143.371 92.6809 143.605 93.6682 144.074 94.3362C144.543 94.9983 145.12 95.3293 145.806 95.3293C146.403 95.3293 146.928 95.01 147.379 94.3713C147.83 93.7268 148.056 92.8157 148.056 91.6379ZM150.481 91.4622C150.481 92.8157 150.013 93.9495 149.075 94.8635C148.144 95.7717 146.963 96.2258 145.533 96.2258C144.18 96.2258 143.075 95.7952 142.22 94.9338C141.37 94.0725 140.945 92.9446 140.945 91.55C140.945 90.1965 141.411 89.0627 142.343 88.1487C143.28 87.2346 144.464 86.7776 145.894 86.7776C147.247 86.7776 148.349 87.2112 149.198 88.0784C150.054 88.9397 150.481 90.0676 150.481 91.4622ZM161.204 90.3811V93.8879C161.204 94.509 161.286 94.9192 161.45 95.1184C161.62 95.3176 161.957 95.4172 162.461 95.4172V96.05H157.601V95.4172L158.857 95.1536V90.469C158.857 89.76 158.723 89.2532 158.453 88.9485C158.184 88.6438 157.75 88.4915 157.152 88.4915C156.83 88.4915 156.502 88.5676 156.168 88.72C155.84 88.8665 155.591 89.0188 155.421 89.177L155.175 89.3879V93.8879C155.175 94.509 155.257 94.9192 155.421 95.1184C155.591 95.3176 155.928 95.4172 156.432 95.4172V96.05H151.571V95.4172L152.828 95.1536V89.6604C152.828 88.9983 152.734 88.5471 152.547 88.3069C152.365 88.0667 152.04 87.9465 151.571 87.9465V87.3225C152.099 87.2756 152.632 87.2083 153.171 87.1204C153.71 87.0266 154.117 86.9446 154.393 86.8743L154.814 86.7776L154.99 88.4915H155.078C155.113 88.4446 155.163 88.3831 155.228 88.3069C155.298 88.2249 155.441 88.0872 155.658 87.8938C155.875 87.7004 156.101 87.5305 156.335 87.384C156.569 87.2317 156.865 87.094 157.223 86.9709C157.58 86.842 157.946 86.7776 158.321 86.7776C159.212 86.7776 159.915 87.0852 160.431 87.7004C160.946 88.3098 161.204 89.2034 161.204 90.3811ZM168.394 86.7776C168.634 86.7776 168.874 86.801 169.114 86.8479C169.354 86.8889 169.533 86.9329 169.65 86.9797L169.835 87.05V84.4397C169.835 83.7776 169.741 83.3264 169.554 83.0862C169.366 82.8459 169.041 82.7258 168.578 82.7258V82.1018C169.141 82.0549 169.721 81.9788 170.318 81.8733C170.922 81.762 171.379 81.6624 171.689 81.5745L172.173 81.469V93.3518C172.173 94.0139 172.267 94.4651 172.454 94.7053C172.642 94.9397 172.97 95.0569 173.438 95.0569V95.6897C172.911 95.7366 172.375 95.8069 171.83 95.9006C171.291 95.9885 170.884 96.0618 170.608 96.1204L170.195 96.2258L170.011 94.5208H169.923C169.888 94.5676 169.841 94.6321 169.782 94.7141C169.724 94.7903 169.589 94.925 169.378 95.1184C169.167 95.3059 168.947 95.4758 168.719 95.6282C168.49 95.7747 168.206 95.9124 167.866 96.0413C167.532 96.1643 167.198 96.2258 166.864 96.2258C165.927 96.2258 165.121 95.8303 164.447 95.0393C163.779 94.2483 163.445 93.2053 163.445 91.9104C163.445 90.3401 163.896 89.092 164.799 88.1663C165.707 87.2405 166.905 86.7776 168.394 86.7776ZM168.121 87.7708C167.482 87.7708 166.946 88.0813 166.513 88.7024C166.085 89.3176 165.871 90.2375 165.871 91.4622C165.871 93.5012 166.562 94.5208 167.945 94.5208C168.268 94.5208 168.584 94.4475 168.895 94.301C169.211 94.1487 169.445 93.9934 169.598 93.8352L169.835 93.5979V88.4915C169.788 88.4446 169.718 88.3801 169.624 88.2981C169.536 88.2102 169.343 88.1018 169.044 87.9729C168.751 87.8381 168.443 87.7708 168.121 87.7708ZM177.675 86.6897V93.8879C177.675 94.509 177.757 94.9192 177.921 95.1184C178.091 95.3176 178.428 95.4172 178.932 95.4172V96.05H174.071V95.4172L175.328 95.1536V89.6604C175.328 88.9983 175.234 88.5471 175.047 88.3069C174.865 88.0667 174.54 87.9465 174.071 87.9465V87.3225C174.634 87.2756 175.214 87.1995 175.812 87.094C176.415 86.9827 176.878 86.8831 177.2 86.7952L177.675 86.6897ZM175.478 84.6594C175.202 84.384 175.064 84.0413 175.064 83.6311C175.064 83.2209 175.202 82.8782 175.478 82.6028C175.753 82.3274 176.093 82.1897 176.497 82.1897C176.907 82.1897 177.25 82.3274 177.525 82.6028C177.801 82.8782 177.938 83.2209 177.938 83.6311C177.938 84.0413 177.801 84.384 177.525 84.6594C177.25 84.9348 176.907 85.0725 176.497 85.0725C176.093 85.0725 175.753 84.9348 175.478 84.6594ZM187.475 89.9329V93.3518C187.475 94.0139 187.568 94.4651 187.756 94.7053C187.943 94.9397 188.269 95.0569 188.731 95.0569V95.6897C188.204 95.7366 187.671 95.8069 187.132 95.9006C186.593 95.9885 186.186 96.0618 185.91 96.1204L185.497 96.2258L185.312 94.5208H185.225C185.189 94.5676 185.14 94.6321 185.075 94.7141C185.017 94.7903 184.888 94.925 184.688 95.1184C184.495 95.3059 184.287 95.4758 184.064 95.6282C183.842 95.7747 183.555 95.9124 183.203 96.0413C182.857 96.1643 182.512 96.2258 182.166 96.2258C181.422 96.2258 180.83 96.0325 180.391 95.6458C179.951 95.2532 179.731 94.7581 179.731 94.1604C179.731 93.6448 179.916 93.1702 180.285 92.7366C180.66 92.303 181.111 91.9631 181.639 91.717C182.172 91.4709 182.702 91.2629 183.229 91.093C183.757 90.9172 184.205 90.8 184.574 90.7415L185.137 90.6536V90.1086C185.137 88.55 184.565 87.7708 183.423 87.7708C183.229 87.7708 183.036 87.7942 182.843 87.8411C182.655 87.8879 182.509 87.9348 182.403 87.9817L182.254 88.0432L181.621 90.0208H180.364V87.6829C180.481 87.6125 180.648 87.5305 180.865 87.4368C181.082 87.3372 181.516 87.2024 182.166 87.0325C182.816 86.8625 183.446 86.7776 184.056 86.7776C185.122 86.7776 185.957 87.0647 186.561 87.6389C187.17 88.2073 187.475 88.9719 187.475 89.9329ZM183.247 94.5208C183.569 94.5208 183.886 94.4475 184.196 94.301C184.513 94.1487 184.747 93.9993 184.899 93.8528L185.137 93.6243V91.55C185.055 91.5618 184.946 91.5793 184.812 91.6028C184.677 91.6262 184.439 91.6936 184.1 91.8049C183.76 91.9104 183.461 92.0334 183.203 92.1741C182.945 92.3088 182.708 92.4963 182.491 92.7366C182.274 92.9768 182.166 93.2405 182.166 93.5276C182.166 94.1897 182.526 94.5208 183.247 94.5208ZM24.2793 112.933V116.352C24.2793 117.014 24.373 117.465 24.5605 117.705C24.748 117.94 25.0732 118.057 25.5361 118.057V118.69C25.0088 118.737 24.4756 118.807 23.9365 118.901C23.3975 118.989 22.9902 119.062 22.7148 119.12L22.3018 119.226L22.1172 117.521H22.0293C21.9941 117.568 21.9443 117.632 21.8799 117.714C21.8213 117.79 21.6924 117.925 21.4932 118.118C21.2998 118.306 21.0918 118.476 20.8691 118.628C20.6465 118.775 20.3594 118.912 20.0078 119.041C19.6621 119.164 19.3164 119.226 18.9707 119.226C18.2266 119.226 17.6348 119.032 17.1953 118.646C16.7559 118.253 16.5361 117.758 16.5361 117.16C16.5361 116.645 16.7207 116.17 17.0898 115.737C17.4648 115.303 17.916 114.963 18.4434 114.717C18.9766 114.471 19.5068 114.263 20.0342 114.093C20.5615 113.917 21.0098 113.8 21.3789 113.741L21.9414 113.654V113.109C21.9414 111.55 21.3701 110.771 20.2275 110.771C20.0342 110.771 19.8408 110.794 19.6475 110.841C19.46 110.888 19.3135 110.935 19.208 110.982L19.0586 111.043L18.4258 113.021H17.1689V110.683C17.2861 110.613 17.4531 110.531 17.6699 110.437C17.8867 110.337 18.3203 110.202 18.9707 110.032C19.6211 109.863 20.251 109.778 20.8604 109.778C21.9268 109.778 22.7617 110.065 23.3652 110.639C23.9746 111.207 24.2793 111.972 24.2793 112.933ZM20.0518 117.521C20.374 117.521 20.6904 117.448 21.001 117.301C21.3174 117.149 21.5518 116.999 21.7041 116.853L21.9414 116.624V114.55C21.8594 114.562 21.751 114.579 21.6162 114.603C21.4814 114.626 21.2441 114.694 20.9043 114.805C20.5645 114.91 20.2656 115.033 20.0078 115.174C19.75 115.309 19.5127 115.496 19.2959 115.737C19.0791 115.977 18.9707 116.24 18.9707 116.528C18.9707 117.19 19.3311 117.521 20.0518 117.521ZM21.4932 108.609H20.9482L18.0742 107.167V105.278H19.3311L21.4932 107.888V108.609ZM31.3896 116.8C31.3896 116.49 31.2256 116.208 30.8975 115.956C30.5752 115.704 30.1855 115.476 29.7285 115.271C29.2773 115.066 28.8232 114.846 28.3662 114.612C27.9092 114.377 27.5166 114.064 27.1885 113.671C26.8662 113.273 26.7051 112.816 26.7051 112.3C26.7051 111.579 27.0098 110.979 27.6191 110.498C28.2344 110.018 29.1016 109.778 30.2207 109.778C30.7012 109.778 31.1641 109.824 31.6094 109.918C32.0605 110.006 32.3945 110.097 32.6113 110.191L32.9189 110.323V112.66H32.1807C32.0225 111.342 31.3984 110.683 30.3086 110.683C29.9219 110.683 29.5996 110.791 29.3418 111.008C29.084 111.219 28.9551 111.471 28.9551 111.764C28.9551 112.121 29.1162 112.426 29.4385 112.678C29.7666 112.93 30.1592 113.147 30.6162 113.328C31.0732 113.504 31.5273 113.698 31.9785 113.908C32.4355 114.119 32.8252 114.424 33.1475 114.823C33.4756 115.215 33.6396 115.696 33.6396 116.264C33.6396 117.114 33.2969 117.82 32.6113 118.382C31.9258 118.945 30.9795 119.226 29.7725 119.226C29.1631 119.226 28.5771 119.167 28.0146 119.05C27.458 118.933 27.0596 118.813 26.8193 118.69L26.4414 118.514V115.807H27.1621C27.2969 116.621 27.5811 117.245 28.0146 117.679C28.4541 118.113 29.0078 118.329 29.6758 118.329C30.1562 118.329 30.5605 118.177 30.8887 117.872C31.2227 117.568 31.3896 117.21 31.3896 116.8ZM44.9775 116.8C44.9775 116.49 44.8135 116.208 44.4854 115.956C44.1631 115.704 43.7734 115.476 43.3164 115.271C42.8652 115.066 42.4111 114.846 41.9541 114.612C41.4971 114.377 41.1045 114.064 40.7764 113.671C40.4541 113.273 40.293 112.816 40.293 112.3C40.293 111.579 40.5977 110.979 41.207 110.498C41.8223 110.018 42.6895 109.778 43.8086 109.778C44.2891 109.778 44.752 109.824 45.1973 109.918C45.6484 110.006 45.9824 110.097 46.1992 110.191L46.5068 110.323V112.66H45.7686C45.6104 111.342 44.9863 110.683 43.8965 110.683C43.5098 110.683 43.1875 110.791 42.9297 111.008C42.6719 111.219 42.543 111.471 42.543 111.764C42.543 112.121 42.7041 112.426 43.0264 112.678C43.3545 112.93 43.7471 113.147 44.2041 113.328C44.6611 113.504 45.1152 113.698 45.5664 113.908C46.0234 114.119 46.4131 114.424 46.7354 114.823C47.0635 115.215 47.2275 115.696 47.2275 116.264C47.2275 117.114 46.8848 117.82 46.1992 118.382C45.5137 118.945 44.5674 119.226 43.3604 119.226C42.751 119.226 42.165 119.167 41.6025 119.05C41.0459 118.933 40.6475 118.813 40.4072 118.69L40.0293 118.514V115.807H40.75C40.8848 116.621 41.1689 117.245 41.6025 117.679C42.042 118.113 42.5957 118.329 43.2637 118.329C43.7441 118.329 44.1484 118.177 44.4766 117.872C44.8105 117.568 44.9775 117.21 44.9775 116.8ZM57.748 116.352C57.748 117.014 57.8418 117.465 58.0293 117.705C58.2168 117.94 58.5449 118.057 59.0137 118.057V118.69C58.4863 118.737 57.9502 118.807 57.4053 118.901C56.8662 118.989 56.459 119.062 56.1836 119.12L55.7705 119.226L55.5947 117.521H55.498C55.4629 117.568 55.4131 117.632 55.3486 117.714C55.2842 117.79 55.1436 117.925 54.9268 118.118C54.71 118.306 54.4844 118.476 54.25 118.628C54.0156 118.775 53.7168 118.912 53.3535 119.041C52.9961 119.164 52.6328 119.226 52.2637 119.226C51.373 119.226 50.6699 118.921 50.1543 118.312C49.6387 117.702 49.3809 116.809 49.3809 115.631V112.66C49.3809 111.998 49.2871 111.547 49.0996 111.307C48.918 111.067 48.5928 110.947 48.124 110.947V110.323C48.6865 110.276 49.2666 110.199 49.8643 110.094C50.4678 109.983 50.9248 109.883 51.2354 109.795L51.7188 109.69V115.543C51.7188 116.252 51.8535 116.759 52.123 117.064C52.3926 117.368 52.8291 117.521 53.4326 117.521C53.7549 117.521 54.0801 117.448 54.4082 117.301C54.7422 117.149 54.9912 116.999 55.1553 116.853L55.4102 116.624V112.66C55.4102 111.998 55.3164 111.547 55.1289 111.307C54.9473 111.067 54.6221 110.947 54.1533 110.947V110.323C54.7158 110.276 55.2959 110.199 55.8936 110.094C56.4971 109.983 56.96 109.883 57.2822 109.795L57.748 109.69V116.352ZM67.5566 112.933V116.352C67.5566 117.014 67.6504 117.465 67.8379 117.705C68.0254 117.94 68.3506 118.057 68.8135 118.057V118.69C68.2861 118.737 67.7529 118.807 67.2139 118.901C66.6748 118.989 66.2676 119.062 65.9922 119.12L65.5791 119.226L65.3945 117.521H65.3066C65.2715 117.568 65.2217 117.632 65.1572 117.714C65.0986 117.79 64.9697 117.925 64.7705 118.118C64.5771 118.306 64.3691 118.476 64.1465 118.628C63.9238 118.775 63.6367 118.912 63.2852 119.041C62.9395 119.164 62.5938 119.226 62.248 119.226C61.5039 119.226 60.9121 119.032 60.4727 118.646C60.0332 118.253 59.8135 117.758 59.8135 117.16C59.8135 116.645 59.998 116.17 60.3672 115.737C60.7422 115.303 61.1934 114.963 61.7207 114.717C62.2539 114.471 62.7842 114.263 63.3115 114.093C63.8389 113.917 64.2871 113.8 64.6562 113.741L65.2188 113.654V113.109C65.2188 111.55 64.6475 110.771 63.5049 110.771C63.3115 110.771 63.1182 110.794 62.9248 110.841C62.7373 110.888 62.5908 110.935 62.4854 110.982L62.3359 111.043L61.7031 113.021H60.4463V110.683C60.5635 110.613 60.7305 110.531 60.9473 110.437C61.1641 110.337 61.5977 110.202 62.248 110.032C62.8984 109.863 63.5283 109.778 64.1377 109.778C65.2041 109.778 66.0391 110.065 66.6426 110.639C67.252 111.207 67.5566 111.972 67.5566 112.933ZM63.3291 117.521C63.6514 117.521 63.9678 117.448 64.2783 117.301C64.5947 117.149 64.8291 116.999 64.9814 116.853L65.2188 116.624V114.55C65.1367 114.562 65.0283 114.579 64.8936 114.603C64.7588 114.626 64.5215 114.694 64.1816 114.805C63.8418 114.91 63.543 115.033 63.2852 115.174C63.0273 115.309 62.79 115.496 62.5732 115.737C62.3564 115.977 62.248 116.24 62.248 116.528C62.248 117.19 62.6084 117.521 63.3291 117.521ZM74.667 116.8C74.667 116.49 74.5029 116.208 74.1748 115.956C73.8525 115.704 73.4629 115.476 73.0059 115.271C72.5547 115.066 72.1006 114.846 71.6436 114.612C71.1865 114.377 70.7939 114.064 70.4658 113.671C70.1436 113.273 69.9824 112.816 69.9824 112.3C69.9824 111.579 70.2871 110.979 70.8965 110.498C71.5117 110.018 72.3789 109.778 73.498 109.778C73.9785 109.778 74.4414 109.824 74.8867 109.918C75.3379 110.006 75.6719 110.097 75.8887 110.191L76.1963 110.323V112.66H75.458C75.2998 111.342 74.6758 110.683 73.5859 110.683C73.1992 110.683 72.877 110.791 72.6191 111.008C72.3613 111.219 72.2324 111.471 72.2324 111.764C72.2324 112.121 72.3936 112.426 72.7158 112.678C73.0439 112.93 73.4365 113.147 73.8936 113.328C74.3506 113.504 74.8047 113.698 75.2559 113.908C75.7129 114.119 76.1025 114.424 76.4248 114.823C76.7529 115.215 76.917 115.696 76.917 116.264C76.917 117.114 76.5742 117.82 75.8887 118.382C75.2031 118.945 74.2568 119.226 73.0498 119.226C72.4404 119.226 71.8545 119.167 71.292 119.05C70.7354 118.933 70.3369 118.813 70.0967 118.69L69.7188 118.514V115.807H70.4395C70.5742 116.621 70.8584 117.245 71.292 117.679C71.7314 118.113 72.2852 118.329 72.9531 118.329C73.4336 118.329 73.8379 118.177 74.166 117.872C74.5 117.568 74.667 117.21 74.667 116.8ZM87.8945 110.771C87.4141 110.771 86.9951 110.99 86.6377 111.43C86.2861 111.864 86.0459 112.514 85.917 113.381L89.3359 113.109C89.3359 111.55 88.8555 110.771 87.8945 110.771ZM88.0703 109.778C89.2012 109.778 90.0859 110.106 90.7246 110.762C91.3691 111.418 91.7148 112.35 91.7617 113.557L90.8652 114.278H85.8203V114.374C85.8203 115.347 86.0928 116.129 86.6377 116.721C87.1885 117.313 87.877 117.609 88.7031 117.609C89.207 117.609 89.6846 117.544 90.1357 117.415C90.5869 117.281 90.9062 117.143 91.0938 117.002L91.4014 116.8L91.7617 117.16C91.7266 117.219 91.6738 117.295 91.6035 117.389C91.5332 117.477 91.375 117.641 91.1289 117.881C90.8828 118.121 90.6162 118.332 90.3291 118.514C90.0479 118.69 89.6787 118.854 89.2217 119.006C88.7705 119.153 88.2988 119.226 87.8066 119.226C86.5352 119.226 85.4805 118.798 84.6426 117.943C83.8105 117.087 83.3945 115.989 83.3945 114.647C83.3945 113.299 83.8545 112.151 84.7744 111.201C85.7002 110.252 86.7988 109.778 88.0703 109.778ZM98.5205 114.19L100.498 116.976C100.92 117.562 101.251 117.948 101.491 118.136C101.731 118.323 102.06 118.417 102.476 118.417V119.05H97.5273V118.417L98.6084 118.154L96.8066 115.543L95.5498 117.073C95.3096 117.371 95.1895 117.641 95.1895 117.881C95.1895 118.028 95.2627 118.154 95.4092 118.259C95.5615 118.365 95.7871 118.417 96.0859 118.417V119.05H92.2188V118.417L93.3877 118.154L96.1826 114.638L94.293 112.028C93.8828 111.465 93.5518 111.084 93.2998 110.885C93.0479 110.686 92.7461 110.586 92.3945 110.586V109.962H97.167V110.586L96.0859 110.859L97.7998 113.293L98.9688 111.852C99.209 111.553 99.3291 111.313 99.3291 111.131C99.3291 110.985 99.2529 110.859 99.1006 110.753C98.9541 110.642 98.7314 110.586 98.4326 110.586V109.962H102.212V110.586L101.043 110.859L98.5205 114.19ZM106.448 109.69V116.888C106.448 117.509 106.53 117.919 106.694 118.118C106.864 118.318 107.201 118.417 107.705 118.417V119.05H102.845V118.417L104.102 118.154V112.66C104.102 111.998 104.008 111.547 103.82 111.307C103.639 111.067 103.313 110.947 102.845 110.947V110.323C103.407 110.276 103.987 110.199 104.585 110.094C105.188 109.983 105.651 109.883 105.974 109.795L106.448 109.69ZM104.251 107.659C103.976 107.384 103.838 107.041 103.838 106.631C103.838 106.221 103.976 105.878 104.251 105.603C104.526 105.327 104.866 105.19 105.271 105.19C105.681 105.19 106.023 105.327 106.299 105.603C106.574 105.878 106.712 106.221 106.712 106.631C106.712 107.041 106.574 107.384 106.299 107.659C106.023 107.935 105.681 108.073 105.271 108.073C104.866 108.073 104.526 107.935 104.251 107.659ZM112.645 109.778C113.043 109.778 113.415 109.819 113.761 109.901C114.112 109.977 114.358 110.05 114.499 110.12L114.719 110.226L118.226 109.602V111.764H117.689L115.958 110.947L115.527 110.586L115.439 110.683C115.51 110.741 115.592 110.832 115.686 110.955C115.785 111.073 115.917 111.319 116.081 111.694C116.251 112.063 116.336 112.444 116.336 112.836C116.336 113.727 116.005 114.462 115.343 115.042C114.687 115.616 113.787 115.904 112.645 115.904L111.748 115.807C111.268 116.176 111.027 116.536 111.027 116.888C111.027 117.128 111.092 117.295 111.221 117.389C111.355 117.477 111.622 117.521 112.021 117.521H114.446C115.407 117.521 116.128 117.717 116.608 118.11C117.089 118.496 117.329 119.021 117.329 119.683C117.329 120.702 116.852 121.573 115.896 122.293C114.941 123.014 113.588 123.374 111.836 123.374C109.375 123.374 108.145 122.741 108.145 121.476C108.145 121.077 108.323 120.685 108.681 120.298C109.044 119.911 109.407 119.621 109.771 119.428L110.307 119.138V119.05C109.744 119.05 109.349 118.971 109.12 118.813C108.892 118.649 108.777 118.397 108.777 118.057C108.777 117.711 108.965 117.339 109.34 116.941C109.721 116.536 110.099 116.22 110.474 115.991L111.027 115.631C110.969 115.619 110.893 115.593 110.799 115.552C110.711 115.505 110.547 115.408 110.307 115.262C110.066 115.11 109.855 114.943 109.674 114.761C109.498 114.573 109.334 114.31 109.182 113.97C109.035 113.624 108.962 113.246 108.962 112.836C108.962 111.946 109.29 111.213 109.946 110.639C110.603 110.065 111.502 109.778 112.645 109.778ZM113.726 119.138H111.212C110.614 119.677 110.312 120.219 110.307 120.764C110.307 121.233 110.488 121.619 110.852 121.924C111.221 122.229 111.73 122.381 112.381 122.381C113.16 122.381 113.79 122.176 114.271 121.766C114.751 121.362 114.991 120.875 114.991 120.307C114.991 119.897 114.892 119.598 114.692 119.41C114.493 119.229 114.171 119.138 113.726 119.138ZM113.998 112.933C113.998 112.212 113.872 111.673 113.62 111.316C113.368 110.952 113.043 110.771 112.645 110.771C112.258 110.771 111.936 110.944 111.678 111.289C111.426 111.629 111.3 112.115 111.3 112.748C111.3 113.469 111.426 114.011 111.678 114.374C111.93 114.732 112.252 114.91 112.645 114.91C113.031 114.91 113.354 114.74 113.611 114.401C113.869 114.061 113.998 113.572 113.998 112.933ZM123.262 110.771C122.781 110.771 122.362 110.99 122.005 111.43C121.653 111.864 121.413 112.514 121.284 113.381L124.703 113.109C124.703 111.55 124.223 110.771 123.262 110.771ZM123.438 109.778C124.568 109.778 125.453 110.106 126.092 110.762C126.736 111.418 127.082 112.35 127.129 113.557L126.232 114.278H121.188V114.374C121.188 115.347 121.46 116.129 122.005 116.721C122.556 117.313 123.244 117.609 124.07 117.609C124.574 117.609 125.052 117.544 125.503 117.415C125.954 117.281 126.273 117.143 126.461 117.002L126.769 116.8L127.129 117.16C127.094 117.219 127.041 117.295 126.971 117.389C126.9 117.477 126.742 117.641 126.496 117.881C126.25 118.121 125.983 118.332 125.696 118.514C125.415 118.69 125.046 118.854 124.589 119.006C124.138 119.153 123.666 119.226 123.174 119.226C121.902 119.226 120.848 118.798 120.01 117.943C119.178 117.087 118.762 115.989 118.762 114.647C118.762 113.299 119.222 112.151 120.142 111.201C121.067 110.252 122.166 109.778 123.438 109.778ZM120.019 108.793L122.269 105.638H124.158L126.408 108.793H125.512L123.262 106.991H123.174L120.924 108.793H120.019ZM137.755 113.381V116.888C137.755 117.509 137.837 117.919 138.001 118.118C138.171 118.318 138.508 118.417 139.012 118.417V119.05H134.151V118.417L135.408 118.154V113.469C135.408 112.76 135.273 112.253 135.004 111.948C134.734 111.644 134.301 111.491 133.703 111.491C133.381 111.491 133.053 111.568 132.719 111.72C132.391 111.866 132.142 112.019 131.972 112.177L131.726 112.388V116.888C131.726 117.509 131.808 117.919 131.972 118.118C132.142 118.318 132.479 118.417 132.982 118.417V119.05H128.122V118.417L129.379 118.154V112.66C129.379 111.998 129.285 111.547 129.098 111.307C128.916 111.067 128.591 110.947 128.122 110.947V110.323C128.649 110.276 129.183 110.208 129.722 110.12C130.261 110.027 130.668 109.945 130.943 109.874L131.365 109.778L131.541 111.491H131.629C131.664 111.445 131.714 111.383 131.778 111.307C131.849 111.225 131.992 111.087 132.209 110.894C132.426 110.7 132.651 110.531 132.886 110.384C133.12 110.232 133.416 110.094 133.773 109.971C134.131 109.842 134.497 109.778 134.872 109.778C135.763 109.778 136.466 110.085 136.981 110.7C137.497 111.31 137.755 112.203 137.755 113.381ZM139.996 114.638C139.996 113.273 140.482 112.121 141.455 111.184C142.428 110.246 143.652 109.778 145.129 109.778C145.691 109.778 146.213 109.848 146.693 109.989C147.174 110.123 147.508 110.258 147.695 110.393L148.003 110.586V113.293H146.922L146.113 111.043C145.873 110.862 145.513 110.771 145.032 110.771C144.312 110.771 143.696 111.087 143.187 111.72C142.677 112.347 142.422 113.199 142.422 114.278C142.422 115.285 142.694 116.094 143.239 116.703C143.79 117.307 144.479 117.609 145.305 117.609C145.809 117.609 146.286 117.544 146.737 117.415C147.188 117.281 147.508 117.143 147.695 117.002L148.003 116.8L148.363 117.16C148.328 117.219 148.275 117.295 148.205 117.389C148.135 117.477 147.977 117.641 147.73 117.881C147.484 118.121 147.218 118.332 146.931 118.514C146.649 118.69 146.28 118.854 145.823 119.006C145.372 119.153 144.9 119.226 144.408 119.226C143.184 119.226 142.141 118.786 141.279 117.907C140.424 117.023 139.996 115.933 139.996 114.638ZM152.872 109.69V116.888C152.872 117.509 152.954 117.919 153.118 118.118C153.288 118.318 153.625 118.417 154.129 118.417V119.05H149.269V118.417L150.525 118.154V112.66C150.525 111.998 150.432 111.547 150.244 111.307C150.062 111.067 149.737 110.947 149.269 110.947V110.323C149.831 110.276 150.411 110.199 151.009 110.094C151.612 109.983 152.075 109.883 152.397 109.795L152.872 109.69ZM150.675 107.659C150.399 107.384 150.262 107.041 150.262 106.631C150.262 106.221 150.399 105.878 150.675 105.603C150.95 105.327 151.29 105.19 151.694 105.19C152.104 105.19 152.447 105.327 152.723 105.603C152.998 105.878 153.136 106.221 153.136 106.631C153.136 107.041 152.998 107.384 152.723 107.659C152.447 107.935 152.104 108.073 151.694 108.073C151.29 108.073 150.95 107.935 150.675 107.659ZM162.672 112.933V116.352C162.672 117.014 162.766 117.465 162.953 117.705C163.141 117.94 163.466 118.057 163.929 118.057V118.69C163.401 118.737 162.868 118.807 162.329 118.901C161.79 118.989 161.383 119.062 161.107 119.12L160.694 119.226L160.51 117.521H160.422C160.387 117.568 160.337 117.632 160.272 117.714C160.214 117.79 160.085 117.925 159.886 118.118C159.692 118.306 159.484 118.476 159.262 118.628C159.039 118.775 158.752 118.912 158.4 119.041C158.055 119.164 157.709 119.226 157.363 119.226C156.619 119.226 156.027 119.032 155.588 118.646C155.148 118.253 154.929 117.758 154.929 117.16C154.929 116.645 155.113 116.17 155.482 115.737C155.857 115.303 156.309 114.963 156.836 114.717C157.369 114.471 157.899 114.263 158.427 114.093C158.954 113.917 159.402 113.8 159.771 113.741L160.334 113.654V113.109C160.334 111.55 159.763 110.771 158.62 110.771C158.427 110.771 158.233 110.794 158.04 110.841C157.853 110.888 157.706 110.935 157.601 110.982L157.451 111.043L156.818 113.021H155.562V110.683C155.679 110.613 155.846 110.531 156.062 110.437C156.279 110.337 156.713 110.202 157.363 110.032C158.014 109.863 158.644 109.778 159.253 109.778C160.319 109.778 161.154 110.065 161.758 110.639C162.367 111.207 162.672 111.972 162.672 112.933ZM158.444 117.521C158.767 117.521 159.083 117.448 159.394 117.301C159.71 117.149 159.944 116.999 160.097 116.853L160.334 116.624V114.55C160.252 114.562 160.144 114.579 160.009 114.603C159.874 114.626 159.637 114.694 159.297 114.805C158.957 114.91 158.658 115.033 158.4 115.174C158.143 115.309 157.905 115.496 157.688 115.737C157.472 115.977 157.363 116.24 157.363 116.528C157.363 117.19 157.724 117.521 158.444 117.521ZM169.782 116.8C169.782 116.49 169.618 116.208 169.29 115.956C168.968 115.704 168.578 115.476 168.121 115.271C167.67 115.066 167.216 114.846 166.759 114.612C166.302 114.377 165.909 114.064 165.581 113.671C165.259 113.273 165.098 112.816 165.098 112.3C165.098 111.579 165.402 110.979 166.012 110.498C166.627 110.018 167.494 109.778 168.613 109.778C169.094 109.778 169.557 109.824 170.002 109.918C170.453 110.006 170.787 110.097 171.004 110.191L171.312 110.323V112.66H170.573C170.415 111.342 169.791 110.683 168.701 110.683C168.314 110.683 167.992 110.791 167.734 111.008C167.477 111.219 167.348 111.471 167.348 111.764C167.348 112.121 167.509 112.426 167.831 112.678C168.159 112.93 168.552 113.147 169.009 113.328C169.466 113.504 169.92 113.698 170.371 113.908C170.828 114.119 171.218 114.424 171.54 114.823C171.868 115.215 172.032 115.696 172.032 116.264C172.032 117.114 171.689 117.82 171.004 118.382C170.318 118.945 169.372 119.226 168.165 119.226C167.556 119.226 166.97 119.167 166.407 119.05C165.851 118.933 165.452 118.813 165.212 118.69L164.834 118.514V115.807H165.555C165.689 116.621 165.974 117.245 166.407 117.679C166.847 118.113 167.4 118.329 168.068 118.329C168.549 118.329 168.953 118.177 169.281 117.872C169.615 117.568 169.782 117.21 169.782 116.8ZM173.878 118.813C173.603 118.537 173.465 118.198 173.465 117.793C173.465 117.383 173.603 117.04 173.878 116.765C174.153 116.49 174.496 116.352 174.906 116.352C175.316 116.352 175.659 116.49 175.935 116.765C176.21 117.04 176.348 117.383 176.348 117.793C176.348 118.198 176.21 118.537 175.935 118.813C175.659 119.088 175.316 119.226 174.906 119.226C174.496 119.226 174.153 119.088 173.878 118.813Z" fill="#ED1C24"/>
</svg>
