<svg width="268" height="92" viewBox="0 0 268 92" fill="none" xmlns="http://www.w3.org/2000/svg">
<rect x="0.5" y="0.5" width="267" height="91" fill="white" stroke="#ED1C24"/>
<path d="M14.9639 13.3311C14.9639 12.9736 14.8643 12.6895 14.665 12.4785C14.4658 12.2676 14.2051 12.1621 13.8828 12.1621C13.4609 12.1621 13.1328 12.2969 12.8984 12.5664C12.6641 12.8359 12.4824 13.3135 12.3535 13.999H11.6328V11.9775C12.5117 11.4971 13.4111 11.2568 14.3311 11.2568C15.1572 11.2568 15.7988 11.4473 16.2559 11.8281C16.7129 12.2031 16.9414 12.6748 16.9414 13.2432C16.9414 13.7939 16.748 14.2949 16.3613 14.7461C15.9805 15.1914 15.3945 15.6807 14.6035 16.2139L12.9775 17.2861V17.3828H15.0518C15.4854 17.3828 15.8105 17.292 16.0273 17.1104C16.25 16.9287 16.4346 16.6299 16.5811 16.2139H17.2139L16.8535 18.5518H11.2725V17.6465L13.7861 15.4932C13.8682 15.4229 13.9766 15.3203 14.1113 15.1855C14.2461 15.0508 14.4219 14.7959 14.6387 14.4209C14.8555 14.04 14.9639 13.6768 14.9639 13.3311ZM20.0879 14.9482C20.0879 16.9287 20.6006 17.9189 21.626 17.9189C22.5283 17.9189 22.9766 16.958 22.9707 15.0361C22.9707 13.0557 22.4609 12.0684 21.4414 12.0742C20.5391 12.0684 20.0879 13.0264 20.0879 14.9482ZM24.8604 14.8604C24.8604 16.0498 24.5469 16.9932 23.9199 17.6904C23.2988 18.3818 22.502 18.7275 21.5293 18.7275C20.5684 18.7275 19.7715 18.3965 19.1387 17.7344C18.5117 17.0664 18.1982 16.1992 18.1982 15.1328C18.1982 13.9434 18.5088 13 19.1299 12.3027C19.7568 11.6055 20.5566 11.2568 21.5293 11.2568C22.4902 11.2568 23.2842 11.5908 23.9111 12.2588C24.5439 12.9268 24.8604 13.7939 24.8604 14.8604ZM38 19.5361L40.0654 16.6621C40.4229 16.1816 40.6045 15.792 40.6104 15.4932C40.6104 15.0713 40.2207 14.8604 39.4414 14.8604V14.1396H44.0293V14.7725L42.5 15.1328L38.6328 20.6172L41.9551 25.5742C42.4355 26.2832 42.8105 26.7461 43.0801 26.9629C43.3555 27.1738 43.7305 27.2793 44.2051 27.2793V28H38.1758V27.3672L39.9775 27.0068L36.8311 22.3311L34.5811 25.4775C34.2471 25.958 34.0771 26.3359 34.0713 26.6113C34.0713 27.0566 34.4492 27.2793 35.2051 27.2793V28H30.5293V27.3672L32.0586 27.0068L36.1982 21.25L33.0518 16.4775C32.6182 15.8271 32.2578 15.3965 31.9707 15.1855C31.6836 14.9688 31.2939 14.8604 30.8018 14.8604V14.1396H36.9189V14.7725L35.1172 15.1328L38 19.5361ZM53.6533 28.1758L50.3223 20.9775C50.0469 20.3799 49.7979 19.9902 49.5752 19.8086C49.3525 19.627 49.001 19.5361 48.5205 19.5361V18.9121H53.7412V19.5361L52.2998 19.8086L54.374 24.1328L54.6465 25.2139H54.7344L56.7119 20.9775C56.8291 20.6787 56.8906 20.4092 56.8965 20.1689C56.8965 19.7471 56.4746 19.5361 55.6309 19.5361V18.9121H59.7705V19.5361L58.5137 19.8086L54.6465 28.1758H53.6533ZM64.3496 19.7207C63.8691 19.7207 63.4502 19.9404 63.0928 20.3799C62.7412 20.8135 62.501 21.4639 62.3721 22.3311L65.791 22.0586C65.791 20.5 65.3105 19.7207 64.3496 19.7207ZM64.5254 18.7275C65.6562 18.7275 66.541 19.0557 67.1797 19.7119C67.8242 20.3682 68.1699 21.2998 68.2168 22.5068L67.3203 23.2275H62.2754V23.3242C62.2754 24.2969 62.5479 25.0791 63.0928 25.6709C63.6436 26.2627 64.332 26.5586 65.1582 26.5586C65.6621 26.5586 66.1396 26.4941 66.5908 26.3652C67.042 26.2305 67.3613 26.0928 67.5488 25.9521L67.8564 25.75L68.2168 26.1104C68.1816 26.1689 68.1289 26.2451 68.0586 26.3389C67.9883 26.4268 67.8301 26.5908 67.584 26.8311C67.3379 27.0713 67.0713 27.2822 66.7842 27.4639C66.5029 27.6396 66.1338 27.8037 65.6768 27.9561C65.2256 28.1025 64.7539 28.1758 64.2617 28.1758C62.9902 28.1758 61.9355 27.748 61.0977 26.8926C60.2656 26.0371 59.8496 24.9385 59.8496 23.5967C59.8496 22.249 60.3096 21.1006 61.2295 20.1514C62.1553 19.2021 63.2539 18.7275 64.5254 18.7275ZM69.1221 19.9932V19.1758L70.5635 18.9121V16.3896L72.3564 15.7568H72.9014V18.9121H75.7754V20.1689H74.791L72.9014 19.8086V25.3896C72.9014 26.2275 73.3203 26.6465 74.1582 26.6465C74.4453 26.6465 74.7236 26.6025 74.9932 26.5146C75.2627 26.4268 75.459 26.333 75.582 26.2334L75.7754 26.1104L76.1357 26.5586C76.1006 26.6055 76.0537 26.667 75.9951 26.7432C75.9365 26.8135 75.8076 26.9424 75.6084 27.1299C75.4092 27.3115 75.2012 27.4756 74.9844 27.6221C74.7734 27.7686 74.501 27.8975 74.167 28.0088C73.8389 28.1201 73.5078 28.1758 73.1738 28.1758C71.4336 28.1758 70.5635 27.3086 70.5635 25.5742V19.9932H69.1221ZM81.541 19.7207C81.0605 19.7207 80.6416 19.9404 80.2842 20.3799C79.9326 20.8135 79.6924 21.4639 79.5635 22.3311L82.9824 22.0586C82.9824 20.5 82.502 19.7207 81.541 19.7207ZM81.7168 18.7275C82.8477 18.7275 83.7324 19.0557 84.3711 19.7119C85.0156 20.3682 85.3613 21.2998 85.4082 22.5068L84.5117 23.2275H79.4668V23.3242C79.4668 24.2969 79.7393 25.0791 80.2842 25.6709C80.835 26.2627 81.5234 26.5586 82.3496 26.5586C82.8535 26.5586 83.3311 26.4941 83.7822 26.3652C84.2334 26.2305 84.5527 26.0928 84.7402 25.9521L85.0479 25.75L85.4082 26.1104C85.373 26.1689 85.3203 26.2451 85.25 26.3389C85.1797 26.4268 85.0215 26.5908 84.7754 26.8311C84.5293 27.0713 84.2627 27.2822 83.9756 27.4639C83.6943 27.6396 83.3252 27.8037 82.8682 27.9561C82.417 28.1025 81.9453 28.1758 81.4531 28.1758C80.1816 28.1758 79.127 27.748 78.2891 26.8926C77.457 26.0371 77.041 24.9385 77.041 23.5967C77.041 22.249 77.501 21.1006 78.4209 20.1514C79.3467 19.2021 80.4453 18.7275 81.7168 18.7275ZM90.0049 21.4258V25.8379C90.0049 26.4238 90.1162 26.8252 90.3389 27.042C90.5674 27.2588 90.9951 27.3672 91.6221 27.3672V28H86.4014V27.3672L87.6582 27.1035V21.6104C87.6582 20.9482 87.5645 20.4971 87.377 20.2568C87.1953 20.0166 86.8701 19.8965 86.4014 19.8965V19.2725C86.9287 19.2256 87.4619 19.1582 88.001 19.0703C88.54 18.9766 88.9473 18.8945 89.2227 18.8242L89.6445 18.7275L89.8203 20.4414H89.9082C89.9434 20.3945 89.9902 20.333 90.0488 20.2568C90.1133 20.1748 90.251 20.0371 90.4619 19.8438C90.6729 19.6504 90.8838 19.4805 91.0947 19.334C91.3115 19.1816 91.5811 19.0439 91.9033 18.9209C92.2314 18.792 92.5566 18.7275 92.8789 18.7275C93.1191 18.7275 93.3535 18.751 93.582 18.7979C93.8105 18.8389 93.9717 18.8828 94.0654 18.9297L94.2324 19V22.0586H93.0635L92.4307 20.2568C91.9971 20.2568 91.5781 20.3535 91.1738 20.5469C90.7754 20.7402 90.4795 20.9336 90.2861 21.127L90.0049 21.4258ZM102.775 21.8828V25.3018C102.775 25.9639 102.869 26.415 103.057 26.6553C103.244 26.8896 103.569 27.0068 104.032 27.0068V27.6396C103.505 27.6865 102.972 27.7568 102.433 27.8506C101.894 27.9385 101.486 28.0117 101.211 28.0703L100.798 28.1758L100.613 26.4707H100.525C100.49 26.5176 100.44 26.582 100.376 26.6641C100.317 26.7402 100.188 26.875 99.9893 27.0684C99.7959 27.2559 99.5879 27.4258 99.3652 27.5781C99.1426 27.7246 98.8555 27.8623 98.5039 27.9912C98.1582 28.1143 97.8125 28.1758 97.4668 28.1758C96.7227 28.1758 96.1309 27.9824 95.6914 27.5957C95.252 27.2031 95.0322 26.708 95.0322 26.1104C95.0322 25.5947 95.2168 25.1201 95.5859 24.6865C95.9609 24.2529 96.4121 23.9131 96.9395 23.667C97.4727 23.4209 98.0029 23.2129 98.5303 23.043C99.0576 22.8672 99.5059 22.75 99.875 22.6914L100.438 22.6035V22.0586C100.438 20.5 99.8662 19.7207 98.7236 19.7207C98.5303 19.7207 98.3369 19.7441 98.1436 19.791C97.9561 19.8379 97.8096 19.8848 97.7041 19.9316L97.5547 19.9932L96.9219 21.9707H95.665V19.6328C95.7822 19.5625 95.9492 19.4805 96.166 19.3867C96.3828 19.2871 96.8164 19.1523 97.4668 18.9824C98.1172 18.8125 98.7471 18.7275 99.3564 18.7275C100.423 18.7275 101.258 19.0146 101.861 19.5889C102.471 20.1572 102.775 20.9219 102.775 21.8828ZM98.5479 26.4707C98.8701 26.4707 99.1865 26.3975 99.4971 26.251C99.8135 26.0986 100.048 25.9492 100.2 25.8027L100.438 25.5742V23.5C100.355 23.5117 100.247 23.5293 100.112 23.5527C99.9775 23.5762 99.7402 23.6436 99.4004 23.7549C99.0605 23.8604 98.7617 23.9834 98.5039 24.124C98.2461 24.2588 98.0088 24.4463 97.792 24.6865C97.5752 24.9268 97.4668 25.1904 97.4668 25.4775C97.4668 26.1396 97.8271 26.4707 98.5479 26.4707ZM114.298 22.3311V25.8379C114.298 26.459 114.38 26.8691 114.544 27.0684C114.714 27.2676 115.051 27.3672 115.555 27.3672V28H110.694V27.3672L111.951 27.1035V22.4189C111.951 21.71 111.816 21.2031 111.547 20.8984C111.277 20.5938 110.844 20.4414 110.246 20.4414C109.924 20.4414 109.596 20.5176 109.262 20.6699C108.934 20.8164 108.685 20.9688 108.515 21.127L108.269 21.3379V25.8379C108.269 26.459 108.351 26.8691 108.515 27.0684C108.685 27.2676 109.021 27.3672 109.525 27.3672V28H104.665V27.3672L105.922 27.1035V21.6104C105.922 20.9482 105.828 20.4971 105.641 20.2568C105.459 20.0166 105.134 19.8965 104.665 19.8965V19.2725C105.192 19.2256 105.726 19.1582 106.265 19.0703C106.804 18.9766 107.211 18.8945 107.486 18.8242L107.908 18.7275L108.084 20.4414H108.172C108.207 20.3945 108.257 20.333 108.321 20.2568C108.392 20.1748 108.535 20.0371 108.752 19.8438C108.969 19.6504 109.194 19.4805 109.429 19.334C109.663 19.1816 109.959 19.0439 110.316 18.9209C110.674 18.792 111.04 18.7275 111.415 18.7275C112.306 18.7275 113.009 19.0352 113.524 19.6504C114.04 20.2598 114.298 21.1533 114.298 22.3311ZM122.12 23.1396L124.098 25.9258C124.52 26.5117 124.851 26.8984 125.091 27.0859C125.331 27.2734 125.659 27.3672 126.075 27.3672V28H121.127V27.3672L122.208 27.1035L120.406 24.4932L119.149 26.0225C118.909 26.3213 118.789 26.5908 118.789 26.8311C118.789 26.9775 118.862 27.1035 119.009 27.209C119.161 27.3145 119.387 27.3672 119.686 27.3672V28H115.818V27.3672L116.987 27.1035L119.782 23.5879L117.893 20.9775C117.482 20.415 117.151 20.0342 116.899 19.835C116.647 19.6357 116.346 19.5361 115.994 19.5361V18.9121H120.767V19.5361L119.686 19.8086L121.399 22.2432L122.568 20.8018C122.809 20.5029 122.929 20.2627 122.929 20.0811C122.929 19.9346 122.853 19.8086 122.7 19.7031C122.554 19.5918 122.331 19.5361 122.032 19.5361V18.9121H125.812V19.5361L124.643 19.8086L122.12 23.1396ZM139.496 21.8828V25.3018C139.496 25.9639 139.59 26.415 139.777 26.6553C139.965 26.8896 140.29 27.0068 140.753 27.0068V27.6396C140.226 27.6865 139.692 27.7568 139.153 27.8506C138.614 27.9385 138.207 28.0117 137.932 28.0703L137.519 28.1758L137.334 26.4707H137.246C137.211 26.5176 137.161 26.582 137.097 26.6641C137.038 26.7402 136.909 26.875 136.71 27.0684C136.517 27.2559 136.309 27.4258 136.086 27.5781C135.863 27.7246 135.576 27.8623 135.225 27.9912C134.879 28.1143 134.533 28.1758 134.188 28.1758C133.443 28.1758 132.852 27.9824 132.412 27.5957C131.973 27.2031 131.753 26.708 131.753 26.1104C131.753 25.5947 131.938 25.1201 132.307 24.6865C132.682 24.2529 133.133 23.9131 133.66 23.667C134.193 23.4209 134.724 23.2129 135.251 23.043C135.778 22.8672 136.227 22.75 136.596 22.6914L137.158 22.6035V22.0586C137.158 20.5 136.587 19.7207 135.444 19.7207C135.251 19.7207 135.058 19.7441 134.864 19.791C134.677 19.8379 134.53 19.8848 134.425 19.9316L134.275 19.9932L133.643 21.9707H132.386V19.6328C132.503 19.5625 132.67 19.4805 132.887 19.3867C133.104 19.2871 133.537 19.1523 134.188 18.9824C134.838 18.8125 135.468 18.7275 136.077 18.7275C137.144 18.7275 137.979 19.0146 138.582 19.5889C139.191 20.1572 139.496 20.9219 139.496 21.8828ZM135.269 26.4707C135.591 26.4707 135.907 26.3975 136.218 26.251C136.534 26.0986 136.769 25.9492 136.921 25.8027L137.158 25.5742V23.5C137.076 23.5117 136.968 23.5293 136.833 23.5527C136.698 23.5762 136.461 23.6436 136.121 23.7549C135.781 23.8604 135.482 23.9834 135.225 24.124C134.967 24.2588 134.729 24.4463 134.513 24.6865C134.296 24.9268 134.188 25.1904 134.188 25.4775C134.188 26.1396 134.548 26.4707 135.269 26.4707ZM141.746 23.5879C141.746 22.2227 142.232 21.0713 143.205 20.1338C144.178 19.1963 145.402 18.7275 146.879 18.7275C147.441 18.7275 147.963 18.7979 148.443 18.9385C148.924 19.0732 149.258 19.208 149.445 19.3428L149.753 19.5361V22.2432H148.672L147.863 19.9932C147.623 19.8115 147.263 19.7207 146.782 19.7207C146.062 19.7207 145.446 20.0371 144.937 20.6699C144.427 21.2969 144.172 22.1494 144.172 23.2275C144.172 24.2354 144.444 25.0439 144.989 25.6533C145.54 26.2568 146.229 26.5586 147.055 26.5586C147.559 26.5586 148.036 26.4941 148.487 26.3652C148.938 26.2305 149.258 26.0928 149.445 25.9521L149.753 25.75L150.113 26.1104C150.078 26.1689 150.025 26.2451 149.955 26.3389C149.885 26.4268 149.727 26.5908 149.48 26.8311C149.234 27.0713 148.968 27.2822 148.681 27.4639C148.399 27.6396 148.03 27.8037 147.573 27.9561C147.122 28.1025 146.65 28.1758 146.158 28.1758C144.934 28.1758 143.891 27.7363 143.029 26.8574C142.174 25.9727 141.746 24.8828 141.746 23.5879ZM150.931 19.9932V19.1758L152.372 18.9121V16.3896L154.165 15.7568H154.71V18.9121H157.584V20.1689H156.6L154.71 19.8086V25.3896C154.71 26.2275 155.129 26.6465 155.967 26.6465C156.254 26.6465 156.532 26.6025 156.802 26.5146C157.071 26.4268 157.268 26.333 157.391 26.2334L157.584 26.1104L157.944 26.5586C157.909 26.6055 157.862 26.667 157.804 26.7432C157.745 26.8135 157.616 26.9424 157.417 27.1299C157.218 27.3115 157.01 27.4756 156.793 27.6221C156.582 27.7686 156.31 27.8975 155.976 28.0088C155.647 28.1201 155.316 28.1758 154.982 28.1758C153.242 28.1758 152.372 27.3086 152.372 25.5742V19.9932H150.931ZM162.093 18.6396V25.8379C162.093 26.459 162.175 26.8691 162.339 27.0684C162.509 27.2676 162.846 27.3672 163.35 27.3672V28H158.489V27.3672L159.746 27.1035V21.6104C159.746 20.9482 159.652 20.4971 159.465 20.2568C159.283 20.0166 158.958 19.8965 158.489 19.8965V19.2725C159.052 19.2256 159.632 19.1494 160.229 19.0439C160.833 18.9326 161.296 18.833 161.618 18.7451L162.093 18.6396ZM159.896 16.6094C159.62 16.334 159.482 15.9912 159.482 15.5811C159.482 15.1709 159.62 14.8281 159.896 14.5527C160.171 14.2773 160.511 14.1396 160.915 14.1396C161.325 14.1396 161.668 14.2773 161.943 14.5527C162.219 14.8281 162.356 15.1709 162.356 15.5811C162.356 15.9912 162.219 16.334 161.943 16.6094C161.668 16.8848 161.325 17.0225 160.915 17.0225C160.511 17.0225 160.171 16.8848 159.896 16.6094ZM168.298 28.1758L164.967 20.9775C164.691 20.3799 164.442 19.9902 164.22 19.8086C163.997 19.627 163.646 19.5361 163.165 19.5361V18.9121H168.386V19.5361L166.944 19.8086L169.019 24.1328L169.291 25.2139H169.379L171.356 20.9775C171.474 20.6787 171.535 20.4092 171.541 20.1689C171.541 19.7471 171.119 19.5361 170.275 19.5361V18.9121H174.415V19.5361L173.158 19.8086L169.291 28.1758H168.298ZM178.106 18.6396V25.8379C178.106 26.459 178.188 26.8691 178.353 27.0684C178.522 27.2676 178.859 27.3672 179.363 27.3672V28H174.503V27.3672L175.76 27.1035V21.6104C175.76 20.9482 175.666 20.4971 175.479 20.2568C175.297 20.0166 174.972 19.8965 174.503 19.8965V19.2725C175.065 19.2256 175.646 19.1494 176.243 19.0439C176.847 18.9326 177.31 18.833 177.632 18.7451L178.106 18.6396ZM175.909 16.6094C175.634 16.334 175.496 15.9912 175.496 15.5811C175.496 15.1709 175.634 14.8281 175.909 14.5527C176.185 14.2773 176.524 14.1396 176.929 14.1396C177.339 14.1396 177.682 14.2773 177.957 14.5527C178.232 14.8281 178.37 15.1709 178.37 15.5811C178.37 15.9912 178.232 16.334 177.957 16.6094C177.682 16.8848 177.339 17.0225 176.929 17.0225C176.524 17.0225 176.185 16.8848 175.909 16.6094ZM185.208 25.75C185.208 25.4395 185.044 25.1582 184.716 24.9062C184.394 24.6543 184.004 24.4258 183.547 24.2207C183.096 24.0156 182.642 23.7959 182.185 23.5615C181.728 23.3271 181.335 23.0137 181.007 22.6211C180.685 22.2227 180.523 21.7656 180.523 21.25C180.523 20.5293 180.828 19.9287 181.438 19.4482C182.053 18.9678 182.92 18.7275 184.039 18.7275C184.52 18.7275 184.982 18.7744 185.428 18.8682C185.879 18.9561 186.213 19.0469 186.43 19.1406L186.737 19.2725V21.6104H185.999C185.841 20.292 185.217 19.6328 184.127 19.6328C183.74 19.6328 183.418 19.7412 183.16 19.958C182.902 20.1689 182.773 20.4209 182.773 20.7139C182.773 21.0713 182.935 21.376 183.257 21.6279C183.585 21.8799 183.978 22.0967 184.435 22.2783C184.892 22.4541 185.346 22.6475 185.797 22.8584C186.254 23.0693 186.644 23.374 186.966 23.7725C187.294 24.165 187.458 24.6455 187.458 25.2139C187.458 26.0635 187.115 26.7695 186.43 27.332C185.744 27.8945 184.798 28.1758 183.591 28.1758C182.981 28.1758 182.396 28.1172 181.833 28C181.276 27.8828 180.878 27.7627 180.638 27.6396L180.26 27.4639V24.7568H180.98C181.115 25.5713 181.399 26.1953 181.833 26.6289C182.272 27.0625 182.826 27.2793 183.494 27.2793C183.975 27.2793 184.379 27.127 184.707 26.8223C185.041 26.5176 185.208 26.1602 185.208 25.75ZM188.354 19.9932V19.1758L189.796 18.9121V16.3896L191.589 15.7568H192.134V18.9121H195.008V20.1689H194.023L192.134 19.8086V25.3896C192.134 26.2275 192.553 26.6465 193.391 26.6465C193.678 26.6465 193.956 26.6025 194.226 26.5146C194.495 26.4268 194.691 26.333 194.814 26.2334L195.008 26.1104L195.368 26.5586C195.333 26.6055 195.286 26.667 195.228 26.7432C195.169 26.8135 195.04 26.9424 194.841 27.1299C194.642 27.3115 194.434 27.4756 194.217 27.6221C194.006 27.7686 193.733 27.8975 193.399 28.0088C193.071 28.1201 192.74 28.1758 192.406 28.1758C190.666 28.1758 189.796 27.3086 189.796 25.5742V19.9932H188.354ZM203.832 21.8828V25.3018C203.832 25.9639 203.926 26.415 204.113 26.6553C204.301 26.8896 204.626 27.0068 205.089 27.0068V27.6396C204.562 27.6865 204.028 27.7568 203.489 27.8506C202.95 27.9385 202.543 28.0117 202.268 28.0703L201.854 28.1758L201.67 26.4707H201.582C201.547 26.5176 201.497 26.582 201.433 26.6641C201.374 26.7402 201.245 26.875 201.046 27.0684C200.853 27.2559 200.645 27.4258 200.422 27.5781C200.199 27.7246 199.912 27.8623 199.561 27.9912C199.215 28.1143 198.869 28.1758 198.523 28.1758C197.779 28.1758 197.188 27.9824 196.748 27.5957C196.309 27.2031 196.089 26.708 196.089 26.1104C196.089 25.5947 196.273 25.1201 196.643 24.6865C197.018 24.2529 197.469 23.9131 197.996 23.667C198.529 23.4209 199.06 23.2129 199.587 23.043C200.114 22.8672 200.562 22.75 200.932 22.6914L201.494 22.6035V22.0586C201.494 20.5 200.923 19.7207 199.78 19.7207C199.587 19.7207 199.394 19.7441 199.2 19.791C199.013 19.8379 198.866 19.8848 198.761 19.9316L198.611 19.9932L197.979 21.9707H196.722V19.6328C196.839 19.5625 197.006 19.4805 197.223 19.3867C197.439 19.2871 197.873 19.1523 198.523 18.9824C199.174 18.8125 199.804 18.7275 200.413 18.7275C201.479 18.7275 202.314 19.0146 202.918 19.5889C203.527 20.1572 203.832 20.9219 203.832 21.8828ZM199.604 26.4707C199.927 26.4707 200.243 26.3975 200.554 26.251C200.87 26.0986 201.104 25.9492 201.257 25.8027L201.494 25.5742V23.5C201.412 23.5117 201.304 23.5293 201.169 23.5527C201.034 23.5762 200.797 23.6436 200.457 23.7549C200.117 23.8604 199.818 23.9834 199.561 24.124C199.303 24.2588 199.065 24.4463 198.849 24.6865C198.632 24.9268 198.523 25.1904 198.523 25.4775C198.523 26.1396 198.884 26.4707 199.604 26.4707ZM206.583 27.7627C206.308 27.4873 206.17 27.1475 206.17 26.7432C206.17 26.333 206.308 25.9902 206.583 25.7148C206.858 25.4395 207.201 25.3018 207.611 25.3018C208.021 25.3018 208.364 25.4395 208.64 25.7148C208.915 25.9902 209.053 26.333 209.053 26.7432C209.053 27.1475 208.915 27.4873 208.64 27.7627C208.364 28.0381 208.021 28.1758 207.611 28.1758C207.201 28.1758 206.858 28.0381 206.583 27.7627ZM14.9639 59.3311C14.9639 58.9736 14.8643 58.6895 14.665 58.4785C14.4658 58.2676 14.2051 58.1621 13.8828 58.1621C13.4609 58.1621 13.1328 58.2969 12.8984 58.5664C12.6641 58.8359 12.4824 59.3135 12.3535 59.999H11.6328V57.9775C12.5117 57.4971 13.4111 57.2568 14.3311 57.2568C15.1572 57.2568 15.7988 57.4473 16.2559 57.8281C16.7129 58.2031 16.9414 58.6748 16.9414 59.2432C16.9414 59.7939 16.748 60.2949 16.3613 60.7461C15.9805 61.1914 15.3945 61.6807 14.6035 62.2139L12.9775 63.2861V63.3828H15.0518C15.4854 63.3828 15.8105 63.292 16.0273 63.1104C16.25 62.9287 16.4346 62.6299 16.5811 62.2139H17.2139L16.8535 64.5518H11.2725V63.6465L13.7861 61.4932C13.8682 61.4229 13.9766 61.3203 14.1113 61.1855C14.2461 61.0508 14.4219 60.7959 14.6387 60.4209C14.8555 60.04 14.9639 59.6768 14.9639 59.3311ZM19.4639 63.8311V59.2432H17.9346V58.5928C18.4971 58.5225 19.001 58.3818 19.4463 58.1709C19.8916 57.96 20.1963 57.7695 20.3604 57.5996L20.5977 57.3535H21.2656V62.5742C21.2656 63.1016 21.3564 63.459 21.5381 63.6465C21.7256 63.8281 22.083 63.9189 22.6104 63.9189V64.5518H18.1104V64.0068L19.4639 63.8311ZM28.0947 64.2793V60.1396H40.0654V64.2793H39.1689C39.1689 63.0898 38.9785 62.2695 38.5977 61.8184C38.2227 61.3613 37.5723 61.1328 36.6465 61.1328H35.293V71.3896C35.293 72.1572 35.4131 72.6641 35.6533 72.9102C35.8936 73.1562 36.374 73.2793 37.0947 73.2793V74H31.0654V73.3672L32.8672 73.0068V61.1328H31.5137C30.5879 61.1328 29.9375 61.3613 29.5625 61.8184C29.1875 62.2695 29 63.0898 29 64.2793H28.0947ZM44.4688 65.7207C43.9883 65.7207 43.5693 65.9404 43.2119 66.3799C42.8604 66.8135 42.6201 67.4639 42.4912 68.3311L45.9102 68.0586C45.9102 66.5 45.4297 65.7207 44.4688 65.7207ZM44.6445 64.7275C45.7754 64.7275 46.6602 65.0557 47.2988 65.7119C47.9434 66.3682 48.2891 67.2998 48.3359 68.5068L47.4395 69.2275H42.3945V69.3242C42.3945 70.2969 42.667 71.0791 43.2119 71.6709C43.7627 72.2627 44.4512 72.5586 45.2773 72.5586C45.7812 72.5586 46.2588 72.4941 46.71 72.3652C47.1611 72.2305 47.4805 72.0928 47.668 71.9521L47.9756 71.75L48.3359 72.1104C48.3008 72.1689 48.248 72.2451 48.1777 72.3389C48.1074 72.4268 47.9492 72.5908 47.7031 72.8311C47.457 73.0713 47.1904 73.2822 46.9033 73.4639C46.6221 73.6396 46.2529 73.8037 45.7959 73.9561C45.3447 74.1025 44.873 74.1758 44.3809 74.1758C43.1094 74.1758 42.0547 73.748 41.2168 72.8926C40.3848 72.0371 39.9688 70.9385 39.9688 69.5967C39.9688 68.249 40.4287 67.1006 41.3486 66.1514C42.2744 65.2021 43.373 64.7275 44.6445 64.7275ZM64.2705 68.4189V71.8379C64.2705 72.459 64.3525 72.8691 64.5166 73.0684C64.6865 73.2676 65.0234 73.3672 65.5273 73.3672V74H60.8516V73.3672L61.9326 73.1035V68.4189C61.9326 67.7568 61.7861 67.2617 61.4932 66.9336C61.2061 66.6055 60.8105 66.4414 60.3066 66.4414C60.0078 66.4414 59.709 66.5088 59.4102 66.6436C59.1113 66.7725 58.8828 66.9072 58.7246 67.0479L58.5049 67.25C58.5635 67.4902 58.5957 67.8799 58.6016 68.4189V71.8379C58.6016 72.459 58.6807 72.8691 58.8389 73.0684C59.0029 73.2676 59.3135 73.3672 59.7705 73.3672V74H55.1826V73.3672L56.2549 73.1035V68.4189C56.2549 67.7568 56.1113 67.2617 55.8242 66.9336C55.5371 66.6055 55.1416 66.4414 54.6377 66.4414C54.374 66.4414 54.0986 66.5088 53.8115 66.6436C53.5244 66.7725 53.3018 66.9072 53.1436 67.0479L52.9326 67.25V71.8379C52.9326 72.459 53.0117 72.8691 53.1699 73.0684C53.334 73.2676 53.6445 73.3672 54.1016 73.3672V74H49.3291V73.3672L50.5859 73.1035V67.6104C50.5859 66.9482 50.4922 66.4971 50.3047 66.2568C50.123 66.0166 49.7979 65.8965 49.3291 65.8965V65.2725C49.8564 65.2256 50.3896 65.1582 50.9287 65.0703C51.4678 64.9766 51.875 64.8945 52.1504 64.8242L52.5723 64.7275L52.748 66.2568H52.8359C52.8711 66.2217 52.918 66.1689 52.9766 66.0986C53.041 66.0283 53.1729 65.9053 53.3721 65.7295C53.5713 65.5537 53.7764 65.3984 53.9873 65.2637C54.2041 65.123 54.4766 65 54.8047 64.8945C55.1387 64.7832 55.4727 64.7275 55.8066 64.7275C56.1465 64.7275 56.46 64.7832 56.7471 64.8945C57.0342 65 57.2656 65.1289 57.4414 65.2812C57.623 65.4277 57.7754 65.5742 57.8984 65.7207C58.0273 65.8613 58.1182 65.9873 58.1709 66.0986L58.2412 66.2568H58.3291C58.3643 66.2217 58.4111 66.1689 58.4697 66.0986C58.5342 66.0283 58.666 65.9053 58.8652 65.7295C59.0703 65.5537 59.2871 65.3984 59.5156 65.2637C59.7441 65.123 60.0342 65 60.3857 64.8945C60.7432 64.7832 61.1064 64.7275 61.4756 64.7275C62.3252 64.7275 63.002 65.041 63.5059 65.668C64.0156 66.2891 64.2705 67.2061 64.2705 68.4189ZM78.7549 69.5879C78.7549 68.2812 78.5205 67.2969 78.0518 66.6348C77.583 65.9668 77.0059 65.6328 76.3203 65.6328C75.7227 65.6328 75.1982 65.9551 74.7471 66.5996C74.2959 67.2383 74.0703 68.1465 74.0703 69.3242C74.0703 70.6309 74.3047 71.6182 74.7734 72.2861C75.2422 72.9482 75.8193 73.2793 76.5049 73.2793C77.1025 73.2793 77.627 72.96 78.0781 72.3213C78.5293 71.6768 78.7549 70.7656 78.7549 69.5879ZM81.1807 69.4121C81.1807 70.7656 80.7119 71.8994 79.7744 72.8135C78.8428 73.7217 77.6621 74.1758 76.2324 74.1758C74.8789 74.1758 73.7744 73.7451 72.9189 72.8838C72.0693 72.0225 71.6445 70.8945 71.6445 69.5C71.6445 68.1465 72.1104 67.0127 73.042 66.0986C73.9795 65.1846 75.1631 64.7275 76.5928 64.7275C77.9463 64.7275 79.0479 65.1611 79.8975 66.0283C80.7529 66.8896 81.1807 68.0176 81.1807 69.4121ZM85.874 67.4258V71.8379C85.874 72.4238 85.9854 72.8252 86.208 73.042C86.4365 73.2588 86.8643 73.3672 87.4912 73.3672V74H82.2705V73.3672L83.5273 73.1035V67.6104C83.5273 66.9482 83.4336 66.4971 83.2461 66.2568C83.0645 66.0166 82.7393 65.8965 82.2705 65.8965V65.2725C82.7979 65.2256 83.3311 65.1582 83.8701 65.0703C84.4092 64.9766 84.8164 64.8945 85.0918 64.8242L85.5137 64.7275L85.6895 66.4414H85.7773C85.8125 66.3945 85.8594 66.333 85.918 66.2568C85.9824 66.1748 86.1201 66.0371 86.3311 65.8438C86.542 65.6504 86.7529 65.4805 86.9639 65.334C87.1807 65.1816 87.4502 65.0439 87.7725 64.9209C88.1006 64.792 88.4258 64.7275 88.748 64.7275C88.9883 64.7275 89.2227 64.751 89.4512 64.7979C89.6797 64.8389 89.8408 64.8828 89.9346 64.9297L90.1016 65V68.0586H88.9326L88.2998 66.2568C87.8662 66.2568 87.4473 66.3535 87.043 66.5469C86.6445 66.7402 86.3486 66.9336 86.1553 67.127L85.874 67.4258ZM94.3291 64.6396V71.8379C94.3291 72.459 94.4111 72.8691 94.5752 73.0684C94.7451 73.2676 95.082 73.3672 95.5859 73.3672V74H90.7256V73.3672L91.9824 73.1035V67.6104C91.9824 66.9482 91.8887 66.4971 91.7012 66.2568C91.5195 66.0166 91.1943 65.8965 90.7256 65.8965V65.2725C91.2881 65.2256 91.8682 65.1494 92.4658 65.0439C93.0693 64.9326 93.5322 64.833 93.8545 64.7451L94.3291 64.6396ZM92.1318 62.6094C91.8564 62.334 91.7188 61.9912 91.7188 61.5811C91.7188 61.1709 91.8564 60.8281 92.1318 60.5527C92.4072 60.2773 92.7471 60.1396 93.1514 60.1396C93.5615 60.1396 93.9043 60.2773 94.1797 60.5527C94.4551 60.8281 94.5928 61.1709 94.5928 61.5811C94.5928 61.9912 94.4551 62.334 94.1797 62.6094C93.9043 62.8848 93.5615 63.0225 93.1514 63.0225C92.7471 63.0225 92.4072 62.8848 92.1318 62.6094ZM100.525 64.7275C100.924 64.7275 101.296 64.7686 101.642 64.8506C101.993 64.9268 102.239 65 102.38 65.0703L102.6 65.1758L106.106 64.5518V66.7139H105.57L103.839 65.8965L103.408 65.5361L103.32 65.6328C103.391 65.6914 103.473 65.7822 103.566 65.9053C103.666 66.0225 103.798 66.2686 103.962 66.6436C104.132 67.0127 104.217 67.3936 104.217 67.7861C104.217 68.6768 103.886 69.4121 103.224 69.9922C102.567 70.5664 101.668 70.8535 100.525 70.8535L99.6289 70.7568C99.1484 71.126 98.9082 71.4863 98.9082 71.8379C98.9082 72.0781 98.9727 72.2451 99.1016 72.3389C99.2363 72.4268 99.5029 72.4707 99.9014 72.4707H102.327C103.288 72.4707 104.009 72.667 104.489 73.0596C104.97 73.4463 105.21 73.9707 105.21 74.6328C105.21 75.6523 104.732 76.5225 103.777 77.2432C102.822 77.9639 101.469 78.3242 99.7168 78.3242C97.2559 78.3242 96.0254 77.6914 96.0254 76.4258C96.0254 76.0273 96.2041 75.6348 96.5615 75.248C96.9248 74.8613 97.2881 74.5713 97.6514 74.3779L98.1875 74.0879V74C97.625 74 97.2295 73.9209 97.001 73.7627C96.7725 73.5986 96.6582 73.3467 96.6582 73.0068C96.6582 72.6611 96.8457 72.2891 97.2207 71.8906C97.6016 71.4863 97.9795 71.1699 98.3545 70.9414L98.9082 70.5811C98.8496 70.5693 98.7734 70.543 98.6797 70.502C98.5918 70.4551 98.4277 70.3584 98.1875 70.2119C97.9473 70.0596 97.7363 69.8926 97.5547 69.7109C97.3789 69.5234 97.2148 69.2598 97.0625 68.9199C96.916 68.5742 96.8428 68.1963 96.8428 67.7861C96.8428 66.8955 97.1709 66.1631 97.8271 65.5889C98.4834 65.0146 99.3828 64.7275 100.525 64.7275ZM101.606 74.0879H99.0928C98.4951 74.627 98.1934 75.1689 98.1875 75.7139C98.1875 76.1826 98.3691 76.5693 98.7324 76.874C99.1016 77.1787 99.6113 77.3311 100.262 77.3311C101.041 77.3311 101.671 77.126 102.151 76.7158C102.632 76.3115 102.872 75.8252 102.872 75.2568C102.872 74.8467 102.772 74.5479 102.573 74.3604C102.374 74.1787 102.052 74.0879 101.606 74.0879ZM101.879 67.8828C101.879 67.1621 101.753 66.623 101.501 66.2656C101.249 65.9023 100.924 65.7207 100.525 65.7207C100.139 65.7207 99.8164 65.8936 99.5586 66.2393C99.3066 66.5791 99.1807 67.0654 99.1807 67.6982C99.1807 68.4189 99.3066 68.9609 99.5586 69.3242C99.8105 69.6816 100.133 69.8604 100.525 69.8604C100.912 69.8604 101.234 69.6904 101.492 69.3506C101.75 69.0107 101.879 68.5215 101.879 67.8828ZM111.143 65.7207C110.662 65.7207 110.243 65.9404 109.886 66.3799C109.534 66.8135 109.294 67.4639 109.165 68.3311L112.584 68.0586C112.584 66.5 112.104 65.7207 111.143 65.7207ZM111.318 64.7275C112.449 64.7275 113.334 65.0557 113.973 65.7119C114.617 66.3682 114.963 67.2998 115.01 68.5068L114.113 69.2275H109.068V69.3242C109.068 70.2969 109.341 71.0791 109.886 71.6709C110.437 72.2627 111.125 72.5586 111.951 72.5586C112.455 72.5586 112.933 72.4941 113.384 72.3652C113.835 72.2305 114.154 72.0928 114.342 71.9521L114.649 71.75L115.01 72.1104C114.975 72.1689 114.922 72.2451 114.852 72.3389C114.781 72.4268 114.623 72.5908 114.377 72.8311C114.131 73.0713 113.864 73.2822 113.577 73.4639C113.296 73.6396 112.927 73.8037 112.47 73.9561C112.019 74.1025 111.547 74.1758 111.055 74.1758C109.783 74.1758 108.729 73.748 107.891 72.8926C107.059 72.0371 106.643 70.9385 106.643 69.5967C106.643 68.249 107.103 67.1006 108.022 66.1514C108.948 65.2021 110.047 64.7275 111.318 64.7275ZM130.944 68.4189V71.8379C130.944 72.459 131.026 72.8691 131.19 73.0684C131.36 73.2676 131.697 73.3672 132.201 73.3672V74H127.525V73.3672L128.606 73.1035V68.4189C128.606 67.7568 128.46 67.2617 128.167 66.9336C127.88 66.6055 127.484 66.4414 126.98 66.4414C126.682 66.4414 126.383 66.5088 126.084 66.6436C125.785 66.7725 125.557 66.9072 125.398 67.0479L125.179 67.25C125.237 67.4902 125.27 67.8799 125.275 68.4189V71.8379C125.275 72.459 125.354 72.8691 125.513 73.0684C125.677 73.2676 125.987 73.3672 126.444 73.3672V74H121.856V73.3672L122.929 73.1035V68.4189C122.929 67.7568 122.785 67.2617 122.498 66.9336C122.211 66.6055 121.815 66.4414 121.312 66.4414C121.048 66.4414 120.772 66.5088 120.485 66.6436C120.198 66.7725 119.976 66.9072 119.817 67.0479L119.606 67.25V71.8379C119.606 72.459 119.686 72.8691 119.844 73.0684C120.008 73.2676 120.318 73.3672 120.775 73.3672V74H116.003V73.3672L117.26 73.1035V67.6104C117.26 66.9482 117.166 66.4971 116.979 66.2568C116.797 66.0166 116.472 65.8965 116.003 65.8965V65.2725C116.53 65.2256 117.063 65.1582 117.603 65.0703C118.142 64.9766 118.549 64.8945 118.824 64.8242L119.246 64.7275L119.422 66.2568H119.51C119.545 66.2217 119.592 66.1689 119.65 66.0986C119.715 66.0283 119.847 65.9053 120.046 65.7295C120.245 65.5537 120.45 65.3984 120.661 65.2637C120.878 65.123 121.15 65 121.479 64.8945C121.812 64.7832 122.146 64.7275 122.48 64.7275C122.82 64.7275 123.134 64.7832 123.421 64.8945C123.708 65 123.939 65.1289 124.115 65.2812C124.297 65.4277 124.449 65.5742 124.572 65.7207C124.701 65.8613 124.792 65.9873 124.845 66.0986L124.915 66.2568H125.003C125.038 66.2217 125.085 66.1689 125.144 66.0986C125.208 66.0283 125.34 65.9053 125.539 65.7295C125.744 65.5537 125.961 65.3984 126.189 65.2637C126.418 65.123 126.708 65 127.06 64.8945C127.417 64.7832 127.78 64.7275 128.149 64.7275C128.999 64.7275 129.676 65.041 130.18 65.668C130.689 66.2891 130.944 67.2061 130.944 68.4189ZM133.687 73.7627C133.411 73.4873 133.273 73.1475 133.273 72.7432C133.273 72.333 133.411 71.9902 133.687 71.7148C133.962 71.4395 134.305 71.3018 134.715 71.3018C135.125 71.3018 135.468 71.4395 135.743 71.7148C136.019 71.9902 136.156 72.333 136.156 72.7432C136.156 73.1475 136.019 73.4873 135.743 73.7627C135.468 74.0381 135.125 74.1758 134.715 74.1758C134.305 74.1758 133.962 74.0381 133.687 73.7627Z" fill="#ED1C24"/>
</svg>
