<svg width="268" height="92" viewBox="0 0 268 92" fill="none" xmlns="http://www.w3.org/2000/svg">
<rect x="0.5" y="0.5" width="267" height="91" fill="white" stroke="#ED1C24"/>
<path d="M13.7861 20.7275C13.417 20.7275 13.0361 20.6836 12.6436 20.5957C12.2568 20.5078 11.9609 20.4141 11.7559 20.3145L11.4482 20.1914V18.3018H12.292L12.8018 19.7432C13.042 19.8604 13.3057 19.9189 13.5928 19.9189C14.0967 19.9189 14.4805 19.793 14.7441 19.541C15.0078 19.2891 15.1396 18.9346 15.1396 18.4775C15.1396 18.0791 15.0195 17.7568 14.7793 17.5107C14.5391 17.2588 14.2402 17.1328 13.8828 17.1328C13.7773 17.1328 13.6719 17.1475 13.5664 17.1768C13.4609 17.2061 13.3848 17.2324 13.3379 17.2559L13.25 17.3086L12.8018 16.6758L15.1396 14.6982V14.6104H13.6104C13.165 14.6104 12.8398 14.7041 12.6348 14.8916C12.4355 15.0732 12.3096 15.3691 12.2568 15.7793H11.6328V13.4414H16.9414V14.25L14.5068 16.2803V16.377C14.5186 16.377 14.5889 16.3682 14.7178 16.3506C14.8525 16.333 14.9756 16.3242 15.0869 16.3242C15.6963 16.3242 16.1855 16.5146 16.5547 16.8955C16.9297 17.2705 17.1172 17.7686 17.1172 18.3896C17.1172 19.0518 16.8213 19.6084 16.2295 20.0596C15.6436 20.5049 14.8291 20.7275 13.7861 20.7275ZM21.1777 20.7275C20.2285 20.7275 19.4639 20.4346 18.8838 19.8486C18.3096 19.2627 18.0225 18.4775 18.0225 17.4932C18.0225 16.2686 18.3945 15.2578 19.1387 14.4609C19.8828 13.6582 20.8027 13.2568 21.8984 13.2568C22.1621 13.2568 22.4287 13.2832 22.6982 13.3359C22.9678 13.3828 23.167 13.4297 23.2959 13.4766L23.5156 13.5293L23.3311 14.1621C22.9736 14.0449 22.6133 13.9834 22.25 13.9775C21.6113 13.9775 21.0723 14.209 20.6328 14.6719C20.1992 15.1348 19.959 15.7441 19.9121 16.5H20C20.0352 16.4531 20.0938 16.3887 20.1758 16.3066C20.2637 16.2188 20.4541 16.1104 20.7471 15.9814C21.0459 15.8467 21.3682 15.7793 21.7139 15.7793C22.4346 15.7793 23.0029 15.9961 23.4189 16.4297C23.8408 16.8633 24.0518 17.458 24.0518 18.2139C24.0518 18.9111 23.7822 19.5059 23.2432 19.998C22.7041 20.4844 22.0156 20.7275 21.1777 20.7275ZM21.0811 20.0068C21.3682 20.0068 21.6201 19.8633 21.8369 19.5762C22.0537 19.2891 22.1621 18.8818 22.1621 18.3545C22.1621 17.2998 21.8018 16.7725 21.0811 16.7725C20.8877 16.7725 20.6943 16.8164 20.501 16.9043C20.3135 16.9922 20.167 17.0859 20.0615 17.1855L19.9121 17.3086C19.9121 18.2578 20.0264 18.9463 20.2549 19.374C20.4834 19.7959 20.7588 20.0068 21.0811 20.0068ZM40.7949 30H30.1777V29.3672L31.707 29.0068V18.75C31.707 17.9473 31.6104 17.4316 31.417 17.2031C31.2236 16.9746 30.8105 16.8604 30.1777 16.8604V16.1396H40.707V19.8311H39.8018C39.8018 18.835 39.6318 18.1377 39.292 17.7393C38.9521 17.335 38.3721 17.1328 37.5518 17.1328H34.1328V22.3535H36.207C36.8809 22.3535 37.3174 22.248 37.5166 22.0371C37.7217 21.8262 37.8242 21.3604 37.8242 20.6396H38.7207V25.2275H37.8242C37.8242 24.4717 37.7129 23.9678 37.4902 23.7158C37.2676 23.4639 36.8398 23.3379 36.207 23.3379H34.1328V29.0068H37.2881C38.2373 29.0068 38.9229 28.79 39.3447 28.3564C39.7725 27.917 40.0771 27.1143 40.2588 25.9482H41.1553L40.7949 30ZM47.6416 27.75C47.6416 27.4395 47.4775 27.1582 47.1494 26.9062C46.8271 26.6543 46.4375 26.4258 45.9805 26.2207C45.5293 26.0156 45.0752 25.7959 44.6182 25.5615C44.1611 25.3271 43.7686 25.0137 43.4404 24.6211C43.1182 24.2227 42.957 23.7656 42.957 23.25C42.957 22.5293 43.2617 21.9287 43.8711 21.4482C44.4863 20.9678 45.3535 20.7275 46.4727 20.7275C46.9531 20.7275 47.416 20.7744 47.8613 20.8682C48.3125 20.9561 48.6465 21.0469 48.8633 21.1406L49.1709 21.2725V23.6104H48.4326C48.2744 22.292 47.6504 21.6328 46.5605 21.6328C46.1738 21.6328 45.8516 21.7412 45.5938 21.958C45.3359 22.1689 45.207 22.4209 45.207 22.7139C45.207 23.0713 45.3682 23.376 45.6904 23.6279C46.0186 23.8799 46.4111 24.0967 46.8682 24.2783C47.3252 24.4541 47.7793 24.6475 48.2305 24.8584C48.6875 25.0693 49.0771 25.374 49.3994 25.7725C49.7275 26.165 49.8916 26.6455 49.8916 27.2139C49.8916 28.0635 49.5488 28.7695 48.8633 29.332C48.1777 29.8945 47.2314 30.1758 46.0244 30.1758C45.415 30.1758 44.8291 30.1172 44.2666 30C43.71 29.8828 43.3115 29.7627 43.0713 29.6396L42.6934 29.4639V26.7568H43.4141C43.5488 27.5713 43.833 28.1953 44.2666 28.6289C44.7061 29.0625 45.2598 29.2793 45.9277 29.2793C46.4082 29.2793 46.8125 29.127 47.1406 28.8223C47.4746 28.5176 47.6416 28.1602 47.6416 27.75ZM50.7881 21.9932V21.1758L52.2295 20.9121V18.3896L54.0225 17.7568H54.5674V20.9121H57.4414V22.1689H56.457L54.5674 21.8086V27.3896C54.5674 28.2275 54.9863 28.6465 55.8242 28.6465C56.1113 28.6465 56.3896 28.6025 56.6592 28.5146C56.9287 28.4268 57.125 28.333 57.248 28.2334L57.4414 28.1104L57.8018 28.5586C57.7666 28.6055 57.7197 28.667 57.6611 28.7432C57.6025 28.8135 57.4736 28.9424 57.2744 29.1299C57.0752 29.3115 56.8672 29.4756 56.6504 29.6221C56.4395 29.7686 56.167 29.8975 55.833 30.0088C55.5049 30.1201 55.1738 30.1758 54.8398 30.1758C53.0996 30.1758 52.2295 29.3086 52.2295 27.5742V21.9932H50.7881ZM66.2656 23.8828V27.3018C66.2656 27.9639 66.3594 28.415 66.5469 28.6553C66.7344 28.8896 67.0596 29.0068 67.5225 29.0068V29.6396C66.9951 29.6865 66.4619 29.7568 65.9229 29.8506C65.3838 29.9385 64.9766 30.0117 64.7012 30.0703L64.2881 30.1758L64.1035 28.4707H64.0156C63.9805 28.5176 63.9307 28.582 63.8662 28.6641C63.8076 28.7402 63.6787 28.875 63.4795 29.0684C63.2861 29.2559 63.0781 29.4258 62.8555 29.5781C62.6328 29.7246 62.3457 29.8623 61.9941 29.9912C61.6484 30.1143 61.3027 30.1758 60.957 30.1758C60.2129 30.1758 59.6211 29.9824 59.1816 29.5957C58.7422 29.2031 58.5225 28.708 58.5225 28.1104C58.5225 27.5947 58.707 27.1201 59.0762 26.6865C59.4512 26.2529 59.9023 25.9131 60.4297 25.667C60.9629 25.4209 61.4932 25.2129 62.0205 25.043C62.5479 24.8672 62.9961 24.75 63.3652 24.6914L63.9277 24.6035V24.0586C63.9277 22.5 63.3564 21.7207 62.2139 21.7207C62.0205 21.7207 61.8271 21.7441 61.6338 21.791C61.4463 21.8379 61.2998 21.8848 61.1943 21.9316L61.0449 21.9932L60.4121 23.9707H59.1553V21.6328C59.2725 21.5625 59.4395 21.4805 59.6562 21.3867C59.873 21.2871 60.3066 21.1523 60.957 20.9824C61.6074 20.8125 62.2373 20.7275 62.8467 20.7275C63.9131 20.7275 64.748 21.0146 65.3516 21.5889C65.9609 22.1572 66.2656 22.9219 66.2656 23.8828ZM62.0381 28.4707C62.3604 28.4707 62.6768 28.3975 62.9873 28.251C63.3037 28.0986 63.5381 27.9492 63.6904 27.8027L63.9277 27.5742V25.5C63.8457 25.5117 63.7373 25.5293 63.6025 25.5527C63.4678 25.5762 63.2305 25.6436 62.8906 25.7549C62.5508 25.8604 62.252 25.9834 61.9941 26.124C61.7363 26.2588 61.499 26.4463 61.2822 26.6865C61.0654 26.9268 60.957 27.1904 60.957 27.4775C60.957 28.1396 61.3174 28.4707 62.0381 28.4707ZM78.1484 21.7207C77.668 21.7207 77.249 21.9404 76.8916 22.3799C76.54 22.8135 76.2998 23.4639 76.1709 24.3311L79.5898 24.0586C79.5898 22.5 79.1094 21.7207 78.1484 21.7207ZM78.3242 20.7275C79.4551 20.7275 80.3398 21.0557 80.9785 21.7119C81.623 22.3682 81.9688 23.2998 82.0156 24.5068L81.1191 25.2275H76.0742V25.3242C76.0742 26.2969 76.3467 27.0791 76.8916 27.6709C77.4424 28.2627 78.1309 28.5586 78.957 28.5586C79.4609 28.5586 79.9385 28.4941 80.3896 28.3652C80.8408 28.2305 81.1602 28.0928 81.3477 27.9521L81.6553 27.75L82.0156 28.1104C81.9805 28.1689 81.9277 28.2451 81.8574 28.3389C81.7871 28.4268 81.6289 28.5908 81.3828 28.8311C81.1367 29.0713 80.8701 29.2822 80.583 29.4639C80.3018 29.6396 79.9326 29.8037 79.4756 29.9561C79.0244 30.1025 78.5527 30.1758 78.0605 30.1758C76.7891 30.1758 75.7344 29.748 74.8965 28.8926C74.0645 28.0371 73.6484 26.9385 73.6484 25.5967C73.6484 24.249 74.1084 23.1006 75.0283 22.1514C75.9541 21.2021 77.0527 20.7275 78.3242 20.7275ZM88.7744 25.1396L90.752 27.9258C91.1738 28.5117 91.5049 28.8984 91.7451 29.0859C91.9854 29.2734 92.3135 29.3672 92.7295 29.3672V30H87.7812V29.3672L88.8623 29.1035L87.0605 26.4932L85.8037 28.0225C85.5635 28.3213 85.4434 28.5908 85.4434 28.8311C85.4434 28.9775 85.5166 29.1035 85.6631 29.209C85.8154 29.3145 86.041 29.3672 86.3398 29.3672V30H82.4727V29.3672L83.6416 29.1035L86.4365 25.5879L84.5469 22.9775C84.1367 22.415 83.8057 22.0342 83.5537 21.835C83.3018 21.6357 83 21.5361 82.6484 21.5361V20.9121H87.4209V21.5361L86.3398 21.8086L88.0537 24.2432L89.2227 22.8018C89.4629 22.5029 89.583 22.2627 89.583 22.0811C89.583 21.9346 89.5068 21.8086 89.3545 21.7031C89.208 21.5918 88.9854 21.5361 88.6865 21.5361V20.9121H92.4658V21.5361L91.2969 21.8086L88.7744 25.1396ZM96.6055 29.9121V31.9775C96.6055 32.5635 96.7285 32.9648 96.9746 33.1816C97.2207 33.3984 97.6982 33.5068 98.4072 33.5068V34.1396H93.0107V33.5068L94.2676 33.2432V23.6104C94.2676 22.9482 94.1738 22.4971 93.9863 22.2568C93.8047 22.0166 93.4795 21.8965 93.0107 21.8965V21.2725C93.5381 21.2256 94.0713 21.1582 94.6104 21.0703C95.1494 20.9766 95.5566 20.8945 95.832 20.8242L96.2451 20.7275L96.4297 22.4414H96.5176C96.5527 22.3945 96.5996 22.333 96.6582 22.2568C96.7227 22.1748 96.8574 22.0371 97.0625 21.8438C97.2734 21.6504 97.4932 21.4805 97.7217 21.334C97.9502 21.1816 98.2314 21.0439 98.5654 20.9209C98.9053 20.792 99.2422 20.7275 99.5762 20.7275C100.514 20.7275 101.316 21.126 101.984 21.9229C102.658 22.7139 102.995 23.7568 102.995 25.0518C102.995 26.6221 102.541 27.8701 101.633 28.7959C100.73 29.7158 99.5352 30.1758 98.0469 30.1758C97.8066 30.1758 97.5664 30.1523 97.3262 30.1055C97.0859 30.0586 96.9072 30.0117 96.79 29.9648L96.6055 29.9121ZM98.3193 29.1914C98.958 29.1914 99.4912 28.8838 99.9189 28.2686C100.353 27.6475 100.569 26.7246 100.569 25.5C100.569 23.4609 99.8779 22.4414 98.4951 22.4414C98.208 22.4414 97.9062 22.5176 97.5898 22.6699C97.2734 22.8164 97.0303 22.9688 96.8604 23.127L96.6055 23.3379V28.2861C96.6523 28.3564 96.7256 28.4414 96.8252 28.541C96.9307 28.6348 97.1328 28.7666 97.4316 28.9365C97.7363 29.1064 98.0322 29.1914 98.3193 29.1914ZM107.688 23.4258V27.8379C107.688 28.4238 107.8 28.8252 108.022 29.042C108.251 29.2588 108.679 29.3672 109.306 29.3672V30H104.085V29.3672L105.342 29.1035V23.6104C105.342 22.9482 105.248 22.4971 105.061 22.2568C104.879 22.0166 104.554 21.8965 104.085 21.8965V21.2725C104.612 21.2256 105.146 21.1582 105.685 21.0703C106.224 20.9766 106.631 20.8945 106.906 20.8242L107.328 20.7275L107.504 22.4414H107.592C107.627 22.3945 107.674 22.333 107.732 22.2568C107.797 22.1748 107.935 22.0371 108.146 21.8438C108.356 21.6504 108.567 21.4805 108.778 21.334C108.995 21.1816 109.265 21.0439 109.587 20.9209C109.915 20.792 110.24 20.7275 110.562 20.7275C110.803 20.7275 111.037 20.751 111.266 20.7979C111.494 20.8389 111.655 20.8828 111.749 20.9297L111.916 21V24.0586H110.747L110.114 22.2568C109.681 22.2568 109.262 22.3535 108.857 22.5469C108.459 22.7402 108.163 22.9336 107.97 23.127L107.688 23.4258ZM117.225 21.7207C116.744 21.7207 116.325 21.9404 115.968 22.3799C115.616 22.8135 115.376 23.4639 115.247 24.3311L118.666 24.0586C118.666 22.5 118.186 21.7207 117.225 21.7207ZM117.4 20.7275C118.531 20.7275 119.416 21.0557 120.055 21.7119C120.699 22.3682 121.045 23.2998 121.092 24.5068L120.195 25.2275H115.15V25.3242C115.15 26.2969 115.423 27.0791 115.968 27.6709C116.519 28.2627 117.207 28.5586 118.033 28.5586C118.537 28.5586 119.015 28.4941 119.466 28.3652C119.917 28.2305 120.236 28.0928 120.424 27.9521L120.731 27.75L121.092 28.1104C121.057 28.1689 121.004 28.2451 120.934 28.3389C120.863 28.4268 120.705 28.5908 120.459 28.8311C120.213 29.0713 119.946 29.2822 119.659 29.4639C119.378 29.6396 119.009 29.8037 118.552 29.9561C118.101 30.1025 117.629 30.1758 117.137 30.1758C115.865 30.1758 114.811 29.748 113.973 28.8926C113.141 28.0371 112.725 26.9385 112.725 25.5967C112.725 24.249 113.185 23.1006 114.104 22.1514C115.03 21.2021 116.129 20.7275 117.4 20.7275ZM127.306 27.75C127.306 27.4395 127.142 27.1582 126.813 26.9062C126.491 26.6543 126.102 26.4258 125.645 26.2207C125.193 26.0156 124.739 25.7959 124.282 25.5615C123.825 25.3271 123.433 25.0137 123.104 24.6211C122.782 24.2227 122.621 23.7656 122.621 23.25C122.621 22.5293 122.926 21.9287 123.535 21.4482C124.15 20.9678 125.018 20.7275 126.137 20.7275C126.617 20.7275 127.08 20.7744 127.525 20.8682C127.977 20.9561 128.311 21.0469 128.527 21.1406L128.835 21.2725V23.6104H128.097C127.938 22.292 127.314 21.6328 126.225 21.6328C125.838 21.6328 125.516 21.7412 125.258 21.958C125 22.1689 124.871 22.4209 124.871 22.7139C124.871 23.0713 125.032 23.376 125.354 23.6279C125.683 23.8799 126.075 24.0967 126.532 24.2783C126.989 24.4541 127.443 24.6475 127.895 24.8584C128.352 25.0693 128.741 25.374 129.063 25.7725C129.392 26.165 129.556 26.6455 129.556 27.2139C129.556 28.0635 129.213 28.7695 128.527 29.332C127.842 29.8945 126.896 30.1758 125.688 30.1758C125.079 30.1758 124.493 30.1172 123.931 30C123.374 29.8828 122.976 29.7627 122.735 29.6396L122.357 29.4639V26.7568H123.078C123.213 27.5713 123.497 28.1953 123.931 28.6289C124.37 29.0625 124.924 29.2793 125.592 29.2793C126.072 29.2793 126.477 29.127 126.805 28.8223C127.139 28.5176 127.306 28.1602 127.306 27.75ZM135.761 27.75C135.761 27.4395 135.597 27.1582 135.269 26.9062C134.946 26.6543 134.557 26.4258 134.1 26.2207C133.648 26.0156 133.194 25.7959 132.737 25.5615C132.28 25.3271 131.888 25.0137 131.56 24.6211C131.237 24.2227 131.076 23.7656 131.076 23.25C131.076 22.5293 131.381 21.9287 131.99 21.4482C132.605 20.9678 133.473 20.7275 134.592 20.7275C135.072 20.7275 135.535 20.7744 135.98 20.8682C136.432 20.9561 136.766 21.0469 136.982 21.1406L137.29 21.2725V23.6104H136.552C136.394 22.292 135.77 21.6328 134.68 21.6328C134.293 21.6328 133.971 21.7412 133.713 21.958C133.455 22.1689 133.326 22.4209 133.326 22.7139C133.326 23.0713 133.487 23.376 133.81 23.6279C134.138 23.8799 134.53 24.0967 134.987 24.2783C135.444 24.4541 135.898 24.6475 136.35 24.8584C136.807 25.0693 137.196 25.374 137.519 25.7725C137.847 26.165 138.011 26.6455 138.011 27.2139C138.011 28.0635 137.668 28.7695 136.982 29.332C136.297 29.8945 135.351 30.1758 134.144 30.1758C133.534 30.1758 132.948 30.1172 132.386 30C131.829 29.8828 131.431 29.7627 131.19 29.6396L130.812 29.4639V26.7568H131.533C131.668 27.5713 131.952 28.1953 132.386 28.6289C132.825 29.0625 133.379 29.2793 134.047 29.2793C134.527 29.2793 134.932 29.127 135.26 28.8223C135.594 28.5176 135.761 28.1602 135.761 27.75ZM146.914 23.8828V27.3018C146.914 27.9639 147.008 28.415 147.195 28.6553C147.383 28.8896 147.708 29.0068 148.171 29.0068V29.6396C147.644 29.6865 147.11 29.7568 146.571 29.8506C146.032 29.9385 145.625 30.0117 145.35 30.0703L144.937 30.1758L144.752 28.4707H144.664C144.629 28.5176 144.579 28.582 144.515 28.6641C144.456 28.7402 144.327 28.875 144.128 29.0684C143.935 29.2559 143.727 29.4258 143.504 29.5781C143.281 29.7246 142.994 29.8623 142.643 29.9912C142.297 30.1143 141.951 30.1758 141.605 30.1758C140.861 30.1758 140.27 29.9824 139.83 29.5957C139.391 29.2031 139.171 28.708 139.171 28.1104C139.171 27.5947 139.355 27.1201 139.725 26.6865C140.1 26.2529 140.551 25.9131 141.078 25.667C141.611 25.4209 142.142 25.2129 142.669 25.043C143.196 24.8672 143.645 24.75 144.014 24.6914L144.576 24.6035V24.0586C144.576 22.5 144.005 21.7207 142.862 21.7207C142.669 21.7207 142.476 21.7441 142.282 21.791C142.095 21.8379 141.948 21.8848 141.843 21.9316L141.693 21.9932L141.061 23.9707H139.804V21.6328C139.921 21.5625 140.088 21.4805 140.305 21.3867C140.521 21.2871 140.955 21.1523 141.605 20.9824C142.256 20.8125 142.886 20.7275 143.495 20.7275C144.562 20.7275 145.396 21.0146 146 21.5889C146.609 22.1572 146.914 22.9219 146.914 23.8828ZM142.687 28.4707C143.009 28.4707 143.325 28.3975 143.636 28.251C143.952 28.0986 144.187 27.9492 144.339 27.8027L144.576 27.5742V25.5C144.494 25.5117 144.386 25.5293 144.251 25.5527C144.116 25.5762 143.879 25.6436 143.539 25.7549C143.199 25.8604 142.9 25.9834 142.643 26.124C142.385 26.2588 142.147 26.4463 141.931 26.6865C141.714 26.9268 141.605 27.1904 141.605 27.4775C141.605 28.1396 141.966 28.4707 142.687 28.4707ZM144.216 18.8379L142.959 18.4775C142.537 18.3604 142.206 18.3018 141.966 18.3018C141.69 18.3018 141.45 18.5098 141.245 18.9258L140.612 18.75L140.885 17.8535C141.09 17.1914 141.45 16.8604 141.966 16.8604C142.101 16.8604 142.256 16.875 142.432 16.9043C142.613 16.9336 142.763 16.9658 142.88 17.001L143.047 17.0361L144.304 17.3965C144.726 17.5137 145.057 17.5752 145.297 17.5811C145.561 17.5811 145.801 17.3701 146.018 16.9482L146.642 17.1328L146.378 18.0293C146.173 18.6914 145.812 19.0225 145.297 19.0225C145.162 19.0225 145.004 19.0078 144.822 18.9785C144.646 18.9434 144.503 18.9082 144.392 18.873L144.216 18.8379ZM156.274 25.5879C156.274 24.2812 156.04 23.2969 155.571 22.6348C155.103 21.9668 154.525 21.6328 153.84 21.6328C153.242 21.6328 152.718 21.9551 152.267 22.5996C151.815 23.2383 151.59 24.1465 151.59 25.3242C151.59 26.6309 151.824 27.6182 152.293 28.2861C152.762 28.9482 153.339 29.2793 154.024 29.2793C154.622 29.2793 155.146 28.96 155.598 28.3213C156.049 27.6768 156.274 26.7656 156.274 25.5879ZM158.7 25.4121C158.7 26.7656 158.231 27.8994 157.294 28.8135C156.362 29.7217 155.182 30.1758 153.752 30.1758C152.398 30.1758 151.294 29.7451 150.438 28.8838C149.589 28.0225 149.164 26.8945 149.164 25.5C149.164 24.1465 149.63 23.0127 150.562 22.0986C151.499 21.1846 152.683 20.7275 154.112 20.7275C155.466 20.7275 156.567 21.1611 157.417 22.0283C158.272 22.8896 158.7 24.0176 158.7 25.4121ZM172.394 25.5879C172.394 24.2812 172.159 23.2969 171.69 22.6348C171.222 21.9668 170.645 21.6328 169.959 21.6328C169.361 21.6328 168.837 21.9551 168.386 22.5996C167.935 23.2383 167.709 24.1465 167.709 25.3242C167.709 26.6309 167.943 27.6182 168.412 28.2861C168.881 28.9482 169.458 29.2793 170.144 29.2793C170.741 29.2793 171.266 28.96 171.717 28.3213C172.168 27.6768 172.394 26.7656 172.394 25.5879ZM174.819 25.4121C174.819 26.7656 174.351 27.8994 173.413 28.8135C172.481 29.7217 171.301 30.1758 169.871 30.1758C168.518 30.1758 167.413 29.7451 166.558 28.8838C165.708 28.0225 165.283 26.8945 165.283 25.5C165.283 24.1465 165.749 23.0127 166.681 22.0986C167.618 21.1846 168.802 20.7275 170.231 20.7275C171.585 20.7275 172.687 21.1611 173.536 22.0283C174.392 22.8896 174.819 24.0176 174.819 25.4121ZM180.682 30.1758C180.008 30.1758 179.363 30.082 178.748 29.8945C178.139 29.7012 177.696 29.5078 177.421 29.3145L176.99 29.0068V18.3896C176.99 17.7275 176.896 17.2764 176.709 17.0361C176.521 16.7959 176.193 16.6758 175.725 16.6758V16.0518C176.287 16.0049 176.87 15.9287 177.474 15.8232C178.077 15.7119 178.54 15.6123 178.862 15.5244L179.328 15.4189V22.2568H179.416C179.439 22.2217 179.48 22.1689 179.539 22.0986C179.604 22.0283 179.727 21.9053 179.908 21.7295C180.096 21.5537 180.295 21.3984 180.506 21.2637C180.717 21.123 180.983 21 181.306 20.8945C181.634 20.7832 181.965 20.7275 182.299 20.7275C183.236 20.7275 184.039 21.126 184.707 21.9229C185.381 22.7139 185.718 23.7568 185.718 25.0518C185.718 26.6221 185.261 27.8701 184.347 28.7959C183.438 29.7158 182.217 30.1758 180.682 30.1758ZM181.042 29.1914C181.681 29.1914 182.214 28.8838 182.642 28.2686C183.075 27.6475 183.292 26.7246 183.292 25.5C183.292 23.4609 182.601 22.4414 181.218 22.4414C180.931 22.4414 180.626 22.5176 180.304 22.6699C179.987 22.8164 179.747 22.9688 179.583 23.127L179.328 23.3379V28.2861C179.387 28.3564 179.463 28.4414 179.557 28.541C179.656 28.6348 179.855 28.7666 180.154 28.9365C180.459 29.1064 180.755 29.1914 181.042 29.1914ZM190.411 20.6396V29.9121C190.411 31.2422 190.036 32.3086 189.286 33.1113C188.536 33.9199 187.59 34.3242 186.447 34.3242C186.125 34.3242 185.814 34.2861 185.516 34.21C185.211 34.1396 184.994 34.0693 184.865 33.999L184.646 33.8672V31.5293H185.727L186.535 33.4189C187.555 33.3135 188.064 32.2646 188.064 30.2725V23.6104C188.064 22.9482 187.971 22.4971 187.783 22.2568C187.602 22.0166 187.276 21.8965 186.808 21.8965V21.2725C187.37 21.2256 187.95 21.1494 188.548 21.0439C189.151 20.9326 189.614 20.833 189.937 20.7451L190.411 20.6396ZM188.214 18.6094C187.938 18.334 187.801 17.9912 187.801 17.5811C187.801 17.1709 187.938 16.8281 188.214 16.5527C188.489 16.2773 188.829 16.1396 189.233 16.1396C189.644 16.1396 189.986 16.2773 190.262 16.5527C190.537 16.8281 190.675 17.1709 190.675 17.5811C190.675 17.9912 190.537 18.334 190.262 18.6094C189.986 18.8848 189.644 19.0225 189.233 19.0225C188.829 19.0225 188.489 18.8848 188.214 18.6094ZM197.064 21.7207C196.584 21.7207 196.165 21.9404 195.808 22.3799C195.456 22.8135 195.216 23.4639 195.087 24.3311L198.506 24.0586C198.506 22.5 198.025 21.7207 197.064 21.7207ZM197.24 20.7275C198.371 20.7275 199.256 21.0557 199.895 21.7119C200.539 22.3682 200.885 23.2998 200.932 24.5068L200.035 25.2275H194.99V25.3242C194.99 26.2969 195.263 27.0791 195.808 27.6709C196.358 28.2627 197.047 28.5586 197.873 28.5586C198.377 28.5586 198.854 28.4941 199.306 28.3652C199.757 28.2305 200.076 28.0928 200.264 27.9521L200.571 27.75L200.932 28.1104C200.896 28.1689 200.844 28.2451 200.773 28.3389C200.703 28.4268 200.545 28.5908 200.299 28.8311C200.053 29.0713 199.786 29.2822 199.499 29.4639C199.218 29.6396 198.849 29.8037 198.392 29.9561C197.94 30.1025 197.469 30.1758 196.977 30.1758C195.705 30.1758 194.65 29.748 193.812 28.8926C192.98 28.0371 192.564 26.9385 192.564 25.5967C192.564 24.249 193.024 23.1006 193.944 22.1514C194.87 21.2021 195.969 20.7275 197.24 20.7275ZM201.837 21.9932V21.1758L203.278 20.9121V18.3896L205.071 17.7568H205.616V20.9121H208.49V22.1689H207.506L205.616 21.8086V27.3896C205.616 28.2275 206.035 28.6465 206.873 28.6465C207.16 28.6465 207.438 28.6025 207.708 28.5146C207.978 28.4268 208.174 28.333 208.297 28.2334L208.49 28.1104L208.851 28.5586C208.815 28.6055 208.769 28.667 208.71 28.7432C208.651 28.8135 208.522 28.9424 208.323 29.1299C208.124 29.3115 207.916 29.4756 207.699 29.6221C207.488 29.7686 207.216 29.8975 206.882 30.0088C206.554 30.1201 206.223 30.1758 205.889 30.1758C204.148 30.1758 203.278 29.3086 203.278 27.5742V21.9932H201.837ZM212.999 20.6396V27.8379C212.999 28.459 213.081 28.8691 213.245 29.0684C213.415 29.2676 213.752 29.3672 214.256 29.3672V30H209.396V29.3672L210.652 29.1035V23.6104C210.652 22.9482 210.559 22.4971 210.371 22.2568C210.189 22.0166 209.864 21.8965 209.396 21.8965V21.2725C209.958 21.2256 210.538 21.1494 211.136 21.0439C211.739 20.9326 212.202 20.833 212.524 20.7451L212.999 20.6396ZM210.802 18.6094C210.526 18.334 210.389 17.9912 210.389 17.5811C210.389 17.1709 210.526 16.8281 210.802 16.5527C211.077 16.2773 211.417 16.1396 211.821 16.1396C212.231 16.1396 212.574 16.2773 212.85 16.5527C213.125 16.8281 213.263 17.1709 213.263 17.5811C213.263 17.9912 213.125 18.334 212.85 18.6094C212.574 18.8848 212.231 19.0225 211.821 19.0225C211.417 19.0225 211.077 18.8848 210.802 18.6094ZM222.438 29.1035V22.1689H221.63L218.571 21.8086V27.8379C218.571 28.459 218.653 28.8691 218.817 29.0684C218.987 29.2676 219.324 29.3672 219.828 29.3672V30H214.968V29.3672L216.233 29.1035V21.9932H214.88V21.1758L216.233 20.9121V18.5742C216.233 17.5195 216.562 16.7021 217.218 16.1221C217.88 15.5361 218.87 15.2432 220.188 15.2432C220.886 15.2432 221.615 15.3486 222.377 15.5596C223.139 15.7646 223.73 15.9697 224.152 16.1748L224.776 16.5V19.0225H223.159L222.623 17.0361C222.025 16.5557 221.334 16.3184 220.549 16.3242C219.23 16.3242 218.571 17.042 218.571 18.4775V20.9121H224.776V27.8379C224.776 28.459 224.861 28.8691 225.031 29.0684C225.201 29.2676 225.538 29.3672 226.042 29.3672V30H221.182V29.3672L222.438 29.1035ZM227.035 25.5879C227.035 24.2227 227.521 23.0713 228.494 22.1338C229.467 21.1963 230.691 20.7275 232.168 20.7275C232.73 20.7275 233.252 20.7979 233.732 20.9385C234.213 21.0732 234.547 21.208 234.734 21.3428L235.042 21.5361V24.2432H233.961L233.152 21.9932C232.912 21.8115 232.552 21.7207 232.071 21.7207C231.351 21.7207 230.735 22.0371 230.226 22.6699C229.716 23.2969 229.461 24.1494 229.461 25.2275C229.461 26.2354 229.733 27.0439 230.278 27.6533C230.829 28.2568 231.518 28.5586 232.344 28.5586C232.848 28.5586 233.325 28.4941 233.776 28.3652C234.228 28.2305 234.547 28.0928 234.734 27.9521L235.042 27.75L235.402 28.1104C235.367 28.1689 235.314 28.2451 235.244 28.3389C235.174 28.4268 235.016 28.5908 234.77 28.8311C234.523 29.0713 234.257 29.2822 233.97 29.4639C233.688 29.6396 233.319 29.8037 232.862 29.9561C232.411 30.1025 231.939 30.1758 231.447 30.1758C230.223 30.1758 229.18 29.7363 228.318 28.8574C227.463 27.9727 227.035 26.8828 227.035 25.5879ZM244.227 23.8828V27.3018C244.227 27.9639 244.32 28.415 244.508 28.6553C244.695 28.8896 245.021 29.0068 245.483 29.0068V29.6396C244.956 29.6865 244.423 29.7568 243.884 29.8506C243.345 29.9385 242.938 30.0117 242.662 30.0703L242.249 30.1758L242.064 28.4707H241.977C241.941 28.5176 241.892 28.582 241.827 28.6641C241.769 28.7402 241.64 28.875 241.44 29.0684C241.247 29.2559 241.039 29.4258 240.816 29.5781C240.594 29.7246 240.307 29.8623 239.955 29.9912C239.609 30.1143 239.264 30.1758 238.918 30.1758C238.174 30.1758 237.582 29.9824 237.143 29.5957C236.703 29.2031 236.483 28.708 236.483 28.1104C236.483 27.5947 236.668 27.1201 237.037 26.6865C237.412 26.2529 237.863 25.9131 238.391 25.667C238.924 25.4209 239.454 25.2129 239.981 25.043C240.509 24.8672 240.957 24.75 241.326 24.6914L241.889 24.6035V24.0586C241.889 22.5 241.317 21.7207 240.175 21.7207C239.981 21.7207 239.788 21.7441 239.595 21.791C239.407 21.8379 239.261 21.8848 239.155 21.9316L239.006 21.9932L238.373 23.9707H237.116V21.6328C237.233 21.5625 237.4 21.4805 237.617 21.3867C237.834 21.2871 238.268 21.1523 238.918 20.9824C239.568 20.8125 240.198 20.7275 240.808 20.7275C241.874 20.7275 242.709 21.0146 243.312 21.5889C243.922 22.1572 244.227 22.9219 244.227 23.8828ZM239.999 28.4707C240.321 28.4707 240.638 28.3975 240.948 28.251C241.265 28.0986 241.499 27.9492 241.651 27.8027L241.889 27.5742V25.5C241.807 25.5117 241.698 25.5293 241.563 25.5527C241.429 25.5762 241.191 25.6436 240.852 25.7549C240.512 25.8604 240.213 25.9834 239.955 26.124C239.697 26.2588 239.46 26.4463 239.243 26.6865C239.026 26.9268 238.918 27.1904 238.918 27.4775C238.918 28.1396 239.278 28.4707 239.999 28.4707ZM19.2793 46.8828V50.3018C19.2793 50.9639 19.373 51.415 19.5605 51.6553C19.748 51.8896 20.0732 52.0068 20.5361 52.0068V52.6396C20.0088 52.6865 19.4756 52.7568 18.9365 52.8506C18.3975 52.9385 17.9902 53.0117 17.7148 53.0703L17.3018 53.1758L17.1172 51.4707H17.0293C16.9941 51.5176 16.9443 51.582 16.8799 51.6641C16.8213 51.7402 16.6924 51.875 16.4932 52.0684C16.2998 52.2559 16.0918 52.4258 15.8691 52.5781C15.6465 52.7246 15.3594 52.8623 15.0078 52.9912C14.6621 53.1143 14.3164 53.1758 13.9707 53.1758C13.2266 53.1758 12.6348 52.9824 12.1953 52.5957C11.7559 52.2031 11.5361 51.708 11.5361 51.1104C11.5361 50.5947 11.7207 50.1201 12.0898 49.6865C12.4648 49.2529 12.916 48.9131 13.4434 48.667C13.9766 48.4209 14.5068 48.2129 15.0342 48.043C15.5615 47.8672 16.0098 47.75 16.3789 47.6914L16.9414 47.6035V47.0586C16.9414 45.5 16.3701 44.7207 15.2275 44.7207C15.0342 44.7207 14.8408 44.7441 14.6475 44.791C14.46 44.8379 14.3135 44.8848 14.208 44.9316L14.0586 44.9932L13.4258 46.9707H12.1689V44.6328C12.2861 44.5625 12.4531 44.4805 12.6699 44.3867C12.8867 44.2871 13.3203 44.1523 13.9707 43.9824C14.6211 43.8125 15.251 43.7275 15.8604 43.7275C16.9268 43.7275 17.7617 44.0146 18.3652 44.5889C18.9746 45.1572 19.2793 45.9219 19.2793 46.8828ZM15.0518 51.4707C15.374 51.4707 15.6904 51.3975 16.001 51.251C16.3174 51.0986 16.5518 50.9492 16.7041 50.8027L16.9414 50.5742V48.5C16.8594 48.5117 16.751 48.5293 16.6162 48.5527C16.4814 48.5762 16.2441 48.6436 15.9043 48.7549C15.5645 48.8604 15.2656 48.9834 15.0078 49.124C14.75 49.2588 14.5127 49.4463 14.2959 49.6865C14.0791 49.9268 13.9707 50.1904 13.9707 50.4775C13.9707 51.1396 14.3311 51.4707 15.0518 51.4707ZM31.5225 50.75C31.5225 50.4395 31.3584 50.1582 31.0303 49.9062C30.708 49.6543 30.3184 49.4258 29.8613 49.2207C29.4102 49.0156 28.9561 48.7959 28.499 48.5615C28.042 48.3271 27.6494 48.0137 27.3213 47.6211C26.999 47.2227 26.8379 46.7656 26.8379 46.25C26.8379 45.5293 27.1426 44.9287 27.752 44.4482C28.3672 43.9678 29.2344 43.7275 30.3535 43.7275C30.834 43.7275 31.2969 43.7744 31.7422 43.8682C32.1934 43.9561 32.5273 44.0469 32.7441 44.1406L33.0518 44.2725V46.6104H32.3135C32.1553 45.292 31.5312 44.6328 30.4414 44.6328C30.0547 44.6328 29.7324 44.7412 29.4746 44.958C29.2168 45.1689 29.0879 45.4209 29.0879 45.7139C29.0879 46.0713 29.249 46.376 29.5713 46.6279C29.8994 46.8799 30.292 47.0967 30.749 47.2783C31.2061 47.4541 31.6602 47.6475 32.1113 47.8584C32.5684 48.0693 32.958 48.374 33.2803 48.7725C33.6084 49.165 33.7725 49.6455 33.7725 50.2139C33.7725 51.0635 33.4297 51.7695 32.7441 52.332C32.0586 52.8945 31.1123 53.1758 29.9053 53.1758C29.2959 53.1758 28.71 53.1172 28.1475 53C27.5908 52.8828 27.1924 52.7627 26.9521 52.6396L26.5742 52.4639V49.7568H27.2949C27.4297 50.5713 27.7139 51.1953 28.1475 51.6289C28.5869 52.0625 29.1406 52.2793 29.8086 52.2793C30.2891 52.2793 30.6934 52.127 31.0215 51.8223C31.3555 51.5176 31.5225 51.1602 31.5225 50.75ZM44.293 50.3018C44.293 50.9639 44.3867 51.415 44.5742 51.6553C44.7617 51.8896 45.0898 52.0068 45.5586 52.0068V52.6396C45.0312 52.6865 44.4951 52.7568 43.9502 52.8506C43.4111 52.9385 43.0039 53.0117 42.7285 53.0703L42.3154 53.1758L42.1396 51.4707H42.043C42.0078 51.5176 41.958 51.582 41.8936 51.6641C41.8291 51.7402 41.6885 51.875 41.4717 52.0684C41.2549 52.2559 41.0293 52.4258 40.7949 52.5781C40.5605 52.7246 40.2617 52.8623 39.8984 52.9912C39.541 53.1143 39.1777 53.1758 38.8086 53.1758C37.918 53.1758 37.2148 52.8711 36.6992 52.2617C36.1836 51.6523 35.9258 50.7588 35.9258 49.5811V46.6104C35.9258 45.9482 35.832 45.4971 35.6445 45.2568C35.4629 45.0166 35.1377 44.8965 34.6689 44.8965V44.2725C35.2314 44.2256 35.8115 44.1494 36.4092 44.0439C37.0127 43.9326 37.4697 43.833 37.7803 43.7451L38.2637 43.6396V49.4932C38.2637 50.2021 38.3984 50.709 38.668 51.0137C38.9375 51.3184 39.374 51.4707 39.9775 51.4707C40.2998 51.4707 40.625 51.3975 40.9531 51.251C41.2871 51.0986 41.5361 50.9492 41.7002 50.8027L41.9551 50.5742V46.6104C41.9551 45.9482 41.8613 45.4971 41.6738 45.2568C41.4922 45.0166 41.167 44.8965 40.6982 44.8965V44.2725C41.2607 44.2256 41.8408 44.1494 42.4385 44.0439C43.042 43.9326 43.5049 43.833 43.8271 43.7451L44.293 43.6396V50.3018ZM54.1016 46.8828V50.3018C54.1016 50.9639 54.1953 51.415 54.3828 51.6553C54.5703 51.8896 54.8955 52.0068 55.3584 52.0068V52.6396C54.8311 52.6865 54.2979 52.7568 53.7588 52.8506C53.2197 52.9385 52.8125 53.0117 52.5371 53.0703L52.124 53.1758L51.9395 51.4707H51.8516C51.8164 51.5176 51.7666 51.582 51.7021 51.6641C51.6436 51.7402 51.5146 51.875 51.3154 52.0684C51.1221 52.2559 50.9141 52.4258 50.6914 52.5781C50.4688 52.7246 50.1816 52.8623 49.8301 52.9912C49.4844 53.1143 49.1387 53.1758 48.793 53.1758C48.0488 53.1758 47.457 52.9824 47.0176 52.5957C46.5781 52.2031 46.3584 51.708 46.3584 51.1104C46.3584 50.5947 46.543 50.1201 46.9121 49.6865C47.2871 49.2529 47.7383 48.9131 48.2656 48.667C48.7988 48.4209 49.3291 48.2129 49.8564 48.043C50.3838 47.8672 50.832 47.75 51.2012 47.6914L51.7637 47.6035V47.0586C51.7637 45.5 51.1924 44.7207 50.0498 44.7207C49.8564 44.7207 49.6631 44.7441 49.4697 44.791C49.2822 44.8379 49.1357 44.8848 49.0303 44.9316L48.8809 44.9932L48.248 46.9707H46.9912V44.6328C47.1084 44.5625 47.2754 44.4805 47.4922 44.3867C47.709 44.2871 48.1426 44.1523 48.793 43.9824C49.4434 43.8125 50.0732 43.7275 50.6826 43.7275C51.749 43.7275 52.584 44.0146 53.1875 44.5889C53.7969 45.1572 54.1016 45.9219 54.1016 46.8828ZM49.874 51.4707C50.1963 51.4707 50.5127 51.3975 50.8232 51.251C51.1396 51.0986 51.374 50.9492 51.5264 50.8027L51.7637 50.5742V48.5C51.6816 48.5117 51.5732 48.5293 51.4385 48.5527C51.3037 48.5762 51.0664 48.6436 50.7266 48.7549C50.3867 48.8604 50.0879 48.9834 49.8301 49.124C49.5723 49.2588 49.335 49.4463 49.1182 49.6865C48.9014 49.9268 48.793 50.1904 48.793 50.4775C48.793 51.1396 49.1533 51.4707 49.874 51.4707ZM76.0654 47.4189V50.8379C76.0654 51.459 76.1475 51.8691 76.3115 52.0684C76.4814 52.2676 76.8184 52.3672 77.3223 52.3672V53H72.6465V52.3672L73.7275 52.1035V47.4189C73.7275 46.7568 73.5811 46.2617 73.2881 45.9336C73.001 45.6055 72.6055 45.4414 72.1016 45.4414C71.8027 45.4414 71.5039 45.5088 71.2051 45.6436C70.9062 45.7725 70.6777 45.9072 70.5195 46.0479L70.2998 46.25C70.3584 46.4902 70.3906 46.8799 70.3965 47.4189V50.8379C70.3965 51.459 70.4756 51.8691 70.6338 52.0684C70.7979 52.2676 71.1084 52.3672 71.5654 52.3672V53H66.9775V52.3672L68.0498 52.1035V47.4189C68.0498 46.7568 67.9062 46.2617 67.6191 45.9336C67.332 45.6055 66.9365 45.4414 66.4326 45.4414C66.1689 45.4414 65.8936 45.5088 65.6064 45.6436C65.3193 45.7725 65.0967 45.9072 64.9385 46.0479L64.7275 46.25V50.8379C64.7275 51.459 64.8066 51.8691 64.9648 52.0684C65.1289 52.2676 65.4395 52.3672 65.8965 52.3672V53H61.124V52.3672L62.3809 52.1035V46.6104C62.3809 45.9482 62.2871 45.4971 62.0996 45.2568C61.918 45.0166 61.5928 44.8965 61.124 44.8965V44.2725C61.6514 44.2256 62.1846 44.1582 62.7236 44.0703C63.2627 43.9766 63.6699 43.8945 63.9453 43.8242L64.3672 43.7275L64.543 45.2568H64.6309C64.666 45.2217 64.7129 45.1689 64.7715 45.0986C64.8359 45.0283 64.9678 44.9053 65.167 44.7295C65.3662 44.5537 65.5713 44.3984 65.7822 44.2637C65.999 44.123 66.2715 44 66.5996 43.8945C66.9336 43.7832 67.2676 43.7275 67.6016 43.7275C67.9414 43.7275 68.2549 43.7832 68.542 43.8945C68.8291 44 69.0605 44.1289 69.2363 44.2812C69.418 44.4277 69.5703 44.5742 69.6934 44.7207C69.8223 44.8613 69.9131 44.9873 69.9658 45.0986L70.0361 45.2568H70.124C70.1592 45.2217 70.2061 45.1689 70.2646 45.0986C70.3291 45.0283 70.4609 44.9053 70.6602 44.7295C70.8652 44.5537 71.082 44.3984 71.3105 44.2637C71.5391 44.123 71.8291 44 72.1807 43.8945C72.5381 43.7832 72.9014 43.7275 73.2705 43.7275C74.1201 43.7275 74.7969 44.041 75.3008 44.668C75.8105 45.2891 76.0654 46.2061 76.0654 47.4189ZM85.417 48.5879C85.417 47.2812 85.1826 46.2969 84.7139 45.6348C84.2451 44.9668 83.668 44.6328 82.9824 44.6328C82.3848 44.6328 81.8604 44.9551 81.4092 45.5996C80.958 46.2383 80.7324 47.1465 80.7324 48.3242C80.7324 49.6309 80.9668 50.6182 81.4355 51.2861C81.9043 51.9482 82.4814 52.2793 83.167 52.2793C83.7646 52.2793 84.2891 51.96 84.7402 51.3213C85.1914 50.6768 85.417 49.7656 85.417 48.5879ZM87.8428 48.4121C87.8428 49.7656 87.374 50.8994 86.4365 51.8135C85.5049 52.7217 84.3242 53.1758 82.8945 53.1758C81.541 53.1758 80.4365 52.7451 79.5811 51.8838C78.7314 51.0225 78.3066 49.8945 78.3066 48.5C78.3066 47.1465 78.7725 46.0127 79.7041 45.0986C80.6416 44.1846 81.8252 43.7275 83.2549 43.7275C84.6084 43.7275 85.71 44.1611 86.5596 45.0283C87.415 45.8896 87.8428 47.0176 87.8428 48.4121ZM92.5361 46.4258V50.8379C92.5361 51.4238 92.6475 51.8252 92.8701 52.042C93.0986 52.2588 93.5264 52.3672 94.1533 52.3672V53H88.9326V52.3672L90.1895 52.1035V46.6104C90.1895 45.9482 90.0957 45.4971 89.9082 45.2568C89.7266 45.0166 89.4014 44.8965 88.9326 44.8965V44.2725C89.46 44.2256 89.9932 44.1582 90.5322 44.0703C91.0713 43.9766 91.4785 43.8945 91.7539 43.8242L92.1758 43.7275L92.3516 45.4414H92.4395C92.4746 45.3945 92.5215 45.333 92.5801 45.2568C92.6445 45.1748 92.7822 45.0371 92.9932 44.8438C93.2041 44.6504 93.415 44.4805 93.626 44.334C93.8428 44.1816 94.1123 44.0439 94.4346 43.9209C94.7627 43.792 95.0879 43.7275 95.4102 43.7275C95.6504 43.7275 95.8848 43.751 96.1133 43.7979C96.3418 43.8389 96.5029 43.8828 96.5967 43.9297L96.7637 44V47.0586H95.5947L94.9619 45.2568C94.5283 45.2568 94.1094 45.3535 93.7051 45.5469C93.3066 45.7402 93.0107 45.9336 92.8174 46.127L92.5361 46.4258ZM97.2998 44.9932V44.1758L98.7412 43.9121V41.3896L100.534 40.7568H101.079V43.9121H103.953V45.1689H102.969L101.079 44.8086V50.3896C101.079 51.2275 101.498 51.6465 102.336 51.6465C102.623 51.6465 102.901 51.6025 103.171 51.5146C103.44 51.4268 103.637 51.333 103.76 51.2334L103.953 51.1104L104.313 51.5586C104.278 51.6055 104.231 51.667 104.173 51.7432C104.114 51.8135 103.985 51.9424 103.786 52.1299C103.587 52.3115 103.379 52.4756 103.162 52.6221C102.951 52.7686 102.679 52.8975 102.345 53.0088C102.017 53.1201 101.686 53.1758 101.352 53.1758C99.6113 53.1758 98.7412 52.3086 98.7412 50.5742V44.9932H97.2998ZM109.719 44.7207C109.238 44.7207 108.819 44.9404 108.462 45.3799C108.11 45.8135 107.87 46.4639 107.741 47.3311L111.16 47.0586C111.16 45.5 110.68 44.7207 109.719 44.7207ZM109.895 43.7275C111.025 43.7275 111.91 44.0557 112.549 44.7119C113.193 45.3682 113.539 46.2998 113.586 47.5068L112.689 48.2275H107.645V48.3242C107.645 49.2969 107.917 50.0791 108.462 50.6709C109.013 51.2627 109.701 51.5586 110.527 51.5586C111.031 51.5586 111.509 51.4941 111.96 51.3652C112.411 51.2305 112.73 51.0928 112.918 50.9521L113.226 50.75L113.586 51.1104C113.551 51.1689 113.498 51.2451 113.428 51.3389C113.357 51.4268 113.199 51.5908 112.953 51.8311C112.707 52.0713 112.44 52.2822 112.153 52.4639C111.872 52.6396 111.503 52.8037 111.046 52.9561C110.595 53.1025 110.123 53.1758 109.631 53.1758C108.359 53.1758 107.305 52.748 106.467 51.8926C105.635 51.0371 105.219 49.9385 105.219 48.5967C105.219 47.249 105.679 46.1006 106.599 45.1514C107.524 44.2021 108.623 43.7275 109.895 43.7275ZM115.027 51.7432C115.027 51.333 115.165 50.9902 115.44 50.7148C115.716 50.4395 116.059 50.3018 116.469 50.3018C116.879 50.3018 117.222 50.4512 117.497 50.75C117.772 51.0488 117.91 51.4385 117.91 51.9189C117.91 52.3525 117.837 52.7861 117.69 53.2197C117.55 53.6592 117.38 54.0283 117.181 54.3271C116.981 54.6318 116.779 54.9072 116.574 55.1533C116.369 55.3994 116.196 55.5811 116.056 55.6982L115.836 55.8828L115.3 55.3379C115.897 54.6172 116.258 53.8965 116.381 53.1758C116.023 53.1758 115.707 53.0381 115.432 52.7627C115.162 52.4814 115.027 52.1416 115.027 51.7432ZM127.815 46.4258V50.8379C127.815 51.4238 127.927 51.8252 128.149 52.042C128.378 52.2588 128.806 52.3672 129.433 52.3672V53H124.212V52.3672L125.469 52.1035V46.6104C125.469 45.9482 125.375 45.4971 125.188 45.2568C125.006 45.0166 124.681 44.8965 124.212 44.8965V44.2725C124.739 44.2256 125.272 44.1582 125.812 44.0703C126.351 43.9766 126.758 43.8945 127.033 43.8242L127.455 43.7275L127.631 45.4414H127.719C127.754 45.3945 127.801 45.333 127.859 45.2568C127.924 45.1748 128.062 45.0371 128.272 44.8438C128.483 44.6504 128.694 44.4805 128.905 44.334C129.122 44.1816 129.392 44.0439 129.714 43.9209C130.042 43.792 130.367 43.7275 130.689 43.7275C130.93 43.7275 131.164 43.751 131.393 43.7979C131.621 43.8389 131.782 43.8828 131.876 43.9297L132.043 44V47.0586H130.874L130.241 45.2568C129.808 45.2568 129.389 45.3535 128.984 45.5469C128.586 45.7402 128.29 45.9336 128.097 46.127L127.815 46.4258ZM137.352 44.7207C136.871 44.7207 136.452 44.9404 136.095 45.3799C135.743 45.8135 135.503 46.4639 135.374 47.3311L138.793 47.0586C138.793 45.5 138.312 44.7207 137.352 44.7207ZM137.527 43.7275C138.658 43.7275 139.543 44.0557 140.182 44.7119C140.826 45.3682 141.172 46.2998 141.219 47.5068L140.322 48.2275H135.277V48.3242C135.277 49.2969 135.55 50.0791 136.095 50.6709C136.646 51.2627 137.334 51.5586 138.16 51.5586C138.664 51.5586 139.142 51.4941 139.593 51.3652C140.044 51.2305 140.363 51.0928 140.551 50.9521L140.858 50.75L141.219 51.1104C141.184 51.1689 141.131 51.2451 141.061 51.3389C140.99 51.4268 140.832 51.5908 140.586 51.8311C140.34 52.0713 140.073 52.2822 139.786 52.4639C139.505 52.6396 139.136 52.8037 138.679 52.9561C138.228 53.1025 137.756 53.1758 137.264 53.1758C135.992 53.1758 134.938 52.748 134.1 51.8926C133.268 51.0371 132.852 49.9385 132.852 48.5967C132.852 47.249 133.312 46.1006 134.231 45.1514C135.157 44.2021 136.256 43.7275 137.527 43.7275ZM147.521 43.7275C147.761 43.7275 148.001 43.751 148.241 43.7979C148.481 43.8389 148.66 43.8828 148.777 43.9297L148.962 44V41.3896C148.962 40.7275 148.868 40.2764 148.681 40.0361C148.493 39.7959 148.168 39.6758 147.705 39.6758V39.0518C148.268 39.0049 148.848 38.9287 149.445 38.8232C150.049 38.7119 150.506 38.6123 150.816 38.5244L151.3 38.4189V50.3018C151.3 50.9639 151.394 51.415 151.581 51.6553C151.769 51.8896 152.097 52.0068 152.565 52.0068V52.6396C152.038 52.6865 151.502 52.7568 150.957 52.8506C150.418 52.9385 150.011 53.0117 149.735 53.0703L149.322 53.1758L149.138 51.4707H149.05C149.015 51.5176 148.968 51.582 148.909 51.6641C148.851 51.7402 148.716 51.875 148.505 52.0684C148.294 52.2559 148.074 52.4258 147.846 52.5781C147.617 52.7246 147.333 52.8623 146.993 52.9912C146.659 53.1143 146.325 53.1758 145.991 53.1758C145.054 53.1758 144.248 52.7803 143.574 51.9893C142.906 51.1982 142.572 50.1553 142.572 48.8604C142.572 47.29 143.023 46.042 143.926 45.1162C144.834 44.1904 146.032 43.7275 147.521 43.7275ZM147.248 44.7207C146.609 44.7207 146.073 45.0312 145.64 45.6523C145.212 46.2676 144.998 47.1875 144.998 48.4121C144.998 50.4512 145.689 51.4707 147.072 51.4707C147.395 51.4707 147.711 51.3975 148.021 51.251C148.338 51.0986 148.572 50.9434 148.725 50.7852L148.962 50.5479V45.4414C148.915 45.3945 148.845 45.3301 148.751 45.248C148.663 45.1602 148.47 45.0518 148.171 44.9229C147.878 44.7881 147.57 44.7207 147.248 44.7207ZM162.734 50.3018C162.734 50.9639 162.828 51.415 163.016 51.6553C163.203 51.8896 163.531 52.0068 164 52.0068V52.6396C163.473 52.6865 162.937 52.7568 162.392 52.8506C161.853 52.9385 161.445 53.0117 161.17 53.0703L160.757 53.1758L160.581 51.4707H160.484C160.449 51.5176 160.399 51.582 160.335 51.6641C160.271 51.7402 160.13 51.875 159.913 52.0684C159.696 52.2559 159.471 52.4258 159.236 52.5781C159.002 52.7246 158.703 52.8623 158.34 52.9912C157.982 53.1143 157.619 53.1758 157.25 53.1758C156.359 53.1758 155.656 52.8711 155.141 52.2617C154.625 51.6523 154.367 50.7588 154.367 49.5811V46.6104C154.367 45.9482 154.273 45.4971 154.086 45.2568C153.904 45.0166 153.579 44.8965 153.11 44.8965V44.2725C153.673 44.2256 154.253 44.1494 154.851 44.0439C155.454 43.9326 155.911 43.833 156.222 43.7451L156.705 43.6396V49.4932C156.705 50.2021 156.84 50.709 157.109 51.0137C157.379 51.3184 157.815 51.4707 158.419 51.4707C158.741 51.4707 159.066 51.3975 159.395 51.251C159.729 51.0986 159.978 50.9492 160.142 50.8027L160.396 50.5742V46.6104C160.396 45.9482 160.303 45.4971 160.115 45.2568C159.934 45.0166 159.608 44.8965 159.14 44.8965V44.2725C159.702 44.2256 160.282 44.1494 160.88 44.0439C161.483 43.9326 161.946 43.833 162.269 43.7451L162.734 43.6396V50.3018ZM172.974 53H164.984L164.8 52.5518L170.293 44.8086H168.491C167.05 44.8086 166.332 45.5879 166.338 47.1465H165.433V43.9121H173.176L173.352 44.3604L167.867 52.1035H170.021C170.706 52.1035 171.23 51.9131 171.594 51.5322C171.963 51.1455 172.279 50.4336 172.543 49.3965H173.352L172.974 53ZM178.036 43.6396V50.8379C178.036 51.459 178.118 51.8691 178.282 52.0684C178.452 52.2676 178.789 52.3672 179.293 52.3672V53H174.433V52.3672L175.689 52.1035V46.6104C175.689 45.9482 175.596 45.4971 175.408 45.2568C175.227 45.0166 174.901 44.8965 174.433 44.8965V44.2725C174.995 44.2256 175.575 44.1494 176.173 44.0439C176.776 43.9326 177.239 43.833 177.562 43.7451L178.036 43.6396ZM175.839 41.6094C175.563 41.334 175.426 40.9912 175.426 40.5811C175.426 40.1709 175.563 39.8281 175.839 39.5527C176.114 39.2773 176.454 39.1396 176.858 39.1396C177.269 39.1396 177.611 39.2773 177.887 39.5527C178.162 39.8281 178.3 40.1709 178.3 40.5811C178.3 40.9912 178.162 41.334 177.887 41.6094C177.611 41.8848 177.269 42.0225 176.858 42.0225C176.454 42.0225 176.114 41.8848 175.839 41.6094ZM189.55 47.3311V50.8379C189.55 51.459 189.632 51.8691 189.796 52.0684C189.966 52.2676 190.303 52.3672 190.807 52.3672V53H185.946V52.3672L187.203 52.1035V47.4189C187.203 46.71 187.068 46.2031 186.799 45.8984C186.529 45.5938 186.096 45.4414 185.498 45.4414C185.176 45.4414 184.848 45.5176 184.514 45.6699C184.186 45.8164 183.937 45.9688 183.767 46.127L183.521 46.3379V50.8379C183.521 51.459 183.603 51.8691 183.767 52.0684C183.937 52.2676 184.273 52.3672 184.777 52.3672V53H179.917V52.3672L181.174 52.1035V46.6104C181.174 45.9482 181.08 45.4971 180.893 45.2568C180.711 45.0166 180.386 44.8965 179.917 44.8965V44.2725C180.444 44.2256 180.978 44.1582 181.517 44.0703C182.056 43.9766 182.463 43.8945 182.738 43.8242L183.16 43.7275L183.336 45.4414H183.424C183.459 45.3945 183.509 45.333 183.573 45.2568C183.644 45.1748 183.787 45.0371 184.004 44.8438C184.221 44.6504 184.446 44.4805 184.681 44.334C184.915 44.1816 185.211 44.0439 185.568 43.9209C185.926 43.792 186.292 43.7275 186.667 43.7275C187.558 43.7275 188.261 44.0352 188.776 44.6504C189.292 45.2598 189.55 46.1533 189.55 47.3311ZM196.739 43.7275C196.979 43.7275 197.22 43.751 197.46 43.7979C197.7 43.8389 197.879 43.8828 197.996 43.9297L198.181 44V41.3896C198.181 40.7275 198.087 40.2764 197.899 40.0361C197.712 39.7959 197.387 39.6758 196.924 39.6758V39.0518C197.486 39.0049 198.066 38.9287 198.664 38.8232C199.268 38.7119 199.725 38.6123 200.035 38.5244L200.519 38.4189V50.3018C200.519 50.9639 200.612 51.415 200.8 51.6553C200.987 51.8896 201.315 52.0068 201.784 52.0068V52.6396C201.257 52.6865 200.721 52.7568 200.176 52.8506C199.637 52.9385 199.229 53.0117 198.954 53.0703L198.541 53.1758L198.356 51.4707H198.269C198.233 51.5176 198.187 51.582 198.128 51.6641C198.069 51.7402 197.935 51.875 197.724 52.0684C197.513 52.2559 197.293 52.4258 197.064 52.5781C196.836 52.7246 196.552 52.8623 196.212 52.9912C195.878 53.1143 195.544 53.1758 195.21 53.1758C194.272 53.1758 193.467 52.7803 192.793 51.9893C192.125 51.1982 191.791 50.1553 191.791 48.8604C191.791 47.29 192.242 46.042 193.145 45.1162C194.053 44.1904 195.251 43.7275 196.739 43.7275ZM196.467 44.7207C195.828 44.7207 195.292 45.0312 194.858 45.6523C194.431 46.2676 194.217 47.1875 194.217 48.4121C194.217 50.4512 194.908 51.4707 196.291 51.4707C196.613 51.4707 196.93 51.3975 197.24 51.251C197.557 51.0986 197.791 50.9434 197.943 50.7852L198.181 50.5479V45.4414C198.134 45.3945 198.063 45.3301 197.97 45.248C197.882 45.1602 197.688 45.0518 197.39 44.9229C197.097 44.7881 196.789 44.7207 196.467 44.7207ZM209.888 48.5879C209.888 47.2812 209.653 46.2969 209.185 45.6348C208.716 44.9668 208.139 44.6328 207.453 44.6328C206.855 44.6328 206.331 44.9551 205.88 45.5996C205.429 46.2383 205.203 47.1465 205.203 48.3242C205.203 49.6309 205.438 50.6182 205.906 51.2861C206.375 51.9482 206.952 52.2793 207.638 52.2793C208.235 52.2793 208.76 51.96 209.211 51.3213C209.662 50.6768 209.888 49.7656 209.888 48.5879ZM212.313 48.4121C212.313 49.7656 211.845 50.8994 210.907 51.8135C209.976 52.7217 208.795 53.1758 207.365 53.1758C206.012 53.1758 204.907 52.7451 204.052 51.8838C203.202 51.0225 202.777 49.8945 202.777 48.5C202.777 47.1465 203.243 46.0127 204.175 45.0986C205.112 44.1846 206.296 43.7275 207.726 43.7275C209.079 43.7275 210.181 44.1611 211.03 45.0283C211.886 45.8896 212.313 47.0176 212.313 48.4121ZM213.764 46.6982H219.072V47.9639H213.764V46.6982ZM228.072 46.8828V50.3018C228.072 50.9639 228.166 51.415 228.354 51.6553C228.541 51.8896 228.866 52.0068 229.329 52.0068V52.6396C228.802 52.6865 228.269 52.7568 227.729 52.8506C227.19 52.9385 226.783 53.0117 226.508 53.0703L226.095 53.1758L225.91 51.4707H225.822C225.787 51.5176 225.737 51.582 225.673 51.6641C225.614 51.7402 225.485 51.875 225.286 52.0684C225.093 52.2559 224.885 52.4258 224.662 52.5781C224.439 52.7246 224.152 52.8623 223.801 52.9912C223.455 53.1143 223.109 53.1758 222.764 53.1758C222.02 53.1758 221.428 52.9824 220.988 52.5957C220.549 52.2031 220.329 51.708 220.329 51.1104C220.329 50.5947 220.514 50.1201 220.883 49.6865C221.258 49.2529 221.709 48.9131 222.236 48.667C222.77 48.4209 223.3 48.2129 223.827 48.043C224.354 47.8672 224.803 47.75 225.172 47.6914L225.734 47.6035V47.0586C225.734 45.5 225.163 44.7207 224.021 44.7207C223.827 44.7207 223.634 44.7441 223.44 44.791C223.253 44.8379 223.106 44.8848 223.001 44.9316L222.852 44.9932L222.219 46.9707H220.962V44.6328C221.079 44.5625 221.246 44.4805 221.463 44.3867C221.68 44.2871 222.113 44.1523 222.764 43.9824C223.414 43.8125 224.044 43.7275 224.653 43.7275C225.72 43.7275 226.555 44.0146 227.158 44.5889C227.768 45.1572 228.072 45.9219 228.072 46.8828ZM223.845 51.4707C224.167 51.4707 224.483 51.3975 224.794 51.251C225.11 51.0986 225.345 50.9492 225.497 50.8027L225.734 50.5742V48.5C225.652 48.5117 225.544 48.5293 225.409 48.5527C225.274 48.5762 225.037 48.6436 224.697 48.7549C224.357 48.8604 224.059 48.9834 223.801 49.124C223.543 49.2588 223.306 49.4463 223.089 49.6865C222.872 49.9268 222.764 50.1904 222.764 50.4775C222.764 51.1396 223.124 51.4707 223.845 51.4707ZM243.014 46.8828V50.3018C243.014 50.9639 243.107 51.415 243.295 51.6553C243.482 51.8896 243.808 52.0068 244.271 52.0068V52.6396C243.743 52.6865 243.21 52.7568 242.671 52.8506C242.132 52.9385 241.725 53.0117 241.449 53.0703L241.036 53.1758L240.852 51.4707H240.764C240.729 51.5176 240.679 51.582 240.614 51.6641C240.556 51.7402 240.427 51.875 240.228 52.0684C240.034 52.2559 239.826 52.4258 239.604 52.5781C239.381 52.7246 239.094 52.8623 238.742 52.9912C238.396 53.1143 238.051 53.1758 237.705 53.1758C236.961 53.1758 236.369 52.9824 235.93 52.5957C235.49 52.2031 235.271 51.708 235.271 51.1104C235.271 50.5947 235.455 50.1201 235.824 49.6865C236.199 49.2529 236.65 48.9131 237.178 48.667C237.711 48.4209 238.241 48.2129 238.769 48.043C239.296 47.8672 239.744 47.75 240.113 47.6914L240.676 47.6035V47.0586C240.676 45.5 240.104 44.7207 238.962 44.7207C238.769 44.7207 238.575 44.7441 238.382 44.791C238.194 44.8379 238.048 44.8848 237.942 44.9316L237.793 44.9932L237.16 46.9707H235.903V44.6328C236.021 44.5625 236.188 44.4805 236.404 44.3867C236.621 44.2871 237.055 44.1523 237.705 43.9824C238.355 43.8125 238.985 43.7275 239.595 43.7275C240.661 43.7275 241.496 44.0146 242.1 44.5889C242.709 45.1572 243.014 45.9219 243.014 46.8828ZM238.786 51.4707C239.108 51.4707 239.425 51.3975 239.735 51.251C240.052 51.0986 240.286 50.9492 240.438 50.8027L240.676 50.5742V48.5C240.594 48.5117 240.485 48.5293 240.351 48.5527C240.216 48.5762 239.979 48.6436 239.639 48.7549C239.299 48.8604 239 48.9834 238.742 49.124C238.484 49.2588 238.247 49.4463 238.03 49.6865C237.813 49.9268 237.705 50.1904 237.705 50.4775C237.705 51.1396 238.065 51.4707 238.786 51.4707ZM20.8965 73.3018C20.8965 73.9639 20.9902 74.415 21.1777 74.6553C21.3652 74.8896 21.6934 75.0068 22.1621 75.0068V75.6396C21.6348 75.6865 21.0986 75.7568 20.5537 75.8506C20.0146 75.9385 19.6074 76.0117 19.332 76.0703L18.9189 76.1758L18.7432 74.4707H18.6465C18.6113 74.5176 18.5615 74.582 18.4971 74.6641C18.4326 74.7402 18.292 74.875 18.0752 75.0684C17.8584 75.2559 17.6328 75.4258 17.3984 75.5781C17.1641 75.7246 16.8652 75.8623 16.502 75.9912C16.1445 76.1143 15.7812 76.1758 15.4121 76.1758C14.5215 76.1758 13.8184 75.8711 13.3027 75.2617C12.7871 74.6523 12.5293 73.7588 12.5293 72.5811V69.6104C12.5293 68.9482 12.4355 68.4971 12.248 68.2568C12.0664 68.0166 11.7412 67.8965 11.2725 67.8965V67.2725C11.835 67.2256 12.415 67.1494 13.0127 67.0439C13.6162 66.9326 14.0732 66.833 14.3838 66.7451L14.8672 66.6396V72.4932C14.8672 73.2021 15.002 73.709 15.2715 74.0137C15.541 74.3184 15.9775 74.4707 16.5811 74.4707C16.9033 74.4707 17.2285 74.3975 17.5566 74.251C17.8906 74.0986 18.1396 73.9492 18.3037 73.8027L18.5586 73.5742V69.6104C18.5586 68.9482 18.4648 68.4971 18.2773 68.2568C18.0957 68.0166 17.7705 67.8965 17.3018 67.8965V67.2725C17.8643 67.2256 18.4443 67.1494 19.042 67.0439C19.6455 66.9326 20.1084 66.833 20.4307 66.7451L20.8965 66.6396V73.3018ZM37.7275 70.4189V73.8379C37.7275 74.459 37.8096 74.8691 37.9736 75.0684C38.1436 75.2676 38.4805 75.3672 38.9844 75.3672V76H34.3086V75.3672L35.3896 75.1035V70.4189C35.3896 69.7568 35.2432 69.2617 34.9502 68.9336C34.6631 68.6055 34.2676 68.4414 33.7637 68.4414C33.4648 68.4414 33.166 68.5088 32.8672 68.6436C32.5684 68.7725 32.3398 68.9072 32.1816 69.0479L31.9619 69.25C32.0205 69.4902 32.0527 69.8799 32.0586 70.4189V73.8379C32.0586 74.459 32.1377 74.8691 32.2959 75.0684C32.46 75.2676 32.7705 75.3672 33.2275 75.3672V76H28.6396V75.3672L29.7119 75.1035V70.4189C29.7119 69.7568 29.5684 69.2617 29.2812 68.9336C28.9941 68.6055 28.5986 68.4414 28.0947 68.4414C27.8311 68.4414 27.5557 68.5088 27.2686 68.6436C26.9814 68.7725 26.7588 68.9072 26.6006 69.0479L26.3896 69.25V73.8379C26.3896 74.459 26.4688 74.8691 26.627 75.0684C26.791 75.2676 27.1016 75.3672 27.5586 75.3672V76H22.7861V75.3672L24.043 75.1035V69.6104C24.043 68.9482 23.9492 68.4971 23.7617 68.2568C23.5801 68.0166 23.2549 67.8965 22.7861 67.8965V67.2725C23.3135 67.2256 23.8467 67.1582 24.3857 67.0703C24.9248 66.9766 25.332 66.8945 25.6074 66.8242L26.0293 66.7275L26.2051 68.2568H26.293C26.3281 68.2217 26.375 68.1689 26.4336 68.0986C26.498 68.0283 26.6299 67.9053 26.8291 67.7295C27.0283 67.5537 27.2334 67.3984 27.4443 67.2637C27.6611 67.123 27.9336 67 28.2617 66.8945C28.5957 66.7832 28.9297 66.7275 29.2637 66.7275C29.6035 66.7275 29.917 66.7832 30.2041 66.8945C30.4912 67 30.7227 67.1289 30.8984 67.2812C31.0801 67.4277 31.2324 67.5742 31.3555 67.7207C31.4844 67.8613 31.5752 67.9873 31.6279 68.0986L31.6982 68.2568H31.7861C31.8213 68.2217 31.8682 68.1689 31.9268 68.0986C31.9912 68.0283 32.123 67.9053 32.3223 67.7295C32.5273 67.5537 32.7441 67.3984 32.9727 67.2637C33.2012 67.123 33.4912 67 33.8428 66.8945C34.2002 66.7832 34.5635 66.7275 34.9326 66.7275C35.7822 66.7275 36.459 67.041 36.9629 67.668C37.4727 68.2891 37.7275 69.2061 37.7275 70.4189ZM59.6826 70.4189V73.8379C59.6826 74.459 59.7646 74.8691 59.9287 75.0684C60.0986 75.2676 60.4355 75.3672 60.9395 75.3672V76H56.2637V75.3672L57.3447 75.1035V70.4189C57.3447 69.7568 57.1982 69.2617 56.9053 68.9336C56.6182 68.6055 56.2227 68.4414 55.7188 68.4414C55.4199 68.4414 55.1211 68.5088 54.8223 68.6436C54.5234 68.7725 54.2949 68.9072 54.1367 69.0479L53.917 69.25C53.9756 69.4902 54.0078 69.8799 54.0137 70.4189V73.8379C54.0137 74.459 54.0928 74.8691 54.251 75.0684C54.415 75.2676 54.7256 75.3672 55.1826 75.3672V76H50.5947V75.3672L51.667 75.1035V70.4189C51.667 69.7568 51.5234 69.2617 51.2363 68.9336C50.9492 68.6055 50.5537 68.4414 50.0498 68.4414C49.7861 68.4414 49.5107 68.5088 49.2236 68.6436C48.9365 68.7725 48.7139 68.9072 48.5557 69.0479L48.3447 69.25V73.8379C48.3447 74.459 48.4238 74.8691 48.582 75.0684C48.7461 75.2676 49.0566 75.3672 49.5137 75.3672V76H44.7412V75.3672L45.998 75.1035V69.6104C45.998 68.9482 45.9043 68.4971 45.7168 68.2568C45.5352 68.0166 45.21 67.8965 44.7412 67.8965V67.2725C45.2686 67.2256 45.8018 67.1582 46.3408 67.0703C46.8799 66.9766 47.2871 66.8945 47.5625 66.8242L47.9844 66.7275L48.1602 68.2568H48.248C48.2832 68.2217 48.3301 68.1689 48.3887 68.0986C48.4531 68.0283 48.585 67.9053 48.7842 67.7295C48.9834 67.5537 49.1885 67.3984 49.3994 67.2637C49.6162 67.123 49.8887 67 50.2168 66.8945C50.5508 66.7832 50.8848 66.7275 51.2188 66.7275C51.5586 66.7275 51.8721 66.7832 52.1592 66.8945C52.4463 67 52.6777 67.1289 52.8535 67.2812C53.0352 67.4277 53.1875 67.5742 53.3105 67.7207C53.4395 67.8613 53.5303 67.9873 53.583 68.0986L53.6533 68.2568H53.7412C53.7764 68.2217 53.8232 68.1689 53.8818 68.0986C53.9463 68.0283 54.0781 67.9053 54.2773 67.7295C54.4824 67.5537 54.6992 67.3984 54.9277 67.2637C55.1562 67.123 55.4463 67 55.7979 66.8945C56.1553 66.7832 56.5186 66.7275 56.8877 66.7275C57.7373 66.7275 58.4141 67.041 58.918 67.668C59.4277 68.2891 59.6826 69.2061 59.6826 70.4189ZM65.167 66.6396V73.8379C65.167 74.459 65.249 74.8691 65.4131 75.0684C65.583 75.2676 65.9199 75.3672 66.4238 75.3672V76H61.5635V75.3672L62.8203 75.1035V69.6104C62.8203 68.9482 62.7266 68.4971 62.5391 68.2568C62.3574 68.0166 62.0322 67.8965 61.5635 67.8965V67.2725C62.126 67.2256 62.7061 67.1494 63.3037 67.0439C63.9072 66.9326 64.3701 66.833 64.6924 66.7451L65.167 66.6396ZM62.9697 64.6094C62.6943 64.334 62.5566 63.9912 62.5566 63.5811C62.5566 63.1709 62.6943 62.8281 62.9697 62.5527C63.2451 62.2773 63.585 62.1396 63.9893 62.1396C64.3994 62.1396 64.7422 62.2773 65.0176 62.5527C65.293 62.8281 65.4307 63.1709 65.4307 63.5811C65.4307 63.9912 65.293 64.334 65.0176 64.6094C64.7422 64.8848 64.3994 65.0225 63.9893 65.0225C63.585 65.0225 63.2451 64.8848 62.9697 64.6094ZM72.2686 73.75C72.2686 73.4395 72.1045 73.1582 71.7764 72.9062C71.4541 72.6543 71.0645 72.4258 70.6074 72.2207C70.1562 72.0156 69.7021 71.7959 69.2451 71.5615C68.7881 71.3271 68.3955 71.0137 68.0674 70.6211C67.7451 70.2227 67.584 69.7656 67.584 69.25C67.584 68.5293 67.8887 67.9287 68.498 67.4482C69.1133 66.9678 69.9805 66.7275 71.0996 66.7275C71.5801 66.7275 72.043 66.7744 72.4883 66.8682C72.9395 66.9561 73.2734 67.0469 73.4902 67.1406L73.7979 67.2725V69.6104H73.0596C72.9014 68.292 72.2773 67.6328 71.1875 67.6328C70.8008 67.6328 70.4785 67.7412 70.2207 67.958C69.9629 68.1689 69.834 68.4209 69.834 68.7139C69.834 69.0713 69.9951 69.376 70.3174 69.6279C70.6455 69.8799 71.0381 70.0967 71.4951 70.2783C71.9521 70.4541 72.4062 70.6475 72.8574 70.8584C73.3145 71.0693 73.7041 71.374 74.0264 71.7725C74.3545 72.165 74.5186 72.6455 74.5186 73.2139C74.5186 74.0635 74.1758 74.7695 73.4902 75.332C72.8047 75.8945 71.8584 76.1758 70.6514 76.1758C70.042 76.1758 69.4561 76.1172 68.8936 76C68.3369 75.8828 67.9385 75.7627 67.6982 75.6396L67.3203 75.4639V72.7568H68.041C68.1758 73.5713 68.46 74.1953 68.8936 74.6289C69.333 75.0625 69.8867 75.2793 70.5547 75.2793C71.0352 75.2793 71.4395 75.127 71.7676 74.8223C72.1016 74.5176 72.2686 74.1602 72.2686 73.75ZM75.415 67.9932V67.1758L76.8564 66.9121V64.3896L78.6494 63.7568H79.1943V66.9121H82.0684V68.1689H81.084L79.1943 67.8086V73.3896C79.1943 74.2275 79.6133 74.6465 80.4512 74.6465C80.7383 74.6465 81.0166 74.6025 81.2861 74.5146C81.5557 74.4268 81.752 74.333 81.875 74.2334L82.0684 74.1104L82.4287 74.5586C82.3936 74.6055 82.3467 74.667 82.2881 74.7432C82.2295 74.8135 82.1006 74.9424 81.9014 75.1299C81.7021 75.3115 81.4941 75.4756 81.2773 75.6221C81.0664 75.7686 80.7939 75.8975 80.46 76.0088C80.1318 76.1201 79.8008 76.1758 79.4668 76.1758C77.7266 76.1758 76.8564 75.3086 76.8564 73.5742V67.9932H75.415ZM87.834 67.7207C87.3535 67.7207 86.9346 67.9404 86.5771 68.3799C86.2256 68.8135 85.9854 69.4639 85.8564 70.3311L89.2754 70.0586C89.2754 68.5 88.7949 67.7207 87.834 67.7207ZM88.0098 66.7275C89.1406 66.7275 90.0254 67.0557 90.6641 67.7119C91.3086 68.3682 91.6543 69.2998 91.7012 70.5068L90.8047 71.2275H85.7598V71.3242C85.7598 72.2969 86.0322 73.0791 86.5771 73.6709C87.1279 74.2627 87.8164 74.5586 88.6426 74.5586C89.1465 74.5586 89.624 74.4941 90.0752 74.3652C90.5264 74.2305 90.8457 74.0928 91.0332 73.9521L91.3408 73.75L91.7012 74.1104C91.666 74.1689 91.6133 74.2451 91.543 74.3389C91.4727 74.4268 91.3145 74.5908 91.0684 74.8311C90.8223 75.0713 90.5557 75.2822 90.2686 75.4639C89.9873 75.6396 89.6182 75.8037 89.1611 75.9561C88.71 76.1025 88.2383 76.1758 87.7461 76.1758C86.4746 76.1758 85.4199 75.748 84.582 74.8926C83.75 74.0371 83.334 72.9385 83.334 71.5967C83.334 70.249 83.7939 69.1006 84.7139 68.1514C85.6396 67.2021 86.7383 66.7275 88.0098 66.7275ZM87.9219 65.5586H87.3857V64.8379L89.1875 62.2275H90.8047V63.2734L87.9219 65.5586ZM96.2979 69.4258V73.8379C96.2979 74.4238 96.4092 74.8252 96.6318 75.042C96.8604 75.2588 97.2881 75.3672 97.915 75.3672V76H92.6943V75.3672L93.9512 75.1035V69.6104C93.9512 68.9482 93.8574 68.4971 93.6699 68.2568C93.4883 68.0166 93.1631 67.8965 92.6943 67.8965V67.2725C93.2217 67.2256 93.7549 67.1582 94.2939 67.0703C94.833 66.9766 95.2402 66.8945 95.5156 66.8242L95.9375 66.7275L96.1133 68.4414H96.2012C96.2363 68.3945 96.2832 68.333 96.3418 68.2568C96.4062 68.1748 96.5439 68.0371 96.7549 67.8438C96.9658 67.6504 97.1768 67.4805 97.3877 67.334C97.6045 67.1816 97.874 67.0439 98.1963 66.9209C98.5244 66.792 98.8496 66.7275 99.1719 66.7275C99.4121 66.7275 99.6465 66.751 99.875 66.7979C100.104 66.8389 100.265 66.8828 100.358 66.9297L100.525 67V70.0586H99.3564L98.7236 68.2568C98.29 68.2568 97.8711 68.3535 97.4668 68.5469C97.0684 68.7402 96.7725 68.9336 96.5791 69.127L96.2979 69.4258ZM104.753 66.6396V73.8379C104.753 74.459 104.835 74.8691 104.999 75.0684C105.169 75.2676 105.506 75.3672 106.01 75.3672V76H101.149V75.3672L102.406 75.1035V69.6104C102.406 68.9482 102.312 68.4971 102.125 68.2568C101.943 68.0166 101.618 67.8965 101.149 67.8965V67.2725C101.712 67.2256 102.292 67.1494 102.89 67.0439C103.493 66.9326 103.956 66.833 104.278 66.7451L104.753 66.6396ZM102.556 64.6094C102.28 64.334 102.143 63.9912 102.143 63.5811C102.143 63.1709 102.28 62.8281 102.556 62.5527C102.831 62.2773 103.171 62.1396 103.575 62.1396C103.985 62.1396 104.328 62.2773 104.604 62.5527C104.879 62.8281 105.017 63.1709 105.017 63.5811C105.017 63.9912 104.879 64.334 104.604 64.6094C104.328 64.8848 103.985 65.0225 103.575 65.0225C103.171 65.0225 102.831 64.8848 102.556 64.6094ZM114.104 71.5879C114.104 70.2812 113.87 69.2969 113.401 68.6348C112.933 67.9668 112.355 67.6328 111.67 67.6328C111.072 67.6328 110.548 67.9551 110.097 68.5996C109.646 69.2383 109.42 70.1465 109.42 71.3242C109.42 72.6309 109.654 73.6182 110.123 74.2861C110.592 74.9482 111.169 75.2793 111.854 75.2793C112.452 75.2793 112.977 74.96 113.428 74.3213C113.879 73.6768 114.104 72.7656 114.104 71.5879ZM116.53 71.4121C116.53 72.7656 116.062 73.8994 115.124 74.8135C114.192 75.7217 113.012 76.1758 111.582 76.1758C110.229 76.1758 109.124 75.7451 108.269 74.8838C107.419 74.0225 106.994 72.8945 106.994 71.5C106.994 70.1465 107.46 69.0127 108.392 68.0986C109.329 67.1846 110.513 66.7275 111.942 66.7275C113.296 66.7275 114.397 67.1611 115.247 68.0283C116.103 68.8896 116.53 70.0176 116.53 71.4121ZM130.224 71.5879C130.224 70.2812 129.989 69.2969 129.521 68.6348C129.052 67.9668 128.475 67.6328 127.789 67.6328C127.191 67.6328 126.667 67.9551 126.216 68.5996C125.765 69.2383 125.539 70.1465 125.539 71.3242C125.539 72.6309 125.773 73.6182 126.242 74.2861C126.711 74.9482 127.288 75.2793 127.974 75.2793C128.571 75.2793 129.096 74.96 129.547 74.3213C129.998 73.6768 130.224 72.7656 130.224 71.5879ZM132.649 71.4121C132.649 72.7656 132.181 73.8994 131.243 74.8135C130.312 75.7217 129.131 76.1758 127.701 76.1758C126.348 76.1758 125.243 75.7451 124.388 74.8838C123.538 74.0225 123.113 72.8945 123.113 71.5C123.113 70.1465 123.579 69.0127 124.511 68.0986C125.448 67.1846 126.632 66.7275 128.062 66.7275C129.415 66.7275 130.517 67.1611 131.366 68.0283C132.222 68.8896 132.649 70.0176 132.649 71.4121ZM143.275 73.3018C143.275 73.9639 143.369 74.415 143.557 74.6553C143.744 74.8896 144.072 75.0068 144.541 75.0068V75.6396C144.014 75.6865 143.478 75.7568 142.933 75.8506C142.394 75.9385 141.986 76.0117 141.711 76.0703L141.298 76.1758L141.122 74.4707H141.025C140.99 74.5176 140.94 74.582 140.876 74.6641C140.812 74.7402 140.671 74.875 140.454 75.0684C140.237 75.2559 140.012 75.4258 139.777 75.5781C139.543 75.7246 139.244 75.8623 138.881 75.9912C138.523 76.1143 138.16 76.1758 137.791 76.1758C136.9 76.1758 136.197 75.8711 135.682 75.2617C135.166 74.6523 134.908 73.7588 134.908 72.5811V69.6104C134.908 68.9482 134.814 68.4971 134.627 68.2568C134.445 68.0166 134.12 67.8965 133.651 67.8965V67.2725C134.214 67.2256 134.794 67.1494 135.392 67.0439C135.995 66.9326 136.452 66.833 136.763 66.7451L137.246 66.6396V72.4932C137.246 73.2021 137.381 73.709 137.65 74.0137C137.92 74.3184 138.356 74.4707 138.96 74.4707C139.282 74.4707 139.607 74.3975 139.936 74.251C140.27 74.0986 140.519 73.9492 140.683 73.8027L140.938 73.5742V69.6104C140.938 68.9482 140.844 68.4971 140.656 68.2568C140.475 68.0166 140.149 67.8965 139.681 67.8965V67.2725C140.243 67.2256 140.823 67.1494 141.421 67.0439C142.024 66.9326 142.487 66.833 142.81 66.7451L143.275 66.6396V73.3018ZM159.834 73.3018C159.834 73.9639 159.928 74.415 160.115 74.6553C160.303 74.8896 160.631 75.0068 161.1 75.0068V75.6396C160.572 75.6865 160.036 75.7568 159.491 75.8506C158.952 75.9385 158.545 76.0117 158.27 76.0703L157.856 76.1758L157.681 74.4707H157.584C157.549 74.5176 157.499 74.582 157.435 74.6641C157.37 74.7402 157.229 74.875 157.013 75.0684C156.796 75.2559 156.57 75.4258 156.336 75.5781C156.102 75.7246 155.803 75.8623 155.439 75.9912C155.082 76.1143 154.719 76.1758 154.35 76.1758C153.459 76.1758 152.756 75.8711 152.24 75.2617C151.725 74.6523 151.467 73.7588 151.467 72.5811V69.6104C151.467 68.9482 151.373 68.4971 151.186 68.2568C151.004 68.0166 150.679 67.8965 150.21 67.8965V67.2725C150.772 67.2256 151.353 67.1494 151.95 67.0439C152.554 66.9326 153.011 66.833 153.321 66.7451L153.805 66.6396V72.4932C153.805 73.2021 153.939 73.709 154.209 74.0137C154.479 74.3184 154.915 74.4707 155.519 74.4707C155.841 74.4707 156.166 74.3975 156.494 74.251C156.828 74.0986 157.077 73.9492 157.241 73.8027L157.496 73.5742V69.6104C157.496 68.9482 157.402 68.4971 157.215 68.2568C157.033 68.0166 156.708 67.8965 156.239 67.8965V67.2725C156.802 67.2256 157.382 67.1494 157.979 67.0439C158.583 66.9326 159.046 66.833 159.368 66.7451L159.834 66.6396V73.3018ZM176.665 70.4189V73.8379C176.665 74.459 176.747 74.8691 176.911 75.0684C177.081 75.2676 177.418 75.3672 177.922 75.3672V76H173.246V75.3672L174.327 75.1035V70.4189C174.327 69.7568 174.181 69.2617 173.888 68.9336C173.601 68.6055 173.205 68.4414 172.701 68.4414C172.402 68.4414 172.104 68.5088 171.805 68.6436C171.506 68.7725 171.277 68.9072 171.119 69.0479L170.899 69.25C170.958 69.4902 170.99 69.8799 170.996 70.4189V73.8379C170.996 74.459 171.075 74.8691 171.233 75.0684C171.397 75.2676 171.708 75.3672 172.165 75.3672V76H167.577V75.3672L168.649 75.1035V70.4189C168.649 69.7568 168.506 69.2617 168.219 68.9336C167.932 68.6055 167.536 68.4414 167.032 68.4414C166.769 68.4414 166.493 68.5088 166.206 68.6436C165.919 68.7725 165.696 68.9072 165.538 69.0479L165.327 69.25V73.8379C165.327 74.459 165.406 74.8691 165.564 75.0684C165.729 75.2676 166.039 75.3672 166.496 75.3672V76H161.724V75.3672L162.98 75.1035V69.6104C162.98 68.9482 162.887 68.4971 162.699 68.2568C162.518 68.0166 162.192 67.8965 161.724 67.8965V67.2725C162.251 67.2256 162.784 67.1582 163.323 67.0703C163.862 66.9766 164.27 66.8945 164.545 66.8242L164.967 66.7275L165.143 68.2568H165.23C165.266 68.2217 165.312 68.1689 165.371 68.0986C165.436 68.0283 165.567 67.9053 165.767 67.7295C165.966 67.5537 166.171 67.3984 166.382 67.2637C166.599 67.123 166.871 67 167.199 66.8945C167.533 66.7832 167.867 66.7275 168.201 66.7275C168.541 66.7275 168.854 66.7832 169.142 66.8945C169.429 67 169.66 67.1289 169.836 67.2812C170.018 67.4277 170.17 67.5742 170.293 67.7207C170.422 67.8613 170.513 67.9873 170.565 68.0986L170.636 68.2568H170.724C170.759 68.2217 170.806 68.1689 170.864 68.0986C170.929 68.0283 171.061 67.9053 171.26 67.7295C171.465 67.5537 171.682 67.3984 171.91 67.2637C172.139 67.123 172.429 67 172.78 66.8945C173.138 66.7832 173.501 66.7275 173.87 66.7275C174.72 66.7275 175.396 67.041 175.9 67.668C176.41 68.2891 176.665 69.2061 176.665 70.4189ZM188.987 66.7275C189.228 66.7275 189.468 66.751 189.708 66.7979C189.948 66.8389 190.127 66.8828 190.244 66.9297L190.429 67V64.3896C190.429 63.7275 190.335 63.2764 190.147 63.0361C189.96 62.7959 189.635 62.6758 189.172 62.6758V62.0518C189.734 62.0049 190.314 61.9287 190.912 61.8232C191.516 61.7119 191.973 61.6123 192.283 61.5244L192.767 61.4189V73.3018C192.767 73.9639 192.86 74.415 193.048 74.6553C193.235 74.8896 193.563 75.0068 194.032 75.0068V75.6396C193.505 75.6865 192.969 75.7568 192.424 75.8506C191.885 75.9385 191.478 76.0117 191.202 76.0703L190.789 76.1758L190.604 74.4707H190.517C190.481 74.5176 190.435 74.582 190.376 74.6641C190.317 74.7402 190.183 74.875 189.972 75.0684C189.761 75.2559 189.541 75.4258 189.312 75.5781C189.084 75.7246 188.8 75.8623 188.46 75.9912C188.126 76.1143 187.792 76.1758 187.458 76.1758C186.521 76.1758 185.715 75.7803 185.041 74.9893C184.373 74.1982 184.039 73.1553 184.039 71.8604C184.039 70.29 184.49 69.042 185.393 68.1162C186.301 67.1904 187.499 66.7275 188.987 66.7275ZM188.715 67.7207C188.076 67.7207 187.54 68.0312 187.106 68.6523C186.679 69.2676 186.465 70.1875 186.465 71.4121C186.465 73.4512 187.156 74.4707 188.539 74.4707C188.861 74.4707 189.178 74.3975 189.488 74.251C189.805 74.0986 190.039 73.9434 190.191 73.7852L190.429 73.5479V68.4414C190.382 68.3945 190.312 68.3301 190.218 68.248C190.13 68.1602 189.937 68.0518 189.638 67.9229C189.345 67.7881 189.037 67.7207 188.715 67.7207ZM199.525 67.7207C199.045 67.7207 198.626 67.9404 198.269 68.3799C197.917 68.8135 197.677 69.4639 197.548 70.3311L200.967 70.0586C200.967 68.5 200.486 67.7207 199.525 67.7207ZM199.701 66.7275C200.832 66.7275 201.717 67.0557 202.355 67.7119C203 68.3682 203.346 69.2998 203.393 70.5068L202.496 71.2275H197.451V71.3242C197.451 72.2969 197.724 73.0791 198.269 73.6709C198.819 74.2627 199.508 74.5586 200.334 74.5586C200.838 74.5586 201.315 74.4941 201.767 74.3652C202.218 74.2305 202.537 74.0928 202.725 73.9521L203.032 73.75L203.393 74.1104C203.357 74.1689 203.305 74.2451 203.234 74.3389C203.164 74.4268 203.006 74.5908 202.76 74.8311C202.514 75.0713 202.247 75.2822 201.96 75.4639C201.679 75.6396 201.31 75.8037 200.853 75.9561C200.401 76.1025 199.93 76.1758 199.438 76.1758C198.166 76.1758 197.111 75.748 196.273 74.8926C195.441 74.0371 195.025 72.9385 195.025 71.5967C195.025 70.249 195.485 69.1006 196.405 68.1514C197.331 67.2021 198.43 66.7275 199.701 66.7275ZM209.606 73.75C209.606 73.4395 209.442 73.1582 209.114 72.9062C208.792 72.6543 208.402 72.4258 207.945 72.2207C207.494 72.0156 207.04 71.7959 206.583 71.5615C206.126 71.3271 205.733 71.0137 205.405 70.6211C205.083 70.2227 204.922 69.7656 204.922 69.25C204.922 68.5293 205.227 67.9287 205.836 67.4482C206.451 66.9678 207.318 66.7275 208.438 66.7275C208.918 66.7275 209.381 66.7744 209.826 66.8682C210.277 66.9561 210.611 67.0469 210.828 67.1406L211.136 67.2725V69.6104H210.397C210.239 68.292 209.615 67.6328 208.525 67.6328C208.139 67.6328 207.816 67.7412 207.559 67.958C207.301 68.1689 207.172 68.4209 207.172 68.7139C207.172 69.0713 207.333 69.376 207.655 69.6279C207.983 69.8799 208.376 70.0967 208.833 70.2783C209.29 70.4541 209.744 70.6475 210.195 70.8584C210.652 71.0693 211.042 71.374 211.364 71.7725C211.692 72.165 211.856 72.6455 211.856 73.2139C211.856 74.0635 211.514 74.7695 210.828 75.332C210.143 75.8945 209.196 76.1758 207.989 76.1758C207.38 76.1758 206.794 76.1172 206.231 76C205.675 75.8828 205.276 75.7627 205.036 75.6396L204.658 75.4639V72.7568H205.379C205.514 73.5713 205.798 74.1953 206.231 74.6289C206.671 75.0625 207.225 75.2793 207.893 75.2793C208.373 75.2793 208.777 75.127 209.105 74.8223C209.439 74.5176 209.606 74.1602 209.606 73.75ZM220.76 69.8828V73.3018C220.76 73.9639 220.854 74.415 221.041 74.6553C221.229 74.8896 221.554 75.0068 222.017 75.0068V75.6396C221.489 75.6865 220.956 75.7568 220.417 75.8506C219.878 75.9385 219.471 76.0117 219.195 76.0703L218.782 76.1758L218.598 74.4707H218.51C218.475 74.5176 218.425 74.582 218.36 74.6641C218.302 74.7402 218.173 74.875 217.974 75.0684C217.78 75.2559 217.572 75.4258 217.35 75.5781C217.127 75.7246 216.84 75.8623 216.488 75.9912C216.143 76.1143 215.797 76.1758 215.451 76.1758C214.707 76.1758 214.115 75.9824 213.676 75.5957C213.236 75.2031 213.017 74.708 213.017 74.1104C213.017 73.5947 213.201 73.1201 213.57 72.6865C213.945 72.2529 214.396 71.9131 214.924 71.667C215.457 71.4209 215.987 71.2129 216.515 71.043C217.042 70.8672 217.49 70.75 217.859 70.6914L218.422 70.6035V70.0586C218.422 68.5 217.851 67.7207 216.708 67.7207C216.515 67.7207 216.321 67.7441 216.128 67.791C215.94 67.8379 215.794 67.8848 215.688 67.9316L215.539 67.9932L214.906 69.9707H213.649V67.6328C213.767 67.5625 213.934 67.4805 214.15 67.3867C214.367 67.2871 214.801 67.1523 215.451 66.9824C216.102 66.8125 216.731 66.7275 217.341 66.7275C218.407 66.7275 219.242 67.0146 219.846 67.5889C220.455 68.1572 220.76 68.9219 220.76 69.8828ZM216.532 74.4707C216.854 74.4707 217.171 74.3975 217.481 74.251C217.798 74.0986 218.032 73.9492 218.185 73.8027L218.422 73.5742V71.5C218.34 71.5117 218.231 71.5293 218.097 71.5527C217.962 71.5762 217.725 71.6436 217.385 71.7549C217.045 71.8604 216.746 71.9834 216.488 72.124C216.23 72.2588 215.993 72.4463 215.776 72.6865C215.56 72.9268 215.451 73.1904 215.451 73.4775C215.451 74.1396 215.812 74.4707 216.532 74.4707ZM230.208 75.1035V68.1689H229.399L226.341 67.8086V73.8379C226.341 74.459 226.423 74.8691 226.587 75.0684C226.757 75.2676 227.094 75.3672 227.598 75.3672V76H222.737V75.3672L224.003 75.1035V67.9932H222.649V67.1758L224.003 66.9121V64.5742C224.003 63.5195 224.331 62.7021 224.987 62.1221C225.649 61.5361 226.64 61.2432 227.958 61.2432C228.655 61.2432 229.385 61.3486 230.146 61.5596C230.908 61.7646 231.5 61.9697 231.922 62.1748L232.546 62.5V65.0225H230.929L230.393 63.0361C229.795 62.5557 229.104 62.3184 228.318 62.3242C227 62.3242 226.341 63.042 226.341 64.4775V66.9121H232.546V73.8379C232.546 74.459 232.631 74.8691 232.801 75.0684C232.971 75.2676 233.308 75.3672 233.812 75.3672V76H228.951V75.3672L230.208 75.1035ZM241.915 71.5879C241.915 70.2812 241.681 69.2969 241.212 68.6348C240.743 67.9668 240.166 67.6328 239.48 67.6328C238.883 67.6328 238.358 67.9551 237.907 68.5996C237.456 69.2383 237.23 70.1465 237.23 71.3242C237.23 72.6309 237.465 73.6182 237.934 74.2861C238.402 74.9482 238.979 75.2793 239.665 75.2793C240.263 75.2793 240.787 74.96 241.238 74.3213C241.689 73.6768 241.915 72.7656 241.915 71.5879ZM244.341 71.4121C244.341 72.7656 243.872 73.8994 242.935 74.8135C242.003 75.7217 240.822 76.1758 239.393 76.1758C238.039 76.1758 236.935 75.7451 236.079 74.8838C235.229 74.0225 234.805 72.8945 234.805 71.5C234.805 70.1465 235.271 69.0127 236.202 68.0986C237.14 67.1846 238.323 66.7275 239.753 66.7275C241.106 66.7275 242.208 67.1611 243.058 68.0283C243.913 68.8896 244.341 70.0176 244.341 71.4121ZM246.292 75.7627C246.017 75.4873 245.879 75.1475 245.879 74.7432C245.879 74.333 246.017 73.9902 246.292 73.7148C246.567 73.4395 246.91 73.3018 247.32 73.3018C247.73 73.3018 248.073 73.4395 248.349 73.7148C248.624 73.9902 248.762 74.333 248.762 74.7432C248.762 75.1475 248.624 75.4873 248.349 75.7627C248.073 76.0381 247.73 76.1758 247.32 76.1758C246.91 76.1758 246.567 76.0381 246.292 75.7627Z" fill="#ED1C24"/>
</svg>
