<svg width="569" height="98" viewBox="0 0 569 98" fill="none" xmlns="http://www.w3.org/2000/svg">
<path d="M520.754 73.5977V89.9219H525.676C527.051 89.9219 528.012 89.6484 528.559 89.1016C529.113 88.5469 529.512 87.4609 529.754 85.8438H530.586L530.117 91H516.547V90.4023L518.586 89.9219V75.6367C518.586 74.6289 518.457 73.9766 518.199 73.6797C517.949 73.3828 517.398 73.2344 516.547 73.2344V72.5195H523.027V73.1172L520.754 73.5977ZM535.402 78.5195V86.3242C535.402 87.4961 535.609 88.3281 536.023 88.8203C536.438 89.3125 537.109 89.5586 538.039 89.5586C538.57 89.5586 539.113 89.4336 539.668 89.1836C540.23 88.9258 540.664 88.668 540.969 88.4102L541.402 88V82.2344C541.402 81.4219 541.273 80.8594 541.016 80.5469C540.758 80.2344 540.324 80.0781 539.715 80.0781V79.4805C540.324 79.418 540.938 79.3086 541.555 79.1523C542.172 78.9883 542.641 78.8398 542.961 78.707L543.441 78.5195V87.7656C543.441 88.5312 543.566 89.0625 543.816 89.3594C544.074 89.6562 544.508 89.8047 545.117 89.8047V90.4023C544.586 90.4648 544.027 90.5703 543.441 90.7188C542.863 90.8594 542.422 90.9844 542.117 91.0938L541.637 91.2344L541.402 89.0781H541.273C541.227 89.1406 541.16 89.2227 541.074 89.3242C540.988 89.418 540.805 89.5898 540.523 89.8398C540.242 90.082 539.949 90.3008 539.645 90.4961C539.34 90.6914 538.949 90.8633 538.473 91.0117C538.004 91.1602 537.539 91.2344 537.078 91.2344C535.891 91.2344 534.973 90.8477 534.324 90.0742C533.684 89.3008 533.363 88.1289 533.363 86.5586V82.2344C533.363 81.4219 533.234 80.8594 532.977 80.5469C532.719 80.2344 532.285 80.0781 531.676 80.0781V79.4805C532.285 79.418 532.898 79.3086 533.516 79.1523C534.133 78.9883 534.602 78.8398 534.922 78.707L535.402 78.5195ZM553.531 88.2344C553.531 87.8047 553.305 87.4062 552.852 87.0391C552.406 86.6719 551.867 86.3438 551.234 86.0547C550.602 85.7656 549.969 85.457 549.336 85.1289C548.703 84.8008 548.164 84.3711 547.719 83.8398C547.273 83.3008 547.051 82.6875 547.051 82C547.051 81.0547 547.418 80.2812 548.152 79.6797C548.887 79.0703 549.918 78.7656 551.246 78.7656C551.824 78.7656 552.371 78.8242 552.887 78.9414C553.41 79.0586 553.793 79.1758 554.035 79.293L554.363 79.4805V82.3633H553.766C553.641 81.4492 553.355 80.7812 552.91 80.3594C552.473 79.9297 551.84 79.7148 551.012 79.7148C550.262 79.7148 549.691 79.8672 549.301 80.1719C548.918 80.4766 548.727 80.8867 548.727 81.4023C548.727 81.8633 548.949 82.2773 549.395 82.6445C549.848 83.0117 550.387 83.3398 551.012 83.6289C551.645 83.918 552.277 84.2227 552.91 84.543C553.543 84.8633 554.082 85.2891 554.527 85.8203C554.98 86.3438 555.207 86.9414 555.207 87.6133C555.207 88.7305 554.812 89.6133 554.023 90.2617C553.242 90.9102 552.117 91.2344 550.648 91.2344C550.039 91.2344 549.426 91.1484 548.809 90.9766C548.191 90.7969 547.723 90.6133 547.402 90.4258L546.922 90.1562V87.0391H547.531C547.773 88.1875 548.152 89.0156 548.668 89.5234C549.184 90.0312 549.922 90.2852 550.883 90.2852C551.75 90.2852 552.406 90.1016 552.852 89.7344C553.305 89.3594 553.531 88.8594 553.531 88.2344ZM564.453 89.0781C564.422 89.1406 564.371 89.2227 564.301 89.3242C564.23 89.418 564.074 89.5898 563.832 89.8398C563.59 90.082 563.332 90.3008 563.059 90.4961C562.793 90.6914 562.434 90.8633 561.98 91.0117C561.535 91.1602 561.082 91.2344 560.621 91.2344C559.629 91.2344 558.859 90.9961 558.312 90.5195C557.766 90.043 557.492 89.4023 557.492 88.5977C557.492 87.9258 557.734 87.3125 558.219 86.7578C558.711 86.1953 559.305 85.7539 560 85.4336C560.703 85.1133 561.398 84.8438 562.086 84.625C562.773 84.3984 563.355 84.2422 563.832 84.1562L564.582 84.0391V82.8438C564.582 80.7656 563.742 79.7227 562.062 79.7148C561.773 79.7148 561.469 79.7656 561.148 79.8672C560.828 79.9609 560.578 80.0547 560.398 80.1484L560.141 80.3242L559.297 82.8438H558.219V80.0781C558.398 79.9844 558.641 79.8672 558.945 79.7266C559.258 79.5781 559.824 79.3828 560.645 79.1406C561.473 78.8906 562.223 78.7656 562.895 78.7656C564.043 78.7656 564.949 79.1211 565.613 79.832C566.285 80.543 566.621 81.5469 566.621 82.8438V87.7656C566.621 88.5312 566.746 89.0625 566.996 89.3594C567.254 89.6562 567.688 89.8047 568.297 89.8047V90.4023C567.766 90.4648 567.207 90.5703 566.621 90.7188C566.043 90.8594 565.594 90.9844 565.273 91.0938L564.816 91.2344L564.582 89.0781H564.453ZM561.453 89.5586C561.945 89.5586 562.453 89.4414 562.977 89.207C563.5 88.9648 563.898 88.7227 564.172 88.4805L564.582 88.1172V85C564.457 85.0156 564.281 85.043 564.055 85.082C563.828 85.1211 563.43 85.2188 562.859 85.375C562.289 85.5234 561.789 85.6992 561.359 85.9023C560.93 86.0977 560.539 86.3867 560.188 86.7695C559.836 87.1445 559.66 87.5547 559.66 88C559.652 89.0391 560.25 89.5586 561.453 89.5586Z" fill="white"/>
<path d="M10.8047 21.8047C11.2656 21.8047 11.7031 21.7656 12.1172 21.6875C12.5312 21.6016 12.8359 21.5195 13.0312 21.4414L13.3242 21.3242V17.6211C13.3242 16.582 13.1758 15.8984 12.8789 15.5703C12.582 15.2422 11.9297 15.0781 10.9219 15.0781V14H18.4805V15.0781L16.9219 15.4414V21.6758C16.7266 21.8008 16.4453 21.957 16.0781 22.1445C15.7109 22.332 14.9609 22.582 13.8281 22.8945C12.7031 23.207 11.5742 23.3633 10.4414 23.3633C7.55859 23.3633 5.25781 22.5117 3.53906 20.8086C1.82031 19.0977 0.960938 16.8281 0.960938 14C0.960938 11.1016 1.89062 8.73828 3.75 6.91016C5.61719 5.07422 8.04688 4.15625 11.0391 4.15625C12 4.15625 12.9531 4.25781 13.8984 4.46094C14.8438 4.66406 15.5391 4.85938 15.9844 5.04688L16.6758 5.36328V10.1562H15.3633C15.1836 8.71875 14.7148 7.62109 13.957 6.86328C13.1992 6.09766 12.1875 5.71484 10.9219 5.71484C9.21094 5.71484 7.84375 6.36719 6.82031 7.67188C5.79688 8.97656 5.28516 10.9258 5.28516 13.5195C5.28516 16.3164 5.78906 18.3984 6.79688 19.7656C7.80469 21.125 9.14062 21.8047 10.8047 21.8047ZM30.832 14.8438V19.1562C30.832 20.0859 30.957 20.7188 31.207 21.0547C31.457 21.3906 31.8906 21.5586 32.5078 21.5586V22.5195C31.8047 22.5508 31.0625 22.6289 30.2812 22.7539C29.5 22.8711 28.8984 22.9844 28.4766 23.0938L27.832 23.2344L27.5977 20.9609H27.3516C27.3047 21.0234 27.2383 21.1094 27.1523 21.2188C27.0742 21.3203 26.9023 21.5 26.6367 21.7578C26.3789 22.0078 26.1016 22.2344 25.8047 22.4375C25.5078 22.6328 25.125 22.8164 24.6562 22.9883C24.1953 23.1523 23.7344 23.2344 23.2734 23.2344C22.2188 23.2344 21.3945 22.9766 20.8008 22.4609C20.207 21.9375 19.9102 21.2773 19.9102 20.4805C19.9102 19.7617 20.1602 19.1055 20.6602 18.5117C21.168 17.918 21.7812 17.4531 22.5 17.1172C23.2266 16.7812 23.9453 16.5 24.6562 16.2734C25.3672 16.0391 25.9688 15.8828 26.4609 15.8047L27.2344 15.6758V15.0781C27.2344 13.0781 26.5156 12.0781 25.0781 12.0781C24.8672 12.0781 24.6406 12.1055 24.3984 12.1602C24.1562 12.2148 23.9648 12.2773 23.8242 12.3477L23.6367 12.4414L22.793 15.0781H20.8711V11.7148C21.0273 11.6211 21.2539 11.5117 21.5508 11.3867C21.8477 11.2539 22.4375 11.0781 23.3203 10.8594C24.2031 10.6328 25.0664 10.5195 25.9102 10.5195C27.4961 10.5195 28.7109 10.9062 29.5547 11.6797C30.4062 12.4453 30.832 13.5 30.832 14.8438ZM24.9492 20.7148C25.332 20.7148 25.7148 20.6172 26.0977 20.4219C26.4883 20.2188 26.7695 20.0234 26.9414 19.8359L27.2344 19.5195V17C27.1406 17.0156 27.0117 17.0391 26.8477 17.0703C26.6914 17.1016 26.4023 17.1914 25.9805 17.3398C25.5664 17.4805 25.1992 17.6367 24.8789 17.8086C24.5586 17.9727 24.2695 18.2109 24.0117 18.5234C23.7617 18.8359 23.6367 19.168 23.6367 19.5195C23.6367 19.8867 23.75 20.1797 23.9766 20.3984C24.2109 20.6094 24.5352 20.7148 24.9492 20.7148ZM38.4023 3.55859V19.8828C38.4023 20.7656 38.5117 21.3477 38.7305 21.6289C38.957 21.9023 39.4062 22.0391 40.0781 22.0391V23H33.1172V22.0391L34.8047 21.6758V7.76562C34.8047 6.83594 34.6797 6.20313 34.4297 5.86719C34.1797 5.53125 33.7422 5.36328 33.1172 5.36328V4.40234C33.8984 4.37109 34.7305 4.28516 35.6133 4.14453C36.4961 3.99609 37.1875 3.86719 37.6875 3.75781L38.4023 3.55859ZM45.9727 3.55859V19.8828C45.9727 20.7656 46.082 21.3477 46.3008 21.6289C46.5273 21.9023 46.9766 22.0391 47.6484 22.0391V23H40.6875V22.0391L42.375 21.6758V7.76562C42.375 6.83594 42.25 6.20313 42 5.86719C41.75 5.53125 41.3125 5.36328 40.6875 5.36328V4.40234C41.4688 4.37109 42.3008 4.28516 43.1836 4.14453C44.0664 3.99609 44.7578 3.86719 45.2578 3.75781L45.9727 3.55859ZM53.7891 10.4023V19.8828C53.7891 20.7656 53.8984 21.3477 54.1172 21.6289C54.3438 21.9023 54.793 22.0391 55.4648 22.0391V23H48.5039V22.0391L50.1797 21.6758V14.5977C50.1797 13.668 50.0547 13.0352 49.8047 12.6992C49.5625 12.3633 49.1289 12.1953 48.5039 12.1953V11.2344C49.3555 11.2031 50.2188 11.1172 51.0938 10.9766C51.9766 10.8359 52.6484 10.6992 53.1094 10.5664L53.7891 10.4023ZM53.3438 5.09375C53.7188 5.47656 53.9062 5.96484 53.9062 6.55859C53.9062 7.15234 53.7188 7.64062 53.3438 8.02344C52.9688 8.40625 52.4766 8.59766 51.8672 8.59766C51.2578 8.59766 50.7656 8.40625 50.3906 8.02344C50.0156 7.64062 49.8281 7.15234 49.8281 6.55859C49.8281 5.96484 50.0156 5.47656 50.3906 5.09375C50.7656 4.71094 51.2578 4.51953 51.8672 4.51953C52.4766 4.51953 52.9688 4.71094 53.3438 5.09375ZM76.7109 15.3242V19.8828C76.7109 20.7656 76.8203 21.3477 77.0391 21.6289C77.2656 21.9023 77.7148 22.0391 78.3867 22.0391V23H71.6719V22.0391L73.1133 21.6758V15.5586C73.1133 13.957 72.5117 13.1562 71.3086 13.1562C70.9258 13.1562 70.5469 13.2461 70.1719 13.4258C69.7969 13.5977 69.5117 13.7812 69.3164 13.9766L69.0234 14.2344C69.1016 14.4766 69.1445 14.918 69.1523 15.5586V19.8828C69.1523 20.7656 69.2578 21.3477 69.4688 21.6289C69.6875 21.9023 70.1016 22.0391 70.7109 22.0391V23H64.1133V22.0391L65.543 21.6758V15.5586C65.543 13.957 64.9453 13.1562 63.75 13.1562C63.3984 13.1562 63.043 13.2383 62.6836 13.4023C62.3242 13.5586 62.0547 13.7188 61.875 13.8828L61.5938 14.1172V19.8828C61.5938 20.7656 61.6992 21.3477 61.9102 21.6289C62.1289 21.9023 62.543 22.0391 63.1523 22.0391V23H56.3086V22.0391L57.9844 21.6758V14.5977C57.9844 13.668 57.8594 13.0352 57.6094 12.6992C57.3672 12.3633 56.9336 12.1953 56.3086 12.1953V11.2344C57.0117 11.2031 57.7539 11.1289 58.5352 11.0117C59.3242 10.8945 59.9258 10.7773 60.3398 10.6602L60.9844 10.5195L61.2305 12.6758H61.4648C61.4961 12.6133 61.5469 12.5352 61.6172 12.4414C61.6953 12.3477 61.8555 12.1758 62.0977 11.9258C62.3477 11.6758 62.6133 11.457 62.8945 11.2695C63.1758 11.0742 63.543 10.9023 63.9961 10.7539C64.457 10.5977 64.9336 10.5195 65.4258 10.5195C65.8867 10.5195 66.3164 10.5977 66.7148 10.7539C67.1211 10.9023 67.4336 11.082 67.6523 11.293C67.8789 11.4961 68.0742 11.7031 68.2383 11.9141C68.4102 12.1172 68.5312 12.293 68.6016 12.4414L68.6719 12.6758H68.9062C68.9375 12.6133 68.9922 12.5352 69.0703 12.4414C69.1562 12.3477 69.3242 12.1758 69.5742 11.9258C69.832 11.6758 70.1094 11.457 70.4062 11.2695C70.7031 11.0742 71.082 10.9023 71.543 10.7539C72.0117 10.5977 72.4922 10.5195 72.9844 10.5195C74.1016 10.5195 75 10.9297 75.6797 11.75C76.3672 12.5625 76.7109 13.7539 76.7109 15.3242ZM90.2695 14.8438V19.1562C90.2695 20.0859 90.3945 20.7188 90.6445 21.0547C90.8945 21.3906 91.3281 21.5586 91.9453 21.5586V22.5195C91.2422 22.5508 90.5 22.6289 89.7188 22.7539C88.9375 22.8711 88.3359 22.9844 87.9141 23.0938L87.2695 23.2344L87.0352 20.9609H86.7891C86.7422 21.0234 86.6758 21.1094 86.5898 21.2188C86.5117 21.3203 86.3398 21.5 86.0742 21.7578C85.8164 22.0078 85.5391 22.2344 85.2422 22.4375C84.9453 22.6328 84.5625 22.8164 84.0938 22.9883C83.6328 23.1523 83.1719 23.2344 82.7109 23.2344C81.6562 23.2344 80.832 22.9766 80.2383 22.4609C79.6445 21.9375 79.3477 21.2773 79.3477 20.4805C79.3477 19.7617 79.5977 19.1055 80.0977 18.5117C80.6055 17.918 81.2188 17.4531 81.9375 17.1172C82.6641 16.7812 83.3828 16.5 84.0938 16.2734C84.8047 16.0391 85.4062 15.8828 85.8984 15.8047L86.6719 15.6758V15.0781C86.6719 13.0781 85.9531 12.0781 84.5156 12.0781C84.3047 12.0781 84.0781 12.1055 83.8359 12.1602C83.5938 12.2148 83.4023 12.2773 83.2617 12.3477L83.0742 12.4414L82.2305 15.0781H80.3086V11.7148C80.4648 11.6211 80.6914 11.5117 80.9883 11.3867C81.2852 11.2539 81.875 11.0781 82.7578 10.8594C83.6406 10.6328 84.5039 10.5195 85.3477 10.5195C86.9336 10.5195 88.1484 10.9062 88.9922 11.6797C89.8438 12.4453 90.2695 13.5 90.2695 14.8438ZM84.3867 20.7148C84.7695 20.7148 85.1523 20.6172 85.5352 20.4219C85.9258 20.2188 86.207 20.0234 86.3789 19.8359L86.6719 19.5195V17C86.5781 17.0156 86.4492 17.0391 86.2852 17.0703C86.1289 17.1016 85.8398 17.1914 85.418 17.3398C85.0039 17.4805 84.6367 17.6367 84.3164 17.8086C83.9961 17.9727 83.707 18.2109 83.4492 18.5234C83.1992 18.8359 83.0742 19.168 83.0742 19.5195C83.0742 19.8867 83.1875 20.1797 83.4141 20.3984C83.6484 20.6094 83.9727 20.7148 84.3867 20.7148ZM98.0859 14.3633V19.8828C98.0859 20.7109 98.2344 21.2773 98.5312 21.582C98.8359 21.8867 99.4062 22.0391 100.242 22.0391V23H92.8008V22.0391L94.4766 21.6758V14.5977C94.4766 13.668 94.3516 13.0352 94.1016 12.6992C93.8594 12.3633 93.4258 12.1953 92.8008 12.1953V11.2344C93.5039 11.2031 94.2461 11.1289 95.0273 11.0117C95.8164 10.8945 96.418 10.7773 96.832 10.6602L97.4766 10.5195L97.7227 12.8047H97.957C98.0039 12.7422 98.0664 12.6602 98.1445 12.5586C98.2305 12.4492 98.4141 12.2656 98.6953 12.0078C98.9766 11.75 99.2578 11.5234 99.5391 11.3281C99.8281 11.125 100.188 10.9414 100.617 10.7773C101.055 10.6055 101.488 10.5195 101.918 10.5195C102.238 10.5195 102.551 10.5508 102.855 10.6133C103.16 10.6758 103.375 10.7422 103.5 10.8125L103.723 10.8828V15.1953H101.801L100.957 12.9219C100.426 12.9531 99.9219 13.0898 99.4453 13.332C98.9688 13.5664 98.625 13.7969 98.4141 14.0234L98.0859 14.3633ZM111.527 10.5195C111.848 10.5195 112.168 10.5508 112.488 10.6133C112.809 10.6758 113.047 10.7422 113.203 10.8125L113.449 10.8828V7.76562C113.449 6.83594 113.324 6.20313 113.074 5.86719C112.824 5.53125 112.387 5.36328 111.762 5.36328V4.40234C112.543 4.37109 113.375 4.28516 114.258 4.14453C115.141 3.99609 115.828 3.86719 116.32 3.75781L117.047 3.55859V19.1562C117.047 20.0859 117.168 20.7188 117.41 21.0547C117.66 21.3906 118.098 21.5586 118.723 21.5586V22.5195C118.02 22.5508 117.273 22.6289 116.484 22.7539C115.703 22.8711 115.105 22.9844 114.691 23.0938L114.047 23.2344L113.801 20.9609H113.566C113.52 21.0234 113.453 21.1094 113.367 21.2188C113.289 21.3203 113.117 21.5 112.852 21.7578C112.594 22.0078 112.316 22.2344 112.02 22.4375C111.723 22.6328 111.34 22.8164 110.871 22.9883C110.41 23.1523 109.949 23.2344 109.488 23.2344C108.238 23.2344 107.164 22.707 106.266 21.6523C105.375 20.5977 104.93 19.207 104.93 17.4805C104.93 15.4023 105.543 13.7227 106.77 12.4414C108.004 11.1602 109.59 10.5195 111.527 10.5195ZM111.41 12.0781C110.629 12.0781 109.973 12.4648 109.441 13.2383C108.91 14.0039 108.645 15.1797 108.645 16.7656C108.645 18.0781 108.871 19.0469 109.324 19.6719C109.785 20.2891 110.398 20.5977 111.164 20.5977C111.547 20.5977 111.93 20.5117 112.312 20.3398C112.703 20.1602 112.984 19.9766 113.156 19.7891L113.449 19.5195V12.9219C112.973 12.3594 112.293 12.0781 111.41 12.0781ZM131.93 14.3633V19.8828C131.93 20.7109 132.078 21.2773 132.375 21.582C132.68 21.8867 133.25 22.0391 134.086 22.0391V23H126.645V22.0391L128.32 21.6758V14.5977C128.32 13.668 128.195 13.0352 127.945 12.6992C127.703 12.3633 127.27 12.1953 126.645 12.1953V11.2344C127.348 11.2031 128.09 11.1289 128.871 11.0117C129.66 10.8945 130.262 10.7773 130.676 10.6602L131.32 10.5195L131.566 12.8047H131.801C131.848 12.7422 131.91 12.6602 131.988 12.5586C132.074 12.4492 132.258 12.2656 132.539 12.0078C132.82 11.75 133.102 11.5234 133.383 11.3281C133.672 11.125 134.031 10.9414 134.461 10.7773C134.898 10.6055 135.332 10.5195 135.762 10.5195C136.082 10.5195 136.395 10.5508 136.699 10.6133C137.004 10.6758 137.219 10.7422 137.344 10.8125L137.566 10.8828V15.1953H135.645L134.801 12.9219C134.27 12.9531 133.766 13.0898 133.289 13.332C132.812 13.5664 132.469 13.7969 132.258 14.0234L131.93 14.3633ZM144.773 12.0781C144.195 12.0781 143.695 12.3555 143.273 12.9102C142.852 13.457 142.551 14.3008 142.371 15.4414L146.578 15.0781V14.4805C146.578 13.7305 146.406 13.1445 146.062 12.7227C145.719 12.293 145.289 12.0781 144.773 12.0781ZM145.02 10.5195C146.637 10.5195 147.902 10.9727 148.816 11.8789C149.738 12.7773 150.23 14.043 150.293 15.6758L149.098 16.7656H142.371C142.434 18.0781 142.781 19.0664 143.414 19.7305C144.047 20.3867 144.941 20.7148 146.098 20.7148C146.738 20.7148 147.344 20.6289 147.914 20.457C148.492 20.2773 148.91 20.1016 149.168 19.9297L149.578 19.6367L150.176 20.2344C150.129 20.3125 150.059 20.4219 149.965 20.5625C149.879 20.7031 149.668 20.9453 149.332 21.2891C148.996 21.6328 148.637 21.9375 148.254 22.2031C147.871 22.4609 147.355 22.6992 146.707 22.918C146.059 23.1289 145.375 23.2344 144.656 23.2344C142.914 23.2344 141.457 22.6523 140.285 21.4883C139.121 20.3164 138.539 18.8594 138.539 17.1172C138.539 15.2578 139.168 13.6953 140.426 12.4297C141.684 11.1562 143.215 10.5195 145.02 10.5195ZM151.969 17.1172C151.969 15.2266 152.629 13.6562 153.949 12.4062C155.27 11.1484 156.969 10.5195 159.047 10.5195C159.828 10.5195 160.559 10.6094 161.238 10.7891C161.918 10.9609 162.402 11.1445 162.691 11.3398L163.125 11.5977V15.4414H161.449L160.359 12.3242C160.039 12.168 159.602 12.0859 159.047 12.0781C158.148 12.0781 157.383 12.4766 156.75 13.2734C156.117 14.0625 155.801 15.1445 155.801 16.5195C155.801 17.8164 156.145 18.8398 156.832 19.5898C157.52 20.3398 158.418 20.7148 159.527 20.7148C160.168 20.7148 160.773 20.6289 161.344 20.457C161.922 20.2773 162.34 20.1016 162.598 19.9297L163.008 19.6367L163.605 20.2344C163.559 20.3125 163.488 20.4219 163.395 20.5625C163.309 20.7031 163.098 20.9453 162.762 21.2891C162.426 21.6328 162.066 21.9375 161.684 22.2031C161.301 22.4609 160.785 22.6992 160.137 22.918C159.488 23.1289 158.805 23.2344 158.086 23.2344C156.344 23.2344 154.887 22.6523 153.715 21.4883C152.551 20.3164 151.969 18.8594 151.969 17.1172ZM177.996 10.4023V19.1562C177.996 20.0859 178.121 20.7188 178.371 21.0547C178.621 21.3906 179.059 21.5586 179.684 21.5586V22.5195C178.98 22.5508 178.234 22.6289 177.445 22.7539C176.664 22.8711 176.066 22.9844 175.652 23.0938L174.996 23.2344L174.762 20.9609H174.516C174.469 21.0234 174.406 21.1094 174.328 21.2188C174.25 21.3203 174.074 21.5 173.801 21.7578C173.527 22.0078 173.238 22.2344 172.934 22.4375C172.629 22.6328 172.238 22.8164 171.762 22.9883C171.293 23.1523 170.812 23.2344 170.32 23.2344C169.133 23.2344 168.176 22.8164 167.449 21.9805C166.723 21.1367 166.359 19.957 166.359 18.4414V14.5977C166.359 13.668 166.234 13.0352 165.984 12.6992C165.742 12.3633 165.309 12.1953 164.684 12.1953V11.2344C165.535 11.2031 166.398 11.1172 167.273 10.9766C168.156 10.8359 168.82 10.6992 169.266 10.5664L169.957 10.4023V18.1953C169.957 19.7969 170.637 20.5977 171.996 20.5977C172.379 20.5977 172.77 20.5117 173.168 20.3398C173.574 20.1602 173.883 19.9766 174.094 19.7891L174.398 19.5195V14.5977C174.398 13.668 174.273 13.0352 174.023 12.6992C173.781 12.3633 173.348 12.1953 172.723 12.1953V11.2344C173.574 11.2031 174.438 11.1172 175.312 10.9766C176.195 10.8359 176.867 10.6992 177.328 10.5664L177.996 10.4023ZM191.566 14.8438V19.1562C191.566 20.0859 191.691 20.7188 191.941 21.0547C192.191 21.3906 192.625 21.5586 193.242 21.5586V22.5195C192.539 22.5508 191.797 22.6289 191.016 22.7539C190.234 22.8711 189.633 22.9844 189.211 23.0938L188.566 23.2344L188.332 20.9609H188.086C188.039 21.0234 187.973 21.1094 187.887 21.2188C187.809 21.3203 187.637 21.5 187.371 21.7578C187.113 22.0078 186.836 22.2344 186.539 22.4375C186.242 22.6328 185.859 22.8164 185.391 22.9883C184.93 23.1523 184.469 23.2344 184.008 23.2344C182.953 23.2344 182.129 22.9766 181.535 22.4609C180.941 21.9375 180.645 21.2773 180.645 20.4805C180.645 19.7617 180.895 19.1055 181.395 18.5117C181.902 17.918 182.516 17.4531 183.234 17.1172C183.961 16.7812 184.68 16.5 185.391 16.2734C186.102 16.0391 186.703 15.8828 187.195 15.8047L187.969 15.6758V15.0781C187.969 13.0781 187.25 12.0781 185.812 12.0781C185.602 12.0781 185.375 12.1055 185.133 12.1602C184.891 12.2148 184.699 12.2773 184.559 12.3477L184.371 12.4414L183.527 15.0781H181.605V11.7148C181.762 11.6211 181.988 11.5117 182.285 11.3867C182.582 11.2539 183.172 11.0781 184.055 10.8594C184.938 10.6328 185.801 10.5195 186.645 10.5195C188.23 10.5195 189.445 10.9062 190.289 11.6797C191.141 12.4453 191.566 13.5 191.566 14.8438ZM185.684 20.7148C186.066 20.7148 186.449 20.6172 186.832 20.4219C187.223 20.2188 187.504 20.0234 187.676 19.8359L187.969 19.5195V17C187.875 17.0156 187.746 17.0391 187.582 17.0703C187.426 17.1016 187.137 17.1914 186.715 17.3398C186.301 17.4805 185.934 17.6367 185.613 17.8086C185.293 17.9727 185.004 18.2109 184.746 18.5234C184.496 18.8359 184.371 19.168 184.371 19.5195C184.371 19.8867 184.484 20.1797 184.711 20.3984C184.945 20.6094 185.27 20.7148 185.684 20.7148ZM214.5 15.3242V19.8828C214.5 20.7656 214.609 21.3477 214.828 21.6289C215.055 21.9023 215.504 22.0391 216.176 22.0391V23H209.215V22.0391L210.891 21.6758V15.5586C210.891 13.957 210.211 13.1562 208.852 13.1562C208.469 13.1562 208.078 13.2461 207.68 13.4258C207.281 13.5977 206.977 13.7812 206.766 13.9766L206.461 14.2344V19.8828C206.461 20.7656 206.57 21.3477 206.789 21.6289C207.016 21.9023 207.465 22.0391 208.137 22.0391V23H201.176V22.0391L202.852 21.6758V14.5977C202.852 13.668 202.727 13.0352 202.477 12.6992C202.234 12.3633 201.801 12.1953 201.176 12.1953V11.2344C201.879 11.2031 202.621 11.1289 203.402 11.0117C204.191 10.8945 204.793 10.7773 205.207 10.6602L205.852 10.5195L206.098 12.8047H206.332C206.379 12.7422 206.441 12.6602 206.52 12.5586C206.605 12.4492 206.785 12.2656 207.059 12.0078C207.332 11.75 207.617 11.5234 207.914 11.3281C208.219 11.125 208.605 10.9414 209.074 10.7773C209.551 10.6055 210.039 10.5195 210.539 10.5195C211.727 10.5195 212.684 10.9414 213.41 11.7852C214.137 12.6211 214.5 13.8008 214.5 15.3242ZM228.059 14.8438V19.1562C228.059 20.0859 228.184 20.7188 228.434 21.0547C228.684 21.3906 229.117 21.5586 229.734 21.5586V22.5195C229.031 22.5508 228.289 22.6289 227.508 22.7539C226.727 22.8711 226.125 22.9844 225.703 23.0938L225.059 23.2344L224.824 20.9609H224.578C224.531 21.0234 224.465 21.1094 224.379 21.2188C224.301 21.3203 224.129 21.5 223.863 21.7578C223.605 22.0078 223.328 22.2344 223.031 22.4375C222.734 22.6328 222.352 22.8164 221.883 22.9883C221.422 23.1523 220.961 23.2344 220.5 23.2344C219.445 23.2344 218.621 22.9766 218.027 22.4609C217.434 21.9375 217.137 21.2773 217.137 20.4805C217.137 19.7617 217.387 19.1055 217.887 18.5117C218.395 17.918 219.008 17.4531 219.727 17.1172C220.453 16.7812 221.172 16.5 221.883 16.2734C222.594 16.0391 223.195 15.8828 223.688 15.8047L224.461 15.6758V15.0781C224.461 13.0781 223.742 12.0781 222.305 12.0781C222.094 12.0781 221.867 12.1055 221.625 12.1602C221.383 12.2148 221.191 12.2773 221.051 12.3477L220.863 12.4414L220.02 15.0781H218.098V11.7148C218.254 11.6211 218.48 11.5117 218.777 11.3867C219.074 11.2539 219.664 11.0781 220.547 10.8594C221.43 10.6328 222.293 10.5195 223.137 10.5195C224.723 10.5195 225.938 10.9062 226.781 11.6797C227.633 12.4453 228.059 13.5 228.059 14.8438ZM222.176 20.7148C222.559 20.7148 222.941 20.6172 223.324 20.4219C223.715 20.2188 223.996 20.0234 224.168 19.8359L224.461 19.5195V17C224.367 17.0156 224.238 17.0391 224.074 17.0703C223.918 17.1016 223.629 17.1914 223.207 17.3398C222.793 17.4805 222.426 17.6367 222.105 17.8086C221.785 17.9727 221.496 18.2109 221.238 18.5234C220.988 18.8359 220.863 19.168 220.863 19.5195C220.863 19.8867 220.977 20.1797 221.203 20.3984C221.438 20.6094 221.762 20.7148 222.176 20.7148ZM242.953 10.4023V19.8828C242.953 20.7656 243.062 21.3477 243.281 21.6289C243.508 21.9023 243.957 22.0391 244.629 22.0391V23H237.668V22.0391L239.344 21.6758V14.5977C239.344 13.668 239.219 13.0352 238.969 12.6992C238.727 12.3633 238.293 12.1953 237.668 12.1953V11.2344C238.52 11.2031 239.383 11.1172 240.258 10.9766C241.141 10.8359 241.812 10.6992 242.273 10.5664L242.953 10.4023ZM242.508 5.09375C242.883 5.47656 243.07 5.96484 243.07 6.55859C243.07 7.15234 242.883 7.64062 242.508 8.02344C242.133 8.40625 241.641 8.59766 241.031 8.59766C240.422 8.59766 239.93 8.40625 239.555 8.02344C239.18 7.64062 238.992 7.15234 238.992 6.55859C238.992 5.96484 239.18 5.47656 239.555 5.09375C239.93 4.71094 240.422 4.51953 241.031 4.51953C241.641 4.51953 242.133 4.71094 242.508 5.09375ZM258.797 15.3242V19.8828C258.797 20.7656 258.906 21.3477 259.125 21.6289C259.352 21.9023 259.801 22.0391 260.473 22.0391V23H253.512V22.0391L255.188 21.6758V15.5586C255.188 13.957 254.508 13.1562 253.148 13.1562C252.766 13.1562 252.375 13.2461 251.977 13.4258C251.578 13.5977 251.273 13.7812 251.062 13.9766L250.758 14.2344V19.8828C250.758 20.7656 250.867 21.3477 251.086 21.6289C251.312 21.9023 251.762 22.0391 252.434 22.0391V23H245.473V22.0391L247.148 21.6758V14.5977C247.148 13.668 247.023 13.0352 246.773 12.6992C246.531 12.3633 246.098 12.1953 245.473 12.1953V11.2344C246.176 11.2031 246.918 11.1289 247.699 11.0117C248.488 10.8945 249.09 10.7773 249.504 10.6602L250.148 10.5195L250.395 12.8047H250.629C250.676 12.7422 250.738 12.6602 250.816 12.5586C250.902 12.4492 251.082 12.2656 251.355 12.0078C251.629 11.75 251.914 11.5234 252.211 11.3281C252.516 11.125 252.902 10.9414 253.371 10.7773C253.848 10.6055 254.336 10.5195 254.836 10.5195C256.023 10.5195 256.98 10.9414 257.707 11.7852C258.434 12.6211 258.797 13.8008 258.797 15.3242ZM260.965 12.3242V11.1172L262.887 10.7656V7.63672L265.758 6.67578H266.484V10.7656H270.316V12.6758H269.004L266.484 12.0781V19.1562C266.484 20.2734 267.043 20.8359 268.16 20.8438C268.543 20.8438 268.914 20.7852 269.273 20.668C269.633 20.543 269.895 20.4258 270.059 20.3164L270.316 20.1172L270.797 20.8438C270.75 20.9062 270.688 20.9961 270.609 21.1133C270.531 21.2227 270.355 21.4141 270.082 21.6875C269.809 21.9531 269.52 22.1914 269.215 22.4023C268.91 22.6055 268.52 22.7969 268.043 22.9766C267.574 23.1484 267.094 23.2344 266.602 23.2344C265.398 23.2344 264.477 22.918 263.836 22.2852C263.203 21.6445 262.887 20.7227 262.887 19.5195V12.3242H260.965ZM278.25 12.0781C277.672 12.0781 277.172 12.3555 276.75 12.9102C276.328 13.457 276.027 14.3008 275.848 15.4414L280.055 15.0781V14.4805C280.055 13.7305 279.883 13.1445 279.539 12.7227C279.195 12.293 278.766 12.0781 278.25 12.0781ZM278.496 10.5195C280.113 10.5195 281.379 10.9727 282.293 11.8789C283.215 12.7773 283.707 14.043 283.77 15.6758L282.574 16.7656H275.848C275.91 18.0781 276.258 19.0664 276.891 19.7305C277.523 20.3867 278.418 20.7148 279.574 20.7148C280.215 20.7148 280.82 20.6289 281.391 20.457C281.969 20.2773 282.387 20.1016 282.645 19.9297L283.055 19.6367L283.652 20.2344C283.605 20.3125 283.535 20.4219 283.441 20.5625C283.355 20.7031 283.145 20.9453 282.809 21.2891C282.473 21.6328 282.113 21.9375 281.73 22.2031C281.348 22.4609 280.832 22.6992 280.184 22.918C279.535 23.1289 278.852 23.2344 278.133 23.2344C276.391 23.2344 274.934 22.6523 273.762 21.4883C272.598 20.3164 272.016 18.8594 272.016 17.1172C272.016 15.2578 272.645 13.6953 273.902 12.4297C275.16 11.1562 276.691 10.5195 278.496 10.5195ZM298.406 15.3242V19.8828C298.406 20.7656 298.516 21.3477 298.734 21.6289C298.961 21.9023 299.41 22.0391 300.082 22.0391V23H293.121V22.0391L294.797 21.6758V15.5586C294.797 13.957 294.117 13.1562 292.758 13.1562C292.375 13.1562 291.984 13.2461 291.586 13.4258C291.188 13.5977 290.883 13.7812 290.672 13.9766L290.367 14.2344V19.8828C290.367 20.7656 290.477 21.3477 290.695 21.6289C290.922 21.9023 291.371 22.0391 292.043 22.0391V23H285.082V22.0391L286.758 21.6758V14.5977C286.758 13.668 286.633 13.0352 286.383 12.6992C286.141 12.3633 285.707 12.1953 285.082 12.1953V11.2344C285.785 11.2031 286.527 11.1289 287.309 11.0117C288.098 10.8945 288.699 10.7773 289.113 10.6602L289.758 10.5195L290.004 12.8047H290.238C290.285 12.7422 290.348 12.6602 290.426 12.5586C290.512 12.4492 290.691 12.2656 290.965 12.0078C291.238 11.75 291.523 11.5234 291.82 11.3281C292.125 11.125 292.512 10.9414 292.98 10.7773C293.457 10.6055 293.945 10.5195 294.445 10.5195C295.633 10.5195 296.59 10.9414 297.316 11.7852C298.043 12.6211 298.406 13.8008 298.406 15.3242ZM305.965 24.9219L306.68 23.2344C305.141 23.0391 303.855 22.3828 302.824 21.2656C301.801 20.1484 301.289 18.7656 301.289 17.1172C301.289 15.2266 301.949 13.6562 303.27 12.4062C304.59 11.1484 306.289 10.5195 308.367 10.5195C309.148 10.5195 309.879 10.6094 310.559 10.7891C311.238 10.9609 311.723 11.1445 312.012 11.3398L312.445 11.5977V15.4414H310.77L309.68 12.3242C309.359 12.168 308.922 12.0859 308.367 12.0781C307.469 12.0781 306.703 12.4766 306.07 13.2734C305.438 14.0625 305.121 15.1445 305.121 16.5195C305.121 17.8164 305.465 18.8398 306.152 19.5898C306.84 20.3398 307.738 20.7148 308.848 20.7148C309.488 20.7148 310.094 20.6289 310.664 20.457C311.242 20.2773 311.66 20.1016 311.918 19.9297L312.328 19.6367L312.926 20.2344C312.879 20.3125 312.812 20.4141 312.727 20.5391C312.648 20.6562 312.453 20.8789 312.141 21.207C311.828 21.5352 311.492 21.8281 311.133 22.0859C310.773 22.3438 310.289 22.5898 309.68 22.8242C309.078 23.0508 308.441 23.1875 307.77 23.2344L307.16 24.5586C307.48 24.4805 307.801 24.4414 308.121 24.4414C308.652 24.4414 309.105 24.6211 309.48 24.9805C309.855 25.3398 310.043 25.7578 310.043 26.2344C310.043 27.0156 309.672 27.6719 308.93 28.2031C308.188 28.7344 307.078 29 305.602 29L305.848 27.9219C307.207 27.8125 307.887 27.332 307.887 26.4805C307.887 26.1914 307.805 25.957 307.641 25.7773C307.484 25.6055 307.285 25.5195 307.043 25.5195L306.445 25.6367L305.965 24.9219ZM325.16 14.8438V19.1562C325.16 20.0859 325.285 20.7188 325.535 21.0547C325.785 21.3906 326.219 21.5586 326.836 21.5586V22.5195C326.133 22.5508 325.391 22.6289 324.609 22.7539C323.828 22.8711 323.227 22.9844 322.805 23.0938L322.16 23.2344L321.926 20.9609H321.68C321.633 21.0234 321.566 21.1094 321.48 21.2188C321.402 21.3203 321.23 21.5 320.965 21.7578C320.707 22.0078 320.43 22.2344 320.133 22.4375C319.836 22.6328 319.453 22.8164 318.984 22.9883C318.523 23.1523 318.062 23.2344 317.602 23.2344C316.547 23.2344 315.723 22.9766 315.129 22.4609C314.535 21.9375 314.238 21.2773 314.238 20.4805C314.238 19.7617 314.488 19.1055 314.988 18.5117C315.496 17.918 316.109 17.4531 316.828 17.1172C317.555 16.7812 318.273 16.5 318.984 16.2734C319.695 16.0391 320.297 15.8828 320.789 15.8047L321.562 15.6758V15.0781C321.562 13.0781 320.844 12.0781 319.406 12.0781C319.195 12.0781 318.969 12.1055 318.727 12.1602C318.484 12.2148 318.293 12.2773 318.152 12.3477L317.965 12.4414L317.121 15.0781H315.199V11.7148C315.355 11.6211 315.582 11.5117 315.879 11.3867C316.176 11.2539 316.766 11.0781 317.648 10.8594C318.531 10.6328 319.395 10.5195 320.238 10.5195C321.824 10.5195 323.039 10.9062 323.883 11.6797C324.734 12.4453 325.16 13.5 325.16 14.8438ZM319.277 20.7148C319.66 20.7148 320.043 20.6172 320.426 20.4219C320.816 20.2188 321.098 20.0234 321.27 19.8359L321.562 19.5195V17C321.469 17.0156 321.34 17.0391 321.176 17.0703C321.02 17.1016 320.73 17.1914 320.309 17.3398C319.895 17.4805 319.527 17.6367 319.207 17.8086C318.887 17.9727 318.598 18.2109 318.34 18.5234C318.09 18.8359 317.965 19.168 317.965 19.5195C317.965 19.8867 318.078 20.1797 318.305 20.3984C318.539 20.6094 318.863 20.7148 319.277 20.7148ZM321.316 8.11719L319.641 7.63672C319.078 7.48047 318.637 7.40234 318.316 7.40234C317.949 7.40234 317.629 7.67969 317.355 8.23438L316.523 8L316.875 6.80469C317.18 5.76562 317.742 5.24219 318.562 5.23438C318.703 5.23438 318.883 5.25781 319.102 5.30469C319.32 5.34375 319.5 5.38672 319.641 5.43359L319.875 5.48047L321.562 5.96094C322.125 6.11719 322.562 6.19531 322.875 6.19531C323.242 6.19531 323.562 5.91797 323.836 5.36328L324.68 5.59766L324.316 6.80469C324.012 7.84375 323.453 8.36328 322.641 8.36328C322.5 8.36328 322.32 8.34375 322.102 8.30469C321.883 8.25781 321.703 8.21094 321.562 8.16406L321.316 8.11719ZM331.887 16.6367C331.887 20.0742 332.848 21.7969 334.77 21.8047C335.504 21.8047 336.125 21.418 336.633 20.6445C337.148 19.8633 337.406 18.6875 337.406 17.1172C337.406 13.6797 336.449 11.9609 334.535 11.9609C333.801 11.9609 333.176 12.3477 332.66 13.1211C332.145 13.8945 331.887 15.0664 331.887 16.6367ZM341.25 16.7656C341.25 18.5859 340.602 20.1211 339.305 21.3711C338.008 22.6133 336.375 23.2344 334.406 23.2344C332.547 23.2344 331.023 22.6484 329.836 21.4766C328.648 20.2969 328.055 18.8047 328.055 17C328.055 15.1797 328.699 13.6445 329.988 12.3945C331.285 11.1445 332.918 10.5195 334.887 10.5195C336.746 10.5195 338.27 11.1094 339.457 12.2891C340.652 13.4688 341.25 14.9609 341.25 16.7656ZM356.613 10.5195C356.934 10.5195 357.254 10.5508 357.574 10.6133C357.895 10.6758 358.133 10.7422 358.289 10.8125L358.535 10.8828V7.76562C358.535 6.83594 358.41 6.20313 358.16 5.86719C357.91 5.53125 357.473 5.36328 356.848 5.36328V4.40234C357.629 4.37109 358.461 4.28516 359.344 4.14453C360.227 3.99609 360.914 3.86719 361.406 3.75781L362.133 3.55859V19.1562C362.133 20.0859 362.254 20.7188 362.496 21.0547C362.746 21.3906 363.184 21.5586 363.809 21.5586V22.5195C363.105 22.5508 362.359 22.6289 361.57 22.7539C360.789 22.8711 360.191 22.9844 359.777 23.0938L359.133 23.2344L358.887 20.9609H358.652C358.605 21.0234 358.539 21.1094 358.453 21.2188C358.375 21.3203 358.203 21.5 357.938 21.7578C357.68 22.0078 357.402 22.2344 357.105 22.4375C356.809 22.6328 356.426 22.8164 355.957 22.9883C355.496 23.1523 355.035 23.2344 354.574 23.2344C353.324 23.2344 352.25 22.707 351.352 21.6523C350.461 20.5977 350.016 19.207 350.016 17.4805C350.016 15.4023 350.629 13.7227 351.855 12.4414C353.09 11.1602 354.676 10.5195 356.613 10.5195ZM356.496 12.0781C355.715 12.0781 355.059 12.4648 354.527 13.2383C353.996 14.0039 353.73 15.1797 353.73 16.7656C353.73 18.0781 353.957 19.0469 354.41 19.6719C354.871 20.2891 355.484 20.5977 356.25 20.5977C356.633 20.5977 357.016 20.5117 357.398 20.3398C357.789 20.1602 358.07 19.9766 358.242 19.7891L358.535 19.5195V12.9219C358.059 12.3594 357.379 12.0781 356.496 12.0781ZM371.25 12.0781C370.672 12.0781 370.172 12.3555 369.75 12.9102C369.328 13.457 369.027 14.3008 368.848 15.4414L373.055 15.0781V14.4805C373.055 13.7305 372.883 13.1445 372.539 12.7227C372.195 12.293 371.766 12.0781 371.25 12.0781ZM371.496 10.5195C373.113 10.5195 374.379 10.9727 375.293 11.8789C376.215 12.7773 376.707 14.043 376.77 15.6758L375.574 16.7656H368.848C368.91 18.0781 369.258 19.0664 369.891 19.7305C370.523 20.3867 371.418 20.7148 372.574 20.7148C373.215 20.7148 373.82 20.6289 374.391 20.457C374.969 20.2773 375.387 20.1016 375.645 19.9297L376.055 19.6367L376.652 20.2344C376.605 20.3125 376.535 20.4219 376.441 20.5625C376.355 20.7031 376.145 20.9453 375.809 21.2891C375.473 21.6328 375.113 21.9375 374.73 22.2031C374.348 22.4609 373.832 22.6992 373.184 22.918C372.535 23.1289 371.852 23.2344 371.133 23.2344C369.391 23.2344 367.934 22.6523 366.762 21.4883C365.598 20.3164 365.016 18.8594 365.016 17.1172C365.016 15.2578 365.645 13.6953 366.902 12.4297C368.16 11.1562 369.691 10.5195 371.496 10.5195ZM391.758 12.0781C391.18 12.0781 390.68 12.3555 390.258 12.9102C389.836 13.457 389.535 14.3008 389.355 15.4414L393.562 15.0781V14.4805C393.562 13.7305 393.391 13.1445 393.047 12.7227C392.703 12.293 392.273 12.0781 391.758 12.0781ZM392.004 10.5195C393.621 10.5195 394.887 10.9727 395.801 11.8789C396.723 12.7773 397.215 14.043 397.277 15.6758L396.082 16.7656H389.355C389.418 18.0781 389.766 19.0664 390.398 19.7305C391.031 20.3867 391.926 20.7148 393.082 20.7148C393.723 20.7148 394.328 20.6289 394.898 20.457C395.477 20.2773 395.895 20.1016 396.152 19.9297L396.562 19.6367L397.16 20.2344C397.113 20.3125 397.043 20.4219 396.949 20.5625C396.863 20.7031 396.652 20.9453 396.316 21.2891C395.98 21.6328 395.621 21.9375 395.238 22.2031C394.855 22.4609 394.34 22.6992 393.691 22.918C393.043 23.1289 392.359 23.2344 391.641 23.2344C389.898 23.2344 388.441 22.6523 387.27 21.4883C386.105 20.3164 385.523 18.8594 385.523 17.1172C385.523 15.2578 386.152 13.6953 387.41 12.4297C388.668 11.1562 390.199 10.5195 392.004 10.5195ZM405.551 10.5195C405.871 10.5195 406.191 10.5508 406.512 10.6133C406.832 10.6758 407.07 10.7422 407.227 10.8125L407.473 10.8828V7.76562C407.473 6.83594 407.348 6.20313 407.098 5.86719C406.848 5.53125 406.41 5.36328 405.785 5.36328V4.40234C406.566 4.37109 407.398 4.28516 408.281 4.14453C409.164 3.99609 409.852 3.86719 410.344 3.75781L411.07 3.55859V19.1562C411.07 20.0859 411.191 20.7188 411.434 21.0547C411.684 21.3906 412.121 21.5586 412.746 21.5586V22.5195C412.043 22.5508 411.297 22.6289 410.508 22.7539C409.727 22.8711 409.129 22.9844 408.715 23.0938L408.07 23.2344L407.824 20.9609H407.59C407.543 21.0234 407.477 21.1094 407.391 21.2188C407.312 21.3203 407.141 21.5 406.875 21.7578C406.617 22.0078 406.34 22.2344 406.043 22.4375C405.746 22.6328 405.363 22.8164 404.895 22.9883C404.434 23.1523 403.973 23.2344 403.512 23.2344C402.262 23.2344 401.188 22.707 400.289 21.6523C399.398 20.5977 398.953 19.207 398.953 17.4805C398.953 15.4023 399.566 13.7227 400.793 12.4414C402.027 11.1602 403.613 10.5195 405.551 10.5195ZM405.434 12.0781C404.652 12.0781 403.996 12.4648 403.465 13.2383C402.934 14.0039 402.668 15.1797 402.668 16.7656C402.668 18.0781 402.895 19.0469 403.348 19.6719C403.809 20.2891 404.422 20.5977 405.188 20.5977C405.57 20.5977 405.953 20.5117 406.336 20.3398C406.727 20.1602 407.008 19.9766 407.18 19.7891L407.473 19.5195V12.9219C406.996 12.3594 406.316 12.0781 405.434 12.0781ZM418.875 10.4023V19.8828C418.875 20.7656 418.984 21.3477 419.203 21.6289C419.43 21.9023 419.879 22.0391 420.551 22.0391V23H413.59V22.0391L415.266 21.6758V14.5977C415.266 13.668 415.141 13.0352 414.891 12.6992C414.648 12.3633 414.215 12.1953 413.59 12.1953V11.2344C414.441 11.2031 415.305 11.1172 416.18 10.9766C417.062 10.8359 417.734 10.6992 418.195 10.5664L418.875 10.4023ZM418.43 5.09375C418.805 5.47656 418.992 5.96484 418.992 6.55859C418.992 7.15234 418.805 7.64062 418.43 8.02344C418.055 8.40625 417.562 8.59766 416.953 8.59766C416.344 8.59766 415.852 8.40625 415.477 8.02344C415.102 7.64062 414.914 7.15234 414.914 6.55859C414.914 5.96484 415.102 5.47656 415.477 5.09375C415.852 4.71094 416.344 4.51953 416.953 4.51953C417.562 4.51953 418.055 4.71094 418.43 5.09375ZM421.277 12.3242V11.1172L423.199 10.7656V7.63672L426.07 6.67578H426.797V10.7656H430.629V12.6758H429.316L426.797 12.0781V19.1562C426.797 20.2734 427.355 20.8359 428.473 20.8438C428.855 20.8438 429.227 20.7852 429.586 20.668C429.945 20.543 430.207 20.4258 430.371 20.3164L430.629 20.1172L431.109 20.8438C431.062 20.9062 431 20.9961 430.922 21.1133C430.844 21.2227 430.668 21.4141 430.395 21.6875C430.121 21.9531 429.832 22.1914 429.527 22.4023C429.223 22.6055 428.832 22.7969 428.355 22.9766C427.887 23.1484 427.406 23.2344 426.914 23.2344C425.711 23.2344 424.789 22.918 424.148 22.2852C423.516 21.6445 423.199 20.7227 423.199 19.5195V12.3242H421.277ZM443.004 14.8438V19.1562C443.004 20.0859 443.129 20.7188 443.379 21.0547C443.629 21.3906 444.062 21.5586 444.68 21.5586V22.5195C443.977 22.5508 443.234 22.6289 442.453 22.7539C441.672 22.8711 441.07 22.9844 440.648 23.0938L440.004 23.2344L439.77 20.9609H439.523C439.477 21.0234 439.41 21.1094 439.324 21.2188C439.246 21.3203 439.074 21.5 438.809 21.7578C438.551 22.0078 438.273 22.2344 437.977 22.4375C437.68 22.6328 437.297 22.8164 436.828 22.9883C436.367 23.1523 435.906 23.2344 435.445 23.2344C434.391 23.2344 433.566 22.9766 432.973 22.4609C432.379 21.9375 432.082 21.2773 432.082 20.4805C432.082 19.7617 432.332 19.1055 432.832 18.5117C433.34 17.918 433.953 17.4531 434.672 17.1172C435.398 16.7812 436.117 16.5 436.828 16.2734C437.539 16.0391 438.141 15.8828 438.633 15.8047L439.406 15.6758V15.0781C439.406 13.0781 438.688 12.0781 437.25 12.0781C437.039 12.0781 436.812 12.1055 436.57 12.1602C436.328 12.2148 436.137 12.2773 435.996 12.3477L435.809 12.4414L434.965 15.0781H433.043V11.7148C433.199 11.6211 433.426 11.5117 433.723 11.3867C434.02 11.2539 434.609 11.0781 435.492 10.8594C436.375 10.6328 437.238 10.5195 438.082 10.5195C439.668 10.5195 440.883 10.9062 441.727 11.6797C442.578 12.4453 443.004 13.5 443.004 14.8438ZM437.121 20.7148C437.504 20.7148 437.887 20.6172 438.27 20.4219C438.66 20.2188 438.941 20.0234 439.113 19.8359L439.406 19.5195V17C439.312 17.0156 439.184 17.0391 439.02 17.0703C438.863 17.1016 438.574 17.1914 438.152 17.3398C437.738 17.4805 437.371 17.6367 437.051 17.8086C436.73 17.9727 436.441 18.2109 436.184 18.5234C435.934 18.8359 435.809 19.168 435.809 19.5195C435.809 19.8867 435.922 20.1797 436.148 20.3984C436.383 20.6094 436.707 20.7148 437.121 20.7148ZM450.82 14.3633V19.8828C450.82 20.7109 450.969 21.2773 451.266 21.582C451.57 21.8867 452.141 22.0391 452.977 22.0391V23H445.535V22.0391L447.211 21.6758V14.5977C447.211 13.668 447.086 13.0352 446.836 12.6992C446.594 12.3633 446.16 12.1953 445.535 12.1953V11.2344C446.238 11.2031 446.98 11.1289 447.762 11.0117C448.551 10.8945 449.152 10.7773 449.566 10.6602L450.211 10.5195L450.457 12.8047H450.691C450.738 12.7422 450.801 12.6602 450.879 12.5586C450.965 12.4492 451.148 12.2656 451.43 12.0078C451.711 11.75 451.992 11.5234 452.273 11.3281C452.562 11.125 452.922 10.9414 453.352 10.7773C453.789 10.6055 454.223 10.5195 454.652 10.5195C454.973 10.5195 455.285 10.5508 455.59 10.6133C455.895 10.6758 456.109 10.7422 456.234 10.8125L456.457 10.8828V15.1953H454.535L453.691 12.9219C453.16 12.9531 452.656 13.0898 452.18 13.332C451.703 13.5664 451.359 13.7969 451.148 14.0234L450.82 14.3633ZM463.535 12.3242V11.1172L465.457 10.7656V7.63672L468.328 6.67578H469.055V10.7656H472.887V12.6758H471.574L469.055 12.0781V19.1562C469.055 20.2734 469.613 20.8359 470.73 20.8438C471.113 20.8438 471.484 20.7852 471.844 20.668C472.203 20.543 472.465 20.4258 472.629 20.3164L472.887 20.1172L473.367 20.8438C473.32 20.9062 473.258 20.9961 473.18 21.1133C473.102 21.2227 472.926 21.4141 472.652 21.6875C472.379 21.9531 472.09 22.1914 471.785 22.4023C471.48 22.6055 471.09 22.7969 470.613 22.9766C470.145 23.1484 469.664 23.2344 469.172 23.2344C467.969 23.2344 467.047 22.918 466.406 22.2852C465.773 21.6445 465.457 20.7227 465.457 19.5195V12.3242H463.535ZM480.82 12.0781C480.242 12.0781 479.742 12.3555 479.32 12.9102C478.898 13.457 478.598 14.3008 478.418 15.4414L482.625 15.0781V14.4805C482.625 13.7305 482.453 13.1445 482.109 12.7227C481.766 12.293 481.336 12.0781 480.82 12.0781ZM481.066 10.5195C482.684 10.5195 483.949 10.9727 484.863 11.8789C485.785 12.7773 486.277 14.043 486.34 15.6758L485.145 16.7656H478.418C478.48 18.0781 478.828 19.0664 479.461 19.7305C480.094 20.3867 480.988 20.7148 482.145 20.7148C482.785 20.7148 483.391 20.6289 483.961 20.457C484.539 20.2773 484.957 20.1016 485.215 19.9297L485.625 19.6367L486.223 20.2344C486.176 20.3125 486.105 20.4219 486.012 20.5625C485.926 20.7031 485.715 20.9453 485.379 21.2891C485.043 21.6328 484.684 21.9375 484.301 22.2031C483.918 22.4609 483.402 22.6992 482.754 22.918C482.105 23.1289 481.422 23.2344 480.703 23.2344C478.961 23.2344 477.504 22.6523 476.332 21.4883C475.168 20.3164 474.586 18.8594 474.586 17.1172C474.586 15.2578 475.215 13.6953 476.473 12.4297C477.73 11.1562 479.262 10.5195 481.066 10.5195ZM495.703 16.4023L498.223 20C498.816 20.8281 499.277 21.375 499.605 21.6406C499.941 21.9062 500.398 22.0391 500.977 22.0391V23H493.898V22.0391L495.34 21.6758L493.055 18.4414L491.496 20.3633C491.176 20.6836 491.016 21.0039 491.016 21.3242C491.016 21.5195 491.113 21.6875 491.309 21.8281C491.512 21.9688 491.816 22.0391 492.223 22.0391V23H486.938V22.0391L488.496 21.6758L492.094 17.1172L489.703 13.7656C489.094 12.9375 488.629 12.3906 488.309 12.125C487.988 11.8516 487.57 11.7148 487.055 11.7148V10.7656H494.016V11.7148L492.574 12.0781L494.742 15.0781L496.055 13.4023C496.375 13.0039 496.535 12.6836 496.535 12.4414C496.535 12.2461 496.434 12.0781 496.23 11.9375C496.035 11.7891 495.738 11.7148 495.34 11.7148V10.7656H500.613V11.7148L499.055 12.0781L495.703 16.4023ZM501.34 12.3242V11.1172L503.262 10.7656V7.63672L506.133 6.67578H506.859V10.7656H510.691V12.6758H509.379L506.859 12.0781V19.1562C506.859 20.2734 507.418 20.8359 508.535 20.8438C508.918 20.8438 509.289 20.7852 509.648 20.668C510.008 20.543 510.27 20.4258 510.434 20.3164L510.691 20.1172L511.172 20.8438C511.125 20.9062 511.062 20.9961 510.984 21.1133C510.906 21.2227 510.73 21.4141 510.457 21.6875C510.184 21.9531 509.895 22.1914 509.59 22.4023C509.285 22.6055 508.895 22.7969 508.418 22.9766C507.949 23.1484 507.469 23.2344 506.977 23.2344C505.773 23.2344 504.852 22.918 504.211 22.2852C503.578 21.6445 503.262 20.7227 503.262 19.5195V12.3242H501.34ZM516.223 16.6367C516.223 20.0742 517.184 21.7969 519.105 21.8047C519.84 21.8047 520.461 21.418 520.969 20.6445C521.484 19.8633 521.742 18.6875 521.742 17.1172C521.742 13.6797 520.785 11.9609 518.871 11.9609C518.137 11.9609 517.512 12.3477 516.996 13.1211C516.48 13.8945 516.223 15.0664 516.223 16.6367ZM525.586 16.7656C525.586 18.5859 524.938 20.1211 523.641 21.3711C522.344 22.6133 520.711 23.2344 518.742 23.2344C516.883 23.2344 515.359 22.6484 514.172 21.4766C512.984 20.2969 512.391 18.8047 512.391 17C512.391 15.1797 513.035 13.6445 514.324 12.3945C515.621 11.1445 517.254 10.5195 519.223 10.5195C521.082 10.5195 522.605 11.1094 523.793 12.2891C524.988 13.4688 525.586 14.9609 525.586 16.7656ZM533.871 20C533.871 19.6172 533.652 19.2617 533.215 18.9336C532.785 18.6055 532.266 18.3086 531.656 18.043C531.055 17.7773 530.449 17.4844 529.84 17.1641C529.23 16.8438 528.707 16.4141 528.27 15.875C527.84 15.3281 527.625 14.7031 527.625 14C527.625 12.9766 528.047 12.1406 528.891 11.4922C529.742 10.8438 531 10.5195 532.664 10.5195C533.336 10.5195 533.992 10.5938 534.633 10.7422C535.273 10.8828 535.746 11.0156 536.051 11.1406L536.508 11.3633V14.4805H535.312C535.133 13.582 534.855 12.9375 534.48 12.5469C534.105 12.1562 533.582 11.9609 532.91 11.9609C532.379 11.9609 531.965 12.0898 531.668 12.3477C531.379 12.5977 531.234 12.9102 531.234 13.2852C531.234 13.7148 531.449 14.0859 531.879 14.3984C532.309 14.7109 532.828 14.9805 533.438 15.207C534.047 15.4258 534.652 15.6758 535.254 15.957C535.863 16.2383 536.383 16.6523 536.812 17.1992C537.25 17.7383 537.469 18.3906 537.469 19.1562C537.469 20.2891 536.98 21.2539 536.004 22.0508C535.027 22.8398 533.676 23.2344 531.949 23.2344C531.137 23.2344 530.336 23.1562 529.547 23C528.766 22.8438 528.191 22.6836 527.824 22.5195L527.273 22.2852V18.5586H528.469C528.836 20.7148 529.918 21.7969 531.715 21.8047C532.355 21.8047 532.875 21.6289 533.273 21.2773C533.672 20.918 533.871 20.4922 533.871 20ZM11.5195 44.8438V49.1562C11.5195 50.0859 11.6445 50.7188 11.8945 51.0547C12.1445 51.3906 12.5781 51.5586 13.1953 51.5586V52.5195C12.4922 52.5508 11.75 52.6289 10.9688 52.7539C10.1875 52.8711 9.58594 52.9844 9.16406 53.0938L8.51953 53.2344L8.28516 50.9609H8.03906C7.99219 51.0234 7.92578 51.1094 7.83984 51.2188C7.76172 51.3203 7.58984 51.5 7.32422 51.7578C7.06641 52.0078 6.78906 52.2344 6.49219 52.4375C6.19531 52.6328 5.8125 52.8164 5.34375 52.9883C4.88281 53.1523 4.42188 53.2344 3.96094 53.2344C2.90625 53.2344 2.08203 52.9766 1.48828 52.4609C0.894531 51.9375 0.597656 51.2773 0.597656 50.4805C0.597656 49.7617 0.847656 49.1055 1.34766 48.5117C1.85547 47.918 2.46875 47.4531 3.1875 47.1172C3.91406 46.7812 4.63281 46.5 5.34375 46.2734C6.05469 46.0391 6.65625 45.8828 7.14844 45.8047L7.92188 45.6758V45.0781C7.92188 43.0781 7.20312 42.0781 5.76562 42.0781C5.55469 42.0781 5.32812 42.1055 5.08594 42.1602C4.84375 42.2148 4.65234 42.2773 4.51172 42.3477L4.32422 42.4414L3.48047 45.0781H1.55859V41.7148C1.71484 41.6211 1.94141 41.5117 2.23828 41.3867C2.53516 41.2539 3.125 41.0781 4.00781 40.8594C4.89062 40.6328 5.75391 40.5195 6.59766 40.5195C8.18359 40.5195 9.39844 40.9062 10.2422 41.6797C11.0938 42.4453 11.5195 43.5 11.5195 44.8438ZM5.63672 50.7148C6.01953 50.7148 6.40234 50.6172 6.78516 50.4219C7.17578 50.2188 7.45703 50.0234 7.62891 49.8359L7.92188 49.5195V47C7.82812 47.0156 7.69922 47.0391 7.53516 47.0703C7.37891 47.1016 7.08984 47.1914 6.66797 47.3398C6.25391 47.4805 5.88672 47.6367 5.56641 47.8086C5.24609 47.9727 4.95703 48.2109 4.69922 48.5234C4.44922 48.8359 4.32422 49.168 4.32422 49.5195C4.32422 49.8867 4.4375 50.1797 4.66406 50.3984C4.89844 50.6094 5.22266 50.7148 5.63672 50.7148ZM27.375 45.3242V49.8828C27.375 50.7656 27.4844 51.3477 27.7031 51.6289C27.9297 51.9023 28.3789 52.0391 29.0508 52.0391V53H22.0898V52.0391L23.7656 51.6758V45.5586C23.7656 43.957 23.0859 43.1562 21.7266 43.1562C21.3438 43.1562 20.9531 43.2461 20.5547 43.4258C20.1562 43.5977 19.8516 43.7812 19.6406 43.9766L19.3359 44.2344V49.8828C19.3359 50.7656 19.4453 51.3477 19.6641 51.6289C19.8906 51.9023 20.3398 52.0391 21.0117 52.0391V53H14.0508V52.0391L15.7266 51.6758V44.5977C15.7266 43.668 15.6016 43.0352 15.3516 42.6992C15.1094 42.3633 14.6758 42.1953 14.0508 42.1953V41.2344C14.7539 41.2031 15.4961 41.1289 16.2773 41.0117C17.0664 40.8945 17.668 40.7773 18.082 40.6602L18.7266 40.5195L18.9727 42.8047H19.207C19.2539 42.7422 19.3164 42.6602 19.3945 42.5586C19.4805 42.4492 19.6602 42.2656 19.9336 42.0078C20.207 41.75 20.4922 41.5234 20.7891 41.3281C21.0938 41.125 21.4805 40.9414 21.9492 40.7773C22.4258 40.6055 22.9141 40.5195 23.4141 40.5195C24.6016 40.5195 25.5586 40.9414 26.2852 41.7852C27.0117 42.6211 27.375 43.8008 27.375 45.3242ZM29.543 42.3242V41.1172L31.4648 40.7656V37.6367L34.3359 36.6758H35.0625V40.7656H38.8945V42.6758H37.582L35.0625 42.0781V49.1562C35.0625 50.2734 35.6211 50.8359 36.7383 50.8438C37.1211 50.8438 37.4922 50.7852 37.8516 50.668C38.2109 50.543 38.4727 50.4258 38.6367 50.3164L38.8945 50.1172L39.375 50.8438C39.3281 50.9062 39.2656 50.9961 39.1875 51.1133C39.1094 51.2227 38.9336 51.4141 38.6602 51.6875C38.3867 51.9531 38.0977 52.1914 37.793 52.4023C37.4883 52.6055 37.0977 52.7969 36.6211 52.9766C36.1523 53.1484 35.6719 53.2344 35.1797 53.2344C33.9766 53.2344 33.0547 52.918 32.4141 52.2852C31.7812 51.6445 31.4648 50.7227 31.4648 49.5195V42.3242H29.543ZM45.5156 40.4023V49.8828C45.5156 50.7656 45.625 51.3477 45.8438 51.6289C46.0703 51.9023 46.5195 52.0391 47.1914 52.0391V53H40.2305V52.0391L41.9062 51.6758V44.5977C41.9062 43.668 41.7812 43.0352 41.5312 42.6992C41.2891 42.3633 40.8555 42.1953 40.2305 42.1953V41.2344C41.082 41.2031 41.9453 41.1172 42.8203 40.9766C43.7031 40.8359 44.375 40.6992 44.8359 40.5664L45.5156 40.4023ZM45.0703 35.0938C45.4453 35.4766 45.6328 35.9648 45.6328 36.5586C45.6328 37.1523 45.4453 37.6406 45.0703 38.0234C44.6953 38.4062 44.2031 38.5977 43.5938 38.5977C42.9844 38.5977 42.4922 38.4062 42.1172 38.0234C41.7422 37.6406 41.5547 37.1523 41.5547 36.5586C41.5547 35.9648 41.7422 35.4766 42.1172 35.0938C42.4922 34.7109 42.9844 34.5195 43.5938 34.5195C44.2031 34.5195 44.6953 34.7109 45.0703 35.0938ZM54.9961 50C54.9961 49.6172 54.7773 49.2617 54.3398 48.9336C53.9102 48.6055 53.3906 48.3086 52.7812 48.043C52.1797 47.7773 51.5742 47.4844 50.9648 47.1641C50.3555 46.8438 49.832 46.4141 49.3945 45.875C48.9648 45.3281 48.75 44.7031 48.75 44C48.75 42.9766 49.1719 42.1406 50.0156 41.4922C50.8672 40.8438 52.125 40.5195 53.7891 40.5195C54.4609 40.5195 55.1172 40.5938 55.7578 40.7422C56.3984 40.8828 56.8711 41.0156 57.1758 41.1406L57.6328 41.3633V44.4805H56.4375C56.2578 43.582 55.9805 42.9375 55.6055 42.5469C55.2305 42.1562 54.707 41.9609 54.0352 41.9609C53.5039 41.9609 53.0898 42.0898 52.793 42.3477C52.5039 42.5977 52.3594 42.9102 52.3594 43.2852C52.3594 43.7148 52.5742 44.0859 53.0039 44.3984C53.4336 44.7109 53.9531 44.9805 54.5625 45.207C55.1719 45.4258 55.7773 45.6758 56.3789 45.957C56.9883 46.2383 57.5078 46.6523 57.9375 47.1992C58.375 47.7383 58.5938 48.3906 58.5938 49.1562C58.5938 50.2891 58.1055 51.2539 57.1289 52.0508C56.1523 52.8398 54.8008 53.2344 53.0742 53.2344C52.2617 53.2344 51.4609 53.1562 50.6719 53C49.8906 52.8438 49.3164 52.6836 48.9492 52.5195L48.3984 52.2852V48.5586H49.5938C49.9609 50.7148 51.043 51.7969 52.8398 51.8047C53.4805 51.8047 54 51.6289 54.3984 51.2773C54.7969 50.918 54.9961 50.4922 54.9961 50ZM66.8789 50C66.8789 49.6172 66.6602 49.2617 66.2227 48.9336C65.793 48.6055 65.2734 48.3086 64.6641 48.043C64.0625 47.7773 63.457 47.4844 62.8477 47.1641C62.2383 46.8438 61.7148 46.4141 61.2773 45.875C60.8477 45.3281 60.6328 44.7031 60.6328 44C60.6328 42.9766 61.0547 42.1406 61.8984 41.4922C62.75 40.8438 64.0078 40.5195 65.6719 40.5195C66.3438 40.5195 67 40.5938 67.6406 40.7422C68.2812 40.8828 68.7539 41.0156 69.0586 41.1406L69.5156 41.3633V44.4805H68.3203C68.1406 43.582 67.8633 42.9375 67.4883 42.5469C67.1133 42.1562 66.5898 41.9609 65.918 41.9609C65.3867 41.9609 64.9727 42.0898 64.6758 42.3477C64.3867 42.5977 64.2422 42.9102 64.2422 43.2852C64.2422 43.7148 64.457 44.0859 64.8867 44.3984C65.3164 44.7109 65.8359 44.9805 66.4453 45.207C67.0547 45.4258 67.6602 45.6758 68.2617 45.957C68.8711 46.2383 69.3906 46.6523 69.8203 47.1992C70.2578 47.7383 70.4766 48.3906 70.4766 49.1562C70.4766 50.2891 69.9883 51.2539 69.0117 52.0508C68.0352 52.8398 66.6836 53.2344 64.957 53.2344C64.1445 53.2344 63.3438 53.1562 62.5547 53C61.7734 52.8438 61.1992 52.6836 60.832 52.5195L60.2812 52.2852V48.5586H61.4766C61.8438 50.7148 62.9258 51.7969 64.7227 51.8047C65.3633 51.8047 65.8828 51.6289 66.2812 51.2773C66.6797 50.918 66.8789 50.4922 66.8789 50ZM78.3984 42.0781C77.8203 42.0781 77.3203 42.3555 76.8984 42.9102C76.4766 43.457 76.1758 44.3008 75.9961 45.4414L80.2031 45.0781V44.4805C80.2031 43.7305 80.0312 43.1445 79.6875 42.7227C79.3438 42.293 78.9141 42.0781 78.3984 42.0781ZM78.6445 40.5195C80.2617 40.5195 81.5273 40.9727 82.4414 41.8789C83.3633 42.7773 83.8555 44.043 83.918 45.6758L82.7227 46.7656H75.9961C76.0586 48.0781 76.4062 49.0664 77.0391 49.7305C77.6719 50.3867 78.5664 50.7148 79.7227 50.7148C80.3633 50.7148 80.9688 50.6289 81.5391 50.457C82.1172 50.2773 82.5352 50.1016 82.793 49.9297L83.2031 49.6367L83.8008 50.2344C83.7539 50.3125 83.6836 50.4219 83.5898 50.5625C83.5039 50.7031 83.293 50.9453 82.957 51.2891C82.6211 51.6328 82.2617 51.9375 81.8789 52.2031C81.4961 52.4609 80.9805 52.6992 80.332 52.918C79.6836 53.1289 79 53.2344 78.2812 53.2344C76.5391 53.2344 75.082 52.6523 73.9102 51.4883C72.7461 50.3164 72.1641 48.8594 72.1641 47.1172C72.1641 45.2578 72.793 43.6953 74.0508 42.4297C75.3086 41.1562 76.8398 40.5195 78.6445 40.5195ZM105.633 45.3242V49.8828C105.633 50.7656 105.742 51.3477 105.961 51.6289C106.188 51.9023 106.637 52.0391 107.309 52.0391V53H100.594V52.0391L102.035 51.6758V45.5586C102.035 43.957 101.434 43.1562 100.23 43.1562C99.8477 43.1562 99.4688 43.2461 99.0938 43.4258C98.7188 43.5977 98.4336 43.7812 98.2383 43.9766L97.9453 44.2344C98.0234 44.4766 98.0664 44.918 98.0742 45.5586V49.8828C98.0742 50.7656 98.1797 51.3477 98.3906 51.6289C98.6094 51.9023 99.0234 52.0391 99.6328 52.0391V53H93.0352V52.0391L94.4648 51.6758V45.5586C94.4648 43.957 93.8672 43.1562 92.6719 43.1562C92.3203 43.1562 91.9648 43.2383 91.6055 43.4023C91.2461 43.5586 90.9766 43.7188 90.7969 43.8828L90.5156 44.1172V49.8828C90.5156 50.7656 90.6211 51.3477 90.832 51.6289C91.0508 51.9023 91.4648 52.0391 92.0742 52.0391V53H85.2305V52.0391L86.9062 51.6758V44.5977C86.9062 43.668 86.7812 43.0352 86.5312 42.6992C86.2891 42.3633 85.8555 42.1953 85.2305 42.1953V41.2344C85.9336 41.2031 86.6758 41.1289 87.457 41.0117C88.2461 40.8945 88.8477 40.7773 89.2617 40.6602L89.9062 40.5195L90.1523 42.6758H90.3867C90.418 42.6133 90.4688 42.5352 90.5391 42.4414C90.6172 42.3477 90.7773 42.1758 91.0195 41.9258C91.2695 41.6758 91.5352 41.457 91.8164 41.2695C92.0977 41.0742 92.4648 40.9023 92.918 40.7539C93.3789 40.5977 93.8555 40.5195 94.3477 40.5195C94.8086 40.5195 95.2383 40.5977 95.6367 40.7539C96.043 40.9023 96.3555 41.082 96.5742 41.293C96.8008 41.4961 96.9961 41.7031 97.1602 41.9141C97.332 42.1172 97.4531 42.293 97.5234 42.4414L97.5938 42.6758H97.8281C97.8594 42.6133 97.9141 42.5352 97.9922 42.4414C98.0781 42.3477 98.2461 42.1758 98.4961 41.9258C98.7539 41.6758 99.0312 41.457 99.3281 41.2695C99.625 41.0742 100.004 40.9023 100.465 40.7539C100.934 40.5977 101.414 40.5195 101.906 40.5195C103.023 40.5195 103.922 40.9297 104.602 41.75C105.289 42.5625 105.633 43.7539 105.633 45.3242ZM113.438 40.4023V49.8828C113.438 50.7656 113.547 51.3477 113.766 51.6289C113.992 51.9023 114.441 52.0391 115.113 52.0391V53H108.152V52.0391L109.828 51.6758V44.5977C109.828 43.668 109.703 43.0352 109.453 42.6992C109.211 42.3633 108.777 42.1953 108.152 42.1953V41.2344C109.004 41.2031 109.867 41.1172 110.742 40.9766C111.625 40.8359 112.297 40.6992 112.758 40.5664L113.438 40.4023ZM112.992 35.0938C113.367 35.4766 113.555 35.9648 113.555 36.5586C113.555 37.1523 113.367 37.6406 112.992 38.0234C112.617 38.4062 112.125 38.5977 111.516 38.5977C110.906 38.5977 110.414 38.4062 110.039 38.0234C109.664 37.6406 109.477 37.1523 109.477 36.5586C109.477 35.9648 109.664 35.4766 110.039 35.0938C110.414 34.7109 110.906 34.5195 111.516 34.5195C112.125 34.5195 112.617 34.7109 112.992 35.0938ZM115.84 42.3242V41.1172L117.762 40.7656V37.6367L120.633 36.6758H121.359V40.7656H125.191V42.6758H123.879L121.359 42.0781V49.1562C121.359 50.2734 121.918 50.8359 123.035 50.8438C123.418 50.8438 123.789 50.7852 124.148 50.668C124.508 50.543 124.77 50.4258 124.934 50.3164L125.191 50.1172L125.672 50.8438C125.625 50.9062 125.562 50.9961 125.484 51.1133C125.406 51.2227 125.23 51.4141 124.957 51.6875C124.684 51.9531 124.395 52.1914 124.09 52.4023C123.785 52.6055 123.395 52.7969 122.918 52.9766C122.449 53.1484 121.969 53.2344 121.477 53.2344C120.273 53.2344 119.352 52.918 118.711 52.2852C118.078 51.6445 117.762 50.7227 117.762 49.5195V42.3242H115.84ZM137.566 44.8438V49.1562C137.566 50.0859 137.691 50.7188 137.941 51.0547C138.191 51.3906 138.625 51.5586 139.242 51.5586V52.5195C138.539 52.5508 137.797 52.6289 137.016 52.7539C136.234 52.8711 135.633 52.9844 135.211 53.0938L134.566 53.2344L134.332 50.9609H134.086C134.039 51.0234 133.973 51.1094 133.887 51.2188C133.809 51.3203 133.637 51.5 133.371 51.7578C133.113 52.0078 132.836 52.2344 132.539 52.4375C132.242 52.6328 131.859 52.8164 131.391 52.9883C130.93 53.1523 130.469 53.2344 130.008 53.2344C128.953 53.2344 128.129 52.9766 127.535 52.4609C126.941 51.9375 126.645 51.2773 126.645 50.4805C126.645 49.7617 126.895 49.1055 127.395 48.5117C127.902 47.918 128.516 47.4531 129.234 47.1172C129.961 46.7812 130.68 46.5 131.391 46.2734C132.102 46.0391 132.703 45.8828 133.195 45.8047L133.969 45.6758V45.0781C133.969 43.0781 133.25 42.0781 131.812 42.0781C131.602 42.0781 131.375 42.1055 131.133 42.1602C130.891 42.2148 130.699 42.2773 130.559 42.3477L130.371 42.4414L129.527 45.0781H127.605V41.7148C127.762 41.6211 127.988 41.5117 128.285 41.3867C128.582 41.2539 129.172 41.0781 130.055 40.8594C130.938 40.6328 131.801 40.5195 132.645 40.5195C134.23 40.5195 135.445 40.9062 136.289 41.6797C137.141 42.4453 137.566 43.5 137.566 44.8438ZM131.684 50.7148C132.066 50.7148 132.449 50.6172 132.832 50.4219C133.223 50.2188 133.504 50.0234 133.676 49.8359L133.969 49.5195V47C133.875 47.0156 133.746 47.0391 133.582 47.0703C133.426 47.1016 133.137 47.1914 132.715 47.3398C132.301 47.4805 131.934 47.6367 131.613 47.8086C131.293 47.9727 131.004 48.2109 130.746 48.5234C130.496 48.8359 130.371 49.168 130.371 49.5195C130.371 49.8867 130.484 50.1797 130.711 50.3984C130.945 50.6094 131.27 50.7148 131.684 50.7148ZM147.059 50C147.059 49.6172 146.84 49.2617 146.402 48.9336C145.973 48.6055 145.453 48.3086 144.844 48.043C144.242 47.7773 143.637 47.4844 143.027 47.1641C142.418 46.8438 141.895 46.4141 141.457 45.875C141.027 45.3281 140.812 44.7031 140.812 44C140.812 42.9766 141.234 42.1406 142.078 41.4922C142.93 40.8438 144.188 40.5195 145.852 40.5195C146.523 40.5195 147.18 40.5938 147.82 40.7422C148.461 40.8828 148.934 41.0156 149.238 41.1406L149.695 41.3633V44.4805H148.5C148.32 43.582 148.043 42.9375 147.668 42.5469C147.293 42.1562 146.77 41.9609 146.098 41.9609C145.566 41.9609 145.152 42.0898 144.855 42.3477C144.566 42.5977 144.422 42.9102 144.422 43.2852C144.422 43.7148 144.637 44.0859 145.066 44.3984C145.496 44.7109 146.016 44.9805 146.625 45.207C147.234 45.4258 147.84 45.6758 148.441 45.957C149.051 46.2383 149.57 46.6523 150 47.1992C150.438 47.7383 150.656 48.3906 150.656 49.1562C150.656 50.2891 150.168 51.2539 149.191 52.0508C148.215 52.8398 146.863 53.2344 145.137 53.2344C144.324 53.2344 143.523 53.1562 142.734 53C141.953 52.8438 141.379 52.6836 141.012 52.5195L140.461 52.2852V48.5586H141.656C142.023 50.7148 143.105 51.7969 144.902 51.8047C145.543 51.8047 146.062 51.6289 146.461 51.2773C146.859 50.918 147.059 50.4922 147.059 50ZM166.02 40.5195C166.34 40.5195 166.66 40.5508 166.98 40.6133C167.301 40.6758 167.539 40.7422 167.695 40.8125L167.941 40.8828V37.7656C167.941 36.8359 167.816 36.2031 167.566 35.8672C167.316 35.5312 166.879 35.3633 166.254 35.3633V34.4023C167.035 34.3711 167.867 34.2852 168.75 34.1445C169.633 33.9961 170.32 33.8672 170.812 33.7578L171.539 33.5586V49.1562C171.539 50.0859 171.66 50.7188 171.902 51.0547C172.152 51.3906 172.59 51.5586 173.215 51.5586V52.5195C172.512 52.5508 171.766 52.6289 170.977 52.7539C170.195 52.8711 169.598 52.9844 169.184 53.0938L168.539 53.2344L168.293 50.9609H168.059C168.012 51.0234 167.945 51.1094 167.859 51.2188C167.781 51.3203 167.609 51.5 167.344 51.7578C167.086 52.0078 166.809 52.2344 166.512 52.4375C166.215 52.6328 165.832 52.8164 165.363 52.9883C164.902 53.1523 164.441 53.2344 163.98 53.2344C162.73 53.2344 161.656 52.707 160.758 51.6523C159.867 50.5977 159.422 49.207 159.422 47.4805C159.422 45.4023 160.035 43.7227 161.262 42.4414C162.496 41.1602 164.082 40.5195 166.02 40.5195ZM165.902 42.0781C165.121 42.0781 164.465 42.4648 163.934 43.2383C163.402 44.0039 163.137 45.1797 163.137 46.7656C163.137 48.0781 163.363 49.0469 163.816 49.6719C164.277 50.2891 164.891 50.5977 165.656 50.5977C166.039 50.5977 166.422 50.5117 166.805 50.3398C167.195 50.1602 167.477 49.9766 167.648 49.7891L167.941 49.5195V42.9219C167.465 42.3594 166.785 42.0781 165.902 42.0781ZM180.656 42.0781C180.078 42.0781 179.578 42.3555 179.156 42.9102C178.734 43.457 178.434 44.3008 178.254 45.4414L182.461 45.0781V44.4805C182.461 43.7305 182.289 43.1445 181.945 42.7227C181.602 42.293 181.172 42.0781 180.656 42.0781ZM180.902 40.5195C182.52 40.5195 183.785 40.9727 184.699 41.8789C185.621 42.7773 186.113 44.043 186.176 45.6758L184.98 46.7656H178.254C178.316 48.0781 178.664 49.0664 179.297 49.7305C179.93 50.3867 180.824 50.7148 181.98 50.7148C182.621 50.7148 183.227 50.6289 183.797 50.457C184.375 50.2773 184.793 50.1016 185.051 49.9297L185.461 49.6367L186.059 50.2344C186.012 50.3125 185.941 50.4219 185.848 50.5625C185.762 50.7031 185.551 50.9453 185.215 51.2891C184.879 51.6328 184.52 51.9375 184.137 52.2031C183.754 52.4609 183.238 52.6992 182.59 52.918C181.941 53.1289 181.258 53.2344 180.539 53.2344C178.797 53.2344 177.34 52.6523 176.168 51.4883C175.004 50.3164 174.422 48.8594 174.422 47.1172C174.422 45.2578 175.051 43.6953 176.309 42.4297C177.566 41.1562 179.098 40.5195 180.902 40.5195ZM204.891 51.8047C207.516 51.8047 209.195 50.3242 209.93 47.3633H211.242L210.645 51.9219C210.449 52.0312 210.18 52.168 209.836 52.332C209.492 52.4883 208.777 52.6992 207.691 52.9648C206.605 53.2305 205.512 53.3633 204.41 53.3633C201.598 53.3633 199.332 52.5078 197.613 50.7969C195.902 49.0781 195.047 46.8125 195.047 44C195.047 41.1172 195.973 38.7578 197.824 36.9219C199.684 35.0781 202.078 34.1562 205.008 34.1562C205.969 34.1562 206.914 34.2578 207.844 34.4609C208.781 34.6641 209.484 34.8594 209.953 35.0469L210.645 35.3633V40.1562H209.32C209.141 38.7188 208.672 37.6211 207.914 36.8633C207.156 36.0977 206.148 35.7148 204.891 35.7148C203.242 35.7148 201.91 36.3672 200.895 37.6719C199.879 38.9766 199.371 40.9258 199.371 43.5195C199.371 46.3164 199.875 48.3984 200.883 49.7656C201.891 51.125 203.227 51.8047 204.891 51.8047ZM218.906 42.0781C218.328 42.0781 217.828 42.3555 217.406 42.9102C216.984 43.457 216.684 44.3008 216.504 45.4414L220.711 45.0781V44.4805C220.711 43.7305 220.539 43.1445 220.195 42.7227C219.852 42.293 219.422 42.0781 218.906 42.0781ZM219.152 40.5195C220.77 40.5195 222.035 40.9727 222.949 41.8789C223.871 42.7773 224.363 44.043 224.426 45.6758L223.23 46.7656H216.504C216.566 48.0781 216.914 49.0664 217.547 49.7305C218.18 50.3867 219.074 50.7148 220.23 50.7148C220.871 50.7148 221.477 50.6289 222.047 50.457C222.625 50.2773 223.043 50.1016 223.301 49.9297L223.711 49.6367L224.309 50.2344C224.262 50.3125 224.191 50.4219 224.098 50.5625C224.012 50.7031 223.801 50.9453 223.465 51.2891C223.129 51.6328 222.77 51.9375 222.387 52.2031C222.004 52.4609 221.488 52.6992 220.84 52.918C220.191 53.1289 219.508 53.2344 218.789 53.2344C217.047 53.2344 215.59 52.6523 214.418 51.4883C213.254 50.3164 212.672 48.8594 212.672 47.1172C212.672 45.2578 213.301 43.6953 214.559 42.4297C215.816 41.1562 217.348 40.5195 219.152 40.5195ZM218.906 38.9609H218.062V37.8828L220.594 34.5195H222.867V36.3242L218.906 38.9609ZM230.777 33.5586V49.8828C230.777 50.7656 230.887 51.3477 231.105 51.6289C231.332 51.9023 231.781 52.0391 232.453 52.0391V53H225.492V52.0391L227.18 51.6758V37.7656C227.18 36.8359 227.055 36.2031 226.805 35.8672C226.555 35.5312 226.117 35.3633 225.492 35.3633V34.4023C226.273 34.3711 227.105 34.2852 227.988 34.1445C228.871 33.9961 229.562 33.8672 230.062 33.7578L230.777 33.5586ZM238.594 40.4023V49.8828C238.594 50.7656 238.703 51.3477 238.922 51.6289C239.148 51.9023 239.598 52.0391 240.27 52.0391V53H233.309V52.0391L234.984 51.6758V44.5977C234.984 43.668 234.859 43.0352 234.609 42.6992C234.367 42.3633 233.934 42.1953 233.309 42.1953V41.2344C234.16 41.2031 235.023 41.1172 235.898 40.9766C236.781 40.8359 237.453 40.6992 237.914 40.5664L238.594 40.4023ZM238.148 35.0938C238.523 35.4766 238.711 35.9648 238.711 36.5586C238.711 37.1523 238.523 37.6406 238.148 38.0234C237.773 38.4062 237.281 38.5977 236.672 38.5977C236.062 38.5977 235.57 38.4062 235.195 38.0234C234.82 37.6406 234.633 37.1523 234.633 36.5586C234.633 35.9648 234.82 35.4766 235.195 35.0938C235.57 34.7109 236.062 34.5195 236.672 34.5195C237.281 34.5195 237.773 34.7109 238.148 35.0938ZM254.438 45.3242V49.8828C254.438 50.7656 254.547 51.3477 254.766 51.6289C254.992 51.9023 255.441 52.0391 256.113 52.0391V53H249.152V52.0391L250.828 51.6758V45.5586C250.828 43.957 250.148 43.1562 248.789 43.1562C248.406 43.1562 248.016 43.2461 247.617 43.4258C247.219 43.5977 246.914 43.7812 246.703 43.9766L246.398 44.2344V49.8828C246.398 50.7656 246.508 51.3477 246.727 51.6289C246.953 51.9023 247.402 52.0391 248.074 52.0391V53H241.113V52.0391L242.789 51.6758V44.5977C242.789 43.668 242.664 43.0352 242.414 42.6992C242.172 42.3633 241.738 42.1953 241.113 42.1953V41.2344C241.816 41.2031 242.559 41.1289 243.34 41.0117C244.129 40.8945 244.73 40.7773 245.145 40.6602L245.789 40.5195L246.035 42.8047H246.27C246.316 42.7422 246.379 42.6602 246.457 42.5586C246.543 42.4492 246.723 42.2656 246.996 42.0078C247.27 41.75 247.555 41.5234 247.852 41.3281C248.156 41.125 248.543 40.9414 249.012 40.7773C249.488 40.6055 249.977 40.5195 250.477 40.5195C251.664 40.5195 252.621 40.9414 253.348 41.7852C254.074 42.6211 254.438 43.8008 254.438 45.3242ZM263.555 42.0781C262.977 42.0781 262.477 42.3555 262.055 42.9102C261.633 43.457 261.332 44.3008 261.152 45.4414L265.359 45.0781V44.4805C265.359 43.7305 265.188 43.1445 264.844 42.7227C264.5 42.293 264.07 42.0781 263.555 42.0781ZM263.801 40.5195C265.418 40.5195 266.684 40.9727 267.598 41.8789C268.52 42.7773 269.012 44.043 269.074 45.6758L267.879 46.7656H261.152C261.215 48.0781 261.562 49.0664 262.195 49.7305C262.828 50.3867 263.723 50.7148 264.879 50.7148C265.52 50.7148 266.125 50.6289 266.695 50.457C267.273 50.2773 267.691 50.1016 267.949 49.9297L268.359 49.6367L268.957 50.2344C268.91 50.3125 268.84 50.4219 268.746 50.5625C268.66 50.7031 268.449 50.9453 268.113 51.2891C267.777 51.6328 267.418 51.9375 267.035 52.2031C266.652 52.4609 266.137 52.6992 265.488 52.918C264.84 53.1289 264.156 53.2344 263.438 53.2344C261.695 53.2344 260.238 52.6523 259.066 51.4883C257.902 50.3164 257.32 48.8594 257.32 47.1172C257.32 45.2578 257.949 43.6953 259.207 42.4297C260.465 41.1562 261.996 40.5195 263.801 40.5195Z" fill="white"/>
</svg>
