<svg width="142" height="26" viewBox="0 0 142 26" fill="none" xmlns="http://www.w3.org/2000/svg">
<path d="M18.8115 23.6523L18.9262 24.139L19.4892 24.0064L19.2765 23.4685L18.8115 23.6523ZM16.2627 17.207L16.7277 17.0232L16.6026 16.707H16.2627V17.207ZM7.70801 17.207V16.707H7.36167L7.23992 17.0313L7.70801 17.207ZM6.36035 20.7959L6.81959 20.9936L6.82428 20.9828L6.82844 20.9717L6.36035 20.7959ZM7.86914 24.1064H8.36914V23.6064H7.86914V24.1064ZM7.86914 25V25.5H8.36914V25H7.86914ZM0.969727 25H0.469727V25.5H0.969727V25ZM0.969727 24.2529L0.855051 23.7663L0.469727 23.8571V24.2529H0.969727ZM3.51855 23.6523L3.63323 24.139L3.89144 24.0782L3.98583 23.8303L3.51855 23.6523ZM11.9121 1.60645V1.10645H11.5675L11.4448 1.42854L11.9121 1.60645ZM13.2598 1.60645L13.7262 1.42624L13.6026 1.10645H13.2598V1.60645ZM20.9062 21.3965L21.3733 21.2179L21.3726 21.2163L20.9062 21.3965ZM22.1807 23.5059L21.8513 23.8822L21.8598 23.8893L22.1807 23.5059ZM24.2168 24.1064H24.7168V23.6064H24.2168V24.1064ZM24.2168 25V25.5H24.7168V25H24.2168ZM16.2627 25H15.7627V25.5H16.2627V25ZM16.2627 24.2529L16.148 23.7663L15.7627 23.8571V24.2529H16.2627ZM12.0586 5.7959L12.527 5.62109L12.0586 4.3658L11.5901 5.62109L12.0586 5.7959ZM8.30859 15.8447L7.84015 15.6699L7.58832 16.3447H8.30859V15.8447ZM15.8086 15.8447V16.3447H16.5289L16.277 15.6699L15.8086 15.8447ZM19.2765 23.4685L16.7277 17.0232L15.7977 17.3909L18.3466 23.8362L19.2765 23.4685ZM16.2627 16.707H7.70801V17.707H16.2627V16.707ZM7.23992 17.0313L5.89227 20.6201L6.82844 20.9717L8.17609 17.3828L7.23992 17.0313ZM5.90111 20.5982C5.57884 21.3467 5.40625 22.064 5.40625 22.7441H6.40625C6.40625 22.2328 6.5364 21.6514 6.81959 20.9936L5.90111 20.5982ZM5.40625 22.7441C5.40625 23.3168 5.59528 23.8242 6.04149 24.1663L6.64992 23.3727C6.51019 23.2656 6.40625 23.0895 6.40625 22.7441H5.40625ZM6.04149 24.1663C6.4729 24.4971 7.12575 24.6064 7.86914 24.6064V23.6064C7.16722 23.6064 6.80445 23.4912 6.64992 23.3727L6.04149 24.1663ZM7.36914 24.1064V25H8.36914V24.1064H7.36914ZM7.86914 24.5H0.969727V25.5H7.86914V24.5ZM1.46973 25V24.2529H0.469727V25H1.46973ZM1.0844 24.7396L3.63323 24.139L3.40388 23.1657L0.855051 23.7663L1.0844 24.7396ZM3.98583 23.8303L12.3794 1.78435L11.4448 1.42854L3.05128 23.4744L3.98583 23.8303ZM11.9121 2.10645H13.2598V1.10645H11.9121V2.10645ZM12.7934 1.78665L20.4399 21.5767L21.3726 21.2163L13.7262 1.42624L12.7934 1.78665ZM20.4392 21.5751C20.8311 22.6001 21.2921 23.3927 21.8514 23.8821L22.5099 23.1296C22.1317 22.7987 21.7431 22.1851 21.3733 21.2179L20.4392 21.5751ZM21.8598 23.8893C22.4589 24.3906 23.2679 24.6064 24.2168 24.6064V23.6064C23.4079 23.6064 22.8594 23.4219 22.5015 23.1224L21.8598 23.8893ZM23.7168 24.1064V25H24.7168V24.1064H23.7168ZM24.2168 24.5H16.2627V25.5H24.2168V24.5ZM16.7627 25V24.2529H15.7627V25H16.7627ZM16.3774 24.7396L18.9262 24.139L18.6968 23.1657L16.148 23.7663L16.3774 24.7396ZM11.5901 5.62109L7.84015 15.6699L8.77704 16.0195L12.527 5.97071L11.5901 5.62109ZM8.30859 16.3447H15.8086V15.3447H8.30859V16.3447ZM16.277 15.6699L12.527 5.62109L11.5901 5.97071L15.3401 16.0195L16.277 15.6699ZM25.4033 1.89941V1.39941H24.9033V1.89941H25.4033ZM39.876 3.58398L39.5692 3.97882L39.5722 3.98109L39.876 3.58398ZM40.1104 12.3438L40.4324 12.7262L40.4341 12.7248L40.1104 12.3438ZM35.1592 14.3506L35.0987 13.8543L34.2357 13.9595L34.7606 14.6525L35.1592 14.3506ZM42.2051 23.6523L41.8065 23.9542L41.9175 24.1007L42.0969 24.1405L42.2051 23.6523ZM44.915 24.2529H45.415V23.8516L45.0232 23.7648L44.915 24.2529ZM44.915 25V25.5H45.415V25H44.915ZM39.8027 25L39.399 25.295L39.5489 25.5H39.8027V25ZM32.127 14.4971L32.5306 14.202L32.3808 13.9971H32.127V14.4971ZM30.6621 14.4971V13.9971H30.1621V14.4971H30.6621ZM31.1309 23.5498L30.7484 23.8719L30.7533 23.8776L31.1309 23.5498ZM33.2109 24.1064H33.7109V23.6064H33.2109V24.1064ZM33.2109 25V25.5H33.7109V25H33.2109ZM25.4033 25H24.9033V25.5H25.4033V25ZM25.4033 24.2529L25.2886 23.7663L24.9033 23.8571V24.2529H25.4033ZM27.9521 23.6523L28.0668 24.139L28.4521 24.0482V23.6523H27.9521ZM27.4688 3.33496L27.0905 3.66208L27.0956 3.66777L27.4688 3.33496ZM25.4033 2.79297H24.9033V3.29297H25.4033V2.79297ZM30.6621 3.24707V2.74707H30.1621V3.24707H30.6621ZM30.6621 13.1494H30.1621V13.6494H30.6621V13.1494ZM37.4004 4.56543L37.0696 4.94035L37.0714 4.94194L37.4004 4.56543ZM25.4033 2.39941H33.5039V1.39941H25.4033V2.39941ZM33.5039 2.39941C36.2514 2.39941 38.2474 2.95171 39.5692 3.9788L40.1828 3.18916C38.614 1.97016 36.3619 1.39941 33.5039 1.39941V2.39941ZM39.5722 3.98109C40.9089 5.0038 41.5586 6.29991 41.5586 7.90527H42.5586C42.5586 5.97548 41.7533 4.39073 40.1798 3.18688L39.5722 3.98109ZM41.5586 7.90527C41.5586 9.62875 40.9629 10.9633 39.7866 11.9627L40.4341 12.7248C41.8555 11.5171 42.5586 9.89273 42.5586 7.90527H41.5586ZM39.7883 11.9613C38.5767 12.9816 37.0226 13.6196 35.0987 13.8543L35.2197 14.8469C37.2997 14.5933 39.0463 13.8934 40.4324 12.7262L39.7883 11.9613ZM34.7606 14.6525L41.8065 23.9542L42.6036 23.3504L35.5577 14.0487L34.7606 14.6525ZM42.0969 24.1405L44.8069 24.7411L45.0232 23.7648L42.3133 23.1642L42.0969 24.1405ZM44.415 24.2529V25H45.415V24.2529H44.415ZM44.915 24.5H39.8027V25.5H44.915V24.5ZM40.2064 24.705L32.5306 14.202L31.7233 14.7921L39.399 25.295L40.2064 24.705ZM32.127 13.9971H30.6621V14.9971H32.127V13.9971ZM30.1621 14.4971V21.1035H31.1621V14.4971H30.1621ZM30.1621 21.1035C30.1621 21.7506 30.202 22.3038 30.2882 22.754C30.3724 23.1935 30.5107 23.5896 30.7484 23.8719L31.5133 23.2277C31.4385 23.1389 31.3424 22.9418 31.2704 22.5658C31.2004 22.2006 31.1621 21.7162 31.1621 21.1035H30.1621ZM30.7533 23.8776C31.0036 24.1658 31.3624 24.343 31.7633 24.4503C32.1672 24.5584 32.6539 24.6064 33.2109 24.6064V23.6064C32.7035 23.6064 32.3114 23.5618 32.0218 23.4843C31.7294 23.406 31.5804 23.3049 31.5084 23.222L30.7533 23.8776ZM32.7109 24.1064V25H33.7109V24.1064H32.7109ZM33.2109 24.5H25.4033V25.5H33.2109V24.5ZM25.9033 25V24.2529H24.9033V25H25.9033ZM25.518 24.7396L28.0668 24.139L27.8375 23.1657L25.2886 23.7663L25.518 24.7396ZM28.4521 23.6523V5.7959H27.4521V23.6523H28.4521ZM28.4521 5.7959C28.4521 5.13898 28.4111 4.57871 28.3219 4.12482C28.2351 3.68266 28.0917 3.28222 27.8419 3.00215L27.0956 3.66777C27.1681 3.74903 27.2664 3.93941 27.3407 4.31756C27.4126 4.68398 27.4521 5.17352 27.4521 5.7959H28.4521ZM27.8469 3.00788C27.5996 2.72189 27.2417 2.54895 26.8449 2.44484C26.4443 2.3397 25.9595 2.29297 25.4033 2.29297V3.29297C25.9116 3.29297 26.3033 3.33657 26.5911 3.41209C26.8828 3.48865 27.0254 3.5867 27.0906 3.66204L27.8469 3.00788ZM25.9033 2.79297V1.89941H24.9033V2.79297H25.9033ZM30.1621 3.24707V13.1494H31.1621V3.24707H30.1621ZM30.6621 13.6494H33.0645V12.6494H30.6621V13.6494ZM33.0645 13.6494C35.0384 13.6494 36.6257 13.1944 37.7458 12.206L37.0842 11.4561C36.2122 12.2256 34.8991 12.6494 33.0645 12.6494V13.6494ZM37.7458 12.206C38.8673 11.2165 39.4092 9.8591 39.4092 8.19824H38.4092C38.4092 9.62332 37.955 10.6878 37.0842 11.4561L37.7458 12.206ZM39.4092 8.19824C39.4092 6.53576 38.8613 5.17795 37.7294 4.18891L37.0714 4.94194C37.9512 5.71073 38.4092 6.77479 38.4092 8.19824H39.4092ZM37.7312 4.19051C36.6115 3.20249 35.0294 2.74707 33.0645 2.74707V3.74707C34.8885 3.74707 36.1971 4.17055 37.0696 4.94035L37.7312 4.19051ZM33.0645 2.74707H30.6621V3.74707H33.0645V2.74707ZM45.6621 8.34473H45.1621V8.84473H45.6621V8.34473ZM45.6621 1.89941V1.39941H45.1621V1.89941H45.6621ZM64.2656 1.89941H64.7656V1.39941H64.2656V1.89941ZM64.2656 8.34473V8.84473H64.7656V8.34473H64.2656ZM63.2256 8.34473H62.7256V8.84473H63.2256V8.34473ZM62.3174 4.30176L61.9358 4.625L61.9408 4.63063L62.3174 4.30176ZM56.3115 3.24707V2.74707H55.8115V3.24707H56.3115ZM59.168 24.1064H59.668V23.6064H59.168V24.1064ZM59.168 25V25.5H59.668V25H59.168ZM50.7744 25H50.2744V25.5H50.7744V25ZM50.7744 24.2529L50.671 23.7637L50.2744 23.8476V24.2529H50.7744ZM53.6162 23.6523L53.7196 24.1415L54.1162 24.0577V23.6523H53.6162ZM53.6162 3.24707H54.1162V2.74707H53.6162V3.24707ZM47.6104 4.30176L47.2315 3.97549L47.2289 3.97855L47.6104 4.30176ZM46.7168 8.34473V8.84473H47.2168V8.34473H46.7168ZM46.1621 8.34473V1.89941H45.1621V8.34473H46.1621ZM45.6621 2.39941H64.2656V1.39941H45.6621V2.39941ZM63.7656 1.89941V8.34473H64.7656V1.89941H63.7656ZM64.2656 7.84473H63.2256V8.84473H64.2656V7.84473ZM63.7256 8.34473C63.7256 7.32179 63.6485 6.44483 63.4864 5.72293C63.3252 5.00532 63.0721 4.4059 62.694 3.97288L61.9408 4.63063C62.1681 4.89097 62.3692 5.31206 62.5107 5.94211C62.6513 6.56787 62.7256 7.36571 62.7256 8.34473H63.7256ZM62.6989 3.97855C61.9572 3.10314 60.6667 2.74707 59.0215 2.74707V3.74707C60.5794 3.74707 61.4862 4.09413 61.9359 4.62497L62.6989 3.97855ZM59.0215 2.74707H56.3115V3.74707H59.0215V2.74707ZM55.8115 3.24707V21.1035H56.8115V3.24707H55.8115ZM55.8115 21.1035C55.8115 21.7621 55.8564 22.3255 55.9545 22.783C56.0504 23.2305 56.2088 23.6339 56.4805 23.9131L57.1972 23.2158C57.1174 23.1337 57.0121 22.9462 56.9323 22.5735C56.8545 22.2107 56.8115 21.7242 56.8115 21.1035H55.8115ZM56.4805 23.9131C56.7514 24.1915 57.1397 24.3574 57.5715 24.4579C58.0105 24.5601 58.5464 24.6064 59.168 24.6064V23.6064C58.5884 23.6064 58.1355 23.5625 57.7981 23.484C57.4536 23.4038 57.2779 23.2987 57.1972 23.2158L56.4805 23.9131ZM58.668 24.1064V25H59.668V24.1064H58.668ZM59.168 24.5H50.7744V25.5H59.168V24.5ZM51.2744 25V24.2529H50.2744V25H51.2744ZM50.8778 24.7421L53.7196 24.1415L53.5128 23.1631L50.671 23.7637L50.8778 24.7421ZM54.1162 23.6523V3.24707H53.1162V23.6523H54.1162ZM53.6162 2.74707H50.9209V3.74707H53.6162V2.74707ZM50.9209 2.74707C49.2745 2.74707 47.9822 3.10363 47.2315 3.9755L47.9892 4.62802C48.4494 4.09363 49.3642 3.74707 50.9209 3.74707V2.74707ZM47.2289 3.97855C46.8588 4.41538 46.6104 5.01506 46.452 5.73194C46.2926 6.453 46.2168 7.32684 46.2168 8.34473H47.2168C47.2168 7.37043 47.2899 6.57435 47.4284 5.94775C47.5678 5.31697 47.7662 4.89126 47.9918 4.62497L47.2289 3.97855ZM46.7168 7.84473H45.6621V8.84473H46.7168V7.84473ZM71.9121 3.24707L71.7974 2.7604L71.4121 2.85119V3.24707H71.9121ZM72.3809 23.5498L71.9984 23.8719L72.0033 23.8776L72.3809 23.5498ZM74.4609 24.1064H74.9609V23.6064H74.4609V24.1064ZM74.4609 25V25.5H74.9609V25H74.4609ZM66.6533 25H66.1533V25.5H66.6533V25ZM66.6533 24.2529L66.5386 23.7663L66.1533 23.8571V24.2529H66.6533ZM69.2021 23.6523L69.3168 24.139L69.7021 24.0482V23.6523H69.2021ZM68.7188 3.34961L68.3363 3.67171L68.3412 3.67745L68.7188 3.34961ZM66.6533 2.79297H66.1533V3.29297H66.6533V2.79297ZM66.6533 1.89941V1.39941H66.1533V1.89941H66.6533ZM74.4609 1.89941H74.9609V1.39941H74.4609V1.89941ZM74.4609 2.64648L74.5756 3.13316L74.9609 3.04236V2.64648H74.4609ZM71.4121 3.24707V21.1035H72.4121V3.24707H71.4121ZM71.4121 21.1035C71.4121 21.7506 71.452 22.3038 71.5382 22.754C71.6224 23.1935 71.7607 23.5896 71.9984 23.8719L72.7633 23.2277C72.6885 23.1389 72.5924 22.9418 72.5204 22.5658C72.4504 22.2006 72.4121 21.7162 72.4121 21.1035H71.4121ZM72.0033 23.8776C72.2536 24.1658 72.6124 24.343 73.0133 24.4503C73.4172 24.5584 73.9039 24.6064 74.4609 24.6064V23.6064C73.9535 23.6064 73.5614 23.5618 73.2718 23.4843C72.9794 23.406 72.8304 23.3049 72.7584 23.222L72.0033 23.8776ZM73.9609 24.1064V25H74.9609V24.1064H73.9609ZM74.4609 24.5H66.6533V25.5H74.4609V24.5ZM67.1533 25V24.2529H66.1533V25H67.1533ZM66.768 24.7396L69.3168 24.139L69.0875 23.1657L66.5386 23.7663L66.768 24.7396ZM69.7021 23.6523V5.7959H68.7021V23.6523H69.7021ZM69.7021 5.7959C69.7021 5.14828 69.661 4.59404 69.5718 4.14257C69.4846 3.7014 69.3414 3.30407 69.0963 3.02177L68.3412 3.67745C68.4183 3.76624 68.5168 3.96217 68.5908 4.33643C68.6627 4.70039 68.7021 5.18375 68.7021 5.7959H69.7021ZM69.1012 3.02754C68.855 2.73514 68.4969 2.55684 68.0981 2.44935C67.6962 2.34102 67.2102 2.29297 66.6533 2.29297V3.29297C67.1609 3.29297 67.5514 3.33769 67.8379 3.4149C68.1276 3.49297 68.27 3.59299 68.3363 3.67168L69.1012 3.02754ZM67.1533 2.79297V1.89941H66.1533V2.79297H67.1533ZM66.6533 2.39941H74.4609V1.39941H66.6533V2.39941ZM73.9609 1.89941V2.64648H74.9609V1.89941H73.9609ZM74.3463 2.15981L71.7974 2.7604L72.0268 3.73374L74.5756 3.13316L74.3463 2.15981ZM83.1035 5.51758L82.7245 5.19151L82.7243 5.19168L83.1035 5.51758ZM83.0449 21.2646L82.6543 21.5768L82.6553 21.578L83.0449 21.2646ZM91.2773 23.9307L91.3574 24.4242L91.3627 24.4233L91.2773 23.9307ZM92.8008 23.5645L92.992 24.0265L93.0116 24.0183L93.0305 24.0086L92.8008 23.5645ZM93.2256 23.3447L93.4553 23.7888L93.7256 23.649V23.3447H93.2256ZM92.6543 15.3467L92.3101 15.7094L92.3152 15.7141L92.6543 15.3467ZM90.0762 14.8047H89.5762V15.3047H90.0762V14.8047ZM90.0762 13.8965V13.3965H89.5762V13.8965H90.0762ZM97.8691 13.8965H98.3691V13.3965H97.8691V13.8965ZM97.8691 14.8047L97.9792 15.2924L98.3691 15.2045V14.8047H97.8691ZM95.9209 15.2441L95.8109 14.7564L95.4209 14.8444V15.2441H95.9209ZM95.9209 23.6523L96.2076 24.062L96.4209 23.9127V23.6523H95.9209ZM95.042 24.165L95.2656 24.6123L95.2744 24.6077L95.042 24.165ZM92.4932 24.9561L92.3702 24.4714L92.3693 24.4716L92.4932 24.9561ZM80.7451 22.1582L80.3813 22.5011L80.382 22.5019L80.7451 22.1582ZM81.082 4.97559L80.7255 4.625L80.7248 4.62576L81.082 4.97559ZM92.9033 1.79688L92.7958 2.28521L92.801 2.28629L92.9033 1.79688ZM95.291 2.4707L95.0919 2.92943L95.0993 2.9325L95.291 2.4707ZM96.0674 2.79297H96.5674V2.45915L96.2591 2.33117L96.0674 2.79297ZM96.0674 8.50586V9.00586H96.5674V8.50586H96.0674ZM95.3203 8.50586L94.8265 8.58436L94.8935 9.00586H95.3203V8.50586ZM89.168 2.29297C86.5477 2.29297 84.3857 3.2603 82.7245 5.19151L83.4826 5.84364C84.9463 4.14204 86.8273 3.29297 89.168 3.29297V2.29297ZM82.7243 5.19168C81.0686 7.11817 80.2744 9.79366 80.2744 13.1494H81.2744C81.2744 9.94267 82.033 7.53027 83.4827 5.84348L82.7243 5.19168ZM80.2744 13.1494C80.2744 16.729 81.0441 19.5614 82.6543 21.5767L83.4356 20.9525C82.0184 19.1788 81.2744 16.6011 81.2744 13.1494H80.2744ZM82.6553 21.578C84.2705 23.5866 86.3553 24.6064 88.875 24.6064V23.6064C86.6681 23.6064 84.8663 22.7318 83.4346 20.9513L82.6553 21.578ZM88.875 24.6064C89.7756 24.6064 90.6036 24.5464 91.3574 24.4242L91.1973 23.4371C90.5057 23.5493 89.7322 23.6064 88.875 23.6064V24.6064ZM91.3627 24.4233C92.0947 24.2964 92.6521 24.1671 92.992 24.0265L92.6096 23.1024C92.383 23.1962 91.9249 23.311 91.1919 23.438L91.3627 24.4233ZM93.0305 24.0086L93.4553 23.7888L92.9959 22.9006L92.5711 23.1203L93.0305 24.0086ZM93.7256 23.3447V17.793H92.7256V23.3447H93.7256ZM93.7256 17.793C93.7256 17.1329 93.6769 16.5673 93.5697 16.1082C93.4645 15.6578 93.29 15.253 92.9934 14.9793L92.3152 15.7141C92.3995 15.7919 92.5106 15.9706 92.5959 16.3356C92.6791 16.692 92.7256 17.1738 92.7256 17.793H93.7256ZM92.9984 14.9839C92.7096 14.7099 92.293 14.5488 91.827 14.4509C91.3508 14.3508 90.7637 14.3047 90.0762 14.3047V15.3047C90.7265 15.3047 91.2381 15.3489 91.6213 15.4295C92.0146 15.5122 92.2181 15.6221 92.3102 15.7094L92.9984 14.9839ZM90.5762 14.8047V13.8965H89.5762V14.8047H90.5762ZM90.0762 14.3965H97.8691V13.3965H90.0762V14.3965ZM97.3691 13.8965V14.8047H98.3691V13.8965H97.3691ZM97.7591 14.3169L95.8109 14.7564L96.0309 15.7319L97.9792 15.2924L97.7591 14.3169ZM95.4209 15.2441V23.6523H96.4209V15.2441H95.4209ZM95.6342 23.2427C95.4651 23.3611 95.1943 23.5203 94.8096 23.7223L95.2744 24.6077C95.6709 24.3996 95.9861 24.217 96.2076 24.062L95.6342 23.2427ZM94.8184 23.7178C94.4845 23.8848 93.689 24.1368 92.3702 24.4714L92.6161 25.4407C93.9145 25.1112 94.8183 24.8359 95.2656 24.6123L94.8184 23.7178ZM92.3693 24.4716C91.1132 24.7928 89.7975 24.9541 88.4209 24.9541V25.9541C89.8763 25.9541 91.2755 25.7834 92.617 25.4405L92.3693 24.4716ZM88.4209 24.9541C85.5206 24.9541 83.0935 23.9116 81.1082 21.8145L80.382 22.5019C82.5569 24.7994 85.247 25.9541 88.4209 25.9541V24.9541ZM81.109 21.8153C79.1271 19.7125 78.125 17.0376 78.125 13.75H77.125C77.125 17.2593 78.2029 20.1899 80.3813 22.5011L81.109 21.8153ZM78.125 13.75C78.125 10.3758 79.2321 7.57933 81.4393 5.32541L80.7248 4.62576C78.3226 7.07888 77.125 10.132 77.125 13.75H78.125ZM81.4385 5.32617C83.6565 3.07075 86.3737 1.94531 89.6221 1.94531V0.945312C86.1127 0.945312 83.1365 2.1734 80.7255 4.625L81.4385 5.32617ZM89.6221 1.94531C90.7101 1.94531 91.7677 2.05881 92.7958 2.28518L93.0108 1.30857C91.91 1.06619 90.7802 0.945312 89.6221 0.945312V1.94531ZM92.801 2.28629C93.8669 2.50917 94.6224 2.7256 95.092 2.92938L95.4901 2.01203C94.9245 1.76659 94.0882 1.5338 93.0057 1.30746L92.801 2.28629ZM95.0993 2.9325L95.8757 3.25476L96.2591 2.33117L95.4827 2.00891L95.0993 2.9325ZM95.5674 2.79297V8.50586H96.5674V2.79297H95.5674ZM96.0674 8.00586H95.3203V9.00586H96.0674V8.00586ZM95.8141 8.42736C95.5004 6.45381 94.8018 4.90724 93.6684 3.85479C92.5289 2.79676 91.0094 2.29297 89.168 2.29297V3.29297C90.8227 3.29297 92.0765 3.74133 92.9879 4.58759C93.9053 5.43944 94.5348 6.74931 94.8265 8.58436L95.8141 8.42736ZM119.651 4.72656L119.28 5.06141L119.282 5.06315L119.651 4.72656ZM119.329 21.9824L119.692 22.3267L119.692 22.3259L119.329 21.9824ZM103.992 22.1875L103.621 22.5224L103.622 22.5241L103.992 22.1875ZM104.329 4.93164L104.692 5.2759L104.692 5.27513L104.329 4.93164ZM117.337 5.60547L116.938 5.9068L116.94 5.90912L117.337 5.60547ZM106.365 5.48828L105.978 5.17235L105.978 5.17259L106.365 5.48828ZM106.307 21.3086L105.908 21.6099L105.908 21.6109L106.307 21.3086ZM117.278 21.4258L116.891 21.1099L116.891 21.1101L117.278 21.4258ZM112.43 1.94531C115.124 1.94531 117.398 2.97469 119.28 5.06141L120.023 4.39171C117.959 2.10344 115.419 0.945312 112.43 0.945312V1.94531ZM119.282 5.06315C121.166 7.13364 122.125 9.81425 122.125 13.1494H123.125C123.125 9.60958 122.101 6.67495 120.021 4.38998L119.282 5.06315ZM122.125 13.1494C122.125 16.602 121.065 19.4185 118.966 21.6389L119.692 22.3259C121.988 19.8979 123.125 16.8258 123.125 13.1494H122.125ZM118.966 21.6382C116.864 23.8528 114.295 24.9541 111.229 24.9541V25.9541C114.568 25.9541 117.4 24.741 119.692 22.3267L118.966 21.6382ZM111.229 24.9541C108.533 24.9541 106.254 23.9288 104.362 21.8509L103.622 22.5241C105.696 24.8016 108.24 25.9541 111.229 25.9541V24.9541ZM104.364 21.8527C102.487 19.7721 101.533 17.0858 101.533 13.75H100.533C100.533 17.2892 101.552 20.2279 103.621 22.5223L104.364 21.8527ZM101.533 13.75C101.533 10.2974 102.593 7.48628 104.692 5.2759L103.966 4.58739C101.67 7.00591 100.533 10.0737 100.533 13.75H101.533ZM104.692 5.27513C106.795 3.05098 109.364 1.94531 112.43 1.94531V0.945312C109.089 0.945312 106.258 2.16386 103.966 4.58815L104.692 5.27513ZM119.976 13.75C119.976 10.1297 119.253 7.28911 117.734 5.30182L116.94 5.90912C118.272 7.6523 118.976 10.2414 118.976 13.75H119.976ZM117.736 5.30414C116.235 3.31685 114.306 2.29297 111.976 2.29297V3.29297C113.962 3.29297 115.607 4.14409 116.938 5.9068L117.736 5.30414ZM111.976 2.29297C109.547 2.29297 107.535 3.26155 105.978 5.17235L106.753 5.80421C108.125 4.12126 109.854 3.29297 111.976 3.29297V2.29297ZM105.978 5.17259C104.424 7.08088 103.683 9.76353 103.683 13.1494H104.683C104.683 9.89468 105.397 7.46991 106.753 5.80398L105.978 5.17259ZM103.683 13.1494C103.683 16.7694 104.4 19.6136 105.908 21.6099L106.706 21.0073C105.381 19.2536 104.683 16.6584 104.683 13.1494H103.683ZM105.908 21.6109C107.41 23.5891 109.344 24.6064 111.683 24.6064V23.6064C109.685 23.6064 108.035 22.7585 106.705 21.0063L105.908 21.6109ZM111.683 24.6064C114.111 24.6064 116.117 23.6435 117.666 21.7415L116.891 21.1101C115.529 22.7823 113.805 23.6064 111.683 23.6064V24.6064ZM117.666 21.7417C119.229 19.8241 119.976 17.1368 119.976 13.75H118.976C118.976 17.0038 118.257 19.4338 116.891 21.1099L117.666 21.7417ZM137.64 17.793L137.245 18.1003L137.25 18.1059L137.64 17.793ZM135.428 15.918L135.18 16.3521L135.183 16.3541L135.428 15.918ZM132.527 14.2773L132.278 14.7107L132.283 14.7135L132.527 14.2773ZM129.627 12.5488L129.362 12.9726L129.364 12.9739L129.627 12.5488ZM136.702 1.79688L136.591 2.28433L136.596 2.2855L136.702 1.79688ZM139.075 2.4707L138.885 2.93323L138.889 2.93494L139.075 2.4707ZM139.881 2.79297H140.381V2.45445L140.067 2.32873L139.881 2.79297ZM139.881 8.19824V8.69824H140.381V8.19824H139.881ZM139.134 8.19824L138.638 8.26232L138.694 8.69824H139.134V8.19824ZM137.347 4.19922L136.999 4.55817L137 4.55999L137.347 4.19922ZM129.744 8.52051L129.329 8.79929L129.331 8.80218L129.744 8.52051ZM131.458 10.1904L131.181 10.6065L131.183 10.6082L131.458 10.1904ZM133.802 11.582L133.564 12.022L133.568 12.024L133.802 11.582ZM138.694 14.5264L138.387 14.9205L138.39 14.9231L138.694 14.5264ZM140.423 16.5332L139.986 16.776L139.987 16.7783L140.423 16.5332ZM139.002 23.6963L138.679 23.3144L138.678 23.3155L139.002 23.6963ZM126.858 23.7402L127.162 23.3431L127.154 23.3365L127.145 23.3303L126.858 23.7402ZM126.082 23.1982H125.582V23.459L125.796 23.6082L126.082 23.1982ZM126.082 16.8994V16.3994H125.582V16.8994H126.082ZM126.829 16.8994L127.322 16.8135L127.249 16.3994H126.829V16.8994ZM129.085 22.3926L128.719 22.7334L128.721 22.7351L129.085 22.3926ZM139.033 20.2246C139.033 19.2222 138.69 18.3031 138.03 17.48L137.25 18.1059C137.78 18.7672 138.033 19.4692 138.033 20.2246H139.033ZM138.034 17.4856C137.404 16.6777 136.615 16.0101 135.672 15.4818L135.183 16.3541C136.018 16.8219 136.703 17.4044 137.245 18.1003L138.034 17.4856ZM135.676 15.4838C134.786 14.9753 133.818 14.4277 132.772 13.8412L132.283 14.7135C133.327 15.2988 134.292 15.845 135.18 16.3521L135.676 15.4838ZM132.777 13.844C131.746 13.2506 130.784 12.6772 129.89 12.1238L129.364 12.9739C130.267 13.5337 131.239 14.1126 132.278 14.7107L132.777 13.844ZM129.892 12.1251C129.064 11.6063 128.378 10.9386 127.831 10.1182L126.999 10.6729C127.624 11.6102 128.412 12.3781 129.362 12.9726L129.892 12.1251ZM127.831 10.1182C127.301 9.32364 127.036 8.43919 127.036 7.45117H126.036C126.036 8.63112 126.357 9.70956 126.999 10.6729L127.831 10.1182ZM127.036 7.45117C127.036 5.89982 127.625 4.60933 128.829 3.54907L128.169 2.79858C126.755 4.04301 126.036 5.60408 126.036 7.45117H127.036ZM128.829 3.54907C130.026 2.49571 131.641 1.94531 133.729 1.94531V0.945312C131.461 0.945312 129.59 1.54726 128.169 2.79858L128.829 3.54907ZM133.729 1.94531C134.645 1.94531 135.598 2.05747 136.591 2.2843L136.814 1.30945C135.755 1.06753 134.727 0.945312 133.729 0.945312V1.94531ZM136.596 2.2855C137.621 2.50794 138.379 2.72522 138.885 2.93321L139.265 2.00819C138.678 1.76697 137.853 1.53503 136.808 1.30825L136.596 2.2855ZM138.889 2.93494L139.695 3.25721L140.067 2.32873L139.261 2.00646L138.889 2.93494ZM139.381 2.79297V8.19824H140.381V2.79297H139.381ZM139.881 7.69824H139.134V8.69824H139.881V7.69824ZM139.63 8.13417C139.395 6.31794 138.764 4.86658 137.693 3.83845L137 4.55999C137.863 5.38732 138.423 6.60198 138.638 8.26232L139.63 8.13417ZM137.695 3.84027C136.615 2.79334 135.176 2.29297 133.436 2.29297V3.29297C134.976 3.29297 136.145 3.7301 136.999 4.55817L137.695 3.84027ZM133.436 2.29297C132.026 2.29297 130.843 2.67086 129.939 3.47395L130.604 4.22136C131.282 3.61821 132.208 3.29297 133.436 3.29297V2.29297ZM129.939 3.47395C129.049 4.26525 128.585 5.24778 128.585 6.39648H129.585C129.585 5.553 129.912 4.83631 130.604 4.22136L129.939 3.47395ZM128.585 6.39648C128.585 7.26109 128.836 8.06559 129.329 8.79929L130.159 8.24173C129.773 7.66683 129.585 7.05531 129.585 6.39648H128.585ZM129.331 8.80218C129.81 9.50408 130.429 10.105 131.181 10.6065L131.735 9.7744C131.081 9.33831 130.558 8.826 130.157 8.23884L129.331 8.80218ZM131.183 10.6082C131.91 11.0858 132.703 11.557 133.564 12.0219L134.039 11.1421C133.201 10.6891 132.432 10.2325 131.733 9.77265L131.183 10.6082ZM133.568 12.024C134.414 12.4712 135.259 12.9329 136.105 13.4093L136.596 12.538C135.743 12.0573 134.889 11.5913 134.035 11.14L133.568 12.024ZM136.105 13.4093C136.935 13.8765 137.695 14.3804 138.387 14.9205L139.002 14.1323C138.268 13.5591 137.466 13.0278 136.596 12.538L136.105 13.4093ZM138.39 14.9231C139.048 15.428 139.579 16.0444 139.986 16.776L140.86 16.2904C140.387 15.44 139.766 14.7185 138.999 14.1297L138.39 14.9231ZM139.987 16.7783C140.381 17.4789 140.582 18.2674 140.582 19.1553H141.582C141.582 18.1096 141.343 17.15 140.859 16.2881L139.987 16.7783ZM140.582 19.1553C140.582 20.8673 139.951 22.2399 138.679 23.3144L139.325 24.0782C140.827 22.8089 141.582 21.1542 141.582 19.1553H140.582ZM138.678 23.3155C137.422 24.3844 135.596 24.9541 133.128 24.9541V25.9541C135.738 25.9541 137.828 25.3519 139.326 24.0771L138.678 23.3155ZM133.128 24.9541C131.838 24.9541 130.636 24.7706 129.518 24.4073L129.209 25.3583C130.435 25.7567 131.742 25.9541 133.128 25.9541V24.9541ZM129.518 24.4073C128.358 24.0304 127.59 23.6704 127.162 23.3431L126.555 24.1374C127.123 24.5718 128.025 24.9735 129.209 25.3583L129.518 24.4073ZM127.145 23.3303L126.368 22.7883L125.796 23.6082L126.572 24.1502L127.145 23.3303ZM126.582 23.1982V16.8994H125.582V23.1982H126.582ZM126.082 17.3994H126.829V16.3994H126.082V17.3994ZM126.337 16.9853C126.783 19.5453 127.559 21.4879 128.719 22.7334L129.451 22.0518C128.482 21.0121 127.754 19.2926 127.322 16.8135L126.337 16.9853ZM128.721 22.7351C129.905 23.9949 131.496 24.6064 133.436 24.6064V23.6064C131.723 23.6064 130.413 23.0754 129.449 22.0501L128.721 22.7351ZM133.436 24.6064C135.094 24.6064 136.465 24.2118 137.49 23.3636L136.852 22.5934C136.06 23.2491 134.941 23.6064 133.436 23.6064V24.6064ZM137.49 23.3636C138.501 22.5262 139.033 21.4718 139.033 20.2246H138.033C138.033 21.1454 137.657 21.9269 136.852 22.5934L137.49 23.3636Z" fill="white"/>
</svg>
