<svg width="556" height="98" viewBox="0 0 556 98" fill="none" xmlns="http://www.w3.org/2000/svg">
<path d="M14.5273 89.9219L12.4883 84.7656H5.64453L4.56641 87.6367C4.32422 88.1992 4.20312 88.7188 4.20312 89.1953C4.20312 89.5625 4.32031 89.8359 4.55469 90.0156C4.78906 90.1953 5.19531 90.2852 5.77344 90.2852V91H0.253906V90.4023L2.29297 89.9219L9.00781 72.2852H10.0859L16.2031 88.1172C16.5078 88.9141 16.8477 89.4766 17.2227 89.8047C17.6055 90.125 18.1484 90.2852 18.8516 90.2852V91H12.4883V90.4023L14.5273 89.9219ZM9.125 75.6367L6.125 83.6758H12.125L9.125 75.6367ZM19.2031 90.4023L20.8906 90.0391V75.2852C20.8906 74.4727 20.7617 73.9102 20.5039 73.5977C20.2461 73.2773 19.8125 73.1172 19.2031 73.1172V72.5195C19.8125 72.457 20.4258 72.3477 21.043 72.1914C21.6602 72.0273 22.1289 71.8828 22.4492 71.7578L22.9297 71.5586V88.5977C22.9297 89.3164 23.043 89.7969 23.2695 90.0391C23.5039 90.2812 23.9492 90.4023 24.6055 90.4023V91H19.2031V90.4023ZM25.8125 90.4023L27.5 90.0391V75.2852C27.5 74.4727 27.3711 73.9102 27.1133 73.5977C26.8555 73.2773 26.4219 73.1172 25.8125 73.1172V72.5195C26.4219 72.457 27.0352 72.3477 27.6523 72.1914C28.2695 72.0273 28.7383 71.8828 29.0586 71.7578L29.5391 71.5586V88.5977C29.5391 89.3164 29.6523 89.7969 29.8789 90.0391C30.1133 90.2812 30.5586 90.4023 31.2148 90.4023V91H25.8125V90.4023ZM32.5391 90.4023L34.2266 90.0391V82.2344C34.2266 81.4219 34.0977 80.8594 33.8398 80.5469C33.582 80.2344 33.1484 80.0781 32.5391 80.0781V79.4805C33.1484 79.418 33.7617 79.3086 34.3789 79.1523C34.9961 78.9883 35.4648 78.8398 35.7852 78.707L36.2656 78.5195V88.5977C36.2656 89.3164 36.3789 89.7969 36.6055 90.0391C36.8398 90.2812 37.2852 90.4023 37.9414 90.4023V91H32.5391V90.4023ZM36.1602 73.3516C36.4727 73.6641 36.6289 74.0273 36.6289 74.4414C36.6289 74.8555 36.4727 75.2188 36.1602 75.5312C35.8477 75.8438 35.4805 76 35.0586 76C34.6445 76 34.2812 75.8438 33.9688 75.5312C33.6562 75.2188 33.5 74.8555 33.5 74.4414C33.5 74.0273 33.6562 73.6641 33.9688 73.3516C34.2812 73.0391 34.6445 72.8828 35.0586 72.8828C35.4805 72.8828 35.8477 73.0391 36.1602 73.3516ZM46.2383 88.2344C46.2383 87.8047 46.0117 87.4062 45.5586 87.0391C45.1133 86.6719 44.5742 86.3438 43.9414 86.0547C43.3086 85.7656 42.6758 85.457 42.043 85.1289C41.4102 84.8008 40.8711 84.3711 40.4258 83.8398C39.9805 83.3008 39.7578 82.6875 39.7578 82C39.7578 81.0547 40.125 80.2812 40.8594 79.6797C41.5938 79.0703 42.625 78.7656 43.9531 78.7656C44.5312 78.7656 45.0781 78.8242 45.5938 78.9414C46.1172 79.0586 46.5 79.1758 46.7422 79.293L47.0703 79.4805V82.3633H46.4727C46.3477 81.4492 46.0625 80.7812 45.6172 80.3594C45.1797 79.9297 44.5469 79.7148 43.7188 79.7148C42.9688 79.7148 42.3984 79.8672 42.0078 80.1719C41.625 80.4766 41.4336 80.8867 41.4336 81.4023C41.4336 81.8633 41.6562 82.2773 42.1016 82.6445C42.5547 83.0117 43.0938 83.3398 43.7188 83.6289C44.3516 83.918 44.9844 84.2227 45.6172 84.543C46.25 84.8633 46.7891 85.2891 47.2344 85.8203C47.6875 86.3438 47.9141 86.9414 47.9141 87.6133C47.9141 88.7305 47.5195 89.6133 46.7305 90.2617C45.9492 90.9102 44.8242 91.2344 43.3555 91.2344C42.7461 91.2344 42.1328 91.1484 41.5156 90.9766C40.8984 90.7969 40.4297 90.6133 40.1094 90.4258L39.6289 90.1562V87.0391H40.2383C40.4805 88.1875 40.8594 89.0156 41.375 89.5234C41.8906 90.0312 42.6289 90.2852 43.5898 90.2852C44.457 90.2852 45.1133 90.1016 45.5586 89.7344C46.0117 89.3594 46.2383 88.8594 46.2383 88.2344ZM61.9648 84.7656C61.9648 86.6719 61.375 88.2266 60.1953 89.4297C59.0234 90.6328 57.5312 91.2344 55.7188 91.2344C54.0859 91.2344 52.7383 90.6797 51.6758 89.5703C50.6133 88.4609 50.082 87.0156 50.082 85.2344C50.082 83.3281 50.668 81.7734 51.8398 80.5703C53.0195 79.3672 54.5156 78.7656 56.3281 78.7656C57.9609 78.7656 59.3086 79.3242 60.3711 80.4414C61.4336 81.5508 61.9648 82.9922 61.9648 84.7656ZM53.293 81.0977C52.5898 82.0195 52.2383 83.3203 52.2383 85C52.2383 86.6797 52.5977 87.9805 53.3164 88.9023C54.043 89.8242 54.9648 90.2852 56.082 90.2852C57.1523 90.2852 58.0391 89.8242 58.7422 88.9023C59.4531 87.9805 59.8086 86.6797 59.8086 85C59.8086 83.3203 59.4453 82.0195 58.7188 81.0977C58 80.1758 57.082 79.7148 55.9648 79.7148C54.8945 79.7148 54.0039 80.1758 53.293 81.0977ZM63.7578 90.4023L65.4453 90.0391V82.2344C65.4453 81.4688 65.3164 80.9375 65.0586 80.6406C64.8008 80.3438 64.3672 80.1953 63.7578 80.1953V79.5977C64.2891 79.5352 64.8477 79.4336 65.4336 79.293C66.0195 79.1445 66.4688 79.0156 66.7812 78.9062L67.2383 78.7656L67.4844 80.9219H67.6016C67.6484 80.8594 67.7148 80.7812 67.8008 80.6875C67.8945 80.5859 68.0781 80.4141 68.3516 80.1719C68.6328 79.9219 68.9258 79.6992 69.2305 79.5039C69.5352 79.3086 69.9219 79.1367 70.3906 78.9883C70.8672 78.8398 71.3398 78.7656 71.8086 78.7656C72.9961 78.7656 73.9102 79.1523 74.5508 79.9258C75.1992 80.6992 75.5234 81.8711 75.5234 83.4414V88.5977C75.5234 89.3164 75.6367 89.7969 75.8633 90.0391C76.0977 90.2812 76.543 90.4023 77.1992 90.4023V91H71.8086V90.4023L73.4844 90.0391V83.6758C73.4844 82.5039 73.2734 81.6719 72.8516 81.1797C72.4375 80.6875 71.7695 80.4414 70.8477 80.4414C70.3164 80.4414 69.7695 80.5703 69.207 80.8281C68.6523 81.0781 68.2305 81.332 67.9414 81.5898L67.4844 82V88.5977C67.4844 89.3164 67.5977 89.7969 67.8242 90.0391C68.0586 90.2812 68.5039 90.4023 69.1602 90.4023V91H63.7578V90.4023ZM85.2383 90.4023L87.2773 89.9219V75.6367C87.2773 74.6133 87.1484 73.957 86.8906 73.668C86.6406 73.3789 86.0898 73.2344 85.2383 73.2344V72.5195H98.3281V77.1953H97.4844C97.4844 75.7734 97.2656 74.8203 96.8281 74.3359C96.3984 73.8438 95.5781 73.5977 94.3672 73.5977H89.4453V81.0391H91.9648C92.9883 81.0391 93.6445 80.8984 93.9336 80.6172C94.2227 80.3359 94.3672 79.7188 94.3672 78.7656H95.1992V84.7656H94.3672C94.3672 83.6953 94.207 82.9883 93.8867 82.6445C93.5664 82.293 92.9258 82.1172 91.9648 82.1172H89.4453V87.8828C89.4453 88.9062 89.6133 89.5625 89.9492 89.8516C90.2852 90.1406 91.0781 90.2852 92.3281 90.2852V91H85.2383V90.4023ZM99.3828 90.4023L101.07 90.0391V75.2852C101.07 74.4727 100.941 73.9102 100.684 73.5977C100.426 73.2773 99.9922 73.1172 99.3828 73.1172V72.5195C99.9922 72.457 100.605 72.3477 101.223 72.1914C101.84 72.0273 102.309 71.8828 102.629 71.7578L103.109 71.5586V88.5977C103.109 89.3164 103.223 89.7969 103.449 90.0391C103.684 90.2812 104.129 90.4023 104.785 90.4023V91H99.3828V90.4023ZM118.355 84.7656C118.355 86.6719 117.766 88.2266 116.586 89.4297C115.414 90.6328 113.922 91.2344 112.109 91.2344C110.477 91.2344 109.129 90.6797 108.066 89.5703C107.004 88.4609 106.473 87.0156 106.473 85.2344C106.473 83.3281 107.059 81.7734 108.23 80.5703C109.41 79.3672 110.906 78.7656 112.719 78.7656C114.352 78.7656 115.699 79.3242 116.762 80.4414C117.824 81.5508 118.355 82.9922 118.355 84.7656ZM109.684 81.0977C108.98 82.0195 108.629 83.3203 108.629 85C108.629 86.6797 108.988 87.9805 109.707 88.9023C110.434 89.8242 111.355 90.2852 112.473 90.2852C113.543 90.2852 114.43 89.8242 115.133 88.9023C115.844 87.9805 116.199 86.6797 116.199 85C116.199 83.3203 115.836 82.0195 115.109 81.0977C114.391 80.1758 113.473 79.7148 112.355 79.7148C111.285 79.7148 110.395 80.1758 109.684 81.0977ZM132.395 84.7656C132.395 86.6719 131.805 88.2266 130.625 89.4297C129.453 90.6328 127.961 91.2344 126.148 91.2344C124.516 91.2344 123.168 90.6797 122.105 89.5703C121.043 88.4609 120.512 87.0156 120.512 85.2344C120.512 83.3281 121.098 81.7734 122.27 80.5703C123.449 79.3672 124.945 78.7656 126.758 78.7656C128.391 78.7656 129.738 79.3242 130.801 80.4414C131.863 81.5508 132.395 82.9922 132.395 84.7656ZM123.723 81.0977C123.02 82.0195 122.668 83.3203 122.668 85C122.668 86.6797 123.027 87.9805 123.746 88.9023C124.473 89.8242 125.395 90.2852 126.512 90.2852C127.582 90.2852 128.469 89.8242 129.172 88.9023C129.883 87.9805 130.238 86.6797 130.238 85C130.238 83.3203 129.875 82.0195 129.148 81.0977C128.43 80.1758 127.512 79.7148 126.395 79.7148C125.324 79.7148 124.434 80.1758 123.723 81.0977ZM143.434 91.2344L143.188 89.0781H143.07C143.039 89.1406 142.984 89.2227 142.906 89.3242C142.828 89.418 142.664 89.5898 142.414 89.8398C142.164 90.082 141.898 90.3008 141.617 90.4961C141.336 90.6914 140.98 90.8633 140.551 91.0117C140.121 91.1602 139.684 91.2344 139.238 91.2344C137.926 91.2344 136.836 90.7227 135.969 89.6992C135.102 88.6758 134.668 87.2695 134.668 85.4805C134.668 83.4023 135.234 81.7656 136.367 80.5703C137.508 79.3672 139.023 78.7656 140.914 78.7656C141.297 78.7656 141.68 78.8047 142.062 78.8828C142.445 78.9609 142.734 79.0391 142.93 79.1172L143.188 79.2344V75.2852C143.188 74.4727 143.059 73.9102 142.801 73.5977C142.551 73.2773 142.121 73.1172 141.512 73.1172V72.5195C142.121 72.457 142.734 72.3477 143.352 72.1914C143.969 72.0273 144.438 71.8828 144.758 71.7578L145.238 71.5586V87.7656C145.238 88.5312 145.363 89.0625 145.613 89.3594C145.871 89.6562 146.305 89.8047 146.914 89.8047V90.4023C146.383 90.4648 145.824 90.5703 145.238 90.7188C144.66 90.8594 144.211 90.9844 143.891 91.0938L143.434 91.2344ZM140.551 79.7148C139.465 79.7148 138.574 80.1719 137.879 81.0859C137.184 82 136.836 83.3359 136.836 85.0938C136.836 86.6172 137.121 87.7422 137.691 88.4688C138.27 89.1953 139.062 89.5586 140.07 89.5586C140.562 89.5586 141.07 89.4336 141.594 89.1836C142.117 88.9258 142.516 88.668 142.789 88.4102L143.188 88V80.8047C143.125 80.7266 143.027 80.6289 142.895 80.5117C142.77 80.3867 142.48 80.2227 142.027 80.0195C141.574 79.8164 141.082 79.7148 140.551 79.7148Z" fill="white"/>
<path d="M103.234 23H88.7148V22.0156L90.7656 21.5352V8.11719C90.7656 7.04688 90.6367 6.35938 90.3789 6.05469C90.1211 5.75 89.5664 5.59766 88.7148 5.59766V4.51953H103.234V9.55859H101.805C101.805 8.26172 101.574 7.35937 101.113 6.85156C100.66 6.33594 99.8906 6.07812 98.8047 6.07812H94.5977V12.6758H97C97.8516 12.6758 98.4219 12.5195 98.7109 12.207C99.0078 11.8945 99.1562 11.293 99.1562 10.4023H100.48V16.6367H99.1562C99.1562 15.6758 99.0078 15.0352 98.7109 14.7148C98.4219 14.3945 97.8516 14.2344 97 14.2344H94.5977V21.4414H98.4414C99.707 21.4414 100.621 21.1484 101.184 20.5625C101.754 19.9766 102.16 18.9102 102.402 17.3633H103.844L103.234 23ZM112.363 20C112.363 19.6172 112.145 19.2617 111.707 18.9336C111.277 18.6055 110.758 18.3086 110.148 18.043C109.547 17.7773 108.941 17.4844 108.332 17.1641C107.723 16.8438 107.199 16.4141 106.762 15.875C106.332 15.3281 106.117 14.7031 106.117 14C106.117 12.9766 106.539 12.1406 107.383 11.4922C108.234 10.8438 109.492 10.5195 111.156 10.5195C111.828 10.5195 112.484 10.5938 113.125 10.7422C113.766 10.8828 114.238 11.0156 114.543 11.1406L115 11.3633V14.4805H113.805C113.625 13.582 113.348 12.9375 112.973 12.5469C112.598 12.1562 112.074 11.9609 111.402 11.9609C110.871 11.9609 110.457 12.0898 110.16 12.3477C109.871 12.5977 109.727 12.9102 109.727 13.2852C109.727 13.7148 109.941 14.0859 110.371 14.3984C110.801 14.7109 111.32 14.9805 111.93 15.207C112.539 15.4258 113.145 15.6758 113.746 15.957C114.355 16.2383 114.875 16.6523 115.305 17.1992C115.742 17.7383 115.961 18.3906 115.961 19.1562C115.961 20.2891 115.473 21.2539 114.496 22.0508C113.52 22.8398 112.168 23.2344 110.441 23.2344C109.629 23.2344 108.828 23.1562 108.039 23C107.258 22.8438 106.684 22.6836 106.316 22.5195L105.766 22.2852V18.5586H106.961C107.328 20.7148 108.41 21.7969 110.207 21.8047C110.848 21.8047 111.367 21.6289 111.766 21.2773C112.164 20.918 112.363 20.4922 112.363 20ZM117.648 17.1172C117.648 15.2266 118.309 13.6562 119.629 12.4062C120.949 11.1484 122.648 10.5195 124.727 10.5195C125.508 10.5195 126.238 10.6094 126.918 10.7891C127.598 10.9609 128.082 11.1445 128.371 11.3398L128.805 11.5977V15.4414H127.129L126.039 12.3242C125.719 12.168 125.281 12.0859 124.727 12.0781C123.828 12.0781 123.062 12.4766 122.43 13.2734C121.797 14.0625 121.48 15.1445 121.48 16.5195C121.48 17.8164 121.824 18.8398 122.512 19.5898C123.199 20.3398 124.098 20.7148 125.207 20.7148C125.848 20.7148 126.453 20.6289 127.023 20.457C127.602 20.2773 128.02 20.1016 128.277 19.9297L128.688 19.6367L129.285 20.2344C129.238 20.3125 129.168 20.4219 129.074 20.5625C128.988 20.7031 128.777 20.9453 128.441 21.2891C128.105 21.6328 127.746 21.9375 127.363 22.2031C126.98 22.4609 126.465 22.6992 125.816 22.918C125.168 23.1289 124.484 23.2344 123.766 23.2344C122.023 23.2344 120.566 22.6523 119.395 21.4883C118.23 20.3164 117.648 18.8594 117.648 17.1172ZM134.441 16.6367C134.441 20.0742 135.402 21.7969 137.324 21.8047C138.059 21.8047 138.68 21.418 139.188 20.6445C139.703 19.8633 139.961 18.6875 139.961 17.1172C139.961 13.6797 139.004 11.9609 137.09 11.9609C136.355 11.9609 135.73 12.3477 135.215 13.1211C134.699 13.8945 134.441 15.0664 134.441 16.6367ZM143.805 16.7656C143.805 18.5859 143.156 20.1211 141.859 21.3711C140.562 22.6133 138.93 23.2344 136.961 23.2344C135.102 23.2344 133.578 22.6484 132.391 21.4766C131.203 20.2969 130.609 18.8047 130.609 17C130.609 15.1797 131.254 13.6445 132.543 12.3945C133.84 11.1445 135.473 10.5195 137.441 10.5195C139.301 10.5195 140.824 11.1094 142.012 12.2891C143.207 13.4688 143.805 14.9609 143.805 16.7656ZM150.168 3.55859V19.8828C150.168 20.7656 150.277 21.3477 150.496 21.6289C150.723 21.9023 151.172 22.0391 151.844 22.0391V23H144.883V22.0391L146.57 21.6758V7.76562C146.57 6.83594 146.445 6.20313 146.195 5.86719C145.945 5.53125 145.508 5.36328 144.883 5.36328V4.40234C145.664 4.37109 146.496 4.28516 147.379 4.14453C148.262 3.99609 148.953 3.86719 149.453 3.75781L150.168 3.55859ZM163.738 14.8438V19.1562C163.738 20.0859 163.863 20.7188 164.113 21.0547C164.363 21.3906 164.797 21.5586 165.414 21.5586V22.5195C164.711 22.5508 163.969 22.6289 163.188 22.7539C162.406 22.8711 161.805 22.9844 161.383 23.0938L160.738 23.2344L160.504 20.9609H160.258C160.211 21.0234 160.145 21.1094 160.059 21.2188C159.98 21.3203 159.809 21.5 159.543 21.7578C159.285 22.0078 159.008 22.2344 158.711 22.4375C158.414 22.6328 158.031 22.8164 157.562 22.9883C157.102 23.1523 156.641 23.2344 156.18 23.2344C155.125 23.2344 154.301 22.9766 153.707 22.4609C153.113 21.9375 152.816 21.2773 152.816 20.4805C152.816 19.7617 153.066 19.1055 153.566 18.5117C154.074 17.918 154.688 17.4531 155.406 17.1172C156.133 16.7812 156.852 16.5 157.562 16.2734C158.273 16.0391 158.875 15.8828 159.367 15.8047L160.141 15.6758V15.0781C160.141 13.0781 159.422 12.0781 157.984 12.0781C157.773 12.0781 157.547 12.1055 157.305 12.1602C157.062 12.2148 156.871 12.2773 156.73 12.3477L156.543 12.4414L155.699 15.0781H153.777V11.7148C153.934 11.6211 154.16 11.5117 154.457 11.3867C154.754 11.2539 155.344 11.0781 156.227 10.8594C157.109 10.6328 157.973 10.5195 158.816 10.5195C160.402 10.5195 161.617 10.9062 162.461 11.6797C163.312 12.4453 163.738 13.5 163.738 14.8438ZM157.855 20.7148C158.238 20.7148 158.621 20.6172 159.004 20.4219C159.395 20.2188 159.676 20.0234 159.848 19.8359L160.141 19.5195V17C160.047 17.0156 159.918 17.0391 159.754 17.0703C159.598 17.1016 159.309 17.1914 158.887 17.3398C158.473 17.4805 158.105 17.6367 157.785 17.8086C157.465 17.9727 157.176 18.2109 156.918 18.5234C156.668 18.8359 156.543 19.168 156.543 19.5195C156.543 19.8867 156.656 20.1797 156.883 20.3984C157.117 20.6094 157.441 20.7148 157.855 20.7148ZM179.945 12.0781C179.367 12.0781 178.867 12.3555 178.445 12.9102C178.023 13.457 177.723 14.3008 177.543 15.4414L181.75 15.0781V14.4805C181.75 13.7305 181.578 13.1445 181.234 12.7227C180.891 12.293 180.461 12.0781 179.945 12.0781ZM180.191 10.5195C181.809 10.5195 183.074 10.9727 183.988 11.8789C184.91 12.7773 185.402 14.043 185.465 15.6758L184.27 16.7656H177.543C177.605 18.0781 177.953 19.0664 178.586 19.7305C179.219 20.3867 180.113 20.7148 181.27 20.7148C181.91 20.7148 182.516 20.6289 183.086 20.457C183.664 20.2773 184.082 20.1016 184.34 19.9297L184.75 19.6367L185.348 20.2344C185.301 20.3125 185.23 20.4219 185.137 20.5625C185.051 20.7031 184.84 20.9453 184.504 21.2891C184.168 21.6328 183.809 21.9375 183.426 22.2031C183.043 22.4609 182.527 22.6992 181.879 22.918C181.23 23.1289 180.547 23.2344 179.828 23.2344C178.086 23.2344 176.629 22.6523 175.457 21.4883C174.293 20.3164 173.711 18.8594 173.711 17.1172C173.711 15.2578 174.34 13.6953 175.598 12.4297C176.855 11.1562 178.387 10.5195 180.191 10.5195ZM207.18 15.3242V19.8828C207.18 20.7656 207.289 21.3477 207.508 21.6289C207.734 21.9023 208.184 22.0391 208.855 22.0391V23H202.141V22.0391L203.582 21.6758V15.5586C203.582 13.957 202.98 13.1562 201.777 13.1562C201.395 13.1562 201.016 13.2461 200.641 13.4258C200.266 13.5977 199.98 13.7812 199.785 13.9766L199.492 14.2344C199.57 14.4766 199.613 14.918 199.621 15.5586V19.8828C199.621 20.7656 199.727 21.3477 199.938 21.6289C200.156 21.9023 200.57 22.0391 201.18 22.0391V23H194.582V22.0391L196.012 21.6758V15.5586C196.012 13.957 195.414 13.1562 194.219 13.1562C193.867 13.1562 193.512 13.2383 193.152 13.4023C192.793 13.5586 192.523 13.7188 192.344 13.8828L192.062 14.1172V19.8828C192.062 20.7656 192.168 21.3477 192.379 21.6289C192.598 21.9023 193.012 22.0391 193.621 22.0391V23H186.777V22.0391L188.453 21.6758V14.5977C188.453 13.668 188.328 13.0352 188.078 12.6992C187.836 12.3633 187.402 12.1953 186.777 12.1953V11.2344C187.48 11.2031 188.223 11.1289 189.004 11.0117C189.793 10.8945 190.395 10.7773 190.809 10.6602L191.453 10.5195L191.699 12.6758H191.934C191.965 12.6133 192.016 12.5352 192.086 12.4414C192.164 12.3477 192.324 12.1758 192.566 11.9258C192.816 11.6758 193.082 11.457 193.363 11.2695C193.645 11.0742 194.012 10.9023 194.465 10.7539C194.926 10.5977 195.402 10.5195 195.895 10.5195C196.355 10.5195 196.785 10.5977 197.184 10.7539C197.59 10.9023 197.902 11.082 198.121 11.293C198.348 11.4961 198.543 11.7031 198.707 11.9141C198.879 12.1172 199 12.293 199.07 12.4414L199.141 12.6758H199.375C199.406 12.6133 199.461 12.5352 199.539 12.4414C199.625 12.3477 199.793 12.1758 200.043 11.9258C200.301 11.6758 200.578 11.457 200.875 11.2695C201.172 11.0742 201.551 10.9023 202.012 10.7539C202.48 10.5977 202.961 10.5195 203.453 10.5195C204.57 10.5195 205.469 10.9297 206.148 11.75C206.836 12.5625 207.18 13.7539 207.18 15.3242ZM217.012 4.51953H225.18C227.242 4.51953 228.797 4.92969 229.844 5.75C230.891 6.5625 231.414 7.63281 231.414 8.96094C231.414 9.69531 231.246 10.3398 230.91 10.8945C230.574 11.4414 230.164 11.8477 229.68 12.1133C229.203 12.3789 228.719 12.5898 228.227 12.7461C227.742 12.8945 227.332 12.9844 226.996 13.0156L226.492 13.0391V13.2852C226.57 13.2852 226.684 13.2891 226.832 13.2969C226.98 13.3047 227.258 13.3438 227.664 13.4141C228.07 13.4844 228.457 13.5781 228.824 13.6953C229.191 13.8047 229.598 13.9844 230.043 14.2344C230.496 14.4766 230.887 14.7578 231.215 15.0781C231.543 15.3984 231.816 15.8203 232.035 16.3438C232.262 16.8594 232.375 17.4375 232.375 18.0781C232.375 19.5312 231.789 20.7148 230.617 21.6289C229.453 22.543 227.719 23 225.414 23H217.012V22.0391L219.062 21.5586V8.14062C219.062 7.07031 218.934 6.37891 218.676 6.06641C218.418 5.75391 217.863 5.59766 217.012 5.59766V4.51953ZM222.895 21.4414H224.582C225.73 21.4414 226.617 21.1211 227.242 20.4805C227.867 19.8398 228.18 18.9219 228.18 17.7266C228.18 16.5234 227.867 15.6016 227.242 14.9609C226.617 14.3203 225.73 14 224.582 14H222.895V21.4414ZM222.895 12.3242H224.336C226.258 12.3242 227.219 11.2852 227.219 9.20703C227.219 7.12109 226.258 6.07812 224.336 6.07812H222.895V12.3242ZM244.855 14.8438V19.1562C244.855 20.0859 244.98 20.7188 245.23 21.0547C245.48 21.3906 245.914 21.5586 246.531 21.5586V22.5195C245.828 22.5508 245.086 22.6289 244.305 22.7539C243.523 22.8711 242.922 22.9844 242.5 23.0938L241.855 23.2344L241.621 20.9609H241.375C241.328 21.0234 241.262 21.1094 241.176 21.2188C241.098 21.3203 240.926 21.5 240.66 21.7578C240.402 22.0078 240.125 22.2344 239.828 22.4375C239.531 22.6328 239.148 22.8164 238.68 22.9883C238.219 23.1523 237.758 23.2344 237.297 23.2344C236.242 23.2344 235.418 22.9766 234.824 22.4609C234.23 21.9375 233.934 21.2773 233.934 20.4805C233.934 19.7617 234.184 19.1055 234.684 18.5117C235.191 17.918 235.805 17.4531 236.523 17.1172C237.25 16.7812 237.969 16.5 238.68 16.2734C239.391 16.0391 239.992 15.8828 240.484 15.8047L241.258 15.6758V15.0781C241.258 13.0781 240.539 12.0781 239.102 12.0781C238.891 12.0781 238.664 12.1055 238.422 12.1602C238.18 12.2148 237.988 12.2773 237.848 12.3477L237.66 12.4414L236.816 15.0781H234.895V11.7148C235.051 11.6211 235.277 11.5117 235.574 11.3867C235.871 11.2539 236.461 11.0781 237.344 10.8594C238.227 10.6328 239.09 10.5195 239.934 10.5195C241.52 10.5195 242.734 10.9062 243.578 11.6797C244.43 12.4453 244.855 13.5 244.855 14.8438ZM238.973 20.7148C239.355 20.7148 239.738 20.6172 240.121 20.4219C240.512 20.2188 240.793 20.0234 240.965 19.8359L241.258 19.5195V17C241.164 17.0156 241.035 17.0391 240.871 17.0703C240.715 17.1016 240.426 17.1914 240.004 17.3398C239.59 17.4805 239.223 17.6367 238.902 17.8086C238.582 17.9727 238.293 18.2109 238.035 18.5234C237.785 18.8359 237.66 19.168 237.66 19.5195C237.66 19.8867 237.773 20.1797 238 20.3984C238.234 20.6094 238.559 20.7148 238.973 20.7148ZM252.672 14.3633V19.8828C252.672 20.7109 252.82 21.2773 253.117 21.582C253.422 21.8867 253.992 22.0391 254.828 22.0391V23H247.387V22.0391L249.062 21.6758V14.5977C249.062 13.668 248.938 13.0352 248.688 12.6992C248.445 12.3633 248.012 12.1953 247.387 12.1953V11.2344C248.09 11.2031 248.832 11.1289 249.613 11.0117C250.402 10.8945 251.004 10.7773 251.418 10.6602L252.062 10.5195L252.309 12.8047H252.543C252.59 12.7422 252.652 12.6602 252.73 12.5586C252.816 12.4492 253 12.2656 253.281 12.0078C253.562 11.75 253.844 11.5234 254.125 11.3281C254.414 11.125 254.773 10.9414 255.203 10.7773C255.641 10.6055 256.074 10.5195 256.504 10.5195C256.824 10.5195 257.137 10.5508 257.441 10.6133C257.746 10.6758 257.961 10.7422 258.086 10.8125L258.309 10.8828V15.1953H256.387L255.543 12.9219C255.012 12.9531 254.508 13.0898 254.031 13.332C253.555 13.5664 253.211 13.7969 253 14.0234L252.672 14.3633ZM259.281 17.1172C259.281 15.2266 259.941 13.6562 261.262 12.4062C262.582 11.1484 264.281 10.5195 266.359 10.5195C267.141 10.5195 267.871 10.6094 268.551 10.7891C269.23 10.9609 269.715 11.1445 270.004 11.3398L270.438 11.5977V15.4414H268.762L267.672 12.3242C267.352 12.168 266.914 12.0859 266.359 12.0781C265.461 12.0781 264.695 12.4766 264.062 13.2734C263.43 14.0625 263.113 15.1445 263.113 16.5195C263.113 17.8164 263.457 18.8398 264.145 19.5898C264.832 20.3398 265.73 20.7148 266.84 20.7148C267.48 20.7148 268.086 20.6289 268.656 20.457C269.234 20.2773 269.652 20.1016 269.91 19.9297L270.32 19.6367L270.918 20.2344C270.871 20.3125 270.801 20.4219 270.707 20.5625C270.621 20.7031 270.41 20.9453 270.074 21.2891C269.738 21.6328 269.379 21.9375 268.996 22.2031C268.613 22.4609 268.098 22.6992 267.449 22.918C266.801 23.1289 266.117 23.2344 265.398 23.2344C263.656 23.2344 262.199 22.6523 261.027 21.4883C259.863 20.3164 259.281 18.8594 259.281 17.1172ZM278.477 12.0781C277.898 12.0781 277.398 12.3555 276.977 12.9102C276.555 13.457 276.254 14.3008 276.074 15.4414L280.281 15.0781V14.4805C280.281 13.7305 280.109 13.1445 279.766 12.7227C279.422 12.293 278.992 12.0781 278.477 12.0781ZM278.723 10.5195C280.34 10.5195 281.605 10.9727 282.52 11.8789C283.441 12.7773 283.934 14.043 283.996 15.6758L282.801 16.7656H276.074C276.137 18.0781 276.484 19.0664 277.117 19.7305C277.75 20.3867 278.645 20.7148 279.801 20.7148C280.441 20.7148 281.047 20.6289 281.617 20.457C282.195 20.2773 282.613 20.1016 282.871 19.9297L283.281 19.6367L283.879 20.2344C283.832 20.3125 283.762 20.4219 283.668 20.5625C283.582 20.7031 283.371 20.9453 283.035 21.2891C282.699 21.6328 282.34 21.9375 281.957 22.2031C281.574 22.4609 281.059 22.6992 280.41 22.918C279.762 23.1289 279.078 23.2344 278.359 23.2344C276.617 23.2344 275.16 22.6523 273.988 21.4883C272.824 20.3164 272.242 18.8594 272.242 17.1172C272.242 15.2578 272.871 13.6953 274.129 12.4297C275.387 11.1562 276.918 10.5195 278.723 10.5195ZM290.348 3.55859V19.8828C290.348 20.7656 290.457 21.3477 290.676 21.6289C290.902 21.9023 291.352 22.0391 292.023 22.0391V23H285.062V22.0391L286.75 21.6758V7.76562C286.75 6.83594 286.625 6.20313 286.375 5.86719C286.125 5.53125 285.688 5.36328 285.062 5.36328V4.40234C285.844 4.37109 286.676 4.28516 287.559 4.14453C288.441 3.99609 289.133 3.86719 289.633 3.75781L290.348 3.55859ZM297.074 16.6367C297.074 20.0742 298.035 21.7969 299.957 21.8047C300.691 21.8047 301.312 21.418 301.82 20.6445C302.336 19.8633 302.594 18.6875 302.594 17.1172C302.594 13.6797 301.637 11.9609 299.723 11.9609C298.988 11.9609 298.363 12.3477 297.848 13.1211C297.332 13.8945 297.074 15.0664 297.074 16.6367ZM306.438 16.7656C306.438 18.5859 305.789 20.1211 304.492 21.3711C303.195 22.6133 301.562 23.2344 299.594 23.2344C297.734 23.2344 296.211 22.6484 295.023 21.4766C293.836 20.2969 293.242 18.8047 293.242 17C293.242 15.1797 293.887 13.6445 295.176 12.3945C296.473 11.1445 298.105 10.5195 300.074 10.5195C301.934 10.5195 303.457 11.1094 304.645 12.2891C305.84 13.4688 306.438 14.9609 306.438 16.7656ZM321.086 15.3242V19.8828C321.086 20.7656 321.195 21.3477 321.414 21.6289C321.641 21.9023 322.09 22.0391 322.762 22.0391V23H315.801V22.0391L317.477 21.6758V15.5586C317.477 13.957 316.797 13.1562 315.438 13.1562C315.055 13.1562 314.664 13.2461 314.266 13.4258C313.867 13.5977 313.562 13.7812 313.352 13.9766L313.047 14.2344V19.8828C313.047 20.7656 313.156 21.3477 313.375 21.6289C313.602 21.9023 314.051 22.0391 314.723 22.0391V23H307.762V22.0391L309.438 21.6758V14.5977C309.438 13.668 309.312 13.0352 309.062 12.6992C308.82 12.3633 308.387 12.1953 307.762 12.1953V11.2344C308.465 11.2031 309.207 11.1289 309.988 11.0117C310.777 10.8945 311.379 10.7773 311.793 10.6602L312.438 10.5195L312.684 12.8047H312.918C312.965 12.7422 313.027 12.6602 313.105 12.5586C313.191 12.4492 313.371 12.2656 313.645 12.0078C313.918 11.75 314.203 11.5234 314.5 11.3281C314.805 11.125 315.191 10.9414 315.66 10.7773C316.137 10.6055 316.625 10.5195 317.125 10.5195C318.312 10.5195 319.27 10.9414 319.996 11.7852C320.723 12.6211 321.086 13.8008 321.086 15.3242ZM334.645 14.8438V19.1562C334.645 20.0859 334.77 20.7188 335.02 21.0547C335.27 21.3906 335.703 21.5586 336.32 21.5586V22.5195C335.617 22.5508 334.875 22.6289 334.094 22.7539C333.312 22.8711 332.711 22.9844 332.289 23.0938L331.645 23.2344L331.41 20.9609H331.164C331.117 21.0234 331.051 21.1094 330.965 21.2188C330.887 21.3203 330.715 21.5 330.449 21.7578C330.191 22.0078 329.914 22.2344 329.617 22.4375C329.32 22.6328 328.938 22.8164 328.469 22.9883C328.008 23.1523 327.547 23.2344 327.086 23.2344C326.031 23.2344 325.207 22.9766 324.613 22.4609C324.02 21.9375 323.723 21.2773 323.723 20.4805C323.723 19.7617 323.973 19.1055 324.473 18.5117C324.98 17.918 325.594 17.4531 326.312 17.1172C327.039 16.7812 327.758 16.5 328.469 16.2734C329.18 16.0391 329.781 15.8828 330.273 15.8047L331.047 15.6758V15.0781C331.047 13.0781 330.328 12.0781 328.891 12.0781C328.68 12.0781 328.453 12.1055 328.211 12.1602C327.969 12.2148 327.777 12.2773 327.637 12.3477L327.449 12.4414L326.605 15.0781H324.684V11.7148C324.84 11.6211 325.066 11.5117 325.363 11.3867C325.66 11.2539 326.25 11.0781 327.133 10.8594C328.016 10.6328 328.879 10.5195 329.723 10.5195C331.309 10.5195 332.523 10.9062 333.367 11.6797C334.219 12.4453 334.645 13.5 334.645 14.8438ZM328.762 20.7148C329.145 20.7148 329.527 20.6172 329.91 20.4219C330.301 20.2188 330.582 20.0234 330.754 19.8359L331.047 19.5195V17C330.953 17.0156 330.824 17.0391 330.66 17.0703C330.504 17.1016 330.215 17.1914 329.793 17.3398C329.379 17.4805 329.012 17.6367 328.691 17.8086C328.371 17.9727 328.082 18.2109 327.824 18.5234C327.574 18.8359 327.449 19.168 327.449 19.5195C327.449 19.8867 327.562 20.1797 327.789 20.3984C328.023 20.6094 328.348 20.7148 328.762 20.7148ZM93.7656 44.3633V49.8828C93.7656 50.7109 93.9141 51.2773 94.2109 51.582C94.5156 51.8867 95.0859 52.0391 95.9219 52.0391V53H88.4805V52.0391L90.1562 51.6758V44.5977C90.1562 43.668 90.0312 43.0352 89.7812 42.6992C89.5391 42.3633 89.1055 42.1953 88.4805 42.1953V41.2344C89.1836 41.2031 89.9258 41.1289 90.707 41.0117C91.4961 40.8945 92.0977 40.7773 92.5117 40.6602L93.1562 40.5195L93.4023 42.8047H93.6367C93.6836 42.7422 93.7461 42.6602 93.8242 42.5586C93.9102 42.4492 94.0938 42.2656 94.375 42.0078C94.6562 41.75 94.9375 41.5234 95.2188 41.3281C95.5078 41.125 95.8672 40.9414 96.2969 40.7773C96.7344 40.6055 97.168 40.5195 97.5977 40.5195C97.918 40.5195 98.2305 40.5508 98.5352 40.6133C98.8398 40.6758 99.0547 40.7422 99.1797 40.8125L99.4023 40.8828V45.1953H97.4805L96.6367 42.9219C96.1055 42.9531 95.6016 43.0898 95.125 43.332C94.6484 43.5664 94.3047 43.7969 94.0938 44.0234L93.7656 44.3633ZM106.609 42.0781C106.031 42.0781 105.531 42.3555 105.109 42.9102C104.688 43.457 104.387 44.3008 104.207 45.4414L108.414 45.0781V44.4805C108.414 43.7305 108.242 43.1445 107.898 42.7227C107.555 42.293 107.125 42.0781 106.609 42.0781ZM106.855 40.5195C108.473 40.5195 109.738 40.9727 110.652 41.8789C111.574 42.7773 112.066 44.043 112.129 45.6758L110.934 46.7656H104.207C104.27 48.0781 104.617 49.0664 105.25 49.7305C105.883 50.3867 106.777 50.7148 107.934 50.7148C108.574 50.7148 109.18 50.6289 109.75 50.457C110.328 50.2773 110.746 50.1016 111.004 49.9297L111.414 49.6367L112.012 50.2344C111.965 50.3125 111.895 50.4219 111.801 50.5625C111.715 50.7031 111.504 50.9453 111.168 51.2891C110.832 51.6328 110.473 51.9375 110.09 52.2031C109.707 52.4609 109.191 52.6992 108.543 52.918C107.895 53.1289 107.211 53.2344 106.492 53.2344C104.75 53.2344 103.293 52.6523 102.121 51.4883C100.957 50.3164 100.375 48.8594 100.375 47.1172C100.375 45.2578 101.004 43.6953 102.262 42.4297C103.52 41.1562 105.051 40.5195 106.855 40.5195ZM133.844 45.3242V49.8828C133.844 50.7656 133.953 51.3477 134.172 51.6289C134.398 51.9023 134.848 52.0391 135.52 52.0391V53H128.805V52.0391L130.246 51.6758V45.5586C130.246 43.957 129.645 43.1562 128.441 43.1562C128.059 43.1562 127.68 43.2461 127.305 43.4258C126.93 43.5977 126.645 43.7812 126.449 43.9766L126.156 44.2344C126.234 44.4766 126.277 44.918 126.285 45.5586V49.8828C126.285 50.7656 126.391 51.3477 126.602 51.6289C126.82 51.9023 127.234 52.0391 127.844 52.0391V53H121.246V52.0391L122.676 51.6758V45.5586C122.676 43.957 122.078 43.1562 120.883 43.1562C120.531 43.1562 120.176 43.2383 119.816 43.4023C119.457 43.5586 119.188 43.7188 119.008 43.8828L118.727 44.1172V49.8828C118.727 50.7656 118.832 51.3477 119.043 51.6289C119.262 51.9023 119.676 52.0391 120.285 52.0391V53H113.441V52.0391L115.117 51.6758V44.5977C115.117 43.668 114.992 43.0352 114.742 42.6992C114.5 42.3633 114.066 42.1953 113.441 42.1953V41.2344C114.145 41.2031 114.887 41.1289 115.668 41.0117C116.457 40.8945 117.059 40.7773 117.473 40.6602L118.117 40.5195L118.363 42.6758H118.598C118.629 42.6133 118.68 42.5352 118.75 42.4414C118.828 42.3477 118.988 42.1758 119.23 41.9258C119.48 41.6758 119.746 41.457 120.027 41.2695C120.309 41.0742 120.676 40.9023 121.129 40.7539C121.59 40.5977 122.066 40.5195 122.559 40.5195C123.02 40.5195 123.449 40.5977 123.848 40.7539C124.254 40.9023 124.566 41.082 124.785 41.293C125.012 41.4961 125.207 41.7031 125.371 41.9141C125.543 42.1172 125.664 42.293 125.734 42.4414L125.805 42.6758H126.039C126.07 42.6133 126.125 42.5352 126.203 42.4414C126.289 42.3477 126.457 42.1758 126.707 41.9258C126.965 41.6758 127.242 41.457 127.539 41.2695C127.836 41.0742 128.215 40.9023 128.676 40.7539C129.145 40.5977 129.625 40.5195 130.117 40.5195C131.234 40.5195 132.133 40.9297 132.812 41.75C133.5 42.5625 133.844 43.7539 133.844 45.3242ZM140.559 46.6367C140.559 50.0742 141.52 51.7969 143.441 51.8047C144.176 51.8047 144.797 51.418 145.305 50.6445C145.82 49.8633 146.078 48.6875 146.078 47.1172C146.078 43.6797 145.121 41.9609 143.207 41.9609C142.473 41.9609 141.848 42.3477 141.332 43.1211C140.816 43.8945 140.559 45.0664 140.559 46.6367ZM149.922 46.7656C149.922 48.5859 149.273 50.1211 147.977 51.3711C146.68 52.6133 145.047 53.2344 143.078 53.2344C141.219 53.2344 139.695 52.6484 138.508 51.4766C137.32 50.2969 136.727 48.8047 136.727 47C136.727 45.1797 137.371 43.6445 138.66 42.3945C139.957 41.1445 141.59 40.5195 143.559 40.5195C145.418 40.5195 146.941 41.1094 148.129 42.2891C149.324 43.4688 149.922 44.9609 149.922 46.7656ZM156.871 53.2344L152.43 43.8828C152.031 43.0312 151.66 42.457 151.316 42.1602C150.973 41.8633 150.504 41.7148 149.91 41.7148V40.7656H157.469V41.7148L155.559 42.0781L158.078 47.4805L158.43 48.9219H158.676L161.078 43.6367C161.234 43.2383 161.312 42.8789 161.312 42.5586C161.312 41.9961 160.754 41.7148 159.637 41.7148V40.7656H165.273V41.7148L163.598 42.0781L158.559 53.2344H156.871ZM171.508 42.0781C170.93 42.0781 170.43 42.3555 170.008 42.9102C169.586 43.457 169.285 44.3008 169.105 45.4414L173.312 45.0781V44.4805C173.312 43.7305 173.141 43.1445 172.797 42.7227C172.453 42.293 172.023 42.0781 171.508 42.0781ZM171.754 40.5195C173.371 40.5195 174.637 40.9727 175.551 41.8789C176.473 42.7773 176.965 44.043 177.027 45.6758L175.832 46.7656H169.105C169.168 48.0781 169.516 49.0664 170.148 49.7305C170.781 50.3867 171.676 50.7148 172.832 50.7148C173.473 50.7148 174.078 50.6289 174.648 50.457C175.227 50.2773 175.645 50.1016 175.902 49.9297L176.312 49.6367L176.91 50.2344C176.863 50.3125 176.793 50.4219 176.699 50.5625C176.613 50.7031 176.402 50.9453 176.066 51.2891C175.73 51.6328 175.371 51.9375 174.988 52.2031C174.605 52.4609 174.09 52.6992 173.441 52.918C172.793 53.1289 172.109 53.2344 171.391 53.2344C169.648 53.2344 168.191 52.6523 167.02 51.4883C165.855 50.3164 165.273 48.8594 165.273 47.1172C165.273 45.2578 165.902 43.6953 167.16 42.4297C168.418 41.1562 169.949 40.5195 171.754 40.5195ZM194.652 39.3242C194.652 38.1523 194.387 37.2578 193.855 36.6406C193.332 36.0234 192.641 35.7148 191.781 35.7148C190.836 35.7148 190.043 36.1055 189.402 36.8867C188.762 37.6602 188.352 38.832 188.172 40.4023H186.742V35.8438C186.938 35.7188 187.207 35.5625 187.551 35.375C187.902 35.1875 188.594 34.9375 189.625 34.625C190.656 34.3125 191.652 34.1562 192.613 34.1562C194.645 34.1562 196.172 34.6016 197.195 35.4922C198.227 36.3828 198.742 37.5781 198.742 39.0781C198.742 39.7656 198.645 40.3906 198.449 40.9531C198.254 41.5156 197.875 42.1406 197.312 42.8281C196.758 43.5156 196.18 44.1523 195.578 44.7383C194.977 45.3164 194.07 46.1484 192.859 47.2344L189.379 50.3633H194.301C195.324 50.3633 196.102 50.0898 196.633 49.543C197.172 48.9961 197.594 48.0703 197.898 46.7656H199.34L198.496 53H185.898V51.0781L190.34 46.5195C191.207 45.6367 191.824 44.9883 192.191 44.5742C192.559 44.1602 192.977 43.6328 193.445 42.9922C193.914 42.3516 194.23 41.75 194.395 41.1875C194.566 40.6172 194.652 39.9961 194.652 39.3242ZM212.395 44C212.395 41.0859 212.043 38.9766 211.34 37.6719C210.637 36.3672 209.789 35.7148 208.797 35.7148C208.32 35.7148 207.875 35.8477 207.461 36.1133C207.055 36.3789 206.676 36.7969 206.324 37.3672C205.973 37.9297 205.695 38.7383 205.492 39.793C205.297 40.8398 205.199 42.082 205.199 43.5195C205.199 46.4336 205.551 48.543 206.254 49.8477C206.957 51.1523 207.805 51.8047 208.797 51.8047C209.273 51.8047 209.715 51.6719 210.121 51.4062C210.535 51.1406 210.918 50.7266 211.27 50.1641C211.621 49.5938 211.895 48.7852 212.09 47.7383C212.293 46.6836 212.395 45.4375 212.395 44ZM216.59 43.5195C216.59 46.4961 215.805 48.8828 214.234 50.6797C212.672 52.4688 210.738 53.3633 208.434 53.3633C206.254 53.3633 204.469 52.543 203.078 50.9023C201.688 49.2617 200.992 46.9609 200.992 44C200.992 41.0234 201.777 38.6406 203.348 36.8516C204.918 35.0547 206.852 34.1562 209.148 34.1562C211.328 34.1562 213.113 34.9766 214.504 36.6172C215.895 38.2578 216.59 40.5586 216.59 43.5195ZM230.16 44C230.16 41.0859 229.809 38.9766 229.105 37.6719C228.402 36.3672 227.555 35.7148 226.562 35.7148C226.086 35.7148 225.641 35.8477 225.227 36.1133C224.82 36.3789 224.441 36.7969 224.09 37.3672C223.738 37.9297 223.461 38.7383 223.258 39.793C223.062 40.8398 222.965 42.082 222.965 43.5195C222.965 46.4336 223.316 48.543 224.02 49.8477C224.723 51.1523 225.57 51.8047 226.562 51.8047C227.039 51.8047 227.48 51.6719 227.887 51.4062C228.301 51.1406 228.684 50.7266 229.035 50.1641C229.387 49.5938 229.66 48.7852 229.855 47.7383C230.059 46.6836 230.16 45.4375 230.16 44ZM234.355 43.5195C234.355 46.4961 233.57 48.8828 232 50.6797C230.438 52.4688 228.504 53.3633 226.199 53.3633C224.02 53.3633 222.234 52.543 220.844 50.9023C219.453 49.2617 218.758 46.9609 218.758 44C218.758 41.0234 219.543 38.6406 221.113 36.8516C222.684 35.0547 224.617 34.1562 226.914 34.1562C229.094 34.1562 230.879 34.9766 232.27 36.6172C233.66 38.2578 234.355 40.5586 234.355 43.5195ZM248.043 33.5586V49.8828C248.043 50.7656 248.152 51.3477 248.371 51.6289C248.598 51.9023 249.047 52.0391 249.719 52.0391V53H242.758V52.0391L244.445 51.6758V37.7656C244.445 36.8359 244.32 36.2031 244.07 35.8672C243.82 35.5312 243.383 35.3633 242.758 35.3633V34.4023C243.539 34.3711 244.371 34.2852 245.254 34.1445C246.137 33.9961 246.828 33.8672 247.328 33.7578L248.043 33.5586ZM255.859 40.4023V49.8828C255.859 50.7656 255.969 51.3477 256.188 51.6289C256.414 51.9023 256.863 52.0391 257.535 52.0391V53H250.574V52.0391L252.25 51.6758V44.5977C252.25 43.668 252.125 43.0352 251.875 42.6992C251.633 42.3633 251.199 42.1953 250.574 42.1953V41.2344C251.426 41.2031 252.289 41.1172 253.164 40.9766C254.047 40.8359 254.719 40.6992 255.18 40.5664L255.859 40.4023ZM255.414 35.0938C255.789 35.4766 255.977 35.9648 255.977 36.5586C255.977 37.1523 255.789 37.6406 255.414 38.0234C255.039 38.4062 254.547 38.5977 253.938 38.5977C253.328 38.5977 252.836 38.4062 252.461 38.0234C252.086 37.6406 251.898 37.1523 251.898 36.5586C251.898 35.9648 252.086 35.4766 252.461 35.0938C252.836 34.7109 253.328 34.5195 253.938 34.5195C254.547 34.5195 255.039 34.7109 255.414 35.0938ZM264.262 53.2344L259.82 43.8828C259.422 43.0312 259.051 42.457 258.707 42.1602C258.363 41.8633 257.895 41.7148 257.301 41.7148V40.7656H264.859V41.7148L262.949 42.0781L265.469 47.4805L265.82 48.9219H266.066L268.469 43.6367C268.625 43.2383 268.703 42.8789 268.703 42.5586C268.703 41.9961 268.145 41.7148 267.027 41.7148V40.7656H272.664V41.7148L270.988 42.0781L265.949 53.2344H264.262ZM278.078 44.3633V49.8828C278.078 50.7109 278.227 51.2773 278.523 51.582C278.828 51.8867 279.398 52.0391 280.234 52.0391V53H272.793V52.0391L274.469 51.6758V44.5977C274.469 43.668 274.344 43.0352 274.094 42.6992C273.852 42.3633 273.418 42.1953 272.793 42.1953V41.2344C273.496 41.2031 274.238 41.1289 275.02 41.0117C275.809 40.8945 276.41 40.7773 276.824 40.6602L277.469 40.5195L277.715 42.8047H277.949C277.996 42.7422 278.059 42.6602 278.137 42.5586C278.223 42.4492 278.406 42.2656 278.688 42.0078C278.969 41.75 279.25 41.5234 279.531 41.3281C279.82 41.125 280.18 40.9414 280.609 40.7773C281.047 40.6055 281.48 40.5195 281.91 40.5195C282.23 40.5195 282.543 40.5508 282.848 40.6133C283.152 40.6758 283.367 40.7422 283.492 40.8125L283.715 40.8828V45.1953H281.793L280.949 42.9219C280.418 42.9531 279.914 43.0898 279.438 43.332C278.961 43.5664 278.617 43.7969 278.406 44.0234L278.078 44.3633ZM288.52 46.6367C288.52 50.0742 289.48 51.7969 291.402 51.8047C292.137 51.8047 292.758 51.418 293.266 50.6445C293.781 49.8633 294.039 48.6875 294.039 47.1172C294.039 43.6797 293.082 41.9609 291.168 41.9609C290.434 41.9609 289.809 42.3477 289.293 43.1211C288.777 43.8945 288.52 45.0664 288.52 46.6367ZM297.883 46.7656C297.883 48.5859 297.234 50.1211 295.938 51.3711C294.641 52.6133 293.008 53.2344 291.039 53.2344C289.18 53.2344 287.656 52.6484 286.469 51.4766C285.281 50.2969 284.688 48.8047 284.688 47C284.688 45.1797 285.332 43.6445 286.621 42.3945C287.918 41.1445 289.551 40.5195 291.52 40.5195C293.379 40.5195 294.902 41.1094 296.09 42.2891C297.285 43.4688 297.883 44.9609 297.883 46.7656ZM306.168 50C306.168 49.6172 305.949 49.2617 305.512 48.9336C305.082 48.6055 304.562 48.3086 303.953 48.043C303.352 47.7773 302.746 47.4844 302.137 47.1641C301.527 46.8438 301.004 46.4141 300.566 45.875C300.137 45.3281 299.922 44.7031 299.922 44C299.922 42.9766 300.344 42.1406 301.188 41.4922C302.039 40.8438 303.297 40.5195 304.961 40.5195C305.633 40.5195 306.289 40.5938 306.93 40.7422C307.57 40.8828 308.043 41.0156 308.348 41.1406L308.805 41.3633V44.4805H307.609C307.43 43.582 307.152 42.9375 306.777 42.5469C306.402 42.1562 305.879 41.9609 305.207 41.9609C304.676 41.9609 304.262 42.0898 303.965 42.3477C303.676 42.5977 303.531 42.9102 303.531 43.2852C303.531 43.7148 303.746 44.0859 304.176 44.3984C304.605 44.7109 305.125 44.9805 305.734 45.207C306.344 45.4258 306.949 45.6758 307.551 45.957C308.16 46.2383 308.68 46.6523 309.109 47.1992C309.547 47.7383 309.766 48.3906 309.766 49.1562C309.766 50.2891 309.277 51.2539 308.301 52.0508C307.324 52.8398 305.973 53.2344 304.246 53.2344C303.434 53.2344 302.633 53.1562 301.844 53C301.062 52.8438 300.488 52.6836 300.121 52.5195L299.57 52.2852V48.5586H300.766C301.133 50.7148 302.215 51.7969 304.012 51.8047C304.652 51.8047 305.172 51.6289 305.57 51.2773C305.969 50.918 306.168 50.4922 306.168 50ZM323.453 40.4023V49.8828C323.453 50.7656 323.562 51.3477 323.781 51.6289C324.008 51.9023 324.457 52.0391 325.129 52.0391V53H318.168V52.0391L319.844 51.6758V44.5977C319.844 43.668 319.719 43.0352 319.469 42.6992C319.227 42.3633 318.793 42.1953 318.168 42.1953V41.2344C319.02 41.2031 319.883 41.1172 320.758 40.9766C321.641 40.8359 322.312 40.6992 322.773 40.5664L323.453 40.4023ZM323.008 35.0938C323.383 35.4766 323.57 35.9648 323.57 36.5586C323.57 37.1523 323.383 37.6406 323.008 38.0234C322.633 38.4062 322.141 38.5977 321.531 38.5977C320.922 38.5977 320.43 38.4062 320.055 38.0234C319.68 37.6406 319.492 37.1523 319.492 36.5586C319.492 35.9648 319.68 35.4766 320.055 35.0938C320.43 34.7109 320.922 34.5195 321.531 34.5195C322.141 34.5195 322.633 34.7109 323.008 35.0938ZM339.297 45.3242V49.8828C339.297 50.7656 339.406 51.3477 339.625 51.6289C339.852 51.9023 340.301 52.0391 340.973 52.0391V53H334.012V52.0391L335.688 51.6758V45.5586C335.688 43.957 335.008 43.1562 333.648 43.1562C333.266 43.1562 332.875 43.2461 332.477 43.4258C332.078 43.5977 331.773 43.7812 331.562 43.9766L331.258 44.2344V49.8828C331.258 50.7656 331.367 51.3477 331.586 51.6289C331.812 51.9023 332.262 52.0391 332.934 52.0391V53H325.973V52.0391L327.648 51.6758V44.5977C327.648 43.668 327.523 43.0352 327.273 42.6992C327.031 42.3633 326.598 42.1953 325.973 42.1953V41.2344C326.676 41.2031 327.418 41.1289 328.199 41.0117C328.988 40.8945 329.59 40.7773 330.004 40.6602L330.648 40.5195L330.895 42.8047H331.129C331.176 42.7422 331.238 42.6602 331.316 42.5586C331.402 42.4492 331.582 42.2656 331.855 42.0078C332.129 41.75 332.414 41.5234 332.711 41.3281C333.016 41.125 333.402 40.9414 333.871 40.7773C334.348 40.6055 334.836 40.5195 335.336 40.5195C336.523 40.5195 337.48 40.9414 338.207 41.7852C338.934 42.6211 339.297 43.8008 339.297 45.3242ZM343.492 51.6758V42.3242H341.699V41.1172L343.492 40.7656V37.6367C343.492 36.2461 343.883 35.1797 344.664 34.4375C345.453 33.6953 346.625 33.3242 348.18 33.3242C348.836 33.3242 349.535 33.4258 350.277 33.6289C351.02 33.8242 351.59 34.0234 351.988 34.2266L352.621 34.5195V37.8828H350.699L349.621 35.1172C349.301 35.0391 348.98 35 348.66 35C348.145 35 347.754 35.2031 347.488 35.6094C347.23 36.0156 347.102 36.7344 347.102 37.7656V40.7656H350.816V42.5586H349.621L347.102 42.0781V49.8828C347.102 50.7344 347.258 51.3086 347.57 51.6055C347.891 51.8945 348.531 52.0391 349.492 52.0391V53H341.816V52.0391L343.492 51.6758ZM362.207 44.8438V49.1562C362.207 50.0859 362.332 50.7188 362.582 51.0547C362.832 51.3906 363.266 51.5586 363.883 51.5586V52.5195C363.18 52.5508 362.438 52.6289 361.656 52.7539C360.875 52.8711 360.273 52.9844 359.852 53.0938L359.207 53.2344L358.973 50.9609H358.727C358.68 51.0234 358.613 51.1094 358.527 51.2188C358.449 51.3203 358.277 51.5 358.012 51.7578C357.754 52.0078 357.477 52.2344 357.18 52.4375C356.883 52.6328 356.5 52.8164 356.031 52.9883C355.57 53.1523 355.109 53.2344 354.648 53.2344C353.594 53.2344 352.77 52.9766 352.176 52.4609C351.582 51.9375 351.285 51.2773 351.285 50.4805C351.285 49.7617 351.535 49.1055 352.035 48.5117C352.543 47.918 353.156 47.4531 353.875 47.1172C354.602 46.7812 355.32 46.5 356.031 46.2734C356.742 46.0391 357.344 45.8828 357.836 45.8047L358.609 45.6758V45.0781C358.609 43.0781 357.891 42.0781 356.453 42.0781C356.242 42.0781 356.016 42.1055 355.773 42.1602C355.531 42.2148 355.34 42.2773 355.199 42.3477L355.012 42.4414L354.168 45.0781H352.246V41.7148C352.402 41.6211 352.629 41.5117 352.926 41.3867C353.223 41.2539 353.812 41.0781 354.695 40.8594C355.578 40.6328 356.441 40.5195 357.285 40.5195C358.871 40.5195 360.086 40.9062 360.93 41.6797C361.781 42.4453 362.207 43.5 362.207 44.8438ZM356.324 50.7148C356.707 50.7148 357.09 50.6172 357.473 50.4219C357.863 50.2188 358.145 50.0234 358.316 49.8359L358.609 49.5195V47C358.516 47.0156 358.387 47.0391 358.223 47.0703C358.066 47.1016 357.777 47.1914 357.355 47.3398C356.941 47.4805 356.574 47.6367 356.254 47.8086C355.934 47.9727 355.645 48.2109 355.387 48.5234C355.137 48.8359 355.012 49.168 355.012 49.5195C355.012 49.8867 355.125 50.1797 355.352 50.3984C355.586 50.6094 355.91 50.7148 356.324 50.7148ZM378.062 45.3242V49.8828C378.062 50.7656 378.172 51.3477 378.391 51.6289C378.617 51.9023 379.066 52.0391 379.738 52.0391V53H372.777V52.0391L374.453 51.6758V45.5586C374.453 43.957 373.773 43.1562 372.414 43.1562C372.031 43.1562 371.641 43.2461 371.242 43.4258C370.844 43.5977 370.539 43.7812 370.328 43.9766L370.023 44.2344V49.8828C370.023 50.7656 370.133 51.3477 370.352 51.6289C370.578 51.9023 371.027 52.0391 371.699 52.0391V53H364.738V52.0391L366.414 51.6758V44.5977C366.414 43.668 366.289 43.0352 366.039 42.6992C365.797 42.3633 365.363 42.1953 364.738 42.1953V41.2344C365.441 41.2031 366.184 41.1289 366.965 41.0117C367.754 40.8945 368.355 40.7773 368.77 40.6602L369.414 40.5195L369.66 42.8047H369.895C369.941 42.7422 370.004 42.6602 370.082 42.5586C370.168 42.4492 370.348 42.2656 370.621 42.0078C370.895 41.75 371.18 41.5234 371.477 41.3281C371.781 41.125 372.168 40.9414 372.637 40.7773C373.113 40.6055 373.602 40.5195 374.102 40.5195C375.289 40.5195 376.246 40.9414 376.973 41.7852C377.699 42.6211 378.062 43.8008 378.062 45.3242ZM380.23 42.3242V41.1172L382.152 40.7656V37.6367L385.023 36.6758H385.75V40.7656H389.582V42.6758H388.27L385.75 42.0781V49.1562C385.75 50.2734 386.309 50.8359 387.426 50.8438C387.809 50.8438 388.18 50.7852 388.539 50.668C388.898 50.543 389.16 50.4258 389.324 50.3164L389.582 50.1172L390.062 50.8438C390.016 50.9062 389.953 50.9961 389.875 51.1133C389.797 51.2227 389.621 51.4141 389.348 51.6875C389.074 51.9531 388.785 52.1914 388.48 52.4023C388.176 52.6055 387.785 52.7969 387.309 52.9766C386.84 53.1484 386.359 53.2344 385.867 53.2344C384.664 53.2344 383.742 52.918 383.102 52.2852C382.469 51.6445 382.152 50.7227 382.152 49.5195V42.3242H380.23ZM396.203 40.4023V49.8828C396.203 50.7656 396.312 51.3477 396.531 51.6289C396.758 51.9023 397.207 52.0391 397.879 52.0391V53H390.918V52.0391L392.594 51.6758V44.5977C392.594 43.668 392.469 43.0352 392.219 42.6992C391.977 42.3633 391.543 42.1953 390.918 42.1953V41.2344C391.77 41.2031 392.633 41.1172 393.508 40.9766C394.391 40.8359 395.062 40.6992 395.523 40.5664L396.203 40.4023ZM395.758 35.0938C396.133 35.4766 396.32 35.9648 396.32 36.5586C396.32 37.1523 396.133 37.6406 395.758 38.0234C395.383 38.4062 394.891 38.5977 394.281 38.5977C393.672 38.5977 393.18 38.4062 392.805 38.0234C392.43 37.6406 392.242 37.1523 392.242 36.5586C392.242 35.9648 392.43 35.4766 392.805 35.0938C393.18 34.7109 393.672 34.5195 394.281 34.5195C394.891 34.5195 395.383 34.7109 395.758 35.0938ZM405.684 50C405.684 49.6172 405.465 49.2617 405.027 48.9336C404.598 48.6055 404.078 48.3086 403.469 48.043C402.867 47.7773 402.262 47.4844 401.652 47.1641C401.043 46.8438 400.52 46.4141 400.082 45.875C399.652 45.3281 399.438 44.7031 399.438 44C399.438 42.9766 399.859 42.1406 400.703 41.4922C401.555 40.8438 402.812 40.5195 404.477 40.5195C405.148 40.5195 405.805 40.5938 406.445 40.7422C407.086 40.8828 407.559 41.0156 407.863 41.1406L408.32 41.3633V44.4805H407.125C406.945 43.582 406.668 42.9375 406.293 42.5469C405.918 42.1562 405.395 41.9609 404.723 41.9609C404.191 41.9609 403.777 42.0898 403.48 42.3477C403.191 42.5977 403.047 42.9102 403.047 43.2852C403.047 43.7148 403.262 44.0859 403.691 44.3984C404.121 44.7109 404.641 44.9805 405.25 45.207C405.859 45.4258 406.465 45.6758 407.066 45.957C407.676 46.2383 408.195 46.6523 408.625 47.1992C409.062 47.7383 409.281 48.3906 409.281 49.1562C409.281 50.2891 408.793 51.2539 407.816 52.0508C406.84 52.8398 405.488 53.2344 403.762 53.2344C402.949 53.2344 402.148 53.1562 401.359 53C400.578 52.8438 400.004 52.6836 399.637 52.5195L399.086 52.2852V48.5586H400.281C400.648 50.7148 401.73 51.7969 403.527 51.8047C404.168 51.8047 404.688 51.6289 405.086 51.2773C405.484 50.918 405.684 50.4922 405.684 50ZM424.645 50C424.645 49.6172 424.426 49.2617 423.988 48.9336C423.559 48.6055 423.039 48.3086 422.43 48.043C421.828 47.7773 421.223 47.4844 420.613 47.1641C420.004 46.8438 419.48 46.4141 419.043 45.875C418.613 45.3281 418.398 44.7031 418.398 44C418.398 42.9766 418.82 42.1406 419.664 41.4922C420.516 40.8438 421.773 40.5195 423.438 40.5195C424.109 40.5195 424.766 40.5938 425.406 40.7422C426.047 40.8828 426.52 41.0156 426.824 41.1406L427.281 41.3633V44.4805H426.086C425.906 43.582 425.629 42.9375 425.254 42.5469C424.879 42.1562 424.355 41.9609 423.684 41.9609C423.152 41.9609 422.738 42.0898 422.441 42.3477C422.152 42.5977 422.008 42.9102 422.008 43.2852C422.008 43.7148 422.223 44.0859 422.652 44.3984C423.082 44.7109 423.602 44.9805 424.211 45.207C424.82 45.4258 425.426 45.6758 426.027 45.957C426.637 46.2383 427.156 46.6523 427.586 47.1992C428.023 47.7383 428.242 48.3906 428.242 49.1562C428.242 50.2891 427.754 51.2539 426.777 52.0508C425.801 52.8398 424.449 53.2344 422.723 53.2344C421.91 53.2344 421.109 53.1562 420.32 53C419.539 52.8438 418.965 52.6836 418.598 52.5195L418.047 52.2852V48.5586H419.242C419.609 50.7148 420.691 51.7969 422.488 51.8047C423.129 51.8047 423.648 51.6289 424.047 51.2773C424.445 50.918 424.645 50.4922 424.645 50ZM436.164 42.0781C435.586 42.0781 435.086 42.3555 434.664 42.9102C434.242 43.457 433.941 44.3008 433.762 45.4414L437.969 45.0781V44.4805C437.969 43.7305 437.797 43.1445 437.453 42.7227C437.109 42.293 436.68 42.0781 436.164 42.0781ZM436.41 40.5195C438.027 40.5195 439.293 40.9727 440.207 41.8789C441.129 42.7773 441.621 44.043 441.684 45.6758L440.488 46.7656H433.762C433.824 48.0781 434.172 49.0664 434.805 49.7305C435.438 50.3867 436.332 50.7148 437.488 50.7148C438.129 50.7148 438.734 50.6289 439.305 50.457C439.883 50.2773 440.301 50.1016 440.559 49.9297L440.969 49.6367L441.566 50.2344C441.52 50.3125 441.449 50.4219 441.355 50.5625C441.27 50.7031 441.059 50.9453 440.723 51.2891C440.387 51.6328 440.027 51.9375 439.645 52.2031C439.262 52.4609 438.746 52.6992 438.098 52.918C437.449 53.1289 436.766 53.2344 436.047 53.2344C434.305 53.2344 432.848 52.6523 431.676 51.4883C430.512 50.3164 429.93 48.8594 429.93 47.1172C429.93 45.2578 430.559 43.6953 431.816 42.4297C433.074 41.1562 434.605 40.5195 436.41 40.5195ZM451.047 46.4023L453.566 50C454.16 50.8281 454.621 51.375 454.949 51.6406C455.285 51.9062 455.742 52.0391 456.32 52.0391V53H449.242V52.0391L450.684 51.6758L448.398 48.4414L446.84 50.3633C446.52 50.6836 446.359 51.0039 446.359 51.3242C446.359 51.5195 446.457 51.6875 446.652 51.8281C446.855 51.9688 447.16 52.0391 447.566 52.0391V53H442.281V52.0391L443.84 51.6758L447.438 47.1172L445.047 43.7656C444.438 42.9375 443.973 42.3906 443.652 42.125C443.332 41.8516 442.914 41.7148 442.398 41.7148V40.7656H449.359V41.7148L447.918 42.0781L450.086 45.0781L451.398 43.4023C451.719 43.0039 451.879 42.6836 451.879 42.4414C451.879 42.2461 451.777 42.0781 451.574 41.9375C451.379 41.7891 451.082 41.7148 450.684 41.7148V40.7656H455.957V41.7148L454.398 42.0781L451.047 46.4023ZM462.086 40.4023V49.8828C462.086 50.7656 462.195 51.3477 462.414 51.6289C462.641 51.9023 463.09 52.0391 463.762 52.0391V53H456.801V52.0391L458.477 51.6758V44.5977C458.477 43.668 458.352 43.0352 458.102 42.6992C457.859 42.3633 457.426 42.1953 456.801 42.1953V41.2344C457.652 41.2031 458.516 41.1172 459.391 40.9766C460.273 40.8359 460.945 40.6992 461.406 40.5664L462.086 40.4023ZM461.641 35.0938C462.016 35.4766 462.203 35.9648 462.203 36.5586C462.203 37.1523 462.016 37.6406 461.641 38.0234C461.266 38.4062 460.773 38.5977 460.164 38.5977C459.555 38.5977 459.062 38.4062 458.688 38.0234C458.312 37.6406 458.125 37.1523 458.125 36.5586C458.125 35.9648 458.312 35.4766 458.688 35.0938C459.062 34.7109 459.555 34.5195 460.164 34.5195C460.773 34.5195 461.266 34.7109 461.641 35.0938ZM471.566 50C471.566 49.6172 471.348 49.2617 470.91 48.9336C470.48 48.6055 469.961 48.3086 469.352 48.043C468.75 47.7773 468.145 47.4844 467.535 47.1641C466.926 46.8438 466.402 46.4141 465.965 45.875C465.535 45.3281 465.32 44.7031 465.32 44C465.32 42.9766 465.742 42.1406 466.586 41.4922C467.438 40.8438 468.695 40.5195 470.359 40.5195C471.031 40.5195 471.688 40.5938 472.328 40.7422C472.969 40.8828 473.441 41.0156 473.746 41.1406L474.203 41.3633V44.4805H473.008C472.828 43.582 472.551 42.9375 472.176 42.5469C471.801 42.1562 471.277 41.9609 470.605 41.9609C470.074 41.9609 469.66 42.0898 469.363 42.3477C469.074 42.5977 468.93 42.9102 468.93 43.2852C468.93 43.7148 469.145 44.0859 469.574 44.3984C470.004 44.7109 470.523 44.9805 471.133 45.207C471.742 45.4258 472.348 45.6758 472.949 45.957C473.559 46.2383 474.078 46.6523 474.508 47.1992C474.945 47.7383 475.164 48.3906 475.164 49.1562C475.164 50.2891 474.676 51.2539 473.699 52.0508C472.723 52.8398 471.371 53.2344 469.645 53.2344C468.832 53.2344 468.031 53.1562 467.242 53C466.461 52.8438 465.887 52.6836 465.52 52.5195L464.969 52.2852V48.5586H466.164C466.531 50.7148 467.613 51.7969 469.41 51.8047C470.051 51.8047 470.57 51.6289 470.969 51.2773C471.367 50.918 471.566 50.4922 471.566 50ZM476.371 42.3242V41.1172L478.293 40.7656V37.6367L481.164 36.6758H481.891V40.7656H485.723V42.6758H484.41L481.891 42.0781V49.1562C481.891 50.2734 482.449 50.8359 483.566 50.8438C483.949 50.8438 484.32 50.7852 484.68 50.668C485.039 50.543 485.301 50.4258 485.465 50.3164L485.723 50.1172L486.203 50.8438C486.156 50.9062 486.094 50.9961 486.016 51.1133C485.938 51.2227 485.762 51.4141 485.488 51.6875C485.215 51.9531 484.926 52.1914 484.621 52.4023C484.316 52.6055 483.926 52.7969 483.449 52.9766C482.98 53.1484 482.5 53.2344 482.008 53.2344C480.805 53.2344 479.883 52.918 479.242 52.2852C478.609 51.6445 478.293 50.7227 478.293 49.5195V42.3242H476.371ZM498.098 44.8438V49.1562C498.098 50.0859 498.223 50.7188 498.473 51.0547C498.723 51.3906 499.156 51.5586 499.773 51.5586V52.5195C499.07 52.5508 498.328 52.6289 497.547 52.7539C496.766 52.8711 496.164 52.9844 495.742 53.0938L495.098 53.2344L494.863 50.9609H494.617C494.57 51.0234 494.504 51.1094 494.418 51.2188C494.34 51.3203 494.168 51.5 493.902 51.7578C493.645 52.0078 493.367 52.2344 493.07 52.4375C492.773 52.6328 492.391 52.8164 491.922 52.9883C491.461 53.1523 491 53.2344 490.539 53.2344C489.484 53.2344 488.66 52.9766 488.066 52.4609C487.473 51.9375 487.176 51.2773 487.176 50.4805C487.176 49.7617 487.426 49.1055 487.926 48.5117C488.434 47.918 489.047 47.4531 489.766 47.1172C490.492 46.7812 491.211 46.5 491.922 46.2734C492.633 46.0391 493.234 45.8828 493.727 45.8047L494.5 45.6758V45.0781C494.5 43.0781 493.781 42.0781 492.344 42.0781C492.133 42.0781 491.906 42.1055 491.664 42.1602C491.422 42.2148 491.23 42.2773 491.09 42.3477L490.902 42.4414L490.059 45.0781H488.137V41.7148C488.293 41.6211 488.52 41.5117 488.816 41.3867C489.113 41.2539 489.703 41.0781 490.586 40.8594C491.469 40.6328 492.332 40.5195 493.176 40.5195C494.762 40.5195 495.977 40.9062 496.82 41.6797C497.672 42.4453 498.098 43.5 498.098 44.8438ZM492.215 50.7148C492.598 50.7148 492.98 50.6172 493.363 50.4219C493.754 50.2188 494.035 50.0234 494.207 49.8359L494.5 49.5195V47C494.406 47.0156 494.277 47.0391 494.113 47.0703C493.957 47.1016 493.668 47.1914 493.246 47.3398C492.832 47.4805 492.465 47.6367 492.145 47.8086C491.824 47.9727 491.535 48.2109 491.277 48.5234C491.027 48.8359 490.902 49.168 490.902 49.5195C490.902 49.8867 491.016 50.1797 491.242 50.3984C491.477 50.6094 491.801 50.7148 492.215 50.7148ZM507.59 50C507.59 49.6172 507.371 49.2617 506.934 48.9336C506.504 48.6055 505.984 48.3086 505.375 48.043C504.773 47.7773 504.168 47.4844 503.559 47.1641C502.949 46.8438 502.426 46.4141 501.988 45.875C501.559 45.3281 501.344 44.7031 501.344 44C501.344 42.9766 501.766 42.1406 502.609 41.4922C503.461 40.8438 504.719 40.5195 506.383 40.5195C507.055 40.5195 507.711 40.5938 508.352 40.7422C508.992 40.8828 509.465 41.0156 509.77 41.1406L510.227 41.3633V44.4805H509.031C508.852 43.582 508.574 42.9375 508.199 42.5469C507.824 42.1562 507.301 41.9609 506.629 41.9609C506.098 41.9609 505.684 42.0898 505.387 42.3477C505.098 42.5977 504.953 42.9102 504.953 43.2852C504.953 43.7148 505.168 44.0859 505.598 44.3984C506.027 44.7109 506.547 44.9805 507.156 45.207C507.766 45.4258 508.371 45.6758 508.973 45.957C509.582 46.2383 510.102 46.6523 510.531 47.1992C510.969 47.7383 511.188 48.3906 511.188 49.1562C511.188 50.2891 510.699 51.2539 509.723 52.0508C508.746 52.8398 507.395 53.2344 505.668 53.2344C504.855 53.2344 504.055 53.1562 503.266 53C502.484 52.8438 501.91 52.6836 501.543 52.5195L500.992 52.2852V48.5586H502.188C502.555 50.7148 503.637 51.7969 505.434 51.8047C506.074 51.8047 506.594 51.6289 506.992 51.2773C507.391 50.918 507.59 50.4922 507.59 50Z" fill="white"/>
</svg>
