<svg width="137" height="26" viewBox="0 0 137 26" fill="none" xmlns="http://www.w3.org/2000/svg">
<path d="M0.692383 24.2529L0.577707 23.7663L0.192383 23.8571V24.2529H0.692383ZM3.24121 23.6523L3.35589 24.139L3.74121 24.0482V23.6523H3.24121ZM2.75781 3.33496L2.37959 3.66207L2.38466 3.66777L2.75781 3.33496ZM0.692383 2.79297H0.192383V3.29297H0.692383V2.79297ZM0.692383 1.89941V1.39941H0.192383V1.89941H0.692383ZM17.0547 1.89941H17.5547V1.39941H17.0547V1.89941ZM17.0547 7.74414V8.24414H17.5547V7.74414H17.0547ZM16 7.74414H15.5V8.24414H16V7.74414ZM15.1797 4.16992L14.803 4.4988L14.8086 4.50507L15.1797 4.16992ZM5.95117 3.24707V2.74707H5.45117V3.24707H5.95117ZM5.95117 12.5488H5.45117V13.0488H5.95117V12.5488ZM12.1035 9.70703V9.20703H11.6035V9.70703H12.1035ZM13.1436 9.70703H13.6436V9.20703H13.1436V9.70703ZM13.1436 17.207V17.707H13.6436V17.207H13.1436ZM12.1035 17.207H11.6035V17.707H12.1035V17.207ZM11.5029 14.5557L11.1333 14.8924L11.1371 14.8965L11.5029 14.5557ZM5.95117 13.8965V13.3965H5.45117V13.8965H5.95117ZM6.58105 23.5645L6.90718 23.1854L6.58105 23.5645ZM9.55469 24.1064H10.0547V23.6064H9.55469V24.1064ZM9.55469 25V25.5H10.0547V25H9.55469ZM0.692383 25H0.192383V25.5H0.692383V25ZM0.807058 24.7396L3.35589 24.139L3.12654 23.1657L0.577707 23.7663L0.807058 24.7396ZM3.74121 23.6523V5.7959H2.74121V23.6523H3.74121ZM3.74121 5.7959C3.74121 5.13898 3.70014 4.57871 3.61099 4.12482C3.52413 3.68266 3.38075 3.28222 3.13096 3.00215L2.38466 3.66777C2.45715 3.74903 2.55546 3.93941 2.62974 4.31756C2.70171 4.68398 2.74121 5.17352 2.74121 5.7959H3.74121ZM3.13599 3.00788C2.88865 2.72189 2.53073 2.54895 2.13399 2.44484C1.73333 2.3397 1.24852 2.29297 0.692383 2.29297V3.29297C1.2007 3.29297 1.59236 3.33657 1.88017 3.41209C2.17191 3.48865 2.31448 3.5867 2.37963 3.66204L3.13599 3.00788ZM1.19238 2.79297V1.89941H0.192383V2.79297H1.19238ZM0.692383 2.39941H17.0547V1.39941H0.692383V2.39941ZM16.5547 1.89941V7.74414H17.5547V1.89941H16.5547ZM17.0547 7.24414H16V8.24414H17.0547V7.24414ZM16.5 7.74414C16.5 6.83319 16.4302 6.05056 16.2823 5.40573C16.1352 4.76515 15.9029 4.22466 15.5507 3.83478L14.8086 4.50507C15.0034 4.72066 15.1812 5.0786 15.3076 5.62942C15.433 6.17601 15.5 6.87775 15.5 7.74414H16.5ZM15.5563 3.84109C14.8691 3.05386 13.6483 2.74707 12.1035 2.74707V3.74707C13.5861 3.74707 14.4161 4.05551 14.803 4.49875L15.5563 3.84109ZM12.1035 2.74707H5.95117V3.74707H12.1035V2.74707ZM5.45117 3.24707V12.5488H6.45117V3.24707H5.45117ZM5.95117 13.0488H9.10059V12.0488H5.95117V13.0488ZM9.10059 13.0488C9.75915 13.0488 10.3225 13.0039 10.7801 12.9059C11.2276 12.81 11.631 12.6515 11.9102 12.3798L11.2128 11.6631C11.1308 11.743 10.9433 11.8482 10.5705 11.9281C10.2077 12.0058 9.72131 12.0488 9.10059 12.0488V13.0488ZM11.9102 12.3798C12.188 12.1095 12.3542 11.7232 12.4548 11.2932C12.5571 10.8564 12.6035 10.324 12.6035 9.70703H11.6035C11.6035 10.2815 11.5596 10.7305 11.4812 11.0652C11.4012 11.4067 11.2964 11.5819 11.2128 11.6631L11.9102 12.3798ZM12.1035 10.207H13.1436V9.20703H12.1035V10.207ZM12.6436 9.70703V17.207H13.6436V9.70703H12.6436ZM13.1436 16.707H12.1035V17.707H13.1436V16.707ZM12.6035 17.207C12.6035 16.5167 12.5522 15.9212 12.441 15.4303C12.3311 14.9451 12.1534 14.5203 11.8687 14.2148L11.1371 14.8965C11.2529 15.0207 11.3754 15.2527 11.4657 15.6512C11.5547 16.0442 11.6035 16.5594 11.6035 17.207H12.6035ZM11.8725 14.2189C11.3171 13.6093 10.3168 13.3965 9.10059 13.3965V14.3965C10.2867 14.3965 10.888 14.6231 11.1333 14.8924L11.8725 14.2189ZM9.10059 13.3965H5.95117V14.3965H9.10059V13.3965ZM5.45117 13.8965V21.1035H6.45117V13.8965H5.45117ZM5.45117 21.1035C5.45117 21.766 5.50507 22.3366 5.62426 22.8022C5.74207 23.2625 5.93621 23.6692 6.25493 23.9435L6.90718 23.1854C6.80598 23.0984 6.68518 22.9143 6.59303 22.5542C6.50225 22.1996 6.45117 21.7203 6.45117 21.1035H5.45117ZM6.25493 23.9435C6.56748 24.2124 7.02787 24.3677 7.54975 24.4628C8.0864 24.5607 8.75784 24.6064 9.55469 24.6064V23.6064C8.78903 23.6064 8.18362 23.5619 7.72906 23.4791C7.25973 23.3935 7.01455 23.2778 6.90718 23.1854L6.25493 23.9435ZM9.05469 24.1064V25H10.0547V24.1064H9.05469ZM9.55469 24.5H0.692383V25.5H9.55469V24.5ZM1.19238 25V24.2529H0.192383V25H1.19238ZM24.9941 3.24707L24.8795 2.7604L24.4941 2.85119V3.24707H24.9941ZM25.4629 23.5498L25.0804 23.8719L25.0854 23.8776L25.4629 23.5498ZM27.543 24.1064H28.043V23.6064H27.543V24.1064ZM27.543 25V25.5H28.043V25H27.543ZM19.7354 25H19.2354V25.5H19.7354V25ZM19.7354 24.2529L19.6207 23.7663L19.2354 23.8571V24.2529H19.7354ZM22.2842 23.6523L22.3989 24.139L22.7842 24.0482V23.6523H22.2842ZM21.8008 3.34961L21.4183 3.67171L21.4233 3.67745L21.8008 3.34961ZM19.7354 2.79297H19.2354V3.29297H19.7354V2.79297ZM19.7354 1.89941V1.39941H19.2354V1.89941H19.7354ZM27.543 1.89941H28.043V1.39941H27.543V1.89941ZM27.543 2.64648L27.6576 3.13316L28.043 3.04236V2.64648H27.543ZM24.4941 3.24707V21.1035H25.4941V3.24707H24.4941ZM24.4941 21.1035C24.4941 21.7506 24.534 22.3038 24.6203 22.754C24.7045 23.1935 24.8427 23.5896 25.0804 23.8719L25.8453 23.2277C25.7706 23.1389 25.6744 22.9418 25.6024 22.5658C25.5324 22.2006 25.4941 21.7162 25.4941 21.1035H24.4941ZM25.0854 23.8776C25.3356 24.1658 25.6944 24.343 26.0954 24.4503C26.4992 24.5584 26.986 24.6064 27.543 24.6064V23.6064C27.0355 23.6064 26.6434 23.5618 26.3539 23.4843C26.0614 23.406 25.9124 23.3049 25.8404 23.222L25.0854 23.8776ZM27.043 24.1064V25H28.043V24.1064H27.043ZM27.543 24.5H19.7354V25.5H27.543V24.5ZM20.2354 25V24.2529H19.2354V25H20.2354ZM19.85 24.7396L22.3989 24.139L22.1695 23.1657L19.6207 23.7663L19.85 24.7396ZM22.7842 23.6523V5.7959H21.7842V23.6523H22.7842ZM22.7842 5.7959C22.7842 5.14828 22.7431 4.59404 22.6538 4.14257C22.5667 3.7014 22.4235 3.30407 22.1783 3.02177L21.4233 3.67745C21.5004 3.76624 21.5989 3.96217 21.6728 4.33643C21.7447 4.70039 21.7842 5.18375 21.7842 5.7959H22.7842ZM22.1832 3.02754C21.937 2.73514 21.579 2.55684 21.1802 2.44935C20.7782 2.34102 20.2922 2.29297 19.7354 2.29297V3.29297C20.243 3.29297 20.6334 3.33769 20.9199 3.4149C21.2096 3.49297 21.3521 3.59299 21.4183 3.67168L22.1832 3.02754ZM20.2354 2.79297V1.89941H19.2354V2.79297H20.2354ZM19.7354 2.39941H27.543V1.39941H19.7354V2.39941ZM27.043 1.89941V2.64648H28.043V1.89941H27.043ZM27.4283 2.15981L24.8795 2.7604L25.1088 3.73374L27.6576 3.13316L27.4283 2.15981ZM36.1855 5.51758L35.8065 5.19151L35.8064 5.19168L36.1855 5.51758ZM36.127 21.2646L35.7363 21.5768L35.7373 21.578L36.127 21.2646ZM44.3594 23.9307L44.4394 24.4242L44.4448 24.4233L44.3594 23.9307ZM45.8828 23.5645L46.074 24.0265L46.0936 24.0183L46.1125 24.0086L45.8828 23.5645ZM46.3076 23.3447L46.5373 23.7888L46.8076 23.649V23.3447H46.3076ZM45.7363 15.3467L45.3922 15.7094L45.3972 15.7141L45.7363 15.3467ZM43.1582 14.8047H42.6582V15.3047H43.1582V14.8047ZM43.1582 13.8965V13.3965H42.6582V13.8965H43.1582ZM50.9512 13.8965H51.4512V13.3965H50.9512V13.8965ZM50.9512 14.8047L51.0612 15.2924L51.4512 15.2045V14.8047H50.9512ZM49.0029 15.2441L48.8929 14.7564L48.5029 14.8444V15.2441H49.0029ZM49.0029 23.6523L49.2897 24.062L49.5029 23.9127V23.6523H49.0029ZM48.124 24.165L48.3477 24.6123L48.3564 24.6077L48.124 24.165ZM45.5752 24.9561L45.4522 24.4714L45.4514 24.4716L45.5752 24.9561ZM33.8271 22.1582L33.4633 22.5011L33.464 22.5019L33.8271 22.1582ZM34.1641 4.97559L33.8076 4.625L33.8068 4.62576L34.1641 4.97559ZM45.9854 1.79688L45.8778 2.28521L45.883 2.28629L45.9854 1.79688ZM48.373 2.4707L48.174 2.92943L48.1814 2.9325L48.373 2.4707ZM49.1494 2.79297H49.6494V2.45915L49.3411 2.33117L49.1494 2.79297ZM49.1494 8.50586V9.00586H49.6494V8.50586H49.1494ZM48.4023 8.50586L47.9085 8.58436L47.9756 9.00586H48.4023V8.50586ZM42.25 2.29297C39.6298 2.29297 37.4677 3.2603 35.8065 5.19151L36.5646 5.84364C38.0283 4.14204 39.9093 3.29297 42.25 3.29297V2.29297ZM35.8064 5.19168C34.1506 7.11817 33.3564 9.79366 33.3564 13.1494H34.3564C34.3564 9.94267 35.115 7.53027 36.5647 5.84348L35.8064 5.19168ZM33.3564 13.1494C33.3564 16.729 34.1261 19.5614 35.7363 21.5768L36.5176 20.9525C35.1004 19.1788 34.3564 16.6011 34.3564 13.1494H33.3564ZM35.7373 21.578C37.3525 23.5866 39.4373 24.6064 41.957 24.6064V23.6064C39.7502 23.6064 37.9483 22.7318 36.5166 20.9513L35.7373 21.578ZM41.957 24.6064C42.8576 24.6064 43.6857 24.5464 44.4394 24.4242L44.2793 23.4371C43.5878 23.5493 42.8143 23.6064 41.957 23.6064V24.6064ZM44.4448 24.4233C45.1767 24.2964 45.7342 24.1671 46.074 24.0265L45.6916 23.1024C45.4651 23.1962 45.0069 23.311 44.274 23.438L44.4448 24.4233ZM46.1125 24.0086L46.5373 23.7888L46.0779 22.9006L45.6531 23.1203L46.1125 24.0086ZM46.8076 23.3447V17.793H45.8076V23.3447H46.8076ZM46.8076 17.793C46.8076 17.1329 46.7589 16.5673 46.6517 16.1082C46.5465 15.6578 46.372 15.253 46.0755 14.9793L45.3972 15.7141C45.4815 15.7919 45.5927 15.9706 45.6779 16.3356C45.7611 16.692 45.8076 17.1738 45.8076 17.793H46.8076ZM46.0805 14.9839C45.7916 14.7099 45.375 14.5488 44.909 14.4509C44.4328 14.3508 43.8458 14.3047 43.1582 14.3047V15.3047C43.8085 15.3047 44.3201 15.3489 44.7033 15.4295C45.0967 15.5122 45.3002 15.6221 45.3922 15.7094L46.0805 14.9839ZM43.6582 14.8047V13.8965H42.6582V14.8047H43.6582ZM43.1582 14.3965H50.9512V13.3965H43.1582V14.3965ZM50.4512 13.8965V14.8047H51.4512V13.8965H50.4512ZM50.8412 14.3169L48.8929 14.7564L49.1129 15.7319L51.0612 15.2924L50.8412 14.3169ZM48.5029 15.2441V23.6523H49.5029V15.2441H48.5029ZM48.7162 23.2427C48.5471 23.3611 48.2764 23.5203 47.8916 23.7223L48.3564 24.6077C48.7529 24.3996 49.0681 24.217 49.2897 24.062L48.7162 23.2427ZM47.9004 23.7178C47.5665 23.8848 46.771 24.1368 45.4522 24.4714L45.6982 25.4407C46.9966 25.1112 47.9003 24.8359 48.3476 24.6123L47.9004 23.7178ZM45.4514 24.4716C44.1952 24.7928 42.8795 24.9541 41.5029 24.9541V25.9541C42.9584 25.9541 44.3575 25.7834 45.699 25.4405L45.4514 24.4716ZM41.5029 24.9541C38.6026 24.9541 36.1755 23.9116 34.1903 21.8145L33.464 22.5019C35.639 24.7994 38.329 25.9541 41.5029 25.9541V24.9541ZM34.191 21.8153C32.2092 19.7125 31.207 17.0376 31.207 13.75H30.207C30.207 17.2593 31.285 20.1899 33.4633 22.5011L34.191 21.8153ZM31.207 13.75C31.207 10.3758 32.3142 7.57933 34.5213 5.32541L33.8068 4.62576C31.4046 7.07888 30.207 10.132 30.207 13.75H31.207ZM34.5206 5.32617C36.7386 3.07075 39.4557 1.94531 42.7041 1.94531V0.945312C39.1947 0.945312 36.2185 2.1734 33.8076 4.625L34.5206 5.32617ZM42.7041 1.94531C43.7921 1.94531 44.8498 2.05881 45.8778 2.28518L46.0929 1.30857C44.992 1.06619 43.8622 0.945312 42.7041 0.945312V1.94531ZM45.883 2.28629C46.9489 2.50917 47.7044 2.7256 48.174 2.92938L48.5721 2.01203C48.0065 1.76659 47.1702 1.5338 46.0877 1.30746L45.883 2.28629ZM48.1814 2.9325L48.9577 3.25476L49.3411 2.33117L48.5647 2.00891L48.1814 2.9325ZM48.6494 2.79297V8.50586H49.6494V2.79297H48.6494ZM49.1494 8.00586H48.4023V9.00586H49.1494V8.00586ZM48.8961 8.42736C48.5824 6.45381 47.8838 4.90724 46.7504 3.85479C45.611 2.79676 44.0914 2.29297 42.25 2.29297V3.29297C43.9047 3.29297 45.1586 3.74133 46.0699 4.58759C46.9873 5.43944 47.6168 6.74931 47.9085 8.58436L48.8961 8.42736ZM70.2725 3.34961L69.89 3.67171L69.8949 3.67745L70.2725 3.34961ZM68.207 2.79297H67.707V3.29297H68.207V2.79297ZM68.207 1.89941V1.39941H67.707V1.89941H68.207ZM75.1064 1.89941H75.6064V1.39941H75.1064V1.89941ZM75.1064 2.64648L75.2211 3.13316L75.6064 3.04236V2.64648H75.1064ZM72.5576 3.24707L72.4429 2.7604L72.0576 2.85119V3.24707H72.5576ZM70.5068 23.4619L70.8552 23.8206L70.8565 23.8193L70.5068 23.4619ZM58.4512 23.4912L58.1079 23.8548L58.1106 23.8572L58.4512 23.4912ZM55.873 3.34961L55.4905 3.67171L55.4955 3.67745L55.873 3.34961ZM53.8076 2.79297H53.3076V3.29297H53.8076V2.79297ZM53.8076 1.89941V1.39941H53.3076V1.89941H53.8076ZM61.6152 1.89941H62.1152V1.39941H61.6152V1.89941ZM61.6152 2.64648L61.7299 3.13316L62.1152 3.04236V2.64648H61.6152ZM59.0664 3.24707L58.9517 2.7604L58.5664 2.85119V3.24707H59.0664ZM71.2559 18.1006V5.7959H70.2559V18.1006H71.2559ZM71.2559 5.7959C71.2559 5.14828 71.2147 4.59404 71.1255 4.14257C71.0383 3.7014 70.8951 3.30407 70.65 3.02177L69.8949 3.67745C69.9721 3.76624 70.0705 3.96217 70.1445 4.33643C70.2164 4.70039 70.2559 5.18375 70.2559 5.7959H71.2559ZM70.6549 3.02754C70.4087 2.73514 70.0506 2.55684 69.6518 2.44935C69.2499 2.34102 68.7639 2.29297 68.207 2.29297V3.29297C68.7147 3.29297 69.1051 3.33769 69.3916 3.4149C69.6813 3.49297 69.8237 3.59299 69.89 3.67168L70.6549 3.02754ZM68.707 2.79297V1.89941H67.707V2.79297H68.707ZM68.207 2.39941H75.1064V1.39941H68.207V2.39941ZM74.6064 1.89941V2.64648H75.6064V1.89941H74.6064ZM74.9918 2.15981L72.4429 2.7604L72.6723 3.73374L75.2211 3.13316L74.9918 2.15981ZM72.0576 3.24707V17.793H73.0576V3.24707H72.0576ZM72.0576 17.793C72.0576 20.139 71.4034 21.8849 70.1571 23.1046L70.8565 23.8193C72.3446 22.3631 73.0576 20.3298 73.0576 17.793H72.0576ZM70.1584 23.1033C68.9164 24.3098 67.0454 24.9541 64.457 24.9541V25.9541C67.2007 25.9541 69.3629 25.2703 70.8552 23.8206L70.1584 23.1033ZM64.457 24.9541C61.9405 24.9541 60.077 24.3211 58.7918 23.1252L58.1106 23.8572C59.6379 25.2785 61.7783 25.9541 64.457 25.9541V24.9541ZM58.7944 23.1276C57.5164 21.9211 56.8564 20.266 56.8564 18.1006H55.8564C55.8564 20.486 56.593 22.4246 58.1079 23.8548L58.7944 23.1276ZM56.8564 18.1006V5.7959H55.8564V18.1006H56.8564ZM56.8564 5.7959C56.8564 5.14828 56.8153 4.59404 56.7261 4.14257C56.6389 3.7014 56.4957 3.30407 56.2506 3.02177L55.4955 3.67745C55.5726 3.76624 55.6711 3.96217 55.7451 4.33643C55.817 4.70039 55.8564 5.18375 55.8564 5.7959H56.8564ZM56.2555 3.02754C56.0093 2.73514 55.6512 2.55684 55.2524 2.44935C54.8505 2.34102 54.3644 2.29297 53.8076 2.29297V3.29297C54.3152 3.29297 54.7057 3.33769 54.9922 3.4149C55.2819 3.49297 55.4243 3.59299 55.4906 3.67168L56.2555 3.02754ZM54.3076 2.79297V1.89941H53.3076V2.79297H54.3076ZM53.8076 2.39941H61.6152V1.39941H53.8076V2.39941ZM61.1152 1.89941V2.64648H62.1152V1.89941H61.1152ZM61.5006 2.15981L58.9517 2.7604L59.1811 3.73374L61.7299 3.13316L61.5006 2.15981ZM58.5664 3.24707V17.793H59.5664V3.24707H58.5664ZM58.5664 17.793C58.5664 19.9459 59.0817 21.6612 60.1955 22.8514L60.9256 22.1681C60.0472 21.2294 59.5664 19.8002 59.5664 17.793H58.5664ZM60.1955 22.8514C61.3128 24.0454 62.913 24.6064 64.9111 24.6064V23.6064C63.1006 23.6064 61.8005 23.1031 60.9256 22.1681L60.1955 22.8514ZM64.9111 24.6064C66.94 24.6064 68.5526 24.0844 69.653 22.9537C70.751 21.8255 71.2559 20.1763 71.2559 18.1006H70.2559C70.2559 20.0288 69.7866 21.3825 68.9364 22.2563C68.0885 23.1275 66.7788 23.6064 64.9111 23.6064V24.6064ZM77.9482 1.89941V1.39941H77.4482V1.89941H77.9482ZM92.4209 3.58398L92.1141 3.97882L92.1171 3.98109L92.4209 3.58398ZM92.6553 12.3438L92.9773 12.7262L92.979 12.7248L92.6553 12.3438ZM87.7041 14.3506L87.6436 13.8543L86.7806 13.9595L87.3055 14.6525L87.7041 14.3506ZM94.75 23.6523L94.3514 23.9542L94.4624 24.1007L94.6418 24.1405L94.75 23.6523ZM97.46 24.2529H97.96V23.8516L97.5681 23.7648L97.46 24.2529ZM97.46 25V25.5H97.96V25H97.46ZM92.3477 25L91.944 25.295L92.0938 25.5H92.3477V25ZM84.6719 14.4971L85.0756 14.202L84.9258 13.9971H84.6719V14.4971ZM83.207 14.4971V13.9971H82.707V14.4971H83.207ZM83.6758 23.5498L83.2933 23.8719L83.2983 23.8776L83.6758 23.5498ZM85.7559 24.1064H86.2559V23.6064H85.7559V24.1064ZM85.7559 25V25.5H86.2559V25H85.7559ZM77.9482 25H77.4482V25.5H77.9482V25ZM77.9482 24.2529L77.8336 23.7663L77.4482 23.8571V24.2529H77.9482ZM80.4971 23.6523L80.6117 24.139L80.9971 24.0482V23.6523H80.4971ZM80.0137 3.33496L79.6354 3.66207L79.6405 3.66777L80.0137 3.33496ZM77.9482 2.79297H77.4482V3.29297H77.9482V2.79297ZM83.207 3.24707V2.74707H82.707V3.24707H83.207ZM83.207 13.1494H82.707V13.6494H83.207V13.1494ZM89.9453 4.56543L89.6145 4.94035L89.6163 4.94194L89.9453 4.56543ZM77.9482 2.39941H86.0488V1.39941H77.9482V2.39941ZM86.0488 2.39941C88.7963 2.39941 90.7923 2.95171 92.1141 3.9788L92.7277 3.18916C91.1589 1.97016 88.9068 1.39941 86.0488 1.39941V2.39941ZM92.1171 3.98109C93.4538 5.0038 94.1035 6.29991 94.1035 7.90527H95.1035C95.1035 5.97548 94.2982 4.39073 92.7247 3.18688L92.1171 3.98109ZM94.1035 7.90527C94.1035 9.62875 93.5078 10.9633 92.3315 11.9627L92.979 12.7248C94.4004 11.5171 95.1035 9.89273 95.1035 7.90527H94.1035ZM92.3332 11.9613C91.1217 12.9815 89.5675 13.6196 87.6436 13.8543L87.7646 14.8469C89.8446 14.5933 91.5912 13.8935 92.9773 12.7262L92.3332 11.9613ZM87.3055 14.6525L94.3514 23.9542L95.1486 23.3504L88.1027 14.0487L87.3055 14.6525ZM94.6418 24.1405L97.3518 24.7411L97.5681 23.7648L94.8582 23.1642L94.6418 24.1405ZM96.96 24.2529V25H97.96V24.2529H96.96ZM97.46 24.5H92.3477V25.5H97.46V24.5ZM92.7513 24.705L85.0756 14.202L84.2682 14.7921L91.944 25.295L92.7513 24.705ZM84.6719 13.9971H83.207V14.9971H84.6719V13.9971ZM82.707 14.4971V21.1035H83.707V14.4971H82.707ZM82.707 21.1035C82.707 21.7506 82.7469 22.3038 82.8332 22.754C82.9174 23.1935 83.0556 23.5896 83.2933 23.8719L84.0582 23.2277C83.9834 23.1389 83.8873 22.9418 83.8153 22.5658C83.7453 22.2006 83.707 21.7162 83.707 21.1035H82.707ZM83.2983 23.8776C83.5485 24.1658 83.9073 24.343 84.3082 24.4503C84.7121 24.5584 85.1989 24.6064 85.7559 24.6064V23.6064C85.2484 23.6064 84.8563 23.5618 84.5668 23.4843C84.2743 23.406 84.1253 23.3049 84.0533 23.222L83.2983 23.8776ZM85.2559 24.1064V25H86.2559V24.1064H85.2559ZM85.7559 24.5H77.9482V25.5H85.7559V24.5ZM78.4482 25V24.2529H77.4482V25H78.4482ZM78.0629 24.7396L80.6117 24.139L80.3824 23.1657L77.8336 23.7663L78.0629 24.7396ZM80.9971 23.6523V5.7959H79.9971V23.6523H80.9971ZM80.9971 5.7959C80.9971 5.13898 80.956 4.57871 80.8668 4.12482C80.78 3.68266 80.6366 3.28222 80.3868 3.00215L79.6405 3.66777C79.713 3.74903 79.8113 3.93941 79.8856 4.31756C79.9576 4.68398 79.9971 5.17352 79.9971 5.7959H80.9971ZM80.3919 3.00788C80.1445 2.72189 79.7866 2.54895 79.3898 2.44484C78.9892 2.3397 78.5044 2.29297 77.9482 2.29297V3.29297C78.4566 3.29297 78.8482 3.33657 79.136 3.41209C79.4278 3.48865 79.5703 3.5867 79.6355 3.66204L80.3919 3.00788ZM78.4482 2.79297V1.89941H77.4482V2.79297H78.4482ZM82.707 3.24707V13.1494H83.707V3.24707H82.707ZM83.207 13.6494H85.6094V12.6494H83.207V13.6494ZM85.6094 13.6494C87.5833 13.6494 89.1706 13.1944 90.2908 12.206L89.6292 11.4561C88.7571 12.2256 87.444 12.6494 85.6094 12.6494V13.6494ZM90.2908 12.206C91.4122 11.2165 91.9541 9.8591 91.9541 8.19824H90.9541C90.9541 9.62332 90.4999 10.6878 89.6292 11.4561L90.2908 12.206ZM91.9541 8.19824C91.9541 6.53576 91.4062 5.17795 90.2743 4.18891L89.6163 4.94194C90.4961 5.71073 90.9541 6.77479 90.9541 8.19824H91.9541ZM90.2761 4.19051C89.1564 3.20249 87.5744 2.74707 85.6094 2.74707V3.74707C87.4335 3.74707 88.7421 4.17055 89.6145 4.94035L90.2761 4.19051ZM85.6094 2.74707H83.207V3.74707H85.6094V2.74707ZM114.862 23.6523L114.977 24.139L115.54 24.0064L115.327 23.4685L114.862 23.6523ZM112.313 17.207L112.778 17.0232L112.653 16.707H112.313V17.207ZM103.759 17.207V16.707H103.412L103.291 17.0313L103.759 17.207ZM102.411 20.7959L102.87 20.9936L102.875 20.9828L102.879 20.9717L102.411 20.7959ZM103.92 24.1064H104.42V23.6064H103.92V24.1064ZM103.92 25V25.5H104.42V25H103.92ZM97.0205 25H96.5205V25.5H97.0205V25ZM97.0205 24.2529L96.9058 23.7663L96.5205 23.8571V24.2529H97.0205ZM99.5693 23.6523L99.684 24.139L99.9422 24.0782L100.037 23.8303L99.5693 23.6523ZM107.963 1.60645V1.10645H107.618L107.496 1.42854L107.963 1.60645ZM109.311 1.60645L109.777 1.42624L109.653 1.10645H109.311V1.60645ZM116.957 21.3965L117.424 21.2179L117.423 21.2163L116.957 21.3965ZM118.231 23.5059L117.902 23.8822L117.911 23.8893L118.231 23.5059ZM120.268 24.1064H120.768V23.6064H120.268V24.1064ZM120.268 25V25.5H120.768V25H120.268ZM112.313 25H111.813V25.5H112.313V25ZM112.313 24.2529L112.199 23.7663L111.813 23.8571V24.2529H112.313ZM108.109 5.7959L108.578 5.62109L108.109 4.3658L107.641 5.62109L108.109 5.7959ZM104.359 15.8447L103.891 15.6699L103.639 16.3447H104.359V15.8447ZM111.859 15.8447V16.3447H112.58L112.328 15.6699L111.859 15.8447ZM115.327 23.4685L112.778 17.0232L111.849 17.3909L114.397 23.8362L115.327 23.4685ZM112.313 16.707H103.759V17.707H112.313V16.707ZM103.291 17.0313L101.943 20.6201L102.879 20.9717L104.227 17.3828L103.291 17.0313ZM101.952 20.5982C101.63 21.3467 101.457 22.064 101.457 22.7441H102.457C102.457 22.2328 102.587 21.6514 102.87 20.9936L101.952 20.5982ZM101.457 22.7441C101.457 23.3168 101.646 23.8242 102.092 24.1663L102.701 23.3727C102.561 23.2656 102.457 23.0895 102.457 22.7441H101.457ZM102.092 24.1663C102.524 24.4971 103.177 24.6064 103.92 24.6064V23.6064C103.218 23.6064 102.855 23.4912 102.701 23.3727L102.092 24.1663ZM103.42 24.1064V25H104.42V24.1064H103.42ZM103.92 24.5H97.0205V25.5H103.92V24.5ZM97.5205 25V24.2529H96.5205V25H97.5205ZM97.1352 24.7396L99.684 24.139L99.4547 23.1657L96.9058 23.7663L97.1352 24.7396ZM100.037 23.8303L108.43 1.78435L107.496 1.42854L99.1021 23.4744L100.037 23.8303ZM107.963 2.10645H109.311V1.10645H107.963V2.10645ZM108.844 1.78665L116.491 21.5767L117.423 21.2163L109.777 1.42624L108.844 1.78665ZM116.49 21.5751C116.882 22.6001 117.343 23.3927 117.902 23.8821L118.561 23.1296C118.183 22.7987 117.794 22.1851 117.424 21.2179L116.49 21.5751ZM117.911 23.8893C118.51 24.3906 119.319 24.6064 120.268 24.6064V23.6064C119.459 23.6064 118.91 23.4219 118.552 23.1224L117.911 23.8893ZM119.768 24.1064V25H120.768V24.1064H119.768ZM120.268 24.5H112.313V25.5H120.268V24.5ZM112.813 25V24.2529H111.813V25H112.813ZM112.428 24.7396L114.977 24.139L114.748 23.1657L112.199 23.7663L112.428 24.7396ZM107.641 5.62109L103.891 15.6699L104.828 16.0195L108.578 5.97071L107.641 5.62109ZM104.359 16.3447H111.859V15.3447H104.359V16.3447ZM112.328 15.6699L108.578 5.62109L107.641 5.97071L111.391 16.0195L112.328 15.6699ZM132.704 17.793L132.31 18.1003L132.314 18.1059L132.704 17.793ZM130.492 15.918L130.244 16.3521L130.248 16.3541L130.492 15.918ZM127.592 14.2773L127.342 14.7107L127.347 14.7135L127.592 14.2773ZM124.691 12.5488L124.426 12.9726L124.428 12.9739L124.691 12.5488ZM131.767 1.79688L131.655 2.28433L131.661 2.2855L131.767 1.79688ZM134.14 2.4707L133.95 2.93323L133.954 2.93494L134.14 2.4707ZM134.945 2.79297H135.445V2.45445L135.131 2.32873L134.945 2.79297ZM134.945 8.19824V8.69824H135.445V8.19824H134.945ZM134.198 8.19824L133.702 8.26232L133.759 8.69824H134.198V8.19824ZM132.411 4.19922L132.063 4.55817L132.065 4.55999L132.411 4.19922ZM124.809 8.52051L124.394 8.79929L124.395 8.80218L124.809 8.52051ZM126.522 10.1904L126.245 10.6065L126.248 10.6082L126.522 10.1904ZM128.866 11.582L128.629 12.022L128.633 12.024L128.866 11.582ZM133.759 14.5264L133.451 14.9205L133.454 14.9231L133.759 14.5264ZM135.487 16.5332L135.05 16.776L135.052 16.7783L135.487 16.5332ZM134.066 23.6963L133.744 23.3144L133.742 23.3155L134.066 23.6963ZM121.923 23.7402L122.227 23.3431L122.218 23.3365L122.209 23.3303L121.923 23.7402ZM121.146 23.1982H120.646V23.459L120.86 23.6082L121.146 23.1982ZM121.146 16.8994V16.3994H120.646V16.8994H121.146ZM121.894 16.8994L122.386 16.8135L122.314 16.3994H121.894V16.8994ZM124.149 22.3926L123.784 22.7334L123.785 22.7351L124.149 22.3926ZM134.098 20.2246C134.098 19.2222 133.755 18.3031 133.094 17.48L132.314 18.1059C132.845 18.7672 133.098 19.4692 133.098 20.2246H134.098ZM133.099 17.4856C132.469 16.6777 131.679 16.0101 130.737 15.4818L130.248 16.3541C131.082 16.8219 131.767 17.4044 132.31 18.1003L133.099 17.4856ZM130.74 15.4838C129.85 14.9753 128.882 14.4277 127.836 13.8412L127.347 14.7135C128.391 15.2988 129.357 15.845 130.244 16.3521L130.74 15.4838ZM127.841 13.844C126.81 13.2506 125.848 12.6772 124.955 12.1238L124.428 12.9739C125.332 13.5337 126.303 14.1126 127.342 14.7107L127.841 13.844ZM124.957 12.1251C124.129 11.6063 123.442 10.9386 122.896 10.1182L122.063 10.6729C122.688 11.6102 123.477 12.3781 124.426 12.9726L124.957 12.1251ZM122.896 10.1182C122.366 9.32364 122.101 8.43919 122.101 7.45117H121.101C121.101 8.63112 121.421 9.70956 122.063 10.6729L122.896 10.1182ZM122.101 7.45117C122.101 5.89982 122.69 4.60933 123.894 3.54907L123.233 2.79858C121.82 4.04301 121.101 5.60408 121.101 7.45117H122.101ZM123.894 3.54907C125.09 2.49571 126.705 1.94531 128.793 1.94531V0.945312C126.525 0.945312 124.654 1.54726 123.233 2.79858L123.894 3.54907ZM128.793 1.94531C129.709 1.94531 130.663 2.05747 131.655 2.2843L131.878 1.30945C130.82 1.06753 129.791 0.945312 128.793 0.945312V1.94531ZM131.661 2.2855C132.686 2.50794 133.443 2.72522 133.95 2.93321L134.33 2.00819C133.742 1.76697 132.918 1.53503 131.873 1.30825L131.661 2.2855ZM133.954 2.93494L134.76 3.25721L135.131 2.32873L134.325 2.00646L133.954 2.93494ZM134.445 2.79297V8.19824H135.445V2.79297H134.445ZM134.945 7.69824H134.198V8.69824H134.945V7.69824ZM134.694 8.13417C134.459 6.31794 133.829 4.86658 132.757 3.83845L132.065 4.55999C132.927 5.38732 133.488 6.60198 133.702 8.26232L134.694 8.13417ZM132.759 3.84027C131.68 2.79334 130.241 2.29297 128.5 2.29297V3.29297C130.041 3.29297 131.209 3.7301 132.063 4.55817L132.759 3.84027ZM128.5 2.29297C127.09 2.29297 125.907 2.67086 125.004 3.47395L125.668 4.22136C126.347 3.61821 127.273 3.29297 128.5 3.29297V2.29297ZM125.004 3.47395C124.114 4.26525 123.649 5.24778 123.649 6.39648H124.649C124.649 5.553 124.976 4.83631 125.668 4.22136L125.004 3.47395ZM123.649 6.39648C123.649 7.26109 123.901 8.06559 124.394 8.79929L125.224 8.24173C124.838 7.66683 124.649 7.05531 124.649 6.39648H123.649ZM124.395 8.80218C124.874 9.50408 125.493 10.105 126.245 10.6065L126.8 9.7744C126.146 9.33831 125.622 8.826 125.222 8.23884L124.395 8.80218ZM126.248 10.6082C126.974 11.0858 127.768 11.557 128.629 12.0219L129.104 11.1421C128.265 10.6891 127.497 10.2325 126.797 9.77265L126.248 10.6082ZM128.633 12.024C129.478 12.4712 130.324 12.9329 131.17 13.4093L131.66 12.538C130.807 12.0573 129.954 11.5913 129.1 11.14L128.633 12.024ZM131.17 13.4093C131.999 13.8765 132.759 14.3804 133.451 14.9205L134.067 14.1323C133.332 13.5591 132.53 13.0278 131.66 12.538L131.17 13.4093ZM133.454 14.9231C134.113 15.428 134.644 16.0444 135.05 16.776L135.924 16.2904C135.452 15.44 134.831 14.7185 134.063 14.1297L133.454 14.9231ZM135.052 16.7783C135.446 17.4789 135.646 18.2674 135.646 19.1553H136.646C136.646 18.1096 136.408 17.15 135.923 16.2881L135.052 16.7783ZM135.646 19.1553C135.646 20.8673 135.015 22.2399 133.744 23.3144L134.389 24.0782C135.891 22.8089 136.646 21.1542 136.646 19.1553H135.646ZM133.742 23.3155C132.486 24.3844 130.66 24.9541 128.192 24.9541V25.9541C130.803 25.9541 132.892 25.3519 134.39 24.0771L133.742 23.3155ZM128.192 24.9541C126.902 24.9541 125.7 24.7706 124.582 24.4073L124.273 25.3583C125.499 25.7567 126.806 25.9541 128.192 25.9541V24.9541ZM124.582 24.4073C123.423 24.0304 122.655 23.6704 122.227 23.3431L121.619 24.1374C122.187 24.5718 123.089 24.9735 124.273 25.3583L124.582 24.4073ZM122.209 23.3303L121.433 22.7883L120.86 23.6082L121.637 24.1502L122.209 23.3303ZM121.646 23.1982V16.8994H120.646V23.1982H121.646ZM121.146 17.3994H121.894V16.3994H121.146V17.3994ZM121.401 16.9853C121.848 19.5453 122.623 21.4879 123.784 22.7334L124.515 22.0518C123.547 21.0121 122.819 19.2926 122.386 16.8135L121.401 16.9853ZM123.785 22.7351C124.97 23.9949 126.561 24.6064 128.5 24.6064V23.6064C126.787 23.6064 125.478 23.0754 124.514 22.0501L123.785 22.7351ZM128.5 24.6064C130.159 24.6064 131.53 24.2118 132.554 23.3636L131.916 22.5934C131.125 23.2491 130.006 23.6064 128.5 23.6064V24.6064ZM132.554 23.3636C133.566 22.5262 134.098 21.4718 134.098 20.2246H133.098C133.098 21.1454 132.721 21.9269 131.916 22.5934L132.554 23.3636Z" fill="#ED1C24"/>
</svg>
