<svg width="168" height="20" viewBox="0 0 168 20" fill="none" xmlns="http://www.w3.org/2000/svg">
<path d="M0 1.59766V0.519531H14.5195V5.55859H13.0898C13.0898 4.26172 12.8594 3.35937 12.3984 2.85156C11.9453 2.33594 11.1758 2.07812 10.0898 2.07812H5.88281V8.92188H8.05078C8.94922 8.92188 9.53125 8.78125 9.79688 8.5C10.0703 8.21875 10.207 7.59766 10.207 6.63672H11.5195V13H10.207C10.207 11.9922 10.0586 11.3203 9.76172 10.9844C9.46484 10.6484 8.89453 10.4805 8.05078 10.4805H5.88281V15.4023C5.88281 16.4258 6.06641 17.1016 6.43359 17.4297C6.80078 17.7578 7.57812 17.9219 8.76562 17.9219V19H0V18.0391L2.05078 17.5586V4.14062C2.05078 3.07031 1.92188 2.37891 1.66406 2.06641C1.40625 1.75391 0.851562 1.59766 0 1.59766ZM18.3516 12.6367C18.3516 16.0742 19.3125 17.7969 21.2344 17.8047C21.9688 17.8047 22.5898 17.418 23.0977 16.6445C23.6133 15.8633 23.8711 14.6875 23.8711 13.1172C23.8711 9.67969 22.9141 7.96094 21 7.96094C20.2656 7.96094 19.6406 8.34766 19.125 9.12109C18.6094 9.89453 18.3516 11.0664 18.3516 12.6367ZM27.7148 12.7656C27.7148 14.5859 27.0664 16.1211 25.7695 17.3711C24.4727 18.6133 22.8398 19.2344 20.8711 19.2344C19.0117 19.2344 17.4883 18.6484 16.3008 17.4766C15.1133 16.2969 14.5195 14.8047 14.5195 13C14.5195 11.1797 15.1641 9.64453 16.4531 8.39453C17.75 7.14453 19.3828 6.51953 21.3516 6.51953C23.2109 6.51953 24.7344 7.10938 25.9219 8.28906C27.1172 9.46875 27.7148 10.9609 27.7148 12.7656ZM34.3242 6.40234V15.8828C34.3242 16.7656 34.4336 17.3477 34.6523 17.6289C34.8789 17.9023 35.3281 18.0391 36 18.0391V19H29.0391V18.0391L30.7148 17.6758V10.5977C30.7148 9.66797 30.5898 9.03516 30.3398 8.69922C30.0977 8.36328 29.6641 8.19531 29.0391 8.19531V7.23438C29.8906 7.20312 30.7539 7.11719 31.6289 6.97656C32.5117 6.83594 33.1836 6.69922 33.6445 6.56641L34.3242 6.40234ZM33.8789 1.09375C34.2539 1.47656 34.4414 1.96484 34.4414 2.55859C34.4414 3.15234 34.2539 3.64062 33.8789 4.02344C33.5039 4.40625 33.0117 4.59766 32.4023 4.59766C31.793 4.59766 31.3008 4.40625 30.9258 4.02344C30.5508 3.64062 30.3633 3.15234 30.3633 2.55859C30.3633 1.96484 30.5508 1.47656 30.9258 1.09375C31.3008 0.710937 31.793 0.519531 32.4023 0.519531C33.0117 0.519531 33.5039 0.710937 33.8789 1.09375ZM58.6758 12.6367V4.11719C58.6758 3.04688 58.5469 2.35938 58.2891 2.05469C58.0391 1.75 57.4883 1.59766 56.6367 1.59766V0.519531H62.6367V1.48047L60.5977 1.96094V12.6367C60.5977 14.7617 59.9766 16.4141 58.7344 17.5938C57.5 18.7734 55.7227 19.3633 53.4023 19.3633C51.082 19.3633 49.3008 18.7773 48.0586 17.6055C46.8242 16.4258 46.207 14.7695 46.207 12.6367V4.11719C46.207 3.04688 46.0781 2.35938 45.8203 2.05469C45.5625 1.75 45.0078 1.59766 44.1562 1.59766V0.519531H52.0781V1.48047L50.0391 1.96094V12.6367C50.0391 14.332 50.418 15.6172 51.1758 16.4922C51.9414 17.3672 53.0039 17.8047 54.3633 17.8047C55.7227 17.8047 56.7812 17.3672 57.5391 16.4922C58.2969 15.6172 58.6758 14.332 58.6758 12.6367ZM84.1289 11.3242V15.8828C84.1289 16.7656 84.2383 17.3477 84.457 17.6289C84.6836 17.9023 85.1328 18.0391 85.8047 18.0391V19H79.0898V18.0391L80.5312 17.6758V11.5586C80.5312 9.95703 79.9297 9.15625 78.7266 9.15625C78.3438 9.15625 77.9648 9.24609 77.5898 9.42578C77.2148 9.59766 76.9297 9.78125 76.7344 9.97656L76.4414 10.2344C76.5195 10.4766 76.5625 10.918 76.5703 11.5586V15.8828C76.5703 16.7656 76.6758 17.3477 76.8867 17.6289C77.1055 17.9023 77.5195 18.0391 78.1289 18.0391V19H71.5312V18.0391L72.9609 17.6758V11.5586C72.9609 9.95703 72.3633 9.15625 71.168 9.15625C70.8164 9.15625 70.4609 9.23828 70.1016 9.40234C69.7422 9.55859 69.4727 9.71875 69.293 9.88281L69.0117 10.1172V15.8828C69.0117 16.7656 69.1172 17.3477 69.3281 17.6289C69.5469 17.9023 69.9609 18.0391 70.5703 18.0391V19H63.7266V18.0391L65.4023 17.6758V10.5977C65.4023 9.66797 65.2773 9.03516 65.0273 8.69922C64.7852 8.36328 64.3516 8.19531 63.7266 8.19531V7.23438C64.4297 7.20312 65.1719 7.12891 65.9531 7.01172C66.7422 6.89453 67.3438 6.77734 67.7578 6.66016L68.4023 6.51953L68.6484 8.67578H68.8828C68.9141 8.61328 68.9648 8.53516 69.0352 8.44141C69.1133 8.34766 69.2734 8.17578 69.5156 7.92578C69.7656 7.67578 70.0312 7.45703 70.3125 7.26953C70.5938 7.07422 70.9609 6.90234 71.4141 6.75391C71.875 6.59766 72.3516 6.51953 72.8438 6.51953C73.3047 6.51953 73.7344 6.59766 74.1328 6.75391C74.5391 6.90234 74.8516 7.08203 75.0703 7.29297C75.2969 7.49609 75.4922 7.70312 75.6562 7.91406C75.8281 8.11719 75.9492 8.29297 76.0195 8.44141L76.0898 8.67578H76.3242C76.3555 8.61328 76.4102 8.53516 76.4883 8.44141C76.5742 8.34766 76.7422 8.17578 76.9922 7.92578C77.25 7.67578 77.5273 7.45703 77.8242 7.26953C78.1211 7.07422 78.5 6.90234 78.9609 6.75391C79.4297 6.59766 79.9102 6.51953 80.4023 6.51953C81.5195 6.51953 82.418 6.92969 83.0977 7.75C83.7852 8.5625 84.1289 9.75391 84.1289 11.3242ZM97.6875 10.8438V15.1562C97.6875 16.0859 97.8125 16.7188 98.0625 17.0547C98.3125 17.3906 98.7461 17.5586 99.3633 17.5586V18.5195C98.6602 18.5508 97.918 18.6289 97.1367 18.7539C96.3555 18.8711 95.7539 18.9844 95.332 19.0938L94.6875 19.2344L94.4531 16.9609H94.207C94.1602 17.0234 94.0938 17.1094 94.0078 17.2188C93.9297 17.3203 93.7578 17.5 93.4922 17.7578C93.2344 18.0078 92.957 18.2344 92.6602 18.4375C92.3633 18.6328 91.9805 18.8164 91.5117 18.9883C91.0508 19.1523 90.5898 19.2344 90.1289 19.2344C89.0742 19.2344 88.25 18.9766 87.6562 18.4609C87.0625 17.9375 86.7656 17.2773 86.7656 16.4805C86.7656 15.7617 87.0156 15.1055 87.5156 14.5117C88.0234 13.918 88.6367 13.4531 89.3555 13.1172C90.082 12.7812 90.8008 12.5 91.5117 12.2734C92.2227 12.0391 92.8242 11.8828 93.3164 11.8047L94.0898 11.6758V11.0781C94.0898 9.07812 93.3711 8.07812 91.9336 8.07812C91.7227 8.07812 91.4961 8.10547 91.2539 8.16016C91.0117 8.21484 90.8203 8.27734 90.6797 8.34766L90.4922 8.44141L89.6484 11.0781H87.7266V7.71484C87.8828 7.62109 88.1094 7.51172 88.4062 7.38672C88.7031 7.25391 89.293 7.07812 90.1758 6.85938C91.0586 6.63281 91.9219 6.51953 92.7656 6.51953C94.3516 6.51953 95.5664 6.90625 96.4102 7.67969C97.2617 8.44531 97.6875 9.5 97.6875 10.8438ZM91.8047 16.7148C92.1875 16.7148 92.5703 16.6172 92.9531 16.4219C93.3438 16.2188 93.625 16.0234 93.7969 15.8359L94.0898 15.5195V13C93.9961 13.0156 93.8672 13.0391 93.7031 13.0703C93.5469 13.1016 93.2578 13.1914 92.8359 13.3398C92.4219 13.4805 92.0547 13.6367 91.7344 13.8086C91.4141 13.9727 91.125 14.2109 90.8672 14.5234C90.6172 14.8359 90.4922 15.168 90.4922 15.5195C90.4922 15.8867 90.6055 16.1797 90.832 16.3984C91.0664 16.6094 91.3906 16.7148 91.8047 16.7148ZM117.375 14.0781L121.453 4C121.695 3.4375 121.812 2.95703 121.805 2.55859C121.805 2.23828 121.633 2 121.289 1.84375C120.945 1.67969 120.32 1.59766 119.414 1.59766V0.519531H126.129V1.48047L124.09 1.96094L117.012 19.2344H115.324L108.492 4C108.062 3.02344 107.676 2.37891 107.332 2.06641C106.996 1.75391 106.504 1.59766 105.855 1.59766V0.519531H114.492V1.48047L111.973 1.96094L116.766 12.7656L117.129 14.0781H117.375ZM131.051 8.07812C130.473 8.07812 129.973 8.35547 129.551 8.91016C129.129 9.45703 128.828 10.3008 128.648 11.4414L132.855 11.0781V10.4805C132.855 9.73047 132.684 9.14453 132.34 8.72266C131.996 8.29297 131.566 8.07812 131.051 8.07812ZM131.297 6.51953C132.914 6.51953 134.18 6.97266 135.094 7.87891C136.016 8.77734 136.508 10.043 136.57 11.6758L135.375 12.7656H128.648C128.711 14.0781 129.059 15.0664 129.691 15.7305C130.324 16.3867 131.219 16.7148 132.375 16.7148C133.016 16.7148 133.621 16.6289 134.191 16.457C134.77 16.2773 135.188 16.1016 135.445 15.9297L135.855 15.6367L136.453 16.2344C136.406 16.3125 136.336 16.4219 136.242 16.5625C136.156 16.7031 135.945 16.9453 135.609 17.2891C135.273 17.6328 134.914 17.9375 134.531 18.2031C134.148 18.4609 133.633 18.6992 132.984 18.918C132.336 19.1289 131.652 19.2344 130.934 19.2344C129.191 19.2344 127.734 18.6523 126.562 17.4883C125.398 16.3164 124.816 14.8594 124.816 13.1172C124.816 11.2578 125.445 9.69531 126.703 8.42969C127.961 7.15625 129.492 6.51953 131.297 6.51953ZM149.051 19H138.012L137.766 18.2852L144.973 8.19531H142.805C141.781 8.19531 141.047 8.43359 140.602 8.91016C140.156 9.37891 139.934 10.1836 139.934 11.3242H138.609V6.76562H149.402L149.648 7.48047L142.453 17.5586H144.973C145.871 17.5586 146.566 17.3086 147.059 16.8086C147.551 16.3008 147.973 15.3906 148.324 14.0781H149.531L149.051 19ZM154.91 15.7773C155.316 16.1836 155.52 16.6602 155.52 17.207C155.52 17.7461 155.316 18.2188 154.91 18.625C154.504 19.0312 154.027 19.2344 153.48 19.2344C152.934 19.2344 152.457 19.0312 152.051 18.625C151.645 18.2188 151.441 17.7461 151.441 17.207C151.441 16.6602 151.645 16.1836 152.051 15.7773C152.457 15.3633 152.934 15.1562 153.48 15.1562C154.027 15.1562 154.504 15.3633 154.91 15.7773ZM161.027 15.7773C161.434 16.1836 161.637 16.6602 161.637 17.207C161.637 17.7461 161.434 18.2188 161.027 18.625C160.621 19.0312 160.145 19.2344 159.598 19.2344C159.059 19.2344 158.582 19.0312 158.168 18.625C157.762 18.2188 157.559 17.7461 157.559 17.207C157.559 16.6602 157.762 16.1836 158.168 15.7773C158.582 15.3633 159.059 15.1562 159.598 15.1562C160.145 15.1562 160.621 15.3633 161.027 15.7773ZM167.145 15.7773C167.559 16.1836 167.766 16.6602 167.766 17.207C167.766 17.7461 167.559 18.2188 167.145 18.625C166.738 19.0312 166.262 19.2344 165.715 19.2344C165.176 19.2344 164.699 19.0312 164.285 18.625C163.879 18.2188 163.676 17.7461 163.676 17.207C163.676 16.6602 163.879 16.1836 164.285 15.7773C164.699 15.3633 165.176 15.1562 165.715 15.1562C166.262 15.1562 166.738 15.3633 167.145 15.7773Z" fill="#ED1C24"/>
</svg>
