<svg width="451" height="68" viewBox="0 0 451 68" fill="none" xmlns="http://www.w3.org/2000/svg">
<path d="M21.125 43.5977L21.9688 58C22.0156 58.8984 22.1914 59.5039 22.4961 59.8164C22.8008 60.1289 23.3438 60.2852 24.125 60.2852V61H17.7734V60.4023L19.8125 59.9219L19.0859 45.6367H18.9688L13.2031 61H12.0078L5.41016 45.6367H5.29297L4.8125 57.6367C4.76562 58.7539 4.85156 59.4766 5.07031 59.8047C5.29688 60.125 5.80859 60.2852 6.60547 60.2852V61H1.20312V60.4023L3.24219 59.9219L3.85156 45.6367C3.89844 44.6289 3.79297 43.9766 3.53516 43.6797C3.27734 43.3828 2.70312 43.2344 1.8125 43.2344V42.5195H6.37109L12.875 57.8828H12.9688L18.6055 42.5195H23.1641V43.1172L21.125 43.5977ZM33.4766 59.0781C33.4453 59.1406 33.3945 59.2227 33.3242 59.3242C33.2539 59.418 33.0977 59.5898 32.8555 59.8398C32.6133 60.082 32.3555 60.3008 32.082 60.4961C31.8164 60.6914 31.457 60.8633 31.0039 61.0117C30.5586 61.1602 30.1055 61.2344 29.6445 61.2344C28.6523 61.2344 27.8828 60.9961 27.3359 60.5195C26.7891 60.043 26.5156 59.4023 26.5156 58.5977C26.5156 57.9258 26.7578 57.3125 27.2422 56.7578C27.7344 56.1953 28.3281 55.7539 29.0234 55.4336C29.7266 55.1133 30.4219 54.8438 31.1094 54.625C31.7969 54.3984 32.3789 54.2422 32.8555 54.1562L33.6055 54.0391V52.8438C33.6055 50.7656 32.7656 49.7227 31.0859 49.7148C30.7969 49.7148 30.4922 49.7656 30.1719 49.8672C29.8516 49.9609 29.6016 50.0547 29.4219 50.1484L29.1641 50.3242L28.3203 52.8438H27.2422V50.0781C27.4219 49.9844 27.6641 49.8672 27.9688 49.7266C28.2812 49.5781 28.8477 49.3828 29.668 49.1406C30.4961 48.8906 31.2461 48.7656 31.918 48.7656C33.0664 48.7656 33.9727 49.1211 34.6367 49.832C35.3086 50.543 35.6445 51.5469 35.6445 52.8438V57.7656C35.6445 58.5312 35.7695 59.0625 36.0195 59.3594C36.2773 59.6562 36.7109 59.8047 37.3203 59.8047V60.4023C36.7891 60.4648 36.2305 60.5703 35.6445 60.7188C35.0664 60.8594 34.6172 60.9844 34.2969 61.0938L33.8398 61.2344L33.6055 59.0781H33.4766ZM30.4766 59.5586C30.9688 59.5586 31.4766 59.4414 32 59.207C32.5234 58.9648 32.9219 58.7227 33.1953 58.4805L33.6055 58.1172V55C33.4805 55.0156 33.3047 55.043 33.0781 55.082C32.8516 55.1211 32.4531 55.2188 31.8828 55.375C31.3125 55.5234 30.8125 55.6992 30.3828 55.9023C29.9531 56.0977 29.5625 56.3867 29.2109 56.7695C28.8594 57.1445 28.6836 57.5547 28.6836 58C28.6758 59.0391 29.2734 59.5586 30.4766 59.5586ZM38.3867 60.4023L40.0742 60.0391V52.2344C40.0742 51.4688 39.9453 50.9375 39.6875 50.6406C39.4297 50.3438 38.9961 50.1953 38.3867 50.1953V49.5977C38.918 49.5352 39.4766 49.4336 40.0625 49.293C40.6484 49.1445 41.0977 49.0156 41.4102 48.9062L41.8672 48.7656L42.1133 50.9219H42.2305C42.2773 50.8594 42.3438 50.7812 42.4297 50.6875C42.5234 50.5859 42.707 50.4141 42.9805 50.1719C43.2617 49.9219 43.5547 49.6992 43.8594 49.5039C44.1641 49.3086 44.5508 49.1367 45.0195 48.9883C45.4961 48.8398 45.9688 48.7656 46.4375 48.7656C47.625 48.7656 48.5391 49.1523 49.1797 49.9258C49.8281 50.6992 50.1523 51.8711 50.1523 53.4414V58.5977C50.1523 59.3164 50.2656 59.7969 50.4922 60.0391C50.7266 60.2812 51.1719 60.4023 51.8281 60.4023V61H46.4375V60.4023L48.1133 60.0391V53.6758C48.1133 52.5039 47.9023 51.6719 47.4805 51.1797C47.0664 50.6875 46.3984 50.4414 45.4766 50.4414C44.9453 50.4414 44.3984 50.5703 43.8359 50.8281C43.2812 51.0781 42.8594 51.332 42.5703 51.5898L42.1133 52V58.5977C42.1133 59.3164 42.2266 59.7969 42.4531 60.0391C42.6875 60.2812 43.1328 60.4023 43.7891 60.4023V61H38.3867V60.4023ZM56.293 48.5195V56.3242C56.293 57.4961 56.5 58.3281 56.9141 58.8203C57.3281 59.3125 58 59.5586 58.9297 59.5586C59.4609 59.5586 60.0039 59.4336 60.5586 59.1836C61.1211 58.9258 61.5547 58.668 61.8594 58.4102L62.293 58V52.2344C62.293 51.4219 62.1641 50.8594 61.9062 50.5469C61.6484 50.2344 61.2148 50.0781 60.6055 50.0781V49.4805C61.2148 49.418 61.8281 49.3086 62.4453 49.1523C63.0625 48.9883 63.5312 48.8398 63.8516 48.707L64.332 48.5195V57.7656C64.332 58.5312 64.457 59.0625 64.707 59.3594C64.9648 59.6562 65.3984 59.8047 66.0078 59.8047V60.4023C65.4766 60.4648 64.918 60.5703 64.332 60.7188C63.7539 60.8594 63.3125 60.9844 63.0078 61.0938L62.5273 61.2344L62.293 59.0781H62.1641C62.1172 59.1406 62.0508 59.2227 61.9648 59.3242C61.8789 59.418 61.6953 59.5898 61.4141 59.8398C61.1328 60.082 60.8398 60.3008 60.5352 60.4961C60.2305 60.6914 59.8398 60.8633 59.3633 61.0117C58.8945 61.1602 58.4297 61.2344 57.9688 61.2344C56.7812 61.2344 55.8633 60.8477 55.2148 60.0742C54.5742 59.3008 54.2539 58.1289 54.2539 56.5586V52.2344C54.2539 51.4219 54.125 50.8594 53.8672 50.5469C53.6094 50.2344 53.1758 50.0781 52.5664 50.0781V49.4805C53.1758 49.418 53.7891 49.3086 54.4062 49.1523C55.0234 48.9883 55.4922 48.8398 55.8125 48.707L56.293 48.5195ZM67.6953 55.2344C67.6953 53.3438 68.2617 51.793 69.3945 50.582C70.5352 49.3711 71.9297 48.7656 73.5781 48.7656C74.8125 48.7656 75.7852 49.1836 76.4961 50.0195C77.207 50.8477 77.5938 52.1094 77.6562 53.8047L76.5781 54.5195H69.8516V55C69.8516 56.4062 70.2383 57.5391 71.0117 58.3984C71.793 59.25 72.7695 59.6758 73.9414 59.6758C74.6133 59.6758 75.2461 59.5859 75.8398 59.4062C76.4414 59.2188 76.8711 59.0391 77.1289 58.8672L77.5391 58.5977L77.9023 58.9609C77.8555 59.0234 77.7852 59.1094 77.6914 59.2188C77.6055 59.3203 77.4141 59.5 77.1172 59.7578C76.8203 60.0078 76.5039 60.2344 76.168 60.4375C75.832 60.6328 75.3945 60.8164 74.8555 60.9883C74.3242 61.1523 73.7773 61.2344 73.2148 61.2344C71.6289 61.2344 70.3125 60.6797 69.2656 59.5703C68.2188 58.4531 67.6953 57.0078 67.6953 55.2344ZM73.2148 49.7148C72.4648 49.7148 71.7812 50.0664 71.1641 50.7695C70.5469 51.4648 70.1523 52.3945 69.9805 53.5586L75.5 53.3242C75.5 50.918 74.7383 49.7148 73.2148 49.7148ZM79.332 60.4023L81.0195 60.0391V45.2852C81.0195 44.4727 80.8906 43.9102 80.6328 43.5977C80.375 43.2773 79.9414 43.1172 79.332 43.1172V42.5195C79.9414 42.457 80.5547 42.3477 81.1719 42.1914C81.7891 42.0273 82.2578 41.8828 82.5781 41.7578L83.0586 41.5586V58.5977C83.0586 59.3164 83.1719 59.7969 83.3984 60.0391C83.6328 60.2812 84.0781 60.4023 84.7344 60.4023V61H79.332V60.4023ZM103.215 57.1797C103.215 56.4766 102.977 55.8281 102.5 55.2344C102.031 54.6328 101.441 54.1328 100.73 53.7344C100.02 53.3281 99.2461 52.8906 98.4102 52.4219C97.582 51.9453 96.8086 51.4844 96.0898 51.0391C95.3789 50.5938 94.7891 50.0195 94.3203 49.3164C93.8516 48.6133 93.6172 47.8281 93.6172 46.9609C93.6172 45.6016 94.1406 44.4609 95.1875 43.5391C96.2344 42.6172 97.6289 42.1562 99.3711 42.1562C100.137 42.1562 100.93 42.25 101.75 42.4375C102.578 42.6172 103.211 42.7969 103.648 42.9766L104.293 43.2344V47.5586H103.695C103.516 46.168 103.039 45.1016 102.266 44.3594C101.492 43.6094 100.449 43.2344 99.1367 43.2344C98.082 43.2344 97.2383 43.5156 96.6055 44.0781C95.9727 44.6406 95.6562 45.3203 95.6562 46.1172C95.6562 46.7266 95.832 47.293 96.1836 47.8164C96.5352 48.332 96.9922 48.7773 97.5547 49.1523C98.125 49.5273 98.75 49.8984 99.4297 50.2656C100.109 50.625 100.789 50.9961 101.469 51.3789C102.148 51.7617 102.773 52.1758 103.344 52.6211C103.914 53.0586 104.375 53.5938 104.727 54.2266C105.078 54.8516 105.254 55.5508 105.254 56.3242C105.254 57.8086 104.699 59.0195 103.59 59.957C102.488 60.8945 100.922 61.3633 98.8906 61.3633C97.8203 61.3633 96.8164 61.2109 95.8789 60.9062C94.9414 60.6016 94.2734 60.2969 93.875 59.9922L93.2539 59.5586V54.5195H93.8516C94.2031 56.5352 94.8047 58 95.6562 58.9141C96.5156 59.8281 97.6758 60.2852 99.1367 60.2852C100.402 60.2852 101.398 59.9844 102.125 59.3828C102.852 58.7812 103.215 58.0469 103.215 57.1797ZM119.539 54.7656C119.539 56.6719 118.949 58.2266 117.77 59.4297C116.598 60.6328 115.105 61.2344 113.293 61.2344C111.66 61.2344 110.312 60.6797 109.25 59.5703C108.188 58.4609 107.656 57.0156 107.656 55.2344C107.656 53.3281 108.242 51.7734 109.414 50.5703C110.594 49.3672 112.09 48.7656 113.902 48.7656C115.535 48.7656 116.883 49.3242 117.945 50.4414C119.008 51.5508 119.539 52.9922 119.539 54.7656ZM110.867 51.0977C110.164 52.0195 109.812 53.3203 109.812 55C109.812 56.6797 110.172 57.9805 110.891 58.9023C111.617 59.8242 112.539 60.2852 113.656 60.2852C114.727 60.2852 115.613 59.8242 116.316 58.9023C117.027 57.9805 117.383 56.6797 117.383 55C117.383 53.3203 117.02 52.0195 116.293 51.0977C115.574 50.1758 114.656 49.7148 113.539 49.7148C112.469 49.7148 111.578 50.1758 110.867 51.0977ZM128.773 59.0781C128.742 59.1406 128.691 59.2227 128.621 59.3242C128.551 59.418 128.395 59.5898 128.152 59.8398C127.91 60.082 127.652 60.3008 127.379 60.4961C127.113 60.6914 126.754 60.8633 126.301 61.0117C125.855 61.1602 125.402 61.2344 124.941 61.2344C123.949 61.2344 123.18 60.9961 122.633 60.5195C122.086 60.043 121.812 59.4023 121.812 58.5977C121.812 57.9258 122.055 57.3125 122.539 56.7578C123.031 56.1953 123.625 55.7539 124.32 55.4336C125.023 55.1133 125.719 54.8438 126.406 54.625C127.094 54.3984 127.676 54.2422 128.152 54.1562L128.902 54.0391V52.8438C128.902 50.7656 128.062 49.7227 126.383 49.7148C126.094 49.7148 125.789 49.7656 125.469 49.8672C125.148 49.9609 124.898 50.0547 124.719 50.1484L124.461 50.3242L123.617 52.8438H122.539V50.0781C122.719 49.9844 122.961 49.8672 123.266 49.7266C123.578 49.5781 124.145 49.3828 124.965 49.1406C125.793 48.8906 126.543 48.7656 127.215 48.7656C128.363 48.7656 129.27 49.1211 129.934 49.832C130.605 50.543 130.941 51.5469 130.941 52.8438V57.7656C130.941 58.5312 131.066 59.0625 131.316 59.3594C131.574 59.6562 132.008 59.8047 132.617 59.8047V60.4023C132.086 60.4648 131.527 60.5703 130.941 60.7188C130.363 60.8594 129.914 60.9844 129.594 61.0938L129.137 61.2344L128.902 59.0781H128.773ZM125.773 59.5586C126.266 59.5586 126.773 59.4414 127.297 59.207C127.82 58.9648 128.219 58.7227 128.492 58.4805L128.902 58.1172V55C128.777 55.0156 128.602 55.043 128.375 55.082C128.148 55.1211 127.75 55.2188 127.18 55.375C126.609 55.5234 126.109 55.6992 125.68 55.9023C125.25 56.0977 124.859 56.3867 124.508 56.7695C124.156 57.1445 123.98 57.5547 123.98 58C123.973 59.0391 124.57 59.5586 125.773 59.5586ZM133.684 60.4023L135.371 60.0391V52.2344C135.371 51.4688 135.242 50.9375 134.984 50.6406C134.727 50.3438 134.293 50.1953 133.684 50.1953V49.5977C134.215 49.5352 134.773 49.4336 135.359 49.293C135.945 49.1445 136.395 49.0156 136.707 48.9062L137.164 48.7656L137.41 50.9219H137.527C137.574 50.8594 137.633 50.7812 137.703 50.6875C137.781 50.5859 137.949 50.4141 138.207 50.1719C138.473 49.9219 138.742 49.6992 139.016 49.5039C139.289 49.3086 139.629 49.1367 140.035 48.9883C140.441 48.8398 140.848 48.7656 141.254 48.7656C141.605 48.7656 141.93 48.8047 142.227 48.8828C142.531 48.9609 142.742 49.0391 142.859 49.1172L143.047 49.2344V52.7148H141.969L141.254 50.3242C140.551 50.3242 139.879 50.4727 139.238 50.7695C138.598 51.0586 138.133 51.3555 137.844 51.6602L137.41 52.1172V58.5977C137.41 59.332 137.555 59.8164 137.844 60.0508C138.133 60.2852 138.746 60.4023 139.684 60.4023V61H133.684V60.4023ZM144.383 55.2344C144.383 53.3438 144.949 51.793 146.082 50.582C147.223 49.3711 148.617 48.7656 150.266 48.7656C151.5 48.7656 152.473 49.1836 153.184 50.0195C153.895 50.8477 154.281 52.1094 154.344 53.8047L153.266 54.5195H146.539V55C146.539 56.4062 146.926 57.5391 147.699 58.3984C148.48 59.25 149.457 59.6758 150.629 59.6758C151.301 59.6758 151.934 59.5859 152.527 59.4062C153.129 59.2188 153.559 59.0391 153.816 58.8672L154.227 58.5977L154.59 58.9609C154.543 59.0234 154.473 59.1094 154.379 59.2188C154.293 59.3203 154.102 59.5 153.805 59.7578C153.508 60.0078 153.191 60.2344 152.855 60.4375C152.52 60.6328 152.082 60.8164 151.543 60.9883C151.012 61.1523 150.465 61.2344 149.902 61.2344C148.316 61.2344 147 60.6797 145.953 59.5703C144.906 58.4531 144.383 57.0078 144.383 55.2344ZM149.902 49.7148C149.152 49.7148 148.469 50.0664 147.852 50.7695C147.234 51.4648 146.84 52.3945 146.668 53.5586L152.188 53.3242C152.188 50.918 151.426 49.7148 149.902 49.7148ZM163.227 58.2344C163.227 57.8047 163 57.4062 162.547 57.0391C162.102 56.6719 161.562 56.3438 160.93 56.0547C160.297 55.7656 159.664 55.457 159.031 55.1289C158.398 54.8008 157.859 54.3711 157.414 53.8398C156.969 53.3008 156.746 52.6875 156.746 52C156.746 51.0547 157.113 50.2812 157.848 49.6797C158.582 49.0703 159.613 48.7656 160.941 48.7656C161.52 48.7656 162.066 48.8242 162.582 48.9414C163.105 49.0586 163.488 49.1758 163.73 49.293L164.059 49.4805V52.3633H163.461C163.336 51.4492 163.051 50.7812 162.605 50.3594C162.168 49.9297 161.535 49.7148 160.707 49.7148C159.957 49.7148 159.387 49.8672 158.996 50.1719C158.613 50.4766 158.422 50.8867 158.422 51.4023C158.422 51.8633 158.645 52.2773 159.09 52.6445C159.543 53.0117 160.082 53.3398 160.707 53.6289C161.34 53.918 161.973 54.2227 162.605 54.543C163.238 54.8633 163.777 55.2891 164.223 55.8203C164.676 56.3438 164.902 56.9414 164.902 57.6133C164.902 58.7305 164.508 59.6133 163.719 60.2617C162.938 60.9102 161.812 61.2344 160.344 61.2344C159.734 61.2344 159.121 61.1484 158.504 60.9766C157.887 60.7969 157.418 60.6133 157.098 60.4258L156.617 60.1562V57.0391H157.227C157.469 58.1875 157.848 59.0156 158.363 59.5234C158.879 60.0312 159.617 60.2852 160.578 60.2852C161.445 60.2852 162.102 60.1016 162.547 59.7344C163 59.3594 163.227 58.8594 163.227 58.2344Z" fill="white"/>
<path d="M136.957 5.96094V19.4023C136.957 20.4727 137.082 21.1602 137.332 21.4648C137.59 21.7695 138.145 21.9219 138.996 21.9219V23H131.074V22.0391L133.113 21.5586V14.2344H125.789V19.4023C125.789 20.4727 125.918 21.1602 126.176 21.4648C126.434 21.7695 126.984 21.9219 127.828 21.9219V23H119.906V22.0391L121.957 21.5586V8.11719C121.957 7.04688 121.828 6.35938 121.57 6.05469C121.312 5.75 120.758 5.59766 119.906 5.59766V4.51953H127.828V5.48047L125.789 5.96094V12.5586H133.113V8.11719C133.113 7.04688 132.984 6.35938 132.727 6.05469C132.469 5.75 131.918 5.59766 131.074 5.59766V4.51953H138.996V5.48047L136.957 5.96094ZM145.488 10.4023V19.8828C145.488 20.7656 145.598 21.3477 145.816 21.6289C146.043 21.9023 146.492 22.0391 147.164 22.0391V23H140.203V22.0391L141.879 21.6758V14.5977C141.879 13.668 141.754 13.0352 141.504 12.6992C141.262 12.3633 140.828 12.1953 140.203 12.1953V11.2344C141.055 11.2031 141.918 11.1172 142.793 10.9766C143.676 10.8359 144.348 10.6992 144.809 10.5664L145.488 10.4023ZM145.043 5.09375C145.418 5.47656 145.605 5.96484 145.605 6.55859C145.605 7.15234 145.418 7.64062 145.043 8.02344C144.668 8.40625 144.176 8.59766 143.566 8.59766C142.957 8.59766 142.465 8.40625 142.09 8.02344C141.715 7.64062 141.527 7.15234 141.527 6.55859C141.527 5.96484 141.715 5.47656 142.09 5.09375C142.465 4.71094 142.957 4.51953 143.566 4.51953C144.176 4.51953 144.668 4.71094 145.043 5.09375ZM153.891 10.6367C154.469 10.6367 154.996 10.6914 155.473 10.8008C155.949 10.9023 156.285 11 156.48 11.0938L156.762 11.2344L161.684 10.4023V13.5195H160.723L158.684 12.3242L158.086 11.7148L157.852 11.9609C157.945 12.0391 158.055 12.1562 158.18 12.3125C158.312 12.4609 158.488 12.7773 158.707 13.2617C158.934 13.7383 159.047 14.2227 159.047 14.7148C159.047 15.9023 158.594 16.8828 157.688 17.6562C156.789 18.4219 155.523 18.8047 153.891 18.8047L152.812 18.6758C152.172 19.1523 151.852 19.5938 151.852 20C151.852 20.2578 151.934 20.4414 152.098 20.5508C152.27 20.6602 152.586 20.7148 153.047 20.7148H156.41C157.738 20.7148 158.75 20.9961 159.445 21.5586C160.141 22.1211 160.488 22.8398 160.488 23.7148C160.488 25.0742 159.82 26.2539 158.484 27.2539C157.148 28.2617 155.281 28.7656 152.883 28.7656C150.992 28.7656 149.664 28.543 148.898 28.0977C148.141 27.6602 147.762 27.0391 147.762 26.2344C147.762 25.7031 147.992 25.1875 148.453 24.6875C148.922 24.1875 149.383 23.8164 149.836 23.5742L150.527 23.2344V23.1172C149.246 23.1172 148.605 22.6797 148.605 21.8047C148.605 21.3438 148.844 20.832 149.32 20.2695C149.805 19.707 150.285 19.2578 150.762 18.9219L151.488 18.4414C151.41 18.4258 151.309 18.3945 151.184 18.3477C151.066 18.3008 150.848 18.1797 150.527 17.9844C150.207 17.7891 149.926 17.5703 149.684 17.3281C149.449 17.0781 149.23 16.7227 149.027 16.2617C148.824 15.793 148.723 15.2773 148.723 14.7148C148.723 13.5273 149.176 12.5508 150.082 11.7852C150.988 11.0195 152.258 10.6367 153.891 10.6367ZM155.332 23.2344H151.969C151.328 23.875 151.008 24.5586 151.008 25.2852C151.008 25.8633 151.23 26.3242 151.676 26.668C152.129 27.0195 152.785 27.1953 153.645 27.1953C154.684 27.1953 155.504 26.9492 156.105 26.457C156.707 25.9727 157.008 25.3789 157.008 24.6758C157.008 24.2461 156.859 23.8984 156.562 23.6328C156.273 23.3672 155.863 23.2344 155.332 23.2344ZM155.566 14.8438C155.566 13.9453 155.402 13.2617 155.074 12.793C154.746 12.3164 154.352 12.0781 153.891 12.0781C152.773 12.0781 152.211 12.918 152.203 14.5977C152.203 15.4961 152.367 16.1836 152.695 16.6602C153.023 17.1289 153.422 17.3633 153.891 17.3633C155.008 17.3633 155.566 16.5234 155.566 14.8438ZM167.098 10.4023V19.8828C167.098 20.7656 167.207 21.3477 167.426 21.6289C167.652 21.9023 168.102 22.0391 168.773 22.0391V23H161.812V22.0391L163.488 21.6758V14.5977C163.488 13.668 163.363 13.0352 163.113 12.6992C162.871 12.3633 162.438 12.1953 161.812 12.1953V11.2344C162.664 11.2031 163.527 11.1172 164.402 10.9766C165.285 10.8359 165.957 10.6992 166.418 10.5664L167.098 10.4023ZM166.652 5.09375C167.027 5.47656 167.215 5.96484 167.215 6.55859C167.215 7.15234 167.027 7.64062 166.652 8.02344C166.277 8.40625 165.785 8.59766 165.176 8.59766C164.566 8.59766 164.074 8.40625 163.699 8.02344C163.324 7.64062 163.137 7.15234 163.137 6.55859C163.137 5.96484 163.324 5.47656 163.699 5.09375C164.074 4.71094 164.566 4.51953 165.176 4.51953C165.785 4.51953 166.277 4.71094 166.652 5.09375ZM176.215 12.0781C175.637 12.0781 175.137 12.3555 174.715 12.9102C174.293 13.457 173.992 14.3008 173.812 15.4414L178.02 15.0781V14.4805C178.02 13.7305 177.848 13.1445 177.504 12.7227C177.16 12.293 176.73 12.0781 176.215 12.0781ZM176.461 10.5195C178.078 10.5195 179.344 10.9727 180.258 11.8789C181.18 12.7773 181.672 14.043 181.734 15.6758L180.539 16.7656H173.812C173.875 18.0781 174.223 19.0664 174.855 19.7305C175.488 20.3867 176.383 20.7148 177.539 20.7148C178.18 20.7148 178.785 20.6289 179.355 20.457C179.934 20.2773 180.352 20.1016 180.609 19.9297L181.02 19.6367L181.617 20.2344C181.57 20.3125 181.5 20.4219 181.406 20.5625C181.32 20.7031 181.109 20.9453 180.773 21.2891C180.438 21.6328 180.078 21.9375 179.695 22.2031C179.312 22.4609 178.797 22.6992 178.148 22.918C177.5 23.1289 176.816 23.2344 176.098 23.2344C174.355 23.2344 172.898 22.6523 171.727 21.4883C170.562 20.3164 169.98 18.8594 169.98 17.1172C169.98 15.2578 170.609 13.6953 171.867 12.4297C173.125 11.1562 174.656 10.5195 176.461 10.5195ZM196.371 15.3242V19.8828C196.371 20.7656 196.48 21.3477 196.699 21.6289C196.926 21.9023 197.375 22.0391 198.047 22.0391V23H191.086V22.0391L192.762 21.6758V15.5586C192.762 13.957 192.082 13.1562 190.723 13.1562C190.34 13.1562 189.949 13.2461 189.551 13.4258C189.152 13.5977 188.848 13.7812 188.637 13.9766L188.332 14.2344V19.8828C188.332 20.7656 188.441 21.3477 188.66 21.6289C188.887 21.9023 189.336 22.0391 190.008 22.0391V23H183.047V22.0391L184.723 21.6758V14.5977C184.723 13.668 184.598 13.0352 184.348 12.6992C184.105 12.3633 183.672 12.1953 183.047 12.1953V11.2344C183.75 11.2031 184.492 11.1289 185.273 11.0117C186.062 10.8945 186.664 10.7773 187.078 10.6602L187.723 10.5195L187.969 12.8047H188.203C188.25 12.7422 188.312 12.6602 188.391 12.5586C188.477 12.4492 188.656 12.2656 188.93 12.0078C189.203 11.75 189.488 11.5234 189.785 11.3281C190.09 11.125 190.477 10.9414 190.945 10.7773C191.422 10.6055 191.91 10.5195 192.41 10.5195C193.598 10.5195 194.555 10.9414 195.281 11.7852C196.008 12.6211 196.371 13.8008 196.371 15.3242ZM204.176 10.4023V19.8828C204.176 20.7656 204.285 21.3477 204.504 21.6289C204.73 21.9023 205.18 22.0391 205.852 22.0391V23H198.891V22.0391L200.566 21.6758V14.5977C200.566 13.668 200.441 13.0352 200.191 12.6992C199.949 12.3633 199.516 12.1953 198.891 12.1953V11.2344C199.742 11.2031 200.605 11.1172 201.48 10.9766C202.363 10.8359 203.035 10.6992 203.496 10.5664L204.176 10.4023ZM203.73 5.09375C204.105 5.47656 204.293 5.96484 204.293 6.55859C204.293 7.15234 204.105 7.64062 203.73 8.02344C203.355 8.40625 202.863 8.59766 202.254 8.59766C201.645 8.59766 201.152 8.40625 200.777 8.02344C200.402 7.64062 200.215 7.15234 200.215 6.55859C200.215 5.96484 200.402 5.47656 200.777 5.09375C201.152 4.71094 201.645 4.51953 202.254 4.51953C202.863 4.51953 203.355 4.71094 203.73 5.09375ZM218.098 23H207.059L206.812 22.2852L214.02 12.1953H211.852C210.828 12.1953 210.094 12.4336 209.648 12.9102C209.203 13.3789 208.98 14.1836 208.98 15.3242H207.656V10.7656H218.449L218.695 11.4805L211.5 21.5586H214.02C214.918 21.5586 215.613 21.3086 216.105 20.8086C216.598 20.3008 217.02 19.3906 217.371 18.0781H218.578L218.098 23ZM231.047 14.8438V19.1562C231.047 20.0859 231.172 20.7188 231.422 21.0547C231.672 21.3906 232.105 21.5586 232.723 21.5586V22.5195C232.02 22.5508 231.277 22.6289 230.496 22.7539C229.715 22.8711 229.113 22.9844 228.691 23.0938L228.047 23.2344L227.812 20.9609H227.566C227.52 21.0234 227.453 21.1094 227.367 21.2188C227.289 21.3203 227.117 21.5 226.852 21.7578C226.594 22.0078 226.316 22.2344 226.02 22.4375C225.723 22.6328 225.34 22.8164 224.871 22.9883C224.41 23.1523 223.949 23.2344 223.488 23.2344C222.434 23.2344 221.609 22.9766 221.016 22.4609C220.422 21.9375 220.125 21.2773 220.125 20.4805C220.125 19.7617 220.375 19.1055 220.875 18.5117C221.383 17.918 221.996 17.4531 222.715 17.1172C223.441 16.7812 224.16 16.5 224.871 16.2734C225.582 16.0391 226.184 15.8828 226.676 15.8047L227.449 15.6758V15.0781C227.449 13.0781 226.73 12.0781 225.293 12.0781C225.082 12.0781 224.855 12.1055 224.613 12.1602C224.371 12.2148 224.18 12.2773 224.039 12.3477L223.852 12.4414L223.008 15.0781H221.086V11.7148C221.242 11.6211 221.469 11.5117 221.766 11.3867C222.062 11.2539 222.652 11.0781 223.535 10.8594C224.418 10.6328 225.281 10.5195 226.125 10.5195C227.711 10.5195 228.926 10.9062 229.77 11.6797C230.621 12.4453 231.047 13.5 231.047 14.8438ZM225.164 20.7148C225.547 20.7148 225.93 20.6172 226.312 20.4219C226.703 20.2188 226.984 20.0234 227.156 19.8359L227.449 19.5195V17C227.355 17.0156 227.227 17.0391 227.062 17.0703C226.906 17.1016 226.617 17.1914 226.195 17.3398C225.781 17.4805 225.414 17.6367 225.094 17.8086C224.773 17.9727 224.484 18.2109 224.227 18.5234C223.977 18.8359 223.852 19.168 223.852 19.5195C223.852 19.8867 223.965 20.1797 224.191 20.3984C224.426 20.6094 224.75 20.7148 225.164 20.7148ZM238.617 24.9219L239.332 23.2344C237.793 23.0391 236.508 22.3828 235.477 21.2656C234.453 20.1484 233.941 18.7656 233.941 17.1172C233.941 15.2266 234.602 13.6562 235.922 12.4062C237.242 11.1484 238.941 10.5195 241.02 10.5195C241.801 10.5195 242.531 10.6094 243.211 10.7891C243.891 10.9609 244.375 11.1445 244.664 11.3398L245.098 11.5977V15.4414H243.422L242.332 12.3242C242.012 12.168 241.574 12.0859 241.02 12.0781C240.121 12.0781 239.355 12.4766 238.723 13.2734C238.09 14.0625 237.773 15.1445 237.773 16.5195C237.773 17.8164 238.117 18.8398 238.805 19.5898C239.492 20.3398 240.391 20.7148 241.5 20.7148C242.141 20.7148 242.746 20.6289 243.316 20.457C243.895 20.2773 244.312 20.1016 244.57 19.9297L244.98 19.6367L245.578 20.2344C245.531 20.3125 245.465 20.4141 245.379 20.5391C245.301 20.6562 245.105 20.8789 244.793 21.207C244.48 21.5352 244.145 21.8281 243.785 22.0859C243.426 22.3438 242.941 22.5898 242.332 22.8242C241.73 23.0508 241.094 23.1875 240.422 23.2344L239.812 24.5586C240.133 24.4805 240.453 24.4414 240.773 24.4414C241.305 24.4414 241.758 24.6211 242.133 24.9805C242.508 25.3398 242.695 25.7578 242.695 26.2344C242.695 27.0156 242.324 27.6719 241.582 28.2031C240.84 28.7344 239.73 29 238.254 29L238.5 27.9219C239.859 27.8125 240.539 27.332 240.539 26.4805C240.539 26.1914 240.457 25.957 240.293 25.7773C240.137 25.6055 239.938 25.5195 239.695 25.5195L239.098 25.6367L238.617 24.9219ZM257.812 14.8438V19.1562C257.812 20.0859 257.938 20.7188 258.188 21.0547C258.438 21.3906 258.871 21.5586 259.488 21.5586V22.5195C258.785 22.5508 258.043 22.6289 257.262 22.7539C256.48 22.8711 255.879 22.9844 255.457 23.0938L254.812 23.2344L254.578 20.9609H254.332C254.285 21.0234 254.219 21.1094 254.133 21.2188C254.055 21.3203 253.883 21.5 253.617 21.7578C253.359 22.0078 253.082 22.2344 252.785 22.4375C252.488 22.6328 252.105 22.8164 251.637 22.9883C251.176 23.1523 250.715 23.2344 250.254 23.2344C249.199 23.2344 248.375 22.9766 247.781 22.4609C247.188 21.9375 246.891 21.2773 246.891 20.4805C246.891 19.7617 247.141 19.1055 247.641 18.5117C248.148 17.918 248.762 17.4531 249.48 17.1172C250.207 16.7812 250.926 16.5 251.637 16.2734C252.348 16.0391 252.949 15.8828 253.441 15.8047L254.215 15.6758V15.0781C254.215 13.0781 253.496 12.0781 252.059 12.0781C251.848 12.0781 251.621 12.1055 251.379 12.1602C251.137 12.2148 250.945 12.2773 250.805 12.3477L250.617 12.4414L249.773 15.0781H247.852V11.7148C248.008 11.6211 248.234 11.5117 248.531 11.3867C248.828 11.2539 249.418 11.0781 250.301 10.8594C251.184 10.6328 252.047 10.5195 252.891 10.5195C254.477 10.5195 255.691 10.9062 256.535 11.6797C257.387 12.4453 257.812 13.5 257.812 14.8438ZM251.93 20.7148C252.312 20.7148 252.695 20.6172 253.078 20.4219C253.469 20.2188 253.75 20.0234 253.922 19.8359L254.215 19.5195V17C254.121 17.0156 253.992 17.0391 253.828 17.0703C253.672 17.1016 253.383 17.1914 252.961 17.3398C252.547 17.4805 252.18 17.6367 251.859 17.8086C251.539 17.9727 251.25 18.2109 250.992 18.5234C250.742 18.8359 250.617 19.168 250.617 19.5195C250.617 19.8867 250.73 20.1797 250.957 20.3984C251.191 20.6094 251.516 20.7148 251.93 20.7148ZM253.969 8.11719L252.293 7.63672C251.73 7.48047 251.289 7.40234 250.969 7.40234C250.602 7.40234 250.281 7.67969 250.008 8.23438L249.176 8L249.527 6.80469C249.832 5.76562 250.395 5.24219 251.215 5.23438C251.355 5.23438 251.535 5.25781 251.754 5.30469C251.973 5.34375 252.152 5.38672 252.293 5.43359L252.527 5.48047L254.215 5.96094C254.777 6.11719 255.215 6.19531 255.527 6.19531C255.895 6.19531 256.215 5.91797 256.488 5.36328L257.332 5.59766L256.969 6.80469C256.664 7.84375 256.105 8.36328 255.293 8.36328C255.152 8.36328 254.973 8.34375 254.754 8.30469C254.535 8.25781 254.355 8.21094 254.215 8.16406L253.969 8.11719ZM264.539 16.6367C264.539 20.0742 265.5 21.7969 267.422 21.8047C268.156 21.8047 268.777 21.418 269.285 20.6445C269.801 19.8633 270.059 18.6875 270.059 17.1172C270.059 13.6797 269.102 11.9609 267.188 11.9609C266.453 11.9609 265.828 12.3477 265.312 13.1211C264.797 13.8945 264.539 15.0664 264.539 16.6367ZM273.902 16.7656C273.902 18.5859 273.254 20.1211 271.957 21.3711C270.66 22.6133 269.027 23.2344 267.059 23.2344C265.199 23.2344 263.676 22.6484 262.488 21.4766C261.301 20.2969 260.707 18.8047 260.707 17C260.707 15.1797 261.352 13.6445 262.641 12.3945C263.938 11.1445 265.57 10.5195 267.539 10.5195C269.398 10.5195 270.922 11.1094 272.109 12.2891C273.305 13.4688 273.902 14.9609 273.902 16.7656ZM289.266 10.5195C289.586 10.5195 289.906 10.5508 290.227 10.6133C290.547 10.6758 290.785 10.7422 290.941 10.8125L291.188 10.8828V7.76562C291.188 6.83594 291.062 6.20313 290.812 5.86719C290.562 5.53125 290.125 5.36328 289.5 5.36328V4.40234C290.281 4.37109 291.113 4.28516 291.996 4.14453C292.879 3.99609 293.566 3.86719 294.059 3.75781L294.785 3.55859V19.1562C294.785 20.0859 294.906 20.7188 295.148 21.0547C295.398 21.3906 295.836 21.5586 296.461 21.5586V22.5195C295.758 22.5508 295.012 22.6289 294.223 22.7539C293.441 22.8711 292.844 22.9844 292.43 23.0938L291.785 23.2344L291.539 20.9609H291.305C291.258 21.0234 291.191 21.1094 291.105 21.2188C291.027 21.3203 290.855 21.5 290.59 21.7578C290.332 22.0078 290.055 22.2344 289.758 22.4375C289.461 22.6328 289.078 22.8164 288.609 22.9883C288.148 23.1523 287.688 23.2344 287.227 23.2344C285.977 23.2344 284.902 22.707 284.004 21.6523C283.113 20.5977 282.668 19.207 282.668 17.4805C282.668 15.4023 283.281 13.7227 284.508 12.4414C285.742 11.1602 287.328 10.5195 289.266 10.5195ZM289.148 12.0781C288.367 12.0781 287.711 12.4648 287.18 13.2383C286.648 14.0039 286.383 15.1797 286.383 16.7656C286.383 18.0781 286.609 19.0469 287.062 19.6719C287.523 20.2891 288.137 20.5977 288.902 20.5977C289.285 20.5977 289.668 20.5117 290.051 20.3398C290.441 20.1602 290.723 19.9766 290.895 19.7891L291.188 19.5195V12.9219C290.711 12.3594 290.031 12.0781 289.148 12.0781ZM308.344 14.8438V19.1562C308.344 20.0859 308.469 20.7188 308.719 21.0547C308.969 21.3906 309.402 21.5586 310.02 21.5586V22.5195C309.316 22.5508 308.574 22.6289 307.793 22.7539C307.012 22.8711 306.41 22.9844 305.988 23.0938L305.344 23.2344L305.109 20.9609H304.863C304.816 21.0234 304.75 21.1094 304.664 21.2188C304.586 21.3203 304.414 21.5 304.148 21.7578C303.891 22.0078 303.613 22.2344 303.316 22.4375C303.02 22.6328 302.637 22.8164 302.168 22.9883C301.707 23.1523 301.246 23.2344 300.785 23.2344C299.73 23.2344 298.906 22.9766 298.312 22.4609C297.719 21.9375 297.422 21.2773 297.422 20.4805C297.422 19.7617 297.672 19.1055 298.172 18.5117C298.68 17.918 299.293 17.4531 300.012 17.1172C300.738 16.7812 301.457 16.5 302.168 16.2734C302.879 16.0391 303.48 15.8828 303.973 15.8047L304.746 15.6758V15.0781C304.746 13.0781 304.027 12.0781 302.59 12.0781C302.379 12.0781 302.152 12.1055 301.91 12.1602C301.668 12.2148 301.477 12.2773 301.336 12.3477L301.148 12.4414L300.305 15.0781H298.383V11.7148C298.539 11.6211 298.766 11.5117 299.062 11.3867C299.359 11.2539 299.949 11.0781 300.832 10.8594C301.715 10.6328 302.578 10.5195 303.422 10.5195C305.008 10.5195 306.223 10.9062 307.066 11.6797C307.918 12.4453 308.344 13.5 308.344 14.8438ZM302.461 20.7148C302.844 20.7148 303.227 20.6172 303.609 20.4219C304 20.2188 304.281 20.0234 304.453 19.8359L304.746 19.5195V17C304.652 17.0156 304.523 17.0391 304.359 17.0703C304.203 17.1016 303.914 17.1914 303.492 17.3398C303.078 17.4805 302.711 17.6367 302.391 17.8086C302.07 17.9727 301.781 18.2109 301.523 18.5234C301.273 18.8359 301.148 19.168 301.148 19.5195C301.148 19.8867 301.262 20.1797 301.488 20.3984C301.723 20.6094 302.047 20.7148 302.461 20.7148ZM320.238 21.5586V8.11719C320.238 7.04688 320.109 6.35938 319.852 6.05469C319.594 5.75 319.039 5.59766 318.188 5.59766V4.51953H326.355V5.48047L324.07 5.96094V21.4414H327.914C329.242 21.4414 330.191 21.1523 330.762 20.5742C331.34 19.9961 331.75 18.9258 331.992 17.3633H333.434L332.836 23H318.188V22.0391L320.238 21.5586ZM339.668 10.4023V19.8828C339.668 20.7656 339.777 21.3477 339.996 21.6289C340.223 21.9023 340.672 22.0391 341.344 22.0391V23H334.383V22.0391L336.059 21.6758V14.5977C336.059 13.668 335.934 13.0352 335.684 12.6992C335.441 12.3633 335.008 12.1953 334.383 12.1953V11.2344C335.234 11.2031 336.098 11.1172 336.973 10.9766C337.855 10.8359 338.527 10.6992 338.988 10.5664L339.668 10.4023ZM339.223 5.09375C339.598 5.47656 339.785 5.96484 339.785 6.55859C339.785 7.15234 339.598 7.64062 339.223 8.02344C338.848 8.40625 338.355 8.59766 337.746 8.59766C337.137 8.59766 336.645 8.40625 336.27 8.02344C335.895 7.64062 335.707 7.15234 335.707 6.55859C335.707 5.96484 335.895 5.47656 336.27 5.09375C336.645 4.71094 337.137 4.51953 337.746 4.51953C338.355 4.51953 338.848 4.71094 339.223 5.09375ZM355.512 15.3242V19.8828C355.512 20.7656 355.621 21.3477 355.84 21.6289C356.066 21.9023 356.516 22.0391 357.188 22.0391V23H350.227V22.0391L351.902 21.6758V15.5586C351.902 13.957 351.223 13.1562 349.863 13.1562C349.48 13.1562 349.09 13.2461 348.691 13.4258C348.293 13.5977 347.988 13.7812 347.777 13.9766L347.473 14.2344V19.8828C347.473 20.7656 347.582 21.3477 347.801 21.6289C348.027 21.9023 348.477 22.0391 349.148 22.0391V23H342.188V22.0391L343.863 21.6758V14.5977C343.863 13.668 343.738 13.0352 343.488 12.6992C343.246 12.3633 342.812 12.1953 342.188 12.1953V11.2344C342.891 11.2031 343.633 11.1289 344.414 11.0117C345.203 10.8945 345.805 10.7773 346.219 10.6602L346.863 10.5195L347.109 12.8047H347.344C347.391 12.7422 347.453 12.6602 347.531 12.5586C347.617 12.4492 347.797 12.2656 348.07 12.0078C348.344 11.75 348.629 11.5234 348.926 11.3281C349.23 11.125 349.617 10.9414 350.086 10.7773C350.562 10.6055 351.051 10.5195 351.551 10.5195C352.738 10.5195 353.695 10.9414 354.422 11.7852C355.148 12.6211 355.512 13.8008 355.512 15.3242ZM363.914 10.6367C364.492 10.6367 365.02 10.6914 365.496 10.8008C365.973 10.9023 366.309 11 366.504 11.0938L366.785 11.2344L371.707 10.4023V13.5195H370.746L368.707 12.3242L368.109 11.7148L367.875 11.9609C367.969 12.0391 368.078 12.1562 368.203 12.3125C368.336 12.4609 368.512 12.7773 368.73 13.2617C368.957 13.7383 369.07 14.2227 369.07 14.7148C369.07 15.9023 368.617 16.8828 367.711 17.6562C366.812 18.4219 365.547 18.8047 363.914 18.8047L362.836 18.6758C362.195 19.1523 361.875 19.5938 361.875 20C361.875 20.2578 361.957 20.4414 362.121 20.5508C362.293 20.6602 362.609 20.7148 363.07 20.7148H366.434C367.762 20.7148 368.773 20.9961 369.469 21.5586C370.164 22.1211 370.512 22.8398 370.512 23.7148C370.512 25.0742 369.844 26.2539 368.508 27.2539C367.172 28.2617 365.305 28.7656 362.906 28.7656C361.016 28.7656 359.688 28.543 358.922 28.0977C358.164 27.6602 357.785 27.0391 357.785 26.2344C357.785 25.7031 358.016 25.1875 358.477 24.6875C358.945 24.1875 359.406 23.8164 359.859 23.5742L360.551 23.2344V23.1172C359.27 23.1172 358.629 22.6797 358.629 21.8047C358.629 21.3438 358.867 20.832 359.344 20.2695C359.828 19.707 360.309 19.2578 360.785 18.9219L361.512 18.4414C361.434 18.4258 361.332 18.3945 361.207 18.3477C361.09 18.3008 360.871 18.1797 360.551 17.9844C360.23 17.7891 359.949 17.5703 359.707 17.3281C359.473 17.0781 359.254 16.7227 359.051 16.2617C358.848 15.793 358.746 15.2773 358.746 14.7148C358.746 13.5273 359.199 12.5508 360.105 11.7852C361.012 11.0195 362.281 10.6367 363.914 10.6367ZM365.355 23.2344H361.992C361.352 23.875 361.031 24.5586 361.031 25.2852C361.031 25.8633 361.254 26.3242 361.699 26.668C362.152 27.0195 362.809 27.1953 363.668 27.1953C364.707 27.1953 365.527 26.9492 366.129 26.457C366.73 25.9727 367.031 25.3789 367.031 24.6758C367.031 24.2461 366.883 23.8984 366.586 23.6328C366.297 23.3672 365.887 23.2344 365.355 23.2344ZM365.59 14.8438C365.59 13.9453 365.426 13.2617 365.098 12.793C364.77 12.3164 364.375 12.0781 363.914 12.0781C362.797 12.0781 362.234 12.918 362.227 14.5977C362.227 15.4961 362.391 16.1836 362.719 16.6602C363.047 17.1289 363.445 17.3633 363.914 17.3633C365.031 17.3633 365.59 16.5234 365.59 14.8438ZM385.031 10.4023V19.1562C385.031 20.0859 385.156 20.7188 385.406 21.0547C385.656 21.3906 386.094 21.5586 386.719 21.5586V22.5195C386.016 22.5508 385.27 22.6289 384.48 22.7539C383.699 22.8711 383.102 22.9844 382.688 23.0938L382.031 23.2344L381.797 20.9609H381.551C381.504 21.0234 381.441 21.1094 381.363 21.2188C381.285 21.3203 381.109 21.5 380.836 21.7578C380.562 22.0078 380.273 22.2344 379.969 22.4375C379.664 22.6328 379.273 22.8164 378.797 22.9883C378.328 23.1523 377.848 23.2344 377.355 23.2344C376.168 23.2344 375.211 22.8164 374.484 21.9805C373.758 21.1367 373.395 19.957 373.395 18.4414V14.5977C373.395 13.668 373.27 13.0352 373.02 12.6992C372.777 12.3633 372.344 12.1953 371.719 12.1953V11.2344C372.57 11.2031 373.434 11.1172 374.309 10.9766C375.191 10.8359 375.855 10.6992 376.301 10.5664L376.992 10.4023V18.1953C376.992 19.7969 377.672 20.5977 379.031 20.5977C379.414 20.5977 379.805 20.5117 380.203 20.3398C380.609 20.1602 380.918 19.9766 381.129 19.7891L381.434 19.5195V14.5977C381.434 13.668 381.309 13.0352 381.059 12.6992C380.816 12.3633 380.383 12.1953 379.758 12.1953V11.2344C380.609 11.2031 381.473 11.1172 382.348 10.9766C383.23 10.8359 383.902 10.6992 384.363 10.5664L385.031 10.4023ZM398.602 14.8438V19.1562C398.602 20.0859 398.727 20.7188 398.977 21.0547C399.227 21.3906 399.66 21.5586 400.277 21.5586V22.5195C399.574 22.5508 398.832 22.6289 398.051 22.7539C397.27 22.8711 396.668 22.9844 396.246 23.0938L395.602 23.2344L395.367 20.9609H395.121C395.074 21.0234 395.008 21.1094 394.922 21.2188C394.844 21.3203 394.672 21.5 394.406 21.7578C394.148 22.0078 393.871 22.2344 393.574 22.4375C393.277 22.6328 392.895 22.8164 392.426 22.9883C391.965 23.1523 391.504 23.2344 391.043 23.2344C389.988 23.2344 389.164 22.9766 388.57 22.4609C387.977 21.9375 387.68 21.2773 387.68 20.4805C387.68 19.7617 387.93 19.1055 388.43 18.5117C388.938 17.918 389.551 17.4531 390.27 17.1172C390.996 16.7812 391.715 16.5 392.426 16.2734C393.137 16.0391 393.738 15.8828 394.23 15.8047L395.004 15.6758V15.0781C395.004 13.0781 394.285 12.0781 392.848 12.0781C392.637 12.0781 392.41 12.1055 392.168 12.1602C391.926 12.2148 391.734 12.2773 391.594 12.3477L391.406 12.4414L390.562 15.0781H388.641V11.7148C388.797 11.6211 389.023 11.5117 389.32 11.3867C389.617 11.2539 390.207 11.0781 391.09 10.8594C391.973 10.6328 392.836 10.5195 393.68 10.5195C395.266 10.5195 396.48 10.9062 397.324 11.6797C398.176 12.4453 398.602 13.5 398.602 14.8438ZM392.719 20.7148C393.102 20.7148 393.484 20.6172 393.867 20.4219C394.258 20.2188 394.539 20.0234 394.711 19.8359L395.004 19.5195V17C394.91 17.0156 394.781 17.0391 394.617 17.0703C394.461 17.1016 394.172 17.1914 393.75 17.3398C393.336 17.4805 392.969 17.6367 392.648 17.8086C392.328 17.9727 392.039 18.2109 391.781 18.5234C391.531 18.8359 391.406 19.168 391.406 19.5195C391.406 19.8867 391.52 20.1797 391.746 20.3984C391.98 20.6094 392.305 20.7148 392.719 20.7148ZM407.016 10.6367C407.594 10.6367 408.121 10.6914 408.598 10.8008C409.074 10.9023 409.41 11 409.605 11.0938L409.887 11.2344L414.809 10.4023V13.5195H413.848L411.809 12.3242L411.211 11.7148L410.977 11.9609C411.07 12.0391 411.18 12.1562 411.305 12.3125C411.438 12.4609 411.613 12.7773 411.832 13.2617C412.059 13.7383 412.172 14.2227 412.172 14.7148C412.172 15.9023 411.719 16.8828 410.812 17.6562C409.914 18.4219 408.648 18.8047 407.016 18.8047L405.938 18.6758C405.297 19.1523 404.977 19.5938 404.977 20C404.977 20.2578 405.059 20.4414 405.223 20.5508C405.395 20.6602 405.711 20.7148 406.172 20.7148H409.535C410.863 20.7148 411.875 20.9961 412.57 21.5586C413.266 22.1211 413.613 22.8398 413.613 23.7148C413.613 25.0742 412.945 26.2539 411.609 27.2539C410.273 28.2617 408.406 28.7656 406.008 28.7656C404.117 28.7656 402.789 28.543 402.023 28.0977C401.266 27.6602 400.887 27.0391 400.887 26.2344C400.887 25.7031 401.117 25.1875 401.578 24.6875C402.047 24.1875 402.508 23.8164 402.961 23.5742L403.652 23.2344V23.1172C402.371 23.1172 401.73 22.6797 401.73 21.8047C401.73 21.3438 401.969 20.832 402.445 20.2695C402.93 19.707 403.41 19.2578 403.887 18.9219L404.613 18.4414C404.535 18.4258 404.434 18.3945 404.309 18.3477C404.191 18.3008 403.973 18.1797 403.652 17.9844C403.332 17.7891 403.051 17.5703 402.809 17.3281C402.574 17.0781 402.355 16.7227 402.152 16.2617C401.949 15.793 401.848 15.2773 401.848 14.7148C401.848 13.5273 402.301 12.5508 403.207 11.7852C404.113 11.0195 405.383 10.6367 407.016 10.6367ZM408.457 23.2344H405.094C404.453 23.875 404.133 24.5586 404.133 25.2852C404.133 25.8633 404.355 26.3242 404.801 26.668C405.254 27.0195 405.91 27.1953 406.77 27.1953C407.809 27.1953 408.629 26.9492 409.23 26.457C409.832 25.9727 410.133 25.3789 410.133 24.6758C410.133 24.2461 409.984 23.8984 409.688 23.6328C409.398 23.3672 408.988 23.2344 408.457 23.2344ZM408.691 14.8438C408.691 13.9453 408.527 13.2617 408.199 12.793C407.871 12.3164 407.477 12.0781 407.016 12.0781C405.898 12.0781 405.336 12.918 405.328 14.5977C405.328 15.4961 405.492 16.1836 405.82 16.6602C406.148 17.1289 406.547 17.3633 407.016 17.3633C408.133 17.3633 408.691 16.5234 408.691 14.8438ZM421.535 12.0781C420.957 12.0781 420.457 12.3555 420.035 12.9102C419.613 13.457 419.312 14.3008 419.133 15.4414L423.34 15.0781V14.4805C423.34 13.7305 423.168 13.1445 422.824 12.7227C422.48 12.293 422.051 12.0781 421.535 12.0781ZM421.781 10.5195C423.398 10.5195 424.664 10.9727 425.578 11.8789C426.5 12.7773 426.992 14.043 427.055 15.6758L425.859 16.7656H419.133C419.195 18.0781 419.543 19.0664 420.176 19.7305C420.809 20.3867 421.703 20.7148 422.859 20.7148C423.5 20.7148 424.105 20.6289 424.676 20.457C425.254 20.2773 425.672 20.1016 425.93 19.9297L426.34 19.6367L426.938 20.2344C426.891 20.3125 426.82 20.4219 426.727 20.5625C426.641 20.7031 426.43 20.9453 426.094 21.2891C425.758 21.6328 425.398 21.9375 425.016 22.2031C424.633 22.4609 424.117 22.6992 423.469 22.918C422.82 23.1289 422.137 23.2344 421.418 23.2344C419.676 23.2344 418.219 22.6523 417.047 21.4883C415.883 20.3164 415.301 18.8594 415.301 17.1172C415.301 15.2578 415.93 13.6953 417.188 12.4297C418.445 11.1562 419.977 10.5195 421.781 10.5195ZM448.77 15.3242V19.8828C448.77 20.7656 448.879 21.3477 449.098 21.6289C449.324 21.9023 449.773 22.0391 450.445 22.0391V23H443.73V22.0391L445.172 21.6758V15.5586C445.172 13.957 444.57 13.1562 443.367 13.1562C442.984 13.1562 442.605 13.2461 442.23 13.4258C441.855 13.5977 441.57 13.7812 441.375 13.9766L441.082 14.2344C441.16 14.4766 441.203 14.918 441.211 15.5586V19.8828C441.211 20.7656 441.316 21.3477 441.527 21.6289C441.746 21.9023 442.16 22.0391 442.77 22.0391V23H436.172V22.0391L437.602 21.6758V15.5586C437.602 13.957 437.004 13.1562 435.809 13.1562C435.457 13.1562 435.102 13.2383 434.742 13.4023C434.383 13.5586 434.113 13.7188 433.934 13.8828L433.652 14.1172V19.8828C433.652 20.7656 433.758 21.3477 433.969 21.6289C434.188 21.9023 434.602 22.0391 435.211 22.0391V23H428.367V22.0391L430.043 21.6758V14.5977C430.043 13.668 429.918 13.0352 429.668 12.6992C429.426 12.3633 428.992 12.1953 428.367 12.1953V11.2344C429.07 11.2031 429.812 11.1289 430.594 11.0117C431.383 10.8945 431.984 10.7773 432.398 10.6602L433.043 10.5195L433.289 12.6758H433.523C433.555 12.6133 433.605 12.5352 433.676 12.4414C433.754 12.3477 433.914 12.1758 434.156 11.9258C434.406 11.6758 434.672 11.457 434.953 11.2695C435.234 11.0742 435.602 10.9023 436.055 10.7539C436.516 10.5977 436.992 10.5195 437.484 10.5195C437.945 10.5195 438.375 10.5977 438.773 10.7539C439.18 10.9023 439.492 11.082 439.711 11.293C439.938 11.4961 440.133 11.7031 440.297 11.9141C440.469 12.1172 440.59 12.293 440.66 12.4414L440.73 12.6758H440.965C440.996 12.6133 441.051 12.5352 441.129 12.4414C441.215 12.3477 441.383 12.1758 441.633 11.9258C441.891 11.6758 442.168 11.457 442.465 11.2695C442.762 11.0742 443.141 10.9023 443.602 10.7539C444.07 10.5977 444.551 10.5195 445.043 10.5195C446.16 10.5195 447.059 10.9297 447.738 11.75C448.426 12.5625 448.77 13.7539 448.77 15.3242Z" fill="white"/>
</svg>
