<svg width="561" height="128" viewBox="0 0 561 128" fill="none" xmlns="http://www.w3.org/2000/svg">
<path d="M14.5273 119.922L12.4883 114.766H5.64453L4.56641 117.637C4.32422 118.199 4.20312 118.719 4.20312 119.195C4.20312 119.562 4.32031 119.836 4.55469 120.016C4.78906 120.195 5.19531 120.285 5.77344 120.285V121H0.253906V120.402L2.29297 119.922L9.00781 102.285H10.0859L16.2031 118.117C16.5078 118.914 16.8477 119.477 17.2227 119.805C17.6055 120.125 18.1484 120.285 18.8516 120.285V121H12.4883V120.402L14.5273 119.922ZM9.125 105.637L6.125 113.676H12.125L9.125 105.637ZM19.2031 120.402L20.8906 120.039V105.285C20.8906 104.473 20.7617 103.91 20.5039 103.598C20.2461 103.277 19.8125 103.117 19.2031 103.117V102.52C19.8125 102.457 20.4258 102.348 21.043 102.191C21.6602 102.027 22.1289 101.883 22.4492 101.758L22.9297 101.559V118.598C22.9297 119.316 23.043 119.797 23.2695 120.039C23.5039 120.281 23.9492 120.402 24.6055 120.402V121H19.2031V120.402ZM25.8125 120.402L27.5 120.039V105.285C27.5 104.473 27.3711 103.91 27.1133 103.598C26.8555 103.277 26.4219 103.117 25.8125 103.117V102.52C26.4219 102.457 27.0352 102.348 27.6523 102.191C28.2695 102.027 28.7383 101.883 29.0586 101.758L29.5391 101.559V118.598C29.5391 119.316 29.6523 119.797 29.8789 120.039C30.1133 120.281 30.5586 120.402 31.2148 120.402V121H25.8125V120.402ZM32.5391 120.402L34.2266 120.039V112.234C34.2266 111.422 34.0977 110.859 33.8398 110.547C33.582 110.234 33.1484 110.078 32.5391 110.078V109.48C33.1484 109.418 33.7617 109.309 34.3789 109.152C34.9961 108.988 35.4648 108.84 35.7852 108.707L36.2656 108.52V118.598C36.2656 119.316 36.3789 119.797 36.6055 120.039C36.8398 120.281 37.2852 120.402 37.9414 120.402V121H32.5391V120.402ZM36.1602 103.352C36.4727 103.664 36.6289 104.027 36.6289 104.441C36.6289 104.855 36.4727 105.219 36.1602 105.531C35.8477 105.844 35.4805 106 35.0586 106C34.6445 106 34.2812 105.844 33.9688 105.531C33.6562 105.219 33.5 104.855 33.5 104.441C33.5 104.027 33.6562 103.664 33.9688 103.352C34.2812 103.039 34.6445 102.883 35.0586 102.883C35.4805 102.883 35.8477 103.039 36.1602 103.352ZM46.2383 118.234C46.2383 117.805 46.0117 117.406 45.5586 117.039C45.1133 116.672 44.5742 116.344 43.9414 116.055C43.3086 115.766 42.6758 115.457 42.043 115.129C41.4102 114.801 40.8711 114.371 40.4258 113.84C39.9805 113.301 39.7578 112.688 39.7578 112C39.7578 111.055 40.125 110.281 40.8594 109.68C41.5938 109.07 42.625 108.766 43.9531 108.766C44.5312 108.766 45.0781 108.824 45.5938 108.941C46.1172 109.059 46.5 109.176 46.7422 109.293L47.0703 109.48V112.363H46.4727C46.3477 111.449 46.0625 110.781 45.6172 110.359C45.1797 109.93 44.5469 109.715 43.7188 109.715C42.9688 109.715 42.3984 109.867 42.0078 110.172C41.625 110.477 41.4336 110.887 41.4336 111.402C41.4336 111.863 41.6562 112.277 42.1016 112.645C42.5547 113.012 43.0938 113.34 43.7188 113.629C44.3516 113.918 44.9844 114.223 45.6172 114.543C46.25 114.863 46.7891 115.289 47.2344 115.82C47.6875 116.344 47.9141 116.941 47.9141 117.613C47.9141 118.73 47.5195 119.613 46.7305 120.262C45.9492 120.91 44.8242 121.234 43.3555 121.234C42.7461 121.234 42.1328 121.148 41.5156 120.977C40.8984 120.797 40.4297 120.613 40.1094 120.426L39.6289 120.156V117.039H40.2383C40.4805 118.188 40.8594 119.016 41.375 119.523C41.8906 120.031 42.6289 120.285 43.5898 120.285C44.457 120.285 45.1133 120.102 45.5586 119.734C46.0117 119.359 46.2383 118.859 46.2383 118.234ZM61.9648 114.766C61.9648 116.672 61.375 118.227 60.1953 119.43C59.0234 120.633 57.5312 121.234 55.7188 121.234C54.0859 121.234 52.7383 120.68 51.6758 119.57C50.6133 118.461 50.082 117.016 50.082 115.234C50.082 113.328 50.668 111.773 51.8398 110.57C53.0195 109.367 54.5156 108.766 56.3281 108.766C57.9609 108.766 59.3086 109.324 60.3711 110.441C61.4336 111.551 61.9648 112.992 61.9648 114.766ZM53.293 111.098C52.5898 112.02 52.2383 113.32 52.2383 115C52.2383 116.68 52.5977 117.98 53.3164 118.902C54.043 119.824 54.9648 120.285 56.082 120.285C57.1523 120.285 58.0391 119.824 58.7422 118.902C59.4531 117.98 59.8086 116.68 59.8086 115C59.8086 113.32 59.4453 112.02 58.7188 111.098C58 110.176 57.082 109.715 55.9648 109.715C54.8945 109.715 54.0039 110.176 53.293 111.098ZM63.7578 120.402L65.4453 120.039V112.234C65.4453 111.469 65.3164 110.938 65.0586 110.641C64.8008 110.344 64.3672 110.195 63.7578 110.195V109.598C64.2891 109.535 64.8477 109.434 65.4336 109.293C66.0195 109.145 66.4688 109.016 66.7812 108.906L67.2383 108.766L67.4844 110.922H67.6016C67.6484 110.859 67.7148 110.781 67.8008 110.688C67.8945 110.586 68.0781 110.414 68.3516 110.172C68.6328 109.922 68.9258 109.699 69.2305 109.504C69.5352 109.309 69.9219 109.137 70.3906 108.988C70.8672 108.84 71.3398 108.766 71.8086 108.766C72.9961 108.766 73.9102 109.152 74.5508 109.926C75.1992 110.699 75.5234 111.871 75.5234 113.441V118.598C75.5234 119.316 75.6367 119.797 75.8633 120.039C76.0977 120.281 76.543 120.402 77.1992 120.402V121H71.8086V120.402L73.4844 120.039V113.676C73.4844 112.504 73.2734 111.672 72.8516 111.18C72.4375 110.688 71.7695 110.441 70.8477 110.441C70.3164 110.441 69.7695 110.57 69.207 110.828C68.6523 111.078 68.2305 111.332 67.9414 111.59L67.4844 112V118.598C67.4844 119.316 67.5977 119.797 67.8242 120.039C68.0586 120.281 68.5039 120.402 69.1602 120.402V121H63.7578V120.402ZM85.2383 120.402L87.2773 119.922V105.637C87.2773 104.613 87.1484 103.957 86.8906 103.668C86.6406 103.379 86.0898 103.234 85.2383 103.234V102.52H98.3281V107.195H97.4844C97.4844 105.773 97.2656 104.82 96.8281 104.336C96.3984 103.844 95.5781 103.598 94.3672 103.598H89.4453V111.039H91.9648C92.9883 111.039 93.6445 110.898 93.9336 110.617C94.2227 110.336 94.3672 109.719 94.3672 108.766H95.1992V114.766H94.3672C94.3672 113.695 94.207 112.988 93.8867 112.645C93.5664 112.293 92.9258 112.117 91.9648 112.117H89.4453V117.883C89.4453 118.906 89.6133 119.562 89.9492 119.852C90.2852 120.141 91.0781 120.285 92.3281 120.285V121H85.2383V120.402ZM99.3828 120.402L101.07 120.039V105.285C101.07 104.473 100.941 103.91 100.684 103.598C100.426 103.277 99.9922 103.117 99.3828 103.117V102.52C99.9922 102.457 100.605 102.348 101.223 102.191C101.84 102.027 102.309 101.883 102.629 101.758L103.109 101.559V118.598C103.109 119.316 103.223 119.797 103.449 120.039C103.684 120.281 104.129 120.402 104.785 120.402V121H99.3828V120.402ZM118.355 114.766C118.355 116.672 117.766 118.227 116.586 119.43C115.414 120.633 113.922 121.234 112.109 121.234C110.477 121.234 109.129 120.68 108.066 119.57C107.004 118.461 106.473 117.016 106.473 115.234C106.473 113.328 107.059 111.773 108.23 110.57C109.41 109.367 110.906 108.766 112.719 108.766C114.352 108.766 115.699 109.324 116.762 110.441C117.824 111.551 118.355 112.992 118.355 114.766ZM109.684 111.098C108.98 112.02 108.629 113.32 108.629 115C108.629 116.68 108.988 117.98 109.707 118.902C110.434 119.824 111.355 120.285 112.473 120.285C113.543 120.285 114.43 119.824 115.133 118.902C115.844 117.98 116.199 116.68 116.199 115C116.199 113.32 115.836 112.02 115.109 111.098C114.391 110.176 113.473 109.715 112.355 109.715C111.285 109.715 110.395 110.176 109.684 111.098ZM132.395 114.766C132.395 116.672 131.805 118.227 130.625 119.43C129.453 120.633 127.961 121.234 126.148 121.234C124.516 121.234 123.168 120.68 122.105 119.57C121.043 118.461 120.512 117.016 120.512 115.234C120.512 113.328 121.098 111.773 122.27 110.57C123.449 109.367 124.945 108.766 126.758 108.766C128.391 108.766 129.738 109.324 130.801 110.441C131.863 111.551 132.395 112.992 132.395 114.766ZM123.723 111.098C123.02 112.02 122.668 113.32 122.668 115C122.668 116.68 123.027 117.98 123.746 118.902C124.473 119.824 125.395 120.285 126.512 120.285C127.582 120.285 128.469 119.824 129.172 118.902C129.883 117.98 130.238 116.68 130.238 115C130.238 113.32 129.875 112.02 129.148 111.098C128.43 110.176 127.512 109.715 126.395 109.715C125.324 109.715 124.434 110.176 123.723 111.098ZM143.434 121.234L143.188 119.078H143.07C143.039 119.141 142.984 119.223 142.906 119.324C142.828 119.418 142.664 119.59 142.414 119.84C142.164 120.082 141.898 120.301 141.617 120.496C141.336 120.691 140.98 120.863 140.551 121.012C140.121 121.16 139.684 121.234 139.238 121.234C137.926 121.234 136.836 120.723 135.969 119.699C135.102 118.676 134.668 117.27 134.668 115.48C134.668 113.402 135.234 111.766 136.367 110.57C137.508 109.367 139.023 108.766 140.914 108.766C141.297 108.766 141.68 108.805 142.062 108.883C142.445 108.961 142.734 109.039 142.93 109.117L143.188 109.234V105.285C143.188 104.473 143.059 103.91 142.801 103.598C142.551 103.277 142.121 103.117 141.512 103.117V102.52C142.121 102.457 142.734 102.348 143.352 102.191C143.969 102.027 144.438 101.883 144.758 101.758L145.238 101.559V117.766C145.238 118.531 145.363 119.062 145.613 119.359C145.871 119.656 146.305 119.805 146.914 119.805V120.402C146.383 120.465 145.824 120.57 145.238 120.719C144.66 120.859 144.211 120.984 143.891 121.094L143.434 121.234ZM140.551 109.715C139.465 109.715 138.574 110.172 137.879 111.086C137.184 112 136.836 113.336 136.836 115.094C136.836 116.617 137.121 117.742 137.691 118.469C138.27 119.195 139.062 119.559 140.07 119.559C140.562 119.559 141.07 119.434 141.594 119.184C142.117 118.926 142.516 118.668 142.789 118.41L143.188 118V110.805C143.125 110.727 143.027 110.629 142.895 110.512C142.77 110.387 142.48 110.223 142.027 110.02C141.574 109.816 141.082 109.715 140.551 109.715Z" fill="white"/>
<path d="M47.4414 28.6367C46.4805 28.6367 45.1094 28.1953 43.3281 27.3125C41.5547 26.4375 40.0117 25.5586 38.6992 24.6758L36.7656 23.3633C34.5234 23.1055 32.6602 22.1367 31.1758 20.457C29.6992 18.7773 28.9609 16.625 28.9609 14C28.9609 11.1172 29.8711 8.75781 31.6914 6.92188C33.5195 5.07813 35.8477 4.15625 38.6758 4.15625C41.2227 4.15625 43.3203 5.02344 44.9688 6.75781C46.6172 8.48438 47.4414 10.7383 47.4414 13.5195C47.4414 16.1289 46.7031 18.293 45.2266 20.0117C43.7578 21.7305 41.8945 22.8047 39.6367 23.2344C44.3242 25.0781 47.2852 26 48.5195 26C48.8398 26 49.1484 25.9727 49.4453 25.918C49.7422 25.8633 49.9609 25.8008 50.1016 25.7305L50.3242 25.6367L50.8047 26.1172C50.7578 26.1797 50.6914 26.2656 50.6055 26.375C50.5273 26.4922 50.3594 26.6992 50.1016 26.9961C49.8438 27.293 49.5898 27.5469 49.3398 27.7578C49.0977 27.9766 48.8008 28.1758 48.4492 28.3555C48.0977 28.543 47.7617 28.6367 47.4414 28.6367ZM38.0781 21.8047C39.5625 21.8047 40.7734 21.1602 41.7109 19.8711C42.6484 18.582 43.1172 16.625 43.1172 14C43.1172 11.1875 42.6641 9.10547 41.7578 7.75391C40.8594 6.39453 39.7148 5.71484 38.3242 5.71484C36.8398 5.71484 35.6289 6.35938 34.6914 7.64844C33.7539 8.9375 33.2852 10.8945 33.2852 13.5195C33.2852 16.332 33.7344 18.418 34.6328 19.7773C35.5391 21.1289 36.6875 21.8047 38.0781 21.8047ZM62.0664 10.4023V19.1562C62.0664 20.0859 62.1914 20.7188 62.4414 21.0547C62.6914 21.3906 63.1289 21.5586 63.7539 21.5586V22.5195C63.0508 22.5508 62.3047 22.6289 61.5156 22.7539C60.7344 22.8711 60.1367 22.9844 59.7227 23.0938L59.0664 23.2344L58.832 20.9609H58.5859C58.5391 21.0234 58.4766 21.1094 58.3984 21.2188C58.3203 21.3203 58.1445 21.5 57.8711 21.7578C57.5977 22.0078 57.3086 22.2344 57.0039 22.4375C56.6992 22.6328 56.3086 22.8164 55.832 22.9883C55.3633 23.1523 54.8828 23.2344 54.3906 23.2344C53.2031 23.2344 52.2461 22.8164 51.5195 21.9805C50.793 21.1367 50.4297 19.957 50.4297 18.4414V14.5977C50.4297 13.668 50.3047 13.0352 50.0547 12.6992C49.8125 12.3633 49.3789 12.1953 48.7539 12.1953V11.2344C49.6055 11.2031 50.4688 11.1172 51.3438 10.9766C52.2266 10.8359 52.8906 10.6992 53.3359 10.5664L54.0273 10.4023V18.1953C54.0273 19.7969 54.707 20.5977 56.0664 20.5977C56.4492 20.5977 56.8398 20.5117 57.2383 20.3398C57.6445 20.1602 57.9531 19.9766 58.1641 19.7891L58.4688 19.5195V14.5977C58.4688 13.668 58.3438 13.0352 58.0938 12.6992C57.8516 12.3633 57.418 12.1953 56.793 12.1953V11.2344C57.6445 11.2031 58.5078 11.1172 59.3828 10.9766C60.2656 10.8359 60.9375 10.6992 61.3984 10.5664L62.0664 10.4023ZM75.6367 14.8438V19.1562C75.6367 20.0859 75.7617 20.7188 76.0117 21.0547C76.2617 21.3906 76.6953 21.5586 77.3125 21.5586V22.5195C76.6094 22.5508 75.8672 22.6289 75.0859 22.7539C74.3047 22.8711 73.7031 22.9844 73.2812 23.0938L72.6367 23.2344L72.4023 20.9609H72.1562C72.1094 21.0234 72.043 21.1094 71.957 21.2188C71.8789 21.3203 71.707 21.5 71.4414 21.7578C71.1836 22.0078 70.9062 22.2344 70.6094 22.4375C70.3125 22.6328 69.9297 22.8164 69.4609 22.9883C69 23.1523 68.5391 23.2344 68.0781 23.2344C67.0234 23.2344 66.1992 22.9766 65.6055 22.4609C65.0117 21.9375 64.7148 21.2773 64.7148 20.4805C64.7148 19.7617 64.9648 19.1055 65.4648 18.5117C65.9727 17.918 66.5859 17.4531 67.3047 17.1172C68.0312 16.7812 68.75 16.5 69.4609 16.2734C70.1719 16.0391 70.7734 15.8828 71.2656 15.8047L72.0391 15.6758V15.0781C72.0391 13.0781 71.3203 12.0781 69.8828 12.0781C69.6719 12.0781 69.4453 12.1055 69.2031 12.1602C68.9609 12.2148 68.7695 12.2773 68.6289 12.3477L68.4414 12.4414L67.5977 15.0781H65.6758V11.7148C65.832 11.6211 66.0586 11.5117 66.3555 11.3867C66.6523 11.2539 67.2422 11.0781 68.125 10.8594C69.0078 10.6328 69.8711 10.5195 70.7148 10.5195C72.3008 10.5195 73.5156 10.9062 74.3594 11.6797C75.2109 12.4453 75.6367 13.5 75.6367 14.8438ZM69.7539 20.7148C70.1367 20.7148 70.5195 20.6172 70.9023 20.4219C71.293 20.2188 71.5742 20.0234 71.7461 19.8359L72.0391 19.5195V17C71.9453 17.0156 71.8164 17.0391 71.6523 17.0703C71.4961 17.1016 71.207 17.1914 70.7852 17.3398C70.3711 17.4805 70.0039 17.6367 69.6836 17.8086C69.3633 17.9727 69.0742 18.2109 68.8164 18.5234C68.5664 18.8359 68.4414 19.168 68.4414 19.5195C68.4414 19.8867 68.5547 20.1797 68.7812 20.3984C69.0156 20.6094 69.3398 20.7148 69.7539 20.7148ZM91.4922 15.3242V19.8828C91.4922 20.7656 91.6016 21.3477 91.8203 21.6289C92.0469 21.9023 92.4961 22.0391 93.168 22.0391V23H86.207V22.0391L87.8828 21.6758V15.5586C87.8828 13.957 87.2031 13.1562 85.8438 13.1562C85.4609 13.1562 85.0703 13.2461 84.6719 13.4258C84.2734 13.5977 83.9688 13.7812 83.7578 13.9766L83.4531 14.2344V19.8828C83.4531 20.7656 83.5625 21.3477 83.7812 21.6289C84.0078 21.9023 84.457 22.0391 85.1289 22.0391V23H78.168V22.0391L79.8438 21.6758V14.5977C79.8438 13.668 79.7188 13.0352 79.4688 12.6992C79.2266 12.3633 78.793 12.1953 78.168 12.1953V11.2344C78.8711 11.2031 79.6133 11.1289 80.3945 11.0117C81.1836 10.8945 81.7852 10.7773 82.1992 10.6602L82.8438 10.5195L83.0898 12.8047H83.3242C83.3711 12.7422 83.4336 12.6602 83.5117 12.5586C83.5977 12.4492 83.7773 12.2656 84.0508 12.0078C84.3242 11.75 84.6094 11.5234 84.9062 11.3281C85.2109 11.125 85.5977 10.9414 86.0664 10.7773C86.543 10.6055 87.0312 10.5195 87.5312 10.5195C88.7188 10.5195 89.6758 10.9414 90.4023 11.7852C91.1289 12.6211 91.4922 13.8008 91.4922 15.3242ZM100.973 10.5195C101.293 10.5195 101.613 10.5508 101.934 10.6133C102.254 10.6758 102.492 10.7422 102.648 10.8125L102.895 10.8828V7.76562C102.895 6.83594 102.77 6.20313 102.52 5.86719C102.27 5.53125 101.832 5.36328 101.207 5.36328V4.40234C101.988 4.37109 102.82 4.28516 103.703 4.14453C104.586 3.99609 105.273 3.86719 105.766 3.75781L106.492 3.55859V19.1562C106.492 20.0859 106.613 20.7188 106.855 21.0547C107.105 21.3906 107.543 21.5586 108.168 21.5586V22.5195C107.465 22.5508 106.719 22.6289 105.93 22.7539C105.148 22.8711 104.551 22.9844 104.137 23.0938L103.492 23.2344L103.246 20.9609H103.012C102.965 21.0234 102.898 21.1094 102.812 21.2188C102.734 21.3203 102.562 21.5 102.297 21.7578C102.039 22.0078 101.762 22.2344 101.465 22.4375C101.168 22.6328 100.785 22.8164 100.316 22.9883C99.8555 23.1523 99.3945 23.2344 98.9336 23.2344C97.6836 23.2344 96.6094 22.707 95.7109 21.6523C94.8203 20.5977 94.375 19.207 94.375 17.4805C94.375 15.4023 94.9883 13.7227 96.2148 12.4414C97.4492 11.1602 99.0352 10.5195 100.973 10.5195ZM100.855 12.0781C100.074 12.0781 99.418 12.4648 98.8867 13.2383C98.3555 14.0039 98.0898 15.1797 98.0898 16.7656C98.0898 18.0781 98.3164 19.0469 98.7695 19.6719C99.2305 20.2891 99.8438 20.5977 100.609 20.5977C100.992 20.5977 101.375 20.5117 101.758 20.3398C102.148 20.1602 102.43 19.9766 102.602 19.7891L102.895 19.5195V12.9219C102.418 12.3594 101.738 12.0781 100.855 12.0781ZM113.207 16.6367C113.207 20.0742 114.168 21.7969 116.09 21.8047C116.824 21.8047 117.445 21.418 117.953 20.6445C118.469 19.8633 118.727 18.6875 118.727 17.1172C118.727 13.6797 117.77 11.9609 115.855 11.9609C115.121 11.9609 114.496 12.3477 113.98 13.1211C113.465 13.8945 113.207 15.0664 113.207 16.6367ZM122.57 16.7656C122.57 18.5859 121.922 20.1211 120.625 21.3711C119.328 22.6133 117.695 23.2344 115.727 23.2344C113.867 23.2344 112.344 22.6484 111.156 21.4766C109.969 20.2969 109.375 18.8047 109.375 17C109.375 15.1797 110.02 13.6445 111.309 12.3945C112.605 11.1445 114.238 10.5195 116.207 10.5195C118.066 10.5195 119.59 11.1094 120.777 12.2891C121.973 13.4688 122.57 14.9609 122.57 16.7656ZM144.168 10.4023V19.1562C144.168 20.0859 144.293 20.7188 144.543 21.0547C144.793 21.3906 145.23 21.5586 145.855 21.5586V22.5195C145.152 22.5508 144.406 22.6289 143.617 22.7539C142.836 22.8711 142.238 22.9844 141.824 23.0938L141.168 23.2344L140.934 20.9609H140.688C140.641 21.0234 140.578 21.1094 140.5 21.2188C140.422 21.3203 140.246 21.5 139.973 21.7578C139.699 22.0078 139.41 22.2344 139.105 22.4375C138.801 22.6328 138.41 22.8164 137.934 22.9883C137.465 23.1523 136.984 23.2344 136.492 23.2344C135.305 23.2344 134.348 22.8164 133.621 21.9805C132.895 21.1367 132.531 19.957 132.531 18.4414V14.5977C132.531 13.668 132.406 13.0352 132.156 12.6992C131.914 12.3633 131.48 12.1953 130.855 12.1953V11.2344C131.707 11.2031 132.57 11.1172 133.445 10.9766C134.328 10.8359 134.992 10.6992 135.438 10.5664L136.129 10.4023V18.1953C136.129 19.7969 136.809 20.5977 138.168 20.5977C138.551 20.5977 138.941 20.5117 139.34 20.3398C139.746 20.1602 140.055 19.9766 140.266 19.7891L140.57 19.5195V14.5977C140.57 13.668 140.445 13.0352 140.195 12.6992C139.953 12.3633 139.52 12.1953 138.895 12.1953V11.2344C139.746 11.2031 140.609 11.1172 141.484 10.9766C142.367 10.8359 143.039 10.6992 143.5 10.5664L144.168 10.4023ZM167.102 15.3242V19.8828C167.102 20.7656 167.211 21.3477 167.43 21.6289C167.656 21.9023 168.105 22.0391 168.777 22.0391V23H162.062V22.0391L163.504 21.6758V15.5586C163.504 13.957 162.902 13.1562 161.699 13.1562C161.316 13.1562 160.938 13.2461 160.562 13.4258C160.188 13.5977 159.902 13.7812 159.707 13.9766L159.414 14.2344C159.492 14.4766 159.535 14.918 159.543 15.5586V19.8828C159.543 20.7656 159.648 21.3477 159.859 21.6289C160.078 21.9023 160.492 22.0391 161.102 22.0391V23H154.504V22.0391L155.934 21.6758V15.5586C155.934 13.957 155.336 13.1562 154.141 13.1562C153.789 13.1562 153.434 13.2383 153.074 13.4023C152.715 13.5586 152.445 13.7188 152.266 13.8828L151.984 14.1172V19.8828C151.984 20.7656 152.09 21.3477 152.301 21.6289C152.52 21.9023 152.934 22.0391 153.543 22.0391V23H146.699V22.0391L148.375 21.6758V14.5977C148.375 13.668 148.25 13.0352 148 12.6992C147.758 12.3633 147.324 12.1953 146.699 12.1953V11.2344C147.402 11.2031 148.145 11.1289 148.926 11.0117C149.715 10.8945 150.316 10.7773 150.73 10.6602L151.375 10.5195L151.621 12.6758H151.855C151.887 12.6133 151.938 12.5352 152.008 12.4414C152.086 12.3477 152.246 12.1758 152.488 11.9258C152.738 11.6758 153.004 11.457 153.285 11.2695C153.566 11.0742 153.934 10.9023 154.387 10.7539C154.848 10.5977 155.324 10.5195 155.816 10.5195C156.277 10.5195 156.707 10.5977 157.105 10.7539C157.512 10.9023 157.824 11.082 158.043 11.293C158.27 11.4961 158.465 11.7031 158.629 11.9141C158.801 12.1172 158.922 12.293 158.992 12.4414L159.062 12.6758H159.297C159.328 12.6133 159.383 12.5352 159.461 12.4414C159.547 12.3477 159.715 12.1758 159.965 11.9258C160.223 11.6758 160.5 11.457 160.797 11.2695C161.094 11.0742 161.473 10.9023 161.934 10.7539C162.402 10.5977 162.883 10.5195 163.375 10.5195C164.492 10.5195 165.391 10.9297 166.07 11.75C166.758 12.5625 167.102 13.7539 167.102 15.3242ZM183.18 5.96094V22.4023C183.18 24.4961 182.656 26.0781 181.609 27.1484C180.562 28.2266 179.047 28.7656 177.062 28.7656C176.602 28.7656 176.129 28.7148 175.645 28.6133C175.16 28.5195 174.793 28.4258 174.543 28.332L174.18 28.1562V24.4414H175.984L177.18 27.1953C177.805 27.1328 178.32 26.7578 178.727 26.0703C179.133 25.3828 179.336 24.3203 179.336 22.8828V8.14062C179.336 7.07031 179.207 6.37891 178.949 6.06641C178.699 5.75391 178.148 5.59766 177.297 5.59766V4.51953H185.219V5.48047L183.18 5.96094ZM199.012 10.4023V19.1562C199.012 20.0859 199.137 20.7188 199.387 21.0547C199.637 21.3906 200.074 21.5586 200.699 21.5586V22.5195C199.996 22.5508 199.25 22.6289 198.461 22.7539C197.68 22.8711 197.082 22.9844 196.668 23.0938L196.012 23.2344L195.777 20.9609H195.531C195.484 21.0234 195.422 21.1094 195.344 21.2188C195.266 21.3203 195.09 21.5 194.816 21.7578C194.543 22.0078 194.254 22.2344 193.949 22.4375C193.645 22.6328 193.254 22.8164 192.777 22.9883C192.309 23.1523 191.828 23.2344 191.336 23.2344C190.148 23.2344 189.191 22.8164 188.465 21.9805C187.738 21.1367 187.375 19.957 187.375 18.4414V14.5977C187.375 13.668 187.25 13.0352 187 12.6992C186.758 12.3633 186.324 12.1953 185.699 12.1953V11.2344C186.551 11.2031 187.414 11.1172 188.289 10.9766C189.172 10.8359 189.836 10.6992 190.281 10.5664L190.973 10.4023V18.1953C190.973 19.7969 191.652 20.5977 193.012 20.5977C193.395 20.5977 193.785 20.5117 194.184 20.3398C194.59 20.1602 194.898 19.9766 195.109 19.7891L195.414 19.5195V14.5977C195.414 13.668 195.289 13.0352 195.039 12.6992C194.797 12.3633 194.363 12.1953 193.738 12.1953V11.2344C194.59 11.2031 195.453 11.1172 196.328 10.9766C197.211 10.8359 197.883 10.6992 198.344 10.5664L199.012 10.4023ZM208.504 10.5195C208.824 10.5195 209.145 10.5508 209.465 10.6133C209.785 10.6758 210.023 10.7422 210.18 10.8125L210.426 10.8828V7.76562C210.426 6.83594 210.301 6.20313 210.051 5.86719C209.801 5.53125 209.363 5.36328 208.738 5.36328V4.40234C209.52 4.37109 210.352 4.28516 211.234 4.14453C212.117 3.99609 212.805 3.86719 213.297 3.75781L214.023 3.55859V19.1562C214.023 20.0859 214.145 20.7188 214.387 21.0547C214.637 21.3906 215.074 21.5586 215.699 21.5586V22.5195C214.996 22.5508 214.25 22.6289 213.461 22.7539C212.68 22.8711 212.082 22.9844 211.668 23.0938L211.023 23.2344L210.777 20.9609H210.543C210.496 21.0234 210.43 21.1094 210.344 21.2188C210.266 21.3203 210.094 21.5 209.828 21.7578C209.57 22.0078 209.293 22.2344 208.996 22.4375C208.699 22.6328 208.316 22.8164 207.848 22.9883C207.387 23.1523 206.926 23.2344 206.465 23.2344C205.215 23.2344 204.141 22.707 203.242 21.6523C202.352 20.5977 201.906 19.207 201.906 17.4805C201.906 15.4023 202.52 13.7227 203.746 12.4414C204.98 11.1602 206.566 10.5195 208.504 10.5195ZM208.387 12.0781C207.605 12.0781 206.949 12.4648 206.418 13.2383C205.887 14.0039 205.621 15.1797 205.621 16.7656C205.621 18.0781 205.848 19.0469 206.301 19.6719C206.762 20.2891 207.375 20.5977 208.141 20.5977C208.523 20.5977 208.906 20.5117 209.289 20.3398C209.68 20.1602 209.961 19.9766 210.133 19.7891L210.426 19.5195V12.9219C209.949 12.3594 209.27 12.0781 208.387 12.0781ZM223.141 12.0781C222.562 12.0781 222.062 12.3555 221.641 12.9102C221.219 13.457 220.918 14.3008 220.738 15.4414L224.945 15.0781V14.4805C224.945 13.7305 224.773 13.1445 224.43 12.7227C224.086 12.293 223.656 12.0781 223.141 12.0781ZM223.387 10.5195C225.004 10.5195 226.27 10.9727 227.184 11.8789C228.105 12.7773 228.598 14.043 228.66 15.6758L227.465 16.7656H220.738C220.801 18.0781 221.148 19.0664 221.781 19.7305C222.414 20.3867 223.309 20.7148 224.465 20.7148C225.105 20.7148 225.711 20.6289 226.281 20.457C226.859 20.2773 227.277 20.1016 227.535 19.9297L227.945 19.6367L228.543 20.2344C228.496 20.3125 228.426 20.4219 228.332 20.5625C228.246 20.7031 228.035 20.9453 227.699 21.2891C227.363 21.6328 227.004 21.9375 226.621 22.2031C226.238 22.4609 225.723 22.6992 225.074 22.918C224.426 23.1289 223.742 23.2344 223.023 23.2344C221.281 23.2344 219.824 22.6523 218.652 21.4883C217.488 20.3164 216.906 18.8594 216.906 17.1172C216.906 15.2578 217.535 13.6953 218.793 12.4297C220.051 11.1562 221.582 10.5195 223.387 10.5195ZM243.168 10.4023V19.1562C243.168 20.0859 243.293 20.7188 243.543 21.0547C243.793 21.3906 244.23 21.5586 244.855 21.5586V22.5195C244.152 22.5508 243.406 22.6289 242.617 22.7539C241.836 22.8711 241.238 22.9844 240.824 23.0938L240.168 23.2344L239.934 20.9609H239.688C239.641 21.0234 239.578 21.1094 239.5 21.2188C239.422 21.3203 239.246 21.5 238.973 21.7578C238.699 22.0078 238.41 22.2344 238.105 22.4375C237.801 22.6328 237.41 22.8164 236.934 22.9883C236.465 23.1523 235.984 23.2344 235.492 23.2344C234.305 23.2344 233.348 22.8164 232.621 21.9805C231.895 21.1367 231.531 19.957 231.531 18.4414V14.5977C231.531 13.668 231.406 13.0352 231.156 12.6992C230.914 12.3633 230.48 12.1953 229.855 12.1953V11.2344C230.707 11.2031 231.57 11.1172 232.445 10.9766C233.328 10.8359 233.992 10.6992 234.438 10.5664L235.129 10.4023V18.1953C235.129 19.7969 235.809 20.5977 237.168 20.5977C237.551 20.5977 237.941 20.5117 238.34 20.3398C238.746 20.1602 239.055 19.9766 239.266 19.7891L239.57 19.5195V14.5977C239.57 13.668 239.445 13.0352 239.195 12.6992C238.953 12.3633 238.52 12.1953 237.895 12.1953V11.2344C238.746 11.2031 239.609 11.1172 240.484 10.9766C241.367 10.8359 242.039 10.6992 242.5 10.5664L243.168 10.4023ZM259.738 20C259.738 19.6172 259.52 19.2617 259.082 18.9336C258.652 18.6055 258.133 18.3086 257.523 18.043C256.922 17.7773 256.316 17.4844 255.707 17.1641C255.098 16.8438 254.574 16.4141 254.137 15.875C253.707 15.3281 253.492 14.7031 253.492 14C253.492 12.9766 253.914 12.1406 254.758 11.4922C255.609 10.8438 256.867 10.5195 258.531 10.5195C259.203 10.5195 259.859 10.5938 260.5 10.7422C261.141 10.8828 261.613 11.0156 261.918 11.1406L262.375 11.3633V14.4805H261.18C261 13.582 260.723 12.9375 260.348 12.5469C259.973 12.1562 259.449 11.9609 258.777 11.9609C258.246 11.9609 257.832 12.0898 257.535 12.3477C257.246 12.5977 257.102 12.9102 257.102 13.2852C257.102 13.7148 257.316 14.0859 257.746 14.3984C258.176 14.7109 258.695 14.9805 259.305 15.207C259.914 15.4258 260.52 15.6758 261.121 15.957C261.73 16.2383 262.25 16.6523 262.68 17.1992C263.117 17.7383 263.336 18.3906 263.336 19.1562C263.336 20.2891 262.848 21.2539 261.871 22.0508C260.895 22.8398 259.543 23.2344 257.816 23.2344C257.004 23.2344 256.203 23.1562 255.414 23C254.633 22.8438 254.059 22.6836 253.691 22.5195L253.141 22.2852V18.5586H254.336C254.703 20.7148 255.785 21.7969 257.582 21.8047C258.223 21.8047 258.742 21.6289 259.141 21.2773C259.539 20.918 259.738 20.4922 259.738 20ZM271.258 12.0781C270.68 12.0781 270.18 12.3555 269.758 12.9102C269.336 13.457 269.035 14.3008 268.855 15.4414L273.062 15.0781V14.4805C273.062 13.7305 272.891 13.1445 272.547 12.7227C272.203 12.293 271.773 12.0781 271.258 12.0781ZM271.504 10.5195C273.121 10.5195 274.387 10.9727 275.301 11.8789C276.223 12.7773 276.715 14.043 276.777 15.6758L275.582 16.7656H268.855C268.918 18.0781 269.266 19.0664 269.898 19.7305C270.531 20.3867 271.426 20.7148 272.582 20.7148C273.223 20.7148 273.828 20.6289 274.398 20.457C274.977 20.2773 275.395 20.1016 275.652 19.9297L276.062 19.6367L276.66 20.2344C276.613 20.3125 276.543 20.4219 276.449 20.5625C276.363 20.7031 276.152 20.9453 275.816 21.2891C275.48 21.6328 275.121 21.9375 274.738 22.2031C274.355 22.4609 273.84 22.6992 273.191 22.918C272.543 23.1289 271.859 23.2344 271.141 23.2344C269.398 23.2344 267.941 22.6523 266.77 21.4883C265.605 20.3164 265.023 18.8594 265.023 17.1172C265.023 15.2578 265.652 13.6953 266.91 12.4297C268.168 11.1562 269.699 10.5195 271.504 10.5195ZM296.207 14.8438V19.1562C296.207 20.0859 296.332 20.7188 296.582 21.0547C296.832 21.3906 297.266 21.5586 297.883 21.5586V22.5195C297.18 22.5508 296.438 22.6289 295.656 22.7539C294.875 22.8711 294.273 22.9844 293.852 23.0938L293.207 23.2344L292.973 20.9609H292.727C292.68 21.0234 292.613 21.1094 292.527 21.2188C292.449 21.3203 292.277 21.5 292.012 21.7578C291.754 22.0078 291.477 22.2344 291.18 22.4375C290.883 22.6328 290.5 22.8164 290.031 22.9883C289.57 23.1523 289.109 23.2344 288.648 23.2344C287.594 23.2344 286.77 22.9766 286.176 22.4609C285.582 21.9375 285.285 21.2773 285.285 20.4805C285.285 19.7617 285.535 19.1055 286.035 18.5117C286.543 17.918 287.156 17.4531 287.875 17.1172C288.602 16.7812 289.32 16.5 290.031 16.2734C290.742 16.0391 291.344 15.8828 291.836 15.8047L292.609 15.6758V15.0781C292.609 13.0781 291.891 12.0781 290.453 12.0781C290.242 12.0781 290.016 12.1055 289.773 12.1602C289.531 12.2148 289.34 12.2773 289.199 12.3477L289.012 12.4414L288.168 15.0781H286.246V11.7148C286.402 11.6211 286.629 11.5117 286.926 11.3867C287.223 11.2539 287.812 11.0781 288.695 10.8594C289.578 10.6328 290.441 10.5195 291.285 10.5195C292.871 10.5195 294.086 10.9062 294.93 11.6797C295.781 12.4453 296.207 13.5 296.207 14.8438ZM290.324 20.7148C290.707 20.7148 291.09 20.6172 291.473 20.4219C291.863 20.2188 292.145 20.0234 292.316 19.8359L292.609 19.5195V17C292.516 17.0156 292.387 17.0391 292.223 17.0703C292.066 17.1016 291.777 17.1914 291.355 17.3398C290.941 17.4805 290.574 17.6367 290.254 17.8086C289.934 17.9727 289.645 18.2109 289.387 18.5234C289.137 18.8359 289.012 19.168 289.012 19.5195C289.012 19.8867 289.125 20.1797 289.352 20.3984C289.586 20.6094 289.91 20.7148 290.324 20.7148ZM303.895 22.8828V25.4023C303.895 26.2539 304.055 26.8242 304.375 27.1133C304.695 27.4102 305.336 27.5586 306.297 27.5586V28.5195H298.621V27.5586L300.297 27.1953V14.5977C300.297 13.668 300.172 13.0352 299.922 12.6992C299.68 12.3633 299.246 12.1953 298.621 12.1953V11.2344C299.324 11.2031 300.066 11.1289 300.848 11.0117C301.637 10.8945 302.246 10.7773 302.676 10.6602L303.297 10.5195L303.543 12.8047H303.777C303.824 12.7422 303.887 12.6602 303.965 12.5586C304.051 12.4492 304.223 12.2656 304.48 12.0078C304.746 11.75 305.027 11.5234 305.324 11.3281C305.621 11.125 306 10.9414 306.461 10.7773C306.93 10.6055 307.395 10.5195 307.855 10.5195C309.105 10.5195 310.176 11.0469 311.066 12.1016C311.965 13.1562 312.414 14.5508 312.414 16.2852C312.414 18.3633 311.797 20.043 310.562 21.3242C309.336 22.5977 307.754 23.2344 305.816 23.2344C305.496 23.2344 305.176 23.2031 304.855 23.1406C304.535 23.0781 304.297 23.0156 304.141 22.9531L303.895 22.8828ZM305.934 21.6758C306.715 21.6758 307.371 21.293 307.902 20.5273C308.434 19.7617 308.699 18.5859 308.699 17C308.699 15.6875 308.469 14.7188 308.008 14.0938C307.555 13.4688 306.945 13.1562 306.18 13.1562C305.797 13.1562 305.41 13.2461 305.02 13.4258C304.637 13.5977 304.352 13.7812 304.164 13.9766L303.895 14.2344V20.5977C303.957 20.6758 304.043 20.7773 304.152 20.9023C304.27 21.0195 304.508 21.1797 304.867 21.3828C305.227 21.5781 305.582 21.6758 305.934 21.6758ZM324.777 14.8438V19.1562C324.777 20.0859 324.902 20.7188 325.152 21.0547C325.402 21.3906 325.836 21.5586 326.453 21.5586V22.5195C325.75 22.5508 325.008 22.6289 324.227 22.7539C323.445 22.8711 322.844 22.9844 322.422 23.0938L321.777 23.2344L321.543 20.9609H321.297C321.25 21.0234 321.184 21.1094 321.098 21.2188C321.02 21.3203 320.848 21.5 320.582 21.7578C320.324 22.0078 320.047 22.2344 319.75 22.4375C319.453 22.6328 319.07 22.8164 318.602 22.9883C318.141 23.1523 317.68 23.2344 317.219 23.2344C316.164 23.2344 315.34 22.9766 314.746 22.4609C314.152 21.9375 313.855 21.2773 313.855 20.4805C313.855 19.7617 314.105 19.1055 314.605 18.5117C315.113 17.918 315.727 17.4531 316.445 17.1172C317.172 16.7812 317.891 16.5 318.602 16.2734C319.312 16.0391 319.914 15.8828 320.406 15.8047L321.18 15.6758V15.0781C321.18 13.0781 320.461 12.0781 319.023 12.0781C318.812 12.0781 318.586 12.1055 318.344 12.1602C318.102 12.2148 317.91 12.2773 317.77 12.3477L317.582 12.4414L316.738 15.0781H314.816V11.7148C314.973 11.6211 315.199 11.5117 315.496 11.3867C315.793 11.2539 316.383 11.0781 317.266 10.8594C318.148 10.6328 319.012 10.5195 319.855 10.5195C321.441 10.5195 322.656 10.9062 323.5 11.6797C324.352 12.4453 324.777 13.5 324.777 14.8438ZM318.895 20.7148C319.277 20.7148 319.66 20.6172 320.043 20.4219C320.434 20.2188 320.715 20.0234 320.887 19.8359L321.18 19.5195V17C321.086 17.0156 320.957 17.0391 320.793 17.0703C320.637 17.1016 320.348 17.1914 319.926 17.3398C319.512 17.4805 319.145 17.6367 318.824 17.8086C318.504 17.9727 318.215 18.2109 317.957 18.5234C317.707 18.8359 317.582 19.168 317.582 19.5195C317.582 19.8867 317.695 20.1797 317.922 20.3984C318.156 20.6094 318.48 20.7148 318.895 20.7148ZM332.594 10.4023V19.8828C332.594 20.7656 332.703 21.3477 332.922 21.6289C333.148 21.9023 333.598 22.0391 334.27 22.0391V23H327.309V22.0391L328.984 21.6758V14.5977C328.984 13.668 328.859 13.0352 328.609 12.6992C328.367 12.3633 327.934 12.1953 327.309 12.1953V11.2344C328.16 11.2031 329.023 11.1172 329.898 10.9766C330.781 10.8359 331.453 10.6992 331.914 10.5664L332.594 10.4023ZM332.148 5.09375C332.523 5.47656 332.711 5.96484 332.711 6.55859C332.711 7.15234 332.523 7.64062 332.148 8.02344C331.773 8.40625 331.281 8.59766 330.672 8.59766C330.062 8.59766 329.57 8.40625 329.195 8.02344C328.82 7.64062 328.633 7.15234 328.633 6.55859C328.633 5.96484 328.82 5.47656 329.195 5.09375C329.57 4.71094 330.062 4.51953 330.672 4.51953C331.281 4.51953 331.773 4.71094 332.148 5.09375ZM343.398 16.4023L345.918 20C346.512 20.8281 346.973 21.375 347.301 21.6406C347.637 21.9062 348.094 22.0391 348.672 22.0391V23H341.594V22.0391L343.035 21.6758L340.75 18.4414L339.191 20.3633C338.871 20.6836 338.711 21.0039 338.711 21.3242C338.711 21.5195 338.809 21.6875 339.004 21.8281C339.207 21.9688 339.512 22.0391 339.918 22.0391V23H334.633V22.0391L336.191 21.6758L339.789 17.1172L337.398 13.7656C336.789 12.9375 336.324 12.3906 336.004 12.125C335.684 11.8516 335.266 11.7148 334.75 11.7148V10.7656H341.711V11.7148L340.27 12.0781L342.438 15.0781L343.75 13.4023C344.07 13.0039 344.23 12.6836 344.23 12.4414C344.23 12.2461 344.129 12.0781 343.926 11.9375C343.73 11.7891 343.434 11.7148 343.035 11.7148V10.7656H348.309V11.7148L346.75 12.0781L343.398 16.4023ZM353.113 16.6367C353.113 20.0742 354.074 21.7969 355.996 21.8047C356.73 21.8047 357.352 21.418 357.859 20.6445C358.375 19.8633 358.633 18.6875 358.633 17.1172C358.633 13.6797 357.676 11.9609 355.762 11.9609C355.027 11.9609 354.402 12.3477 353.887 13.1211C353.371 13.8945 353.113 15.0664 353.113 16.6367ZM362.477 16.7656C362.477 18.5859 361.828 20.1211 360.531 21.3711C359.234 22.6133 357.602 23.2344 355.633 23.2344C353.773 23.2344 352.25 22.6484 351.062 21.4766C349.875 20.2969 349.281 18.8047 349.281 17C349.281 15.1797 349.926 13.6445 351.215 12.3945C352.512 11.1445 354.145 10.5195 356.113 10.5195C357.973 10.5195 359.496 11.1094 360.684 12.2891C361.879 13.4688 362.477 14.9609 362.477 16.7656ZM377.125 15.3242V19.8828C377.125 20.7656 377.234 21.3477 377.453 21.6289C377.68 21.9023 378.129 22.0391 378.801 22.0391V23H371.84V22.0391L373.516 21.6758V15.5586C373.516 13.957 372.836 13.1562 371.477 13.1562C371.094 13.1562 370.703 13.2461 370.305 13.4258C369.906 13.5977 369.602 13.7812 369.391 13.9766L369.086 14.2344V19.8828C369.086 20.7656 369.195 21.3477 369.414 21.6289C369.641 21.9023 370.09 22.0391 370.762 22.0391V23H363.801V22.0391L365.477 21.6758V14.5977C365.477 13.668 365.352 13.0352 365.102 12.6992C364.859 12.3633 364.426 12.1953 363.801 12.1953V11.2344C364.504 11.2031 365.246 11.1289 366.027 11.0117C366.816 10.8945 367.418 10.7773 367.832 10.6602L368.477 10.5195L368.723 12.8047H368.957C369.004 12.7422 369.066 12.6602 369.145 12.5586C369.23 12.4492 369.41 12.2656 369.684 12.0078C369.957 11.75 370.242 11.5234 370.539 11.3281C370.844 11.125 371.23 10.9414 371.699 10.7773C372.176 10.6055 372.664 10.5195 373.164 10.5195C374.352 10.5195 375.309 10.9414 376.035 11.7852C376.762 12.6211 377.125 13.8008 377.125 15.3242ZM390.684 14.8438V19.1562C390.684 20.0859 390.809 20.7188 391.059 21.0547C391.309 21.3906 391.742 21.5586 392.359 21.5586V22.5195C391.656 22.5508 390.914 22.6289 390.133 22.7539C389.352 22.8711 388.75 22.9844 388.328 23.0938L387.684 23.2344L387.449 20.9609H387.203C387.156 21.0234 387.09 21.1094 387.004 21.2188C386.926 21.3203 386.754 21.5 386.488 21.7578C386.23 22.0078 385.953 22.2344 385.656 22.4375C385.359 22.6328 384.977 22.8164 384.508 22.9883C384.047 23.1523 383.586 23.2344 383.125 23.2344C382.07 23.2344 381.246 22.9766 380.652 22.4609C380.059 21.9375 379.762 21.2773 379.762 20.4805C379.762 19.7617 380.012 19.1055 380.512 18.5117C381.02 17.918 381.633 17.4531 382.352 17.1172C383.078 16.7812 383.797 16.5 384.508 16.2734C385.219 16.0391 385.82 15.8828 386.312 15.8047L387.086 15.6758V15.0781C387.086 13.0781 386.367 12.0781 384.93 12.0781C384.719 12.0781 384.492 12.1055 384.25 12.1602C384.008 12.2148 383.816 12.2773 383.676 12.3477L383.488 12.4414L382.645 15.0781H380.723V11.7148C380.879 11.6211 381.105 11.5117 381.402 11.3867C381.699 11.2539 382.289 11.0781 383.172 10.8594C384.055 10.6328 384.918 10.5195 385.762 10.5195C387.348 10.5195 388.562 10.9062 389.406 11.6797C390.258 12.4453 390.684 13.5 390.684 14.8438ZM384.801 20.7148C385.184 20.7148 385.566 20.6172 385.949 20.4219C386.34 20.2188 386.621 20.0234 386.793 19.8359L387.086 19.5195V17C386.992 17.0156 386.863 17.0391 386.699 17.0703C386.543 17.1016 386.254 17.1914 385.832 17.3398C385.418 17.4805 385.051 17.6367 384.73 17.8086C384.41 17.9727 384.121 18.2109 383.863 18.5234C383.613 18.8359 383.488 19.168 383.488 19.5195C383.488 19.8867 383.602 20.1797 383.828 20.3984C384.062 20.6094 384.387 20.7148 384.801 20.7148ZM405.449 22.8828V25.4023C405.449 26.2539 405.609 26.8242 405.93 27.1133C406.25 27.4102 406.891 27.5586 407.852 27.5586V28.5195H400.176V27.5586L401.852 27.1953V14.5977C401.852 13.668 401.727 13.0352 401.477 12.6992C401.234 12.3633 400.801 12.1953 400.176 12.1953V11.2344C400.879 11.2031 401.621 11.1289 402.402 11.0117C403.191 10.8945 403.801 10.7773 404.23 10.6602L404.852 10.5195L405.098 12.8047H405.332C405.379 12.7422 405.441 12.6602 405.52 12.5586C405.605 12.4492 405.777 12.2656 406.035 12.0078C406.301 11.75 406.582 11.5234 406.879 11.3281C407.176 11.125 407.555 10.9414 408.016 10.7773C408.484 10.6055 408.949 10.5195 409.41 10.5195C410.66 10.5195 411.73 11.0469 412.621 12.1016C413.52 13.1562 413.969 14.5508 413.969 16.2852C413.969 18.3633 413.352 20.043 412.117 21.3242C410.891 22.5977 409.309 23.2344 407.371 23.2344C407.051 23.2344 406.73 23.2031 406.41 23.1406C406.09 23.0781 405.852 23.0156 405.695 22.9531L405.449 22.8828ZM407.488 21.6758C408.27 21.6758 408.926 21.293 409.457 20.5273C409.988 19.7617 410.254 18.5859 410.254 17C410.254 15.6875 410.023 14.7188 409.562 14.0938C409.109 13.4688 408.5 13.1562 407.734 13.1562C407.352 13.1562 406.965 13.2461 406.574 13.4258C406.191 13.5977 405.906 13.7812 405.719 13.9766L405.449 14.2344V20.5977C405.512 20.6758 405.598 20.7773 405.707 20.9023C405.824 21.0195 406.062 21.1797 406.422 21.3828C406.781 21.5781 407.137 21.6758 407.488 21.6758ZM419.488 16.6367C419.488 20.0742 420.449 21.7969 422.371 21.8047C423.105 21.8047 423.727 21.418 424.234 20.6445C424.75 19.8633 425.008 18.6875 425.008 17.1172C425.008 13.6797 424.051 11.9609 422.137 11.9609C421.402 11.9609 420.777 12.3477 420.262 13.1211C419.746 13.8945 419.488 15.0664 419.488 16.6367ZM428.852 16.7656C428.852 18.5859 428.203 20.1211 426.906 21.3711C425.609 22.6133 423.977 23.2344 422.008 23.2344C420.148 23.2344 418.625 22.6484 417.438 21.4766C416.25 20.2969 415.656 18.8047 415.656 17C415.656 15.1797 416.301 13.6445 417.59 12.3945C418.887 11.1445 420.52 10.5195 422.488 10.5195C424.348 10.5195 425.871 11.1094 427.059 12.2891C428.254 13.4688 428.852 14.9609 428.852 16.7656ZM435.461 14.3633V19.8828C435.461 20.7109 435.609 21.2773 435.906 21.582C436.211 21.8867 436.781 22.0391 437.617 22.0391V23H430.176V22.0391L431.852 21.6758V14.5977C431.852 13.668 431.727 13.0352 431.477 12.6992C431.234 12.3633 430.801 12.1953 430.176 12.1953V11.2344C430.879 11.2031 431.621 11.1289 432.402 11.0117C433.191 10.8945 433.793 10.7773 434.207 10.6602L434.852 10.5195L435.098 12.8047H435.332C435.379 12.7422 435.441 12.6602 435.52 12.5586C435.605 12.4492 435.789 12.2656 436.07 12.0078C436.352 11.75 436.633 11.5234 436.914 11.3281C437.203 11.125 437.562 10.9414 437.992 10.7773C438.43 10.6055 438.863 10.5195 439.293 10.5195C439.613 10.5195 439.926 10.5508 440.23 10.6133C440.535 10.6758 440.75 10.7422 440.875 10.8125L441.098 10.8828V15.1953H439.176L438.332 12.9219C437.801 12.9531 437.297 13.0898 436.82 13.332C436.344 13.5664 436 13.7969 435.789 14.0234L435.461 14.3633ZM461.488 10.4023V19.1562C461.488 20.0859 461.613 20.7188 461.863 21.0547C462.113 21.3906 462.551 21.5586 463.176 21.5586V22.5195C462.473 22.5508 461.727 22.6289 460.938 22.7539C460.156 22.8711 459.559 22.9844 459.145 23.0938L458.488 23.2344L458.254 20.9609H458.008C457.961 21.0234 457.898 21.1094 457.82 21.2188C457.742 21.3203 457.566 21.5 457.293 21.7578C457.02 22.0078 456.73 22.2344 456.426 22.4375C456.121 22.6328 455.73 22.8164 455.254 22.9883C454.785 23.1523 454.305 23.2344 453.812 23.2344C452.625 23.2344 451.668 22.8164 450.941 21.9805C450.215 21.1367 449.852 19.957 449.852 18.4414V14.5977C449.852 13.668 449.727 13.0352 449.477 12.6992C449.234 12.3633 448.801 12.1953 448.176 12.1953V11.2344C449.027 11.2031 449.891 11.1172 450.766 10.9766C451.648 10.8359 452.312 10.6992 452.758 10.5664L453.449 10.4023V18.1953C453.449 19.7969 454.129 20.5977 455.488 20.5977C455.871 20.5977 456.262 20.5117 456.66 20.3398C457.066 20.1602 457.375 19.9766 457.586 19.7891L457.891 19.5195V14.5977C457.891 13.668 457.766 13.0352 457.516 12.6992C457.273 12.3633 456.84 12.1953 456.215 12.1953V11.2344C457.066 11.2031 457.93 11.1172 458.805 10.9766C459.688 10.8359 460.359 10.6992 460.82 10.5664L461.488 10.4023ZM484.422 15.3242V19.8828C484.422 20.7656 484.531 21.3477 484.75 21.6289C484.977 21.9023 485.426 22.0391 486.098 22.0391V23H479.383V22.0391L480.824 21.6758V15.5586C480.824 13.957 480.223 13.1562 479.02 13.1562C478.637 13.1562 478.258 13.2461 477.883 13.4258C477.508 13.5977 477.223 13.7812 477.027 13.9766L476.734 14.2344C476.812 14.4766 476.855 14.918 476.863 15.5586V19.8828C476.863 20.7656 476.969 21.3477 477.18 21.6289C477.398 21.9023 477.812 22.0391 478.422 22.0391V23H471.824V22.0391L473.254 21.6758V15.5586C473.254 13.957 472.656 13.1562 471.461 13.1562C471.109 13.1562 470.754 13.2383 470.395 13.4023C470.035 13.5586 469.766 13.7188 469.586 13.8828L469.305 14.1172V19.8828C469.305 20.7656 469.41 21.3477 469.621 21.6289C469.84 21.9023 470.254 22.0391 470.863 22.0391V23H464.02V22.0391L465.695 21.6758V14.5977C465.695 13.668 465.57 13.0352 465.32 12.6992C465.078 12.3633 464.645 12.1953 464.02 12.1953V11.2344C464.723 11.2031 465.465 11.1289 466.246 11.0117C467.035 10.8945 467.637 10.7773 468.051 10.6602L468.695 10.5195L468.941 12.6758H469.176C469.207 12.6133 469.258 12.5352 469.328 12.4414C469.406 12.3477 469.566 12.1758 469.809 11.9258C470.059 11.6758 470.324 11.457 470.605 11.2695C470.887 11.0742 471.254 10.9023 471.707 10.7539C472.168 10.5977 472.645 10.5195 473.137 10.5195C473.598 10.5195 474.027 10.5977 474.426 10.7539C474.832 10.9023 475.145 11.082 475.363 11.293C475.59 11.4961 475.785 11.7031 475.949 11.9141C476.121 12.1172 476.242 12.293 476.312 12.4414L476.383 12.6758H476.617C476.648 12.6133 476.703 12.5352 476.781 12.4414C476.867 12.3477 477.035 12.1758 477.285 11.9258C477.543 11.6758 477.82 11.457 478.117 11.2695C478.414 11.0742 478.793 10.9023 479.254 10.7539C479.723 10.5977 480.203 10.5195 480.695 10.5195C481.812 10.5195 482.711 10.9297 483.391 11.75C484.078 12.5625 484.422 13.7539 484.422 15.3242ZM508.902 17.1172V8.14062C508.902 7.07031 508.773 6.37891 508.516 6.06641C508.258 5.75391 507.707 5.59766 506.863 5.59766V4.51953H512.863V5.48047L510.824 5.96094V23.2344H509.02L498.941 9.92188L498.461 8.59766H498.215V19.4023C498.215 20.4727 498.344 21.1602 498.602 21.4648C498.859 21.7695 499.41 21.9219 500.254 21.9219V23H494.254V22.0391L496.305 21.5586V8.14062C496.305 7.07031 496.176 6.37891 495.918 6.06641C495.66 5.75391 495.105 5.59766 494.254 5.59766V4.51953H499.656L508.176 15.8047L508.656 17.1172H508.902ZM524.98 14.8438V19.1562C524.98 20.0859 525.105 20.7188 525.355 21.0547C525.605 21.3906 526.039 21.5586 526.656 21.5586V22.5195C525.953 22.5508 525.211 22.6289 524.43 22.7539C523.648 22.8711 523.047 22.9844 522.625 23.0938L521.98 23.2344L521.746 20.9609H521.5C521.453 21.0234 521.387 21.1094 521.301 21.2188C521.223 21.3203 521.051 21.5 520.785 21.7578C520.527 22.0078 520.25 22.2344 519.953 22.4375C519.656 22.6328 519.273 22.8164 518.805 22.9883C518.344 23.1523 517.883 23.2344 517.422 23.2344C516.367 23.2344 515.543 22.9766 514.949 22.4609C514.355 21.9375 514.059 21.2773 514.059 20.4805C514.059 19.7617 514.309 19.1055 514.809 18.5117C515.316 17.918 515.93 17.4531 516.648 17.1172C517.375 16.7812 518.094 16.5 518.805 16.2734C519.516 16.0391 520.117 15.8828 520.609 15.8047L521.383 15.6758V15.0781C521.383 13.0781 520.664 12.0781 519.227 12.0781C519.016 12.0781 518.789 12.1055 518.547 12.1602C518.305 12.2148 518.113 12.2773 517.973 12.3477L517.785 12.4414L516.941 15.0781H515.02V11.7148C515.176 11.6211 515.402 11.5117 515.699 11.3867C515.996 11.2539 516.586 11.0781 517.469 10.8594C518.352 10.6328 519.215 10.5195 520.059 10.5195C521.645 10.5195 522.859 10.9062 523.703 11.6797C524.555 12.4453 524.98 13.5 524.98 14.8438ZM519.098 20.7148C519.48 20.7148 519.863 20.6172 520.246 20.4219C520.637 20.2188 520.918 20.0234 521.09 19.8359L521.383 19.5195V17C521.289 17.0156 521.16 17.0391 520.996 17.0703C520.84 17.1016 520.551 17.1914 520.129 17.3398C519.715 17.4805 519.348 17.6367 519.027 17.8086C518.707 17.9727 518.418 18.2109 518.16 18.5234C517.91 18.8359 517.785 19.168 517.785 19.5195C517.785 19.8867 517.898 20.1797 518.125 20.3984C518.359 20.6094 518.684 20.7148 519.098 20.7148ZM538.914 23H527.875L527.629 22.2852L534.836 12.1953H532.668C531.645 12.1953 530.91 12.4336 530.465 12.9102C530.02 13.3789 529.797 14.1836 529.797 15.3242H528.473V10.7656H539.266L539.512 11.4805L532.316 21.5586H534.836C535.734 21.5586 536.43 21.3086 536.922 20.8086C537.414 20.3008 537.836 19.3906 538.188 18.0781H539.395L538.914 23ZM546.109 10.4023V19.8828C546.109 20.7656 546.219 21.3477 546.438 21.6289C546.664 21.9023 547.113 22.0391 547.785 22.0391V23H540.824V22.0391L542.5 21.6758V14.5977C542.5 13.668 542.375 13.0352 542.125 12.6992C541.883 12.3633 541.449 12.1953 540.824 12.1953V11.2344C541.676 11.2031 542.539 11.1172 543.414 10.9766C544.297 10.8359 544.969 10.6992 545.43 10.5664L546.109 10.4023ZM545.664 5.09375C546.039 5.47656 546.227 5.96484 546.227 6.55859C546.227 7.15234 546.039 7.64062 545.664 8.02344C545.289 8.40625 544.797 8.59766 544.188 8.59766C543.578 8.59766 543.086 8.40625 542.711 8.02344C542.336 7.64062 542.148 7.15234 542.148 6.55859C542.148 5.96484 542.336 5.47656 542.711 5.09375C543.086 4.71094 543.578 4.51953 544.188 4.51953C544.797 4.51953 545.289 4.71094 545.664 5.09375ZM552.578 19.7773C552.984 20.1836 553.188 20.6602 553.188 21.207C553.188 21.7461 552.984 22.2188 552.578 22.625C552.172 23.0312 551.695 23.2344 551.148 23.2344C550.602 23.2344 550.125 23.0312 549.719 22.625C549.312 22.2188 549.109 21.7461 549.109 21.207C549.109 20.6602 549.312 20.1836 549.719 19.7773C550.125 19.3633 550.602 19.1562 551.148 19.1562C551.695 19.1562 552.172 19.3633 552.578 19.7773ZM552.578 11.1289C552.984 11.5352 553.188 12.0117 553.188 12.5586C553.188 13.1055 552.984 13.582 552.578 13.9883C552.172 14.3945 551.695 14.5977 551.148 14.5977C550.602 14.5977 550.125 14.3945 549.719 13.9883C549.312 13.582 549.109 13.1055 549.109 12.5586C549.109 12.0117 549.312 11.5352 549.719 11.1289C550.125 10.7227 550.602 10.5195 551.148 10.5195C551.695 10.5195 552.172 10.7227 552.578 11.1289ZM38.0781 51.8047C39.5625 51.8047 40.7734 51.1602 41.7109 49.8711C42.6484 48.582 43.1172 46.625 43.1172 44C43.1172 41.1875 42.6641 39.1055 41.7578 37.7539C40.8594 36.3945 39.7148 35.7148 38.3242 35.7148C36.8398 35.7148 35.6289 36.3594 34.6914 37.6484C33.7539 38.9375 33.2852 40.8945 33.2852 43.5195C33.2852 46.332 33.7344 48.418 34.6328 49.7773C35.5391 51.1289 36.6875 51.8047 38.0781 51.8047ZM37.7148 53.3633C35.168 53.3633 33.0703 52.5 31.4219 50.7734C29.7812 49.0391 28.9609 46.7812 28.9609 44C28.9609 41.1172 29.8711 38.7578 31.6914 36.9219C33.5195 35.0781 35.8477 34.1562 38.6758 34.1562C41.2227 34.1562 43.3203 35.0234 44.9688 36.7578C46.6172 38.4844 47.4414 40.7383 47.4414 43.5195C47.4414 46.4023 46.5273 48.7656 44.6992 50.6094C42.8711 52.4453 40.543 53.3633 37.7148 53.3633ZM69.2734 45.3242V49.8828C69.2734 50.7656 69.3828 51.3477 69.6016 51.6289C69.8281 51.9023 70.2773 52.0391 70.9492 52.0391V53H63.9883V52.0391L65.6641 51.6758V45.5586C65.6641 43.957 64.9844 43.1562 63.625 43.1562C63.2422 43.1562 62.8516 43.2461 62.4531 43.4258C62.0547 43.5977 61.75 43.7812 61.5391 43.9766L61.2344 44.2344V49.8828C61.2344 50.7656 61.3438 51.3477 61.5625 51.6289C61.7891 51.9023 62.2383 52.0391 62.9102 52.0391V53H55.9492V52.0391L57.625 51.6758V44.5977C57.625 43.668 57.5 43.0352 57.25 42.6992C57.0078 42.3633 56.5742 42.1953 55.9492 42.1953V41.2344C56.6523 41.2031 57.3945 41.1289 58.1758 41.0117C58.9648 40.8945 59.5664 40.7773 59.9805 40.6602L60.625 40.5195L60.8711 42.8047H61.1055C61.1523 42.7422 61.2148 42.6602 61.293 42.5586C61.3789 42.4492 61.5586 42.2656 61.832 42.0078C62.1055 41.75 62.3906 41.5234 62.6875 41.3281C62.9922 41.125 63.3789 40.9414 63.8477 40.7773C64.3242 40.6055 64.8125 40.5195 65.3125 40.5195C66.5 40.5195 67.457 40.9414 68.1836 41.7852C68.9102 42.6211 69.2734 43.8008 69.2734 45.3242ZM75.9883 46.6367C75.9883 50.0742 76.9492 51.7969 78.8711 51.8047C79.6055 51.8047 80.2266 51.418 80.7344 50.6445C81.25 49.8633 81.5078 48.6875 81.5078 47.1172C81.5078 43.6797 80.5508 41.9609 78.6367 41.9609C77.9023 41.9609 77.2773 42.3477 76.7617 43.1211C76.2461 43.8945 75.9883 45.0664 75.9883 46.6367ZM85.3516 46.7656C85.3516 48.5859 84.7031 50.1211 83.4062 51.3711C82.1094 52.6133 80.4766 53.2344 78.5078 53.2344C76.6484 53.2344 75.125 52.6484 73.9375 51.4766C72.75 50.2969 72.1562 48.8047 72.1562 47C72.1562 45.1797 72.8008 43.6445 74.0898 42.3945C75.3867 41.1445 77.0195 40.5195 78.9883 40.5195C80.8477 40.5195 82.3711 41.1094 83.5586 42.2891C84.7539 43.4688 85.3516 44.9609 85.3516 46.7656ZM107.078 45.3242V49.8828C107.078 50.7656 107.188 51.3477 107.406 51.6289C107.633 51.9023 108.082 52.0391 108.754 52.0391V53H102.039V52.0391L103.48 51.6758V45.5586C103.48 43.957 102.879 43.1562 101.676 43.1562C101.293 43.1562 100.914 43.2461 100.539 43.4258C100.164 43.5977 99.8789 43.7812 99.6836 43.9766L99.3906 44.2344C99.4688 44.4766 99.5117 44.918 99.5195 45.5586V49.8828C99.5195 50.7656 99.625 51.3477 99.8359 51.6289C100.055 51.9023 100.469 52.0391 101.078 52.0391V53H94.4805V52.0391L95.9102 51.6758V45.5586C95.9102 43.957 95.3125 43.1562 94.1172 43.1562C93.7656 43.1562 93.4102 43.2383 93.0508 43.4023C92.6914 43.5586 92.4219 43.7188 92.2422 43.8828L91.9609 44.1172V49.8828C91.9609 50.7656 92.0664 51.3477 92.2773 51.6289C92.4961 51.9023 92.9102 52.0391 93.5195 52.0391V53H86.6758V52.0391L88.3516 51.6758V44.5977C88.3516 43.668 88.2266 43.0352 87.9766 42.6992C87.7344 42.3633 87.3008 42.1953 86.6758 42.1953V41.2344C87.3789 41.2031 88.1211 41.1289 88.9023 41.0117C89.6914 40.8945 90.293 40.7773 90.707 40.6602L91.3516 40.5195L91.5977 42.6758H91.832C91.8633 42.6133 91.9141 42.5352 91.9844 42.4414C92.0625 42.3477 92.2227 42.1758 92.4648 41.9258C92.7148 41.6758 92.9805 41.457 93.2617 41.2695C93.543 41.0742 93.9102 40.9023 94.3633 40.7539C94.8242 40.5977 95.3008 40.5195 95.793 40.5195C96.2539 40.5195 96.6836 40.5977 97.082 40.7539C97.4883 40.9023 97.8008 41.082 98.0195 41.293C98.2461 41.4961 98.4414 41.7031 98.6055 41.9141C98.7773 42.1172 98.8984 42.293 98.9688 42.4414L99.0391 42.6758H99.2734C99.3047 42.6133 99.3594 42.5352 99.4375 42.4414C99.5234 42.3477 99.6914 42.1758 99.9414 41.9258C100.199 41.6758 100.477 41.457 100.773 41.2695C101.07 41.0742 101.449 40.9023 101.91 40.7539C102.379 40.5977 102.859 40.5195 103.352 40.5195C104.469 40.5195 105.367 40.9297 106.047 41.75C106.734 42.5625 107.078 43.7539 107.078 45.3242ZM116.195 42.0781C115.617 42.0781 115.117 42.3555 114.695 42.9102C114.273 43.457 113.973 44.3008 113.793 45.4414L118 45.0781V44.4805C118 43.7305 117.828 43.1445 117.484 42.7227C117.141 42.293 116.711 42.0781 116.195 42.0781ZM116.441 40.5195C118.059 40.5195 119.324 40.9727 120.238 41.8789C121.16 42.7773 121.652 44.043 121.715 45.6758L120.52 46.7656H113.793C113.855 48.0781 114.203 49.0664 114.836 49.7305C115.469 50.3867 116.363 50.7148 117.52 50.7148C118.16 50.7148 118.766 50.6289 119.336 50.457C119.914 50.2773 120.332 50.1016 120.59 49.9297L121 49.6367L121.598 50.2344C121.551 50.3125 121.48 50.4219 121.387 50.5625C121.301 50.7031 121.09 50.9453 120.754 51.2891C120.418 51.6328 120.059 51.9375 119.676 52.2031C119.293 52.4609 118.777 52.6992 118.129 52.918C117.48 53.1289 116.797 53.2344 116.078 53.2344C114.336 53.2344 112.879 52.6523 111.707 51.4883C110.543 50.3164 109.961 48.8594 109.961 47.1172C109.961 45.2578 110.59 43.6953 111.848 42.4297C113.105 41.1562 114.637 40.5195 116.441 40.5195ZM134.066 44.8438V49.1562C134.066 50.0859 134.191 50.7188 134.441 51.0547C134.691 51.3906 135.125 51.5586 135.742 51.5586V52.5195C135.039 52.5508 134.297 52.6289 133.516 52.7539C132.734 52.8711 132.133 52.9844 131.711 53.0938L131.066 53.2344L130.832 50.9609H130.586C130.539 51.0234 130.473 51.1094 130.387 51.2188C130.309 51.3203 130.137 51.5 129.871 51.7578C129.613 52.0078 129.336 52.2344 129.039 52.4375C128.742 52.6328 128.359 52.8164 127.891 52.9883C127.43 53.1523 126.969 53.2344 126.508 53.2344C125.453 53.2344 124.629 52.9766 124.035 52.4609C123.441 51.9375 123.145 51.2773 123.145 50.4805C123.145 49.7617 123.395 49.1055 123.895 48.5117C124.402 47.918 125.016 47.4531 125.734 47.1172C126.461 46.7812 127.18 46.5 127.891 46.2734C128.602 46.0391 129.203 45.8828 129.695 45.8047L130.469 45.6758V45.0781C130.469 43.0781 129.75 42.0781 128.312 42.0781C128.102 42.0781 127.875 42.1055 127.633 42.1602C127.391 42.2148 127.199 42.2773 127.059 42.3477L126.871 42.4414L126.027 45.0781H124.105V41.7148C124.262 41.6211 124.488 41.5117 124.785 41.3867C125.082 41.2539 125.672 41.0781 126.555 40.8594C127.438 40.6328 128.301 40.5195 129.145 40.5195C130.73 40.5195 131.945 40.9062 132.789 41.6797C133.641 42.4453 134.066 43.5 134.066 44.8438ZM128.184 50.7148C128.566 50.7148 128.949 50.6172 129.332 50.4219C129.723 50.2188 130.004 50.0234 130.176 49.8359L130.469 49.5195V47C130.375 47.0156 130.246 47.0391 130.082 47.0703C129.926 47.1016 129.637 47.1914 129.215 47.3398C128.801 47.4805 128.434 47.6367 128.113 47.8086C127.793 47.9727 127.504 48.2109 127.246 48.5234C126.996 48.8359 126.871 49.168 126.871 49.5195C126.871 49.8867 126.984 50.1797 127.211 50.3984C127.445 50.6094 127.77 50.7148 128.184 50.7148ZM143.559 40.5195C143.879 40.5195 144.199 40.5508 144.52 40.6133C144.84 40.6758 145.078 40.7422 145.234 40.8125L145.48 40.8828V37.7656C145.48 36.8359 145.355 36.2031 145.105 35.8672C144.855 35.5312 144.418 35.3633 143.793 35.3633V34.4023C144.574 34.3711 145.406 34.2852 146.289 34.1445C147.172 33.9961 147.859 33.8672 148.352 33.7578L149.078 33.5586V49.1562C149.078 50.0859 149.199 50.7188 149.441 51.0547C149.691 51.3906 150.129 51.5586 150.754 51.5586V52.5195C150.051 52.5508 149.305 52.6289 148.516 52.7539C147.734 52.8711 147.137 52.9844 146.723 53.0938L146.078 53.2344L145.832 50.9609H145.598C145.551 51.0234 145.484 51.1094 145.398 51.2188C145.32 51.3203 145.148 51.5 144.883 51.7578C144.625 52.0078 144.348 52.2344 144.051 52.4375C143.754 52.6328 143.371 52.8164 142.902 52.9883C142.441 53.1523 141.98 53.2344 141.52 53.2344C140.27 53.2344 139.195 52.707 138.297 51.6523C137.406 50.5977 136.961 49.207 136.961 47.4805C136.961 45.4023 137.574 43.7227 138.801 42.4414C140.035 41.1602 141.621 40.5195 143.559 40.5195ZM143.441 42.0781C142.66 42.0781 142.004 42.4648 141.473 43.2383C140.941 44.0039 140.676 45.1797 140.676 46.7656C140.676 48.0781 140.902 49.0469 141.355 49.6719C141.816 50.2891 142.43 50.5977 143.195 50.5977C143.578 50.5977 143.961 50.5117 144.344 50.3398C144.734 50.1602 145.016 49.9766 145.188 49.7891L145.48 49.5195V42.9219C145.004 42.3594 144.324 42.0781 143.441 42.0781ZM155.793 46.6367C155.793 50.0742 156.754 51.7969 158.676 51.8047C159.41 51.8047 160.031 51.418 160.539 50.6445C161.055 49.8633 161.312 48.6875 161.312 47.1172C161.312 43.6797 160.355 41.9609 158.441 41.9609C157.707 41.9609 157.082 42.3477 156.566 43.1211C156.051 43.8945 155.793 45.0664 155.793 46.6367ZM165.156 46.7656C165.156 48.5859 164.508 50.1211 163.211 51.3711C161.914 52.6133 160.281 53.2344 158.312 53.2344C156.453 53.2344 154.93 52.6484 153.742 51.4766C152.555 50.2969 151.961 48.8047 151.961 47C151.961 45.1797 152.605 43.6445 153.895 42.3945C155.191 41.1445 156.824 40.5195 158.793 40.5195C160.652 40.5195 162.176 41.1094 163.363 42.2891C164.559 43.4688 165.156 44.9609 165.156 46.7656ZM178.844 44.3633V49.8828C178.844 50.7109 178.992 51.2773 179.289 51.582C179.594 51.8867 180.164 52.0391 181 52.0391V53H173.559V52.0391L175.234 51.6758V44.5977C175.234 43.668 175.109 43.0352 174.859 42.6992C174.617 42.3633 174.184 42.1953 173.559 42.1953V41.2344C174.262 41.2031 175.004 41.1289 175.785 41.0117C176.574 40.8945 177.176 40.7773 177.59 40.6602L178.234 40.5195L178.48 42.8047H178.715C178.762 42.7422 178.824 42.6602 178.902 42.5586C178.988 42.4492 179.172 42.2656 179.453 42.0078C179.734 41.75 180.016 41.5234 180.297 41.3281C180.586 41.125 180.945 40.9414 181.375 40.7773C181.812 40.6055 182.246 40.5195 182.676 40.5195C182.996 40.5195 183.309 40.5508 183.613 40.6133C183.918 40.6758 184.133 40.7422 184.258 40.8125L184.48 40.8828V45.1953H182.559L181.715 42.9219C181.184 42.9531 180.68 43.0898 180.203 43.332C179.727 43.5664 179.383 43.7969 179.172 44.0234L178.844 44.3633ZM189.285 46.6367C189.285 50.0742 190.246 51.7969 192.168 51.8047C192.902 51.8047 193.523 51.418 194.031 50.6445C194.547 49.8633 194.805 48.6875 194.805 47.1172C194.805 43.6797 193.848 41.9609 191.934 41.9609C191.199 41.9609 190.574 42.3477 190.059 43.1211C189.543 43.8945 189.285 45.0664 189.285 46.6367ZM198.648 46.7656C198.648 48.5859 198 50.1211 196.703 51.3711C195.406 52.6133 193.773 53.2344 191.805 53.2344C189.945 53.2344 188.422 52.6484 187.234 51.4766C186.047 50.2969 185.453 48.8047 185.453 47C185.453 45.1797 186.098 43.6445 187.387 42.3945C188.684 41.1445 190.316 40.5195 192.285 40.5195C194.145 40.5195 195.668 41.1094 196.855 42.2891C198.051 43.4688 198.648 44.9609 198.648 46.7656ZM220.375 45.3242V49.8828C220.375 50.7656 220.484 51.3477 220.703 51.6289C220.93 51.9023 221.379 52.0391 222.051 52.0391V53H215.336V52.0391L216.777 51.6758V45.5586C216.777 43.957 216.176 43.1562 214.973 43.1562C214.59 43.1562 214.211 43.2461 213.836 43.4258C213.461 43.5977 213.176 43.7812 212.98 43.9766L212.688 44.2344C212.766 44.4766 212.809 44.918 212.816 45.5586V49.8828C212.816 50.7656 212.922 51.3477 213.133 51.6289C213.352 51.9023 213.766 52.0391 214.375 52.0391V53H207.777V52.0391L209.207 51.6758V45.5586C209.207 43.957 208.609 43.1562 207.414 43.1562C207.062 43.1562 206.707 43.2383 206.348 43.4023C205.988 43.5586 205.719 43.7188 205.539 43.8828L205.258 44.1172V49.8828C205.258 50.7656 205.363 51.3477 205.574 51.6289C205.793 51.9023 206.207 52.0391 206.816 52.0391V53H199.973V52.0391L201.648 51.6758V44.5977C201.648 43.668 201.523 43.0352 201.273 42.6992C201.031 42.3633 200.598 42.1953 199.973 42.1953V41.2344C200.676 41.2031 201.418 41.1289 202.199 41.0117C202.988 40.8945 203.59 40.7773 204.004 40.6602L204.648 40.5195L204.895 42.6758H205.129C205.16 42.6133 205.211 42.5352 205.281 42.4414C205.359 42.3477 205.52 42.1758 205.762 41.9258C206.012 41.6758 206.277 41.457 206.559 41.2695C206.84 41.0742 207.207 40.9023 207.66 40.7539C208.121 40.5977 208.598 40.5195 209.09 40.5195C209.551 40.5195 209.98 40.5977 210.379 40.7539C210.785 40.9023 211.098 41.082 211.316 41.293C211.543 41.4961 211.738 41.7031 211.902 41.9141C212.074 42.1172 212.195 42.293 212.266 42.4414L212.336 42.6758H212.57C212.602 42.6133 212.656 42.5352 212.734 42.4414C212.82 42.3477 212.988 42.1758 213.238 41.9258C213.496 41.6758 213.773 41.457 214.07 41.2695C214.367 41.0742 214.746 40.9023 215.207 40.7539C215.676 40.5977 216.156 40.5195 216.648 40.5195C217.766 40.5195 218.664 40.9297 219.344 41.75C220.031 42.5625 220.375 43.7539 220.375 45.3242ZM233.934 44.8438V49.1562C233.934 50.0859 234.059 50.7188 234.309 51.0547C234.559 51.3906 234.992 51.5586 235.609 51.5586V52.5195C234.906 52.5508 234.164 52.6289 233.383 52.7539C232.602 52.8711 232 52.9844 231.578 53.0938L230.934 53.2344L230.699 50.9609H230.453C230.406 51.0234 230.34 51.1094 230.254 51.2188C230.176 51.3203 230.004 51.5 229.738 51.7578C229.48 52.0078 229.203 52.2344 228.906 52.4375C228.609 52.6328 228.227 52.8164 227.758 52.9883C227.297 53.1523 226.836 53.2344 226.375 53.2344C225.32 53.2344 224.496 52.9766 223.902 52.4609C223.309 51.9375 223.012 51.2773 223.012 50.4805C223.012 49.7617 223.262 49.1055 223.762 48.5117C224.27 47.918 224.883 47.4531 225.602 47.1172C226.328 46.7812 227.047 46.5 227.758 46.2734C228.469 46.0391 229.07 45.8828 229.562 45.8047L230.336 45.6758V45.0781C230.336 43.0781 229.617 42.0781 228.18 42.0781C227.969 42.0781 227.742 42.1055 227.5 42.1602C227.258 42.2148 227.066 42.2773 226.926 42.3477L226.738 42.4414L225.895 45.0781H223.973V41.7148C224.129 41.6211 224.355 41.5117 224.652 41.3867C224.949 41.2539 225.539 41.0781 226.422 40.8594C227.305 40.6328 228.168 40.5195 229.012 40.5195C230.598 40.5195 231.812 40.9062 232.656 41.6797C233.508 42.4453 233.934 43.5 233.934 44.8438ZM228.051 50.7148C228.434 50.7148 228.816 50.6172 229.199 50.4219C229.59 50.2188 229.871 50.0234 230.043 49.8359L230.336 49.5195V47C230.242 47.0156 230.113 47.0391 229.949 47.0703C229.793 47.1016 229.504 47.1914 229.082 47.3398C228.668 47.4805 228.301 47.6367 227.98 47.8086C227.66 47.9727 227.371 48.2109 227.113 48.5234C226.863 48.8359 226.738 49.168 226.738 49.5195C226.738 49.8867 226.852 50.1797 227.078 50.3984C227.312 50.6094 227.637 50.7148 228.051 50.7148ZM249.789 45.3242V49.8828C249.789 50.7656 249.898 51.3477 250.117 51.6289C250.344 51.9023 250.793 52.0391 251.465 52.0391V53H244.504V52.0391L246.18 51.6758V45.5586C246.18 43.957 245.5 43.1562 244.141 43.1562C243.758 43.1562 243.367 43.2461 242.969 43.4258C242.57 43.5977 242.266 43.7812 242.055 43.9766L241.75 44.2344V49.8828C241.75 50.7656 241.859 51.3477 242.078 51.6289C242.305 51.9023 242.754 52.0391 243.426 52.0391V53H236.465V52.0391L238.141 51.6758V44.5977C238.141 43.668 238.016 43.0352 237.766 42.6992C237.523 42.3633 237.09 42.1953 236.465 42.1953V41.2344C237.168 41.2031 237.91 41.1289 238.691 41.0117C239.48 40.8945 240.082 40.7773 240.496 40.6602L241.141 40.5195L241.387 42.8047H241.621C241.668 42.7422 241.73 42.6602 241.809 42.5586C241.895 42.4492 242.074 42.2656 242.348 42.0078C242.621 41.75 242.906 41.5234 243.203 41.3281C243.508 41.125 243.895 40.9414 244.363 40.7773C244.84 40.6055 245.328 40.5195 245.828 40.5195C247.016 40.5195 247.973 40.9414 248.699 41.7852C249.426 42.6211 249.789 43.8008 249.789 45.3242ZM252.672 47.1172C252.672 45.2266 253.332 43.6562 254.652 42.4062C255.973 41.1484 257.672 40.5195 259.75 40.5195C260.531 40.5195 261.262 40.6094 261.941 40.7891C262.621 40.9609 263.105 41.1445 263.395 41.3398L263.828 41.5977V45.4414H262.152L261.062 42.3242C260.742 42.168 260.305 42.0859 259.75 42.0781C258.852 42.0781 258.086 42.4766 257.453 43.2734C256.82 44.0625 256.504 45.1445 256.504 46.5195C256.504 47.8164 256.848 48.8398 257.535 49.5898C258.223 50.3398 259.121 50.7148 260.23 50.7148C260.871 50.7148 261.477 50.6289 262.047 50.457C262.625 50.2773 263.043 50.1016 263.301 49.9297L263.711 49.6367L264.309 50.2344C264.262 50.3125 264.191 50.4219 264.098 50.5625C264.012 50.7031 263.801 50.9453 263.465 51.2891C263.129 51.6328 262.77 51.9375 262.387 52.2031C262.004 52.4609 261.488 52.6992 260.84 52.918C260.191 53.1289 259.508 53.2344 258.789 53.2344C257.047 53.2344 255.59 52.6523 254.418 51.4883C253.254 50.3164 252.672 48.8594 252.672 47.1172ZM271.867 42.0781C271.289 42.0781 270.789 42.3555 270.367 42.9102C269.945 43.457 269.645 44.3008 269.465 45.4414L273.672 45.0781V44.4805C273.672 43.7305 273.5 43.1445 273.156 42.7227C272.812 42.293 272.383 42.0781 271.867 42.0781ZM272.113 40.5195C273.73 40.5195 274.996 40.9727 275.91 41.8789C276.832 42.7773 277.324 44.043 277.387 45.6758L276.191 46.7656H269.465C269.527 48.0781 269.875 49.0664 270.508 49.7305C271.141 50.3867 272.035 50.7148 273.191 50.7148C273.832 50.7148 274.438 50.6289 275.008 50.457C275.586 50.2773 276.004 50.1016 276.262 49.9297L276.672 49.6367L277.27 50.2344C277.223 50.3125 277.152 50.4219 277.059 50.5625C276.973 50.7031 276.762 50.9453 276.426 51.2891C276.09 51.6328 275.73 51.9375 275.348 52.2031C274.965 52.4609 274.449 52.6992 273.801 52.918C273.152 53.1289 272.469 53.2344 271.75 53.2344C270.008 53.2344 268.551 52.6523 267.379 51.4883C266.215 50.3164 265.633 48.8594 265.633 47.1172C265.633 45.2578 266.262 43.6953 267.52 42.4297C268.777 41.1562 270.309 40.5195 272.113 40.5195ZM292.738 40.5195C293.059 40.5195 293.379 40.5508 293.699 40.6133C294.02 40.6758 294.258 40.7422 294.414 40.8125L294.66 40.8828V37.7656C294.66 36.8359 294.535 36.2031 294.285 35.8672C294.035 35.5312 293.598 35.3633 292.973 35.3633V34.4023C293.754 34.3711 294.586 34.2852 295.469 34.1445C296.352 33.9961 297.039 33.8672 297.531 33.7578L298.258 33.5586V49.1562C298.258 50.0859 298.379 50.7188 298.621 51.0547C298.871 51.3906 299.309 51.5586 299.934 51.5586V52.5195C299.23 52.5508 298.484 52.6289 297.695 52.7539C296.914 52.8711 296.316 52.9844 295.902 53.0938L295.258 53.2344L295.012 50.9609H294.777C294.73 51.0234 294.664 51.1094 294.578 51.2188C294.5 51.3203 294.328 51.5 294.062 51.7578C293.805 52.0078 293.527 52.2344 293.23 52.4375C292.934 52.6328 292.551 52.8164 292.082 52.9883C291.621 53.1523 291.16 53.2344 290.699 53.2344C289.449 53.2344 288.375 52.707 287.477 51.6523C286.586 50.5977 286.141 49.207 286.141 47.4805C286.141 45.4023 286.754 43.7227 287.98 42.4414C289.215 41.1602 290.801 40.5195 292.738 40.5195ZM292.621 42.0781C291.84 42.0781 291.184 42.4648 290.652 43.2383C290.121 44.0039 289.855 45.1797 289.855 46.7656C289.855 48.0781 290.082 49.0469 290.535 49.6719C290.996 50.2891 291.609 50.5977 292.375 50.5977C292.758 50.5977 293.141 50.5117 293.523 50.3398C293.914 50.1602 294.195 49.9766 294.367 49.7891L294.66 49.5195V42.9219C294.184 42.3594 293.504 42.0781 292.621 42.0781ZM304.973 46.6367C304.973 50.0742 305.934 51.7969 307.855 51.8047C308.59 51.8047 309.211 51.418 309.719 50.6445C310.234 49.8633 310.492 48.6875 310.492 47.1172C310.492 43.6797 309.535 41.9609 307.621 41.9609C306.887 41.9609 306.262 42.3477 305.746 43.1211C305.23 43.8945 304.973 45.0664 304.973 46.6367ZM314.336 46.7656C314.336 48.5859 313.688 50.1211 312.391 51.3711C311.094 52.6133 309.461 53.2344 307.492 53.2344C305.633 53.2344 304.109 52.6484 302.922 51.4766C301.734 50.2969 301.141 48.8047 301.141 47C301.141 45.1797 301.785 43.6445 303.074 42.3945C304.371 41.1445 306.004 40.5195 307.973 40.5195C309.832 40.5195 311.355 41.1094 312.543 42.2891C313.738 43.4688 314.336 44.9609 314.336 46.7656ZM340.023 35.9609V49.4023C340.023 50.4727 340.148 51.1602 340.398 51.4648C340.656 51.7695 341.211 51.9219 342.062 51.9219V53H334.141V52.0391L336.18 51.5586V44.2344H328.855V49.4023C328.855 50.4727 328.984 51.1602 329.242 51.4648C329.5 51.7695 330.051 51.9219 330.895 51.9219V53H322.973V52.0391L325.023 51.5586V38.1172C325.023 37.0469 324.895 36.3594 324.637 36.0547C324.379 35.75 323.824 35.5977 322.973 35.5977V34.5195H330.895V35.4805L328.855 35.9609V42.5586H336.18V38.1172C336.18 37.0469 336.051 36.3594 335.793 36.0547C335.535 35.75 334.984 35.5977 334.141 35.5977V34.5195H342.062V35.4805L340.023 35.9609ZM347.465 46.6367C347.465 50.0742 348.426 51.7969 350.348 51.8047C351.082 51.8047 351.703 51.418 352.211 50.6445C352.727 49.8633 352.984 48.6875 352.984 47.1172C352.984 43.6797 352.027 41.9609 350.113 41.9609C349.379 41.9609 348.754 42.3477 348.238 43.1211C347.723 43.8945 347.465 45.0664 347.465 46.6367ZM356.828 46.7656C356.828 48.5859 356.18 50.1211 354.883 51.3711C353.586 52.6133 351.953 53.2344 349.984 53.2344C348.125 53.2344 346.602 52.6484 345.414 51.4766C344.227 50.2969 343.633 48.8047 343.633 47C343.633 45.1797 344.277 43.6445 345.566 42.3945C346.863 41.1445 348.496 40.5195 350.465 40.5195C352.324 40.5195 353.848 41.1094 355.035 42.2891C356.23 43.4688 356.828 44.9609 356.828 46.7656ZM363.191 33.5586V49.8828C363.191 50.7656 363.301 51.3477 363.52 51.6289C363.746 51.9023 364.195 52.0391 364.867 52.0391V53H357.906V52.0391L359.594 51.6758V37.7656C359.594 36.8359 359.469 36.2031 359.219 35.8672C358.969 35.5312 358.531 35.3633 357.906 35.3633V34.4023C358.688 34.3711 359.52 34.2852 360.402 34.1445C361.285 33.9961 361.977 33.8672 362.477 33.7578L363.191 33.5586ZM369.918 46.6367C369.918 50.0742 370.879 51.7969 372.801 51.8047C373.535 51.8047 374.156 51.418 374.664 50.6445C375.18 49.8633 375.438 48.6875 375.438 47.1172C375.438 43.6797 374.48 41.9609 372.566 41.9609C371.832 41.9609 371.207 42.3477 370.691 43.1211C370.176 43.8945 369.918 45.0664 369.918 46.6367ZM379.281 46.7656C379.281 48.5859 378.633 50.1211 377.336 51.3711C376.039 52.6133 374.406 53.2344 372.438 53.2344C370.578 53.2344 369.055 52.6484 367.867 51.4766C366.68 50.2969 366.086 48.8047 366.086 47C366.086 45.1797 366.73 43.6445 368.02 42.3945C369.316 41.1445 370.949 40.5195 372.918 40.5195C374.777 40.5195 376.301 41.1094 377.488 42.2891C378.684 43.4688 379.281 44.9609 379.281 46.7656ZM380.969 47.1172C380.969 45.2266 381.629 43.6562 382.949 42.4062C384.27 41.1484 385.969 40.5195 388.047 40.5195C388.828 40.5195 389.559 40.6094 390.238 40.7891C390.918 40.9609 391.402 41.1445 391.691 41.3398L392.125 41.5977V45.4414H390.449L389.359 42.3242C389.039 42.168 388.602 42.0859 388.047 42.0781C387.148 42.0781 386.383 42.4766 385.75 43.2734C385.117 44.0625 384.801 45.1445 384.801 46.5195C384.801 47.8164 385.145 48.8398 385.832 49.5898C386.52 50.3398 387.418 50.7148 388.527 50.7148C389.168 50.7148 389.773 50.6289 390.344 50.457C390.922 50.2773 391.34 50.1016 391.598 49.9297L392.008 49.6367L392.605 50.2344C392.559 50.3125 392.488 50.4219 392.395 50.5625C392.309 50.7031 392.098 50.9453 391.762 51.2891C391.426 51.6328 391.066 51.9375 390.684 52.2031C390.301 52.4609 389.785 52.6992 389.137 52.918C388.488 53.1289 387.805 53.2344 387.086 53.2344C385.344 53.2344 383.887 52.6523 382.715 51.4883C381.551 50.3164 380.969 48.8594 380.969 47.1172ZM404.84 44.8438V49.1562C404.84 50.0859 404.965 50.7188 405.215 51.0547C405.465 51.3906 405.898 51.5586 406.516 51.5586V52.5195C405.812 52.5508 405.07 52.6289 404.289 52.7539C403.508 52.8711 402.906 52.9844 402.484 53.0938L401.84 53.2344L401.605 50.9609H401.359C401.312 51.0234 401.246 51.1094 401.16 51.2188C401.082 51.3203 400.91 51.5 400.645 51.7578C400.387 52.0078 400.109 52.2344 399.812 52.4375C399.516 52.6328 399.133 52.8164 398.664 52.9883C398.203 53.1523 397.742 53.2344 397.281 53.2344C396.227 53.2344 395.402 52.9766 394.809 52.4609C394.215 51.9375 393.918 51.2773 393.918 50.4805C393.918 49.7617 394.168 49.1055 394.668 48.5117C395.176 47.918 395.789 47.4531 396.508 47.1172C397.234 46.7812 397.953 46.5 398.664 46.2734C399.375 46.0391 399.977 45.8828 400.469 45.8047L401.242 45.6758V45.0781C401.242 43.0781 400.523 42.0781 399.086 42.0781C398.875 42.0781 398.648 42.1055 398.406 42.1602C398.164 42.2148 397.973 42.2773 397.832 42.3477L397.645 42.4414L396.801 45.0781H394.879V41.7148C395.035 41.6211 395.262 41.5117 395.559 41.3867C395.855 41.2539 396.445 41.0781 397.328 40.8594C398.211 40.6328 399.074 40.5195 399.918 40.5195C401.504 40.5195 402.719 40.9062 403.562 41.6797C404.414 42.4453 404.84 43.5 404.84 44.8438ZM398.957 50.7148C399.34 50.7148 399.723 50.6172 400.105 50.4219C400.496 50.2188 400.777 50.0234 400.949 49.8359L401.242 49.5195V47C401.148 47.0156 401.02 47.0391 400.855 47.0703C400.699 47.1016 400.41 47.1914 399.988 47.3398C399.574 47.4805 399.207 47.6367 398.887 47.8086C398.566 47.9727 398.277 48.2109 398.02 48.5234C397.77 48.8359 397.645 49.168 397.645 49.5195C397.645 49.8867 397.758 50.1797 397.984 50.3984C398.219 50.6094 398.543 50.7148 398.957 50.7148ZM420.332 40.4023V49.1562C420.332 50.0859 420.457 50.7188 420.707 51.0547C420.957 51.3906 421.395 51.5586 422.02 51.5586V52.5195C421.316 52.5508 420.57 52.6289 419.781 52.7539C419 52.8711 418.402 52.9844 417.988 53.0938L417.332 53.2344L417.098 50.9609H416.852C416.805 51.0234 416.742 51.1094 416.664 51.2188C416.586 51.3203 416.41 51.5 416.137 51.7578C415.863 52.0078 415.574 52.2344 415.27 52.4375C414.965 52.6328 414.574 52.8164 414.098 52.9883C413.629 53.1523 413.148 53.2344 412.656 53.2344C411.469 53.2344 410.512 52.8164 409.785 51.9805C409.059 51.1367 408.695 49.957 408.695 48.4414V44.5977C408.695 43.668 408.57 43.0352 408.32 42.6992C408.078 42.3633 407.645 42.1953 407.02 42.1953V41.2344C407.871 41.2031 408.734 41.1172 409.609 40.9766C410.492 40.8359 411.156 40.6992 411.602 40.5664L412.293 40.4023V48.1953C412.293 49.7969 412.973 50.5977 414.332 50.5977C414.715 50.5977 415.105 50.5117 415.504 50.3398C415.91 50.1602 416.219 49.9766 416.43 49.7891L416.734 49.5195V44.5977C416.734 43.668 416.609 43.0352 416.359 42.6992C416.117 42.3633 415.684 42.1953 415.059 42.1953V41.2344C415.91 41.2031 416.773 41.1172 417.648 40.9766C418.531 40.8359 419.203 40.6992 419.664 40.5664L420.332 40.4023ZM429.824 50C429.824 49.6172 429.605 49.2617 429.168 48.9336C428.738 48.6055 428.219 48.3086 427.609 48.043C427.008 47.7773 426.402 47.4844 425.793 47.1641C425.184 46.8438 424.66 46.4141 424.223 45.875C423.793 45.3281 423.578 44.7031 423.578 44C423.578 42.9766 424 42.1406 424.844 41.4922C425.695 40.8438 426.953 40.5195 428.617 40.5195C429.289 40.5195 429.945 40.5938 430.586 40.7422C431.227 40.8828 431.699 41.0156 432.004 41.1406L432.461 41.3633V44.4805H431.266C431.086 43.582 430.809 42.9375 430.434 42.5469C430.059 42.1562 429.535 41.9609 428.863 41.9609C428.332 41.9609 427.918 42.0898 427.621 42.3477C427.332 42.5977 427.188 42.9102 427.188 43.2852C427.188 43.7148 427.402 44.0859 427.832 44.3984C428.262 44.7109 428.781 44.9805 429.391 45.207C430 45.4258 430.605 45.6758 431.207 45.957C431.816 46.2383 432.336 46.6523 432.766 47.1992C433.203 47.7383 433.422 48.3906 433.422 49.1562C433.422 50.2891 432.934 51.2539 431.957 52.0508C430.98 52.8398 429.629 53.2344 427.902 53.2344C427.09 53.2344 426.289 53.1562 425.5 53C424.719 52.8438 424.145 52.6836 423.777 52.5195L423.227 52.2852V48.5586H424.422C424.789 50.7148 425.871 51.7969 427.668 51.8047C428.309 51.8047 428.828 51.6289 429.227 51.2773C429.625 50.918 429.824 50.4922 429.824 50ZM434.629 42.3242V41.1172L436.551 40.7656V37.6367L439.422 36.6758H440.148V40.7656H443.98V42.6758H442.668L440.148 42.0781V49.1562C440.148 50.2734 440.707 50.8359 441.824 50.8438C442.207 50.8438 442.578 50.7852 442.938 50.668C443.297 50.543 443.559 50.4258 443.723 50.3164L443.98 50.1172L444.461 50.8438C444.414 50.9062 444.352 50.9961 444.273 51.1133C444.195 51.2227 444.02 51.4141 443.746 51.6875C443.473 51.9531 443.184 52.1914 442.879 52.4023C442.574 52.6055 442.184 52.7969 441.707 52.9766C441.238 53.1484 440.758 53.2344 440.266 53.2344C439.062 53.2344 438.141 52.918 437.5 52.2852C436.867 51.6445 436.551 50.7227 436.551 49.5195V42.3242H434.629ZM449.512 46.6367C449.512 50.0742 450.473 51.7969 452.395 51.8047C453.129 51.8047 453.75 51.418 454.258 50.6445C454.773 49.8633 455.031 48.6875 455.031 47.1172C455.031 43.6797 454.074 41.9609 452.16 41.9609C451.426 41.9609 450.801 42.3477 450.285 43.1211C449.77 43.8945 449.512 45.0664 449.512 46.6367ZM458.875 46.7656C458.875 48.5859 458.227 50.1211 456.93 51.3711C455.633 52.6133 454 53.2344 452.031 53.2344C450.172 53.2344 448.648 52.6484 447.461 51.4766C446.273 50.2969 445.68 48.8047 445.68 47C445.68 45.1797 446.324 43.6445 447.613 42.3945C448.91 41.1445 450.543 40.5195 452.512 40.5195C454.371 40.5195 455.895 41.1094 457.082 42.2891C458.277 43.4688 458.875 44.9609 458.875 46.7656ZM28.8438 77.1172C28.8438 75.2266 29.5039 73.6562 30.8242 72.4062C32.1445 71.1484 33.8438 70.5195 35.9219 70.5195C36.7031 70.5195 37.4336 70.6094 38.1133 70.7891C38.793 70.9609 39.2773 71.1445 39.5664 71.3398L40 71.5977V75.4414H38.3242L37.2344 72.3242C36.9141 72.168 36.4766 72.0859 35.9219 72.0781C35.0234 72.0781 34.2578 72.4766 33.625 73.2734C32.9922 74.0625 32.6758 75.1445 32.6758 76.5195C32.6758 77.8164 33.0195 78.8398 33.707 79.5898C34.3945 80.3398 35.293 80.7148 36.4023 80.7148C37.043 80.7148 37.6484 80.6289 38.2188 80.457C38.7969 80.2773 39.2148 80.1016 39.4727 79.9297L39.8828 79.6367L40.4805 80.2344C40.4336 80.3125 40.3633 80.4219 40.2695 80.5625C40.1836 80.7031 39.9727 80.9453 39.6367 81.2891C39.3008 81.6328 38.9414 81.9375 38.5586 82.2031C38.1758 82.4609 37.6602 82.6992 37.0117 82.918C36.3633 83.1289 35.6797 83.2344 34.9609 83.2344C33.2188 83.2344 31.7617 82.6523 30.5898 81.4883C29.4258 80.3164 28.8438 78.8594 28.8438 77.1172ZM52.7148 74.8438V79.1562C52.7148 80.0859 52.8398 80.7188 53.0898 81.0547C53.3398 81.3906 53.7734 81.5586 54.3906 81.5586V82.5195C53.6875 82.5508 52.9453 82.6289 52.1641 82.7539C51.3828 82.8711 50.7812 82.9844 50.3594 83.0938L49.7148 83.2344L49.4805 80.9609H49.2344C49.1875 81.0234 49.1211 81.1094 49.0352 81.2188C48.957 81.3203 48.7852 81.5 48.5195 81.7578C48.2617 82.0078 47.9844 82.2344 47.6875 82.4375C47.3906 82.6328 47.0078 82.8164 46.5391 82.9883C46.0781 83.1523 45.6172 83.2344 45.1562 83.2344C44.1016 83.2344 43.2773 82.9766 42.6836 82.4609C42.0898 81.9375 41.793 81.2773 41.793 80.4805C41.793 79.7617 42.043 79.1055 42.543 78.5117C43.0508 77.918 43.6641 77.4531 44.3828 77.1172C45.1094 76.7812 45.8281 76.5 46.5391 76.2734C47.25 76.0391 47.8516 75.8828 48.3438 75.8047L49.1172 75.6758V75.0781C49.1172 73.0781 48.3984 72.0781 46.9609 72.0781C46.75 72.0781 46.5234 72.1055 46.2812 72.1602C46.0391 72.2148 45.8477 72.2773 45.707 72.3477L45.5195 72.4414L44.6758 75.0781H42.7539V71.7148C42.9102 71.6211 43.1367 71.5117 43.4336 71.3867C43.7305 71.2539 44.3203 71.0781 45.2031 70.8594C46.0859 70.6328 46.9492 70.5195 47.793 70.5195C49.3789 70.5195 50.5938 70.9062 51.4375 71.6797C52.2891 72.4453 52.7148 73.5 52.7148 74.8438ZM46.832 80.7148C47.2148 80.7148 47.5977 80.6172 47.9805 80.4219C48.3711 80.2188 48.6523 80.0234 48.8242 79.8359L49.1172 79.5195V77C49.0234 77.0156 48.8945 77.0391 48.7305 77.0703C48.5742 77.1016 48.2852 77.1914 47.8633 77.3398C47.4492 77.4805 47.082 77.6367 46.7617 77.8086C46.4414 77.9727 46.1523 78.2109 45.8945 78.5234C45.6445 78.8359 45.5195 79.168 45.5195 79.5195C45.5195 79.8867 45.6328 80.1797 45.8594 80.3984C46.0938 80.6094 46.418 80.7148 46.832 80.7148ZM68.207 70.4023V79.1562C68.207 80.0859 68.332 80.7188 68.582 81.0547C68.832 81.3906 69.2695 81.5586 69.8945 81.5586V82.5195C69.1914 82.5508 68.4453 82.6289 67.6562 82.7539C66.875 82.8711 66.2773 82.9844 65.8633 83.0938L65.207 83.2344L64.9727 80.9609H64.7266C64.6797 81.0234 64.6172 81.1094 64.5391 81.2188C64.4609 81.3203 64.2852 81.5 64.0117 81.7578C63.7383 82.0078 63.4492 82.2344 63.1445 82.4375C62.8398 82.6328 62.4492 82.8164 61.9727 82.9883C61.5039 83.1523 61.0234 83.2344 60.5312 83.2344C59.3438 83.2344 58.3867 82.8164 57.6602 81.9805C56.9336 81.1367 56.5703 79.957 56.5703 78.4414V74.5977C56.5703 73.668 56.4453 73.0352 56.1953 72.6992C55.9531 72.3633 55.5195 72.1953 54.8945 72.1953V71.2344C55.7461 71.2031 56.6094 71.1172 57.4844 70.9766C58.3672 70.8359 59.0312 70.6992 59.4766 70.5664L60.168 70.4023V78.1953C60.168 79.7969 60.8477 80.5977 62.207 80.5977C62.5898 80.5977 62.9805 80.5117 63.3789 80.3398C63.7852 80.1602 64.0938 79.9766 64.3047 79.7891L64.6094 79.5195V74.5977C64.6094 73.668 64.4844 73.0352 64.2344 72.6992C63.9922 72.3633 63.5586 72.1953 62.9336 72.1953V71.2344C63.7852 71.2031 64.6484 71.1172 65.5234 70.9766C66.4062 70.8359 67.0781 70.6992 67.5391 70.5664L68.207 70.4023ZM77.6992 80C77.6992 79.6172 77.4805 79.2617 77.043 78.9336C76.6133 78.6055 76.0938 78.3086 75.4844 78.043C74.8828 77.7773 74.2773 77.4844 73.668 77.1641C73.0586 76.8438 72.5352 76.4141 72.0977 75.875C71.668 75.3281 71.4531 74.7031 71.4531 74C71.4531 72.9766 71.875 72.1406 72.7188 71.4922C73.5703 70.8438 74.8281 70.5195 76.4922 70.5195C77.1641 70.5195 77.8203 70.5938 78.4609 70.7422C79.1016 70.8828 79.5742 71.0156 79.8789 71.1406L80.3359 71.3633V74.4805H79.1406C78.9609 73.582 78.6836 72.9375 78.3086 72.5469C77.9336 72.1562 77.4102 71.9609 76.7383 71.9609C76.207 71.9609 75.793 72.0898 75.4961 72.3477C75.207 72.5977 75.0625 72.9102 75.0625 73.2852C75.0625 73.7148 75.2773 74.0859 75.707 74.3984C76.1367 74.7109 76.6562 74.9805 77.2656 75.207C77.875 75.4258 78.4805 75.6758 79.082 75.957C79.6914 76.2383 80.2109 76.6523 80.6406 77.1992C81.0781 77.7383 81.2969 78.3906 81.2969 79.1562C81.2969 80.2891 80.8086 81.2539 79.832 82.0508C78.8555 82.8398 77.5039 83.2344 75.7773 83.2344C74.9648 83.2344 74.1641 83.1562 73.375 83C72.5938 82.8438 72.0195 82.6836 71.6523 82.5195L71.1016 82.2852V78.5586H72.2969C72.6641 80.7148 73.7461 81.7969 75.543 81.8047C76.1836 81.8047 76.7031 81.6289 77.1016 81.2773C77.5 80.918 77.6992 80.4922 77.6992 80ZM93.6602 74.8438V79.1562C93.6602 80.0859 93.7852 80.7188 94.0352 81.0547C94.2852 81.3906 94.7188 81.5586 95.3359 81.5586V82.5195C94.6328 82.5508 93.8906 82.6289 93.1094 82.7539C92.3281 82.8711 91.7266 82.9844 91.3047 83.0938L90.6602 83.2344L90.4258 80.9609H90.1797C90.1328 81.0234 90.0664 81.1094 89.9805 81.2188C89.9023 81.3203 89.7305 81.5 89.4648 81.7578C89.207 82.0078 88.9297 82.2344 88.6328 82.4375C88.3359 82.6328 87.9531 82.8164 87.4844 82.9883C87.0234 83.1523 86.5625 83.2344 86.1016 83.2344C85.0469 83.2344 84.2227 82.9766 83.6289 82.4609C83.0352 81.9375 82.7383 81.2773 82.7383 80.4805C82.7383 79.7617 82.9883 79.1055 83.4883 78.5117C83.9961 77.918 84.6094 77.4531 85.3281 77.1172C86.0547 76.7812 86.7734 76.5 87.4844 76.2734C88.1953 76.0391 88.7969 75.8828 89.2891 75.8047L90.0625 75.6758V75.0781C90.0625 73.0781 89.3438 72.0781 87.9062 72.0781C87.6953 72.0781 87.4688 72.1055 87.2266 72.1602C86.9844 72.2148 86.793 72.2773 86.6523 72.3477L86.4648 72.4414L85.6211 75.0781H83.6992V71.7148C83.8555 71.6211 84.082 71.5117 84.3789 71.3867C84.6758 71.2539 85.2656 71.0781 86.1484 70.8594C87.0312 70.6328 87.8945 70.5195 88.7383 70.5195C90.3242 70.5195 91.5391 70.9062 92.3828 71.6797C93.2344 72.4453 93.6602 73.5 93.6602 74.8438ZM87.7773 80.7148C88.1602 80.7148 88.543 80.6172 88.9258 80.4219C89.3164 80.2188 89.5977 80.0234 89.7695 79.8359L90.0625 79.5195V77C89.9688 77.0156 89.8398 77.0391 89.6758 77.0703C89.5195 77.1016 89.2305 77.1914 88.8086 77.3398C88.3945 77.4805 88.0273 77.6367 87.707 77.8086C87.3867 77.9727 87.0977 78.2109 86.8398 78.5234C86.5898 78.8359 86.4648 79.168 86.4648 79.5195C86.4648 79.8867 86.5781 80.1797 86.8047 80.3984C87.0391 80.6094 87.3633 80.7148 87.7773 80.7148ZM109.867 72.0781C109.289 72.0781 108.789 72.3555 108.367 72.9102C107.945 73.457 107.645 74.3008 107.465 75.4414L111.672 75.0781V74.4805C111.672 73.7305 111.5 73.1445 111.156 72.7227C110.812 72.293 110.383 72.0781 109.867 72.0781ZM110.113 70.5195C111.73 70.5195 112.996 70.9727 113.91 71.8789C114.832 72.7773 115.324 74.043 115.387 75.6758L114.191 76.7656H107.465C107.527 78.0781 107.875 79.0664 108.508 79.7305C109.141 80.3867 110.035 80.7148 111.191 80.7148C111.832 80.7148 112.438 80.6289 113.008 80.457C113.586 80.2773 114.004 80.1016 114.262 79.9297L114.672 79.6367L115.27 80.2344C115.223 80.3125 115.152 80.4219 115.059 80.5625C114.973 80.7031 114.762 80.9453 114.426 81.2891C114.09 81.6328 113.73 81.9375 113.348 82.2031C112.965 82.4609 112.449 82.6992 111.801 82.918C111.152 83.1289 110.469 83.2344 109.75 83.2344C108.008 83.2344 106.551 82.6523 105.379 81.4883C104.215 80.3164 103.633 78.8594 103.633 77.1172C103.633 75.2578 104.262 73.6953 105.52 72.4297C106.777 71.1562 108.309 70.5195 110.113 70.5195ZM123.66 80C123.66 79.6172 123.441 79.2617 123.004 78.9336C122.574 78.6055 122.055 78.3086 121.445 78.043C120.844 77.7773 120.238 77.4844 119.629 77.1641C119.02 76.8438 118.496 76.4141 118.059 75.875C117.629 75.3281 117.414 74.7031 117.414 74C117.414 72.9766 117.836 72.1406 118.68 71.4922C119.531 70.8438 120.789 70.5195 122.453 70.5195C123.125 70.5195 123.781 70.5938 124.422 70.7422C125.062 70.8828 125.535 71.0156 125.84 71.1406L126.297 71.3633V74.4805H125.102C124.922 73.582 124.645 72.9375 124.27 72.5469C123.895 72.1562 123.371 71.9609 122.699 71.9609C122.168 71.9609 121.754 72.0898 121.457 72.3477C121.168 72.5977 121.023 72.9102 121.023 73.2852C121.023 73.7148 121.238 74.0859 121.668 74.3984C122.098 74.7109 122.617 74.9805 123.227 75.207C123.836 75.4258 124.441 75.6758 125.043 75.957C125.652 76.2383 126.172 76.6523 126.602 77.1992C127.039 77.7383 127.258 78.3906 127.258 79.1562C127.258 80.2891 126.77 81.2539 125.793 82.0508C124.816 82.8398 123.465 83.2344 121.738 83.2344C120.926 83.2344 120.125 83.1562 119.336 83C118.555 82.8438 117.98 82.6836 117.613 82.5195L117.062 82.2852V78.5586H118.258C118.625 80.7148 119.707 81.7969 121.504 81.8047C122.145 81.8047 122.664 81.6289 123.062 81.2773C123.461 80.918 123.66 80.4922 123.66 80ZM128.945 77.1172C128.945 75.2266 129.605 73.6562 130.926 72.4062C132.246 71.1484 133.945 70.5195 136.023 70.5195C136.805 70.5195 137.535 70.6094 138.215 70.7891C138.895 70.9609 139.379 71.1445 139.668 71.3398L140.102 71.5977V75.4414H138.426L137.336 72.3242C137.016 72.168 136.578 72.0859 136.023 72.0781C135.125 72.0781 134.359 72.4766 133.727 73.2734C133.094 74.0625 132.777 75.1445 132.777 76.5195C132.777 77.8164 133.121 78.8398 133.809 79.5898C134.496 80.3398 135.395 80.7148 136.504 80.7148C137.145 80.7148 137.75 80.6289 138.32 80.457C138.898 80.2773 139.316 80.1016 139.574 79.9297L139.984 79.6367L140.582 80.2344C140.535 80.3125 140.465 80.4219 140.371 80.5625C140.285 80.7031 140.074 80.9453 139.738 81.2891C139.402 81.6328 139.043 81.9375 138.66 82.2031C138.277 82.4609 137.762 82.6992 137.113 82.918C136.465 83.1289 135.781 83.2344 135.062 83.2344C133.32 83.2344 131.863 82.6523 130.691 81.4883C129.527 80.3164 128.945 78.8594 128.945 77.1172ZM152.816 74.8438V79.1562C152.816 80.0859 152.941 80.7188 153.191 81.0547C153.441 81.3906 153.875 81.5586 154.492 81.5586V82.5195C153.789 82.5508 153.047 82.6289 152.266 82.7539C151.484 82.8711 150.883 82.9844 150.461 83.0938L149.816 83.2344L149.582 80.9609H149.336C149.289 81.0234 149.223 81.1094 149.137 81.2188C149.059 81.3203 148.887 81.5 148.621 81.7578C148.363 82.0078 148.086 82.2344 147.789 82.4375C147.492 82.6328 147.109 82.8164 146.641 82.9883C146.18 83.1523 145.719 83.2344 145.258 83.2344C144.203 83.2344 143.379 82.9766 142.785 82.4609C142.191 81.9375 141.895 81.2773 141.895 80.4805C141.895 79.7617 142.145 79.1055 142.645 78.5117C143.152 77.918 143.766 77.4531 144.484 77.1172C145.211 76.7812 145.93 76.5 146.641 76.2734C147.352 76.0391 147.953 75.8828 148.445 75.8047L149.219 75.6758V75.0781C149.219 73.0781 148.5 72.0781 147.062 72.0781C146.852 72.0781 146.625 72.1055 146.383 72.1602C146.141 72.2148 145.949 72.2773 145.809 72.3477L145.621 72.4414L144.777 75.0781H142.855V71.7148C143.012 71.6211 143.238 71.5117 143.535 71.3867C143.832 71.2539 144.422 71.0781 145.305 70.8594C146.188 70.6328 147.051 70.5195 147.895 70.5195C149.48 70.5195 150.695 70.9062 151.539 71.6797C152.391 72.4453 152.816 73.5 152.816 74.8438ZM146.934 80.7148C147.316 80.7148 147.699 80.6172 148.082 80.4219C148.473 80.2188 148.754 80.0234 148.926 79.8359L149.219 79.5195V77C149.125 77.0156 148.996 77.0391 148.832 77.0703C148.676 77.1016 148.387 77.1914 147.965 77.3398C147.551 77.4805 147.184 77.6367 146.863 77.8086C146.543 77.9727 146.254 78.2109 145.996 78.5234C145.746 78.8359 145.621 79.168 145.621 79.5195C145.621 79.8867 145.734 80.1797 145.961 80.3984C146.195 80.6094 146.52 80.7148 146.934 80.7148ZM143.816 69.3242L146.934 65H149.582L152.699 69.3242H151.258L148.375 66.9219H148.141L145.258 69.3242H143.816ZM168.672 75.3242V79.8828C168.672 80.7656 168.781 81.3477 169 81.6289C169.227 81.9023 169.676 82.0391 170.348 82.0391V83H163.387V82.0391L165.062 81.6758V75.5586C165.062 73.957 164.383 73.1562 163.023 73.1562C162.641 73.1562 162.25 73.2461 161.852 73.4258C161.453 73.5977 161.148 73.7812 160.938 73.9766L160.633 74.2344V79.8828C160.633 80.7656 160.742 81.3477 160.961 81.6289C161.188 81.9023 161.637 82.0391 162.309 82.0391V83H155.348V82.0391L157.023 81.6758V74.5977C157.023 73.668 156.898 73.0352 156.648 72.6992C156.406 72.3633 155.973 72.1953 155.348 72.1953V71.2344C156.051 71.2031 156.793 71.1289 157.574 71.0117C158.363 70.8945 158.965 70.7773 159.379 70.6602L160.023 70.5195L160.27 72.8047H160.504C160.551 72.7422 160.613 72.6602 160.691 72.5586C160.777 72.4492 160.957 72.2656 161.23 72.0078C161.504 71.75 161.789 71.5234 162.086 71.3281C162.391 71.125 162.777 70.9414 163.246 70.7773C163.723 70.6055 164.211 70.5195 164.711 70.5195C165.898 70.5195 166.855 70.9414 167.582 71.7852C168.309 72.6211 168.672 73.8008 168.672 75.3242ZM178.152 70.5195C178.473 70.5195 178.793 70.5508 179.113 70.6133C179.434 70.6758 179.672 70.7422 179.828 70.8125L180.074 70.8828V67.7656C180.074 66.8359 179.949 66.2031 179.699 65.8672C179.449 65.5312 179.012 65.3633 178.387 65.3633V64.4023C179.168 64.3711 180 64.2852 180.883 64.1445C181.766 63.9961 182.453 63.8672 182.945 63.7578L183.672 63.5586V79.1562C183.672 80.0859 183.793 80.7188 184.035 81.0547C184.285 81.3906 184.723 81.5586 185.348 81.5586V82.5195C184.645 82.5508 183.898 82.6289 183.109 82.7539C182.328 82.8711 181.73 82.9844 181.316 83.0938L180.672 83.2344L180.426 80.9609H180.191C180.145 81.0234 180.078 81.1094 179.992 81.2188C179.914 81.3203 179.742 81.5 179.477 81.7578C179.219 82.0078 178.941 82.2344 178.645 82.4375C178.348 82.6328 177.965 82.8164 177.496 82.9883C177.035 83.1523 176.574 83.2344 176.113 83.2344C174.863 83.2344 173.789 82.707 172.891 81.6523C172 80.5977 171.555 79.207 171.555 77.4805C171.555 75.4023 172.168 73.7227 173.395 72.4414C174.629 71.1602 176.215 70.5195 178.152 70.5195ZM178.035 72.0781C177.254 72.0781 176.598 72.4648 176.066 73.2383C175.535 74.0039 175.27 75.1797 175.27 76.7656C175.27 78.0781 175.496 79.0469 175.949 79.6719C176.41 80.2891 177.023 80.5977 177.789 80.5977C178.172 80.5977 178.555 80.5117 178.938 80.3398C179.328 80.1602 179.609 79.9766 179.781 79.7891L180.074 79.5195V72.9219C179.598 72.3594 178.918 72.0781 178.035 72.0781ZM197.23 74.8438V79.1562C197.23 80.0859 197.355 80.7188 197.605 81.0547C197.855 81.3906 198.289 81.5586 198.906 81.5586V82.5195C198.203 82.5508 197.461 82.6289 196.68 82.7539C195.898 82.8711 195.297 82.9844 194.875 83.0938L194.23 83.2344L193.996 80.9609H193.75C193.703 81.0234 193.637 81.1094 193.551 81.2188C193.473 81.3203 193.301 81.5 193.035 81.7578C192.777 82.0078 192.5 82.2344 192.203 82.4375C191.906 82.6328 191.523 82.8164 191.055 82.9883C190.594 83.1523 190.133 83.2344 189.672 83.2344C188.617 83.2344 187.793 82.9766 187.199 82.4609C186.605 81.9375 186.309 81.2773 186.309 80.4805C186.309 79.7617 186.559 79.1055 187.059 78.5117C187.566 77.918 188.18 77.4531 188.898 77.1172C189.625 76.7812 190.344 76.5 191.055 76.2734C191.766 76.0391 192.367 75.8828 192.859 75.8047L193.633 75.6758V75.0781C193.633 73.0781 192.914 72.0781 191.477 72.0781C191.266 72.0781 191.039 72.1055 190.797 72.1602C190.555 72.2148 190.363 72.2773 190.223 72.3477L190.035 72.4414L189.191 75.0781H187.27V71.7148C187.426 71.6211 187.652 71.5117 187.949 71.3867C188.246 71.2539 188.836 71.0781 189.719 70.8594C190.602 70.6328 191.465 70.5195 192.309 70.5195C193.895 70.5195 195.109 70.9062 195.953 71.6797C196.805 72.4453 197.23 73.5 197.23 74.8438ZM191.348 80.7148C191.73 80.7148 192.113 80.6172 192.496 80.4219C192.887 80.2188 193.168 80.0234 193.34 79.8359L193.633 79.5195V77C193.539 77.0156 193.41 77.0391 193.246 77.0703C193.09 77.1016 192.801 77.1914 192.379 77.3398C191.965 77.4805 191.598 77.6367 191.277 77.8086C190.957 77.9727 190.668 78.2109 190.41 78.5234C190.16 78.8359 190.035 79.168 190.035 79.5195C190.035 79.8867 190.148 80.1797 190.375 80.3984C190.609 80.6094 190.934 80.7148 191.348 80.7148ZM204.801 63.5586V79.8828C204.801 80.7656 204.91 81.3477 205.129 81.6289C205.355 81.9023 205.805 82.0391 206.477 82.0391V83H199.516V82.0391L201.203 81.6758V67.7656C201.203 66.8359 201.078 66.2031 200.828 65.8672C200.578 65.5312 200.141 65.3633 199.516 65.3633V64.4023C200.297 64.3711 201.129 64.2852 202.012 64.1445C202.895 63.9961 203.586 63.8672 204.086 63.7578L204.801 63.5586ZM211.527 76.6367C211.527 80.0742 212.488 81.7969 214.41 81.8047C215.145 81.8047 215.766 81.418 216.273 80.6445C216.789 79.8633 217.047 78.6875 217.047 77.1172C217.047 73.6797 216.09 71.9609 214.176 71.9609C213.441 71.9609 212.816 72.3477 212.301 73.1211C211.785 73.8945 211.527 75.0664 211.527 76.6367ZM220.891 76.7656C220.891 78.5859 220.242 80.1211 218.945 81.3711C217.648 82.6133 216.016 83.2344 214.047 83.2344C212.188 83.2344 210.664 82.6484 209.477 81.4766C208.289 80.2969 207.695 78.8047 207.695 77C207.695 75.1797 208.34 73.6445 209.629 72.3945C210.926 71.1445 212.559 70.5195 214.527 70.5195C216.387 70.5195 217.91 71.1094 219.098 72.2891C220.293 73.4688 220.891 74.9609 220.891 76.7656Z" fill="white"/>
</svg>
