<svg width="129" height="20" viewBox="0 0 129 20" fill="none" xmlns="http://www.w3.org/2000/svg">
<path d="M4.59766 1.59766V17.9219H9.51953C10.8945 17.9219 11.8555 17.6484 12.4023 17.1016C12.957 16.5469 13.3555 15.4609 13.5977 13.8438H14.4297L13.9609 19H0.390625V18.4023L2.42969 17.9219V3.63672C2.42969 2.62891 2.30078 1.97656 2.04297 1.67969C1.79297 1.38281 1.24219 1.23438 0.390625 1.23438V0.519531H6.87109V1.11719L4.59766 1.59766ZM23.0781 17.0781C23.0469 17.1406 22.9961 17.2227 22.9258 17.3242C22.8555 17.418 22.6992 17.5898 22.457 17.8398C22.2148 18.082 21.957 18.3008 21.6836 18.4961C21.418 18.6914 21.0586 18.8633 20.6055 19.0117C20.1602 19.1602 19.707 19.2344 19.2461 19.2344C18.2539 19.2344 17.4844 18.9961 16.9375 18.5195C16.3906 18.043 16.1172 17.4023 16.1172 16.5977C16.1172 15.9258 16.3594 15.3125 16.8438 14.7578C17.3359 14.1953 17.9297 13.7539 18.625 13.4336C19.3281 13.1133 20.0234 12.8438 20.7109 12.625C21.3984 12.3984 21.9805 12.2422 22.457 12.1562L23.207 12.0391V10.8438C23.207 8.76562 22.3672 7.72266 20.6875 7.71484C20.3984 7.71484 20.0938 7.76562 19.7734 7.86719C19.4531 7.96094 19.2031 8.05469 19.0234 8.14844L18.7656 8.32422L17.9219 10.8438H16.8438V8.07812C17.0234 7.98438 17.2656 7.86719 17.5703 7.72656C17.8828 7.57812 18.4492 7.38281 19.2695 7.14062C20.0977 6.89062 20.8477 6.76562 21.5195 6.76562C22.668 6.76562 23.5742 7.12109 24.2383 7.83203C24.9102 8.54297 25.2461 9.54688 25.2461 10.8438V15.7656C25.2461 16.5312 25.3711 17.0625 25.6211 17.3594C25.8789 17.6562 26.3125 17.8047 26.9219 17.8047V18.4023C26.3906 18.4648 25.832 18.5703 25.2461 18.7188C24.668 18.8594 24.2188 18.9844 23.8984 19.0938L23.4414 19.2344L23.207 17.0781H23.0781ZM20.0781 17.5586C20.5703 17.5586 21.0781 17.4414 21.6016 17.207C22.125 16.9648 22.5234 16.7227 22.7969 16.4805L23.207 16.1172V13C23.082 13.0156 22.9062 13.043 22.6797 13.082C22.4531 13.1211 22.0547 13.2188 21.4844 13.375C20.9141 13.5234 20.4141 13.6992 19.9844 13.9023C19.5547 14.0977 19.1641 14.3867 18.8125 14.7695C18.4609 15.1445 18.2852 15.5547 18.2852 16C18.2773 17.0391 18.875 17.5586 20.0781 17.5586ZM27.9883 18.4023L29.6758 18.0391V10.2344C29.6758 9.46875 29.5469 8.9375 29.2891 8.64062C29.0312 8.34375 28.5977 8.19531 27.9883 8.19531V7.59766C28.5195 7.53516 29.0781 7.43359 29.6641 7.29297C30.25 7.14453 30.6992 7.01562 31.0117 6.90625L31.4688 6.76562L31.7148 8.92188H31.832C31.8789 8.85938 31.9375 8.78125 32.0078 8.6875C32.0859 8.58594 32.2539 8.41406 32.5117 8.17188C32.7773 7.92188 33.0469 7.69922 33.3203 7.50391C33.5938 7.30859 33.9336 7.13672 34.3398 6.98828C34.7461 6.83984 35.1523 6.76562 35.5586 6.76562C35.9102 6.76562 36.2344 6.80469 36.5312 6.88281C36.8359 6.96094 37.0469 7.03906 37.1641 7.11719L37.3516 7.23438V10.7148H36.2734L35.5586 8.32422C34.8555 8.32422 34.1836 8.47266 33.543 8.76953C32.9023 9.05859 32.4375 9.35547 32.1484 9.66016L31.7148 10.1172V16.5977C31.7148 17.332 31.8594 17.8164 32.1484 18.0508C32.4375 18.2852 33.0508 18.4023 33.9883 18.4023V19H27.9883V18.4023ZM46 17.0781C45.9688 17.1406 45.918 17.2227 45.8477 17.3242C45.7773 17.418 45.6211 17.5898 45.3789 17.8398C45.1367 18.082 44.8789 18.3008 44.6055 18.4961C44.3398 18.6914 43.9805 18.8633 43.5273 19.0117C43.082 19.1602 42.6289 19.2344 42.168 19.2344C41.1758 19.2344 40.4062 18.9961 39.8594 18.5195C39.3125 18.043 39.0391 17.4023 39.0391 16.5977C39.0391 15.9258 39.2812 15.3125 39.7656 14.7578C40.2578 14.1953 40.8516 13.7539 41.5469 13.4336C42.25 13.1133 42.9453 12.8438 43.6328 12.625C44.3203 12.3984 44.9023 12.2422 45.3789 12.1562L46.1289 12.0391V10.8438C46.1289 8.76562 45.2891 7.72266 43.6094 7.71484C43.3203 7.71484 43.0156 7.76562 42.6953 7.86719C42.375 7.96094 42.125 8.05469 41.9453 8.14844L41.6875 8.32422L40.8438 10.8438H39.7656V8.07812C39.9453 7.98438 40.1875 7.86719 40.4922 7.72656C40.8047 7.57812 41.3711 7.38281 42.1914 7.14062C43.0195 6.89062 43.7695 6.76562 44.4414 6.76562C45.5898 6.76562 46.4961 7.12109 47.1602 7.83203C47.832 8.54297 48.168 9.54688 48.168 10.8438V15.7656C48.168 16.5312 48.293 17.0625 48.543 17.3594C48.8008 17.6562 49.2344 17.8047 49.8438 17.8047V18.4023C49.3125 18.4648 48.7539 18.5703 48.168 18.7188C47.5898 18.8594 47.1406 18.9844 46.8203 19.0938L46.3633 19.2344L46.1289 17.0781H46ZM43 17.5586C43.4922 17.5586 44 17.4414 44.5234 17.207C45.0469 16.9648 45.4453 16.7227 45.7188 16.4805L46.1289 16.1172V13C46.0039 13.0156 45.8281 13.043 45.6016 13.082C45.375 13.1211 44.9766 13.2188 44.4062 13.375C43.8359 13.5234 43.3359 13.6992 42.9062 13.9023C42.4766 14.0977 42.0859 14.3867 41.7344 14.7695C41.3828 15.1445 41.207 15.5547 41.207 16C41.1992 17.0391 41.7969 17.5586 43 17.5586ZM58.8203 17.9219L64.3867 9.92969L59.7812 2.92188C59.3203 2.21875 58.9414 1.76172 58.6445 1.55078C58.3477 1.33984 57.8867 1.23438 57.2617 1.23438V0.519531H64.2227V1.11719L61.5859 1.59766L65.7812 7.96094L68.7812 3.63672C69.2578 2.91797 69.5 2.39844 69.5078 2.07812C69.5078 1.51562 69.0273 1.23438 68.0664 1.23438V0.519531H73.7031V1.11719L71.6641 1.59766L66.4844 9.01562L71.3008 16.2344C71.8945 17.1172 72.3438 17.6797 72.6484 17.9219C72.9531 18.1641 73.4258 18.2852 74.0664 18.2852V19H67.1055V18.4023L69.7422 17.9219L65.1367 11.0312L61.7031 15.8828C61.2266 16.6016 60.9883 17.1211 60.9883 17.4414C60.9883 18.0039 61.4688 18.2852 62.4297 18.2852V19H56.7812V18.4023L58.8203 17.9219ZM82.3516 17.0781C82.3203 17.1406 82.2695 17.2227 82.1992 17.3242C82.1289 17.418 81.9727 17.5898 81.7305 17.8398C81.4883 18.082 81.2305 18.3008 80.957 18.4961C80.6914 18.6914 80.332 18.8633 79.8789 19.0117C79.4336 19.1602 78.9805 19.2344 78.5195 19.2344C77.5273 19.2344 76.7578 18.9961 76.2109 18.5195C75.6641 18.043 75.3906 17.4023 75.3906 16.5977C75.3906 15.9258 75.6328 15.3125 76.1172 14.7578C76.6094 14.1953 77.2031 13.7539 77.8984 13.4336C78.6016 13.1133 79.2969 12.8438 79.9844 12.625C80.6719 12.3984 81.2539 12.2422 81.7305 12.1562L82.4805 12.0391V10.8438C82.4805 8.76562 81.6406 7.72266 79.9609 7.71484C79.6719 7.71484 79.3672 7.76562 79.0469 7.86719C78.7266 7.96094 78.4766 8.05469 78.2969 8.14844L78.0391 8.32422L77.1953 10.8438H76.1172V8.07812C76.2969 7.98438 76.5391 7.86719 76.8438 7.72656C77.1562 7.57812 77.7227 7.38281 78.543 7.14062C79.3711 6.89062 80.1211 6.76562 80.793 6.76562C81.9414 6.76562 82.8477 7.12109 83.5117 7.83203C84.1836 8.54297 84.5195 9.54688 84.5195 10.8438V15.7656C84.5195 16.5312 84.6445 17.0625 84.8945 17.3594C85.1523 17.6562 85.5859 17.8047 86.1953 17.8047V18.4023C85.6641 18.4648 85.1055 18.5703 84.5195 18.7188C83.9414 18.8594 83.4922 18.9844 83.1719 19.0938L82.7148 19.2344L82.4805 17.0781H82.3516ZM79.3516 17.5586C79.8438 17.5586 80.3516 17.4414 80.875 17.207C81.3984 16.9648 81.7969 16.7227 82.0703 16.4805L82.4805 16.1172V13C82.3555 13.0156 82.1797 13.043 81.9531 13.082C81.7266 13.1211 81.3281 13.2188 80.7578 13.375C80.1875 13.5234 79.6875 13.6992 79.2578 13.9023C78.8281 14.0977 78.4375 14.3867 78.0859 14.7695C77.7344 15.1445 77.5586 15.5547 77.5586 16C77.5508 17.0391 78.1484 17.5586 79.3516 17.5586ZM92.3008 19.1172L87.9766 9.63672C87.5781 8.76953 87.2383 8.21484 86.957 7.97266C86.6758 7.72266 86.2188 7.59766 85.5859 7.59766V7H91.3398V7.59766L89.418 7.96094L93.1445 16.3633H93.2617L96.2617 9.51953C96.5039 8.98828 96.625 8.58984 96.625 8.32422C96.625 8.06641 96.5078 7.88281 96.2734 7.77344C96.0391 7.65625 95.5547 7.59766 94.8203 7.59766V7H99.7422V7.59766L98.0547 7.96094L93.0156 19.1172H92.3008ZM100.223 18.4023L101.91 18.0391V10.2344C101.91 9.42188 101.781 8.85938 101.523 8.54688C101.266 8.23438 100.832 8.07812 100.223 8.07812V7.48047C100.832 7.41797 101.445 7.30859 102.062 7.15234C102.68 6.98828 103.148 6.83984 103.469 6.70703L103.949 6.51953V16.5977C103.949 17.3164 104.062 17.7969 104.289 18.0391C104.523 18.2812 104.969 18.4023 105.625 18.4023V19H100.223V18.4023ZM103.844 1.35156C104.156 1.66406 104.312 2.02734 104.312 2.44141C104.312 2.85547 104.156 3.21875 103.844 3.53125C103.531 3.84375 103.164 4 102.742 4C102.328 4 101.965 3.84375 101.652 3.53125C101.34 3.21875 101.184 2.85547 101.184 2.44141C101.184 2.02734 101.34 1.66406 101.652 1.35156C101.965 1.03906 102.328 0.882812 102.742 0.882812C103.164 0.882812 103.531 1.03906 103.844 1.35156ZM107.195 13.2344C107.195 11.3438 107.762 9.79297 108.895 8.58203C110.035 7.37109 111.43 6.76562 113.078 6.76562C114.312 6.76562 115.285 7.18359 115.996 8.01953C116.707 8.84766 117.094 10.1094 117.156 11.8047L116.078 12.5195H109.352V13C109.352 14.4062 109.738 15.5391 110.512 16.3984C111.293 17.25 112.27 17.6758 113.441 17.6758C114.113 17.6758 114.746 17.5859 115.34 17.4062C115.941 17.2188 116.371 17.0391 116.629 16.8672L117.039 16.5977L117.402 16.9609C117.355 17.0234 117.285 17.1094 117.191 17.2188C117.105 17.3203 116.914 17.5 116.617 17.7578C116.32 18.0078 116.004 18.2344 115.668 18.4375C115.332 18.6328 114.895 18.8164 114.355 18.9883C113.824 19.1523 113.277 19.2344 112.715 19.2344C111.129 19.2344 109.812 18.6797 108.766 17.5703C107.719 16.4531 107.195 15.0078 107.195 13.2344ZM112.715 7.71484C111.965 7.71484 111.281 8.06641 110.664 8.76953C110.047 9.46484 109.652 10.3945 109.48 11.5586L115 11.3242C115 8.91797 114.238 7.71484 112.715 7.71484ZM118.949 18.4023L120.637 18.0391V10.2344C120.637 9.46875 120.508 8.9375 120.25 8.64062C119.992 8.34375 119.559 8.19531 118.949 8.19531V7.59766C119.48 7.53516 120.039 7.43359 120.625 7.29297C121.211 7.14453 121.66 7.01562 121.973 6.90625L122.43 6.76562L122.676 8.92188H122.793C122.84 8.85938 122.898 8.78125 122.969 8.6875C123.047 8.58594 123.215 8.41406 123.473 8.17188C123.738 7.92188 124.008 7.69922 124.281 7.50391C124.555 7.30859 124.895 7.13672 125.301 6.98828C125.707 6.83984 126.113 6.76562 126.52 6.76562C126.871 6.76562 127.195 6.80469 127.492 6.88281C127.797 6.96094 128.008 7.03906 128.125 7.11719L128.312 7.23438V10.7148H127.234L126.52 8.32422C125.816 8.32422 125.145 8.47266 124.504 8.76953C123.863 9.05859 123.398 9.35547 123.109 9.66016L122.676 10.1172V16.5977C122.676 17.332 122.82 17.8164 123.109 18.0508C123.398 18.2852 124.012 18.4023 124.949 18.4023V19H118.949V18.4023Z" fill="#ED1C24"/>
</svg>
