<svg width="254" height="39" viewBox="0 0 254 39" fill="none" xmlns="http://www.w3.org/2000/svg">
<path d="M10.1514 5.00684L5.7041 15.1758H4.89551L2.9707 3.30176C2.87695 2.73926 2.72168 2.3291 2.50488 2.07129C2.28809 1.80762 1.96289 1.67578 1.5293 1.67578L1.61719 1.13965H6.23145L6.15234 1.58789L4.41211 1.94824L6.0293 12.1172H6.09961L10.8545 1.13965H11.25L12.999 12.1172H13.0693L16.541 4.02246C16.9395 3.09668 17.1387 2.53711 17.1387 2.34375C17.1387 2.10352 17.0244 1.93359 16.7959 1.83398C16.5674 1.72852 16.1455 1.67578 15.5303 1.67578L15.627 1.13965H19.9951L19.9248 1.58789L18.501 1.94824L12.6738 15.1758H11.8652L10.2393 5.00684H10.1514ZM21.6562 9.24316L20.7422 15H19.3535L21.2256 3.21387C21.2607 2.93848 21.2783 2.71582 21.2783 2.5459C21.2783 2.2002 21.2051 1.9541 21.0586 1.80762C20.918 1.66113 20.6807 1.58789 20.3467 1.58789L20.417 1.13965C20.8389 1.09277 21.2666 1.01074 21.7002 0.893555C22.1396 0.770508 22.4736 0.662109 22.7021 0.568359L23.0449 0.418945L21.8145 8.16211H21.8936C21.9404 8.10352 22.0049 8.02148 22.0869 7.91602C22.1748 7.80469 22.3447 7.61426 22.5967 7.34473C22.8486 7.06934 23.1035 6.83203 23.3613 6.63281C23.6191 6.42773 23.9297 6.24316 24.293 6.0791C24.6621 5.90918 25.0137 5.82422 25.3477 5.82422C26.5723 5.82422 27.1846 6.52441 27.1846 7.9248C27.1846 8.32324 27.1553 8.70117 27.0967 9.05859L26.3936 13.5586C26.3936 13.582 26.3906 13.6143 26.3848 13.6553C26.3789 13.6904 26.376 13.7139 26.376 13.7256C26.376 13.9775 26.458 14.1035 26.6221 14.1035C26.792 14.1035 26.9854 13.9834 27.2021 13.7432C27.4189 13.5029 27.5918 13.2627 27.7207 13.0225L27.9229 12.6621L28.2041 12.8379C28.1807 12.8965 28.1484 12.9814 28.1074 13.0928C28.0664 13.1982 27.9668 13.3887 27.8086 13.6641C27.6562 13.9336 27.4951 14.1709 27.3252 14.376C27.1553 14.5752 26.9414 14.7598 26.6836 14.9297C26.4258 15.0938 26.1592 15.1758 25.8838 15.1758C25.2861 15.1758 24.9873 14.7979 24.9873 14.042C24.9873 13.8369 24.999 13.6758 25.0225 13.5586L25.7256 9.05859C25.7725 8.77148 25.7959 8.49609 25.7959 8.23242C25.7959 7.81055 25.7139 7.51465 25.5498 7.34473C25.3916 7.16895 25.1484 7.08105 24.8203 7.08105C24.3867 7.08105 23.9062 7.2627 23.3789 7.62598C22.8574 7.9834 22.4385 8.34082 22.1221 8.69824L21.6562 9.24316ZM30.7441 10.5L30.709 10.7725C30.8145 10.7725 30.9609 10.7637 31.1484 10.7461C31.3359 10.7285 31.6641 10.667 32.1328 10.5615C32.6016 10.4502 33.0146 10.3008 33.3721 10.1133C33.7295 9.92578 34.0547 9.63574 34.3477 9.24316C34.6465 8.84473 34.7959 8.38184 34.7959 7.85449C34.7959 7.45605 34.6963 7.13672 34.4971 6.89648C34.2979 6.65625 34.043 6.53613 33.7324 6.53613C33.1113 6.53613 32.499 6.89062 31.8955 7.59961C31.2979 8.30859 30.9141 9.27539 30.7441 10.5ZM30.6738 11.4932C30.6738 11.5635 30.6797 11.6602 30.6914 11.7832C30.7031 11.9004 30.75 12.1143 30.832 12.4248C30.9199 12.7354 31.0342 13.0107 31.1748 13.251C31.3213 13.4912 31.5557 13.708 31.8779 13.9014C32.2002 14.0947 32.5781 14.1914 33.0117 14.1914C33.2871 14.1914 33.5537 14.1592 33.8115 14.0947C34.0693 14.0244 34.2861 13.9424 34.4619 13.8486C34.6377 13.7549 34.793 13.6582 34.9277 13.5586C35.0684 13.4531 35.168 13.3682 35.2266 13.3037L35.332 13.1982L35.5518 13.4707C35.5166 13.5176 35.4639 13.582 35.3936 13.6641C35.3291 13.7402 35.1855 13.875 34.9629 14.0684C34.7402 14.2559 34.5088 14.4258 34.2686 14.5781C34.0283 14.7246 33.7266 14.8623 33.3633 14.9912C33 15.1143 32.6367 15.1758 32.2734 15.1758C31.3477 15.1758 30.6006 14.8389 30.0322 14.165C29.4639 13.4854 29.1797 12.5889 29.1797 11.4756C29.1797 9.89355 29.666 8.55762 30.6387 7.46777C31.6113 6.37207 32.7334 5.82422 34.0049 5.82422C34.6787 5.82422 35.1973 6.00586 35.5605 6.36914C35.9238 6.73242 36.1055 7.20996 36.1055 7.80176C36.1055 8.47559 35.918 9.06152 35.543 9.55957C35.1738 10.0518 34.7227 10.415 34.1895 10.6494C33.6562 10.8838 33.123 11.0742 32.5898 11.2207C32.0566 11.3613 31.6025 11.4463 31.2275 11.4756L30.6738 11.4932ZM37.4414 15L38.6543 7.44141C38.6543 7.41797 38.6572 7.38867 38.6631 7.35352C38.6689 7.3125 38.6719 7.28613 38.6719 7.27441C38.6719 7.02246 38.5869 6.89648 38.417 6.89648C38.2471 6.89648 38.0537 7.0166 37.8369 7.25684C37.626 7.49707 37.4531 7.7373 37.3184 7.97754L37.125 8.33789L36.835 8.16211C36.8584 8.10352 36.8906 8.02148 36.9316 7.91602C36.9727 7.80469 37.0693 7.61426 37.2217 7.34473C37.3799 7.06934 37.5439 6.83203 37.7139 6.63281C37.8838 6.42773 38.0977 6.24316 38.3555 6.0791C38.6133 5.90918 38.8799 5.82422 39.1553 5.82422C39.7529 5.82422 40.0518 6.20215 40.0518 6.95801C40.0518 7.16309 40.04 7.32422 40.0166 7.44141L39.9111 8.16211H39.999C40.0342 8.10352 40.0898 8.02148 40.166 7.91602C40.248 7.80469 40.4062 7.61426 40.6406 7.34473C40.875 7.06934 41.1094 6.83203 41.3438 6.63281C41.5781 6.42773 41.8594 6.24316 42.1875 6.0791C42.5156 5.90918 42.832 5.82422 43.1367 5.82422C43.3301 5.82422 43.5117 5.85352 43.6816 5.91211C43.8574 5.9707 43.9863 6.0293 44.0684 6.08789L44.1914 6.17578L43.4355 8.42578H43.1191L42.6797 6.99316C42.2227 7.0166 41.748 7.21875 41.2559 7.59961C40.7695 7.97461 40.3945 8.34082 40.1309 8.69824L39.7354 9.24316L38.8301 15H37.4414ZM45.791 10.5L45.7559 10.7725C45.8613 10.7725 46.0078 10.7637 46.1953 10.7461C46.3828 10.7285 46.7109 10.667 47.1797 10.5615C47.6484 10.4502 48.0615 10.3008 48.4189 10.1133C48.7764 9.92578 49.1016 9.63574 49.3945 9.24316C49.6934 8.84473 49.8428 8.38184 49.8428 7.85449C49.8428 7.45605 49.7432 7.13672 49.5439 6.89648C49.3447 6.65625 49.0898 6.53613 48.7793 6.53613C48.1582 6.53613 47.5459 6.89062 46.9424 7.59961C46.3447 8.30859 45.9609 9.27539 45.791 10.5ZM45.7207 11.4932C45.7207 11.5635 45.7266 11.6602 45.7383 11.7832C45.75 11.9004 45.7969 12.1143 45.8789 12.4248C45.9668 12.7354 46.0811 13.0107 46.2217 13.251C46.3682 13.4912 46.6025 13.708 46.9248 13.9014C47.2471 14.0947 47.625 14.1914 48.0586 14.1914C48.334 14.1914 48.6006 14.1592 48.8584 14.0947C49.1162 14.0244 49.333 13.9424 49.5088 13.8486C49.6846 13.7549 49.8398 13.6582 49.9746 13.5586C50.1152 13.4531 50.2148 13.3682 50.2734 13.3037L50.3789 13.1982L50.5986 13.4707C50.5635 13.5176 50.5107 13.582 50.4404 13.6641C50.376 13.7402 50.2324 13.875 50.0098 14.0684C49.7871 14.2559 49.5557 14.4258 49.3154 14.5781C49.0752 14.7246 48.7734 14.8623 48.4102 14.9912C48.0469 15.1143 47.6836 15.1758 47.3203 15.1758C46.3945 15.1758 45.6475 14.8389 45.0791 14.165C44.5107 13.4854 44.2266 12.5889 44.2266 11.4756C44.2266 9.89355 44.7129 8.55762 45.6855 7.46777C46.6582 6.37207 47.7803 5.82422 49.0518 5.82422C49.7256 5.82422 50.2441 6.00586 50.6074 6.36914C50.9707 6.73242 51.1523 7.20996 51.1523 7.80176C51.1523 8.47559 50.9648 9.06152 50.5898 9.55957C50.2207 10.0518 49.7695 10.415 49.2363 10.6494C48.7031 10.8838 48.1699 11.0742 47.6367 11.2207C47.1035 11.3613 46.6494 11.4463 46.2744 11.4756L45.7207 11.4932ZM56.9707 6.80859L57.0674 6.27246L58.3945 6L58.8428 3.21387L59.8887 2.85352H60.2842L59.7832 6H62.376L62.209 6.99316H61.3125L59.6953 6.63281L58.7197 12.75C58.6963 12.9668 58.6846 13.1045 58.6846 13.1631C58.6846 13.7256 58.9775 14.0068 59.5635 14.0068C59.8271 14.0068 60.0938 13.9688 60.3633 13.8926C60.6387 13.8164 60.8408 13.7402 60.9697 13.6641L61.1895 13.5586L61.3477 13.9189C61.2656 14.0127 61.1514 14.1299 61.0049 14.2705C60.8643 14.4111 60.5771 14.5986 60.1436 14.833C59.71 15.0615 59.2881 15.1758 58.8779 15.1758C57.8115 15.1758 57.2783 14.5957 57.2783 13.4355C57.2783 13.2305 57.2959 13.002 57.3311 12.75L58.2715 6.80859H56.9707ZM65.1621 9.24316L64.248 15H62.8594L64.7314 3.21387C64.7666 2.93848 64.7842 2.71582 64.7842 2.5459C64.7842 2.2002 64.7109 1.9541 64.5645 1.80762C64.4238 1.66113 64.1865 1.58789 63.8525 1.58789L63.9229 1.13965C64.3447 1.09277 64.7725 1.01074 65.2061 0.893555C65.6455 0.770508 65.9795 0.662109 66.208 0.568359L66.5508 0.418945L65.3203 8.16211H65.3994C65.4463 8.10352 65.5107 8.02148 65.5928 7.91602C65.6807 7.80469 65.8506 7.61426 66.1025 7.34473C66.3545 7.06934 66.6094 6.83203 66.8672 6.63281C67.125 6.42773 67.4355 6.24316 67.7988 6.0791C68.168 5.90918 68.5195 5.82422 68.8535 5.82422C70.0781 5.82422 70.6904 6.52441 70.6904 7.9248C70.6904 8.32324 70.6611 8.70117 70.6025 9.05859L69.8994 13.5586C69.8994 13.582 69.8965 13.6143 69.8906 13.6553C69.8848 13.6904 69.8818 13.7139 69.8818 13.7256C69.8818 13.9775 69.9639 14.1035 70.1279 14.1035C70.2979 14.1035 70.4912 13.9834 70.708 13.7432C70.9248 13.5029 71.0977 13.2627 71.2266 13.0225L71.4287 12.6621L71.71 12.8379C71.6865 12.8965 71.6543 12.9814 71.6133 13.0928C71.5723 13.1982 71.4727 13.3887 71.3145 13.6641C71.1621 13.9336 71.001 14.1709 70.8311 14.376C70.6611 14.5752 70.4473 14.7598 70.1895 14.9297C69.9316 15.0938 69.665 15.1758 69.3896 15.1758C68.792 15.1758 68.4932 14.7979 68.4932 14.042C68.4932 13.8369 68.5049 13.6758 68.5283 13.5586L69.2314 9.05859C69.2783 8.77148 69.3018 8.49609 69.3018 8.23242C69.3018 7.81055 69.2197 7.51465 69.0557 7.34473C68.8975 7.16895 68.6543 7.08105 68.3262 7.08105C67.8926 7.08105 67.4121 7.2627 66.8848 7.62598C66.3633 7.9834 65.9443 8.34082 65.6279 8.69824L65.1621 9.24316ZM74.25 10.5L74.2148 10.7725C74.3203 10.7725 74.4668 10.7637 74.6543 10.7461C74.8418 10.7285 75.1699 10.667 75.6387 10.5615C76.1074 10.4502 76.5205 10.3008 76.8779 10.1133C77.2354 9.92578 77.5605 9.63574 77.8535 9.24316C78.1523 8.84473 78.3018 8.38184 78.3018 7.85449C78.3018 7.45605 78.2021 7.13672 78.0029 6.89648C77.8037 6.65625 77.5488 6.53613 77.2383 6.53613C76.6172 6.53613 76.0049 6.89062 75.4014 7.59961C74.8037 8.30859 74.4199 9.27539 74.25 10.5ZM74.1797 11.4932C74.1797 11.5635 74.1855 11.6602 74.1973 11.7832C74.209 11.9004 74.2559 12.1143 74.3379 12.4248C74.4258 12.7354 74.54 13.0107 74.6807 13.251C74.8271 13.4912 75.0615 13.708 75.3838 13.9014C75.7061 14.0947 76.084 14.1914 76.5176 14.1914C76.793 14.1914 77.0596 14.1592 77.3174 14.0947C77.5752 14.0244 77.792 13.9424 77.9678 13.8486C78.1436 13.7549 78.2988 13.6582 78.4336 13.5586C78.5742 13.4531 78.6738 13.3682 78.7324 13.3037L78.8379 13.1982L79.0576 13.4707C79.0225 13.5176 78.9697 13.582 78.8994 13.6641C78.835 13.7402 78.6914 13.875 78.4688 14.0684C78.2461 14.2559 78.0146 14.4258 77.7744 14.5781C77.5342 14.7246 77.2324 14.8623 76.8691 14.9912C76.5059 15.1143 76.1426 15.1758 75.7793 15.1758C74.8535 15.1758 74.1064 14.8389 73.5381 14.165C72.9697 13.4854 72.6855 12.5889 72.6855 11.4756C72.6855 9.89355 73.1719 8.55762 74.1445 7.46777C75.1172 6.37207 76.2393 5.82422 77.5107 5.82422C78.1846 5.82422 78.7031 6.00586 79.0664 6.36914C79.4297 6.73242 79.6113 7.20996 79.6113 7.80176C79.6113 8.47559 79.4238 9.06152 79.0488 9.55957C78.6797 10.0518 78.2285 10.415 77.6953 10.6494C77.1621 10.8838 76.6289 11.0742 76.0957 11.2207C75.5625 11.3613 75.1084 11.4463 74.7334 11.4756L74.1797 11.4932ZM94.1396 5.00684L89.6924 15.1758H88.8838L86.959 3.30176C86.8652 2.73926 86.71 2.3291 86.4932 2.07129C86.2764 1.80762 85.9512 1.67578 85.5176 1.67578L85.6055 1.13965H90.2197L90.1406 1.58789L88.4004 1.94824L90.0176 12.1172H90.0879L94.8428 1.13965H95.2383L96.9873 12.1172H97.0576L100.529 4.02246C100.928 3.09668 101.127 2.53711 101.127 2.34375C101.127 2.10352 101.013 1.93359 100.784 1.83398C100.556 1.72852 100.134 1.67578 99.5186 1.67578L99.6152 1.13965H103.983L103.913 1.58789L102.489 1.94824L96.6621 15.1758H95.8535L94.2275 5.00684H94.1396ZM105.759 7.44141L104.81 13.5586C104.81 13.582 104.807 13.6143 104.801 13.6553C104.795 13.6904 104.792 13.7139 104.792 13.7256C104.792 13.9775 104.874 14.1035 105.038 14.1035C105.208 14.1035 105.401 13.9834 105.618 13.7432C105.835 13.5029 106.002 13.2627 106.119 13.0225L106.321 12.6621L106.629 12.8379C106.605 12.8965 106.57 12.9814 106.523 13.0928C106.482 13.1982 106.383 13.3887 106.225 13.6641C106.072 13.9336 105.911 14.1709 105.741 14.376C105.577 14.5752 105.366 14.7598 105.108 14.9297C104.851 15.0938 104.581 15.1758 104.3 15.1758C103.702 15.1758 103.403 14.7979 103.403 14.042C103.403 13.8369 103.415 13.6758 103.438 13.5586L104.396 7.44141C104.396 7.41797 104.399 7.38867 104.405 7.35352C104.411 7.3125 104.414 7.28613 104.414 7.27441C104.414 7.02246 104.329 6.89648 104.159 6.89648C103.989 6.89648 103.796 7.0166 103.579 7.25684C103.368 7.49707 103.195 7.7373 103.061 7.97754L102.867 8.33789L102.577 8.16211C102.601 8.10352 102.633 8.02148 102.674 7.91602C102.715 7.80469 102.812 7.61426 102.964 7.34473C103.122 7.06934 103.286 6.83203 103.456 6.63281C103.626 6.42773 103.84 6.24316 104.098 6.0791C104.355 5.90918 104.622 5.82422 104.897 5.82422C105.495 5.82422 105.794 6.20215 105.794 6.95801C105.794 7.16309 105.782 7.32422 105.759 7.44141ZM106.541 1.76367C106.775 1.99805 106.893 2.27051 106.893 2.58105C106.893 2.8916 106.775 3.16406 106.541 3.39844C106.307 3.63281 106.034 3.75 105.724 3.75C105.413 3.75 105.141 3.63281 104.906 3.39844C104.672 3.16406 104.555 2.8916 104.555 2.58105C104.555 2.27051 104.672 1.99805 104.906 1.76367C105.141 1.5293 105.413 1.41211 105.724 1.41211C106.034 1.41211 106.307 1.5293 106.541 1.76367ZM111.305 0.418945L109.23 13.5586C109.23 13.582 109.228 13.6143 109.222 13.6553C109.216 13.6904 109.213 13.7139 109.213 13.7256C109.213 13.9775 109.298 14.1035 109.468 14.1035C109.638 14.1035 109.825 13.9834 110.03 13.7432C110.241 13.5029 110.408 13.2627 110.531 13.0225L110.725 12.6621L111.032 12.8379C111.009 12.8965 110.977 12.9814 110.936 13.0928C110.895 13.1982 110.795 13.3887 110.637 13.6641C110.479 13.9336 110.314 14.1709 110.145 14.376C109.98 14.5752 109.77 14.7598 109.512 14.9297C109.254 15.0938 108.987 15.1758 108.712 15.1758C108.103 15.1758 107.795 14.7861 107.789 14.0068C107.789 13.9248 107.801 13.7754 107.824 13.5586L109.485 3.21387C109.521 2.93848 109.538 2.71582 109.538 2.5459C109.538 2.2002 109.465 1.9541 109.318 1.80762C109.178 1.66113 108.94 1.58789 108.606 1.58789L108.677 1.13965C109.099 1.09277 109.526 1.01074 109.96 0.893555C110.399 0.770508 110.733 0.662109 110.962 0.568359L111.305 0.418945ZM120.92 0.418945L118.828 13.5586C118.828 13.582 118.825 13.6143 118.819 13.6553C118.813 13.6904 118.811 13.7139 118.811 13.7256C118.811 13.9775 118.893 14.1035 119.057 14.1035C119.227 14.1035 119.417 13.9834 119.628 13.7432C119.839 13.5029 120.012 13.2627 120.146 13.0225L120.34 12.6621L120.647 12.8379C120.624 12.8965 120.589 12.9814 120.542 13.0928C120.501 13.1982 120.401 13.3887 120.243 13.6641C120.091 13.9336 119.93 14.1709 119.76 14.376C119.596 14.5752 119.385 14.7598 119.127 14.9297C118.869 15.0938 118.603 15.1758 118.327 15.1758C117.718 15.1758 117.41 14.7861 117.404 14.0068C117.404 13.9248 117.416 13.7754 117.439 13.5586L117.554 12.8379H117.475C117.428 12.8965 117.366 12.9814 117.29 13.0928C117.214 13.1982 117.047 13.3887 116.789 13.6641C116.531 13.9336 116.271 14.1709 116.007 14.376C115.749 14.5752 115.441 14.7598 115.084 14.9297C114.727 15.0938 114.378 15.1758 114.038 15.1758C113.399 15.1758 112.896 14.9238 112.526 14.4199C112.157 13.916 111.973 13.1865 111.973 12.2314C111.973 10.374 112.485 8.8418 113.511 7.63477C114.536 6.42773 115.746 5.82422 117.141 5.82422C117.428 5.82422 117.694 5.85938 117.94 5.92969C118.187 6 118.356 6.07031 118.45 6.14062L118.591 6.27246L119.083 3.21387C119.13 2.85645 119.153 2.62793 119.153 2.52832C119.153 2.19434 119.077 1.9541 118.925 1.80762C118.778 1.66113 118.541 1.58789 118.213 1.58789L118.274 1.13965C118.696 1.09277 119.127 1.01074 119.566 0.893555C120.012 0.770508 120.349 0.662109 120.577 0.568359L120.92 0.418945ZM117.729 11.7568L118.45 7.25684C118.415 7.20996 118.362 7.14551 118.292 7.06348C118.228 6.97559 118.072 6.86719 117.826 6.73828C117.58 6.60352 117.313 6.53613 117.026 6.53613C116.124 6.53613 115.301 7.04297 114.557 8.05664C113.818 9.06445 113.449 10.4004 113.449 12.0645C113.449 12.7383 113.543 13.2158 113.73 13.4971C113.924 13.7783 114.202 13.9189 114.565 13.9189C114.999 13.9189 115.479 13.7402 116.007 13.3828C116.534 13.0195 116.953 12.6592 117.264 12.3018L117.729 11.7568ZM126.387 5.00684L127.002 1.13965H137.039L136.433 5.00684H135.853C135.935 4.51465 135.979 4.07227 135.984 3.67969C135.984 3.0293 135.835 2.57813 135.536 2.32617C135.243 2.07422 134.754 1.94824 134.068 1.94824H132.618L130.922 12.6621C130.863 13.0605 130.834 13.3535 130.834 13.541C130.834 13.9102 130.928 14.1562 131.115 14.2793C131.309 14.4023 131.663 14.4639 132.179 14.4639L132.091 15H127.556L127.626 14.5518L129.217 14.1914L131.159 1.94824H129.7C128.839 1.94824 128.209 2.15918 127.811 2.58105C127.412 3.00293 127.122 3.81152 126.94 5.00684H126.387ZM139.131 9.24316L138.217 15H136.828L138.7 3.21387C138.735 2.93848 138.753 2.71582 138.753 2.5459C138.753 2.2002 138.68 1.9541 138.533 1.80762C138.393 1.66113 138.155 1.58789 137.821 1.58789L137.892 1.13965C138.313 1.09277 138.741 1.01074 139.175 0.893555C139.614 0.770508 139.948 0.662109 140.177 0.568359L140.52 0.418945L139.289 8.16211H139.368C139.415 8.10352 139.479 8.02148 139.562 7.91602C139.649 7.80469 139.819 7.61426 140.071 7.34473C140.323 7.06934 140.578 6.83203 140.836 6.63281C141.094 6.42773 141.404 6.24316 141.768 6.0791C142.137 5.90918 142.488 5.82422 142.822 5.82422C144.047 5.82422 144.659 6.52441 144.659 7.9248C144.659 8.32324 144.63 8.70117 144.571 9.05859L143.868 13.5586C143.868 13.582 143.865 13.6143 143.859 13.6553C143.854 13.6904 143.851 13.7139 143.851 13.7256C143.851 13.9775 143.933 14.1035 144.097 14.1035C144.267 14.1035 144.46 13.9834 144.677 13.7432C144.894 13.5029 145.066 13.2627 145.195 13.0225L145.397 12.6621L145.679 12.8379C145.655 12.8965 145.623 12.9814 145.582 13.0928C145.541 13.1982 145.441 13.3887 145.283 13.6641C145.131 13.9336 144.97 14.1709 144.8 14.376C144.63 14.5752 144.416 14.7598 144.158 14.9297C143.9 15.0938 143.634 15.1758 143.358 15.1758C142.761 15.1758 142.462 14.7979 142.462 14.042C142.462 13.8369 142.474 13.6758 142.497 13.5586L143.2 9.05859C143.247 8.77148 143.271 8.49609 143.271 8.23242C143.271 7.81055 143.188 7.51465 143.024 7.34473C142.866 7.16895 142.623 7.08105 142.295 7.08105C141.861 7.08105 141.381 7.2627 140.854 7.62598C140.332 7.9834 139.913 8.34082 139.597 8.69824L139.131 9.24316ZM149.458 7.44141L148.509 13.5586C148.509 13.582 148.506 13.6143 148.5 13.6553C148.494 13.6904 148.491 13.7139 148.491 13.7256C148.491 13.9775 148.573 14.1035 148.737 14.1035C148.907 14.1035 149.101 13.9834 149.317 13.7432C149.534 13.5029 149.701 13.2627 149.818 13.0225L150.021 12.6621L150.328 12.8379C150.305 12.8965 150.27 12.9814 150.223 13.0928C150.182 13.1982 150.082 13.3887 149.924 13.6641C149.771 13.9336 149.61 14.1709 149.44 14.376C149.276 14.5752 149.065 14.7598 148.808 14.9297C148.55 15.0938 148.28 15.1758 147.999 15.1758C147.401 15.1758 147.103 14.7979 147.103 14.042C147.103 13.8369 147.114 13.6758 147.138 13.5586L148.096 7.44141C148.096 7.41797 148.099 7.38867 148.104 7.35352C148.11 7.3125 148.113 7.28613 148.113 7.27441C148.113 7.02246 148.028 6.89648 147.858 6.89648C147.688 6.89648 147.495 7.0166 147.278 7.25684C147.067 7.49707 146.895 7.7373 146.76 7.97754L146.566 8.33789L146.276 8.16211C146.3 8.10352 146.332 8.02148 146.373 7.91602C146.414 7.80469 146.511 7.61426 146.663 7.34473C146.821 7.06934 146.985 6.83203 147.155 6.63281C147.325 6.42773 147.539 6.24316 147.797 6.0791C148.055 5.90918 148.321 5.82422 148.597 5.82422C149.194 5.82422 149.493 6.20215 149.493 6.95801C149.493 7.16309 149.481 7.32422 149.458 7.44141ZM150.24 1.76367C150.475 1.99805 150.592 2.27051 150.592 2.58105C150.592 2.8916 150.475 3.16406 150.24 3.39844C150.006 3.63281 149.733 3.75 149.423 3.75C149.112 3.75 148.84 3.63281 148.605 3.39844C148.371 3.16406 148.254 2.8916 148.254 2.58105C148.254 2.27051 148.371 1.99805 148.605 1.76367C148.84 1.5293 149.112 1.41211 149.423 1.41211C149.733 1.41211 150.006 1.5293 150.24 1.76367ZM157.166 13.5586L157.878 9.05859C157.937 8.67188 157.969 8.38477 157.975 8.19727C157.975 7.78711 157.893 7.5 157.729 7.33594C157.564 7.16602 157.321 7.08105 156.999 7.08105C156.565 7.08105 156.082 7.2627 155.549 7.62598C155.016 7.9834 154.588 8.34082 154.266 8.69824L153.8 9.24316L152.895 15H151.506L152.719 7.44141C152.719 7.41797 152.722 7.38867 152.728 7.35352C152.733 7.3125 152.736 7.28613 152.736 7.27441C152.736 7.02246 152.651 6.89648 152.481 6.89648C152.312 6.89648 152.118 7.0166 151.901 7.25684C151.69 7.49707 151.518 7.7373 151.383 7.97754L151.189 8.33789L150.899 8.16211C150.923 8.10352 150.955 8.02148 150.996 7.91602C151.037 7.80469 151.134 7.61426 151.286 7.34473C151.444 7.06934 151.608 6.83203 151.778 6.63281C151.948 6.42773 152.162 6.24316 152.42 6.0791C152.678 5.90918 152.944 5.82422 153.22 5.82422C153.817 5.82422 154.116 6.20801 154.116 6.97559C154.116 7.06934 154.104 7.22461 154.081 7.44141L153.976 8.16211H154.063C154.11 8.10352 154.175 8.02148 154.257 7.91602C154.345 7.80469 154.515 7.61426 154.767 7.34473C155.019 7.06934 155.273 6.83203 155.531 6.63281C155.789 6.42773 156.1 6.24316 156.463 6.0791C156.832 5.90918 157.184 5.82422 157.518 5.82422C158.754 5.82422 159.372 6.51855 159.372 7.90723C159.372 8.24121 159.337 8.625 159.267 9.05859L158.546 13.5586C158.546 13.582 158.543 13.6084 158.537 13.6377C158.531 13.667 158.528 13.6904 158.528 13.708C158.528 13.9717 158.619 14.1035 158.801 14.1035C158.971 14.1035 159.158 13.9834 159.363 13.7432C159.574 13.5029 159.747 13.2627 159.882 13.0225L160.058 12.6621L160.365 12.8379C160.342 12.8965 160.31 12.9814 160.269 13.0928C160.228 13.1982 160.128 13.3887 159.97 13.6641C159.812 13.9336 159.647 14.1709 159.478 14.376C159.313 14.5752 159.103 14.7598 158.845 14.9297C158.587 15.0938 158.32 15.1758 158.045 15.1758C157.436 15.1758 157.128 14.7861 157.122 14.0068C157.128 13.9248 157.143 13.7754 157.166 13.5586ZM167.933 8.37305C167.933 9.28711 167.596 10.0811 166.922 10.7549C166.254 11.4229 165.451 11.7568 164.514 11.7568L163.723 11.6689C163.641 11.7275 163.535 11.8154 163.406 11.9326C163.283 12.0439 163.116 12.2373 162.905 12.5127C162.694 12.7881 162.589 13.0225 162.589 13.2158C162.589 13.374 162.659 13.4854 162.8 13.5498C162.946 13.6143 163.225 13.6465 163.635 13.6465H165.577C166.274 13.6465 166.802 13.8135 167.159 14.1475C167.522 14.4756 167.704 14.915 167.704 15.4658C167.704 16.4502 167.215 17.3379 166.236 18.1289C165.258 18.9258 163.966 19.3242 162.36 19.3242C161.499 19.3242 160.866 19.1777 160.462 18.8848C160.058 18.5977 159.855 18.2256 159.855 17.7686C159.855 17.4697 159.94 17.165 160.11 16.8545C160.274 16.5439 160.479 16.2744 160.726 16.0459C160.972 15.8174 161.215 15.6064 161.455 15.4131C161.695 15.2197 161.9 15.0703 162.07 14.9648L162.316 14.8242L162.334 14.7275C161.842 14.7275 161.496 14.6689 161.297 14.5518C161.104 14.4287 161.007 14.2236 161.007 13.9365C161.007 13.6963 161.083 13.4473 161.235 13.1895C161.394 12.9316 161.584 12.709 161.807 12.5215C162.029 12.3281 162.252 12.1494 162.475 11.9854C162.697 11.8213 162.885 11.6982 163.037 11.6162L163.274 11.4932C163.239 11.4814 163.192 11.4609 163.134 11.4316C163.081 11.3965 162.981 11.3174 162.835 11.1943C162.694 11.0654 162.568 10.9248 162.457 10.7725C162.352 10.6143 162.255 10.4004 162.167 10.1309C162.079 9.86133 162.035 9.56543 162.035 9.24316C162.035 8.31738 162.369 7.51758 163.037 6.84375C163.711 6.16406 164.517 5.82422 165.454 5.82422C165.765 5.82422 166.055 5.85938 166.324 5.92969C166.594 6 166.784 6.07031 166.896 6.14062L167.071 6.27246L170.077 5.72754L169.787 7.5293H169.462L167.52 6.53613L167.432 6.63281C167.766 7.06055 167.933 7.64062 167.933 8.37305ZM165.006 14.8242H162.738C162.645 14.918 162.527 15.0381 162.387 15.1846C162.246 15.3369 162.062 15.6094 161.833 16.002C161.604 16.4004 161.49 16.7578 161.49 17.0742C161.49 17.5078 161.637 17.8535 161.93 18.1113C162.229 18.375 162.653 18.5068 163.204 18.5068C164.065 18.5068 164.777 18.249 165.34 17.7334C165.908 17.2178 166.192 16.6055 166.192 15.8965C166.192 15.1816 165.797 14.8242 165.006 14.8242ZM163.468 9.40137C163.468 9.97559 163.573 10.4092 163.784 10.7021C163.995 10.9893 164.276 11.1328 164.628 11.1328C165.155 11.1328 165.601 10.8721 165.964 10.3506C166.333 9.8291 166.518 9.10547 166.518 8.17969C166.518 7.60547 166.412 7.1748 166.201 6.8877C165.99 6.59473 165.712 6.44824 165.366 6.44824C164.839 6.44824 164.391 6.70898 164.021 7.23047C163.652 7.75195 163.468 8.47559 163.468 9.40137ZM174.296 12.7852C174.296 12.4395 174.103 12.1113 173.716 11.8008C173.335 11.4844 172.916 11.2119 172.459 10.9834C172.002 10.7549 171.58 10.4326 171.193 10.0166C170.812 9.59473 170.622 9.11426 170.622 8.5752C170.622 7.80762 170.912 7.15723 171.492 6.62402C172.078 6.09082 172.875 5.82422 173.883 5.82422C174.27 5.82422 174.642 5.88281 174.999 6C175.356 6.11719 175.62 6.2373 175.79 6.36035L176.045 6.53613L175.377 8.16211H175.052L174.709 6.80859C174.457 6.62695 174.091 6.53613 173.61 6.53613C173.048 6.53613 172.614 6.67383 172.31 6.94922C172.005 7.21875 171.853 7.5498 171.853 7.94238C171.853 8.24121 171.979 8.51953 172.23 8.77734C172.482 9.03516 172.787 9.2666 173.145 9.47168C173.502 9.67676 173.859 9.89355 174.217 10.1221C174.58 10.3506 174.888 10.6406 175.14 10.9922C175.392 11.3379 175.518 11.7246 175.518 12.1523C175.518 13.043 175.207 13.7695 174.586 14.332C173.971 14.8945 173.106 15.1758 171.993 15.1758C171.583 15.1758 171.173 15.1113 170.763 14.9824C170.358 14.8477 170.048 14.71 169.831 14.5693L169.523 14.3672L170.191 12.75H170.517L170.859 14.1035C171.205 14.3438 171.674 14.4639 172.266 14.4639C172.939 14.4639 173.446 14.3057 173.786 13.9893C174.126 13.667 174.296 13.2656 174.296 12.7852ZM190.09 14.1914L189.334 10.3242H184.711L183.647 12.4775C183.349 12.9932 183.199 13.4385 183.199 13.8135C183.199 14.2471 183.516 14.4639 184.148 14.4639L184.061 15H180.281L180.352 14.5518L181.775 14.1914L188.42 0.963867H189.141L191.391 12.8379C191.496 13.4355 191.657 13.8574 191.874 14.1035C192.091 14.3438 192.439 14.4639 192.92 14.4639L192.823 15H188.596L188.666 14.5518L190.09 14.1914ZM188.147 3.47754L185.159 9.50684H189.211L188.147 3.47754ZM194.309 15L195.521 7.44141C195.521 7.41797 195.524 7.38867 195.53 7.35352C195.536 7.3125 195.539 7.28613 195.539 7.27441C195.539 7.02246 195.454 6.89648 195.284 6.89648C195.114 6.89648 194.921 7.0166 194.704 7.25684C194.493 7.49707 194.32 7.7373 194.186 7.97754L193.992 8.33789L193.702 8.16211C193.726 8.10352 193.758 8.02148 193.799 7.91602C193.84 7.80469 193.937 7.61426 194.089 7.34473C194.247 7.06934 194.411 6.83203 194.581 6.63281C194.751 6.42773 194.965 6.24316 195.223 6.0791C195.48 5.90918 195.747 5.82422 196.022 5.82422C196.62 5.82422 196.919 6.20215 196.919 6.95801C196.919 7.16309 196.907 7.32422 196.884 7.44141L196.778 8.16211H196.866C196.901 8.10352 196.957 8.02148 197.033 7.91602C197.115 7.80469 197.273 7.61426 197.508 7.34473C197.742 7.06934 197.977 6.83203 198.211 6.63281C198.445 6.42773 198.727 6.24316 199.055 6.0791C199.383 5.90918 199.699 5.82422 200.004 5.82422C200.197 5.82422 200.379 5.85352 200.549 5.91211C200.725 5.9707 200.854 6.0293 200.936 6.08789L201.059 6.17578L200.303 8.42578H199.986L199.547 6.99316C199.09 7.0166 198.615 7.21875 198.123 7.59961C197.637 7.97461 197.262 8.34082 196.998 8.69824L196.603 9.24316L195.697 15H194.309ZM202.658 10.5L202.623 10.7725C202.729 10.7725 202.875 10.7637 203.062 10.7461C203.25 10.7285 203.578 10.667 204.047 10.5615C204.516 10.4502 204.929 10.3008 205.286 10.1133C205.644 9.92578 205.969 9.63574 206.262 9.24316C206.561 8.84473 206.71 8.38184 206.71 7.85449C206.71 7.45605 206.61 7.13672 206.411 6.89648C206.212 6.65625 205.957 6.53613 205.646 6.53613C205.025 6.53613 204.413 6.89062 203.81 7.59961C203.212 8.30859 202.828 9.27539 202.658 10.5ZM202.588 11.4932C202.588 11.5635 202.594 11.6602 202.605 11.7832C202.617 11.9004 202.664 12.1143 202.746 12.4248C202.834 12.7354 202.948 13.0107 203.089 13.251C203.235 13.4912 203.47 13.708 203.792 13.9014C204.114 14.0947 204.492 14.1914 204.926 14.1914C205.201 14.1914 205.468 14.1592 205.726 14.0947C205.983 14.0244 206.2 13.9424 206.376 13.8486C206.552 13.7549 206.707 13.6582 206.842 13.5586C206.982 13.4531 207.082 13.3682 207.141 13.3037L207.246 13.1982L207.466 13.4707C207.431 13.5176 207.378 13.582 207.308 13.6641C207.243 13.7402 207.1 13.875 206.877 14.0684C206.654 14.2559 206.423 14.4258 206.183 14.5781C205.942 14.7246 205.641 14.8623 205.277 14.9912C204.914 15.1143 204.551 15.1758 204.188 15.1758C203.262 15.1758 202.515 14.8389 201.946 14.165C201.378 13.4854 201.094 12.5889 201.094 11.4756C201.094 9.89355 201.58 8.55762 202.553 7.46777C203.525 6.37207 204.647 5.82422 205.919 5.82422C206.593 5.82422 207.111 6.00586 207.475 6.36914C207.838 6.73242 208.02 7.20996 208.02 7.80176C208.02 8.47559 207.832 9.06152 207.457 9.55957C207.088 10.0518 206.637 10.415 206.104 10.6494C205.57 10.8838 205.037 11.0742 204.504 11.2207C203.971 11.3613 203.517 11.4463 203.142 11.4756L202.588 11.4932ZM208.986 14.833C208.77 14.5986 208.661 14.3262 208.661 14.0156C208.661 13.6992 208.775 13.4238 209.004 13.1895C209.238 12.9551 209.514 12.8379 209.83 12.8379C210.152 12.8379 210.428 12.9639 210.656 13.2158C210.885 13.4678 210.999 13.793 210.999 14.1914C210.999 14.584 210.92 14.9766 210.762 15.3691C210.609 15.7617 210.419 16.0928 210.19 16.3623C209.962 16.6318 209.733 16.8691 209.505 17.0742C209.276 17.2852 209.083 17.4463 208.925 17.5576L208.696 17.6982L208.336 17.3379C208.441 17.2559 208.57 17.1387 208.723 16.9863C208.881 16.8398 209.089 16.5762 209.347 16.1953C209.604 15.8203 209.733 15.4805 209.733 15.1758C209.458 15.1758 209.209 15.0615 208.986 14.833ZM222.548 0.867188L220.676 12.6621C220.629 12.9375 220.605 13.1895 220.605 13.418C220.605 13.8164 220.714 14.0918 220.931 14.2441C221.147 14.3906 221.531 14.4639 222.082 14.4639L221.994 15H217.134L217.204 14.5518L218.971 14.1914L220.658 3.47754H218.716L218.821 2.85352C219.231 2.81836 219.624 2.72461 219.999 2.57227C220.38 2.41992 220.693 2.25293 220.939 2.07129C221.186 1.88379 221.402 1.69922 221.59 1.51758C221.777 1.33594 221.912 1.18652 221.994 1.06934L222.117 0.867188H222.548ZM229.86 0.867188C230.88 0.867188 231.686 1.21289 232.277 1.9043C232.875 2.5957 233.174 3.54785 233.174 4.76074C233.174 7.87793 232.491 10.4092 231.126 12.3545C229.767 14.2998 228.152 15.2725 226.283 15.2725C225.826 15.2725 225.407 15.2256 225.026 15.1318C224.651 15.0439 224.391 14.9531 224.244 14.8594L224.016 14.7275L224.262 14.1914C224.719 14.4316 225.272 14.5518 225.923 14.5518C227.241 14.5518 228.349 14.0625 229.245 13.084C230.147 12.1055 230.774 10.6436 231.126 8.69824H231.047C230.965 8.78027 230.842 8.88867 230.678 9.02344C230.52 9.1582 230.174 9.33398 229.641 9.55078C229.113 9.76172 228.574 9.86719 228.023 9.86719C227.109 9.86719 226.4 9.57129 225.896 8.97949C225.398 8.3877 225.149 7.53809 225.149 6.43066C225.149 4.83691 225.615 3.5127 226.547 2.45801C227.484 1.39746 228.589 0.867188 229.86 0.867188ZM229.649 1.67578C228.917 1.67578 228.261 2.07715 227.681 2.87988C227.106 3.67676 226.819 4.75195 226.819 6.10547C226.819 6.9668 226.989 7.61426 227.329 8.04785C227.675 8.48145 228.158 8.69824 228.779 8.69824C229.213 8.69824 229.632 8.625 230.036 8.47852C230.446 8.32617 230.748 8.1709 230.941 8.0127L231.249 7.80176C231.419 6.94043 231.504 6.23145 231.504 5.6748C231.504 4.32129 231.325 3.31641 230.968 2.66016C230.616 2.00391 230.177 1.67578 229.649 1.67578ZM238.078 15.2725C237.059 15.2725 236.25 14.877 235.652 14.0859C235.061 13.2891 234.765 12.123 234.765 10.5879C234.765 9.09961 234.952 7.73438 235.327 6.49219C235.708 5.25 236.218 4.22461 236.856 3.41602C237.501 2.60742 238.236 1.98047 239.062 1.53516C239.895 1.08984 240.762 0.867188 241.664 0.867188C242.121 0.867188 242.534 0.914062 242.903 1.00781C243.272 1.0957 243.53 1.18652 243.677 1.28027L243.914 1.41211L243.659 1.94824C243.214 1.70801 242.669 1.58789 242.024 1.58789C240.706 1.58789 239.593 2.07715 238.685 3.05566C237.776 4.03418 237.149 5.49609 236.804 7.44141H236.892C236.985 7.35938 237.114 7.25098 237.278 7.11621C237.442 6.98145 237.782 6.80859 238.298 6.59766C238.813 6.38086 239.323 6.27246 239.827 6.27246C240.765 6.27246 241.494 6.56836 242.016 7.16016C242.537 7.75195 242.798 8.60156 242.798 9.70898C242.798 11.3027 242.326 12.6299 241.383 13.6904C240.439 14.7451 239.338 15.2725 238.078 15.2725ZM238.368 14.4639C239.065 14.4639 239.698 14.0654 240.267 13.2686C240.835 12.4658 241.119 11.3877 241.119 10.0342C241.119 9.17285 240.949 8.52539 240.609 8.0918C240.27 7.6582 239.786 7.44141 239.159 7.44141C238.726 7.44141 238.295 7.51758 237.867 7.66992C237.445 7.81641 237.132 7.96875 236.927 8.12695L236.619 8.33789C236.502 9.1875 236.443 9.85547 236.443 10.3418C236.443 11.7246 236.628 12.7588 236.997 13.4443C237.372 14.124 237.829 14.4639 238.368 14.4639ZM246.92 15.2725C246.393 15.2725 245.877 15.1904 245.373 15.0264C244.875 14.8623 244.506 14.6982 244.266 14.5342L243.932 14.2793L244.397 11.3086H245.206L245.584 14.1035C245.971 14.3438 246.486 14.4639 247.131 14.4639C248.092 14.4639 248.909 14.0625 249.583 13.2598C250.263 12.4512 250.603 11.4053 250.603 10.1221C250.603 8.5752 249.879 7.80176 248.432 7.80176C248.215 7.80176 247.995 7.8252 247.772 7.87207C247.55 7.91895 247.377 7.96582 247.254 8.0127L247.096 8.07422L246.753 7.47656L251.49 2.39648H248.484C247.834 2.39648 247.333 2.55762 246.981 2.87988C246.636 3.19629 246.41 3.69727 246.305 4.38281H245.821L246.34 1.13965H253.143L253.02 1.86035L248.625 6.53613L248.607 6.63281C248.836 6.57422 249.111 6.54199 249.434 6.53613C250.312 6.53613 251.007 6.8291 251.517 7.41504C252.026 7.99512 252.281 8.78906 252.281 9.79688C252.281 11.3555 251.771 12.6592 250.752 13.708C249.732 14.751 248.455 15.2725 246.92 15.2725ZM15.8379 24.9482L16.4707 35.75C16.5059 36.4238 16.6377 36.8779 16.8662 37.1123C17.0947 37.3467 17.502 37.4639 18.0879 37.4639V38H13.3242V37.5518L14.8535 37.1914L14.3086 26.4775H14.2207L9.89648 38H9L4.05176 26.4775H3.96387L3.60352 35.4775C3.56836 36.3154 3.63281 36.8574 3.79688 37.1035C3.9668 37.3438 4.35059 37.4639 4.94824 37.4639V38H0.896484V37.5518L2.42578 37.1914L2.88281 26.4775C2.91797 25.7217 2.83887 25.2324 2.64551 25.0098C2.45215 24.7871 2.02148 24.6758 1.35352 24.6758V24.1396H4.77246L9.65039 35.6621H9.7207L13.9482 24.1396H17.3672V24.5879L15.8379 24.9482ZM25.1016 36.5586C25.0781 36.6055 25.04 36.667 24.9873 36.7432C24.9346 36.8135 24.8174 36.9424 24.6357 37.1299C24.4541 37.3115 24.2607 37.4756 24.0557 37.6221C23.8564 37.7686 23.5869 37.8975 23.2471 38.0088C22.9131 38.1201 22.5732 38.1758 22.2275 38.1758C21.4834 38.1758 20.9062 37.9971 20.4961 37.6396C20.0859 37.2822 19.8809 36.8018 19.8809 36.1982C19.8809 35.6943 20.0625 35.2344 20.4258 34.8184C20.7949 34.3965 21.2402 34.0654 21.7617 33.8252C22.2891 33.585 22.8105 33.3828 23.3262 33.2188C23.8418 33.0488 24.2783 32.9316 24.6357 32.8672L25.1982 32.7793V31.8828C25.1982 30.3242 24.5684 29.542 23.3086 29.5361C23.0918 29.5361 22.8633 29.5742 22.623 29.6504C22.3828 29.7207 22.1953 29.791 22.0605 29.8613L21.8672 29.9932L21.2344 31.8828H20.4258V29.8086C20.5605 29.7383 20.7422 29.6504 20.9707 29.5449C21.2051 29.4336 21.6299 29.2871 22.2451 29.1055C22.8662 28.918 23.4287 28.8242 23.9326 28.8242C24.7939 28.8242 25.4736 29.0908 25.9717 29.624C26.4756 30.1572 26.7275 30.9102 26.7275 31.8828V35.5742C26.7275 36.1484 26.8213 36.5469 27.0088 36.7695C27.2021 36.9922 27.5273 37.1035 27.9844 37.1035V37.5518C27.5859 37.5986 27.167 37.6777 26.7275 37.7891C26.2939 37.8945 25.957 37.9883 25.7168 38.0703L25.374 38.1758L25.1982 36.5586H25.1016ZM22.8516 36.9189C23.2207 36.9189 23.6016 36.8311 23.9941 36.6553C24.3867 36.4736 24.6855 36.292 24.8906 36.1104L25.1982 35.8379V33.5C25.1045 33.5117 24.9727 33.5322 24.8027 33.5615C24.6328 33.5908 24.334 33.6641 23.9062 33.7812C23.4785 33.8926 23.1035 34.0244 22.7812 34.1768C22.459 34.3232 22.166 34.54 21.9023 34.8271C21.6387 35.1084 21.5068 35.416 21.5068 35.75C21.501 36.5293 21.9492 36.9189 22.8516 36.9189ZM31.3154 28.6396V34.4932C31.3154 35.3721 31.4707 35.9961 31.7812 36.3652C32.0918 36.7344 32.5957 36.9189 33.293 36.9189C33.6914 36.9189 34.0986 36.8252 34.5146 36.6377C34.9365 36.4443 35.2617 36.251 35.4902 36.0576L35.8154 35.75V31.4258C35.8154 30.8164 35.7188 30.3945 35.5254 30.1602C35.332 29.9258 35.0068 29.8086 34.5498 29.8086V29.3604C35.0068 29.3135 35.4668 29.2314 35.9297 29.1143C36.3926 28.9912 36.7441 28.8799 36.9844 28.7803L37.3447 28.6396V35.5742C37.3447 36.1484 37.4385 36.5469 37.626 36.7695C37.8193 36.9922 38.1445 37.1035 38.6016 37.1035V37.5518C38.2031 37.5986 37.7842 37.6777 37.3447 37.7891C36.9111 37.8945 36.5801 37.9883 36.3516 38.0703L35.9912 38.1758L35.8154 36.5586H35.7188C35.6836 36.6055 35.6338 36.667 35.5693 36.7432C35.5049 36.8135 35.3672 36.9424 35.1562 37.1299C34.9453 37.3115 34.7256 37.4756 34.4971 37.6221C34.2686 37.7686 33.9756 37.8975 33.6182 38.0088C33.2666 38.1201 32.918 38.1758 32.5723 38.1758C31.6816 38.1758 30.9932 37.8857 30.5068 37.3057C30.0264 36.7256 29.7861 35.8467 29.7861 34.6689V31.4258C29.7861 30.8164 29.6895 30.3945 29.4961 30.1602C29.3027 29.9258 28.9775 29.8086 28.5205 29.8086V29.3604C28.9775 29.3135 29.4375 29.2314 29.9004 29.1143C30.3633 28.9912 30.7148 28.8799 30.9551 28.7803L31.3154 28.6396ZM39.5947 37.5518L40.8604 37.2793V31.4258C40.8604 30.8516 40.7637 30.4531 40.5703 30.2305C40.377 30.0078 40.0518 29.8965 39.5947 29.8965V29.4482C39.9932 29.4014 40.4121 29.3252 40.8516 29.2197C41.291 29.1084 41.6279 29.0117 41.8623 28.9297L42.2051 28.8242L42.3896 30.4414H42.4775C42.5127 30.3945 42.5566 30.3359 42.6094 30.2656C42.668 30.1895 42.7939 30.0605 42.9873 29.8789C43.1865 29.6914 43.3887 29.5244 43.5938 29.3779C43.7988 29.2314 44.0537 29.1025 44.3584 28.9912C44.6631 28.8799 44.9678 28.8242 45.2725 28.8242C45.5361 28.8242 45.7793 28.8535 46.002 28.9121C46.2305 28.9707 46.3887 29.0293 46.4766 29.0879L46.6172 29.1758V31.7861H45.8086L45.2725 29.9932C44.7451 29.9932 44.2412 30.1045 43.7607 30.3271C43.2803 30.5439 42.9316 30.7666 42.7148 30.9951L42.3896 31.3379V36.1982C42.3896 36.749 42.498 37.1123 42.7148 37.2881C42.9316 37.4639 43.3916 37.5518 44.0947 37.5518V38H39.5947V37.5518ZM47.5225 37.5518L48.7881 37.2793V31.4258C48.7881 30.8164 48.6914 30.3945 48.498 30.1602C48.3047 29.9258 47.9795 29.8086 47.5225 29.8086V29.3604C47.9795 29.3135 48.4395 29.2314 48.9023 29.1143C49.3652 28.9912 49.7168 28.8799 49.957 28.7803L50.3174 28.6396V36.1982C50.3174 36.7373 50.4023 37.0977 50.5723 37.2793C50.748 37.4609 51.082 37.5518 51.5742 37.5518V38H47.5225V37.5518ZM50.2383 24.7637C50.4727 24.998 50.5898 25.2705 50.5898 25.5811C50.5898 25.8916 50.4727 26.1641 50.2383 26.3984C50.0039 26.6328 49.7285 26.75 49.4121 26.75C49.1016 26.75 48.8291 26.6328 48.5947 26.3984C48.3604 26.1641 48.2432 25.8916 48.2432 25.5811C48.2432 25.2705 48.3604 24.998 48.5947 24.7637C48.8291 24.5293 49.1016 24.4121 49.4121 24.4121C49.7285 24.4121 50.0039 24.5293 50.2383 24.7637ZM52.752 33.6758C52.752 32.2461 53.1914 31.0801 54.0703 30.1777C54.9551 29.2754 56.0771 28.8242 57.4365 28.8242C57.9404 28.8242 58.4004 28.8916 58.8164 29.0264C59.2383 29.1553 59.5342 29.29 59.7041 29.4307L59.9502 29.6328V32.0586H59.3262L58.5176 29.8086C58.2773 29.627 57.8555 29.5361 57.252 29.5361C56.4375 29.5361 55.752 29.8848 55.1953 30.582C54.6445 31.2793 54.3691 32.252 54.3691 33.5C54.3691 34.5547 54.6592 35.4043 55.2393 36.0488C55.8252 36.6875 56.5576 37.0068 57.4365 37.0068C57.9404 37.0068 58.4092 36.9395 58.8428 36.8047C59.2822 36.6641 59.5928 36.5293 59.7744 36.4004L60.0469 36.1982L60.3105 36.4707C60.2754 36.5176 60.2285 36.582 60.1699 36.6641C60.1113 36.7402 59.9736 36.875 59.7568 37.0684C59.54 37.2559 59.3086 37.4258 59.0625 37.5781C58.8164 37.7246 58.4971 37.8623 58.1045 37.9912C57.7178 38.1143 57.3135 38.1758 56.8916 38.1758C55.7021 38.1758 54.7148 37.7598 53.9297 36.9277C53.1445 36.0898 52.752 35.0059 52.752 33.6758ZM61.6641 33.6758C61.6641 32.2578 62.0889 31.0947 62.9385 30.1865C63.7939 29.2783 64.8398 28.8242 66.0762 28.8242C67.002 28.8242 67.7314 29.1377 68.2646 29.7646C68.7979 30.3857 69.0879 31.332 69.1348 32.6035L68.3262 33.1396H63.2812V33.5C63.2812 34.5547 63.5713 35.4043 64.1514 36.0488C64.7373 36.6875 65.4697 37.0068 66.3486 37.0068C66.8525 37.0068 67.3271 36.9395 67.7725 36.8047C68.2236 36.6641 68.5459 36.5293 68.7393 36.4004L69.0469 36.1982L69.3193 36.4707C69.2842 36.5176 69.2314 36.582 69.1611 36.6641C69.0967 36.7402 68.9531 36.875 68.7305 37.0684C68.5078 37.2559 68.2705 37.4258 68.0186 37.5781C67.7666 37.7246 67.4385 37.8623 67.0342 37.9912C66.6357 38.1143 66.2256 38.1758 65.8037 38.1758C64.6143 38.1758 63.627 37.7598 62.8418 36.9277C62.0566 36.0898 61.6641 35.0059 61.6641 33.6758ZM65.8037 29.5361C65.2412 29.5361 64.7285 29.7998 64.2656 30.3271C63.8027 30.8486 63.5068 31.5459 63.3779 32.4189L67.5176 32.2432C67.5176 30.4385 66.9463 29.5361 65.8037 29.5361ZM83.3467 35.1348C83.3467 34.6074 83.168 34.1211 82.8105 33.6758C82.459 33.2246 82.0166 32.8496 81.4834 32.5508C80.9502 32.2461 80.3701 31.918 79.7432 31.5664C79.1221 31.209 78.542 30.8633 78.0029 30.5293C77.4697 30.1953 77.0273 29.7646 76.6758 29.2373C76.3242 28.71 76.1484 28.1211 76.1484 27.4707C76.1484 26.4512 76.541 25.5957 77.3262 24.9043C78.1113 24.2129 79.1572 23.8672 80.4639 23.8672C81.0381 23.8672 81.6328 23.9375 82.248 24.0781C82.8691 24.2129 83.3438 24.3477 83.6719 24.4824L84.1553 24.6758V27.9189H83.707C83.5723 26.876 83.2148 26.0762 82.6348 25.5195C82.0547 24.957 81.2725 24.6758 80.2881 24.6758C79.4971 24.6758 78.8643 24.8867 78.3896 25.3086C77.915 25.7305 77.6777 26.2402 77.6777 26.8379C77.6777 27.2949 77.8096 27.7197 78.0732 28.1123C78.3369 28.499 78.6797 28.833 79.1016 29.1143C79.5293 29.3955 79.998 29.6738 80.5078 29.9492C81.0176 30.2188 81.5273 30.4971 82.0371 30.7842C82.5469 31.0713 83.0156 31.3818 83.4434 31.7158C83.8711 32.0439 84.2168 32.4453 84.4805 32.9199C84.7441 33.3887 84.876 33.9131 84.876 34.4932C84.876 35.6064 84.46 36.5146 83.6279 37.2178C82.8018 37.9209 81.627 38.2725 80.1035 38.2725C79.3008 38.2725 78.5479 38.1582 77.8447 37.9297C77.1416 37.7012 76.6406 37.4727 76.3418 37.2441L75.876 36.9189V33.1396H76.3242C76.5879 34.6514 77.0391 35.75 77.6777 36.4355C78.3223 37.1211 79.1924 37.4639 80.2881 37.4639C81.2373 37.4639 81.9844 37.2383 82.5293 36.7871C83.0742 36.3359 83.3467 35.7852 83.3467 35.1348ZM86.6777 33.6758C86.6777 32.2578 87.1025 31.0947 87.9521 30.1865C88.8076 29.2783 89.8535 28.8242 91.0898 28.8242C92.0156 28.8242 92.7451 29.1377 93.2783 29.7646C93.8115 30.3857 94.1016 31.332 94.1484 32.6035L93.3398 33.1396H88.2949V33.5C88.2949 34.5547 88.585 35.4043 89.165 36.0488C89.751 36.6875 90.4834 37.0068 91.3623 37.0068C91.8662 37.0068 92.3408 36.9395 92.7861 36.8047C93.2373 36.6641 93.5596 36.5293 93.7529 36.4004L94.0605 36.1982L94.333 36.4707C94.2979 36.5176 94.2451 36.582 94.1748 36.6641C94.1104 36.7402 93.9668 36.875 93.7441 37.0684C93.5215 37.2559 93.2842 37.4258 93.0322 37.5781C92.7803 37.7246 92.4521 37.8623 92.0479 37.9912C91.6494 38.1143 91.2393 38.1758 90.8174 38.1758C89.6279 38.1758 88.6406 37.7598 87.8555 36.9277C87.0703 36.0898 86.6777 35.0059 86.6777 33.6758ZM90.8174 29.5361C90.2549 29.5361 89.7422 29.7998 89.2793 30.3271C88.8164 30.8486 88.5205 31.5459 88.3916 32.4189L92.5312 32.2432C92.5312 30.4385 91.96 29.5361 90.8174 29.5361ZM95.4932 37.5518L96.7588 37.2793V31.4258C96.7588 30.8516 96.6621 30.4531 96.4688 30.2305C96.2754 30.0078 95.9502 29.8965 95.4932 29.8965V29.4482C95.8916 29.4014 96.3105 29.3252 96.75 29.2197C97.1895 29.1084 97.5264 29.0117 97.7607 28.9297L98.1035 28.8242L98.2881 30.4414H98.376C98.4111 30.3945 98.4609 30.3359 98.5254 30.2656C98.5957 30.1895 98.7334 30.0605 98.9385 29.8789C99.1494 29.6914 99.3691 29.5244 99.5977 29.3779C99.8262 29.2314 100.116 29.1025 100.468 28.9912C100.825 28.8799 101.18 28.8242 101.531 28.8242C102.422 28.8242 103.107 29.1143 103.588 29.6943C104.074 30.2744 104.317 31.1533 104.317 32.3311V36.1982C104.317 36.7373 104.402 37.0977 104.572 37.2793C104.748 37.4609 105.082 37.5518 105.574 37.5518V38H101.531V37.5518L102.788 37.2793V32.5068C102.788 31.6279 102.63 31.0039 102.313 30.6348C102.003 30.2656 101.502 30.0811 100.811 30.0811C100.412 30.0811 100.002 30.1777 99.5801 30.3711C99.1641 30.5586 98.8477 30.749 98.6309 30.9424L98.2881 31.25V36.1982C98.2881 36.7373 98.373 37.0977 98.543 37.2793C98.7188 37.4609 99.0527 37.5518 99.5449 37.5518V38H95.4932V37.5518ZM113.326 38.1758L113.142 36.5586H113.054C113.03 36.6055 112.989 36.667 112.931 36.7432C112.872 36.8135 112.749 36.9424 112.562 37.1299C112.374 37.3115 112.175 37.4756 111.964 37.6221C111.753 37.7686 111.486 37.8975 111.164 38.0088C110.842 38.1201 110.514 38.1758 110.18 38.1758C109.195 38.1758 108.378 37.792 107.728 37.0244C107.077 36.2568 106.752 35.2021 106.752 33.8604C106.752 32.3018 107.177 31.0742 108.026 30.1777C108.882 29.2754 110.019 28.8242 111.437 28.8242C111.724 28.8242 112.011 28.8535 112.298 28.9121C112.585 28.9707 112.802 29.0293 112.948 29.0879L113.142 29.1758V26.2139C113.142 25.6045 113.045 25.1826 112.852 24.9482C112.664 24.708 112.342 24.5879 111.885 24.5879V24.1396C112.342 24.0928 112.802 24.0107 113.265 23.8936C113.728 23.7705 114.079 23.6621 114.319 23.5684L114.68 23.4189V35.5742C114.68 36.1484 114.773 36.5469 114.961 36.7695C115.154 36.9922 115.479 37.1035 115.937 37.1035V37.5518C115.538 37.5986 115.119 37.6777 114.68 37.7891C114.246 37.8945 113.909 37.9883 113.669 38.0703L113.326 38.1758ZM111.164 29.5361C110.35 29.5361 109.682 29.8789 109.16 30.5645C108.639 31.25 108.378 32.252 108.378 33.5703C108.378 34.7129 108.592 35.5566 109.02 36.1016C109.453 36.6465 110.048 36.9189 110.804 36.9189C111.173 36.9189 111.554 36.8252 111.946 36.6377C112.339 36.4443 112.638 36.251 112.843 36.0576L113.142 35.75V30.3535C113.095 30.2949 113.021 30.2217 112.922 30.1338C112.828 30.04 112.611 29.917 112.271 29.7646C111.932 29.6123 111.562 29.5361 111.164 29.5361ZM122.502 36.5586C122.479 36.6055 122.44 36.667 122.388 36.7432C122.335 36.8135 122.218 36.9424 122.036 37.1299C121.854 37.3115 121.661 37.4756 121.456 37.6221C121.257 37.7686 120.987 37.8975 120.647 38.0088C120.313 38.1201 119.974 38.1758 119.628 38.1758C118.884 38.1758 118.307 37.9971 117.896 37.6396C117.486 37.2822 117.281 36.8018 117.281 36.1982C117.281 35.6943 117.463 35.2344 117.826 34.8184C118.195 34.3965 118.641 34.0654 119.162 33.8252C119.689 33.585 120.211 33.3828 120.727 33.2188C121.242 33.0488 121.679 32.9316 122.036 32.8672L122.599 32.7793V31.8828C122.599 30.3242 121.969 29.542 120.709 29.5361C120.492 29.5361 120.264 29.5742 120.023 29.6504C119.783 29.7207 119.596 29.791 119.461 29.8613L119.268 29.9932L118.635 31.8828H117.826V29.8086C117.961 29.7383 118.143 29.6504 118.371 29.5449C118.605 29.4336 119.03 29.2871 119.646 29.1055C120.267 28.918 120.829 28.8242 121.333 28.8242C122.194 28.8242 122.874 29.0908 123.372 29.624C123.876 30.1572 124.128 30.9102 124.128 31.8828V35.5742C124.128 36.1484 124.222 36.5469 124.409 36.7695C124.603 36.9922 124.928 37.1035 125.385 37.1035V37.5518C124.986 37.5986 124.567 37.6777 124.128 37.7891C123.694 37.8945 123.357 37.9883 123.117 38.0703L122.774 38.1758L122.599 36.5586H122.502ZM120.252 36.9189C120.621 36.9189 121.002 36.8311 121.395 36.6553C121.787 36.4736 122.086 36.292 122.291 36.1104L122.599 35.8379V33.5C122.505 33.5117 122.373 33.5322 122.203 33.5615C122.033 33.5908 121.734 33.6641 121.307 33.7812C120.879 33.8926 120.504 34.0244 120.182 34.1768C119.859 34.3232 119.566 34.54 119.303 34.8271C119.039 35.1084 118.907 35.416 118.907 35.75C118.901 36.5293 119.35 36.9189 120.252 36.9189ZM126.097 37.5518L127.362 37.2793V26.2139C127.362 25.6045 127.266 25.1826 127.072 24.9482C126.879 24.708 126.554 24.5879 126.097 24.5879V24.1396C126.554 24.0928 127.014 24.0107 127.477 23.8936C127.939 23.7705 128.291 23.6621 128.531 23.5684L128.892 23.4189V36.1982C128.892 36.7373 128.977 37.0977 129.146 37.2793C129.322 37.4609 129.656 37.5518 130.148 37.5518V38H126.097V37.5518ZM129.155 33.4121V33.3242L132.038 30.6172C132.396 30.2715 132.574 30.0312 132.574 29.8965C132.574 29.7383 132.492 29.624 132.328 29.5537C132.17 29.4834 131.862 29.4482 131.405 29.4482V29H135.369V29.4482L134.112 29.7207L130.685 32.9023L134.824 37.2793L136.09 37.5518V38H133.479L129.155 33.4121Z" fill="#ED1C24"/>
</svg>
