<svg width="708" height="95" viewBox="0 0 708 95" fill="none" xmlns="http://www.w3.org/2000/svg">
<path d="M524.527 86.9219L522.488 81.7656H515.645L514.566 84.6367C514.324 85.1992 514.203 85.7188 514.203 86.1953C514.203 86.5625 514.32 86.8359 514.555 87.0156C514.789 87.1953 515.195 87.2852 515.773 87.2852V88H510.254V87.4023L512.293 86.9219L519.008 69.2852H520.086L526.203 85.1172C526.508 85.9141 526.848 86.4766 527.223 86.8047C527.605 87.125 528.148 87.2852 528.852 87.2852V88H522.488V87.4023L524.527 86.9219ZM519.125 72.6367L516.125 80.6758H522.125L519.125 72.6367ZM529.203 87.4023L530.891 87.0391V72.2852C530.891 71.4727 530.762 70.9102 530.504 70.5977C530.246 70.2773 529.812 70.1172 529.203 70.1172V69.5195C529.812 69.457 530.426 69.3477 531.043 69.1914C531.66 69.0273 532.129 68.8828 532.449 68.7578L532.93 68.5586V85.5977C532.93 86.3164 533.043 86.7969 533.27 87.0391C533.504 87.2812 533.949 87.4023 534.605 87.4023V88H529.203V87.4023ZM535.812 87.4023L537.5 87.0391V72.2852C537.5 71.4727 537.371 70.9102 537.113 70.5977C536.855 70.2773 536.422 70.1172 535.812 70.1172V69.5195C536.422 69.457 537.035 69.3477 537.652 69.1914C538.27 69.0273 538.738 68.8828 539.059 68.7578L539.539 68.5586V85.5977C539.539 86.3164 539.652 86.7969 539.879 87.0391C540.113 87.2812 540.559 87.4023 541.215 87.4023V88H535.812V87.4023ZM542.539 87.4023L544.227 87.0391V79.2344C544.227 78.4219 544.098 77.8594 543.84 77.5469C543.582 77.2344 543.148 77.0781 542.539 77.0781V76.4805C543.148 76.418 543.762 76.3086 544.379 76.1523C544.996 75.9883 545.465 75.8398 545.785 75.707L546.266 75.5195V85.5977C546.266 86.3164 546.379 86.7969 546.605 87.0391C546.84 87.2812 547.285 87.4023 547.941 87.4023V88H542.539V87.4023ZM546.16 70.3516C546.473 70.6641 546.629 71.0273 546.629 71.4414C546.629 71.8555 546.473 72.2188 546.16 72.5312C545.848 72.8438 545.48 73 545.059 73C544.645 73 544.281 72.8438 543.969 72.5312C543.656 72.2188 543.5 71.8555 543.5 71.4414C543.5 71.0273 543.656 70.6641 543.969 70.3516C544.281 70.0391 544.645 69.8828 545.059 69.8828C545.48 69.8828 545.848 70.0391 546.16 70.3516ZM556.238 85.2344C556.238 84.8047 556.012 84.4062 555.559 84.0391C555.113 83.6719 554.574 83.3438 553.941 83.0547C553.309 82.7656 552.676 82.457 552.043 82.1289C551.41 81.8008 550.871 81.3711 550.426 80.8398C549.98 80.3008 549.758 79.6875 549.758 79C549.758 78.0547 550.125 77.2812 550.859 76.6797C551.594 76.0703 552.625 75.7656 553.953 75.7656C554.531 75.7656 555.078 75.8242 555.594 75.9414C556.117 76.0586 556.5 76.1758 556.742 76.293L557.07 76.4805V79.3633H556.473C556.348 78.4492 556.062 77.7812 555.617 77.3594C555.18 76.9297 554.547 76.7148 553.719 76.7148C552.969 76.7148 552.398 76.8672 552.008 77.1719C551.625 77.4766 551.434 77.8867 551.434 78.4023C551.434 78.8633 551.656 79.2773 552.102 79.6445C552.555 80.0117 553.094 80.3398 553.719 80.6289C554.352 80.918 554.984 81.2227 555.617 81.543C556.25 81.8633 556.789 82.2891 557.234 82.8203C557.688 83.3438 557.914 83.9414 557.914 84.6133C557.914 85.7305 557.52 86.6133 556.73 87.2617C555.949 87.9102 554.824 88.2344 553.355 88.2344C552.746 88.2344 552.133 88.1484 551.516 87.9766C550.898 87.7969 550.43 87.6133 550.109 87.4258L549.629 87.1562V84.0391H550.238C550.48 85.1875 550.859 86.0156 551.375 86.5234C551.891 87.0312 552.629 87.2852 553.59 87.2852C554.457 87.2852 555.113 87.1016 555.559 86.7344C556.012 86.3594 556.238 85.8594 556.238 85.2344ZM571.965 81.7656C571.965 83.6719 571.375 85.2266 570.195 86.4297C569.023 87.6328 567.531 88.2344 565.719 88.2344C564.086 88.2344 562.738 87.6797 561.676 86.5703C560.613 85.4609 560.082 84.0156 560.082 82.2344C560.082 80.3281 560.668 78.7734 561.84 77.5703C563.02 76.3672 564.516 75.7656 566.328 75.7656C567.961 75.7656 569.309 76.3242 570.371 77.4414C571.434 78.5508 571.965 79.9922 571.965 81.7656ZM563.293 78.0977C562.59 79.0195 562.238 80.3203 562.238 82C562.238 83.6797 562.598 84.9805 563.316 85.9023C564.043 86.8242 564.965 87.2852 566.082 87.2852C567.152 87.2852 568.039 86.8242 568.742 85.9023C569.453 84.9805 569.809 83.6797 569.809 82C569.809 80.3203 569.445 79.0195 568.719 78.0977C568 77.1758 567.082 76.7148 565.965 76.7148C564.895 76.7148 564.004 77.1758 563.293 78.0977ZM573.758 87.4023L575.445 87.0391V79.2344C575.445 78.4688 575.316 77.9375 575.059 77.6406C574.801 77.3438 574.367 77.1953 573.758 77.1953V76.5977C574.289 76.5352 574.848 76.4336 575.434 76.293C576.02 76.1445 576.469 76.0156 576.781 75.9062L577.238 75.7656L577.484 77.9219H577.602C577.648 77.8594 577.715 77.7812 577.801 77.6875C577.895 77.5859 578.078 77.4141 578.352 77.1719C578.633 76.9219 578.926 76.6992 579.23 76.5039C579.535 76.3086 579.922 76.1367 580.391 75.9883C580.867 75.8398 581.34 75.7656 581.809 75.7656C582.996 75.7656 583.91 76.1523 584.551 76.9258C585.199 77.6992 585.523 78.8711 585.523 80.4414V85.5977C585.523 86.3164 585.637 86.7969 585.863 87.0391C586.098 87.2812 586.543 87.4023 587.199 87.4023V88H581.809V87.4023L583.484 87.0391V80.6758C583.484 79.5039 583.273 78.6719 582.852 78.1797C582.438 77.6875 581.77 77.4414 580.848 77.4414C580.316 77.4414 579.77 77.5703 579.207 77.8281C578.652 78.0781 578.23 78.332 577.941 78.5898L577.484 79V85.5977C577.484 86.3164 577.598 86.7969 577.824 87.0391C578.059 87.2812 578.504 87.4023 579.16 87.4023V88H573.758V87.4023ZM595.238 87.4023L597.277 86.9219V72.6367C597.277 71.6133 597.148 70.957 596.891 70.668C596.641 70.3789 596.09 70.2344 595.238 70.2344V69.5195H608.328V74.1953H607.484C607.484 72.7734 607.266 71.8203 606.828 71.3359C606.398 70.8438 605.578 70.5977 604.367 70.5977H599.445V78.0391H601.965C602.988 78.0391 603.645 77.8984 603.934 77.6172C604.223 77.3359 604.367 76.7188 604.367 75.7656H605.199V81.7656H604.367C604.367 80.6953 604.207 79.9883 603.887 79.6445C603.566 79.293 602.926 79.1172 601.965 79.1172H599.445V84.8828C599.445 85.9062 599.613 86.5625 599.949 86.8516C600.285 87.1406 601.078 87.2852 602.328 87.2852V88H595.238V87.4023ZM609.383 87.4023L611.07 87.0391V72.2852C611.07 71.4727 610.941 70.9102 610.684 70.5977C610.426 70.2773 609.992 70.1172 609.383 70.1172V69.5195C609.992 69.457 610.605 69.3477 611.223 69.1914C611.84 69.0273 612.309 68.8828 612.629 68.7578L613.109 68.5586V85.5977C613.109 86.3164 613.223 86.7969 613.449 87.0391C613.684 87.2812 614.129 87.4023 614.785 87.4023V88H609.383V87.4023ZM628.355 81.7656C628.355 83.6719 627.766 85.2266 626.586 86.4297C625.414 87.6328 623.922 88.2344 622.109 88.2344C620.477 88.2344 619.129 87.6797 618.066 86.5703C617.004 85.4609 616.473 84.0156 616.473 82.2344C616.473 80.3281 617.059 78.7734 618.23 77.5703C619.41 76.3672 620.906 75.7656 622.719 75.7656C624.352 75.7656 625.699 76.3242 626.762 77.4414C627.824 78.5508 628.355 79.9922 628.355 81.7656ZM619.684 78.0977C618.98 79.0195 618.629 80.3203 618.629 82C618.629 83.6797 618.988 84.9805 619.707 85.9023C620.434 86.8242 621.355 87.2852 622.473 87.2852C623.543 87.2852 624.43 86.8242 625.133 85.9023C625.844 84.9805 626.199 83.6797 626.199 82C626.199 80.3203 625.836 79.0195 625.109 78.0977C624.391 77.1758 623.473 76.7148 622.355 76.7148C621.285 76.7148 620.395 77.1758 619.684 78.0977ZM642.395 81.7656C642.395 83.6719 641.805 85.2266 640.625 86.4297C639.453 87.6328 637.961 88.2344 636.148 88.2344C634.516 88.2344 633.168 87.6797 632.105 86.5703C631.043 85.4609 630.512 84.0156 630.512 82.2344C630.512 80.3281 631.098 78.7734 632.27 77.5703C633.449 76.3672 634.945 75.7656 636.758 75.7656C638.391 75.7656 639.738 76.3242 640.801 77.4414C641.863 78.5508 642.395 79.9922 642.395 81.7656ZM633.723 78.0977C633.02 79.0195 632.668 80.3203 632.668 82C632.668 83.6797 633.027 84.9805 633.746 85.9023C634.473 86.8242 635.395 87.2852 636.512 87.2852C637.582 87.2852 638.469 86.8242 639.172 85.9023C639.883 84.9805 640.238 83.6797 640.238 82C640.238 80.3203 639.875 79.0195 639.148 78.0977C638.43 77.1758 637.512 76.7148 636.395 76.7148C635.324 76.7148 634.434 77.1758 633.723 78.0977ZM653.434 88.2344L653.188 86.0781H653.07C653.039 86.1406 652.984 86.2227 652.906 86.3242C652.828 86.418 652.664 86.5898 652.414 86.8398C652.164 87.082 651.898 87.3008 651.617 87.4961C651.336 87.6914 650.98 87.8633 650.551 88.0117C650.121 88.1602 649.684 88.2344 649.238 88.2344C647.926 88.2344 646.836 87.7227 645.969 86.6992C645.102 85.6758 644.668 84.2695 644.668 82.4805C644.668 80.4023 645.234 78.7656 646.367 77.5703C647.508 76.3672 649.023 75.7656 650.914 75.7656C651.297 75.7656 651.68 75.8047 652.062 75.8828C652.445 75.9609 652.734 76.0391 652.93 76.1172L653.188 76.2344V72.2852C653.188 71.4727 653.059 70.9102 652.801 70.5977C652.551 70.2773 652.121 70.1172 651.512 70.1172V69.5195C652.121 69.457 652.734 69.3477 653.352 69.1914C653.969 69.0273 654.438 68.8828 654.758 68.7578L655.238 68.5586V84.7656C655.238 85.5312 655.363 86.0625 655.613 86.3594C655.871 86.6562 656.305 86.8047 656.914 86.8047V87.4023C656.383 87.4648 655.824 87.5703 655.238 87.7188C654.66 87.8594 654.211 87.9844 653.891 88.0938L653.434 88.2344ZM650.551 76.7148C649.465 76.7148 648.574 77.1719 647.879 78.0859C647.184 79 646.836 80.3359 646.836 82.0938C646.836 83.6172 647.121 84.7422 647.691 85.4688C648.27 86.1953 649.062 86.5586 650.07 86.5586C650.562 86.5586 651.07 86.4336 651.594 86.1836C652.117 85.9258 652.516 85.668 652.789 85.4102L653.188 85V77.8047C653.125 77.7266 653.027 77.6289 652.895 77.5117C652.77 77.3867 652.48 77.2227 652.027 77.0195C651.574 76.8164 651.082 76.7148 650.551 76.7148Z" fill="white"/>
<path d="M2.76562 21.5586V8.11719C2.76562 7.04688 2.63672 6.35938 2.37891 6.05469C2.12109 5.75 1.56641 5.59766 0.714844 5.59766V4.51953H8.88281V5.48047L6.59766 5.96094V21.4414H10.4414C11.7695 21.4414 12.7188 21.1523 13.2891 20.5742C13.8672 19.9961 14.2773 18.9258 14.5195 17.3633H15.9609L15.3633 23H0.714844V22.0391L2.76562 21.5586ZM22.1953 10.4023V19.8828C22.1953 20.7656 22.3047 21.3477 22.5234 21.6289C22.75 21.9023 23.1992 22.0391 23.8711 22.0391V23H16.9102V22.0391L18.5859 21.6758V14.5977C18.5859 13.668 18.4609 13.0352 18.2109 12.6992C17.9688 12.3633 17.5352 12.1953 16.9102 12.1953V11.2344C17.7617 11.2031 18.625 11.1172 19.5 10.9766C20.3828 10.8359 21.0547 10.6992 21.5156 10.5664L22.1953 10.4023ZM21.75 5.09375C22.125 5.47656 22.3125 5.96484 22.3125 6.55859C22.3125 7.15234 22.125 7.64062 21.75 8.02344C21.375 8.40625 20.8828 8.59766 20.2734 8.59766C19.6641 8.59766 19.1719 8.40625 18.7969 8.02344C18.4219 7.64062 18.2344 7.15234 18.2344 6.55859C18.2344 5.96484 18.4219 5.47656 18.7969 5.09375C19.1719 4.71094 19.6641 4.51953 20.2734 4.51953C20.8828 4.51953 21.375 4.71094 21.75 5.09375ZM28.9102 16.6367C28.9102 20.0742 29.8711 21.7969 31.793 21.8047C32.5273 21.8047 33.1484 21.418 33.6562 20.6445C34.1719 19.8633 34.4297 18.6875 34.4297 17.1172C34.4297 13.6797 33.4727 11.9609 31.5586 11.9609C30.8242 11.9609 30.1992 12.3477 29.6836 13.1211C29.168 13.8945 28.9102 15.0664 28.9102 16.6367ZM38.2734 16.7656C38.2734 18.5859 37.625 20.1211 36.3281 21.3711C35.0312 22.6133 33.3984 23.2344 31.4297 23.2344C29.5703 23.2344 28.0469 22.6484 26.8594 21.4766C25.6719 20.2969 25.0781 18.8047 25.0781 17C25.0781 15.1797 25.7227 13.6445 27.0117 12.3945C28.3086 11.1445 29.9414 10.5195 31.9102 10.5195C33.7695 10.5195 35.293 11.1094 36.4805 12.2891C37.6758 13.4688 38.2734 14.9609 38.2734 16.7656ZM52.9219 15.3242V19.8828C52.9219 20.7656 53.0312 21.3477 53.25 21.6289C53.4766 21.9023 53.9258 22.0391 54.5977 22.0391V23H47.6367V22.0391L49.3125 21.6758V15.5586C49.3125 13.957 48.6328 13.1562 47.2734 13.1562C46.8906 13.1562 46.5 13.2461 46.1016 13.4258C45.7031 13.5977 45.3984 13.7812 45.1875 13.9766L44.8828 14.2344V19.8828C44.8828 20.7656 44.9922 21.3477 45.2109 21.6289C45.4375 21.9023 45.8867 22.0391 46.5586 22.0391V23H39.5977V22.0391L41.2734 21.6758V14.5977C41.2734 13.668 41.1484 13.0352 40.8984 12.6992C40.6562 12.3633 40.2227 12.1953 39.5977 12.1953V11.2344C40.3008 11.2031 41.043 11.1289 41.8242 11.0117C42.6133 10.8945 43.2148 10.7773 43.6289 10.6602L44.2734 10.5195L44.5195 12.8047H44.7539C44.8008 12.7422 44.8633 12.6602 44.9414 12.5586C45.0273 12.4492 45.207 12.2656 45.4805 12.0078C45.7539 11.75 46.0391 11.5234 46.3359 11.3281C46.6406 11.125 47.0273 10.9414 47.4961 10.7773C47.9727 10.6055 48.4609 10.5195 48.9609 10.5195C50.1484 10.5195 51.1055 10.9414 51.832 11.7852C52.5586 12.6211 52.9219 13.8008 52.9219 15.3242ZM62.0391 12.0781C61.4609 12.0781 60.9609 12.3555 60.5391 12.9102C60.1172 13.457 59.8164 14.3008 59.6367 15.4414L63.8438 15.0781V14.4805C63.8438 13.7305 63.6719 13.1445 63.3281 12.7227C62.9844 12.293 62.5547 12.0781 62.0391 12.0781ZM62.2852 10.5195C63.9023 10.5195 65.168 10.9727 66.082 11.8789C67.0039 12.7773 67.4961 14.043 67.5586 15.6758L66.3633 16.7656H59.6367C59.6992 18.0781 60.0469 19.0664 60.6797 19.7305C61.3125 20.3867 62.207 20.7148 63.3633 20.7148C64.0039 20.7148 64.6094 20.6289 65.1797 20.457C65.7578 20.2773 66.1758 20.1016 66.4336 19.9297L66.8438 19.6367L67.4414 20.2344C67.3945 20.3125 67.3242 20.4219 67.2305 20.5625C67.1445 20.7031 66.9336 20.9453 66.5977 21.2891C66.2617 21.6328 65.9023 21.9375 65.5195 22.2031C65.1367 22.4609 64.6211 22.6992 63.9727 22.918C63.3242 23.1289 62.6406 23.2344 61.9219 23.2344C60.1797 23.2344 58.7227 22.6523 57.5508 21.4883C56.3867 20.3164 55.8047 18.8594 55.8047 17.1172C55.8047 15.2578 56.4336 13.6953 57.6914 12.4297C58.9492 11.1562 60.4805 10.5195 62.2852 10.5195ZM73.9102 3.55859V19.8828C73.9102 20.7656 74.0195 21.3477 74.2383 21.6289C74.4648 21.9023 74.9141 22.0391 75.5859 22.0391V23H68.625V22.0391L70.3125 21.6758V7.76562C70.3125 6.83594 70.1875 6.20313 69.9375 5.86719C69.6875 5.53125 69.25 5.36328 68.625 5.36328V4.40234C69.4062 4.37109 70.2383 4.28516 71.1211 4.14453C72.0039 3.99609 72.6953 3.86719 73.1953 3.75781L73.9102 3.55859ZM93.8438 19.1562C93.8438 18.5625 93.6133 18.0039 93.1523 17.4805C92.6992 16.9492 92.1289 16.4961 91.4414 16.1211C90.7539 15.7461 90.0117 15.3281 89.2148 14.8672C88.4258 14.3984 87.6875 13.9336 87 13.4727C86.3125 13.0117 85.7383 12.4219 85.2773 11.7031C84.8242 10.9766 84.5977 10.1836 84.5977 9.32422C84.5977 7.81641 85.168 6.57813 86.3086 5.60938C87.457 4.64062 89.0469 4.15625 91.0781 4.15625C92.0078 4.15625 92.9297 4.25 93.8438 4.4375C94.7656 4.61719 95.4531 4.79688 95.9062 4.97656L96.5977 5.23438V10.0391H95.2734C95.0938 8.67969 94.6406 7.62109 93.9141 6.86328C93.1953 6.09766 92.2891 5.71484 91.1953 5.71484C90.3828 5.71484 89.7188 5.94922 89.2031 6.41797C88.6953 6.87891 88.4414 7.44531 88.4414 8.11719C88.4414 8.71094 88.668 9.27344 89.1211 9.80469C89.582 10.3281 90.1562 10.7773 90.8438 11.1523C91.5312 11.5273 92.2695 11.9492 93.0586 12.418C93.8477 12.8789 94.5859 13.3438 95.2734 13.8125C95.9688 14.2734 96.543 14.8633 96.9961 15.582C97.4492 16.3008 97.6758 17.0938 97.6758 17.9609C97.6758 19.5312 97.0664 20.8242 95.8477 21.8398C94.6367 22.8555 92.9258 23.3633 90.7148 23.3633C89.4336 23.3633 88.2461 23.2227 87.1523 22.9414C86.0586 22.6602 85.2812 22.375 84.8203 22.0859L84.1172 21.6758V16.1562H85.4414C86.1445 19.9141 87.8633 21.7969 90.5977 21.8047C91.5898 21.8047 92.3789 21.5508 92.9648 21.043C93.5508 20.5352 93.8438 19.9062 93.8438 19.1562ZM112.324 15.3242V19.8828C112.324 20.7656 112.434 21.3477 112.652 21.6289C112.879 21.9023 113.328 22.0391 114 22.0391V23H107.051V22.0391L108.727 21.6758V15.5586C108.727 13.957 108.047 13.1562 106.688 13.1562C106.305 13.1562 105.91 13.2461 105.504 13.4258C105.105 13.5977 104.805 13.7812 104.602 13.9766L104.285 14.2344V19.8828C104.285 20.7656 104.395 21.3477 104.613 21.6289C104.84 21.9023 105.289 22.0391 105.961 22.0391V23H99V22.0391L100.688 21.6758V7.76562C100.688 6.83594 100.562 6.20313 100.312 5.86719C100.062 5.53125 99.625 5.36328 99 5.36328V4.40234C99.7812 4.37109 100.613 4.28516 101.496 4.14453C102.379 3.99609 103.07 3.86719 103.57 3.75781L104.285 3.55859V12.4414H104.531C104.562 12.3945 104.617 12.3281 104.695 12.2422C104.773 12.1484 104.938 11.9922 105.188 11.7734C105.438 11.5469 105.699 11.3516 105.973 11.1875C106.254 11.0156 106.609 10.8633 107.039 10.7305C107.477 10.5898 107.918 10.5195 108.363 10.5195C109.551 10.5195 110.508 10.9414 111.234 11.7852C111.961 12.6211 112.324 13.8008 112.324 15.3242ZM120.141 14.3633V19.8828C120.141 20.7109 120.289 21.2773 120.586 21.582C120.891 21.8867 121.461 22.0391 122.297 22.0391V23H114.855V22.0391L116.531 21.6758V14.5977C116.531 13.668 116.406 13.0352 116.156 12.6992C115.914 12.3633 115.48 12.1953 114.855 12.1953V11.2344C115.559 11.2031 116.301 11.1289 117.082 11.0117C117.871 10.8945 118.473 10.7773 118.887 10.6602L119.531 10.5195L119.777 12.8047H120.012C120.059 12.7422 120.121 12.6602 120.199 12.5586C120.285 12.4492 120.469 12.2656 120.75 12.0078C121.031 11.75 121.312 11.5234 121.594 11.3281C121.883 11.125 122.242 10.9414 122.672 10.7773C123.109 10.6055 123.543 10.5195 123.973 10.5195C124.293 10.5195 124.605 10.5508 124.91 10.6133C125.215 10.6758 125.43 10.7422 125.555 10.8125L125.777 10.8828V15.1953H123.855L123.012 12.9219C122.48 12.9531 121.977 13.0898 121.5 13.332C121.023 13.5664 120.68 13.7969 120.469 14.0234L120.141 14.3633ZM131.906 10.4023V19.8828C131.906 20.7656 132.016 21.3477 132.234 21.6289C132.461 21.9023 132.91 22.0391 133.582 22.0391V23H126.621V22.0391L128.297 21.6758V14.5977C128.297 13.668 128.172 13.0352 127.922 12.6992C127.68 12.3633 127.246 12.1953 126.621 12.1953V11.2344C127.473 11.2031 128.336 11.1172 129.211 10.9766C130.094 10.8359 130.766 10.6992 131.227 10.5664L131.906 10.4023ZM131.461 5.09375C131.836 5.47656 132.023 5.96484 132.023 6.55859C132.023 7.15234 131.836 7.64062 131.461 8.02344C131.086 8.40625 130.594 8.59766 129.984 8.59766C129.375 8.59766 128.883 8.40625 128.508 8.02344C128.133 7.64062 127.945 7.15234 127.945 6.55859C127.945 5.96484 128.133 5.47656 128.508 5.09375C128.883 4.71094 129.375 4.51953 129.984 4.51953C130.594 4.51953 131.086 4.71094 131.461 5.09375ZM140.309 23.2344L135.867 13.8828C135.469 13.0312 135.098 12.457 134.754 12.1602C134.41 11.8633 133.941 11.7148 133.348 11.7148V10.7656H140.906V11.7148L138.996 12.0781L141.516 17.4805L141.867 18.9219H142.113L144.516 13.6367C144.672 13.2383 144.75 12.8789 144.75 12.5586C144.75 11.9961 144.191 11.7148 143.074 11.7148V10.7656H148.711V11.7148L147.035 12.0781L141.996 23.2344H140.309ZM154.945 12.0781C154.367 12.0781 153.867 12.3555 153.445 12.9102C153.023 13.457 152.723 14.3008 152.543 15.4414L156.75 15.0781V14.4805C156.75 13.7305 156.578 13.1445 156.234 12.7227C155.891 12.293 155.461 12.0781 154.945 12.0781ZM155.191 10.5195C156.809 10.5195 158.074 10.9727 158.988 11.8789C159.91 12.7773 160.402 14.043 160.465 15.6758L159.27 16.7656H152.543C152.605 18.0781 152.953 19.0664 153.586 19.7305C154.219 20.3867 155.113 20.7148 156.27 20.7148C156.91 20.7148 157.516 20.6289 158.086 20.457C158.664 20.2773 159.082 20.1016 159.34 19.9297L159.75 19.6367L160.348 20.2344C160.301 20.3125 160.23 20.4219 160.137 20.5625C160.051 20.7031 159.84 20.9453 159.504 21.2891C159.168 21.6328 158.809 21.9375 158.426 22.2031C158.043 22.4609 157.527 22.6992 156.879 22.918C156.23 23.1289 155.547 23.2344 154.828 23.2344C153.086 23.2344 151.629 22.6523 150.457 21.4883C149.293 20.3164 148.711 18.8594 148.711 17.1172C148.711 15.2578 149.34 13.6953 150.598 12.4297C151.855 11.1562 153.387 10.5195 155.191 10.5195ZM167.062 14.3633V19.8828C167.062 20.7109 167.211 21.2773 167.508 21.582C167.812 21.8867 168.383 22.0391 169.219 22.0391V23H161.777V22.0391L163.453 21.6758V14.5977C163.453 13.668 163.328 13.0352 163.078 12.6992C162.836 12.3633 162.402 12.1953 161.777 12.1953V11.2344C162.48 11.2031 163.223 11.1289 164.004 11.0117C164.793 10.8945 165.395 10.7773 165.809 10.6602L166.453 10.5195L166.699 12.8047H166.934C166.98 12.7422 167.043 12.6602 167.121 12.5586C167.207 12.4492 167.391 12.2656 167.672 12.0078C167.953 11.75 168.234 11.5234 168.516 11.3281C168.805 11.125 169.164 10.9414 169.594 10.7773C170.031 10.6055 170.465 10.5195 170.895 10.5195C171.215 10.5195 171.527 10.5508 171.832 10.6133C172.137 10.6758 172.352 10.7422 172.477 10.8125L172.699 10.8828V15.1953H170.777L169.934 12.9219C169.402 12.9531 168.898 13.0898 168.422 13.332C167.945 13.5664 167.602 13.7969 167.391 14.0234L167.062 14.3633ZM186.855 10.5195C187.176 10.5195 187.496 10.5508 187.816 10.6133C188.137 10.6758 188.375 10.7422 188.531 10.8125L188.777 10.8828V7.76562C188.777 6.83594 188.652 6.20313 188.402 5.86719C188.152 5.53125 187.715 5.36328 187.09 5.36328V4.40234C187.871 4.37109 188.703 4.28516 189.586 4.14453C190.469 3.99609 191.156 3.86719 191.648 3.75781L192.375 3.55859V19.1562C192.375 20.0859 192.496 20.7188 192.738 21.0547C192.988 21.3906 193.426 21.5586 194.051 21.5586V22.5195C193.348 22.5508 192.602 22.6289 191.812 22.7539C191.031 22.8711 190.434 22.9844 190.02 23.0938L189.375 23.2344L189.129 20.9609H188.895C188.848 21.0234 188.781 21.1094 188.695 21.2188C188.617 21.3203 188.445 21.5 188.18 21.7578C187.922 22.0078 187.645 22.2344 187.348 22.4375C187.051 22.6328 186.668 22.8164 186.199 22.9883C185.738 23.1523 185.277 23.2344 184.816 23.2344C183.566 23.2344 182.492 22.707 181.594 21.6523C180.703 20.5977 180.258 19.207 180.258 17.4805C180.258 15.4023 180.871 13.7227 182.098 12.4414C183.332 11.1602 184.918 10.5195 186.855 10.5195ZM186.738 12.0781C185.957 12.0781 185.301 12.4648 184.77 13.2383C184.238 14.0039 183.973 15.1797 183.973 16.7656C183.973 18.0781 184.199 19.0469 184.652 19.6719C185.113 20.2891 185.727 20.5977 186.492 20.5977C186.875 20.5977 187.258 20.5117 187.641 20.3398C188.031 20.1602 188.312 19.9766 188.484 19.7891L188.777 19.5195V12.9219C188.301 12.3594 187.621 12.0781 186.738 12.0781ZM200.18 10.4023V19.8828C200.18 20.7656 200.289 21.3477 200.508 21.6289C200.734 21.9023 201.184 22.0391 201.855 22.0391V23H194.895V22.0391L196.57 21.6758V14.5977C196.57 13.668 196.445 13.0352 196.195 12.6992C195.953 12.3633 195.52 12.1953 194.895 12.1953V11.2344C195.746 11.2031 196.609 11.1172 197.484 10.9766C198.367 10.8359 199.039 10.6992 199.5 10.5664L200.18 10.4023ZM199.734 5.09375C200.109 5.47656 200.297 5.96484 200.297 6.55859C200.297 7.15234 200.109 7.64062 199.734 8.02344C199.359 8.40625 198.867 8.59766 198.258 8.59766C197.648 8.59766 197.156 8.40625 196.781 8.02344C196.406 7.64062 196.219 7.15234 196.219 6.55859C196.219 5.96484 196.406 5.47656 196.781 5.09375C197.156 4.71094 197.648 4.51953 198.258 4.51953C198.867 4.51953 199.359 4.71094 199.734 5.09375ZM214.102 23H203.062L202.816 22.2852L210.023 12.1953H207.855C206.832 12.1953 206.098 12.4336 205.652 12.9102C205.207 13.3789 204.984 14.1836 204.984 15.3242H203.66V10.7656H214.453L214.699 11.4805L207.504 21.5586H210.023C210.922 21.5586 211.617 21.3086 212.109 20.8086C212.602 20.3008 213.023 19.3906 213.375 18.0781H214.582L214.102 23ZM230.285 10.5195C230.777 10.5195 231.285 10.5938 231.809 10.7422C232.332 10.8828 232.73 11.0156 233.004 11.1406L233.414 11.3633L235.57 10.5195V25.4023C235.57 26.2852 235.68 26.8633 235.898 27.1367C236.125 27.418 236.574 27.5586 237.246 27.5586V28.5195H229.688V27.5586L231.973 27.1953V21.3242H231.727C231.695 21.3711 231.648 21.4375 231.586 21.5234C231.523 21.6094 231.379 21.7656 231.152 21.9922C230.926 22.2188 230.684 22.418 230.426 22.5898C230.176 22.7539 229.84 22.9023 229.418 23.0352C229.004 23.168 228.574 23.2344 228.129 23.2344C226.848 23.2344 225.746 22.707 224.824 21.6523C223.91 20.5977 223.453 19.207 223.453 17.4805C223.453 15.3867 224.078 13.7031 225.328 12.4297C226.586 11.1562 228.238 10.5195 230.285 10.5195ZM229.934 12.0781C229.152 12.0781 228.496 12.4648 227.965 13.2383C227.434 14.0039 227.168 15.1797 227.168 16.7656C227.168 18.0781 227.395 19.0469 227.848 19.6719C228.309 20.2891 228.922 20.5977 229.688 20.5977C230.07 20.5977 230.453 20.5117 230.836 20.3398C231.227 20.1602 231.508 19.9766 231.68 19.7891L231.973 19.5195V13.0391C231.926 12.9766 231.848 12.8906 231.738 12.7812C231.637 12.6641 231.406 12.5195 231.047 12.3477C230.688 12.168 230.316 12.0781 229.934 12.0781ZM251.285 10.4023V19.1562C251.285 20.0859 251.41 20.7188 251.66 21.0547C251.91 21.3906 252.348 21.5586 252.973 21.5586V22.5195C252.27 22.5508 251.523 22.6289 250.734 22.7539C249.953 22.8711 249.355 22.9844 248.941 23.0938L248.285 23.2344L248.051 20.9609H247.805C247.758 21.0234 247.695 21.1094 247.617 21.2188C247.539 21.3203 247.363 21.5 247.09 21.7578C246.816 22.0078 246.527 22.2344 246.223 22.4375C245.918 22.6328 245.527 22.8164 245.051 22.9883C244.582 23.1523 244.102 23.2344 243.609 23.2344C242.422 23.2344 241.465 22.8164 240.738 21.9805C240.012 21.1367 239.648 19.957 239.648 18.4414V14.5977C239.648 13.668 239.523 13.0352 239.273 12.6992C239.031 12.3633 238.598 12.1953 237.973 12.1953V11.2344C238.824 11.2031 239.688 11.1172 240.562 10.9766C241.445 10.8359 242.109 10.6992 242.555 10.5664L243.246 10.4023V18.1953C243.246 19.7969 243.926 20.5977 245.285 20.5977C245.668 20.5977 246.059 20.5117 246.457 20.3398C246.863 20.1602 247.172 19.9766 247.383 19.7891L247.688 19.5195V14.5977C247.688 13.668 247.562 13.0352 247.312 12.6992C247.07 12.3633 246.637 12.1953 246.012 12.1953V11.2344C246.863 11.2031 247.727 11.1172 248.602 10.9766C249.484 10.8359 250.156 10.6992 250.617 10.5664L251.285 10.4023ZM260.414 12.0781C259.836 12.0781 259.336 12.3555 258.914 12.9102C258.492 13.457 258.191 14.3008 258.012 15.4414L262.219 15.0781V14.4805C262.219 13.7305 262.047 13.1445 261.703 12.7227C261.359 12.293 260.93 12.0781 260.414 12.0781ZM260.66 10.5195C262.277 10.5195 263.543 10.9727 264.457 11.8789C265.379 12.7773 265.871 14.043 265.934 15.6758L264.738 16.7656H258.012C258.074 18.0781 258.422 19.0664 259.055 19.7305C259.688 20.3867 260.582 20.7148 261.738 20.7148C262.379 20.7148 262.984 20.6289 263.555 20.457C264.133 20.2773 264.551 20.1016 264.809 19.9297L265.219 19.6367L265.816 20.2344C265.77 20.3125 265.699 20.4219 265.605 20.5625C265.52 20.7031 265.309 20.9453 264.973 21.2891C264.637 21.6328 264.277 21.9375 263.895 22.2031C263.512 22.4609 262.996 22.6992 262.348 22.918C261.699 23.1289 261.016 23.2344 260.297 23.2344C258.555 23.2344 257.098 22.6523 255.926 21.4883C254.762 20.3164 254.18 18.8594 254.18 17.1172C254.18 15.2578 254.809 13.6953 256.066 12.4297C257.324 11.1562 258.855 10.5195 260.66 10.5195ZM278.883 10.0391C278.883 10.5859 278.68 11.0625 278.273 11.4688C277.867 11.875 277.391 12.0781 276.844 12.0781C276.297 12.0781 275.82 11.8594 275.414 11.4219C275.008 10.9844 274.805 10.4453 274.805 9.80469C274.805 9.17969 274.902 8.5625 275.098 7.95312C275.301 7.34375 275.543 6.82812 275.824 6.40625C276.105 5.98438 276.383 5.60547 276.656 5.26953C276.938 4.93359 277.184 4.68359 277.395 4.51953L277.688 4.28516L278.52 5.11719C277.559 6.15625 277.039 7.11719 276.961 8C277.508 8.0625 277.965 8.28516 278.332 8.66797C278.699 9.05078 278.883 9.50781 278.883 10.0391ZM284.168 10.0391C284.168 10.5859 283.961 11.0625 283.547 11.4688C283.141 11.875 282.664 12.0781 282.117 12.0781C281.578 12.0781 281.102 11.8594 280.688 11.4219C280.281 10.9844 280.078 10.4453 280.078 9.80469C280.078 9.17969 280.18 8.5625 280.383 7.95312C280.586 7.34375 280.824 6.82812 281.098 6.40625C281.379 5.98438 281.66 5.60547 281.941 5.26953C282.223 4.93359 282.469 4.68359 282.68 4.51953L282.961 4.28516L283.805 5.11719C282.844 6.15625 282.324 7.11719 282.246 8C282.793 8.0625 283.25 8.28516 283.617 8.66797C283.984 9.05078 284.168 9.50781 284.168 10.0391ZM296.637 14.8438V19.1562C296.637 20.0859 296.762 20.7188 297.012 21.0547C297.262 21.3906 297.695 21.5586 298.312 21.5586V22.5195C297.609 22.5508 296.867 22.6289 296.086 22.7539C295.305 22.8711 294.703 22.9844 294.281 23.0938L293.637 23.2344L293.402 20.9609H293.156C293.109 21.0234 293.043 21.1094 292.957 21.2188C292.879 21.3203 292.707 21.5 292.441 21.7578C292.184 22.0078 291.906 22.2344 291.609 22.4375C291.312 22.6328 290.93 22.8164 290.461 22.9883C290 23.1523 289.539 23.2344 289.078 23.2344C288.023 23.2344 287.199 22.9766 286.605 22.4609C286.012 21.9375 285.715 21.2773 285.715 20.4805C285.715 19.7617 285.965 19.1055 286.465 18.5117C286.973 17.918 287.586 17.4531 288.305 17.1172C289.031 16.7812 289.75 16.5 290.461 16.2734C291.172 16.0391 291.773 15.8828 292.266 15.8047L293.039 15.6758V15.0781C293.039 13.0781 292.32 12.0781 290.883 12.0781C290.672 12.0781 290.445 12.1055 290.203 12.1602C289.961 12.2148 289.77 12.2773 289.629 12.3477L289.441 12.4414L288.598 15.0781H286.676V11.7148C286.832 11.6211 287.059 11.5117 287.355 11.3867C287.652 11.2539 288.242 11.0781 289.125 10.8594C290.008 10.6328 290.871 10.5195 291.715 10.5195C293.301 10.5195 294.516 10.9062 295.359 11.6797C296.211 12.4453 296.637 13.5 296.637 14.8438ZM290.754 20.7148C291.137 20.7148 291.52 20.6172 291.902 20.4219C292.293 20.2188 292.574 20.0234 292.746 19.8359L293.039 19.5195V17C292.945 17.0156 292.816 17.0391 292.652 17.0703C292.496 17.1016 292.207 17.1914 291.785 17.3398C291.371 17.4805 291.004 17.6367 290.684 17.8086C290.363 17.9727 290.074 18.2109 289.816 18.5234C289.566 18.8359 289.441 19.168 289.441 19.5195C289.441 19.8867 289.555 20.1797 289.781 20.3984C290.016 20.6094 290.34 20.7148 290.754 20.7148ZM306.609 17.1172C306.609 15.2266 307.27 13.6562 308.59 12.4062C309.91 11.1484 311.609 10.5195 313.688 10.5195C314.469 10.5195 315.199 10.6094 315.879 10.7891C316.559 10.9609 317.043 11.1445 317.332 11.3398L317.766 11.5977V15.4414H316.09L315 12.3242C314.68 12.168 314.242 12.0859 313.688 12.0781C312.789 12.0781 312.023 12.4766 311.391 13.2734C310.758 14.0625 310.441 15.1445 310.441 16.5195C310.441 17.8164 310.785 18.8398 311.473 19.5898C312.16 20.3398 313.059 20.7148 314.168 20.7148C314.809 20.7148 315.414 20.6289 315.984 20.457C316.562 20.2773 316.98 20.1016 317.238 19.9297L317.648 19.6367L318.246 20.2344C318.199 20.3125 318.129 20.4219 318.035 20.5625C317.949 20.7031 317.738 20.9453 317.402 21.2891C317.066 21.6328 316.707 21.9375 316.324 22.2031C315.941 22.4609 315.426 22.6992 314.777 22.918C314.129 23.1289 313.445 23.2344 312.727 23.2344C310.984 23.2344 309.527 22.6523 308.355 21.4883C307.191 20.3164 306.609 18.8594 306.609 17.1172ZM325.805 12.0781C325.227 12.0781 324.727 12.3555 324.305 12.9102C323.883 13.457 323.582 14.3008 323.402 15.4414L327.609 15.0781V14.4805C327.609 13.7305 327.438 13.1445 327.094 12.7227C326.75 12.293 326.32 12.0781 325.805 12.0781ZM326.051 10.5195C327.668 10.5195 328.934 10.9727 329.848 11.8789C330.77 12.7773 331.262 14.043 331.324 15.6758L330.129 16.7656H323.402C323.465 18.0781 323.812 19.0664 324.445 19.7305C325.078 20.3867 325.973 20.7148 327.129 20.7148C327.77 20.7148 328.375 20.6289 328.945 20.457C329.523 20.2773 329.941 20.1016 330.199 19.9297L330.609 19.6367L331.207 20.2344C331.16 20.3125 331.09 20.4219 330.996 20.5625C330.91 20.7031 330.699 20.9453 330.363 21.2891C330.027 21.6328 329.668 21.9375 329.285 22.2031C328.902 22.4609 328.387 22.6992 327.738 22.918C327.09 23.1289 326.406 23.2344 325.688 23.2344C323.945 23.2344 322.488 22.6523 321.316 21.4883C320.152 20.3164 319.57 18.8594 319.57 17.1172C319.57 15.2578 320.199 13.6953 321.457 12.4297C322.715 11.1562 324.246 10.5195 326.051 10.5195ZM345.961 15.3242V19.8828C345.961 20.7656 346.07 21.3477 346.289 21.6289C346.516 21.9023 346.965 22.0391 347.637 22.0391V23H340.676V22.0391L342.352 21.6758V15.5586C342.352 13.957 341.672 13.1562 340.312 13.1562C339.93 13.1562 339.539 13.2461 339.141 13.4258C338.742 13.5977 338.438 13.7812 338.227 13.9766L337.922 14.2344V19.8828C337.922 20.7656 338.031 21.3477 338.25 21.6289C338.477 21.9023 338.926 22.0391 339.598 22.0391V23H332.637V22.0391L334.312 21.6758V14.5977C334.312 13.668 334.188 13.0352 333.938 12.6992C333.695 12.3633 333.262 12.1953 332.637 12.1953V11.2344C333.34 11.2031 334.082 11.1289 334.863 11.0117C335.652 10.8945 336.254 10.7773 336.668 10.6602L337.312 10.5195L337.559 12.8047H337.793C337.84 12.7422 337.902 12.6602 337.98 12.5586C338.066 12.4492 338.246 12.2656 338.52 12.0078C338.793 11.75 339.078 11.5234 339.375 11.3281C339.68 11.125 340.066 10.9414 340.535 10.7773C341.012 10.6055 341.5 10.5195 342 10.5195C343.188 10.5195 344.145 10.9414 344.871 11.7852C345.598 12.6211 345.961 13.8008 345.961 15.3242ZM355.441 20C355.441 19.6172 355.223 19.2617 354.785 18.9336C354.355 18.6055 353.836 18.3086 353.227 18.043C352.625 17.7773 352.02 17.4844 351.41 17.1641C350.801 16.8438 350.277 16.4141 349.84 15.875C349.41 15.3281 349.195 14.7031 349.195 14C349.195 12.9766 349.617 12.1406 350.461 11.4922C351.312 10.8438 352.57 10.5195 354.234 10.5195C354.906 10.5195 355.562 10.5938 356.203 10.7422C356.844 10.8828 357.316 11.0156 357.621 11.1406L358.078 11.3633V14.4805H356.883C356.703 13.582 356.426 12.9375 356.051 12.5469C355.676 12.1562 355.152 11.9609 354.48 11.9609C353.949 11.9609 353.535 12.0898 353.238 12.3477C352.949 12.5977 352.805 12.9102 352.805 13.2852C352.805 13.7148 353.02 14.0859 353.449 14.3984C353.879 14.7109 354.398 14.9805 355.008 15.207C355.617 15.4258 356.223 15.6758 356.824 15.957C357.434 16.2383 357.953 16.6523 358.383 17.1992C358.82 17.7383 359.039 18.3906 359.039 19.1562C359.039 20.2891 358.551 21.2539 357.574 22.0508C356.598 22.8398 355.246 23.2344 353.52 23.2344C352.707 23.2344 351.906 23.1562 351.117 23C350.336 22.8438 349.762 22.6836 349.395 22.5195L348.844 22.2852V18.5586H350.039C350.406 20.7148 351.488 21.7969 353.285 21.8047C353.926 21.8047 354.445 21.6289 354.844 21.2773C355.242 20.918 355.441 20.4922 355.441 20ZM373.559 10.4023V19.1562C373.559 20.0859 373.684 20.7188 373.934 21.0547C374.184 21.3906 374.621 21.5586 375.246 21.5586V22.5195C374.543 22.5508 373.797 22.6289 373.008 22.7539C372.227 22.8711 371.629 22.9844 371.215 23.0938L370.559 23.2344L370.324 20.9609H370.078C370.031 21.0234 369.969 21.1094 369.891 21.2188C369.812 21.3203 369.637 21.5 369.363 21.7578C369.09 22.0078 368.801 22.2344 368.496 22.4375C368.191 22.6328 367.801 22.8164 367.324 22.9883C366.855 23.1523 366.375 23.2344 365.883 23.2344C364.695 23.2344 363.738 22.8164 363.012 21.9805C362.285 21.1367 361.922 19.957 361.922 18.4414V14.5977C361.922 13.668 361.797 13.0352 361.547 12.6992C361.305 12.3633 360.871 12.1953 360.246 12.1953V11.2344C361.098 11.2031 361.961 11.1172 362.836 10.9766C363.719 10.8359 364.383 10.6992 364.828 10.5664L365.52 10.4023V18.1953C365.52 19.7969 366.199 20.5977 367.559 20.5977C367.941 20.5977 368.332 20.5117 368.73 20.3398C369.137 20.1602 369.445 19.9766 369.656 19.7891L369.961 19.5195V14.5977C369.961 13.668 369.836 13.0352 369.586 12.6992C369.344 12.3633 368.91 12.1953 368.285 12.1953V11.2344C369.137 11.2031 370 11.1172 370.875 10.9766C371.758 10.8359 372.43 10.6992 372.891 10.5664L373.559 10.4023ZM381.375 14.3633V19.8828C381.375 20.7109 381.523 21.2773 381.82 21.582C382.125 21.8867 382.695 22.0391 383.531 22.0391V23H376.09V22.0391L377.766 21.6758V14.5977C377.766 13.668 377.641 13.0352 377.391 12.6992C377.148 12.3633 376.715 12.1953 376.09 12.1953V11.2344C376.793 11.2031 377.535 11.1289 378.316 11.0117C379.105 10.8945 379.707 10.7773 380.121 10.6602L380.766 10.5195L381.012 12.8047H381.246C381.293 12.7422 381.355 12.6602 381.434 12.5586C381.52 12.4492 381.703 12.2656 381.984 12.0078C382.266 11.75 382.547 11.5234 382.828 11.3281C383.117 11.125 383.477 10.9414 383.906 10.7773C384.344 10.6055 384.777 10.5195 385.207 10.5195C385.527 10.5195 385.84 10.5508 386.145 10.6133C386.449 10.6758 386.664 10.7422 386.789 10.8125L387.012 10.8828V15.1953H385.09L384.246 12.9219C383.715 12.9531 383.211 13.0898 382.734 13.332C382.258 13.5664 381.914 13.7969 381.703 14.0234L381.375 14.3633ZM398.895 14.8438V19.1562C398.895 20.0859 399.02 20.7188 399.27 21.0547C399.52 21.3906 399.953 21.5586 400.57 21.5586V22.5195C399.867 22.5508 399.125 22.6289 398.344 22.7539C397.562 22.8711 396.961 22.9844 396.539 23.0938L395.895 23.2344L395.66 20.9609H395.414C395.367 21.0234 395.301 21.1094 395.215 21.2188C395.137 21.3203 394.965 21.5 394.699 21.7578C394.441 22.0078 394.164 22.2344 393.867 22.4375C393.57 22.6328 393.188 22.8164 392.719 22.9883C392.258 23.1523 391.797 23.2344 391.336 23.2344C390.281 23.2344 389.457 22.9766 388.863 22.4609C388.27 21.9375 387.973 21.2773 387.973 20.4805C387.973 19.7617 388.223 19.1055 388.723 18.5117C389.23 17.918 389.844 17.4531 390.562 17.1172C391.289 16.7812 392.008 16.5 392.719 16.2734C393.43 16.0391 394.031 15.8828 394.523 15.8047L395.297 15.6758V15.0781C395.297 13.0781 394.578 12.0781 393.141 12.0781C392.93 12.0781 392.703 12.1055 392.461 12.1602C392.219 12.2148 392.027 12.2773 391.887 12.3477L391.699 12.4414L390.855 15.0781H388.934V11.7148C389.09 11.6211 389.316 11.5117 389.613 11.3867C389.91 11.2539 390.5 11.0781 391.383 10.8594C392.266 10.6328 393.129 10.5195 393.973 10.5195C395.559 10.5195 396.773 10.9062 397.617 11.6797C398.469 12.4453 398.895 13.5 398.895 14.8438ZM393.012 20.7148C393.395 20.7148 393.777 20.6172 394.16 20.4219C394.551 20.2188 394.832 20.0234 395.004 19.8359L395.297 19.5195V17C395.203 17.0156 395.074 17.0391 394.91 17.0703C394.754 17.1016 394.465 17.1914 394.043 17.3398C393.629 17.4805 393.262 17.6367 392.941 17.8086C392.621 17.9727 392.332 18.2109 392.074 18.5234C391.824 18.8359 391.699 19.168 391.699 19.5195C391.699 19.8867 391.812 20.1797 392.039 20.3984C392.273 20.6094 392.598 20.7148 393.012 20.7148ZM415.465 10.5195C415.785 10.5195 416.105 10.5508 416.426 10.6133C416.746 10.6758 416.984 10.7422 417.141 10.8125L417.387 10.8828V7.76562C417.387 6.83594 417.262 6.20313 417.012 5.86719C416.762 5.53125 416.324 5.36328 415.699 5.36328V4.40234C416.48 4.37109 417.312 4.28516 418.195 4.14453C419.078 3.99609 419.766 3.86719 420.258 3.75781L420.984 3.55859V19.1562C420.984 20.0859 421.105 20.7188 421.348 21.0547C421.598 21.3906 422.035 21.5586 422.66 21.5586V22.5195C421.957 22.5508 421.211 22.6289 420.422 22.7539C419.641 22.8711 419.043 22.9844 418.629 23.0938L417.984 23.2344L417.738 20.9609H417.504C417.457 21.0234 417.391 21.1094 417.305 21.2188C417.227 21.3203 417.055 21.5 416.789 21.7578C416.531 22.0078 416.254 22.2344 415.957 22.4375C415.66 22.6328 415.277 22.8164 414.809 22.9883C414.348 23.1523 413.887 23.2344 413.426 23.2344C412.176 23.2344 411.102 22.707 410.203 21.6523C409.312 20.5977 408.867 19.207 408.867 17.4805C408.867 15.4023 409.48 13.7227 410.707 12.4414C411.941 11.1602 413.527 10.5195 415.465 10.5195ZM415.348 12.0781C414.566 12.0781 413.91 12.4648 413.379 13.2383C412.848 14.0039 412.582 15.1797 412.582 16.7656C412.582 18.0781 412.809 19.0469 413.262 19.6719C413.723 20.2891 414.336 20.5977 415.102 20.5977C415.484 20.5977 415.867 20.5117 416.25 20.3398C416.641 20.1602 416.922 19.9766 417.094 19.7891L417.387 19.5195V12.9219C416.91 12.3594 416.23 12.0781 415.348 12.0781ZM427.699 16.6367C427.699 20.0742 428.66 21.7969 430.582 21.8047C431.316 21.8047 431.938 21.418 432.445 20.6445C432.961 19.8633 433.219 18.6875 433.219 17.1172C433.219 13.6797 432.262 11.9609 430.348 11.9609C429.613 11.9609 428.988 12.3477 428.473 13.1211C427.957 13.8945 427.699 15.0664 427.699 16.6367ZM437.062 16.7656C437.062 18.5859 436.414 20.1211 435.117 21.3711C433.82 22.6133 432.188 23.2344 430.219 23.2344C428.359 23.2344 426.836 22.6484 425.648 21.4766C424.461 20.2969 423.867 18.8047 423.867 17C423.867 15.1797 424.512 13.6445 425.801 12.3945C427.098 11.1445 428.73 10.5195 430.699 10.5195C432.559 10.5195 434.082 11.1094 435.27 12.2891C436.465 13.4688 437.062 14.9609 437.062 16.7656ZM450.621 22.8828V25.4023C450.621 26.2539 450.781 26.8242 451.102 27.1133C451.422 27.4102 452.062 27.5586 453.023 27.5586V28.5195H445.348V27.5586L447.023 27.1953V14.5977C447.023 13.668 446.898 13.0352 446.648 12.6992C446.406 12.3633 445.973 12.1953 445.348 12.1953V11.2344C446.051 11.2031 446.793 11.1289 447.574 11.0117C448.363 10.8945 448.973 10.7773 449.402 10.6602L450.023 10.5195L450.27 12.8047H450.504C450.551 12.7422 450.613 12.6602 450.691 12.5586C450.777 12.4492 450.949 12.2656 451.207 12.0078C451.473 11.75 451.754 11.5234 452.051 11.3281C452.348 11.125 452.727 10.9414 453.188 10.7773C453.656 10.6055 454.121 10.5195 454.582 10.5195C455.832 10.5195 456.902 11.0469 457.793 12.1016C458.691 13.1562 459.141 14.5508 459.141 16.2852C459.141 18.3633 458.523 20.043 457.289 21.3242C456.062 22.5977 454.48 23.2344 452.543 23.2344C452.223 23.2344 451.902 23.2031 451.582 23.1406C451.262 23.0781 451.023 23.0156 450.867 22.9531L450.621 22.8828ZM452.66 21.6758C453.441 21.6758 454.098 21.293 454.629 20.5273C455.16 19.7617 455.426 18.5859 455.426 17C455.426 15.6875 455.195 14.7188 454.734 14.0938C454.281 13.4688 453.672 13.1562 452.906 13.1562C452.523 13.1562 452.137 13.2461 451.746 13.4258C451.363 13.5977 451.078 13.7812 450.891 13.9766L450.621 14.2344V20.5977C450.684 20.6758 450.77 20.7773 450.879 20.9023C450.996 21.0195 451.234 21.1797 451.594 21.3828C451.953 21.5781 452.309 21.6758 452.66 21.6758ZM464.66 16.6367C464.66 20.0742 465.621 21.7969 467.543 21.8047C468.277 21.8047 468.898 21.418 469.406 20.6445C469.922 19.8633 470.18 18.6875 470.18 17.1172C470.18 13.6797 469.223 11.9609 467.309 11.9609C466.574 11.9609 465.949 12.3477 465.434 13.1211C464.918 13.8945 464.66 15.0664 464.66 16.6367ZM474.023 16.7656C474.023 18.5859 473.375 20.1211 472.078 21.3711C470.781 22.6133 469.148 23.2344 467.18 23.2344C465.32 23.2344 463.797 22.6484 462.609 21.4766C461.422 20.2969 460.828 18.8047 460.828 17C460.828 15.1797 461.473 13.6445 462.762 12.3945C464.059 11.1445 465.691 10.5195 467.66 10.5195C469.52 10.5195 471.043 11.1094 472.23 12.2891C473.426 13.4688 474.023 14.9609 474.023 16.7656ZM480.387 3.55859V19.8828C480.387 20.7656 480.496 21.3477 480.715 21.6289C480.941 21.9023 481.391 22.0391 482.062 22.0391V23H475.102V22.0391L476.789 21.6758V7.76562C476.789 6.83594 476.664 6.20313 476.414 5.86719C476.164 5.53125 475.727 5.36328 475.102 5.36328V4.40234C475.883 4.37109 476.715 4.28516 477.598 4.14453C478.48 3.99609 479.172 3.86719 479.672 3.75781L480.387 3.55859ZM488.203 10.4023V19.8828C488.203 20.7656 488.312 21.3477 488.531 21.6289C488.758 21.9023 489.207 22.0391 489.879 22.0391V23H482.918V22.0391L484.594 21.6758V14.5977C484.594 13.668 484.469 13.0352 484.219 12.6992C483.977 12.3633 483.543 12.1953 482.918 12.1953V11.2344C483.77 11.2031 484.633 11.1172 485.508 10.9766C486.391 10.8359 487.062 10.6992 487.523 10.5664L488.203 10.4023ZM487.758 5.09375C488.133 5.47656 488.32 5.96484 488.32 6.55859C488.32 7.15234 488.133 7.64062 487.758 8.02344C487.383 8.40625 486.891 8.59766 486.281 8.59766C485.672 8.59766 485.18 8.40625 484.805 8.02344C484.43 7.64062 484.242 7.15234 484.242 6.55859C484.242 5.96484 484.43 5.47656 484.805 5.09375C485.18 4.71094 485.672 4.51953 486.281 4.51953C486.891 4.51953 487.383 4.71094 487.758 5.09375ZM490.605 12.3242V11.1172L492.527 10.7656V7.63672L495.398 6.67578H496.125V10.7656H499.957V12.6758H498.645L496.125 12.0781V19.1562C496.125 20.2734 496.684 20.8359 497.801 20.8438C498.184 20.8438 498.555 20.7852 498.914 20.668C499.273 20.543 499.535 20.4258 499.699 20.3164L499.957 20.1172L500.438 20.8438C500.391 20.9062 500.328 20.9961 500.25 21.1133C500.172 21.2227 499.996 21.4141 499.723 21.6875C499.449 21.9531 499.16 22.1914 498.855 22.4023C498.551 22.6055 498.16 22.7969 497.684 22.9766C497.215 23.1484 496.734 23.2344 496.242 23.2344C495.039 23.2344 494.117 22.918 493.477 22.2852C492.844 21.6445 492.527 20.7227 492.527 19.5195V12.3242H490.605ZM506.578 10.4023V19.8828C506.578 20.7656 506.688 21.3477 506.906 21.6289C507.133 21.9023 507.582 22.0391 508.254 22.0391V23H501.293V22.0391L502.969 21.6758V14.5977C502.969 13.668 502.844 13.0352 502.594 12.6992C502.352 12.3633 501.918 12.1953 501.293 12.1953V11.2344C502.145 11.2031 503.008 11.1172 503.883 10.9766C504.766 10.8359 505.438 10.6992 505.898 10.5664L506.578 10.4023ZM506.133 5.09375C506.508 5.47656 506.695 5.96484 506.695 6.55859C506.695 7.15234 506.508 7.64062 506.133 8.02344C505.758 8.40625 505.266 8.59766 504.656 8.59766C504.047 8.59766 503.555 8.40625 503.18 8.02344C502.805 7.64062 502.617 7.15234 502.617 6.55859C502.617 5.96484 502.805 5.47656 503.18 5.09375C503.555 4.71094 504.047 4.51953 504.656 4.51953C505.266 4.51953 505.758 4.71094 506.133 5.09375ZM509.461 17.1172C509.461 15.2266 510.121 13.6562 511.441 12.4062C512.762 11.1484 514.461 10.5195 516.539 10.5195C517.32 10.5195 518.051 10.6094 518.73 10.7891C519.41 10.9609 519.895 11.1445 520.184 11.3398L520.617 11.5977V15.4414H518.941L517.852 12.3242C517.531 12.168 517.094 12.0859 516.539 12.0781C515.641 12.0781 514.875 12.4766 514.242 13.2734C513.609 14.0625 513.293 15.1445 513.293 16.5195C513.293 17.8164 513.637 18.8398 514.324 19.5898C515.012 20.3398 515.91 20.7148 517.02 20.7148C517.66 20.7148 518.266 20.6289 518.836 20.457C519.414 20.2773 519.832 20.1016 520.09 19.9297L520.5 19.6367L521.098 20.2344C521.051 20.3125 520.98 20.4219 520.887 20.5625C520.801 20.7031 520.59 20.9453 520.254 21.2891C519.918 21.6328 519.559 21.9375 519.176 22.2031C518.793 22.4609 518.277 22.6992 517.629 22.918C516.98 23.1289 516.297 23.2344 515.578 23.2344C513.836 23.2344 512.379 22.6523 511.207 21.4883C510.043 20.3164 509.461 18.8594 509.461 17.1172ZM533.332 14.8438V19.1562C533.332 20.0859 533.457 20.7188 533.707 21.0547C533.957 21.3906 534.391 21.5586 535.008 21.5586V22.5195C534.305 22.5508 533.562 22.6289 532.781 22.7539C532 22.8711 531.398 22.9844 530.977 23.0938L530.332 23.2344L530.098 20.9609H529.852C529.805 21.0234 529.738 21.1094 529.652 21.2188C529.574 21.3203 529.402 21.5 529.137 21.7578C528.879 22.0078 528.602 22.2344 528.305 22.4375C528.008 22.6328 527.625 22.8164 527.156 22.9883C526.695 23.1523 526.234 23.2344 525.773 23.2344C524.719 23.2344 523.895 22.9766 523.301 22.4609C522.707 21.9375 522.41 21.2773 522.41 20.4805C522.41 19.7617 522.66 19.1055 523.16 18.5117C523.668 17.918 524.281 17.4531 525 17.1172C525.727 16.7812 526.445 16.5 527.156 16.2734C527.867 16.0391 528.469 15.8828 528.961 15.8047L529.734 15.6758V15.0781C529.734 13.0781 529.016 12.0781 527.578 12.0781C527.367 12.0781 527.141 12.1055 526.898 12.1602C526.656 12.2148 526.465 12.2773 526.324 12.3477L526.137 12.4414L525.293 15.0781H523.371V11.7148C523.527 11.6211 523.754 11.5117 524.051 11.3867C524.348 11.2539 524.938 11.0781 525.82 10.8594C526.703 10.6328 527.566 10.5195 528.41 10.5195C529.996 10.5195 531.211 10.9062 532.055 11.6797C532.906 12.4453 533.332 13.5 533.332 14.8438ZM527.449 20.7148C527.832 20.7148 528.215 20.6172 528.598 20.4219C528.988 20.2188 529.27 20.0234 529.441 19.8359L529.734 19.5195V17C529.641 17.0156 529.512 17.0391 529.348 17.0703C529.191 17.1016 528.902 17.1914 528.48 17.3398C528.066 17.4805 527.699 17.6367 527.379 17.8086C527.059 17.9727 526.77 18.2109 526.512 18.5234C526.262 18.8359 526.137 19.168 526.137 19.5195C526.137 19.8867 526.25 20.1797 526.477 20.3984C526.711 20.6094 527.035 20.7148 527.449 20.7148ZM556.266 15.3242V19.8828C556.266 20.7656 556.375 21.3477 556.594 21.6289C556.82 21.9023 557.27 22.0391 557.941 22.0391V23H551.227V22.0391L552.668 21.6758V15.5586C552.668 13.957 552.066 13.1562 550.863 13.1562C550.48 13.1562 550.102 13.2461 549.727 13.4258C549.352 13.5977 549.066 13.7812 548.871 13.9766L548.578 14.2344C548.656 14.4766 548.699 14.918 548.707 15.5586V19.8828C548.707 20.7656 548.812 21.3477 549.023 21.6289C549.242 21.9023 549.656 22.0391 550.266 22.0391V23H543.668V22.0391L545.098 21.6758V15.5586C545.098 13.957 544.5 13.1562 543.305 13.1562C542.953 13.1562 542.598 13.2383 542.238 13.4023C541.879 13.5586 541.609 13.7188 541.43 13.8828L541.148 14.1172V19.8828C541.148 20.7656 541.254 21.3477 541.465 21.6289C541.684 21.9023 542.098 22.0391 542.707 22.0391V23H535.863V22.0391L537.539 21.6758V14.5977C537.539 13.668 537.414 13.0352 537.164 12.6992C536.922 12.3633 536.488 12.1953 535.863 12.1953V11.2344C536.566 11.2031 537.309 11.1289 538.09 11.0117C538.879 10.8945 539.48 10.7773 539.895 10.6602L540.539 10.5195L540.785 12.6758H541.02C541.051 12.6133 541.102 12.5352 541.172 12.4414C541.25 12.3477 541.41 12.1758 541.652 11.9258C541.902 11.6758 542.168 11.457 542.449 11.2695C542.73 11.0742 543.098 10.9023 543.551 10.7539C544.012 10.5977 544.488 10.5195 544.98 10.5195C545.441 10.5195 545.871 10.5977 546.27 10.7539C546.676 10.9023 546.988 11.082 547.207 11.293C547.434 11.4961 547.629 11.7031 547.793 11.9141C547.965 12.1172 548.086 12.293 548.156 12.4414L548.227 12.6758H548.461C548.492 12.6133 548.547 12.5352 548.625 12.4414C548.711 12.3477 548.879 12.1758 549.129 11.9258C549.387 11.6758 549.664 11.457 549.961 11.2695C550.258 11.0742 550.637 10.9023 551.098 10.7539C551.566 10.5977 552.047 10.5195 552.539 10.5195C553.656 10.5195 554.555 10.9297 555.234 11.75C555.922 12.5625 556.266 13.7539 556.266 15.3242ZM565.383 12.0781C564.805 12.0781 564.305 12.3555 563.883 12.9102C563.461 13.457 563.16 14.3008 562.98 15.4414L567.188 15.0781V14.4805C567.188 13.7305 567.016 13.1445 566.672 12.7227C566.328 12.293 565.898 12.0781 565.383 12.0781ZM565.629 10.5195C567.246 10.5195 568.512 10.9727 569.426 11.8789C570.348 12.7773 570.84 14.043 570.902 15.6758L569.707 16.7656H562.98C563.043 18.0781 563.391 19.0664 564.023 19.7305C564.656 20.3867 565.551 20.7148 566.707 20.7148C567.348 20.7148 567.953 20.6289 568.523 20.457C569.102 20.2773 569.52 20.1016 569.777 19.9297L570.188 19.6367L570.785 20.2344C570.738 20.3125 570.668 20.4219 570.574 20.5625C570.488 20.7031 570.277 20.9453 569.941 21.2891C569.605 21.6328 569.246 21.9375 568.863 22.2031C568.48 22.4609 567.965 22.6992 567.316 22.918C566.668 23.1289 565.984 23.2344 565.266 23.2344C563.523 23.2344 562.066 22.6523 560.895 21.4883C559.73 20.3164 559.148 18.8594 559.148 17.1172C559.148 15.2578 559.777 13.6953 561.035 12.4297C562.293 11.1562 563.824 10.5195 565.629 10.5195ZM585.539 15.3242V19.8828C585.539 20.7656 585.648 21.3477 585.867 21.6289C586.094 21.9023 586.543 22.0391 587.215 22.0391V23H580.254V22.0391L581.93 21.6758V15.5586C581.93 13.957 581.25 13.1562 579.891 13.1562C579.508 13.1562 579.117 13.2461 578.719 13.4258C578.32 13.5977 578.016 13.7812 577.805 13.9766L577.5 14.2344V19.8828C577.5 20.7656 577.609 21.3477 577.828 21.6289C578.055 21.9023 578.504 22.0391 579.176 22.0391V23H572.215V22.0391L573.891 21.6758V14.5977C573.891 13.668 573.766 13.0352 573.516 12.6992C573.273 12.3633 572.84 12.1953 572.215 12.1953V11.2344C572.918 11.2031 573.66 11.1289 574.441 11.0117C575.23 10.8945 575.832 10.7773 576.246 10.6602L576.891 10.5195L577.137 12.8047H577.371C577.418 12.7422 577.48 12.6602 577.559 12.5586C577.645 12.4492 577.824 12.2656 578.098 12.0078C578.371 11.75 578.656 11.5234 578.953 11.3281C579.258 11.125 579.645 10.9414 580.113 10.7773C580.59 10.6055 581.078 10.5195 581.578 10.5195C582.766 10.5195 583.723 10.9414 584.449 11.7852C585.176 12.6211 585.539 13.8008 585.539 15.3242ZM587.707 12.3242V11.1172L589.629 10.7656V7.63672L592.5 6.67578H593.227V10.7656H597.059V12.6758H595.746L593.227 12.0781V19.1562C593.227 20.2734 593.785 20.8359 594.902 20.8438C595.285 20.8438 595.656 20.7852 596.016 20.668C596.375 20.543 596.637 20.4258 596.801 20.3164L597.059 20.1172L597.539 20.8438C597.492 20.9062 597.43 20.9961 597.352 21.1133C597.273 21.2227 597.098 21.4141 596.824 21.6875C596.551 21.9531 596.262 22.1914 595.957 22.4023C595.652 22.6055 595.262 22.7969 594.785 22.9766C594.316 23.1484 593.836 23.2344 593.344 23.2344C592.141 23.2344 591.219 22.918 590.578 22.2852C589.945 21.6445 589.629 20.7227 589.629 19.5195V12.3242H587.707ZM604.992 12.0781C604.414 12.0781 603.914 12.3555 603.492 12.9102C603.07 13.457 602.77 14.3008 602.59 15.4414L606.797 15.0781V14.4805C606.797 13.7305 606.625 13.1445 606.281 12.7227C605.938 12.293 605.508 12.0781 604.992 12.0781ZM605.238 10.5195C606.855 10.5195 608.121 10.9727 609.035 11.8789C609.957 12.7773 610.449 14.043 610.512 15.6758L609.316 16.7656H602.59C602.652 18.0781 603 19.0664 603.633 19.7305C604.266 20.3867 605.16 20.7148 606.316 20.7148C606.957 20.7148 607.562 20.6289 608.133 20.457C608.711 20.2773 609.129 20.1016 609.387 19.9297L609.797 19.6367L610.395 20.2344C610.348 20.3125 610.277 20.4219 610.184 20.5625C610.098 20.7031 609.887 20.9453 609.551 21.2891C609.215 21.6328 608.855 21.9375 608.473 22.2031C608.09 22.4609 607.574 22.6992 606.926 22.918C606.277 23.1289 605.594 23.2344 604.875 23.2344C603.133 23.2344 601.676 22.6523 600.504 21.4883C599.34 20.3164 598.758 18.8594 598.758 17.1172C598.758 15.2578 599.387 13.6953 600.645 12.4297C601.902 11.1562 603.434 10.5195 605.238 10.5195ZM0.84375 47.1172C0.84375 45.2266 1.50391 43.6562 2.82422 42.4062C4.14453 41.1484 5.84375 40.5195 7.92188 40.5195C8.70312 40.5195 9.43359 40.6094 10.1133 40.7891C10.793 40.9609 11.2773 41.1445 11.5664 41.3398L12 41.5977V45.4414H10.3242L9.23438 42.3242C8.91406 42.168 8.47656 42.0859 7.92188 42.0781C7.02344 42.0781 6.25781 42.4766 5.625 43.2734C4.99219 44.0625 4.67578 45.1445 4.67578 46.5195C4.67578 47.8164 5.01953 48.8398 5.70703 49.5898C6.39453 50.3398 7.29297 50.7148 8.40234 50.7148C9.04297 50.7148 9.64844 50.6289 10.2188 50.457C10.7969 50.2773 11.2148 50.1016 11.4727 49.9297L11.8828 49.6367L12.4805 50.2344C12.4336 50.3125 12.3633 50.4219 12.2695 50.5625C12.1836 50.7031 11.9727 50.9453 11.6367 51.2891C11.3008 51.6328 10.9414 51.9375 10.5586 52.2031C10.1758 52.4609 9.66016 52.6992 9.01172 52.918C8.36328 53.1289 7.67969 53.2344 6.96094 53.2344C5.21875 53.2344 3.76172 52.6523 2.58984 51.4883C1.42578 50.3164 0.84375 48.8594 0.84375 47.1172ZM17.6367 46.6367C17.6367 50.0742 18.5977 51.7969 20.5195 51.8047C21.2539 51.8047 21.875 51.418 22.3828 50.6445C22.8984 49.8633 23.1562 48.6875 23.1562 47.1172C23.1562 43.6797 22.1992 41.9609 20.2852 41.9609C19.5508 41.9609 18.9258 42.3477 18.4102 43.1211C17.8945 43.8945 17.6367 45.0664 17.6367 46.6367ZM27 46.7656C27 48.5859 26.3516 50.1211 25.0547 51.3711C23.7578 52.6133 22.125 53.2344 20.1562 53.2344C18.2969 53.2344 16.7734 52.6484 15.5859 51.4766C14.3984 50.2969 13.8047 48.8047 13.8047 47C13.8047 45.1797 14.4492 43.6445 15.7383 42.3945C17.0352 41.1445 18.668 40.5195 20.6367 40.5195C22.4961 40.5195 24.0195 41.1094 25.207 42.2891C26.4023 43.4688 27 44.9609 27 46.7656ZM33.6094 44.3633V49.8828C33.6094 50.7109 33.7578 51.2773 34.0547 51.582C34.3594 51.8867 34.9297 52.0391 35.7656 52.0391V53H28.3242V52.0391L30 51.6758V44.5977C30 43.668 29.875 43.0352 29.625 42.6992C29.3828 42.3633 28.9492 42.1953 28.3242 42.1953V41.2344C29.0273 41.2031 29.7695 41.1289 30.5508 41.0117C31.3398 40.8945 31.9414 40.7773 32.3555 40.6602L33 40.5195L33.2461 42.8047H33.4805C33.5273 42.7422 33.5898 42.6602 33.668 42.5586C33.7539 42.4492 33.9375 42.2656 34.2188 42.0078C34.5 41.75 34.7812 41.5234 35.0625 41.3281C35.3516 41.125 35.7109 40.9414 36.1406 40.7773C36.5781 40.6055 37.0117 40.5195 37.4414 40.5195C37.7617 40.5195 38.0742 40.5508 38.3789 40.6133C38.6836 40.6758 38.8984 40.7422 39.0234 40.8125L39.2461 40.8828V45.1953H37.3242L36.4805 42.9219C35.9492 42.9531 35.4453 43.0898 34.9688 43.332C34.4922 43.5664 34.1484 43.7969 33.9375 44.0234L33.6094 44.3633ZM45.375 44.3633V49.8828C45.375 50.7109 45.5234 51.2773 45.8203 51.582C46.125 51.8867 46.6953 52.0391 47.5312 52.0391V53H40.0898V52.0391L41.7656 51.6758V44.5977C41.7656 43.668 41.6406 43.0352 41.3906 42.6992C41.1484 42.3633 40.7148 42.1953 40.0898 42.1953V41.2344C40.793 41.2031 41.5352 41.1289 42.3164 41.0117C43.1055 40.8945 43.707 40.7773 44.1211 40.6602L44.7656 40.5195L45.0117 42.8047H45.2461C45.293 42.7422 45.3555 42.6602 45.4336 42.5586C45.5195 42.4492 45.7031 42.2656 45.9844 42.0078C46.2656 41.75 46.5469 41.5234 46.8281 41.3281C47.1172 41.125 47.4766 40.9414 47.9062 40.7773C48.3438 40.6055 48.7773 40.5195 49.207 40.5195C49.5273 40.5195 49.8398 40.5508 50.1445 40.6133C50.4492 40.6758 50.6641 40.7422 50.7891 40.8125L51.0117 40.8828V45.1953H49.0898L48.2461 42.9219C47.7148 42.9531 47.2109 43.0898 46.7344 43.332C46.2578 43.5664 45.9141 43.7969 45.7031 44.0234L45.375 44.3633ZM58.2188 42.0781C57.6406 42.0781 57.1406 42.3555 56.7188 42.9102C56.2969 43.457 55.9961 44.3008 55.8164 45.4414L60.0234 45.0781V44.4805C60.0234 43.7305 59.8516 43.1445 59.5078 42.7227C59.1641 42.293 58.7344 42.0781 58.2188 42.0781ZM58.4648 40.5195C60.082 40.5195 61.3477 40.9727 62.2617 41.8789C63.1836 42.7773 63.6758 44.043 63.7383 45.6758L62.543 46.7656H55.8164C55.8789 48.0781 56.2266 49.0664 56.8594 49.7305C57.4922 50.3867 58.3867 50.7148 59.543 50.7148C60.1836 50.7148 60.7891 50.6289 61.3594 50.457C61.9375 50.2773 62.3555 50.1016 62.6133 49.9297L63.0234 49.6367L63.6211 50.2344C63.5742 50.3125 63.5039 50.4219 63.4102 50.5625C63.3242 50.7031 63.1133 50.9453 62.7773 51.2891C62.4414 51.6328 62.082 51.9375 61.6992 52.2031C61.3164 52.4609 60.8008 52.6992 60.1523 52.918C59.5039 53.1289 58.8203 53.2344 58.1016 53.2344C56.3594 53.2344 54.9023 52.6523 53.7305 51.4883C52.5664 50.3164 51.9844 48.8594 51.9844 47.1172C51.9844 45.2578 52.6133 43.6953 53.8711 42.4297C55.1289 41.1562 56.6602 40.5195 58.4648 40.5195ZM64.9336 42.3242V41.1172L66.8555 40.7656V37.6367L69.7266 36.6758H70.4531V40.7656H74.2852V42.6758H72.9727L70.4531 42.0781V49.1562C70.4531 50.2734 71.0117 50.8359 72.1289 50.8438C72.5117 50.8438 72.8828 50.7852 73.2422 50.668C73.6016 50.543 73.8633 50.4258 74.0273 50.3164L74.2852 50.1172L74.7656 50.8438C74.7188 50.9062 74.6562 50.9961 74.5781 51.1133C74.5 51.2227 74.3242 51.4141 74.0508 51.6875C73.7773 51.9531 73.4883 52.1914 73.1836 52.4023C72.8789 52.6055 72.4883 52.7969 72.0117 52.9766C71.543 53.1484 71.0625 53.2344 70.5703 53.2344C69.3672 53.2344 68.4453 52.918 67.8047 52.2852C67.1719 51.6445 66.8555 50.7227 66.8555 49.5195V42.3242H64.9336ZM79.8164 46.6367C79.8164 50.0742 80.7773 51.7969 82.6992 51.8047C83.4336 51.8047 84.0547 51.418 84.5625 50.6445C85.0781 49.8633 85.3359 48.6875 85.3359 47.1172C85.3359 43.6797 84.3789 41.9609 82.4648 41.9609C81.7305 41.9609 81.1055 42.3477 80.5898 43.1211C80.0742 43.8945 79.8164 45.0664 79.8164 46.6367ZM89.1797 46.7656C89.1797 48.5859 88.5312 50.1211 87.2344 51.3711C85.9375 52.6133 84.3047 53.2344 82.3359 53.2344C80.4766 53.2344 78.9531 52.6484 77.7656 51.4766C76.5781 50.2969 75.9844 48.8047 75.9844 47C75.9844 45.1797 76.6289 43.6445 77.918 42.3945C79.2148 41.1445 80.8477 40.5195 82.8164 40.5195C84.6758 40.5195 86.1992 41.1094 87.3867 42.2891C88.582 43.4688 89.1797 44.9609 89.1797 46.7656ZM96.2578 36.3242C96.2578 35.7773 96.4609 35.3008 96.8672 34.8945C97.2812 34.4883 97.7578 34.2852 98.2969 34.2852C98.8438 34.2852 99.3203 34.5039 99.7266 34.9414C100.141 35.3789 100.348 35.918 100.348 36.5586C100.348 37.1836 100.246 37.8008 100.043 38.4102C99.8398 39.0195 99.5977 39.5352 99.3164 39.957C99.043 40.3789 98.7656 40.7578 98.4844 41.0938C98.2031 41.4297 97.957 41.6797 97.7461 41.8438L97.4648 42.0781L96.6211 41.2344C97.582 40.1953 98.1016 39.2383 98.1797 38.3633C97.6328 38.3008 97.1758 38.0781 96.8086 37.6953C96.4414 37.3125 96.2578 36.8555 96.2578 36.3242ZM90.9844 36.3242C90.9844 35.7773 91.1875 35.3008 91.5938 34.8945C92 34.4883 92.4766 34.2852 93.0234 34.2852C93.5703 34.2852 94.0469 34.5039 94.4531 34.9414C94.8594 35.3789 95.0625 35.918 95.0625 36.5586C95.0625 37.1836 94.9609 37.8008 94.7578 38.4102C94.5625 39.0195 94.3242 39.5352 94.043 39.957C93.7617 40.3789 93.4805 40.7578 93.1992 41.0938C92.9258 41.4297 92.6836 41.6797 92.4727 41.8438L92.1797 42.0781L91.3477 41.2344C92.3086 40.1953 92.8281 39.2383 92.9062 38.3633C92.3594 38.3008 91.9023 38.0781 91.5352 37.6953C91.168 37.3125 90.9844 36.8555 90.9844 36.3242ZM115.453 42.0781C114.875 42.0781 114.375 42.3555 113.953 42.9102C113.531 43.457 113.23 44.3008 113.051 45.4414L117.258 45.0781V44.4805C117.258 43.7305 117.086 43.1445 116.742 42.7227C116.398 42.293 115.969 42.0781 115.453 42.0781ZM115.699 40.5195C117.316 40.5195 118.582 40.9727 119.496 41.8789C120.418 42.7773 120.91 44.043 120.973 45.6758L119.777 46.7656H113.051C113.113 48.0781 113.461 49.0664 114.094 49.7305C114.727 50.3867 115.621 50.7148 116.777 50.7148C117.418 50.7148 118.023 50.6289 118.594 50.457C119.172 50.2773 119.59 50.1016 119.848 49.9297L120.258 49.6367L120.855 50.2344C120.809 50.3125 120.738 50.4219 120.645 50.5625C120.559 50.7031 120.348 50.9453 120.012 51.2891C119.676 51.6328 119.316 51.9375 118.934 52.2031C118.551 52.4609 118.035 52.6992 117.387 52.918C116.738 53.1289 116.055 53.2344 115.336 53.2344C113.594 53.2344 112.137 52.6523 110.965 51.4883C109.801 50.3164 109.219 48.8594 109.219 47.1172C109.219 45.2578 109.848 43.6953 111.105 42.4297C112.363 41.1562 113.895 40.5195 115.699 40.5195ZM129.246 50C129.246 49.6172 129.027 49.2617 128.59 48.9336C128.16 48.6055 127.641 48.3086 127.031 48.043C126.43 47.7773 125.824 47.4844 125.215 47.1641C124.605 46.8438 124.082 46.4141 123.645 45.875C123.215 45.3281 123 44.7031 123 44C123 42.9766 123.422 42.1406 124.266 41.4922C125.117 40.8438 126.375 40.5195 128.039 40.5195C128.711 40.5195 129.367 40.5938 130.008 40.7422C130.648 40.8828 131.121 41.0156 131.426 41.1406L131.883 41.3633V44.4805H130.688C130.508 43.582 130.23 42.9375 129.855 42.5469C129.48 42.1562 128.957 41.9609 128.285 41.9609C127.754 41.9609 127.34 42.0898 127.043 42.3477C126.754 42.5977 126.609 42.9102 126.609 43.2852C126.609 43.7148 126.824 44.0859 127.254 44.3984C127.684 44.7109 128.203 44.9805 128.812 45.207C129.422 45.4258 130.027 45.6758 130.629 45.957C131.238 46.2383 131.758 46.6523 132.188 47.1992C132.625 47.7383 132.844 48.3906 132.844 49.1562C132.844 50.2891 132.355 51.2539 131.379 52.0508C130.402 52.8398 129.051 53.2344 127.324 53.2344C126.512 53.2344 125.711 53.1562 124.922 53C124.141 52.8438 123.566 52.6836 123.199 52.5195L122.648 52.2852V48.5586H123.844C124.211 50.7148 125.293 51.7969 127.09 51.8047C127.73 51.8047 128.25 51.6289 128.648 51.2773C129.047 50.918 129.246 50.4922 129.246 50ZM134.051 42.3242V41.1172L135.973 40.7656V37.6367L138.844 36.6758H139.57V40.7656H143.402V42.6758H142.09L139.57 42.0781V49.1562C139.57 50.2734 140.129 50.8359 141.246 50.8438C141.629 50.8438 142 50.7852 142.359 50.668C142.719 50.543 142.98 50.4258 143.145 50.3164L143.402 50.1172L143.883 50.8438C143.836 50.9062 143.773 50.9961 143.695 51.1133C143.617 51.2227 143.441 51.4141 143.168 51.6875C142.895 51.9531 142.605 52.1914 142.301 52.4023C141.996 52.6055 141.605 52.7969 141.129 52.9766C140.66 53.1484 140.18 53.2344 139.688 53.2344C138.484 53.2344 137.562 52.918 136.922 52.2852C136.289 51.6445 135.973 50.7227 135.973 49.5195V42.3242H134.051ZM155.777 44.8438V49.1562C155.777 50.0859 155.902 50.7188 156.152 51.0547C156.402 51.3906 156.836 51.5586 157.453 51.5586V52.5195C156.75 52.5508 156.008 52.6289 155.227 52.7539C154.445 52.8711 153.844 52.9844 153.422 53.0938L152.777 53.2344L152.543 50.9609H152.297C152.25 51.0234 152.184 51.1094 152.098 51.2188C152.02 51.3203 151.848 51.5 151.582 51.7578C151.324 52.0078 151.047 52.2344 150.75 52.4375C150.453 52.6328 150.07 52.8164 149.602 52.9883C149.141 53.1523 148.68 53.2344 148.219 53.2344C147.164 53.2344 146.34 52.9766 145.746 52.4609C145.152 51.9375 144.855 51.2773 144.855 50.4805C144.855 49.7617 145.105 49.1055 145.605 48.5117C146.113 47.918 146.727 47.4531 147.445 47.1172C148.172 46.7812 148.891 46.5 149.602 46.2734C150.312 46.0391 150.914 45.8828 151.406 45.8047L152.18 45.6758V45.0781C152.18 43.0781 151.461 42.0781 150.023 42.0781C149.812 42.0781 149.586 42.1055 149.344 42.1602C149.102 42.2148 148.91 42.2773 148.77 42.3477L148.582 42.4414L147.738 45.0781H145.816V41.7148C145.973 41.6211 146.199 41.5117 146.496 41.3867C146.793 41.2539 147.383 41.0781 148.266 40.8594C149.148 40.6328 150.012 40.5195 150.855 40.5195C152.441 40.5195 153.656 40.9062 154.5 41.6797C155.352 42.4453 155.777 43.5 155.777 44.8438ZM149.895 50.7148C150.277 50.7148 150.66 50.6172 151.043 50.4219C151.434 50.2188 151.715 50.0234 151.887 49.8359L152.18 49.5195V47C152.086 47.0156 151.957 47.0391 151.793 47.0703C151.637 47.1016 151.348 47.1914 150.926 47.3398C150.512 47.4805 150.145 47.6367 149.824 47.8086C149.504 47.9727 149.215 48.2109 148.957 48.5234C148.707 48.8359 148.582 49.168 148.582 49.5195C148.582 49.8867 148.695 50.1797 148.922 50.3984C149.156 50.6094 149.48 50.7148 149.895 50.7148ZM151.102 38.9609H150.258V37.8828L152.777 34.5195H155.062V36.3242L151.102 38.9609ZM176.426 44.8438V49.1562C176.426 50.0859 176.551 50.7188 176.801 51.0547C177.051 51.3906 177.484 51.5586 178.102 51.5586V52.5195C177.398 52.5508 176.656 52.6289 175.875 52.7539C175.094 52.8711 174.492 52.9844 174.07 53.0938L173.426 53.2344L173.191 50.9609H172.945C172.898 51.0234 172.832 51.1094 172.746 51.2188C172.668 51.3203 172.496 51.5 172.23 51.7578C171.973 52.0078 171.695 52.2344 171.398 52.4375C171.102 52.6328 170.719 52.8164 170.25 52.9883C169.789 53.1523 169.328 53.2344 168.867 53.2344C167.812 53.2344 166.988 52.9766 166.395 52.4609C165.801 51.9375 165.504 51.2773 165.504 50.4805C165.504 49.7617 165.754 49.1055 166.254 48.5117C166.762 47.918 167.375 47.4531 168.094 47.1172C168.82 46.7812 169.539 46.5 170.25 46.2734C170.961 46.0391 171.562 45.8828 172.055 45.8047L172.828 45.6758V45.0781C172.828 43.0781 172.109 42.0781 170.672 42.0781C170.461 42.0781 170.234 42.1055 169.992 42.1602C169.75 42.2148 169.559 42.2773 169.418 42.3477L169.23 42.4414L168.387 45.0781H166.465V41.7148C166.621 41.6211 166.848 41.5117 167.145 41.3867C167.441 41.2539 168.031 41.0781 168.914 40.8594C169.797 40.6328 170.66 40.5195 171.504 40.5195C173.09 40.5195 174.305 40.9062 175.148 41.6797C176 42.4453 176.426 43.5 176.426 44.8438ZM170.543 50.7148C170.926 50.7148 171.309 50.6172 171.691 50.4219C172.082 50.2188 172.363 50.0234 172.535 49.8359L172.828 49.5195V47C172.734 47.0156 172.605 47.0391 172.441 47.0703C172.285 47.1016 171.996 47.1914 171.574 47.3398C171.16 47.4805 170.793 47.6367 170.473 47.8086C170.152 47.9727 169.863 48.2109 169.605 48.5234C169.355 48.8359 169.23 49.168 169.23 49.5195C169.23 49.8867 169.344 50.1797 169.57 50.3984C169.805 50.6094 170.129 50.7148 170.543 50.7148ZM192.996 40.5195C193.316 40.5195 193.637 40.5508 193.957 40.6133C194.277 40.6758 194.516 40.7422 194.672 40.8125L194.918 40.8828V37.7656C194.918 36.8359 194.793 36.2031 194.543 35.8672C194.293 35.5312 193.855 35.3633 193.23 35.3633V34.4023C194.012 34.3711 194.844 34.2852 195.727 34.1445C196.609 33.9961 197.297 33.8672 197.789 33.7578L198.516 33.5586V49.1562C198.516 50.0859 198.637 50.7188 198.879 51.0547C199.129 51.3906 199.566 51.5586 200.191 51.5586V52.5195C199.488 52.5508 198.742 52.6289 197.953 52.7539C197.172 52.8711 196.574 52.9844 196.16 53.0938L195.516 53.2344L195.27 50.9609H195.035C194.988 51.0234 194.922 51.1094 194.836 51.2188C194.758 51.3203 194.586 51.5 194.32 51.7578C194.062 52.0078 193.785 52.2344 193.488 52.4375C193.191 52.6328 192.809 52.8164 192.34 52.9883C191.879 53.1523 191.418 53.2344 190.957 53.2344C189.707 53.2344 188.633 52.707 187.734 51.6523C186.844 50.5977 186.398 49.207 186.398 47.4805C186.398 45.4023 187.012 43.7227 188.238 42.4414C189.473 41.1602 191.059 40.5195 192.996 40.5195ZM192.879 42.0781C192.098 42.0781 191.441 42.4648 190.91 43.2383C190.379 44.0039 190.113 45.1797 190.113 46.7656C190.113 48.0781 190.34 49.0469 190.793 49.6719C191.254 50.2891 191.867 50.5977 192.633 50.5977C193.016 50.5977 193.398 50.5117 193.781 50.3398C194.172 50.1602 194.453 49.9766 194.625 49.7891L194.918 49.5195V42.9219C194.441 42.3594 193.762 42.0781 192.879 42.0781ZM212.074 44.8438V49.1562C212.074 50.0859 212.199 50.7188 212.449 51.0547C212.699 51.3906 213.133 51.5586 213.75 51.5586V52.5195C213.047 52.5508 212.305 52.6289 211.523 52.7539C210.742 52.8711 210.141 52.9844 209.719 53.0938L209.074 53.2344L208.84 50.9609H208.594C208.547 51.0234 208.48 51.1094 208.395 51.2188C208.316 51.3203 208.145 51.5 207.879 51.7578C207.621 52.0078 207.344 52.2344 207.047 52.4375C206.75 52.6328 206.367 52.8164 205.898 52.9883C205.438 53.1523 204.977 53.2344 204.516 53.2344C203.461 53.2344 202.637 52.9766 202.043 52.4609C201.449 51.9375 201.152 51.2773 201.152 50.4805C201.152 49.7617 201.402 49.1055 201.902 48.5117C202.41 47.918 203.023 47.4531 203.742 47.1172C204.469 46.7812 205.188 46.5 205.898 46.2734C206.609 46.0391 207.211 45.8828 207.703 45.8047L208.477 45.6758V45.0781C208.477 43.0781 207.758 42.0781 206.32 42.0781C206.109 42.0781 205.883 42.1055 205.641 42.1602C205.398 42.2148 205.207 42.2773 205.066 42.3477L204.879 42.4414L204.035 45.0781H202.113V41.7148C202.27 41.6211 202.496 41.5117 202.793 41.3867C203.09 41.2539 203.68 41.0781 204.562 40.8594C205.445 40.6328 206.309 40.5195 207.152 40.5195C208.738 40.5195 209.953 40.9062 210.797 41.6797C211.648 42.4453 212.074 43.5 212.074 44.8438ZM206.191 50.7148C206.574 50.7148 206.957 50.6172 207.34 50.4219C207.73 50.2188 208.012 50.0234 208.184 49.8359L208.477 49.5195V47C208.383 47.0156 208.254 47.0391 208.09 47.0703C207.934 47.1016 207.645 47.1914 207.223 47.3398C206.809 47.4805 206.441 47.6367 206.121 47.8086C205.801 47.9727 205.512 48.2109 205.254 48.5234C205.004 48.8359 204.879 49.168 204.879 49.5195C204.879 49.8867 204.992 50.1797 205.219 50.3984C205.453 50.6094 205.777 50.7148 206.191 50.7148ZM227.93 45.3242V49.8828C227.93 50.7656 228.039 51.3477 228.258 51.6289C228.484 51.9023 228.934 52.0391 229.605 52.0391V53H222.645V52.0391L224.32 51.6758V45.5586C224.32 43.957 223.641 43.1562 222.281 43.1562C221.898 43.1562 221.508 43.2461 221.109 43.4258C220.711 43.5977 220.406 43.7812 220.195 43.9766L219.891 44.2344V49.8828C219.891 50.7656 220 51.3477 220.219 51.6289C220.445 51.9023 220.895 52.0391 221.566 52.0391V53H214.605V52.0391L216.281 51.6758V44.5977C216.281 43.668 216.156 43.0352 215.906 42.6992C215.664 42.3633 215.23 42.1953 214.605 42.1953V41.2344C215.309 41.2031 216.051 41.1289 216.832 41.0117C217.621 40.8945 218.223 40.7773 218.637 40.6602L219.281 40.5195L219.527 42.8047H219.762C219.809 42.7422 219.871 42.6602 219.949 42.5586C220.035 42.4492 220.215 42.2656 220.488 42.0078C220.762 41.75 221.047 41.5234 221.344 41.3281C221.648 41.125 222.035 40.9414 222.504 40.7773C222.98 40.6055 223.469 40.5195 223.969 40.5195C225.156 40.5195 226.113 40.9414 226.84 41.7852C227.566 42.6211 227.93 43.8008 227.93 45.3242ZM235.734 40.4023V49.8828C235.734 50.7656 235.844 51.3477 236.062 51.6289C236.289 51.9023 236.738 52.0391 237.41 52.0391V53H230.449V52.0391L232.125 51.6758V44.5977C232.125 43.668 232 43.0352 231.75 42.6992C231.508 42.3633 231.074 42.1953 230.449 42.1953V41.2344C231.301 41.2031 232.164 41.1172 233.039 40.9766C233.922 40.8359 234.594 40.6992 235.055 40.5664L235.734 40.4023ZM235.289 35.0938C235.664 35.4766 235.852 35.9648 235.852 36.5586C235.852 37.1523 235.664 37.6406 235.289 38.0234C234.914 38.4062 234.422 38.5977 233.812 38.5977C233.203 38.5977 232.711 38.4062 232.336 38.0234C231.961 37.6406 231.773 37.1523 231.773 36.5586C231.773 35.9648 231.961 35.4766 232.336 35.0938C232.711 34.7109 233.203 34.5195 233.812 34.5195C234.422 34.5195 234.914 34.7109 235.289 35.0938ZM248.449 51.6758V42.5586H247.137L243.539 42.0781V49.9062C243.539 50.7891 243.648 51.3672 243.867 51.6406C244.094 51.9062 244.543 52.0391 245.215 52.0391V53H238.254V52.0625L239.93 51.6992V42.3242H238.137V41.1172L239.93 40.7656V38.1172C239.93 36.6484 240.422 35.4844 241.406 34.625C242.391 33.7578 243.82 33.3242 245.695 33.3242C246.688 33.3242 247.715 33.457 248.777 33.7227C249.84 33.9805 250.652 34.2461 251.215 34.5195L252.059 34.9062V38.3633H249.539L248.695 35.7148C247.977 35.2383 247.137 35 246.176 35C245.324 35 244.672 35.2383 244.219 35.7148C243.766 36.1836 243.539 36.8672 243.539 37.7656V40.7656H252.059V49.8828C252.059 50.7656 252.168 51.3477 252.387 51.6289C252.613 51.9023 253.062 52.0391 253.734 52.0391V53H246.891V52.0391L248.449 51.6758ZM254.93 47.1172C254.93 45.2266 255.59 43.6562 256.91 42.4062C258.23 41.1484 259.93 40.5195 262.008 40.5195C262.789 40.5195 263.52 40.6094 264.199 40.7891C264.879 40.9609 265.363 41.1445 265.652 41.3398L266.086 41.5977V45.4414H264.41L263.32 42.3242C263 42.168 262.562 42.0859 262.008 42.0781C261.109 42.0781 260.344 42.4766 259.711 43.2734C259.078 44.0625 258.762 45.1445 258.762 46.5195C258.762 47.8164 259.105 48.8398 259.793 49.5898C260.48 50.3398 261.379 50.7148 262.488 50.7148C263.129 50.7148 263.734 50.6289 264.305 50.457C264.883 50.2773 265.301 50.1016 265.559 49.9297L265.969 49.6367L266.566 50.2344C266.52 50.3125 266.449 50.4219 266.355 50.5625C266.27 50.7031 266.059 50.9453 265.723 51.2891C265.387 51.6328 265.027 51.9375 264.645 52.2031C264.262 52.4609 263.746 52.6992 263.098 52.918C262.449 53.1289 261.766 53.2344 261.047 53.2344C259.305 53.2344 257.848 52.6523 256.676 51.4883C255.512 50.3164 254.93 48.8594 254.93 47.1172ZM278.801 44.8438V49.1562C278.801 50.0859 278.926 50.7188 279.176 51.0547C279.426 51.3906 279.859 51.5586 280.477 51.5586V52.5195C279.773 52.5508 279.031 52.6289 278.25 52.7539C277.469 52.8711 276.867 52.9844 276.445 53.0938L275.801 53.2344L275.566 50.9609H275.32C275.273 51.0234 275.207 51.1094 275.121 51.2188C275.043 51.3203 274.871 51.5 274.605 51.7578C274.348 52.0078 274.07 52.2344 273.773 52.4375C273.477 52.6328 273.094 52.8164 272.625 52.9883C272.164 53.1523 271.703 53.2344 271.242 53.2344C270.188 53.2344 269.363 52.9766 268.77 52.4609C268.176 51.9375 267.879 51.2773 267.879 50.4805C267.879 49.7617 268.129 49.1055 268.629 48.5117C269.137 47.918 269.75 47.4531 270.469 47.1172C271.195 46.7812 271.914 46.5 272.625 46.2734C273.336 46.0391 273.938 45.8828 274.43 45.8047L275.203 45.6758V45.0781C275.203 43.0781 274.484 42.0781 273.047 42.0781C272.836 42.0781 272.609 42.1055 272.367 42.1602C272.125 42.2148 271.934 42.2773 271.793 42.3477L271.605 42.4414L270.762 45.0781H268.84V41.7148C268.996 41.6211 269.223 41.5117 269.52 41.3867C269.816 41.2539 270.406 41.0781 271.289 40.8594C272.172 40.6328 273.035 40.5195 273.879 40.5195C275.465 40.5195 276.68 40.9062 277.523 41.6797C278.375 42.4453 278.801 43.5 278.801 44.8438ZM272.918 50.7148C273.301 50.7148 273.684 50.6172 274.066 50.4219C274.457 50.2188 274.738 50.0234 274.91 49.8359L275.203 49.5195V47C275.109 47.0156 274.98 47.0391 274.816 47.0703C274.66 47.1016 274.371 47.1914 273.949 47.3398C273.535 47.4805 273.168 47.6367 272.848 47.8086C272.527 47.9727 272.238 48.2109 271.98 48.5234C271.73 48.8359 271.605 49.168 271.605 49.5195C271.605 49.8867 271.719 50.1797 271.945 50.3984C272.18 50.6094 272.504 50.7148 272.918 50.7148ZM286.617 44.3633V49.8828C286.617 50.7109 286.766 51.2773 287.062 51.582C287.367 51.8867 287.938 52.0391 288.773 52.0391V53H281.332V52.0391L283.008 51.6758V44.5977C283.008 43.668 282.883 43.0352 282.633 42.6992C282.391 42.3633 281.957 42.1953 281.332 42.1953V41.2344C282.035 41.2031 282.777 41.1289 283.559 41.0117C284.348 40.8945 284.949 40.7773 285.363 40.6602L286.008 40.5195L286.254 42.8047H286.488C286.535 42.7422 286.598 42.6602 286.676 42.5586C286.762 42.4492 286.945 42.2656 287.227 42.0078C287.508 41.75 287.789 41.5234 288.07 41.3281C288.359 41.125 288.719 40.9414 289.148 40.7773C289.586 40.6055 290.02 40.5195 290.449 40.5195C290.77 40.5195 291.082 40.5508 291.387 40.6133C291.691 40.6758 291.906 40.7422 292.031 40.8125L292.254 40.8828V45.1953H290.332L289.488 42.9219C288.957 42.9531 288.453 43.0898 287.977 43.332C287.5 43.5664 287.156 43.7969 286.945 44.0234L286.617 44.3633ZM310.488 44.8438V49.1562C310.488 50.0859 310.613 50.7188 310.863 51.0547C311.113 51.3906 311.547 51.5586 312.164 51.5586V52.5195C311.461 52.5508 310.719 52.6289 309.938 52.7539C309.156 52.8711 308.555 52.9844 308.133 53.0938L307.488 53.2344L307.254 50.9609H307.008C306.961 51.0234 306.895 51.1094 306.809 51.2188C306.73 51.3203 306.559 51.5 306.293 51.7578C306.035 52.0078 305.758 52.2344 305.461 52.4375C305.164 52.6328 304.781 52.8164 304.312 52.9883C303.852 53.1523 303.391 53.2344 302.93 53.2344C301.875 53.2344 301.051 52.9766 300.457 52.4609C299.863 51.9375 299.566 51.2773 299.566 50.4805C299.566 49.7617 299.816 49.1055 300.316 48.5117C300.824 47.918 301.438 47.4531 302.156 47.1172C302.883 46.7812 303.602 46.5 304.312 46.2734C305.023 46.0391 305.625 45.8828 306.117 45.8047L306.891 45.6758V45.0781C306.891 43.0781 306.172 42.0781 304.734 42.0781C304.523 42.0781 304.297 42.1055 304.055 42.1602C303.812 42.2148 303.621 42.2773 303.48 42.3477L303.293 42.4414L302.449 45.0781H300.527V41.7148C300.684 41.6211 300.91 41.5117 301.207 41.3867C301.504 41.2539 302.094 41.0781 302.977 40.8594C303.859 40.6328 304.723 40.5195 305.566 40.5195C307.152 40.5195 308.367 40.9062 309.211 41.6797C310.062 42.4453 310.488 43.5 310.488 44.8438ZM304.605 50.7148C304.988 50.7148 305.371 50.6172 305.754 50.4219C306.145 50.2188 306.426 50.0234 306.598 49.8359L306.891 49.5195V47C306.797 47.0156 306.668 47.0391 306.504 47.0703C306.348 47.1016 306.059 47.1914 305.637 47.3398C305.223 47.4805 304.855 47.6367 304.535 47.8086C304.215 47.9727 303.926 48.2109 303.668 48.5234C303.418 48.8359 303.293 49.168 303.293 49.5195C303.293 49.8867 303.406 50.1797 303.633 50.3984C303.867 50.6094 304.191 50.7148 304.605 50.7148ZM330.293 51.6758V42.5586H328.98L325.383 42.0781V49.9062C325.383 50.7891 325.492 51.3672 325.711 51.6406C325.938 51.9062 326.387 52.0391 327.059 52.0391V53H320.098V52.0625L321.773 51.6992V42.3242H319.98V41.1172L321.773 40.7656V38.1172C321.773 36.6484 322.266 35.4844 323.25 34.625C324.234 33.7578 325.664 33.3242 327.539 33.3242C328.531 33.3242 329.559 33.457 330.621 33.7227C331.684 33.9805 332.496 34.2461 333.059 34.5195L333.902 34.9062V38.3633H331.383L330.539 35.7148C329.82 35.2383 328.98 35 328.02 35C327.168 35 326.516 35.2383 326.062 35.7148C325.609 36.1836 325.383 36.8672 325.383 37.7656V40.7656H333.902V49.8828C333.902 50.7656 334.012 51.3477 334.23 51.6289C334.457 51.9023 334.906 52.0391 335.578 52.0391V53H328.734V52.0391L330.293 51.6758ZM336.773 47.1172C336.773 45.2266 337.434 43.6562 338.754 42.4062C340.074 41.1484 341.773 40.5195 343.852 40.5195C344.633 40.5195 345.363 40.6094 346.043 40.7891C346.723 40.9609 347.207 41.1445 347.496 41.3398L347.93 41.5977V45.4414H346.254L345.164 42.3242C344.844 42.168 344.406 42.0859 343.852 42.0781C342.953 42.0781 342.188 42.4766 341.555 43.2734C340.922 44.0625 340.605 45.1445 340.605 46.5195C340.605 47.8164 340.949 48.8398 341.637 49.5898C342.324 50.3398 343.223 50.7148 344.332 50.7148C344.973 50.7148 345.578 50.6289 346.148 50.457C346.727 50.2773 347.145 50.1016 347.402 49.9297L347.812 49.6367L348.41 50.2344C348.363 50.3125 348.293 50.4219 348.199 50.5625C348.113 50.7031 347.902 50.9453 347.566 51.2891C347.23 51.6328 346.871 51.9375 346.488 52.2031C346.105 52.4609 345.59 52.6992 344.941 52.918C344.293 53.1289 343.609 53.2344 342.891 53.2344C341.148 53.2344 339.691 52.6523 338.52 51.4883C337.355 50.3164 336.773 48.8594 336.773 47.1172ZM354.41 54.9219L355.125 53.2344C353.586 53.0391 352.301 52.3828 351.27 51.2656C350.246 50.1484 349.734 48.7656 349.734 47.1172C349.734 45.2266 350.395 43.6562 351.715 42.4062C353.035 41.1484 354.734 40.5195 356.812 40.5195C357.594 40.5195 358.324 40.6094 359.004 40.7891C359.684 40.9609 360.168 41.1445 360.457 41.3398L360.891 41.5977V45.4414H359.215L358.125 42.3242C357.805 42.168 357.367 42.0859 356.812 42.0781C355.914 42.0781 355.148 42.4766 354.516 43.2734C353.883 44.0625 353.566 45.1445 353.566 46.5195C353.566 47.8164 353.91 48.8398 354.598 49.5898C355.285 50.3398 356.184 50.7148 357.293 50.7148C357.934 50.7148 358.539 50.6289 359.109 50.457C359.688 50.2773 360.105 50.1016 360.363 49.9297L360.773 49.6367L361.371 50.2344C361.324 50.3125 361.258 50.4141 361.172 50.5391C361.094 50.6562 360.898 50.8789 360.586 51.207C360.273 51.5352 359.938 51.8281 359.578 52.0859C359.219 52.3438 358.734 52.5898 358.125 52.8242C357.523 53.0508 356.887 53.1875 356.215 53.2344L355.605 54.5586C355.926 54.4805 356.246 54.4414 356.566 54.4414C357.098 54.4414 357.551 54.6211 357.926 54.9805C358.301 55.3398 358.488 55.7578 358.488 56.2344C358.488 57.0156 358.117 57.6719 357.375 58.2031C356.633 58.7344 355.523 59 354.047 59L354.293 57.9219C355.652 57.8125 356.332 57.332 356.332 56.4805C356.332 56.1914 356.25 55.957 356.086 55.7773C355.93 55.6055 355.73 55.5195 355.488 55.5195L354.891 55.6367L354.41 54.9219ZM373.605 44.8438V49.1562C373.605 50.0859 373.73 50.7188 373.98 51.0547C374.23 51.3906 374.664 51.5586 375.281 51.5586V52.5195C374.578 52.5508 373.836 52.6289 373.055 52.7539C372.273 52.8711 371.672 52.9844 371.25 53.0938L370.605 53.2344L370.371 50.9609H370.125C370.078 51.0234 370.012 51.1094 369.926 51.2188C369.848 51.3203 369.676 51.5 369.41 51.7578C369.152 52.0078 368.875 52.2344 368.578 52.4375C368.281 52.6328 367.898 52.8164 367.43 52.9883C366.969 53.1523 366.508 53.2344 366.047 53.2344C364.992 53.2344 364.168 52.9766 363.574 52.4609C362.98 51.9375 362.684 51.2773 362.684 50.4805C362.684 49.7617 362.934 49.1055 363.434 48.5117C363.941 47.918 364.555 47.4531 365.273 47.1172C366 46.7812 366.719 46.5 367.43 46.2734C368.141 46.0391 368.742 45.8828 369.234 45.8047L370.008 45.6758V45.0781C370.008 43.0781 369.289 42.0781 367.852 42.0781C367.641 42.0781 367.414 42.1055 367.172 42.1602C366.93 42.2148 366.738 42.2773 366.598 42.3477L366.41 42.4414L365.566 45.0781H363.645V41.7148C363.801 41.6211 364.027 41.5117 364.324 41.3867C364.621 41.2539 365.211 41.0781 366.094 40.8594C366.977 40.6328 367.84 40.5195 368.684 40.5195C370.27 40.5195 371.484 40.9062 372.328 41.6797C373.18 42.4453 373.605 43.5 373.605 44.8438ZM367.723 50.7148C368.105 50.7148 368.488 50.6172 368.871 50.4219C369.262 50.2188 369.543 50.0234 369.715 49.8359L370.008 49.5195V47C369.914 47.0156 369.785 47.0391 369.621 47.0703C369.465 47.1016 369.176 47.1914 368.754 47.3398C368.34 47.4805 367.973 47.6367 367.652 47.8086C367.332 47.9727 367.043 48.2109 366.785 48.5234C366.535 48.8359 366.41 49.168 366.41 49.5195C366.41 49.8867 366.523 50.1797 366.75 50.3984C366.984 50.6094 367.309 50.7148 367.723 50.7148ZM369.762 38.1172L368.086 37.6367C367.523 37.4805 367.082 37.4023 366.762 37.4023C366.395 37.4023 366.074 37.6797 365.801 38.2344L364.969 38L365.32 36.8047C365.625 35.7656 366.188 35.2422 367.008 35.2344C367.148 35.2344 367.328 35.2578 367.547 35.3047C367.766 35.3438 367.945 35.3867 368.086 35.4336L368.32 35.4805L370.008 35.9609C370.57 36.1172 371.008 36.1953 371.32 36.1953C371.688 36.1953 372.008 35.918 372.281 35.3633L373.125 35.5977L372.762 36.8047C372.457 37.8438 371.898 38.3633 371.086 38.3633C370.945 38.3633 370.766 38.3438 370.547 38.3047C370.328 38.2578 370.148 38.2109 370.008 38.1641L369.762 38.1172ZM380.332 46.6367C380.332 50.0742 381.293 51.7969 383.215 51.8047C383.949 51.8047 384.57 51.418 385.078 50.6445C385.594 49.8633 385.852 48.6875 385.852 47.1172C385.852 43.6797 384.895 41.9609 382.98 41.9609C382.246 41.9609 381.621 42.3477 381.105 43.1211C380.59 43.8945 380.332 45.0664 380.332 46.6367ZM389.695 46.7656C389.695 48.5859 389.047 50.1211 387.75 51.3711C386.453 52.6133 384.82 53.2344 382.852 53.2344C380.992 53.2344 379.469 52.6484 378.281 51.4766C377.094 50.2969 376.5 48.8047 376.5 47C376.5 45.1797 377.145 43.6445 378.434 42.3945C379.73 41.1445 381.363 40.5195 383.332 40.5195C385.191 40.5195 386.715 41.1094 387.902 42.2891C389.098 43.4688 389.695 44.9609 389.695 46.7656Z" fill="white"/>
</svg>
