<svg width="164" height="21" viewBox="0 0 164 21" fill="none" xmlns="http://www.w3.org/2000/svg">
<path d="M20.125 2.59766L20.9688 17C21.0156 17.8984 21.1914 18.5039 21.4961 18.8164C21.8008 19.1289 22.3438 19.2852 23.125 19.2852V20H16.7734V19.4023L18.8125 18.9219L18.0859 4.63672H17.9688L12.2031 20H11.0078L4.41016 4.63672H4.29297L3.8125 16.6367C3.76562 17.7539 3.85156 18.4766 4.07031 18.8047C4.29688 19.125 4.80859 19.2852 5.60547 19.2852V20H0.203125V19.4023L2.24219 18.9219L2.85156 4.63672C2.89844 3.62891 2.79297 2.97656 2.53516 2.67969C2.27734 2.38281 1.70312 2.23438 0.8125 2.23438V1.51953H5.37109L11.875 16.8828H11.9688L17.6055 1.51953H22.1641V2.11719L20.125 2.59766ZM32.4766 18.0781C32.4453 18.1406 32.3945 18.2227 32.3242 18.3242C32.2539 18.418 32.0977 18.5898 31.8555 18.8398C31.6133 19.082 31.3555 19.3008 31.082 19.4961C30.8164 19.6914 30.457 19.8633 30.0039 20.0117C29.5586 20.1602 29.1055 20.2344 28.6445 20.2344C27.6523 20.2344 26.8828 19.9961 26.3359 19.5195C25.7891 19.043 25.5156 18.4023 25.5156 17.5977C25.5156 16.9258 25.7578 16.3125 26.2422 15.7578C26.7344 15.1953 27.3281 14.7539 28.0234 14.4336C28.7266 14.1133 29.4219 13.8438 30.1094 13.625C30.7969 13.3984 31.3789 13.2422 31.8555 13.1562L32.6055 13.0391V11.8438C32.6055 9.76562 31.7656 8.72266 30.0859 8.71484C29.7969 8.71484 29.4922 8.76562 29.1719 8.86719C28.8516 8.96094 28.6016 9.05469 28.4219 9.14844L28.1641 9.32422L27.3203 11.8438H26.2422V9.07812C26.4219 8.98438 26.6641 8.86719 26.9688 8.72656C27.2812 8.57812 27.8477 8.38281 28.668 8.14062C29.4961 7.89062 30.2461 7.76562 30.918 7.76562C32.0664 7.76562 32.9727 8.12109 33.6367 8.83203C34.3086 9.54297 34.6445 10.5469 34.6445 11.8438V16.7656C34.6445 17.5312 34.7695 18.0625 35.0195 18.3594C35.2773 18.6562 35.7109 18.8047 36.3203 18.8047V19.4023C35.7891 19.4648 35.2305 19.5703 34.6445 19.7188C34.0664 19.8594 33.6172 19.9844 33.2969 20.0938L32.8398 20.2344L32.6055 18.0781H32.4766ZM29.4766 18.5586C29.9688 18.5586 30.4766 18.4414 31 18.207C31.5234 17.9648 31.9219 17.7227 32.1953 17.4805L32.6055 17.1172V14C32.4805 14.0156 32.3047 14.043 32.0781 14.082C31.8516 14.1211 31.4531 14.2188 30.8828 14.375C30.3125 14.5234 29.8125 14.6992 29.3828 14.9023C28.9531 15.0977 28.5625 15.3867 28.2109 15.7695C27.8594 16.1445 27.6836 16.5547 27.6836 17C27.6758 18.0391 28.2734 18.5586 29.4766 18.5586ZM37.3867 19.4023L39.0742 19.0391V11.2344C39.0742 10.4688 38.9453 9.9375 38.6875 9.64062C38.4297 9.34375 37.9961 9.19531 37.3867 9.19531V8.59766C37.918 8.53516 38.4766 8.43359 39.0625 8.29297C39.6484 8.14453 40.0977 8.01562 40.4102 7.90625L40.8672 7.76562L41.1133 9.92188H41.2305C41.2773 9.85938 41.3438 9.78125 41.4297 9.6875C41.5234 9.58594 41.707 9.41406 41.9805 9.17188C42.2617 8.92188 42.5547 8.69922 42.8594 8.50391C43.1641 8.30859 43.5508 8.13672 44.0195 7.98828C44.4961 7.83984 44.9688 7.76562 45.4375 7.76562C46.625 7.76562 47.5391 8.15234 48.1797 8.92578C48.8281 9.69922 49.1523 10.8711 49.1523 12.4414V17.5977C49.1523 18.3164 49.2656 18.7969 49.4922 19.0391C49.7266 19.2812 50.1719 19.4023 50.8281 19.4023V20H45.4375V19.4023L47.1133 19.0391V12.6758C47.1133 11.5039 46.9023 10.6719 46.4805 10.1797C46.0664 9.6875 45.3984 9.44141 44.4766 9.44141C43.9453 9.44141 43.3984 9.57031 42.8359 9.82812C42.2812 10.0781 41.8594 10.332 41.5703 10.5898L41.1133 11V17.5977C41.1133 18.3164 41.2266 18.7969 41.4531 19.0391C41.6875 19.2812 42.1328 19.4023 42.7891 19.4023V20H37.3867V19.4023ZM55.293 7.51953V15.3242C55.293 16.4961 55.5 17.3281 55.9141 17.8203C56.3281 18.3125 57 18.5586 57.9297 18.5586C58.4609 18.5586 59.0039 18.4336 59.5586 18.1836C60.1211 17.9258 60.5547 17.668 60.8594 17.4102L61.293 17V11.2344C61.293 10.4219 61.1641 9.85938 60.9062 9.54688C60.6484 9.23438 60.2148 9.07812 59.6055 9.07812V8.48047C60.2148 8.41797 60.8281 8.30859 61.4453 8.15234C62.0625 7.98828 62.5312 7.83984 62.8516 7.70703L63.332 7.51953V16.7656C63.332 17.5312 63.457 18.0625 63.707 18.3594C63.9648 18.6562 64.3984 18.8047 65.0078 18.8047V19.4023C64.4766 19.4648 63.918 19.5703 63.332 19.7188C62.7539 19.8594 62.3125 19.9844 62.0078 20.0938L61.5273 20.2344L61.293 18.0781H61.1641C61.1172 18.1406 61.0508 18.2227 60.9648 18.3242C60.8789 18.418 60.6953 18.5898 60.4141 18.8398C60.1328 19.082 59.8398 19.3008 59.5352 19.4961C59.2305 19.6914 58.8398 19.8633 58.3633 20.0117C57.8945 20.1602 57.4297 20.2344 56.9688 20.2344C55.7812 20.2344 54.8633 19.8477 54.2148 19.0742C53.5742 18.3008 53.2539 17.1289 53.2539 15.5586V11.2344C53.2539 10.4219 53.125 9.85938 52.8672 9.54688C52.6094 9.23438 52.1758 9.07812 51.5664 9.07812V8.48047C52.1758 8.41797 52.7891 8.30859 53.4062 8.15234C54.0234 7.98828 54.4922 7.83984 54.8125 7.70703L55.293 7.51953ZM66.6953 14.2344C66.6953 12.3438 67.2617 10.793 68.3945 9.58203C69.5352 8.37109 70.9297 7.76562 72.5781 7.76562C73.8125 7.76562 74.7852 8.18359 75.4961 9.01953C76.207 9.84766 76.5938 11.1094 76.6562 12.8047L75.5781 13.5195H68.8516V14C68.8516 15.4062 69.2383 16.5391 70.0117 17.3984C70.793 18.25 71.7695 18.6758 72.9414 18.6758C73.6133 18.6758 74.2461 18.5859 74.8398 18.4062C75.4414 18.2188 75.8711 18.0391 76.1289 17.8672L76.5391 17.5977L76.9023 17.9609C76.8555 18.0234 76.7852 18.1094 76.6914 18.2188C76.6055 18.3203 76.4141 18.5 76.1172 18.7578C75.8203 19.0078 75.5039 19.2344 75.168 19.4375C74.832 19.6328 74.3945 19.8164 73.8555 19.9883C73.3242 20.1523 72.7773 20.2344 72.2148 20.2344C70.6289 20.2344 69.3125 19.6797 68.2656 18.5703C67.2188 17.4531 66.6953 16.0078 66.6953 14.2344ZM72.2148 8.71484C71.4648 8.71484 70.7812 9.06641 70.1641 9.76953C69.5469 10.4648 69.1523 11.3945 68.9805 12.5586L74.5 12.3242C74.5 9.91797 73.7383 8.71484 72.2148 8.71484ZM78.332 19.4023L80.0195 19.0391V4.28516C80.0195 3.47266 79.8906 2.91016 79.6328 2.59766C79.375 2.27734 78.9414 2.11719 78.332 2.11719V1.51953C78.9414 1.45703 79.5547 1.34766 80.1719 1.19141C80.7891 1.02734 81.2578 0.882813 81.5781 0.757812L82.0586 0.558594V17.5977C82.0586 18.3164 82.1719 18.7969 82.3984 19.0391C82.6328 19.2812 83.0781 19.4023 83.7344 19.4023V20H78.332V19.4023ZM102.215 16.1797C102.215 15.4766 101.977 14.8281 101.5 14.2344C101.031 13.6328 100.441 13.1328 99.7305 12.7344C99.0195 12.3281 98.2461 11.8906 97.4102 11.4219C96.582 10.9453 95.8086 10.4844 95.0898 10.0391C94.3789 9.59375 93.7891 9.01953 93.3203 8.31641C92.8516 7.61328 92.6172 6.82812 92.6172 5.96094C92.6172 4.60156 93.1406 3.46094 94.1875 2.53906C95.2344 1.61719 96.6289 1.15625 98.3711 1.15625C99.1367 1.15625 99.9297 1.25 100.75 1.4375C101.578 1.61719 102.211 1.79688 102.648 1.97656L103.293 2.23438V6.55859H102.695C102.516 5.16797 102.039 4.10156 101.266 3.35938C100.492 2.60938 99.4492 2.23438 98.1367 2.23438C97.082 2.23438 96.2383 2.51562 95.6055 3.07812C94.9727 3.64062 94.6562 4.32031 94.6562 5.11719C94.6562 5.72656 94.832 6.29297 95.1836 6.81641C95.5352 7.33203 95.9922 7.77734 96.5547 8.15234C97.125 8.52734 97.75 8.89844 98.4297 9.26562C99.1094 9.625 99.7891 9.99609 100.469 10.3789C101.148 10.7617 101.773 11.1758 102.344 11.6211C102.914 12.0586 103.375 12.5938 103.727 13.2266C104.078 13.8516 104.254 14.5508 104.254 15.3242C104.254 16.8086 103.699 18.0195 102.59 18.957C101.488 19.8945 99.9219 20.3633 97.8906 20.3633C96.8203 20.3633 95.8164 20.2109 94.8789 19.9062C93.9414 19.6016 93.2734 19.2969 92.875 18.9922L92.2539 18.5586V13.5195H92.8516C93.2031 15.5352 93.8047 17 94.6562 17.9141C95.5156 18.8281 96.6758 19.2852 98.1367 19.2852C99.4023 19.2852 100.398 18.9844 101.125 18.3828C101.852 17.7812 102.215 17.0469 102.215 16.1797ZM118.539 13.7656C118.539 15.6719 117.949 17.2266 116.77 18.4297C115.598 19.6328 114.105 20.2344 112.293 20.2344C110.66 20.2344 109.312 19.6797 108.25 18.5703C107.188 17.4609 106.656 16.0156 106.656 14.2344C106.656 12.3281 107.242 10.7734 108.414 9.57031C109.594 8.36719 111.09 7.76562 112.902 7.76562C114.535 7.76562 115.883 8.32422 116.945 9.44141C118.008 10.5508 118.539 11.9922 118.539 13.7656ZM109.867 10.0977C109.164 11.0195 108.812 12.3203 108.812 14C108.812 15.6797 109.172 16.9805 109.891 17.9023C110.617 18.8242 111.539 19.2852 112.656 19.2852C113.727 19.2852 114.613 18.8242 115.316 17.9023C116.027 16.9805 116.383 15.6797 116.383 14C116.383 12.3203 116.02 11.0195 115.293 10.0977C114.574 9.17578 113.656 8.71484 112.539 8.71484C111.469 8.71484 110.578 9.17578 109.867 10.0977ZM127.773 18.0781C127.742 18.1406 127.691 18.2227 127.621 18.3242C127.551 18.418 127.395 18.5898 127.152 18.8398C126.91 19.082 126.652 19.3008 126.379 19.4961C126.113 19.6914 125.754 19.8633 125.301 20.0117C124.855 20.1602 124.402 20.2344 123.941 20.2344C122.949 20.2344 122.18 19.9961 121.633 19.5195C121.086 19.043 120.812 18.4023 120.812 17.5977C120.812 16.9258 121.055 16.3125 121.539 15.7578C122.031 15.1953 122.625 14.7539 123.32 14.4336C124.023 14.1133 124.719 13.8438 125.406 13.625C126.094 13.3984 126.676 13.2422 127.152 13.1562L127.902 13.0391V11.8438C127.902 9.76562 127.062 8.72266 125.383 8.71484C125.094 8.71484 124.789 8.76562 124.469 8.86719C124.148 8.96094 123.898 9.05469 123.719 9.14844L123.461 9.32422L122.617 11.8438H121.539V9.07812C121.719 8.98438 121.961 8.86719 122.266 8.72656C122.578 8.57812 123.145 8.38281 123.965 8.14062C124.793 7.89062 125.543 7.76562 126.215 7.76562C127.363 7.76562 128.27 8.12109 128.934 8.83203C129.605 9.54297 129.941 10.5469 129.941 11.8438V16.7656C129.941 17.5312 130.066 18.0625 130.316 18.3594C130.574 18.6562 131.008 18.8047 131.617 18.8047V19.4023C131.086 19.4648 130.527 19.5703 129.941 19.7188C129.363 19.8594 128.914 19.9844 128.594 20.0938L128.137 20.2344L127.902 18.0781H127.773ZM124.773 18.5586C125.266 18.5586 125.773 18.4414 126.297 18.207C126.82 17.9648 127.219 17.7227 127.492 17.4805L127.902 17.1172V14C127.777 14.0156 127.602 14.043 127.375 14.082C127.148 14.1211 126.75 14.2188 126.18 14.375C125.609 14.5234 125.109 14.6992 124.68 14.9023C124.25 15.0977 123.859 15.3867 123.508 15.7695C123.156 16.1445 122.98 16.5547 122.98 17C122.973 18.0391 123.57 18.5586 124.773 18.5586ZM132.684 19.4023L134.371 19.0391V11.2344C134.371 10.4688 134.242 9.9375 133.984 9.64062C133.727 9.34375 133.293 9.19531 132.684 9.19531V8.59766C133.215 8.53516 133.773 8.43359 134.359 8.29297C134.945 8.14453 135.395 8.01562 135.707 7.90625L136.164 7.76562L136.41 9.92188H136.527C136.574 9.85938 136.633 9.78125 136.703 9.6875C136.781 9.58594 136.949 9.41406 137.207 9.17188C137.473 8.92188 137.742 8.69922 138.016 8.50391C138.289 8.30859 138.629 8.13672 139.035 7.98828C139.441 7.83984 139.848 7.76562 140.254 7.76562C140.605 7.76562 140.93 7.80469 141.227 7.88281C141.531 7.96094 141.742 8.03906 141.859 8.11719L142.047 8.23438V11.7148H140.969L140.254 9.32422C139.551 9.32422 138.879 9.47266 138.238 9.76953C137.598 10.0586 137.133 10.3555 136.844 10.6602L136.41 11.1172V17.5977C136.41 18.332 136.555 18.8164 136.844 19.0508C137.133 19.2852 137.746 19.4023 138.684 19.4023V20H132.684V19.4023ZM143.383 14.2344C143.383 12.3438 143.949 10.793 145.082 9.58203C146.223 8.37109 147.617 7.76562 149.266 7.76562C150.5 7.76562 151.473 8.18359 152.184 9.01953C152.895 9.84766 153.281 11.1094 153.344 12.8047L152.266 13.5195H145.539V14C145.539 15.4062 145.926 16.5391 146.699 17.3984C147.48 18.25 148.457 18.6758 149.629 18.6758C150.301 18.6758 150.934 18.5859 151.527 18.4062C152.129 18.2188 152.559 18.0391 152.816 17.8672L153.227 17.5977L153.59 17.9609C153.543 18.0234 153.473 18.1094 153.379 18.2188C153.293 18.3203 153.102 18.5 152.805 18.7578C152.508 19.0078 152.191 19.2344 151.855 19.4375C151.52 19.6328 151.082 19.8164 150.543 19.9883C150.012 20.1523 149.465 20.2344 148.902 20.2344C147.316 20.2344 146 19.6797 144.953 18.5703C143.906 17.4531 143.383 16.0078 143.383 14.2344ZM148.902 8.71484C148.152 8.71484 147.469 9.06641 146.852 9.76953C146.234 10.4648 145.84 11.3945 145.668 12.5586L151.188 12.3242C151.188 9.91797 150.426 8.71484 148.902 8.71484ZM162.227 17.2344C162.227 16.8047 162 16.4062 161.547 16.0391C161.102 15.6719 160.562 15.3438 159.93 15.0547C159.297 14.7656 158.664 14.457 158.031 14.1289C157.398 13.8008 156.859 13.3711 156.414 12.8398C155.969 12.3008 155.746 11.6875 155.746 11C155.746 10.0547 156.113 9.28125 156.848 8.67969C157.582 8.07031 158.613 7.76562 159.941 7.76562C160.52 7.76562 161.066 7.82422 161.582 7.94141C162.105 8.05859 162.488 8.17578 162.73 8.29297L163.059 8.48047V11.3633H162.461C162.336 10.4492 162.051 9.78125 161.605 9.35938C161.168 8.92969 160.535 8.71484 159.707 8.71484C158.957 8.71484 158.387 8.86719 157.996 9.17188C157.613 9.47656 157.422 9.88672 157.422 10.4023C157.422 10.8633 157.645 11.2773 158.09 11.6445C158.543 12.0117 159.082 12.3398 159.707 12.6289C160.34 12.918 160.973 13.2227 161.605 13.543C162.238 13.8633 162.777 14.2891 163.223 14.8203C163.676 15.3438 163.902 15.9414 163.902 16.6133C163.902 17.7305 163.508 18.6133 162.719 19.2617C161.938 19.9102 160.812 20.2344 159.344 20.2344C158.734 20.2344 158.121 20.1484 157.504 19.9766C156.887 19.7969 156.418 19.6133 156.098 19.4258L155.617 19.1562V16.0391H156.227C156.469 17.1875 156.848 18.0156 157.363 18.5234C157.879 19.0312 158.617 19.2852 159.578 19.2852C160.445 19.2852 161.102 19.1016 161.547 18.7344C162 18.3594 162.227 17.8594 162.227 17.2344Z" fill="white"/>
</svg>
