<svg width="131" height="21" viewBox="0 0 131 21" fill="none" xmlns="http://www.w3.org/2000/svg">
<path d="M20.5586 2.59766L21.4023 17C21.4492 17.8984 21.625 18.5039 21.9297 18.8164C22.2344 19.1289 22.7773 19.2852 23.5586 19.2852V20H17.207V19.4023L19.2461 18.9219L18.5195 4.63672H18.4023L12.6367 20H11.4414L4.84375 4.63672H4.72656L4.24609 16.6367C4.19922 17.7539 4.28516 18.4766 4.50391 18.8047C4.73047 19.125 5.24219 19.2852 6.03906 19.2852V20H0.636719V19.4023L2.67578 18.9219L3.28516 4.63672C3.33203 3.62891 3.22656 2.97656 2.96875 2.67969C2.71094 2.38281 2.13672 2.23438 1.24609 2.23438V1.51953H5.80469L12.3086 16.8828H12.4023L18.0391 1.51953H22.5977V2.11719L20.5586 2.59766ZM25.4688 19.4023L27.1562 19.0391V11.2344C27.1562 10.4219 27.0273 9.85938 26.7695 9.54688C26.5117 9.23438 26.0781 9.07812 25.4688 9.07812V8.48047C26.0781 8.41797 26.6914 8.30859 27.3086 8.15234C27.9258 7.98828 28.3945 7.83984 28.7148 7.70703L29.1953 7.51953V17.5977C29.1953 18.3164 29.3086 18.7969 29.5352 19.0391C29.7695 19.2812 30.2148 19.4023 30.8711 19.4023V20H25.4688V19.4023ZM29.0898 2.35156C29.4023 2.66406 29.5586 3.02734 29.5586 3.44141C29.5586 3.85547 29.4023 4.21875 29.0898 4.53125C28.7773 4.84375 28.4102 5 27.9883 5C27.5742 5 27.2109 4.84375 26.8984 4.53125C26.5859 4.21875 26.4297 3.85547 26.4297 3.44141C26.4297 3.02734 26.5859 2.66406 26.8984 2.35156C27.2109 2.03906 27.5742 1.88281 27.9883 1.88281C28.4102 1.88281 28.7773 2.03906 29.0898 2.35156ZM32.4414 14.2344C32.4414 12.3281 33.0273 10.7734 34.1992 9.57031C35.3789 8.36719 36.875 7.76562 38.6875 7.76562C39.3594 7.76562 39.9727 7.85547 40.5273 8.03516C41.0898 8.20703 41.4844 8.38672 41.7109 8.57422L42.0391 8.84375V12.0781H41.207L40.1289 9.07812C39.8086 8.83594 39.2461 8.71484 38.4414 8.71484C37.3555 8.71484 36.4414 9.17969 35.6992 10.1094C34.9648 11.0391 34.5977 12.3359 34.5977 14C34.5977 15.4062 34.9844 16.5391 35.7578 17.3984C36.5391 18.25 37.5156 18.6758 38.6875 18.6758C39.3594 18.6758 39.9844 18.5859 40.5625 18.4062C41.1484 18.2188 41.5625 18.0391 41.8047 17.8672L42.168 17.5977L42.5195 17.9609C42.4727 18.0234 42.4102 18.1094 42.332 18.2188C42.2539 18.3203 42.0703 18.5 41.7812 18.7578C41.4922 19.0078 41.1836 19.2344 40.8555 19.4375C40.5273 19.6328 40.1016 19.8164 39.5781 19.9883C39.0625 20.1523 38.5234 20.2344 37.9609 20.2344C36.375 20.2344 35.0586 19.6797 34.0117 18.5703C32.9648 17.4531 32.4414 16.0078 32.4414 14.2344ZM43.8438 19.4023L45.5312 19.0391V4.28516C45.5312 3.47266 45.4023 2.91016 45.1445 2.59766C44.8867 2.27734 44.4531 2.11719 43.8438 2.11719V1.51953C44.4531 1.45703 45.0664 1.34766 45.6836 1.19141C46.3008 1.02734 46.7695 0.882813 47.0898 0.757812L47.5703 0.558594V17.5977C47.5703 18.3164 47.6836 18.7969 47.9102 19.0391C48.1445 19.2812 48.5898 19.4023 49.2461 19.4023V20H43.8438V19.4023ZM47.9219 13.8828V13.7656L51.7656 10.1562C52.2422 9.69531 52.4805 9.375 52.4805 9.19531C52.4805 8.98438 52.3711 8.83203 52.1523 8.73828C51.9414 8.64453 51.5312 8.59766 50.9219 8.59766V8H56.207V8.59766L54.5312 8.96094L49.9609 13.2031L55.4805 19.0391L57.168 19.4023V20H53.6875L47.9219 13.8828ZM80.1953 2.59766V16.8828C80.1953 17.8906 80.3242 18.543 80.582 18.8398C80.8398 19.1367 81.3906 19.2852 82.2344 19.2852V20H76V19.4023L78.0391 18.9219V10.8828H68.9219V16.8828C68.9219 17.8906 69.0469 18.543 69.2969 18.8398C69.5547 19.1367 70.1094 19.2852 70.9609 19.2852V20H64.7148V19.4023L66.7539 18.9219V4.63672C66.7539 3.62891 66.625 2.97656 66.3672 2.67969C66.1172 2.38281 65.5664 2.23438 64.7148 2.23438V1.51953H70.9609V2.11719L68.9219 2.59766V9.80469H78.0391V4.63672C78.0391 3.62891 77.9102 2.97656 77.6523 2.67969C77.4023 2.38281 76.8516 2.23438 76 2.23438V1.51953H82.2344V2.11719L80.1953 2.59766ZM87.7656 7.51953V15.3242C87.7656 16.4961 87.9727 17.3281 88.3867 17.8203C88.8008 18.3125 89.4727 18.5586 90.4023 18.5586C90.9336 18.5586 91.4766 18.4336 92.0312 18.1836C92.5938 17.9258 93.0273 17.668 93.332 17.4102L93.7656 17V11.2344C93.7656 10.4219 93.6367 9.85938 93.3789 9.54688C93.1211 9.23438 92.6875 9.07812 92.0781 9.07812V8.48047C92.6875 8.41797 93.3008 8.30859 93.918 8.15234C94.5352 7.98828 95.0039 7.83984 95.3242 7.70703L95.8047 7.51953V16.7656C95.8047 17.5312 95.9297 18.0625 96.1797 18.3594C96.4375 18.6562 96.8711 18.8047 97.4805 18.8047V19.4023C96.9492 19.4648 96.3906 19.5703 95.8047 19.7188C95.2266 19.8594 94.7852 19.9844 94.4805 20.0938L94 20.2344L93.7656 18.0781H93.6367C93.5898 18.1406 93.5234 18.2227 93.4375 18.3242C93.3516 18.418 93.168 18.5898 92.8867 18.8398C92.6055 19.082 92.3125 19.3008 92.0078 19.4961C91.7031 19.6914 91.3125 19.8633 90.8359 20.0117C90.3672 20.1602 89.9023 20.2344 89.4414 20.2344C88.2539 20.2344 87.3359 19.8477 86.6875 19.0742C86.0469 18.3008 85.7266 17.1289 85.7266 15.5586V11.2344C85.7266 10.4219 85.5977 9.85938 85.3398 9.54688C85.082 9.23438 84.6484 9.07812 84.0391 9.07812V8.48047C84.6484 8.41797 85.2617 8.30859 85.8789 8.15234C86.4961 7.98828 86.9648 7.83984 87.2852 7.70703L87.7656 7.51953ZM109.855 10.7656C109.934 11.3281 109.973 11.8867 109.973 12.4414V17.5977C109.973 18.3164 110.086 18.7969 110.312 19.0391C110.547 19.2812 110.992 19.4023 111.648 19.4023V20H106.246V19.4023L107.934 19.0391V12.6758C107.934 11.5273 107.738 10.7031 107.348 10.2031C106.965 9.69531 106.398 9.44141 105.648 9.44141C105.117 9.44141 104.59 9.55469 104.066 9.78125C103.551 10 103.168 10.2227 102.918 10.4492L102.531 10.7656V17.5977C102.531 18.3164 102.645 18.7969 102.871 19.0391C103.105 19.2812 103.551 19.4023 104.207 19.4023V20H98.8047V19.4023L100.492 19.0391V11.2344C100.492 10.4688 100.363 9.9375 100.105 9.64062C99.8477 9.34375 99.4141 9.19531 98.8047 9.19531V8.59766C99.3359 8.53516 99.8945 8.43359 100.48 8.29297C101.066 8.14453 101.516 8.01562 101.828 7.90625L102.285 7.76562L102.531 9.67578H102.648C102.68 9.62891 102.734 9.5625 102.812 9.47656C102.898 9.39062 103.066 9.23438 103.316 9.00781C103.574 8.78125 103.848 8.58594 104.137 8.42188C104.426 8.25 104.793 8.09766 105.238 7.96484C105.691 7.83203 106.148 7.76562 106.609 7.76562C107.055 7.76562 107.461 7.82812 107.828 7.95312C108.203 8.07812 108.496 8.23828 108.707 8.43359C108.926 8.62109 109.105 8.8125 109.246 9.00781C109.395 9.20312 109.492 9.36328 109.539 9.48828L109.609 9.67578H109.727C109.852 9.53516 110.031 9.35938 110.266 9.14844C110.5 8.92969 110.973 8.64453 111.684 8.29297C112.395 7.94141 113.102 7.76562 113.805 7.76562C114.875 7.76562 115.742 8.15625 116.406 8.9375C117.078 9.71875 117.414 10.8867 117.414 12.4414V17.5977C117.414 18.3164 117.527 18.7969 117.754 19.0391C117.988 19.2812 118.434 19.4023 119.09 19.4023V20H113.688V19.4023L115.375 19.0391V12.6758C115.375 11.5039 115.176 10.6719 114.777 10.1797C114.387 9.6875 113.785 9.44141 112.973 9.44141C112.48 9.44141 111.973 9.55469 111.449 9.78125C110.926 10 110.527 10.2227 110.254 10.4492L109.855 10.7656ZM120.52 14.2344C120.52 12.3438 121.086 10.793 122.219 9.58203C123.359 8.37109 124.754 7.76562 126.402 7.76562C127.637 7.76562 128.609 8.18359 129.32 9.01953C130.031 9.84766 130.418 11.1094 130.48 12.8047L129.402 13.5195H122.676V14C122.676 15.4062 123.062 16.5391 123.836 17.3984C124.617 18.25 125.594 18.6758 126.766 18.6758C127.438 18.6758 128.07 18.5859 128.664 18.4062C129.266 18.2188 129.695 18.0391 129.953 17.8672L130.363 17.5977L130.727 17.9609C130.68 18.0234 130.609 18.1094 130.516 18.2188C130.43 18.3203 130.238 18.5 129.941 18.7578C129.645 19.0078 129.328 19.2344 128.992 19.4375C128.656 19.6328 128.219 19.8164 127.68 19.9883C127.148 20.1523 126.602 20.2344 126.039 20.2344C124.453 20.2344 123.137 19.6797 122.09 18.5703C121.043 17.4531 120.52 16.0078 120.52 14.2344ZM126.039 8.71484C125.289 8.71484 124.605 9.06641 123.988 9.76953C123.371 10.4648 122.977 11.3945 122.805 12.5586L128.324 12.3242C128.324 9.91797 127.562 8.71484 126.039 8.71484Z" fill="#ED1C24"/>
</svg>
