<svg width="616" height="128" viewBox="0 0 616 128" fill="none" xmlns="http://www.w3.org/2000/svg">
<path d="M14.5273 119.922L12.4883 114.766H5.64453L4.56641 117.637C4.32422 118.199 4.20312 118.719 4.20312 119.195C4.20312 119.562 4.32031 119.836 4.55469 120.016C4.78906 120.195 5.19531 120.285 5.77344 120.285V121H0.253906V120.402L2.29297 119.922L9.00781 102.285H10.0859L16.2031 118.117C16.5078 118.914 16.8477 119.477 17.2227 119.805C17.6055 120.125 18.1484 120.285 18.8516 120.285V121H12.4883V120.402L14.5273 119.922ZM9.125 105.637L6.125 113.676H12.125L9.125 105.637ZM19.2031 120.402L20.8906 120.039V105.285C20.8906 104.473 20.7617 103.91 20.5039 103.598C20.2461 103.277 19.8125 103.117 19.2031 103.117V102.52C19.8125 102.457 20.4258 102.348 21.043 102.191C21.6602 102.027 22.1289 101.883 22.4492 101.758L22.9297 101.559V118.598C22.9297 119.316 23.043 119.797 23.2695 120.039C23.5039 120.281 23.9492 120.402 24.6055 120.402V121H19.2031V120.402ZM25.8125 120.402L27.5 120.039V105.285C27.5 104.473 27.3711 103.91 27.1133 103.598C26.8555 103.277 26.4219 103.117 25.8125 103.117V102.52C26.4219 102.457 27.0352 102.348 27.6523 102.191C28.2695 102.027 28.7383 101.883 29.0586 101.758L29.5391 101.559V118.598C29.5391 119.316 29.6523 119.797 29.8789 120.039C30.1133 120.281 30.5586 120.402 31.2148 120.402V121H25.8125V120.402ZM32.5391 120.402L34.2266 120.039V112.234C34.2266 111.422 34.0977 110.859 33.8398 110.547C33.582 110.234 33.1484 110.078 32.5391 110.078V109.48C33.1484 109.418 33.7617 109.309 34.3789 109.152C34.9961 108.988 35.4648 108.84 35.7852 108.707L36.2656 108.52V118.598C36.2656 119.316 36.3789 119.797 36.6055 120.039C36.8398 120.281 37.2852 120.402 37.9414 120.402V121H32.5391V120.402ZM36.1602 103.352C36.4727 103.664 36.6289 104.027 36.6289 104.441C36.6289 104.855 36.4727 105.219 36.1602 105.531C35.8477 105.844 35.4805 106 35.0586 106C34.6445 106 34.2812 105.844 33.9688 105.531C33.6562 105.219 33.5 104.855 33.5 104.441C33.5 104.027 33.6562 103.664 33.9688 103.352C34.2812 103.039 34.6445 102.883 35.0586 102.883C35.4805 102.883 35.8477 103.039 36.1602 103.352ZM46.2383 118.234C46.2383 117.805 46.0117 117.406 45.5586 117.039C45.1133 116.672 44.5742 116.344 43.9414 116.055C43.3086 115.766 42.6758 115.457 42.043 115.129C41.4102 114.801 40.8711 114.371 40.4258 113.84C39.9805 113.301 39.7578 112.688 39.7578 112C39.7578 111.055 40.125 110.281 40.8594 109.68C41.5938 109.07 42.625 108.766 43.9531 108.766C44.5312 108.766 45.0781 108.824 45.5938 108.941C46.1172 109.059 46.5 109.176 46.7422 109.293L47.0703 109.48V112.363H46.4727C46.3477 111.449 46.0625 110.781 45.6172 110.359C45.1797 109.93 44.5469 109.715 43.7188 109.715C42.9688 109.715 42.3984 109.867 42.0078 110.172C41.625 110.477 41.4336 110.887 41.4336 111.402C41.4336 111.863 41.6562 112.277 42.1016 112.645C42.5547 113.012 43.0938 113.34 43.7188 113.629C44.3516 113.918 44.9844 114.223 45.6172 114.543C46.25 114.863 46.7891 115.289 47.2344 115.82C47.6875 116.344 47.9141 116.941 47.9141 117.613C47.9141 118.73 47.5195 119.613 46.7305 120.262C45.9492 120.91 44.8242 121.234 43.3555 121.234C42.7461 121.234 42.1328 121.148 41.5156 120.977C40.8984 120.797 40.4297 120.613 40.1094 120.426L39.6289 120.156V117.039H40.2383C40.4805 118.188 40.8594 119.016 41.375 119.523C41.8906 120.031 42.6289 120.285 43.5898 120.285C44.457 120.285 45.1133 120.102 45.5586 119.734C46.0117 119.359 46.2383 118.859 46.2383 118.234ZM61.9648 114.766C61.9648 116.672 61.375 118.227 60.1953 119.43C59.0234 120.633 57.5312 121.234 55.7188 121.234C54.0859 121.234 52.7383 120.68 51.6758 119.57C50.6133 118.461 50.082 117.016 50.082 115.234C50.082 113.328 50.668 111.773 51.8398 110.57C53.0195 109.367 54.5156 108.766 56.3281 108.766C57.9609 108.766 59.3086 109.324 60.3711 110.441C61.4336 111.551 61.9648 112.992 61.9648 114.766ZM53.293 111.098C52.5898 112.02 52.2383 113.32 52.2383 115C52.2383 116.68 52.5977 117.98 53.3164 118.902C54.043 119.824 54.9648 120.285 56.082 120.285C57.1523 120.285 58.0391 119.824 58.7422 118.902C59.4531 117.98 59.8086 116.68 59.8086 115C59.8086 113.32 59.4453 112.02 58.7188 111.098C58 110.176 57.082 109.715 55.9648 109.715C54.8945 109.715 54.0039 110.176 53.293 111.098ZM63.7578 120.402L65.4453 120.039V112.234C65.4453 111.469 65.3164 110.938 65.0586 110.641C64.8008 110.344 64.3672 110.195 63.7578 110.195V109.598C64.2891 109.535 64.8477 109.434 65.4336 109.293C66.0195 109.145 66.4688 109.016 66.7812 108.906L67.2383 108.766L67.4844 110.922H67.6016C67.6484 110.859 67.7148 110.781 67.8008 110.688C67.8945 110.586 68.0781 110.414 68.3516 110.172C68.6328 109.922 68.9258 109.699 69.2305 109.504C69.5352 109.309 69.9219 109.137 70.3906 108.988C70.8672 108.84 71.3398 108.766 71.8086 108.766C72.9961 108.766 73.9102 109.152 74.5508 109.926C75.1992 110.699 75.5234 111.871 75.5234 113.441V118.598C75.5234 119.316 75.6367 119.797 75.8633 120.039C76.0977 120.281 76.543 120.402 77.1992 120.402V121H71.8086V120.402L73.4844 120.039V113.676C73.4844 112.504 73.2734 111.672 72.8516 111.18C72.4375 110.688 71.7695 110.441 70.8477 110.441C70.3164 110.441 69.7695 110.57 69.207 110.828C68.6523 111.078 68.2305 111.332 67.9414 111.59L67.4844 112V118.598C67.4844 119.316 67.5977 119.797 67.8242 120.039C68.0586 120.281 68.5039 120.402 69.1602 120.402V121H63.7578V120.402ZM85.2383 120.402L87.2773 119.922V105.637C87.2773 104.613 87.1484 103.957 86.8906 103.668C86.6406 103.379 86.0898 103.234 85.2383 103.234V102.52H98.3281V107.195H97.4844C97.4844 105.773 97.2656 104.82 96.8281 104.336C96.3984 103.844 95.5781 103.598 94.3672 103.598H89.4453V111.039H91.9648C92.9883 111.039 93.6445 110.898 93.9336 110.617C94.2227 110.336 94.3672 109.719 94.3672 108.766H95.1992V114.766H94.3672C94.3672 113.695 94.207 112.988 93.8867 112.645C93.5664 112.293 92.9258 112.117 91.9648 112.117H89.4453V117.883C89.4453 118.906 89.6133 119.562 89.9492 119.852C90.2852 120.141 91.0781 120.285 92.3281 120.285V121H85.2383V120.402ZM99.3828 120.402L101.07 120.039V105.285C101.07 104.473 100.941 103.91 100.684 103.598C100.426 103.277 99.9922 103.117 99.3828 103.117V102.52C99.9922 102.457 100.605 102.348 101.223 102.191C101.84 102.027 102.309 101.883 102.629 101.758L103.109 101.559V118.598C103.109 119.316 103.223 119.797 103.449 120.039C103.684 120.281 104.129 120.402 104.785 120.402V121H99.3828V120.402ZM118.355 114.766C118.355 116.672 117.766 118.227 116.586 119.43C115.414 120.633 113.922 121.234 112.109 121.234C110.477 121.234 109.129 120.68 108.066 119.57C107.004 118.461 106.473 117.016 106.473 115.234C106.473 113.328 107.059 111.773 108.23 110.57C109.41 109.367 110.906 108.766 112.719 108.766C114.352 108.766 115.699 109.324 116.762 110.441C117.824 111.551 118.355 112.992 118.355 114.766ZM109.684 111.098C108.98 112.02 108.629 113.32 108.629 115C108.629 116.68 108.988 117.98 109.707 118.902C110.434 119.824 111.355 120.285 112.473 120.285C113.543 120.285 114.43 119.824 115.133 118.902C115.844 117.98 116.199 116.68 116.199 115C116.199 113.32 115.836 112.02 115.109 111.098C114.391 110.176 113.473 109.715 112.355 109.715C111.285 109.715 110.395 110.176 109.684 111.098ZM132.395 114.766C132.395 116.672 131.805 118.227 130.625 119.43C129.453 120.633 127.961 121.234 126.148 121.234C124.516 121.234 123.168 120.68 122.105 119.57C121.043 118.461 120.512 117.016 120.512 115.234C120.512 113.328 121.098 111.773 122.27 110.57C123.449 109.367 124.945 108.766 126.758 108.766C128.391 108.766 129.738 109.324 130.801 110.441C131.863 111.551 132.395 112.992 132.395 114.766ZM123.723 111.098C123.02 112.02 122.668 113.32 122.668 115C122.668 116.68 123.027 117.98 123.746 118.902C124.473 119.824 125.395 120.285 126.512 120.285C127.582 120.285 128.469 119.824 129.172 118.902C129.883 117.98 130.238 116.68 130.238 115C130.238 113.32 129.875 112.02 129.148 111.098C128.43 110.176 127.512 109.715 126.395 109.715C125.324 109.715 124.434 110.176 123.723 111.098ZM143.434 121.234L143.188 119.078H143.07C143.039 119.141 142.984 119.223 142.906 119.324C142.828 119.418 142.664 119.59 142.414 119.84C142.164 120.082 141.898 120.301 141.617 120.496C141.336 120.691 140.98 120.863 140.551 121.012C140.121 121.16 139.684 121.234 139.238 121.234C137.926 121.234 136.836 120.723 135.969 119.699C135.102 118.676 134.668 117.27 134.668 115.48C134.668 113.402 135.234 111.766 136.367 110.57C137.508 109.367 139.023 108.766 140.914 108.766C141.297 108.766 141.68 108.805 142.062 108.883C142.445 108.961 142.734 109.039 142.93 109.117L143.188 109.234V105.285C143.188 104.473 143.059 103.91 142.801 103.598C142.551 103.277 142.121 103.117 141.512 103.117V102.52C142.121 102.457 142.734 102.348 143.352 102.191C143.969 102.027 144.438 101.883 144.758 101.758L145.238 101.559V117.766C145.238 118.531 145.363 119.062 145.613 119.359C145.871 119.656 146.305 119.805 146.914 119.805V120.402C146.383 120.465 145.824 120.57 145.238 120.719C144.66 120.859 144.211 120.984 143.891 121.094L143.434 121.234ZM140.551 109.715C139.465 109.715 138.574 110.172 137.879 111.086C137.184 112 136.836 113.336 136.836 115.094C136.836 116.617 137.121 117.742 137.691 118.469C138.27 119.195 139.062 119.559 140.07 119.559C140.562 119.559 141.07 119.434 141.594 119.184C142.117 118.926 142.516 118.668 142.789 118.41L143.188 118V110.805C143.125 110.727 143.027 110.629 142.895 110.512C142.77 110.387 142.48 110.223 142.027 110.02C141.574 109.816 141.082 109.715 140.551 109.715Z" fill="white"/>
<path d="M102.441 28.6367C101.48 28.6367 100.109 28.1953 98.3281 27.3125C96.5547 26.4375 95.0117 25.5586 93.6992 24.6758L91.7656 23.3633C89.5234 23.1055 87.6602 22.1367 86.1758 20.457C84.6992 18.7773 83.9609 16.625 83.9609 14C83.9609 11.1172 84.8711 8.75781 86.6914 6.92188C88.5195 5.07813 90.8477 4.15625 93.6758 4.15625C96.2227 4.15625 98.3203 5.02344 99.9688 6.75781C101.617 8.48438 102.441 10.7383 102.441 13.5195C102.441 16.1289 101.703 18.293 100.227 20.0117C98.7578 21.7305 96.8945 22.8047 94.6367 23.2344C99.3242 25.0781 102.285 26 103.52 26C103.84 26 104.148 25.9727 104.445 25.918C104.742 25.8633 104.961 25.8008 105.102 25.7305L105.324 25.6367L105.805 26.1172C105.758 26.1797 105.691 26.2656 105.605 26.375C105.527 26.4922 105.359 26.6992 105.102 26.9961C104.844 27.293 104.59 27.5469 104.34 27.7578C104.098 27.9766 103.801 28.1758 103.449 28.3555C103.098 28.543 102.762 28.6367 102.441 28.6367ZM93.0781 21.8047C94.5625 21.8047 95.7734 21.1602 96.7109 19.8711C97.6484 18.582 98.1172 16.625 98.1172 14C98.1172 11.1875 97.6641 9.10547 96.7578 7.75391C95.8594 6.39453 94.7148 5.71484 93.3242 5.71484C91.8398 5.71484 90.6289 6.35938 89.6914 7.64844C88.7539 8.9375 88.2852 10.8945 88.2852 13.5195C88.2852 16.332 88.7344 18.418 89.6328 19.7773C90.5391 21.1289 91.6875 21.8047 93.0781 21.8047ZM117.066 10.4023V19.1562C117.066 20.0859 117.191 20.7188 117.441 21.0547C117.691 21.3906 118.129 21.5586 118.754 21.5586V22.5195C118.051 22.5508 117.305 22.6289 116.516 22.7539C115.734 22.8711 115.137 22.9844 114.723 23.0938L114.066 23.2344L113.832 20.9609H113.586C113.539 21.0234 113.477 21.1094 113.398 21.2188C113.32 21.3203 113.145 21.5 112.871 21.7578C112.598 22.0078 112.309 22.2344 112.004 22.4375C111.699 22.6328 111.309 22.8164 110.832 22.9883C110.363 23.1523 109.883 23.2344 109.391 23.2344C108.203 23.2344 107.246 22.8164 106.52 21.9805C105.793 21.1367 105.43 19.957 105.43 18.4414V14.5977C105.43 13.668 105.305 13.0352 105.055 12.6992C104.812 12.3633 104.379 12.1953 103.754 12.1953V11.2344C104.605 11.2031 105.469 11.1172 106.344 10.9766C107.227 10.8359 107.891 10.6992 108.336 10.5664L109.027 10.4023V18.1953C109.027 19.7969 109.707 20.5977 111.066 20.5977C111.449 20.5977 111.84 20.5117 112.238 20.3398C112.645 20.1602 112.953 19.9766 113.164 19.7891L113.469 19.5195V14.5977C113.469 13.668 113.344 13.0352 113.094 12.6992C112.852 12.3633 112.418 12.1953 111.793 12.1953V11.2344C112.645 11.2031 113.508 11.1172 114.383 10.9766C115.266 10.8359 115.938 10.6992 116.398 10.5664L117.066 10.4023ZM130.637 14.8438V19.1562C130.637 20.0859 130.762 20.7188 131.012 21.0547C131.262 21.3906 131.695 21.5586 132.312 21.5586V22.5195C131.609 22.5508 130.867 22.6289 130.086 22.7539C129.305 22.8711 128.703 22.9844 128.281 23.0938L127.637 23.2344L127.402 20.9609H127.156C127.109 21.0234 127.043 21.1094 126.957 21.2188C126.879 21.3203 126.707 21.5 126.441 21.7578C126.184 22.0078 125.906 22.2344 125.609 22.4375C125.312 22.6328 124.93 22.8164 124.461 22.9883C124 23.1523 123.539 23.2344 123.078 23.2344C122.023 23.2344 121.199 22.9766 120.605 22.4609C120.012 21.9375 119.715 21.2773 119.715 20.4805C119.715 19.7617 119.965 19.1055 120.465 18.5117C120.973 17.918 121.586 17.4531 122.305 17.1172C123.031 16.7812 123.75 16.5 124.461 16.2734C125.172 16.0391 125.773 15.8828 126.266 15.8047L127.039 15.6758V15.0781C127.039 13.0781 126.32 12.0781 124.883 12.0781C124.672 12.0781 124.445 12.1055 124.203 12.1602C123.961 12.2148 123.77 12.2773 123.629 12.3477L123.441 12.4414L122.598 15.0781H120.676V11.7148C120.832 11.6211 121.059 11.5117 121.355 11.3867C121.652 11.2539 122.242 11.0781 123.125 10.8594C124.008 10.6328 124.871 10.5195 125.715 10.5195C127.301 10.5195 128.516 10.9062 129.359 11.6797C130.211 12.4453 130.637 13.5 130.637 14.8438ZM124.754 20.7148C125.137 20.7148 125.52 20.6172 125.902 20.4219C126.293 20.2188 126.574 20.0234 126.746 19.8359L127.039 19.5195V17C126.945 17.0156 126.816 17.0391 126.652 17.0703C126.496 17.1016 126.207 17.1914 125.785 17.3398C125.371 17.4805 125.004 17.6367 124.684 17.8086C124.363 17.9727 124.074 18.2109 123.816 18.5234C123.566 18.8359 123.441 19.168 123.441 19.5195C123.441 19.8867 123.555 20.1797 123.781 20.3984C124.016 20.6094 124.34 20.7148 124.754 20.7148ZM146.492 15.3242V19.8828C146.492 20.7656 146.602 21.3477 146.82 21.6289C147.047 21.9023 147.496 22.0391 148.168 22.0391V23H141.207V22.0391L142.883 21.6758V15.5586C142.883 13.957 142.203 13.1562 140.844 13.1562C140.461 13.1562 140.07 13.2461 139.672 13.4258C139.273 13.5977 138.969 13.7812 138.758 13.9766L138.453 14.2344V19.8828C138.453 20.7656 138.562 21.3477 138.781 21.6289C139.008 21.9023 139.457 22.0391 140.129 22.0391V23H133.168V22.0391L134.844 21.6758V14.5977C134.844 13.668 134.719 13.0352 134.469 12.6992C134.227 12.3633 133.793 12.1953 133.168 12.1953V11.2344C133.871 11.2031 134.613 11.1289 135.395 11.0117C136.184 10.8945 136.785 10.7773 137.199 10.6602L137.844 10.5195L138.09 12.8047H138.324C138.371 12.7422 138.434 12.6602 138.512 12.5586C138.598 12.4492 138.777 12.2656 139.051 12.0078C139.324 11.75 139.609 11.5234 139.906 11.3281C140.211 11.125 140.598 10.9414 141.066 10.7773C141.543 10.6055 142.031 10.5195 142.531 10.5195C143.719 10.5195 144.676 10.9414 145.402 11.7852C146.129 12.6211 146.492 13.8008 146.492 15.3242ZM155.973 10.5195C156.293 10.5195 156.613 10.5508 156.934 10.6133C157.254 10.6758 157.492 10.7422 157.648 10.8125L157.895 10.8828V7.76562C157.895 6.83594 157.77 6.20313 157.52 5.86719C157.27 5.53125 156.832 5.36328 156.207 5.36328V4.40234C156.988 4.37109 157.82 4.28516 158.703 4.14453C159.586 3.99609 160.273 3.86719 160.766 3.75781L161.492 3.55859V19.1562C161.492 20.0859 161.613 20.7188 161.855 21.0547C162.105 21.3906 162.543 21.5586 163.168 21.5586V22.5195C162.465 22.5508 161.719 22.6289 160.93 22.7539C160.148 22.8711 159.551 22.9844 159.137 23.0938L158.492 23.2344L158.246 20.9609H158.012C157.965 21.0234 157.898 21.1094 157.812 21.2188C157.734 21.3203 157.562 21.5 157.297 21.7578C157.039 22.0078 156.762 22.2344 156.465 22.4375C156.168 22.6328 155.785 22.8164 155.316 22.9883C154.855 23.1523 154.395 23.2344 153.934 23.2344C152.684 23.2344 151.609 22.707 150.711 21.6523C149.82 20.5977 149.375 19.207 149.375 17.4805C149.375 15.4023 149.988 13.7227 151.215 12.4414C152.449 11.1602 154.035 10.5195 155.973 10.5195ZM155.855 12.0781C155.074 12.0781 154.418 12.4648 153.887 13.2383C153.355 14.0039 153.09 15.1797 153.09 16.7656C153.09 18.0781 153.316 19.0469 153.77 19.6719C154.23 20.2891 154.844 20.5977 155.609 20.5977C155.992 20.5977 156.375 20.5117 156.758 20.3398C157.148 20.1602 157.43 19.9766 157.602 19.7891L157.895 19.5195V12.9219C157.418 12.3594 156.738 12.0781 155.855 12.0781ZM168.207 16.6367C168.207 20.0742 169.168 21.7969 171.09 21.8047C171.824 21.8047 172.445 21.418 172.953 20.6445C173.469 19.8633 173.727 18.6875 173.727 17.1172C173.727 13.6797 172.77 11.9609 170.855 11.9609C170.121 11.9609 169.496 12.3477 168.98 13.1211C168.465 13.8945 168.207 15.0664 168.207 16.6367ZM177.57 16.7656C177.57 18.5859 176.922 20.1211 175.625 21.3711C174.328 22.6133 172.695 23.2344 170.727 23.2344C168.867 23.2344 167.344 22.6484 166.156 21.4766C164.969 20.2969 164.375 18.8047 164.375 17C164.375 15.1797 165.02 13.6445 166.309 12.3945C167.605 11.1445 169.238 10.5195 171.207 10.5195C173.066 10.5195 174.59 11.1094 175.777 12.2891C176.973 13.4688 177.57 14.9609 177.57 16.7656ZM199.168 10.4023V19.1562C199.168 20.0859 199.293 20.7188 199.543 21.0547C199.793 21.3906 200.23 21.5586 200.855 21.5586V22.5195C200.152 22.5508 199.406 22.6289 198.617 22.7539C197.836 22.8711 197.238 22.9844 196.824 23.0938L196.168 23.2344L195.934 20.9609H195.688C195.641 21.0234 195.578 21.1094 195.5 21.2188C195.422 21.3203 195.246 21.5 194.973 21.7578C194.699 22.0078 194.41 22.2344 194.105 22.4375C193.801 22.6328 193.41 22.8164 192.934 22.9883C192.465 23.1523 191.984 23.2344 191.492 23.2344C190.305 23.2344 189.348 22.8164 188.621 21.9805C187.895 21.1367 187.531 19.957 187.531 18.4414V14.5977C187.531 13.668 187.406 13.0352 187.156 12.6992C186.914 12.3633 186.48 12.1953 185.855 12.1953V11.2344C186.707 11.2031 187.57 11.1172 188.445 10.9766C189.328 10.8359 189.992 10.6992 190.438 10.5664L191.129 10.4023V18.1953C191.129 19.7969 191.809 20.5977 193.168 20.5977C193.551 20.5977 193.941 20.5117 194.34 20.3398C194.746 20.1602 195.055 19.9766 195.266 19.7891L195.57 19.5195V14.5977C195.57 13.668 195.445 13.0352 195.195 12.6992C194.953 12.3633 194.52 12.1953 193.895 12.1953V11.2344C194.746 11.2031 195.609 11.1172 196.484 10.9766C197.367 10.8359 198.039 10.6992 198.5 10.5664L199.168 10.4023ZM222.102 15.3242V19.8828C222.102 20.7656 222.211 21.3477 222.43 21.6289C222.656 21.9023 223.105 22.0391 223.777 22.0391V23H217.062V22.0391L218.504 21.6758V15.5586C218.504 13.957 217.902 13.1562 216.699 13.1562C216.316 13.1562 215.938 13.2461 215.562 13.4258C215.188 13.5977 214.902 13.7812 214.707 13.9766L214.414 14.2344C214.492 14.4766 214.535 14.918 214.543 15.5586V19.8828C214.543 20.7656 214.648 21.3477 214.859 21.6289C215.078 21.9023 215.492 22.0391 216.102 22.0391V23H209.504V22.0391L210.934 21.6758V15.5586C210.934 13.957 210.336 13.1562 209.141 13.1562C208.789 13.1562 208.434 13.2383 208.074 13.4023C207.715 13.5586 207.445 13.7188 207.266 13.8828L206.984 14.1172V19.8828C206.984 20.7656 207.09 21.3477 207.301 21.6289C207.52 21.9023 207.934 22.0391 208.543 22.0391V23H201.699V22.0391L203.375 21.6758V14.5977C203.375 13.668 203.25 13.0352 203 12.6992C202.758 12.3633 202.324 12.1953 201.699 12.1953V11.2344C202.402 11.2031 203.145 11.1289 203.926 11.0117C204.715 10.8945 205.316 10.7773 205.73 10.6602L206.375 10.5195L206.621 12.6758H206.855C206.887 12.6133 206.938 12.5352 207.008 12.4414C207.086 12.3477 207.246 12.1758 207.488 11.9258C207.738 11.6758 208.004 11.457 208.285 11.2695C208.566 11.0742 208.934 10.9023 209.387 10.7539C209.848 10.5977 210.324 10.5195 210.816 10.5195C211.277 10.5195 211.707 10.5977 212.105 10.7539C212.512 10.9023 212.824 11.082 213.043 11.293C213.27 11.4961 213.465 11.7031 213.629 11.9141C213.801 12.1172 213.922 12.293 213.992 12.4414L214.062 12.6758H214.297C214.328 12.6133 214.383 12.5352 214.461 12.4414C214.547 12.3477 214.715 12.1758 214.965 11.9258C215.223 11.6758 215.5 11.457 215.797 11.2695C216.094 11.0742 216.473 10.9023 216.934 10.7539C217.402 10.5977 217.883 10.5195 218.375 10.5195C219.492 10.5195 220.391 10.9297 221.07 11.75C221.758 12.5625 222.102 13.7539 222.102 15.3242ZM238.18 5.96094V22.4023C238.18 24.4961 237.656 26.0781 236.609 27.1484C235.562 28.2266 234.047 28.7656 232.062 28.7656C231.602 28.7656 231.129 28.7148 230.645 28.6133C230.16 28.5195 229.793 28.4258 229.543 28.332L229.18 28.1562V24.4414H230.984L232.18 27.1953C232.805 27.1328 233.32 26.7578 233.727 26.0703C234.133 25.3828 234.336 24.3203 234.336 22.8828V8.14062C234.336 7.07031 234.207 6.37891 233.949 6.06641C233.699 5.75391 233.148 5.59766 232.297 5.59766V4.51953H240.219V5.48047L238.18 5.96094ZM254.012 10.4023V19.1562C254.012 20.0859 254.137 20.7188 254.387 21.0547C254.637 21.3906 255.074 21.5586 255.699 21.5586V22.5195C254.996 22.5508 254.25 22.6289 253.461 22.7539C252.68 22.8711 252.082 22.9844 251.668 23.0938L251.012 23.2344L250.777 20.9609H250.531C250.484 21.0234 250.422 21.1094 250.344 21.2188C250.266 21.3203 250.09 21.5 249.816 21.7578C249.543 22.0078 249.254 22.2344 248.949 22.4375C248.645 22.6328 248.254 22.8164 247.777 22.9883C247.309 23.1523 246.828 23.2344 246.336 23.2344C245.148 23.2344 244.191 22.8164 243.465 21.9805C242.738 21.1367 242.375 19.957 242.375 18.4414V14.5977C242.375 13.668 242.25 13.0352 242 12.6992C241.758 12.3633 241.324 12.1953 240.699 12.1953V11.2344C241.551 11.2031 242.414 11.1172 243.289 10.9766C244.172 10.8359 244.836 10.6992 245.281 10.5664L245.973 10.4023V18.1953C245.973 19.7969 246.652 20.5977 248.012 20.5977C248.395 20.5977 248.785 20.5117 249.184 20.3398C249.59 20.1602 249.898 19.9766 250.109 19.7891L250.414 19.5195V14.5977C250.414 13.668 250.289 13.0352 250.039 12.6992C249.797 12.3633 249.363 12.1953 248.738 12.1953V11.2344C249.59 11.2031 250.453 11.1172 251.328 10.9766C252.211 10.8359 252.883 10.6992 253.344 10.5664L254.012 10.4023ZM263.504 10.5195C263.824 10.5195 264.145 10.5508 264.465 10.6133C264.785 10.6758 265.023 10.7422 265.18 10.8125L265.426 10.8828V7.76562C265.426 6.83594 265.301 6.20313 265.051 5.86719C264.801 5.53125 264.363 5.36328 263.738 5.36328V4.40234C264.52 4.37109 265.352 4.28516 266.234 4.14453C267.117 3.99609 267.805 3.86719 268.297 3.75781L269.023 3.55859V19.1562C269.023 20.0859 269.145 20.7188 269.387 21.0547C269.637 21.3906 270.074 21.5586 270.699 21.5586V22.5195C269.996 22.5508 269.25 22.6289 268.461 22.7539C267.68 22.8711 267.082 22.9844 266.668 23.0938L266.023 23.2344L265.777 20.9609H265.543C265.496 21.0234 265.43 21.1094 265.344 21.2188C265.266 21.3203 265.094 21.5 264.828 21.7578C264.57 22.0078 264.293 22.2344 263.996 22.4375C263.699 22.6328 263.316 22.8164 262.848 22.9883C262.387 23.1523 261.926 23.2344 261.465 23.2344C260.215 23.2344 259.141 22.707 258.242 21.6523C257.352 20.5977 256.906 19.207 256.906 17.4805C256.906 15.4023 257.52 13.7227 258.746 12.4414C259.98 11.1602 261.566 10.5195 263.504 10.5195ZM263.387 12.0781C262.605 12.0781 261.949 12.4648 261.418 13.2383C260.887 14.0039 260.621 15.1797 260.621 16.7656C260.621 18.0781 260.848 19.0469 261.301 19.6719C261.762 20.2891 262.375 20.5977 263.141 20.5977C263.523 20.5977 263.906 20.5117 264.289 20.3398C264.68 20.1602 264.961 19.9766 265.133 19.7891L265.426 19.5195V12.9219C264.949 12.3594 264.27 12.0781 263.387 12.0781ZM278.141 12.0781C277.562 12.0781 277.062 12.3555 276.641 12.9102C276.219 13.457 275.918 14.3008 275.738 15.4414L279.945 15.0781V14.4805C279.945 13.7305 279.773 13.1445 279.43 12.7227C279.086 12.293 278.656 12.0781 278.141 12.0781ZM278.387 10.5195C280.004 10.5195 281.27 10.9727 282.184 11.8789C283.105 12.7773 283.598 14.043 283.66 15.6758L282.465 16.7656H275.738C275.801 18.0781 276.148 19.0664 276.781 19.7305C277.414 20.3867 278.309 20.7148 279.465 20.7148C280.105 20.7148 280.711 20.6289 281.281 20.457C281.859 20.2773 282.277 20.1016 282.535 19.9297L282.945 19.6367L283.543 20.2344C283.496 20.3125 283.426 20.4219 283.332 20.5625C283.246 20.7031 283.035 20.9453 282.699 21.2891C282.363 21.6328 282.004 21.9375 281.621 22.2031C281.238 22.4609 280.723 22.6992 280.074 22.918C279.426 23.1289 278.742 23.2344 278.023 23.2344C276.281 23.2344 274.824 22.6523 273.652 21.4883C272.488 20.3164 271.906 18.8594 271.906 17.1172C271.906 15.2578 272.535 13.6953 273.793 12.4297C275.051 11.1562 276.582 10.5195 278.387 10.5195ZM298.168 10.4023V19.1562C298.168 20.0859 298.293 20.7188 298.543 21.0547C298.793 21.3906 299.23 21.5586 299.855 21.5586V22.5195C299.152 22.5508 298.406 22.6289 297.617 22.7539C296.836 22.8711 296.238 22.9844 295.824 23.0938L295.168 23.2344L294.934 20.9609H294.688C294.641 21.0234 294.578 21.1094 294.5 21.2188C294.422 21.3203 294.246 21.5 293.973 21.7578C293.699 22.0078 293.41 22.2344 293.105 22.4375C292.801 22.6328 292.41 22.8164 291.934 22.9883C291.465 23.1523 290.984 23.2344 290.492 23.2344C289.305 23.2344 288.348 22.8164 287.621 21.9805C286.895 21.1367 286.531 19.957 286.531 18.4414V14.5977C286.531 13.668 286.406 13.0352 286.156 12.6992C285.914 12.3633 285.48 12.1953 284.855 12.1953V11.2344C285.707 11.2031 286.57 11.1172 287.445 10.9766C288.328 10.8359 288.992 10.6992 289.438 10.5664L290.129 10.4023V18.1953C290.129 19.7969 290.809 20.5977 292.168 20.5977C292.551 20.5977 292.941 20.5117 293.34 20.3398C293.746 20.1602 294.055 19.9766 294.266 19.7891L294.57 19.5195V14.5977C294.57 13.668 294.445 13.0352 294.195 12.6992C293.953 12.3633 293.52 12.1953 292.895 12.1953V11.2344C293.746 11.2031 294.609 11.1172 295.484 10.9766C296.367 10.8359 297.039 10.6992 297.5 10.5664L298.168 10.4023ZM314.738 20C314.738 19.6172 314.52 19.2617 314.082 18.9336C313.652 18.6055 313.133 18.3086 312.523 18.043C311.922 17.7773 311.316 17.4844 310.707 17.1641C310.098 16.8438 309.574 16.4141 309.137 15.875C308.707 15.3281 308.492 14.7031 308.492 14C308.492 12.9766 308.914 12.1406 309.758 11.4922C310.609 10.8438 311.867 10.5195 313.531 10.5195C314.203 10.5195 314.859 10.5938 315.5 10.7422C316.141 10.8828 316.613 11.0156 316.918 11.1406L317.375 11.3633V14.4805H316.18C316 13.582 315.723 12.9375 315.348 12.5469C314.973 12.1562 314.449 11.9609 313.777 11.9609C313.246 11.9609 312.832 12.0898 312.535 12.3477C312.246 12.5977 312.102 12.9102 312.102 13.2852C312.102 13.7148 312.316 14.0859 312.746 14.3984C313.176 14.7109 313.695 14.9805 314.305 15.207C314.914 15.4258 315.52 15.6758 316.121 15.957C316.73 16.2383 317.25 16.6523 317.68 17.1992C318.117 17.7383 318.336 18.3906 318.336 19.1562C318.336 20.2891 317.848 21.2539 316.871 22.0508C315.895 22.8398 314.543 23.2344 312.816 23.2344C312.004 23.2344 311.203 23.1562 310.414 23C309.633 22.8438 309.059 22.6836 308.691 22.5195L308.141 22.2852V18.5586H309.336C309.703 20.7148 310.785 21.7969 312.582 21.8047C313.223 21.8047 313.742 21.6289 314.141 21.2773C314.539 20.918 314.738 20.4922 314.738 20ZM326.258 12.0781C325.68 12.0781 325.18 12.3555 324.758 12.9102C324.336 13.457 324.035 14.3008 323.855 15.4414L328.062 15.0781V14.4805C328.062 13.7305 327.891 13.1445 327.547 12.7227C327.203 12.293 326.773 12.0781 326.258 12.0781ZM326.504 10.5195C328.121 10.5195 329.387 10.9727 330.301 11.8789C331.223 12.7773 331.715 14.043 331.777 15.6758L330.582 16.7656H323.855C323.918 18.0781 324.266 19.0664 324.898 19.7305C325.531 20.3867 326.426 20.7148 327.582 20.7148C328.223 20.7148 328.828 20.6289 329.398 20.457C329.977 20.2773 330.395 20.1016 330.652 19.9297L331.062 19.6367L331.66 20.2344C331.613 20.3125 331.543 20.4219 331.449 20.5625C331.363 20.7031 331.152 20.9453 330.816 21.2891C330.48 21.6328 330.121 21.9375 329.738 22.2031C329.355 22.4609 328.84 22.6992 328.191 22.918C327.543 23.1289 326.859 23.2344 326.141 23.2344C324.398 23.2344 322.941 22.6523 321.77 21.4883C320.605 20.3164 320.023 18.8594 320.023 17.1172C320.023 15.2578 320.652 13.6953 321.91 12.4297C323.168 11.1562 324.699 10.5195 326.504 10.5195ZM351.207 14.8438V19.1562C351.207 20.0859 351.332 20.7188 351.582 21.0547C351.832 21.3906 352.266 21.5586 352.883 21.5586V22.5195C352.18 22.5508 351.438 22.6289 350.656 22.7539C349.875 22.8711 349.273 22.9844 348.852 23.0938L348.207 23.2344L347.973 20.9609H347.727C347.68 21.0234 347.613 21.1094 347.527 21.2188C347.449 21.3203 347.277 21.5 347.012 21.7578C346.754 22.0078 346.477 22.2344 346.18 22.4375C345.883 22.6328 345.5 22.8164 345.031 22.9883C344.57 23.1523 344.109 23.2344 343.648 23.2344C342.594 23.2344 341.77 22.9766 341.176 22.4609C340.582 21.9375 340.285 21.2773 340.285 20.4805C340.285 19.7617 340.535 19.1055 341.035 18.5117C341.543 17.918 342.156 17.4531 342.875 17.1172C343.602 16.7812 344.32 16.5 345.031 16.2734C345.742 16.0391 346.344 15.8828 346.836 15.8047L347.609 15.6758V15.0781C347.609 13.0781 346.891 12.0781 345.453 12.0781C345.242 12.0781 345.016 12.1055 344.773 12.1602C344.531 12.2148 344.34 12.2773 344.199 12.3477L344.012 12.4414L343.168 15.0781H341.246V11.7148C341.402 11.6211 341.629 11.5117 341.926 11.3867C342.223 11.2539 342.812 11.0781 343.695 10.8594C344.578 10.6328 345.441 10.5195 346.285 10.5195C347.871 10.5195 349.086 10.9062 349.93 11.6797C350.781 12.4453 351.207 13.5 351.207 14.8438ZM345.324 20.7148C345.707 20.7148 346.09 20.6172 346.473 20.4219C346.863 20.2188 347.145 20.0234 347.316 19.8359L347.609 19.5195V17C347.516 17.0156 347.387 17.0391 347.223 17.0703C347.066 17.1016 346.777 17.1914 346.355 17.3398C345.941 17.4805 345.574 17.6367 345.254 17.8086C344.934 17.9727 344.645 18.2109 344.387 18.5234C344.137 18.8359 344.012 19.168 344.012 19.5195C344.012 19.8867 344.125 20.1797 344.352 20.3984C344.586 20.6094 344.91 20.7148 345.324 20.7148ZM358.895 22.8828V25.4023C358.895 26.2539 359.055 26.8242 359.375 27.1133C359.695 27.4102 360.336 27.5586 361.297 27.5586V28.5195H353.621V27.5586L355.297 27.1953V14.5977C355.297 13.668 355.172 13.0352 354.922 12.6992C354.68 12.3633 354.246 12.1953 353.621 12.1953V11.2344C354.324 11.2031 355.066 11.1289 355.848 11.0117C356.637 10.8945 357.246 10.7773 357.676 10.6602L358.297 10.5195L358.543 12.8047H358.777C358.824 12.7422 358.887 12.6602 358.965 12.5586C359.051 12.4492 359.223 12.2656 359.48 12.0078C359.746 11.75 360.027 11.5234 360.324 11.3281C360.621 11.125 361 10.9414 361.461 10.7773C361.93 10.6055 362.395 10.5195 362.855 10.5195C364.105 10.5195 365.176 11.0469 366.066 12.1016C366.965 13.1562 367.414 14.5508 367.414 16.2852C367.414 18.3633 366.797 20.043 365.562 21.3242C364.336 22.5977 362.754 23.2344 360.816 23.2344C360.496 23.2344 360.176 23.2031 359.855 23.1406C359.535 23.0781 359.297 23.0156 359.141 22.9531L358.895 22.8828ZM360.934 21.6758C361.715 21.6758 362.371 21.293 362.902 20.5273C363.434 19.7617 363.699 18.5859 363.699 17C363.699 15.6875 363.469 14.7188 363.008 14.0938C362.555 13.4688 361.945 13.1562 361.18 13.1562C360.797 13.1562 360.41 13.2461 360.02 13.4258C359.637 13.5977 359.352 13.7812 359.164 13.9766L358.895 14.2344V20.5977C358.957 20.6758 359.043 20.7773 359.152 20.9023C359.27 21.0195 359.508 21.1797 359.867 21.3828C360.227 21.5781 360.582 21.6758 360.934 21.6758ZM379.777 14.8438V19.1562C379.777 20.0859 379.902 20.7188 380.152 21.0547C380.402 21.3906 380.836 21.5586 381.453 21.5586V22.5195C380.75 22.5508 380.008 22.6289 379.227 22.7539C378.445 22.8711 377.844 22.9844 377.422 23.0938L376.777 23.2344L376.543 20.9609H376.297C376.25 21.0234 376.184 21.1094 376.098 21.2188C376.02 21.3203 375.848 21.5 375.582 21.7578C375.324 22.0078 375.047 22.2344 374.75 22.4375C374.453 22.6328 374.07 22.8164 373.602 22.9883C373.141 23.1523 372.68 23.2344 372.219 23.2344C371.164 23.2344 370.34 22.9766 369.746 22.4609C369.152 21.9375 368.855 21.2773 368.855 20.4805C368.855 19.7617 369.105 19.1055 369.605 18.5117C370.113 17.918 370.727 17.4531 371.445 17.1172C372.172 16.7812 372.891 16.5 373.602 16.2734C374.312 16.0391 374.914 15.8828 375.406 15.8047L376.18 15.6758V15.0781C376.18 13.0781 375.461 12.0781 374.023 12.0781C373.812 12.0781 373.586 12.1055 373.344 12.1602C373.102 12.2148 372.91 12.2773 372.77 12.3477L372.582 12.4414L371.738 15.0781H369.816V11.7148C369.973 11.6211 370.199 11.5117 370.496 11.3867C370.793 11.2539 371.383 11.0781 372.266 10.8594C373.148 10.6328 374.012 10.5195 374.855 10.5195C376.441 10.5195 377.656 10.9062 378.5 11.6797C379.352 12.4453 379.777 13.5 379.777 14.8438ZM373.895 20.7148C374.277 20.7148 374.66 20.6172 375.043 20.4219C375.434 20.2188 375.715 20.0234 375.887 19.8359L376.18 19.5195V17C376.086 17.0156 375.957 17.0391 375.793 17.0703C375.637 17.1016 375.348 17.1914 374.926 17.3398C374.512 17.4805 374.145 17.6367 373.824 17.8086C373.504 17.9727 373.215 18.2109 372.957 18.5234C372.707 18.8359 372.582 19.168 372.582 19.5195C372.582 19.8867 372.695 20.1797 372.922 20.3984C373.156 20.6094 373.48 20.7148 373.895 20.7148ZM387.594 10.4023V19.8828C387.594 20.7656 387.703 21.3477 387.922 21.6289C388.148 21.9023 388.598 22.0391 389.27 22.0391V23H382.309V22.0391L383.984 21.6758V14.5977C383.984 13.668 383.859 13.0352 383.609 12.6992C383.367 12.3633 382.934 12.1953 382.309 12.1953V11.2344C383.16 11.2031 384.023 11.1172 384.898 10.9766C385.781 10.8359 386.453 10.6992 386.914 10.5664L387.594 10.4023ZM387.148 5.09375C387.523 5.47656 387.711 5.96484 387.711 6.55859C387.711 7.15234 387.523 7.64062 387.148 8.02344C386.773 8.40625 386.281 8.59766 385.672 8.59766C385.062 8.59766 384.57 8.40625 384.195 8.02344C383.82 7.64062 383.633 7.15234 383.633 6.55859C383.633 5.96484 383.82 5.47656 384.195 5.09375C384.57 4.71094 385.062 4.51953 385.672 4.51953C386.281 4.51953 386.773 4.71094 387.148 5.09375ZM398.398 16.4023L400.918 20C401.512 20.8281 401.973 21.375 402.301 21.6406C402.637 21.9062 403.094 22.0391 403.672 22.0391V23H396.594V22.0391L398.035 21.6758L395.75 18.4414L394.191 20.3633C393.871 20.6836 393.711 21.0039 393.711 21.3242C393.711 21.5195 393.809 21.6875 394.004 21.8281C394.207 21.9688 394.512 22.0391 394.918 22.0391V23H389.633V22.0391L391.191 21.6758L394.789 17.1172L392.398 13.7656C391.789 12.9375 391.324 12.3906 391.004 12.125C390.684 11.8516 390.266 11.7148 389.75 11.7148V10.7656H396.711V11.7148L395.27 12.0781L397.438 15.0781L398.75 13.4023C399.07 13.0039 399.23 12.6836 399.23 12.4414C399.23 12.2461 399.129 12.0781 398.926 11.9375C398.73 11.7891 398.434 11.7148 398.035 11.7148V10.7656H403.309V11.7148L401.75 12.0781L398.398 16.4023ZM408.113 16.6367C408.113 20.0742 409.074 21.7969 410.996 21.8047C411.73 21.8047 412.352 21.418 412.859 20.6445C413.375 19.8633 413.633 18.6875 413.633 17.1172C413.633 13.6797 412.676 11.9609 410.762 11.9609C410.027 11.9609 409.402 12.3477 408.887 13.1211C408.371 13.8945 408.113 15.0664 408.113 16.6367ZM417.477 16.7656C417.477 18.5859 416.828 20.1211 415.531 21.3711C414.234 22.6133 412.602 23.2344 410.633 23.2344C408.773 23.2344 407.25 22.6484 406.062 21.4766C404.875 20.2969 404.281 18.8047 404.281 17C404.281 15.1797 404.926 13.6445 406.215 12.3945C407.512 11.1445 409.145 10.5195 411.113 10.5195C412.973 10.5195 414.496 11.1094 415.684 12.2891C416.879 13.4688 417.477 14.9609 417.477 16.7656ZM432.125 15.3242V19.8828C432.125 20.7656 432.234 21.3477 432.453 21.6289C432.68 21.9023 433.129 22.0391 433.801 22.0391V23H426.84V22.0391L428.516 21.6758V15.5586C428.516 13.957 427.836 13.1562 426.477 13.1562C426.094 13.1562 425.703 13.2461 425.305 13.4258C424.906 13.5977 424.602 13.7812 424.391 13.9766L424.086 14.2344V19.8828C424.086 20.7656 424.195 21.3477 424.414 21.6289C424.641 21.9023 425.09 22.0391 425.762 22.0391V23H418.801V22.0391L420.477 21.6758V14.5977C420.477 13.668 420.352 13.0352 420.102 12.6992C419.859 12.3633 419.426 12.1953 418.801 12.1953V11.2344C419.504 11.2031 420.246 11.1289 421.027 11.0117C421.816 10.8945 422.418 10.7773 422.832 10.6602L423.477 10.5195L423.723 12.8047H423.957C424.004 12.7422 424.066 12.6602 424.145 12.5586C424.23 12.4492 424.41 12.2656 424.684 12.0078C424.957 11.75 425.242 11.5234 425.539 11.3281C425.844 11.125 426.23 10.9414 426.699 10.7773C427.176 10.6055 427.664 10.5195 428.164 10.5195C429.352 10.5195 430.309 10.9414 431.035 11.7852C431.762 12.6211 432.125 13.8008 432.125 15.3242ZM445.684 14.8438V19.1562C445.684 20.0859 445.809 20.7188 446.059 21.0547C446.309 21.3906 446.742 21.5586 447.359 21.5586V22.5195C446.656 22.5508 445.914 22.6289 445.133 22.7539C444.352 22.8711 443.75 22.9844 443.328 23.0938L442.684 23.2344L442.449 20.9609H442.203C442.156 21.0234 442.09 21.1094 442.004 21.2188C441.926 21.3203 441.754 21.5 441.488 21.7578C441.23 22.0078 440.953 22.2344 440.656 22.4375C440.359 22.6328 439.977 22.8164 439.508 22.9883C439.047 23.1523 438.586 23.2344 438.125 23.2344C437.07 23.2344 436.246 22.9766 435.652 22.4609C435.059 21.9375 434.762 21.2773 434.762 20.4805C434.762 19.7617 435.012 19.1055 435.512 18.5117C436.02 17.918 436.633 17.4531 437.352 17.1172C438.078 16.7812 438.797 16.5 439.508 16.2734C440.219 16.0391 440.82 15.8828 441.312 15.8047L442.086 15.6758V15.0781C442.086 13.0781 441.367 12.0781 439.93 12.0781C439.719 12.0781 439.492 12.1055 439.25 12.1602C439.008 12.2148 438.816 12.2773 438.676 12.3477L438.488 12.4414L437.645 15.0781H435.723V11.7148C435.879 11.6211 436.105 11.5117 436.402 11.3867C436.699 11.2539 437.289 11.0781 438.172 10.8594C439.055 10.6328 439.918 10.5195 440.762 10.5195C442.348 10.5195 443.562 10.9062 444.406 11.6797C445.258 12.4453 445.684 13.5 445.684 14.8438ZM439.801 20.7148C440.184 20.7148 440.566 20.6172 440.949 20.4219C441.34 20.2188 441.621 20.0234 441.793 19.8359L442.086 19.5195V17C441.992 17.0156 441.863 17.0391 441.699 17.0703C441.543 17.1016 441.254 17.1914 440.832 17.3398C440.418 17.4805 440.051 17.6367 439.73 17.8086C439.41 17.9727 439.121 18.2109 438.863 18.5234C438.613 18.8359 438.488 19.168 438.488 19.5195C438.488 19.8867 438.602 20.1797 438.828 20.3984C439.062 20.6094 439.387 20.7148 439.801 20.7148ZM460.449 22.8828V25.4023C460.449 26.2539 460.609 26.8242 460.93 27.1133C461.25 27.4102 461.891 27.5586 462.852 27.5586V28.5195H455.176V27.5586L456.852 27.1953V14.5977C456.852 13.668 456.727 13.0352 456.477 12.6992C456.234 12.3633 455.801 12.1953 455.176 12.1953V11.2344C455.879 11.2031 456.621 11.1289 457.402 11.0117C458.191 10.8945 458.801 10.7773 459.23 10.6602L459.852 10.5195L460.098 12.8047H460.332C460.379 12.7422 460.441 12.6602 460.52 12.5586C460.605 12.4492 460.777 12.2656 461.035 12.0078C461.301 11.75 461.582 11.5234 461.879 11.3281C462.176 11.125 462.555 10.9414 463.016 10.7773C463.484 10.6055 463.949 10.5195 464.41 10.5195C465.66 10.5195 466.73 11.0469 467.621 12.1016C468.52 13.1562 468.969 14.5508 468.969 16.2852C468.969 18.3633 468.352 20.043 467.117 21.3242C465.891 22.5977 464.309 23.2344 462.371 23.2344C462.051 23.2344 461.73 23.2031 461.41 23.1406C461.09 23.0781 460.852 23.0156 460.695 22.9531L460.449 22.8828ZM462.488 21.6758C463.27 21.6758 463.926 21.293 464.457 20.5273C464.988 19.7617 465.254 18.5859 465.254 17C465.254 15.6875 465.023 14.7188 464.562 14.0938C464.109 13.4688 463.5 13.1562 462.734 13.1562C462.352 13.1562 461.965 13.2461 461.574 13.4258C461.191 13.5977 460.906 13.7812 460.719 13.9766L460.449 14.2344V20.5977C460.512 20.6758 460.598 20.7773 460.707 20.9023C460.824 21.0195 461.062 21.1797 461.422 21.3828C461.781 21.5781 462.137 21.6758 462.488 21.6758ZM474.488 16.6367C474.488 20.0742 475.449 21.7969 477.371 21.8047C478.105 21.8047 478.727 21.418 479.234 20.6445C479.75 19.8633 480.008 18.6875 480.008 17.1172C480.008 13.6797 479.051 11.9609 477.137 11.9609C476.402 11.9609 475.777 12.3477 475.262 13.1211C474.746 13.8945 474.488 15.0664 474.488 16.6367ZM483.852 16.7656C483.852 18.5859 483.203 20.1211 481.906 21.3711C480.609 22.6133 478.977 23.2344 477.008 23.2344C475.148 23.2344 473.625 22.6484 472.438 21.4766C471.25 20.2969 470.656 18.8047 470.656 17C470.656 15.1797 471.301 13.6445 472.59 12.3945C473.887 11.1445 475.52 10.5195 477.488 10.5195C479.348 10.5195 480.871 11.1094 482.059 12.2891C483.254 13.4688 483.852 14.9609 483.852 16.7656ZM490.461 14.3633V19.8828C490.461 20.7109 490.609 21.2773 490.906 21.582C491.211 21.8867 491.781 22.0391 492.617 22.0391V23H485.176V22.0391L486.852 21.6758V14.5977C486.852 13.668 486.727 13.0352 486.477 12.6992C486.234 12.3633 485.801 12.1953 485.176 12.1953V11.2344C485.879 11.2031 486.621 11.1289 487.402 11.0117C488.191 10.8945 488.793 10.7773 489.207 10.6602L489.852 10.5195L490.098 12.8047H490.332C490.379 12.7422 490.441 12.6602 490.52 12.5586C490.605 12.4492 490.789 12.2656 491.07 12.0078C491.352 11.75 491.633 11.5234 491.914 11.3281C492.203 11.125 492.562 10.9414 492.992 10.7773C493.43 10.6055 493.863 10.5195 494.293 10.5195C494.613 10.5195 494.926 10.5508 495.23 10.6133C495.535 10.6758 495.75 10.7422 495.875 10.8125L496.098 10.8828V15.1953H494.176L493.332 12.9219C492.801 12.9531 492.297 13.0898 491.82 13.332C491.344 13.5664 491 13.7969 490.789 14.0234L490.461 14.3633ZM516.488 10.4023V19.1562C516.488 20.0859 516.613 20.7188 516.863 21.0547C517.113 21.3906 517.551 21.5586 518.176 21.5586V22.5195C517.473 22.5508 516.727 22.6289 515.938 22.7539C515.156 22.8711 514.559 22.9844 514.145 23.0938L513.488 23.2344L513.254 20.9609H513.008C512.961 21.0234 512.898 21.1094 512.82 21.2188C512.742 21.3203 512.566 21.5 512.293 21.7578C512.02 22.0078 511.73 22.2344 511.426 22.4375C511.121 22.6328 510.73 22.8164 510.254 22.9883C509.785 23.1523 509.305 23.2344 508.812 23.2344C507.625 23.2344 506.668 22.8164 505.941 21.9805C505.215 21.1367 504.852 19.957 504.852 18.4414V14.5977C504.852 13.668 504.727 13.0352 504.477 12.6992C504.234 12.3633 503.801 12.1953 503.176 12.1953V11.2344C504.027 11.2031 504.891 11.1172 505.766 10.9766C506.648 10.8359 507.312 10.6992 507.758 10.5664L508.449 10.4023V18.1953C508.449 19.7969 509.129 20.5977 510.488 20.5977C510.871 20.5977 511.262 20.5117 511.66 20.3398C512.066 20.1602 512.375 19.9766 512.586 19.7891L512.891 19.5195V14.5977C512.891 13.668 512.766 13.0352 512.516 12.6992C512.273 12.3633 511.84 12.1953 511.215 12.1953V11.2344C512.066 11.2031 512.93 11.1172 513.805 10.9766C514.688 10.8359 515.359 10.6992 515.82 10.5664L516.488 10.4023ZM539.422 15.3242V19.8828C539.422 20.7656 539.531 21.3477 539.75 21.6289C539.977 21.9023 540.426 22.0391 541.098 22.0391V23H534.383V22.0391L535.824 21.6758V15.5586C535.824 13.957 535.223 13.1562 534.02 13.1562C533.637 13.1562 533.258 13.2461 532.883 13.4258C532.508 13.5977 532.223 13.7812 532.027 13.9766L531.734 14.2344C531.812 14.4766 531.855 14.918 531.863 15.5586V19.8828C531.863 20.7656 531.969 21.3477 532.18 21.6289C532.398 21.9023 532.812 22.0391 533.422 22.0391V23H526.824V22.0391L528.254 21.6758V15.5586C528.254 13.957 527.656 13.1562 526.461 13.1562C526.109 13.1562 525.754 13.2383 525.395 13.4023C525.035 13.5586 524.766 13.7188 524.586 13.8828L524.305 14.1172V19.8828C524.305 20.7656 524.41 21.3477 524.621 21.6289C524.84 21.9023 525.254 22.0391 525.863 22.0391V23H519.02V22.0391L520.695 21.6758V14.5977C520.695 13.668 520.57 13.0352 520.32 12.6992C520.078 12.3633 519.645 12.1953 519.02 12.1953V11.2344C519.723 11.2031 520.465 11.1289 521.246 11.0117C522.035 10.8945 522.637 10.7773 523.051 10.6602L523.695 10.5195L523.941 12.6758H524.176C524.207 12.6133 524.258 12.5352 524.328 12.4414C524.406 12.3477 524.566 12.1758 524.809 11.9258C525.059 11.6758 525.324 11.457 525.605 11.2695C525.887 11.0742 526.254 10.9023 526.707 10.7539C527.168 10.5977 527.645 10.5195 528.137 10.5195C528.598 10.5195 529.027 10.5977 529.426 10.7539C529.832 10.9023 530.145 11.082 530.363 11.293C530.59 11.4961 530.785 11.7031 530.949 11.9141C531.121 12.1172 531.242 12.293 531.312 12.4414L531.383 12.6758H531.617C531.648 12.6133 531.703 12.5352 531.781 12.4414C531.867 12.3477 532.035 12.1758 532.285 11.9258C532.543 11.6758 532.82 11.457 533.117 11.2695C533.414 11.0742 533.793 10.9023 534.254 10.7539C534.723 10.5977 535.203 10.5195 535.695 10.5195C536.812 10.5195 537.711 10.9297 538.391 11.75C539.078 12.5625 539.422 13.7539 539.422 15.3242ZM563.902 17.1172V8.14062C563.902 7.07031 563.773 6.37891 563.516 6.06641C563.258 5.75391 562.707 5.59766 561.863 5.59766V4.51953H567.863V5.48047L565.824 5.96094V23.2344H564.02L553.941 9.92188L553.461 8.59766H553.215V19.4023C553.215 20.4727 553.344 21.1602 553.602 21.4648C553.859 21.7695 554.41 21.9219 555.254 21.9219V23H549.254V22.0391L551.305 21.5586V8.14062C551.305 7.07031 551.176 6.37891 550.918 6.06641C550.66 5.75391 550.105 5.59766 549.254 5.59766V4.51953H554.656L563.176 15.8047L563.656 17.1172H563.902ZM579.98 14.8438V19.1562C579.98 20.0859 580.105 20.7188 580.355 21.0547C580.605 21.3906 581.039 21.5586 581.656 21.5586V22.5195C580.953 22.5508 580.211 22.6289 579.43 22.7539C578.648 22.8711 578.047 22.9844 577.625 23.0938L576.98 23.2344L576.746 20.9609H576.5C576.453 21.0234 576.387 21.1094 576.301 21.2188C576.223 21.3203 576.051 21.5 575.785 21.7578C575.527 22.0078 575.25 22.2344 574.953 22.4375C574.656 22.6328 574.273 22.8164 573.805 22.9883C573.344 23.1523 572.883 23.2344 572.422 23.2344C571.367 23.2344 570.543 22.9766 569.949 22.4609C569.355 21.9375 569.059 21.2773 569.059 20.4805C569.059 19.7617 569.309 19.1055 569.809 18.5117C570.316 17.918 570.93 17.4531 571.648 17.1172C572.375 16.7812 573.094 16.5 573.805 16.2734C574.516 16.0391 575.117 15.8828 575.609 15.8047L576.383 15.6758V15.0781C576.383 13.0781 575.664 12.0781 574.227 12.0781C574.016 12.0781 573.789 12.1055 573.547 12.1602C573.305 12.2148 573.113 12.2773 572.973 12.3477L572.785 12.4414L571.941 15.0781H570.02V11.7148C570.176 11.6211 570.402 11.5117 570.699 11.3867C570.996 11.2539 571.586 11.0781 572.469 10.8594C573.352 10.6328 574.215 10.5195 575.059 10.5195C576.645 10.5195 577.859 10.9062 578.703 11.6797C579.555 12.4453 579.98 13.5 579.98 14.8438ZM574.098 20.7148C574.48 20.7148 574.863 20.6172 575.246 20.4219C575.637 20.2188 575.918 20.0234 576.09 19.8359L576.383 19.5195V17C576.289 17.0156 576.16 17.0391 575.996 17.0703C575.84 17.1016 575.551 17.1914 575.129 17.3398C574.715 17.4805 574.348 17.6367 574.027 17.8086C573.707 17.9727 573.418 18.2109 573.16 18.5234C572.91 18.8359 572.785 19.168 572.785 19.5195C572.785 19.8867 572.898 20.1797 573.125 20.3984C573.359 20.6094 573.684 20.7148 574.098 20.7148ZM593.914 23H582.875L582.629 22.2852L589.836 12.1953H587.668C586.645 12.1953 585.91 12.4336 585.465 12.9102C585.02 13.3789 584.797 14.1836 584.797 15.3242H583.473V10.7656H594.266L594.512 11.4805L587.316 21.5586H589.836C590.734 21.5586 591.43 21.3086 591.922 20.8086C592.414 20.3008 592.836 19.3906 593.188 18.0781H594.395L593.914 23ZM601.109 10.4023V19.8828C601.109 20.7656 601.219 21.3477 601.438 21.6289C601.664 21.9023 602.113 22.0391 602.785 22.0391V23H595.824V22.0391L597.5 21.6758V14.5977C597.5 13.668 597.375 13.0352 597.125 12.6992C596.883 12.3633 596.449 12.1953 595.824 12.1953V11.2344C596.676 11.2031 597.539 11.1172 598.414 10.9766C599.297 10.8359 599.969 10.6992 600.43 10.5664L601.109 10.4023ZM600.664 5.09375C601.039 5.47656 601.227 5.96484 601.227 6.55859C601.227 7.15234 601.039 7.64062 600.664 8.02344C600.289 8.40625 599.797 8.59766 599.188 8.59766C598.578 8.59766 598.086 8.40625 597.711 8.02344C597.336 7.64062 597.148 7.15234 597.148 6.55859C597.148 5.96484 597.336 5.47656 597.711 5.09375C598.086 4.71094 598.578 4.51953 599.188 4.51953C599.797 4.51953 600.289 4.71094 600.664 5.09375ZM607.578 19.7773C607.984 20.1836 608.188 20.6602 608.188 21.207C608.188 21.7461 607.984 22.2188 607.578 22.625C607.172 23.0312 606.695 23.2344 606.148 23.2344C605.602 23.2344 605.125 23.0312 604.719 22.625C604.312 22.2188 604.109 21.7461 604.109 21.207C604.109 20.6602 604.312 20.1836 604.719 19.7773C605.125 19.3633 605.602 19.1562 606.148 19.1562C606.695 19.1562 607.172 19.3633 607.578 19.7773ZM607.578 11.1289C607.984 11.5352 608.188 12.0117 608.188 12.5586C608.188 13.1055 607.984 13.582 607.578 13.9883C607.172 14.3945 606.695 14.5977 606.148 14.5977C605.602 14.5977 605.125 14.3945 604.719 13.9883C604.312 13.582 604.109 13.1055 604.109 12.5586C604.109 12.0117 604.312 11.5352 604.719 11.1289C605.125 10.7227 605.602 10.5195 606.148 10.5195C606.695 10.5195 607.172 10.7227 607.578 11.1289ZM93.0781 51.8047C94.5625 51.8047 95.7734 51.1602 96.7109 49.8711C97.6484 48.582 98.1172 46.625 98.1172 44C98.1172 41.1875 97.6641 39.1055 96.7578 37.7539C95.8594 36.3945 94.7148 35.7148 93.3242 35.7148C91.8398 35.7148 90.6289 36.3594 89.6914 37.6484C88.7539 38.9375 88.2852 40.8945 88.2852 43.5195C88.2852 46.332 88.7344 48.418 89.6328 49.7773C90.5391 51.1289 91.6875 51.8047 93.0781 51.8047ZM92.7148 53.3633C90.168 53.3633 88.0703 52.5 86.4219 50.7734C84.7812 49.0391 83.9609 46.7812 83.9609 44C83.9609 41.1172 84.8711 38.7578 86.6914 36.9219C88.5195 35.0781 90.8477 34.1562 93.6758 34.1562C96.2227 34.1562 98.3203 35.0234 99.9688 36.7578C101.617 38.4844 102.441 40.7383 102.441 43.5195C102.441 46.4023 101.527 48.7656 99.6992 50.6094C97.8711 52.4453 95.543 53.3633 92.7148 53.3633ZM124.273 45.3242V49.8828C124.273 50.7656 124.383 51.3477 124.602 51.6289C124.828 51.9023 125.277 52.0391 125.949 52.0391V53H118.988V52.0391L120.664 51.6758V45.5586C120.664 43.957 119.984 43.1562 118.625 43.1562C118.242 43.1562 117.852 43.2461 117.453 43.4258C117.055 43.5977 116.75 43.7812 116.539 43.9766L116.234 44.2344V49.8828C116.234 50.7656 116.344 51.3477 116.562 51.6289C116.789 51.9023 117.238 52.0391 117.91 52.0391V53H110.949V52.0391L112.625 51.6758V44.5977C112.625 43.668 112.5 43.0352 112.25 42.6992C112.008 42.3633 111.574 42.1953 110.949 42.1953V41.2344C111.652 41.2031 112.395 41.1289 113.176 41.0117C113.965 40.8945 114.566 40.7773 114.98 40.6602L115.625 40.5195L115.871 42.8047H116.105C116.152 42.7422 116.215 42.6602 116.293 42.5586C116.379 42.4492 116.559 42.2656 116.832 42.0078C117.105 41.75 117.391 41.5234 117.688 41.3281C117.992 41.125 118.379 40.9414 118.848 40.7773C119.324 40.6055 119.812 40.5195 120.312 40.5195C121.5 40.5195 122.457 40.9414 123.184 41.7852C123.91 42.6211 124.273 43.8008 124.273 45.3242ZM130.988 46.6367C130.988 50.0742 131.949 51.7969 133.871 51.8047C134.605 51.8047 135.227 51.418 135.734 50.6445C136.25 49.8633 136.508 48.6875 136.508 47.1172C136.508 43.6797 135.551 41.9609 133.637 41.9609C132.902 41.9609 132.277 42.3477 131.762 43.1211C131.246 43.8945 130.988 45.0664 130.988 46.6367ZM140.352 46.7656C140.352 48.5859 139.703 50.1211 138.406 51.3711C137.109 52.6133 135.477 53.2344 133.508 53.2344C131.648 53.2344 130.125 52.6484 128.938 51.4766C127.75 50.2969 127.156 48.8047 127.156 47C127.156 45.1797 127.801 43.6445 129.09 42.3945C130.387 41.1445 132.02 40.5195 133.988 40.5195C135.848 40.5195 137.371 41.1094 138.559 42.2891C139.754 43.4688 140.352 44.9609 140.352 46.7656ZM162.078 45.3242V49.8828C162.078 50.7656 162.188 51.3477 162.406 51.6289C162.633 51.9023 163.082 52.0391 163.754 52.0391V53H157.039V52.0391L158.48 51.6758V45.5586C158.48 43.957 157.879 43.1562 156.676 43.1562C156.293 43.1562 155.914 43.2461 155.539 43.4258C155.164 43.5977 154.879 43.7812 154.684 43.9766L154.391 44.2344C154.469 44.4766 154.512 44.918 154.52 45.5586V49.8828C154.52 50.7656 154.625 51.3477 154.836 51.6289C155.055 51.9023 155.469 52.0391 156.078 52.0391V53H149.48V52.0391L150.91 51.6758V45.5586C150.91 43.957 150.312 43.1562 149.117 43.1562C148.766 43.1562 148.41 43.2383 148.051 43.4023C147.691 43.5586 147.422 43.7188 147.242 43.8828L146.961 44.1172V49.8828C146.961 50.7656 147.066 51.3477 147.277 51.6289C147.496 51.9023 147.91 52.0391 148.52 52.0391V53H141.676V52.0391L143.352 51.6758V44.5977C143.352 43.668 143.227 43.0352 142.977 42.6992C142.734 42.3633 142.301 42.1953 141.676 42.1953V41.2344C142.379 41.2031 143.121 41.1289 143.902 41.0117C144.691 40.8945 145.293 40.7773 145.707 40.6602L146.352 40.5195L146.598 42.6758H146.832C146.863 42.6133 146.914 42.5352 146.984 42.4414C147.062 42.3477 147.223 42.1758 147.465 41.9258C147.715 41.6758 147.98 41.457 148.262 41.2695C148.543 41.0742 148.91 40.9023 149.363 40.7539C149.824 40.5977 150.301 40.5195 150.793 40.5195C151.254 40.5195 151.684 40.5977 152.082 40.7539C152.488 40.9023 152.801 41.082 153.02 41.293C153.246 41.4961 153.441 41.7031 153.605 41.9141C153.777 42.1172 153.898 42.293 153.969 42.4414L154.039 42.6758H154.273C154.305 42.6133 154.359 42.5352 154.438 42.4414C154.523 42.3477 154.691 42.1758 154.941 41.9258C155.199 41.6758 155.477 41.457 155.773 41.2695C156.07 41.0742 156.449 40.9023 156.91 40.7539C157.379 40.5977 157.859 40.5195 158.352 40.5195C159.469 40.5195 160.367 40.9297 161.047 41.75C161.734 42.5625 162.078 43.7539 162.078 45.3242ZM171.195 42.0781C170.617 42.0781 170.117 42.3555 169.695 42.9102C169.273 43.457 168.973 44.3008 168.793 45.4414L173 45.0781V44.4805C173 43.7305 172.828 43.1445 172.484 42.7227C172.141 42.293 171.711 42.0781 171.195 42.0781ZM171.441 40.5195C173.059 40.5195 174.324 40.9727 175.238 41.8789C176.16 42.7773 176.652 44.043 176.715 45.6758L175.52 46.7656H168.793C168.855 48.0781 169.203 49.0664 169.836 49.7305C170.469 50.3867 171.363 50.7148 172.52 50.7148C173.16 50.7148 173.766 50.6289 174.336 50.457C174.914 50.2773 175.332 50.1016 175.59 49.9297L176 49.6367L176.598 50.2344C176.551 50.3125 176.48 50.4219 176.387 50.5625C176.301 50.7031 176.09 50.9453 175.754 51.2891C175.418 51.6328 175.059 51.9375 174.676 52.2031C174.293 52.4609 173.777 52.6992 173.129 52.918C172.48 53.1289 171.797 53.2344 171.078 53.2344C169.336 53.2344 167.879 52.6523 166.707 51.4883C165.543 50.3164 164.961 48.8594 164.961 47.1172C164.961 45.2578 165.59 43.6953 166.848 42.4297C168.105 41.1562 169.637 40.5195 171.441 40.5195ZM189.066 44.8438V49.1562C189.066 50.0859 189.191 50.7188 189.441 51.0547C189.691 51.3906 190.125 51.5586 190.742 51.5586V52.5195C190.039 52.5508 189.297 52.6289 188.516 52.7539C187.734 52.8711 187.133 52.9844 186.711 53.0938L186.066 53.2344L185.832 50.9609H185.586C185.539 51.0234 185.473 51.1094 185.387 51.2188C185.309 51.3203 185.137 51.5 184.871 51.7578C184.613 52.0078 184.336 52.2344 184.039 52.4375C183.742 52.6328 183.359 52.8164 182.891 52.9883C182.43 53.1523 181.969 53.2344 181.508 53.2344C180.453 53.2344 179.629 52.9766 179.035 52.4609C178.441 51.9375 178.145 51.2773 178.145 50.4805C178.145 49.7617 178.395 49.1055 178.895 48.5117C179.402 47.918 180.016 47.4531 180.734 47.1172C181.461 46.7812 182.18 46.5 182.891 46.2734C183.602 46.0391 184.203 45.8828 184.695 45.8047L185.469 45.6758V45.0781C185.469 43.0781 184.75 42.0781 183.312 42.0781C183.102 42.0781 182.875 42.1055 182.633 42.1602C182.391 42.2148 182.199 42.2773 182.059 42.3477L181.871 42.4414L181.027 45.0781H179.105V41.7148C179.262 41.6211 179.488 41.5117 179.785 41.3867C180.082 41.2539 180.672 41.0781 181.555 40.8594C182.438 40.6328 183.301 40.5195 184.145 40.5195C185.73 40.5195 186.945 40.9062 187.789 41.6797C188.641 42.4453 189.066 43.5 189.066 44.8438ZM183.184 50.7148C183.566 50.7148 183.949 50.6172 184.332 50.4219C184.723 50.2188 185.004 50.0234 185.176 49.8359L185.469 49.5195V47C185.375 47.0156 185.246 47.0391 185.082 47.0703C184.926 47.1016 184.637 47.1914 184.215 47.3398C183.801 47.4805 183.434 47.6367 183.113 47.8086C182.793 47.9727 182.504 48.2109 182.246 48.5234C181.996 48.8359 181.871 49.168 181.871 49.5195C181.871 49.8867 181.984 50.1797 182.211 50.3984C182.445 50.6094 182.77 50.7148 183.184 50.7148ZM198.559 40.5195C198.879 40.5195 199.199 40.5508 199.52 40.6133C199.84 40.6758 200.078 40.7422 200.234 40.8125L200.48 40.8828V37.7656C200.48 36.8359 200.355 36.2031 200.105 35.8672C199.855 35.5312 199.418 35.3633 198.793 35.3633V34.4023C199.574 34.3711 200.406 34.2852 201.289 34.1445C202.172 33.9961 202.859 33.8672 203.352 33.7578L204.078 33.5586V49.1562C204.078 50.0859 204.199 50.7188 204.441 51.0547C204.691 51.3906 205.129 51.5586 205.754 51.5586V52.5195C205.051 52.5508 204.305 52.6289 203.516 52.7539C202.734 52.8711 202.137 52.9844 201.723 53.0938L201.078 53.2344L200.832 50.9609H200.598C200.551 51.0234 200.484 51.1094 200.398 51.2188C200.32 51.3203 200.148 51.5 199.883 51.7578C199.625 52.0078 199.348 52.2344 199.051 52.4375C198.754 52.6328 198.371 52.8164 197.902 52.9883C197.441 53.1523 196.98 53.2344 196.52 53.2344C195.27 53.2344 194.195 52.707 193.297 51.6523C192.406 50.5977 191.961 49.207 191.961 47.4805C191.961 45.4023 192.574 43.7227 193.801 42.4414C195.035 41.1602 196.621 40.5195 198.559 40.5195ZM198.441 42.0781C197.66 42.0781 197.004 42.4648 196.473 43.2383C195.941 44.0039 195.676 45.1797 195.676 46.7656C195.676 48.0781 195.902 49.0469 196.355 49.6719C196.816 50.2891 197.43 50.5977 198.195 50.5977C198.578 50.5977 198.961 50.5117 199.344 50.3398C199.734 50.1602 200.016 49.9766 200.188 49.7891L200.48 49.5195V42.9219C200.004 42.3594 199.324 42.0781 198.441 42.0781ZM210.793 46.6367C210.793 50.0742 211.754 51.7969 213.676 51.8047C214.41 51.8047 215.031 51.418 215.539 50.6445C216.055 49.8633 216.312 48.6875 216.312 47.1172C216.312 43.6797 215.355 41.9609 213.441 41.9609C212.707 41.9609 212.082 42.3477 211.566 43.1211C211.051 43.8945 210.793 45.0664 210.793 46.6367ZM220.156 46.7656C220.156 48.5859 219.508 50.1211 218.211 51.3711C216.914 52.6133 215.281 53.2344 213.312 53.2344C211.453 53.2344 209.93 52.6484 208.742 51.4766C207.555 50.2969 206.961 48.8047 206.961 47C206.961 45.1797 207.605 43.6445 208.895 42.3945C210.191 41.1445 211.824 40.5195 213.793 40.5195C215.652 40.5195 217.176 41.1094 218.363 42.2891C219.559 43.4688 220.156 44.9609 220.156 46.7656ZM233.844 44.3633V49.8828C233.844 50.7109 233.992 51.2773 234.289 51.582C234.594 51.8867 235.164 52.0391 236 52.0391V53H228.559V52.0391L230.234 51.6758V44.5977C230.234 43.668 230.109 43.0352 229.859 42.6992C229.617 42.3633 229.184 42.1953 228.559 42.1953V41.2344C229.262 41.2031 230.004 41.1289 230.785 41.0117C231.574 40.8945 232.176 40.7773 232.59 40.6602L233.234 40.5195L233.48 42.8047H233.715C233.762 42.7422 233.824 42.6602 233.902 42.5586C233.988 42.4492 234.172 42.2656 234.453 42.0078C234.734 41.75 235.016 41.5234 235.297 41.3281C235.586 41.125 235.945 40.9414 236.375 40.7773C236.812 40.6055 237.246 40.5195 237.676 40.5195C237.996 40.5195 238.309 40.5508 238.613 40.6133C238.918 40.6758 239.133 40.7422 239.258 40.8125L239.48 40.8828V45.1953H237.559L236.715 42.9219C236.184 42.9531 235.68 43.0898 235.203 43.332C234.727 43.5664 234.383 43.7969 234.172 44.0234L233.844 44.3633ZM244.285 46.6367C244.285 50.0742 245.246 51.7969 247.168 51.8047C247.902 51.8047 248.523 51.418 249.031 50.6445C249.547 49.8633 249.805 48.6875 249.805 47.1172C249.805 43.6797 248.848 41.9609 246.934 41.9609C246.199 41.9609 245.574 42.3477 245.059 43.1211C244.543 43.8945 244.285 45.0664 244.285 46.6367ZM253.648 46.7656C253.648 48.5859 253 50.1211 251.703 51.3711C250.406 52.6133 248.773 53.2344 246.805 53.2344C244.945 53.2344 243.422 52.6484 242.234 51.4766C241.047 50.2969 240.453 48.8047 240.453 47C240.453 45.1797 241.098 43.6445 242.387 42.3945C243.684 41.1445 245.316 40.5195 247.285 40.5195C249.145 40.5195 250.668 41.1094 251.855 42.2891C253.051 43.4688 253.648 44.9609 253.648 46.7656ZM275.375 45.3242V49.8828C275.375 50.7656 275.484 51.3477 275.703 51.6289C275.93 51.9023 276.379 52.0391 277.051 52.0391V53H270.336V52.0391L271.777 51.6758V45.5586C271.777 43.957 271.176 43.1562 269.973 43.1562C269.59 43.1562 269.211 43.2461 268.836 43.4258C268.461 43.5977 268.176 43.7812 267.98 43.9766L267.688 44.2344C267.766 44.4766 267.809 44.918 267.816 45.5586V49.8828C267.816 50.7656 267.922 51.3477 268.133 51.6289C268.352 51.9023 268.766 52.0391 269.375 52.0391V53H262.777V52.0391L264.207 51.6758V45.5586C264.207 43.957 263.609 43.1562 262.414 43.1562C262.062 43.1562 261.707 43.2383 261.348 43.4023C260.988 43.5586 260.719 43.7188 260.539 43.8828L260.258 44.1172V49.8828C260.258 50.7656 260.363 51.3477 260.574 51.6289C260.793 51.9023 261.207 52.0391 261.816 52.0391V53H254.973V52.0391L256.648 51.6758V44.5977C256.648 43.668 256.523 43.0352 256.273 42.6992C256.031 42.3633 255.598 42.1953 254.973 42.1953V41.2344C255.676 41.2031 256.418 41.1289 257.199 41.0117C257.988 40.8945 258.59 40.7773 259.004 40.6602L259.648 40.5195L259.895 42.6758H260.129C260.16 42.6133 260.211 42.5352 260.281 42.4414C260.359 42.3477 260.52 42.1758 260.762 41.9258C261.012 41.6758 261.277 41.457 261.559 41.2695C261.84 41.0742 262.207 40.9023 262.66 40.7539C263.121 40.5977 263.598 40.5195 264.09 40.5195C264.551 40.5195 264.98 40.5977 265.379 40.7539C265.785 40.9023 266.098 41.082 266.316 41.293C266.543 41.4961 266.738 41.7031 266.902 41.9141C267.074 42.1172 267.195 42.293 267.266 42.4414L267.336 42.6758H267.57C267.602 42.6133 267.656 42.5352 267.734 42.4414C267.82 42.3477 267.988 42.1758 268.238 41.9258C268.496 41.6758 268.773 41.457 269.07 41.2695C269.367 41.0742 269.746 40.9023 270.207 40.7539C270.676 40.5977 271.156 40.5195 271.648 40.5195C272.766 40.5195 273.664 40.9297 274.344 41.75C275.031 42.5625 275.375 43.7539 275.375 45.3242ZM288.934 44.8438V49.1562C288.934 50.0859 289.059 50.7188 289.309 51.0547C289.559 51.3906 289.992 51.5586 290.609 51.5586V52.5195C289.906 52.5508 289.164 52.6289 288.383 52.7539C287.602 52.8711 287 52.9844 286.578 53.0938L285.934 53.2344L285.699 50.9609H285.453C285.406 51.0234 285.34 51.1094 285.254 51.2188C285.176 51.3203 285.004 51.5 284.738 51.7578C284.48 52.0078 284.203 52.2344 283.906 52.4375C283.609 52.6328 283.227 52.8164 282.758 52.9883C282.297 53.1523 281.836 53.2344 281.375 53.2344C280.32 53.2344 279.496 52.9766 278.902 52.4609C278.309 51.9375 278.012 51.2773 278.012 50.4805C278.012 49.7617 278.262 49.1055 278.762 48.5117C279.27 47.918 279.883 47.4531 280.602 47.1172C281.328 46.7812 282.047 46.5 282.758 46.2734C283.469 46.0391 284.07 45.8828 284.562 45.8047L285.336 45.6758V45.0781C285.336 43.0781 284.617 42.0781 283.18 42.0781C282.969 42.0781 282.742 42.1055 282.5 42.1602C282.258 42.2148 282.066 42.2773 281.926 42.3477L281.738 42.4414L280.895 45.0781H278.973V41.7148C279.129 41.6211 279.355 41.5117 279.652 41.3867C279.949 41.2539 280.539 41.0781 281.422 40.8594C282.305 40.6328 283.168 40.5195 284.012 40.5195C285.598 40.5195 286.812 40.9062 287.656 41.6797C288.508 42.4453 288.934 43.5 288.934 44.8438ZM283.051 50.7148C283.434 50.7148 283.816 50.6172 284.199 50.4219C284.59 50.2188 284.871 50.0234 285.043 49.8359L285.336 49.5195V47C285.242 47.0156 285.113 47.0391 284.949 47.0703C284.793 47.1016 284.504 47.1914 284.082 47.3398C283.668 47.4805 283.301 47.6367 282.98 47.8086C282.66 47.9727 282.371 48.2109 282.113 48.5234C281.863 48.8359 281.738 49.168 281.738 49.5195C281.738 49.8867 281.852 50.1797 282.078 50.3984C282.312 50.6094 282.637 50.7148 283.051 50.7148ZM304.789 45.3242V49.8828C304.789 50.7656 304.898 51.3477 305.117 51.6289C305.344 51.9023 305.793 52.0391 306.465 52.0391V53H299.504V52.0391L301.18 51.6758V45.5586C301.18 43.957 300.5 43.1562 299.141 43.1562C298.758 43.1562 298.367 43.2461 297.969 43.4258C297.57 43.5977 297.266 43.7812 297.055 43.9766L296.75 44.2344V49.8828C296.75 50.7656 296.859 51.3477 297.078 51.6289C297.305 51.9023 297.754 52.0391 298.426 52.0391V53H291.465V52.0391L293.141 51.6758V44.5977C293.141 43.668 293.016 43.0352 292.766 42.6992C292.523 42.3633 292.09 42.1953 291.465 42.1953V41.2344C292.168 41.2031 292.91 41.1289 293.691 41.0117C294.48 40.8945 295.082 40.7773 295.496 40.6602L296.141 40.5195L296.387 42.8047H296.621C296.668 42.7422 296.73 42.6602 296.809 42.5586C296.895 42.4492 297.074 42.2656 297.348 42.0078C297.621 41.75 297.906 41.5234 298.203 41.3281C298.508 41.125 298.895 40.9414 299.363 40.7773C299.84 40.6055 300.328 40.5195 300.828 40.5195C302.016 40.5195 302.973 40.9414 303.699 41.7852C304.426 42.6211 304.789 43.8008 304.789 45.3242ZM307.672 47.1172C307.672 45.2266 308.332 43.6562 309.652 42.4062C310.973 41.1484 312.672 40.5195 314.75 40.5195C315.531 40.5195 316.262 40.6094 316.941 40.7891C317.621 40.9609 318.105 41.1445 318.395 41.3398L318.828 41.5977V45.4414H317.152L316.062 42.3242C315.742 42.168 315.305 42.0859 314.75 42.0781C313.852 42.0781 313.086 42.4766 312.453 43.2734C311.82 44.0625 311.504 45.1445 311.504 46.5195C311.504 47.8164 311.848 48.8398 312.535 49.5898C313.223 50.3398 314.121 50.7148 315.23 50.7148C315.871 50.7148 316.477 50.6289 317.047 50.457C317.625 50.2773 318.043 50.1016 318.301 49.9297L318.711 49.6367L319.309 50.2344C319.262 50.3125 319.191 50.4219 319.098 50.5625C319.012 50.7031 318.801 50.9453 318.465 51.2891C318.129 51.6328 317.77 51.9375 317.387 52.2031C317.004 52.4609 316.488 52.6992 315.84 52.918C315.191 53.1289 314.508 53.2344 313.789 53.2344C312.047 53.2344 310.59 52.6523 309.418 51.4883C308.254 50.3164 307.672 48.8594 307.672 47.1172ZM326.867 42.0781C326.289 42.0781 325.789 42.3555 325.367 42.9102C324.945 43.457 324.645 44.3008 324.465 45.4414L328.672 45.0781V44.4805C328.672 43.7305 328.5 43.1445 328.156 42.7227C327.812 42.293 327.383 42.0781 326.867 42.0781ZM327.113 40.5195C328.73 40.5195 329.996 40.9727 330.91 41.8789C331.832 42.7773 332.324 44.043 332.387 45.6758L331.191 46.7656H324.465C324.527 48.0781 324.875 49.0664 325.508 49.7305C326.141 50.3867 327.035 50.7148 328.191 50.7148C328.832 50.7148 329.438 50.6289 330.008 50.457C330.586 50.2773 331.004 50.1016 331.262 49.9297L331.672 49.6367L332.27 50.2344C332.223 50.3125 332.152 50.4219 332.059 50.5625C331.973 50.7031 331.762 50.9453 331.426 51.2891C331.09 51.6328 330.73 51.9375 330.348 52.2031C329.965 52.4609 329.449 52.6992 328.801 52.918C328.152 53.1289 327.469 53.2344 326.75 53.2344C325.008 53.2344 323.551 52.6523 322.379 51.4883C321.215 50.3164 320.633 48.8594 320.633 47.1172C320.633 45.2578 321.262 43.6953 322.52 42.4297C323.777 41.1562 325.309 40.5195 327.113 40.5195ZM347.738 40.5195C348.059 40.5195 348.379 40.5508 348.699 40.6133C349.02 40.6758 349.258 40.7422 349.414 40.8125L349.66 40.8828V37.7656C349.66 36.8359 349.535 36.2031 349.285 35.8672C349.035 35.5312 348.598 35.3633 347.973 35.3633V34.4023C348.754 34.3711 349.586 34.2852 350.469 34.1445C351.352 33.9961 352.039 33.8672 352.531 33.7578L353.258 33.5586V49.1562C353.258 50.0859 353.379 50.7188 353.621 51.0547C353.871 51.3906 354.309 51.5586 354.934 51.5586V52.5195C354.23 52.5508 353.484 52.6289 352.695 52.7539C351.914 52.8711 351.316 52.9844 350.902 53.0938L350.258 53.2344L350.012 50.9609H349.777C349.73 51.0234 349.664 51.1094 349.578 51.2188C349.5 51.3203 349.328 51.5 349.062 51.7578C348.805 52.0078 348.527 52.2344 348.23 52.4375C347.934 52.6328 347.551 52.8164 347.082 52.9883C346.621 53.1523 346.16 53.2344 345.699 53.2344C344.449 53.2344 343.375 52.707 342.477 51.6523C341.586 50.5977 341.141 49.207 341.141 47.4805C341.141 45.4023 341.754 43.7227 342.98 42.4414C344.215 41.1602 345.801 40.5195 347.738 40.5195ZM347.621 42.0781C346.84 42.0781 346.184 42.4648 345.652 43.2383C345.121 44.0039 344.855 45.1797 344.855 46.7656C344.855 48.0781 345.082 49.0469 345.535 49.6719C345.996 50.2891 346.609 50.5977 347.375 50.5977C347.758 50.5977 348.141 50.5117 348.523 50.3398C348.914 50.1602 349.195 49.9766 349.367 49.7891L349.66 49.5195V42.9219C349.184 42.3594 348.504 42.0781 347.621 42.0781ZM359.973 46.6367C359.973 50.0742 360.934 51.7969 362.855 51.8047C363.59 51.8047 364.211 51.418 364.719 50.6445C365.234 49.8633 365.492 48.6875 365.492 47.1172C365.492 43.6797 364.535 41.9609 362.621 41.9609C361.887 41.9609 361.262 42.3477 360.746 43.1211C360.23 43.8945 359.973 45.0664 359.973 46.6367ZM369.336 46.7656C369.336 48.5859 368.688 50.1211 367.391 51.3711C366.094 52.6133 364.461 53.2344 362.492 53.2344C360.633 53.2344 359.109 52.6484 357.922 51.4766C356.734 50.2969 356.141 48.8047 356.141 47C356.141 45.1797 356.785 43.6445 358.074 42.3945C359.371 41.1445 361.004 40.5195 362.973 40.5195C364.832 40.5195 366.355 41.1094 367.543 42.2891C368.738 43.4688 369.336 44.9609 369.336 46.7656ZM395.023 35.9609V49.4023C395.023 50.4727 395.148 51.1602 395.398 51.4648C395.656 51.7695 396.211 51.9219 397.062 51.9219V53H389.141V52.0391L391.18 51.5586V44.2344H383.855V49.4023C383.855 50.4727 383.984 51.1602 384.242 51.4648C384.5 51.7695 385.051 51.9219 385.895 51.9219V53H377.973V52.0391L380.023 51.5586V38.1172C380.023 37.0469 379.895 36.3594 379.637 36.0547C379.379 35.75 378.824 35.5977 377.973 35.5977V34.5195H385.895V35.4805L383.855 35.9609V42.5586H391.18V38.1172C391.18 37.0469 391.051 36.3594 390.793 36.0547C390.535 35.75 389.984 35.5977 389.141 35.5977V34.5195H397.062V35.4805L395.023 35.9609ZM402.465 46.6367C402.465 50.0742 403.426 51.7969 405.348 51.8047C406.082 51.8047 406.703 51.418 407.211 50.6445C407.727 49.8633 407.984 48.6875 407.984 47.1172C407.984 43.6797 407.027 41.9609 405.113 41.9609C404.379 41.9609 403.754 42.3477 403.238 43.1211C402.723 43.8945 402.465 45.0664 402.465 46.6367ZM411.828 46.7656C411.828 48.5859 411.18 50.1211 409.883 51.3711C408.586 52.6133 406.953 53.2344 404.984 53.2344C403.125 53.2344 401.602 52.6484 400.414 51.4766C399.227 50.2969 398.633 48.8047 398.633 47C398.633 45.1797 399.277 43.6445 400.566 42.3945C401.863 41.1445 403.496 40.5195 405.465 40.5195C407.324 40.5195 408.848 41.1094 410.035 42.2891C411.23 43.4688 411.828 44.9609 411.828 46.7656ZM418.191 33.5586V49.8828C418.191 50.7656 418.301 51.3477 418.52 51.6289C418.746 51.9023 419.195 52.0391 419.867 52.0391V53H412.906V52.0391L414.594 51.6758V37.7656C414.594 36.8359 414.469 36.2031 414.219 35.8672C413.969 35.5312 413.531 35.3633 412.906 35.3633V34.4023C413.688 34.3711 414.52 34.2852 415.402 34.1445C416.285 33.9961 416.977 33.8672 417.477 33.7578L418.191 33.5586ZM424.918 46.6367C424.918 50.0742 425.879 51.7969 427.801 51.8047C428.535 51.8047 429.156 51.418 429.664 50.6445C430.18 49.8633 430.438 48.6875 430.438 47.1172C430.438 43.6797 429.48 41.9609 427.566 41.9609C426.832 41.9609 426.207 42.3477 425.691 43.1211C425.176 43.8945 424.918 45.0664 424.918 46.6367ZM434.281 46.7656C434.281 48.5859 433.633 50.1211 432.336 51.3711C431.039 52.6133 429.406 53.2344 427.438 53.2344C425.578 53.2344 424.055 52.6484 422.867 51.4766C421.68 50.2969 421.086 48.8047 421.086 47C421.086 45.1797 421.73 43.6445 423.02 42.3945C424.316 41.1445 425.949 40.5195 427.918 40.5195C429.777 40.5195 431.301 41.1094 432.488 42.2891C433.684 43.4688 434.281 44.9609 434.281 46.7656ZM435.969 47.1172C435.969 45.2266 436.629 43.6562 437.949 42.4062C439.27 41.1484 440.969 40.5195 443.047 40.5195C443.828 40.5195 444.559 40.6094 445.238 40.7891C445.918 40.9609 446.402 41.1445 446.691 41.3398L447.125 41.5977V45.4414H445.449L444.359 42.3242C444.039 42.168 443.602 42.0859 443.047 42.0781C442.148 42.0781 441.383 42.4766 440.75 43.2734C440.117 44.0625 439.801 45.1445 439.801 46.5195C439.801 47.8164 440.145 48.8398 440.832 49.5898C441.52 50.3398 442.418 50.7148 443.527 50.7148C444.168 50.7148 444.773 50.6289 445.344 50.457C445.922 50.2773 446.34 50.1016 446.598 49.9297L447.008 49.6367L447.605 50.2344C447.559 50.3125 447.488 50.4219 447.395 50.5625C447.309 50.7031 447.098 50.9453 446.762 51.2891C446.426 51.6328 446.066 51.9375 445.684 52.2031C445.301 52.4609 444.785 52.6992 444.137 52.918C443.488 53.1289 442.805 53.2344 442.086 53.2344C440.344 53.2344 438.887 52.6523 437.715 51.4883C436.551 50.3164 435.969 48.8594 435.969 47.1172ZM459.84 44.8438V49.1562C459.84 50.0859 459.965 50.7188 460.215 51.0547C460.465 51.3906 460.898 51.5586 461.516 51.5586V52.5195C460.812 52.5508 460.07 52.6289 459.289 52.7539C458.508 52.8711 457.906 52.9844 457.484 53.0938L456.84 53.2344L456.605 50.9609H456.359C456.312 51.0234 456.246 51.1094 456.16 51.2188C456.082 51.3203 455.91 51.5 455.645 51.7578C455.387 52.0078 455.109 52.2344 454.812 52.4375C454.516 52.6328 454.133 52.8164 453.664 52.9883C453.203 53.1523 452.742 53.2344 452.281 53.2344C451.227 53.2344 450.402 52.9766 449.809 52.4609C449.215 51.9375 448.918 51.2773 448.918 50.4805C448.918 49.7617 449.168 49.1055 449.668 48.5117C450.176 47.918 450.789 47.4531 451.508 47.1172C452.234 46.7812 452.953 46.5 453.664 46.2734C454.375 46.0391 454.977 45.8828 455.469 45.8047L456.242 45.6758V45.0781C456.242 43.0781 455.523 42.0781 454.086 42.0781C453.875 42.0781 453.648 42.1055 453.406 42.1602C453.164 42.2148 452.973 42.2773 452.832 42.3477L452.645 42.4414L451.801 45.0781H449.879V41.7148C450.035 41.6211 450.262 41.5117 450.559 41.3867C450.855 41.2539 451.445 41.0781 452.328 40.8594C453.211 40.6328 454.074 40.5195 454.918 40.5195C456.504 40.5195 457.719 40.9062 458.562 41.6797C459.414 42.4453 459.84 43.5 459.84 44.8438ZM453.957 50.7148C454.34 50.7148 454.723 50.6172 455.105 50.4219C455.496 50.2188 455.777 50.0234 455.949 49.8359L456.242 49.5195V47C456.148 47.0156 456.02 47.0391 455.855 47.0703C455.699 47.1016 455.41 47.1914 454.988 47.3398C454.574 47.4805 454.207 47.6367 453.887 47.8086C453.566 47.9727 453.277 48.2109 453.02 48.5234C452.77 48.8359 452.645 49.168 452.645 49.5195C452.645 49.8867 452.758 50.1797 452.984 50.3984C453.219 50.6094 453.543 50.7148 453.957 50.7148ZM475.332 40.4023V49.1562C475.332 50.0859 475.457 50.7188 475.707 51.0547C475.957 51.3906 476.395 51.5586 477.02 51.5586V52.5195C476.316 52.5508 475.57 52.6289 474.781 52.7539C474 52.8711 473.402 52.9844 472.988 53.0938L472.332 53.2344L472.098 50.9609H471.852C471.805 51.0234 471.742 51.1094 471.664 51.2188C471.586 51.3203 471.41 51.5 471.137 51.7578C470.863 52.0078 470.574 52.2344 470.27 52.4375C469.965 52.6328 469.574 52.8164 469.098 52.9883C468.629 53.1523 468.148 53.2344 467.656 53.2344C466.469 53.2344 465.512 52.8164 464.785 51.9805C464.059 51.1367 463.695 49.957 463.695 48.4414V44.5977C463.695 43.668 463.57 43.0352 463.32 42.6992C463.078 42.3633 462.645 42.1953 462.02 42.1953V41.2344C462.871 41.2031 463.734 41.1172 464.609 40.9766C465.492 40.8359 466.156 40.6992 466.602 40.5664L467.293 40.4023V48.1953C467.293 49.7969 467.973 50.5977 469.332 50.5977C469.715 50.5977 470.105 50.5117 470.504 50.3398C470.91 50.1602 471.219 49.9766 471.43 49.7891L471.734 49.5195V44.5977C471.734 43.668 471.609 43.0352 471.359 42.6992C471.117 42.3633 470.684 42.1953 470.059 42.1953V41.2344C470.91 41.2031 471.773 41.1172 472.648 40.9766C473.531 40.8359 474.203 40.6992 474.664 40.5664L475.332 40.4023ZM484.824 50C484.824 49.6172 484.605 49.2617 484.168 48.9336C483.738 48.6055 483.219 48.3086 482.609 48.043C482.008 47.7773 481.402 47.4844 480.793 47.1641C480.184 46.8438 479.66 46.4141 479.223 45.875C478.793 45.3281 478.578 44.7031 478.578 44C478.578 42.9766 479 42.1406 479.844 41.4922C480.695 40.8438 481.953 40.5195 483.617 40.5195C484.289 40.5195 484.945 40.5938 485.586 40.7422C486.227 40.8828 486.699 41.0156 487.004 41.1406L487.461 41.3633V44.4805H486.266C486.086 43.582 485.809 42.9375 485.434 42.5469C485.059 42.1562 484.535 41.9609 483.863 41.9609C483.332 41.9609 482.918 42.0898 482.621 42.3477C482.332 42.5977 482.188 42.9102 482.188 43.2852C482.188 43.7148 482.402 44.0859 482.832 44.3984C483.262 44.7109 483.781 44.9805 484.391 45.207C485 45.4258 485.605 45.6758 486.207 45.957C486.816 46.2383 487.336 46.6523 487.766 47.1992C488.203 47.7383 488.422 48.3906 488.422 49.1562C488.422 50.2891 487.934 51.2539 486.957 52.0508C485.98 52.8398 484.629 53.2344 482.902 53.2344C482.09 53.2344 481.289 53.1562 480.5 53C479.719 52.8438 479.145 52.6836 478.777 52.5195L478.227 52.2852V48.5586H479.422C479.789 50.7148 480.871 51.7969 482.668 51.8047C483.309 51.8047 483.828 51.6289 484.227 51.2773C484.625 50.918 484.824 50.4922 484.824 50ZM489.629 42.3242V41.1172L491.551 40.7656V37.6367L494.422 36.6758H495.148V40.7656H498.98V42.6758H497.668L495.148 42.0781V49.1562C495.148 50.2734 495.707 50.8359 496.824 50.8438C497.207 50.8438 497.578 50.7852 497.938 50.668C498.297 50.543 498.559 50.4258 498.723 50.3164L498.98 50.1172L499.461 50.8438C499.414 50.9062 499.352 50.9961 499.273 51.1133C499.195 51.2227 499.02 51.4141 498.746 51.6875C498.473 51.9531 498.184 52.1914 497.879 52.4023C497.574 52.6055 497.184 52.7969 496.707 52.9766C496.238 53.1484 495.758 53.2344 495.266 53.2344C494.062 53.2344 493.141 52.918 492.5 52.2852C491.867 51.6445 491.551 50.7227 491.551 49.5195V42.3242H489.629ZM504.512 46.6367C504.512 50.0742 505.473 51.7969 507.395 51.8047C508.129 51.8047 508.75 51.418 509.258 50.6445C509.773 49.8633 510.031 48.6875 510.031 47.1172C510.031 43.6797 509.074 41.9609 507.16 41.9609C506.426 41.9609 505.801 42.3477 505.285 43.1211C504.77 43.8945 504.512 45.0664 504.512 46.6367ZM513.875 46.7656C513.875 48.5859 513.227 50.1211 511.93 51.3711C510.633 52.6133 509 53.2344 507.031 53.2344C505.172 53.2344 503.648 52.6484 502.461 51.4766C501.273 50.2969 500.68 48.8047 500.68 47C500.68 45.1797 501.324 43.6445 502.613 42.3945C503.91 41.1445 505.543 40.5195 507.512 40.5195C509.371 40.5195 510.895 41.1094 512.082 42.2891C513.277 43.4688 513.875 44.9609 513.875 46.7656ZM83.8438 77.1172C83.8438 75.2266 84.5039 73.6562 85.8242 72.4062C87.1445 71.1484 88.8438 70.5195 90.9219 70.5195C91.7031 70.5195 92.4336 70.6094 93.1133 70.7891C93.793 70.9609 94.2773 71.1445 94.5664 71.3398L95 71.5977V75.4414H93.3242L92.2344 72.3242C91.9141 72.168 91.4766 72.0859 90.9219 72.0781C90.0234 72.0781 89.2578 72.4766 88.625 73.2734C87.9922 74.0625 87.6758 75.1445 87.6758 76.5195C87.6758 77.8164 88.0195 78.8398 88.707 79.5898C89.3945 80.3398 90.293 80.7148 91.4023 80.7148C92.043 80.7148 92.6484 80.6289 93.2188 80.457C93.7969 80.2773 94.2148 80.1016 94.4727 79.9297L94.8828 79.6367L95.4805 80.2344C95.4336 80.3125 95.3633 80.4219 95.2695 80.5625C95.1836 80.7031 94.9727 80.9453 94.6367 81.2891C94.3008 81.6328 93.9414 81.9375 93.5586 82.2031C93.1758 82.4609 92.6602 82.6992 92.0117 82.918C91.3633 83.1289 90.6797 83.2344 89.9609 83.2344C88.2188 83.2344 86.7617 82.6523 85.5898 81.4883C84.4258 80.3164 83.8438 78.8594 83.8438 77.1172ZM107.715 74.8438V79.1562C107.715 80.0859 107.84 80.7188 108.09 81.0547C108.34 81.3906 108.773 81.5586 109.391 81.5586V82.5195C108.688 82.5508 107.945 82.6289 107.164 82.7539C106.383 82.8711 105.781 82.9844 105.359 83.0938L104.715 83.2344L104.48 80.9609H104.234C104.188 81.0234 104.121 81.1094 104.035 81.2188C103.957 81.3203 103.785 81.5 103.52 81.7578C103.262 82.0078 102.984 82.2344 102.688 82.4375C102.391 82.6328 102.008 82.8164 101.539 82.9883C101.078 83.1523 100.617 83.2344 100.156 83.2344C99.1016 83.2344 98.2773 82.9766 97.6836 82.4609C97.0898 81.9375 96.793 81.2773 96.793 80.4805C96.793 79.7617 97.043 79.1055 97.543 78.5117C98.0508 77.918 98.6641 77.4531 99.3828 77.1172C100.109 76.7812 100.828 76.5 101.539 76.2734C102.25 76.0391 102.852 75.8828 103.344 75.8047L104.117 75.6758V75.0781C104.117 73.0781 103.398 72.0781 101.961 72.0781C101.75 72.0781 101.523 72.1055 101.281 72.1602C101.039 72.2148 100.848 72.2773 100.707 72.3477L100.52 72.4414L99.6758 75.0781H97.7539V71.7148C97.9102 71.6211 98.1367 71.5117 98.4336 71.3867C98.7305 71.2539 99.3203 71.0781 100.203 70.8594C101.086 70.6328 101.949 70.5195 102.793 70.5195C104.379 70.5195 105.594 70.9062 106.438 71.6797C107.289 72.4453 107.715 73.5 107.715 74.8438ZM101.832 80.7148C102.215 80.7148 102.598 80.6172 102.98 80.4219C103.371 80.2188 103.652 80.0234 103.824 79.8359L104.117 79.5195V77C104.023 77.0156 103.895 77.0391 103.73 77.0703C103.574 77.1016 103.285 77.1914 102.863 77.3398C102.449 77.4805 102.082 77.6367 101.762 77.8086C101.441 77.9727 101.152 78.2109 100.895 78.5234C100.645 78.8359 100.52 79.168 100.52 79.5195C100.52 79.8867 100.633 80.1797 100.859 80.3984C101.094 80.6094 101.418 80.7148 101.832 80.7148ZM123.207 70.4023V79.1562C123.207 80.0859 123.332 80.7188 123.582 81.0547C123.832 81.3906 124.27 81.5586 124.895 81.5586V82.5195C124.191 82.5508 123.445 82.6289 122.656 82.7539C121.875 82.8711 121.277 82.9844 120.863 83.0938L120.207 83.2344L119.973 80.9609H119.727C119.68 81.0234 119.617 81.1094 119.539 81.2188C119.461 81.3203 119.285 81.5 119.012 81.7578C118.738 82.0078 118.449 82.2344 118.145 82.4375C117.84 82.6328 117.449 82.8164 116.973 82.9883C116.504 83.1523 116.023 83.2344 115.531 83.2344C114.344 83.2344 113.387 82.8164 112.66 81.9805C111.934 81.1367 111.57 79.957 111.57 78.4414V74.5977C111.57 73.668 111.445 73.0352 111.195 72.6992C110.953 72.3633 110.52 72.1953 109.895 72.1953V71.2344C110.746 71.2031 111.609 71.1172 112.484 70.9766C113.367 70.8359 114.031 70.6992 114.477 70.5664L115.168 70.4023V78.1953C115.168 79.7969 115.848 80.5977 117.207 80.5977C117.59 80.5977 117.98 80.5117 118.379 80.3398C118.785 80.1602 119.094 79.9766 119.305 79.7891L119.609 79.5195V74.5977C119.609 73.668 119.484 73.0352 119.234 72.6992C118.992 72.3633 118.559 72.1953 117.934 72.1953V71.2344C118.785 71.2031 119.648 71.1172 120.523 70.9766C121.406 70.8359 122.078 70.6992 122.539 70.5664L123.207 70.4023ZM132.699 80C132.699 79.6172 132.48 79.2617 132.043 78.9336C131.613 78.6055 131.094 78.3086 130.484 78.043C129.883 77.7773 129.277 77.4844 128.668 77.1641C128.059 76.8438 127.535 76.4141 127.098 75.875C126.668 75.3281 126.453 74.7031 126.453 74C126.453 72.9766 126.875 72.1406 127.719 71.4922C128.57 70.8438 129.828 70.5195 131.492 70.5195C132.164 70.5195 132.82 70.5938 133.461 70.7422C134.102 70.8828 134.574 71.0156 134.879 71.1406L135.336 71.3633V74.4805H134.141C133.961 73.582 133.684 72.9375 133.309 72.5469C132.934 72.1562 132.41 71.9609 131.738 71.9609C131.207 71.9609 130.793 72.0898 130.496 72.3477C130.207 72.5977 130.062 72.9102 130.062 73.2852C130.062 73.7148 130.277 74.0859 130.707 74.3984C131.137 74.7109 131.656 74.9805 132.266 75.207C132.875 75.4258 133.48 75.6758 134.082 75.957C134.691 76.2383 135.211 76.6523 135.641 77.1992C136.078 77.7383 136.297 78.3906 136.297 79.1562C136.297 80.2891 135.809 81.2539 134.832 82.0508C133.855 82.8398 132.504 83.2344 130.777 83.2344C129.965 83.2344 129.164 83.1562 128.375 83C127.594 82.8438 127.02 82.6836 126.652 82.5195L126.102 82.2852V78.5586H127.297C127.664 80.7148 128.746 81.7969 130.543 81.8047C131.184 81.8047 131.703 81.6289 132.102 81.2773C132.5 80.918 132.699 80.4922 132.699 80ZM148.66 74.8438V79.1562C148.66 80.0859 148.785 80.7188 149.035 81.0547C149.285 81.3906 149.719 81.5586 150.336 81.5586V82.5195C149.633 82.5508 148.891 82.6289 148.109 82.7539C147.328 82.8711 146.727 82.9844 146.305 83.0938L145.66 83.2344L145.426 80.9609H145.18C145.133 81.0234 145.066 81.1094 144.98 81.2188C144.902 81.3203 144.73 81.5 144.465 81.7578C144.207 82.0078 143.93 82.2344 143.633 82.4375C143.336 82.6328 142.953 82.8164 142.484 82.9883C142.023 83.1523 141.562 83.2344 141.102 83.2344C140.047 83.2344 139.223 82.9766 138.629 82.4609C138.035 81.9375 137.738 81.2773 137.738 80.4805C137.738 79.7617 137.988 79.1055 138.488 78.5117C138.996 77.918 139.609 77.4531 140.328 77.1172C141.055 76.7812 141.773 76.5 142.484 76.2734C143.195 76.0391 143.797 75.8828 144.289 75.8047L145.062 75.6758V75.0781C145.062 73.0781 144.344 72.0781 142.906 72.0781C142.695 72.0781 142.469 72.1055 142.227 72.1602C141.984 72.2148 141.793 72.2773 141.652 72.3477L141.465 72.4414L140.621 75.0781H138.699V71.7148C138.855 71.6211 139.082 71.5117 139.379 71.3867C139.676 71.2539 140.266 71.0781 141.148 70.8594C142.031 70.6328 142.895 70.5195 143.738 70.5195C145.324 70.5195 146.539 70.9062 147.383 71.6797C148.234 72.4453 148.66 73.5 148.66 74.8438ZM142.777 80.7148C143.16 80.7148 143.543 80.6172 143.926 80.4219C144.316 80.2188 144.598 80.0234 144.77 79.8359L145.062 79.5195V77C144.969 77.0156 144.84 77.0391 144.676 77.0703C144.52 77.1016 144.23 77.1914 143.809 77.3398C143.395 77.4805 143.027 77.6367 142.707 77.8086C142.387 77.9727 142.098 78.2109 141.84 78.5234C141.59 78.8359 141.465 79.168 141.465 79.5195C141.465 79.8867 141.578 80.1797 141.805 80.3984C142.039 80.6094 142.363 80.7148 142.777 80.7148ZM164.867 72.0781C164.289 72.0781 163.789 72.3555 163.367 72.9102C162.945 73.457 162.645 74.3008 162.465 75.4414L166.672 75.0781V74.4805C166.672 73.7305 166.5 73.1445 166.156 72.7227C165.812 72.293 165.383 72.0781 164.867 72.0781ZM165.113 70.5195C166.73 70.5195 167.996 70.9727 168.91 71.8789C169.832 72.7773 170.324 74.043 170.387 75.6758L169.191 76.7656H162.465C162.527 78.0781 162.875 79.0664 163.508 79.7305C164.141 80.3867 165.035 80.7148 166.191 80.7148C166.832 80.7148 167.438 80.6289 168.008 80.457C168.586 80.2773 169.004 80.1016 169.262 79.9297L169.672 79.6367L170.27 80.2344C170.223 80.3125 170.152 80.4219 170.059 80.5625C169.973 80.7031 169.762 80.9453 169.426 81.2891C169.09 81.6328 168.73 81.9375 168.348 82.2031C167.965 82.4609 167.449 82.6992 166.801 82.918C166.152 83.1289 165.469 83.2344 164.75 83.2344C163.008 83.2344 161.551 82.6523 160.379 81.4883C159.215 80.3164 158.633 78.8594 158.633 77.1172C158.633 75.2578 159.262 73.6953 160.52 72.4297C161.777 71.1562 163.309 70.5195 165.113 70.5195ZM178.66 80C178.66 79.6172 178.441 79.2617 178.004 78.9336C177.574 78.6055 177.055 78.3086 176.445 78.043C175.844 77.7773 175.238 77.4844 174.629 77.1641C174.02 76.8438 173.496 76.4141 173.059 75.875C172.629 75.3281 172.414 74.7031 172.414 74C172.414 72.9766 172.836 72.1406 173.68 71.4922C174.531 70.8438 175.789 70.5195 177.453 70.5195C178.125 70.5195 178.781 70.5938 179.422 70.7422C180.062 70.8828 180.535 71.0156 180.84 71.1406L181.297 71.3633V74.4805H180.102C179.922 73.582 179.645 72.9375 179.27 72.5469C178.895 72.1562 178.371 71.9609 177.699 71.9609C177.168 71.9609 176.754 72.0898 176.457 72.3477C176.168 72.5977 176.023 72.9102 176.023 73.2852C176.023 73.7148 176.238 74.0859 176.668 74.3984C177.098 74.7109 177.617 74.9805 178.227 75.207C178.836 75.4258 179.441 75.6758 180.043 75.957C180.652 76.2383 181.172 76.6523 181.602 77.1992C182.039 77.7383 182.258 78.3906 182.258 79.1562C182.258 80.2891 181.77 81.2539 180.793 82.0508C179.816 82.8398 178.465 83.2344 176.738 83.2344C175.926 83.2344 175.125 83.1562 174.336 83C173.555 82.8438 172.98 82.6836 172.613 82.5195L172.062 82.2852V78.5586H173.258C173.625 80.7148 174.707 81.7969 176.504 81.8047C177.145 81.8047 177.664 81.6289 178.062 81.2773C178.461 80.918 178.66 80.4922 178.66 80ZM183.945 77.1172C183.945 75.2266 184.605 73.6562 185.926 72.4062C187.246 71.1484 188.945 70.5195 191.023 70.5195C191.805 70.5195 192.535 70.6094 193.215 70.7891C193.895 70.9609 194.379 71.1445 194.668 71.3398L195.102 71.5977V75.4414H193.426L192.336 72.3242C192.016 72.168 191.578 72.0859 191.023 72.0781C190.125 72.0781 189.359 72.4766 188.727 73.2734C188.094 74.0625 187.777 75.1445 187.777 76.5195C187.777 77.8164 188.121 78.8398 188.809 79.5898C189.496 80.3398 190.395 80.7148 191.504 80.7148C192.145 80.7148 192.75 80.6289 193.32 80.457C193.898 80.2773 194.316 80.1016 194.574 79.9297L194.984 79.6367L195.582 80.2344C195.535 80.3125 195.465 80.4219 195.371 80.5625C195.285 80.7031 195.074 80.9453 194.738 81.2891C194.402 81.6328 194.043 81.9375 193.66 82.2031C193.277 82.4609 192.762 82.6992 192.113 82.918C191.465 83.1289 190.781 83.2344 190.062 83.2344C188.32 83.2344 186.863 82.6523 185.691 81.4883C184.527 80.3164 183.945 78.8594 183.945 77.1172ZM207.816 74.8438V79.1562C207.816 80.0859 207.941 80.7188 208.191 81.0547C208.441 81.3906 208.875 81.5586 209.492 81.5586V82.5195C208.789 82.5508 208.047 82.6289 207.266 82.7539C206.484 82.8711 205.883 82.9844 205.461 83.0938L204.816 83.2344L204.582 80.9609H204.336C204.289 81.0234 204.223 81.1094 204.137 81.2188C204.059 81.3203 203.887 81.5 203.621 81.7578C203.363 82.0078 203.086 82.2344 202.789 82.4375C202.492 82.6328 202.109 82.8164 201.641 82.9883C201.18 83.1523 200.719 83.2344 200.258 83.2344C199.203 83.2344 198.379 82.9766 197.785 82.4609C197.191 81.9375 196.895 81.2773 196.895 80.4805C196.895 79.7617 197.145 79.1055 197.645 78.5117C198.152 77.918 198.766 77.4531 199.484 77.1172C200.211 76.7812 200.93 76.5 201.641 76.2734C202.352 76.0391 202.953 75.8828 203.445 75.8047L204.219 75.6758V75.0781C204.219 73.0781 203.5 72.0781 202.062 72.0781C201.852 72.0781 201.625 72.1055 201.383 72.1602C201.141 72.2148 200.949 72.2773 200.809 72.3477L200.621 72.4414L199.777 75.0781H197.855V71.7148C198.012 71.6211 198.238 71.5117 198.535 71.3867C198.832 71.2539 199.422 71.0781 200.305 70.8594C201.188 70.6328 202.051 70.5195 202.895 70.5195C204.48 70.5195 205.695 70.9062 206.539 71.6797C207.391 72.4453 207.816 73.5 207.816 74.8438ZM201.934 80.7148C202.316 80.7148 202.699 80.6172 203.082 80.4219C203.473 80.2188 203.754 80.0234 203.926 79.8359L204.219 79.5195V77C204.125 77.0156 203.996 77.0391 203.832 77.0703C203.676 77.1016 203.387 77.1914 202.965 77.3398C202.551 77.4805 202.184 77.6367 201.863 77.8086C201.543 77.9727 201.254 78.2109 200.996 78.5234C200.746 78.8359 200.621 79.168 200.621 79.5195C200.621 79.8867 200.734 80.1797 200.961 80.3984C201.195 80.6094 201.52 80.7148 201.934 80.7148ZM198.816 69.3242L201.934 65H204.582L207.699 69.3242H206.258L203.375 66.9219H203.141L200.258 69.3242H198.816ZM223.672 75.3242V79.8828C223.672 80.7656 223.781 81.3477 224 81.6289C224.227 81.9023 224.676 82.0391 225.348 82.0391V83H218.387V82.0391L220.062 81.6758V75.5586C220.062 73.957 219.383 73.1562 218.023 73.1562C217.641 73.1562 217.25 73.2461 216.852 73.4258C216.453 73.5977 216.148 73.7812 215.938 73.9766L215.633 74.2344V79.8828C215.633 80.7656 215.742 81.3477 215.961 81.6289C216.188 81.9023 216.637 82.0391 217.309 82.0391V83H210.348V82.0391L212.023 81.6758V74.5977C212.023 73.668 211.898 73.0352 211.648 72.6992C211.406 72.3633 210.973 72.1953 210.348 72.1953V71.2344C211.051 71.2031 211.793 71.1289 212.574 71.0117C213.363 70.8945 213.965 70.7773 214.379 70.6602L215.023 70.5195L215.27 72.8047H215.504C215.551 72.7422 215.613 72.6602 215.691 72.5586C215.777 72.4492 215.957 72.2656 216.23 72.0078C216.504 71.75 216.789 71.5234 217.086 71.3281C217.391 71.125 217.777 70.9414 218.246 70.7773C218.723 70.6055 219.211 70.5195 219.711 70.5195C220.898 70.5195 221.855 70.9414 222.582 71.7852C223.309 72.6211 223.672 73.8008 223.672 75.3242ZM233.152 70.5195C233.473 70.5195 233.793 70.5508 234.113 70.6133C234.434 70.6758 234.672 70.7422 234.828 70.8125L235.074 70.8828V67.7656C235.074 66.8359 234.949 66.2031 234.699 65.8672C234.449 65.5312 234.012 65.3633 233.387 65.3633V64.4023C234.168 64.3711 235 64.2852 235.883 64.1445C236.766 63.9961 237.453 63.8672 237.945 63.7578L238.672 63.5586V79.1562C238.672 80.0859 238.793 80.7188 239.035 81.0547C239.285 81.3906 239.723 81.5586 240.348 81.5586V82.5195C239.645 82.5508 238.898 82.6289 238.109 82.7539C237.328 82.8711 236.73 82.9844 236.316 83.0938L235.672 83.2344L235.426 80.9609H235.191C235.145 81.0234 235.078 81.1094 234.992 81.2188C234.914 81.3203 234.742 81.5 234.477 81.7578C234.219 82.0078 233.941 82.2344 233.645 82.4375C233.348 82.6328 232.965 82.8164 232.496 82.9883C232.035 83.1523 231.574 83.2344 231.113 83.2344C229.863 83.2344 228.789 82.707 227.891 81.6523C227 80.5977 226.555 79.207 226.555 77.4805C226.555 75.4023 227.168 73.7227 228.395 72.4414C229.629 71.1602 231.215 70.5195 233.152 70.5195ZM233.035 72.0781C232.254 72.0781 231.598 72.4648 231.066 73.2383C230.535 74.0039 230.27 75.1797 230.27 76.7656C230.27 78.0781 230.496 79.0469 230.949 79.6719C231.41 80.2891 232.023 80.5977 232.789 80.5977C233.172 80.5977 233.555 80.5117 233.938 80.3398C234.328 80.1602 234.609 79.9766 234.781 79.7891L235.074 79.5195V72.9219C234.598 72.3594 233.918 72.0781 233.035 72.0781ZM252.23 74.8438V79.1562C252.23 80.0859 252.355 80.7188 252.605 81.0547C252.855 81.3906 253.289 81.5586 253.906 81.5586V82.5195C253.203 82.5508 252.461 82.6289 251.68 82.7539C250.898 82.8711 250.297 82.9844 249.875 83.0938L249.23 83.2344L248.996 80.9609H248.75C248.703 81.0234 248.637 81.1094 248.551 81.2188C248.473 81.3203 248.301 81.5 248.035 81.7578C247.777 82.0078 247.5 82.2344 247.203 82.4375C246.906 82.6328 246.523 82.8164 246.055 82.9883C245.594 83.1523 245.133 83.2344 244.672 83.2344C243.617 83.2344 242.793 82.9766 242.199 82.4609C241.605 81.9375 241.309 81.2773 241.309 80.4805C241.309 79.7617 241.559 79.1055 242.059 78.5117C242.566 77.918 243.18 77.4531 243.898 77.1172C244.625 76.7812 245.344 76.5 246.055 76.2734C246.766 76.0391 247.367 75.8828 247.859 75.8047L248.633 75.6758V75.0781C248.633 73.0781 247.914 72.0781 246.477 72.0781C246.266 72.0781 246.039 72.1055 245.797 72.1602C245.555 72.2148 245.363 72.2773 245.223 72.3477L245.035 72.4414L244.191 75.0781H242.27V71.7148C242.426 71.6211 242.652 71.5117 242.949 71.3867C243.246 71.2539 243.836 71.0781 244.719 70.8594C245.602 70.6328 246.465 70.5195 247.309 70.5195C248.895 70.5195 250.109 70.9062 250.953 71.6797C251.805 72.4453 252.23 73.5 252.23 74.8438ZM246.348 80.7148C246.73 80.7148 247.113 80.6172 247.496 80.4219C247.887 80.2188 248.168 80.0234 248.34 79.8359L248.633 79.5195V77C248.539 77.0156 248.41 77.0391 248.246 77.0703C248.09 77.1016 247.801 77.1914 247.379 77.3398C246.965 77.4805 246.598 77.6367 246.277 77.8086C245.957 77.9727 245.668 78.2109 245.41 78.5234C245.16 78.8359 245.035 79.168 245.035 79.5195C245.035 79.8867 245.148 80.1797 245.375 80.3984C245.609 80.6094 245.934 80.7148 246.348 80.7148ZM259.801 63.5586V79.8828C259.801 80.7656 259.91 81.3477 260.129 81.6289C260.355 81.9023 260.805 82.0391 261.477 82.0391V83H254.516V82.0391L256.203 81.6758V67.7656C256.203 66.8359 256.078 66.2031 255.828 65.8672C255.578 65.5312 255.141 65.3633 254.516 65.3633V64.4023C255.297 64.3711 256.129 64.2852 257.012 64.1445C257.895 63.9961 258.586 63.8672 259.086 63.7578L259.801 63.5586ZM266.527 76.6367C266.527 80.0742 267.488 81.7969 269.41 81.8047C270.145 81.8047 270.766 81.418 271.273 80.6445C271.789 79.8633 272.047 78.6875 272.047 77.1172C272.047 73.6797 271.09 71.9609 269.176 71.9609C268.441 71.9609 267.816 72.3477 267.301 73.1211C266.785 73.8945 266.527 75.0664 266.527 76.6367ZM275.891 76.7656C275.891 78.5859 275.242 80.1211 273.945 81.3711C272.648 82.6133 271.016 83.2344 269.047 83.2344C267.188 83.2344 265.664 82.6484 264.477 81.4766C263.289 80.2969 262.695 78.8047 262.695 77C262.695 75.1797 263.34 73.6445 264.629 72.3945C265.926 71.1445 267.559 70.5195 269.527 70.5195C271.387 70.5195 272.91 71.1094 274.098 72.2891C275.293 73.4688 275.891 74.9609 275.891 76.7656Z" fill="white"/>
</svg>
