<svg width="332" height="26" viewBox="0 0 332 26" fill="none" xmlns="http://www.w3.org/2000/svg">
<path d="M0.914062 7.28516V1.51953H17.2383V7.28516H15.7969C15.7969 5.69922 15.5469 4.60156 15.0469 3.99219C14.5547 3.38281 13.7227 3.07812 12.5508 3.07812H10.9922V16.4023C10.9922 17.4258 11.1523 18.1016 11.4727 18.4297C11.793 18.7578 12.4336 18.9219 13.3945 18.9219V20H4.75781V19.0391L7.16016 18.5586V3.07812H5.60156C4.42969 3.07812 3.59375 3.38281 3.09375 3.99219C2.60156 4.60156 2.35547 5.69922 2.35547 7.28516H0.914062ZM31.4062 12.3242V16.8828C31.4062 17.7656 31.5156 18.3477 31.7344 18.6289C31.9609 18.9023 32.4102 19.0391 33.082 19.0391V20H26.1328V19.0391L27.8086 18.6758V12.5586C27.8086 10.957 27.1289 10.1562 25.7695 10.1562C25.3867 10.1562 24.9922 10.2461 24.5859 10.4258C24.1875 10.5977 23.8867 10.7812 23.6836 10.9766L23.3672 11.2344V16.8828C23.3672 17.7656 23.4766 18.3477 23.6953 18.6289C23.9219 18.9023 24.3711 19.0391 25.043 19.0391V20H18.082V19.0391L19.7695 18.6758V4.76562C19.7695 3.83594 19.6445 3.20313 19.3945 2.86719C19.1445 2.53125 18.707 2.36328 18.082 2.36328V1.40234C18.8633 1.37109 19.6953 1.28516 20.5781 1.14453C21.4609 0.996094 22.1523 0.867187 22.6523 0.757812L23.3672 0.558594V9.44141H23.6133C23.6445 9.39453 23.6992 9.32812 23.7773 9.24219C23.8555 9.14844 24.0195 8.99219 24.2695 8.77344C24.5195 8.54688 24.7812 8.35156 25.0547 8.1875C25.3359 8.01562 25.6914 7.86328 26.1211 7.73047C26.5586 7.58984 27 7.51953 27.4453 7.51953C28.6328 7.51953 29.5898 7.94141 30.3164 8.78516C31.043 9.62109 31.4062 10.8008 31.4062 12.3242ZM40.5352 9.07812C39.957 9.07812 39.457 9.35547 39.0352 9.91016C38.6133 10.457 38.3125 11.3008 38.1328 12.4414L42.3398 12.0781V11.4805C42.3398 10.7305 42.168 10.1445 41.8242 9.72266C41.4805 9.29297 41.0508 9.07812 40.5352 9.07812ZM40.7812 7.51953C42.3984 7.51953 43.6641 7.97266 44.5781 8.87891C45.5 9.77734 45.9922 11.043 46.0547 12.6758L44.8594 13.7656H38.1328C38.1953 15.0781 38.543 16.0664 39.1758 16.7305C39.8086 17.3867 40.7031 17.7148 41.8594 17.7148C42.5 17.7148 43.1055 17.6289 43.6758 17.457C44.2539 17.2773 44.6719 17.1016 44.9297 16.9297L45.3398 16.6367L45.9375 17.2344C45.8906 17.3125 45.8203 17.4219 45.7266 17.5625C45.6406 17.7031 45.4297 17.9453 45.0938 18.2891C44.7578 18.6328 44.3984 18.9375 44.0156 19.2031C43.6328 19.4609 43.1172 19.6992 42.4688 19.918C41.8203 20.1289 41.1367 20.2344 40.418 20.2344C38.6758 20.2344 37.2188 19.6523 36.0469 18.4883C34.8828 17.3164 34.3008 15.8594 34.3008 14.1172C34.3008 12.2578 34.9297 10.6953 36.1875 9.42969C37.4453 8.15625 38.9766 7.51953 40.7812 7.51953ZM54.6797 2.59766V1.51953H69.1992V6.55859H67.7695C67.7695 5.26172 67.5391 4.35937 67.0781 3.85156C66.625 3.33594 65.8555 3.07812 64.7695 3.07812H60.5625V9.92188H62.7305C63.6289 9.92188 64.2109 9.78125 64.4766 9.5C64.75 9.21875 64.8867 8.59766 64.8867 7.63672H66.1992V14H64.8867C64.8867 12.9922 64.7383 12.3203 64.4414 11.9844C64.1445 11.6484 63.5742 11.4805 62.7305 11.4805H60.5625V16.4023C60.5625 17.4258 60.7461 18.1016 61.1133 18.4297C61.4805 18.7578 62.2578 18.9219 63.4453 18.9219V20H54.6797V19.0391L56.7305 18.5586V5.14062C56.7305 4.07031 56.6016 3.37891 56.3438 3.06641C56.0859 2.75391 55.5312 2.59766 54.6797 2.59766ZM75.4336 9.07812C74.8555 9.07812 74.3555 9.35547 73.9336 9.91016C73.5117 10.457 73.2109 11.3008 73.0312 12.4414L77.2383 12.0781V11.4805C77.2383 10.7305 77.0664 10.1445 76.7227 9.72266C76.3789 9.29297 75.9492 9.07812 75.4336 9.07812ZM75.6797 7.51953C77.2969 7.51953 78.5625 7.97266 79.4766 8.87891C80.3984 9.77734 80.8906 11.043 80.9531 12.6758L79.7578 13.7656H73.0312C73.0938 15.0781 73.4414 16.0664 74.0742 16.7305C74.707 17.3867 75.6016 17.7148 76.7578 17.7148C77.3984 17.7148 78.0039 17.6289 78.5742 17.457C79.1523 17.2773 79.5703 17.1016 79.8281 16.9297L80.2383 16.6367L80.8359 17.2344C80.7891 17.3125 80.7188 17.4219 80.625 17.5625C80.5391 17.7031 80.3281 17.9453 79.9922 18.2891C79.6562 18.6328 79.2969 18.9375 78.9141 19.2031C78.5312 19.4609 78.0156 19.6992 77.3672 19.918C76.7188 20.1289 76.0352 20.2344 75.3164 20.2344C73.5742 20.2344 72.1172 19.6523 70.9453 18.4883C69.7812 17.3164 69.1992 15.8594 69.1992 14.1172C69.1992 12.2578 69.8281 10.6953 71.0859 9.42969C72.3438 8.15625 73.875 7.51953 75.6797 7.51953ZM93.3047 11.8438V16.1562C93.3047 17.0859 93.4297 17.7188 93.6797 18.0547C93.9297 18.3906 94.3633 18.5586 94.9805 18.5586V19.5195C94.2773 19.5508 93.5352 19.6289 92.7539 19.7539C91.9727 19.8711 91.3711 19.9844 90.9492 20.0938L90.3047 20.2344L90.0703 17.9609H89.8242C89.7773 18.0234 89.7109 18.1094 89.625 18.2188C89.5469 18.3203 89.375 18.5 89.1094 18.7578C88.8516 19.0078 88.5742 19.2344 88.2773 19.4375C87.9805 19.6328 87.5977 19.8164 87.1289 19.9883C86.668 20.1523 86.207 20.2344 85.7461 20.2344C84.6914 20.2344 83.8672 19.9766 83.2734 19.4609C82.6797 18.9375 82.3828 18.2773 82.3828 17.4805C82.3828 16.7617 82.6328 16.1055 83.1328 15.5117C83.6406 14.918 84.2539 14.4531 84.9727 14.1172C85.6992 13.7812 86.418 13.5 87.1289 13.2734C87.8398 13.0391 88.4414 12.8828 88.9336 12.8047L89.707 12.6758V12.0781C89.707 10.0781 88.9883 9.07812 87.5508 9.07812C87.3398 9.07812 87.1133 9.10547 86.8711 9.16016C86.6289 9.21484 86.4375 9.27734 86.2969 9.34766L86.1094 9.44141L85.2656 12.0781H83.3438V8.71484C83.5 8.62109 83.7266 8.51172 84.0234 8.38672C84.3203 8.25391 84.9102 8.07812 85.793 7.85938C86.6758 7.63281 87.5391 7.51953 88.3828 7.51953C89.9688 7.51953 91.1836 7.90625 92.0273 8.67969C92.8789 9.44531 93.3047 10.5 93.3047 11.8438ZM87.4219 17.7148C87.8047 17.7148 88.1875 17.6172 88.5703 17.4219C88.9609 17.2188 89.2422 17.0234 89.4141 16.8359L89.707 16.5195V14C89.6133 14.0156 89.4844 14.0391 89.3203 14.0703C89.1641 14.1016 88.875 14.1914 88.4531 14.3398C88.0391 14.4805 87.6719 14.6367 87.3516 14.8086C87.0312 14.9727 86.7422 15.2109 86.4844 15.5234C86.2344 15.8359 86.1094 16.168 86.1094 16.5195C86.1094 16.8867 86.2227 17.1797 86.4492 17.3984C86.6836 17.6094 87.0078 17.7148 87.4219 17.7148ZM101.121 11.3633V16.8828C101.121 17.7109 101.27 18.2773 101.566 18.582C101.871 18.8867 102.441 19.0391 103.277 19.0391V20H95.8359V19.0391L97.5117 18.6758V11.5977C97.5117 10.668 97.3867 10.0352 97.1367 9.69922C96.8945 9.36328 96.4609 9.19531 95.8359 9.19531V8.23438C96.5391 8.20312 97.2812 8.12891 98.0625 8.01172C98.8516 7.89453 99.4531 7.77734 99.8672 7.66016L100.512 7.51953L100.758 9.80469H100.992C101.039 9.74219 101.102 9.66016 101.18 9.55859C101.266 9.44922 101.449 9.26562 101.73 9.00781C102.012 8.75 102.293 8.52344 102.574 8.32812C102.863 8.125 103.223 7.94141 103.652 7.77734C104.09 7.60547 104.523 7.51953 104.953 7.51953C105.273 7.51953 105.586 7.55078 105.891 7.61328C106.195 7.67578 106.41 7.74219 106.535 7.8125L106.758 7.88281V12.1953H104.836L103.992 9.92188C103.461 9.95312 102.957 10.0898 102.48 10.332C102.004 10.5664 101.66 10.7969 101.449 11.0234L101.121 11.3633ZM118.148 13.6367C118.148 17.0742 119.109 18.7969 121.031 18.8047C121.766 18.8047 122.387 18.418 122.895 17.6445C123.41 16.8633 123.668 15.6875 123.668 14.1172C123.668 10.6797 122.711 8.96094 120.797 8.96094C120.062 8.96094 119.438 9.34766 118.922 10.1211C118.406 10.8945 118.148 12.0664 118.148 13.6367ZM127.512 13.7656C127.512 15.5859 126.863 17.1211 125.566 18.3711C124.27 19.6133 122.637 20.2344 120.668 20.2344C118.809 20.2344 117.285 19.6484 116.098 18.4766C114.91 17.2969 114.316 15.8047 114.316 14C114.316 12.1797 114.961 10.6445 116.25 9.39453C117.547 8.14453 119.18 7.51953 121.148 7.51953C123.008 7.51953 124.531 8.10938 125.719 9.28906C126.914 10.4688 127.512 11.9609 127.512 13.7656ZM130.512 18.6758V9.32422H128.719V8.11719L130.512 7.76562V4.63672C130.512 3.24609 130.902 2.17969 131.684 1.4375C132.473 0.695313 133.645 0.324219 135.199 0.324219C135.855 0.324219 136.555 0.425781 137.297 0.628906C138.039 0.824219 138.609 1.02344 139.008 1.22656L139.641 1.51953V4.88281H137.719L136.641 2.11719C136.32 2.03906 136 2 135.68 2C135.164 2 134.773 2.20312 134.508 2.60938C134.25 3.01563 134.121 3.73438 134.121 4.76562V7.76562H137.836V9.55859H136.641L134.121 9.07812V16.8828C134.121 17.7344 134.277 18.3086 134.59 18.6055C134.91 18.8945 135.551 19.0391 136.512 19.0391V20H128.836V19.0391L130.512 18.6758ZM152.473 20.2344C151.512 20.2344 150.59 20.1094 149.707 19.8594C148.832 19.6016 148.195 19.3438 147.797 19.0859L147.199 18.6758V4.76562C147.199 3.83594 147.074 3.20313 146.824 2.86719C146.574 2.53125 146.137 2.36328 145.512 2.36328V1.40234C146.293 1.37109 147.125 1.28516 148.008 1.14453C148.891 0.996094 149.582 0.867187 150.082 0.757812L150.797 0.558594V9.44141H151.043C151.074 9.39453 151.125 9.32812 151.195 9.24219C151.266 9.14844 151.418 8.99219 151.652 8.77344C151.895 8.54688 152.148 8.35156 152.414 8.1875C152.68 8.01562 153.023 7.86328 153.445 7.73047C153.875 7.58984 154.312 7.51953 154.758 7.51953C156.008 7.51953 157.078 8.04688 157.969 9.10156C158.867 10.1562 159.316 11.5508 159.316 13.2852C159.316 15.3789 158.688 17.0625 157.43 18.3359C156.172 19.6016 154.52 20.2344 152.473 20.2344ZM152.836 18.6758C153.617 18.6758 154.273 18.293 154.805 17.5273C155.336 16.7617 155.602 15.5859 155.602 14C155.602 12.6875 155.371 11.7188 154.91 11.0938C154.457 10.4688 153.848 10.1562 153.082 10.1562C152.699 10.1562 152.312 10.2461 151.922 10.4258C151.539 10.5977 151.262 10.7812 151.09 10.9766L150.797 11.2344V17.5977C150.859 17.6758 150.945 17.7773 151.055 17.9023C151.172 18.0195 151.41 18.1797 151.77 18.3828C152.129 18.5781 152.484 18.6758 152.836 18.6758ZM167.238 9.07812C166.66 9.07812 166.16 9.35547 165.738 9.91016C165.316 10.457 165.016 11.3008 164.836 12.4414L169.043 12.0781V11.4805C169.043 10.7305 168.871 10.1445 168.527 9.72266C168.184 9.29297 167.754 9.07812 167.238 9.07812ZM167.484 7.51953C169.102 7.51953 170.367 7.97266 171.281 8.87891C172.203 9.77734 172.695 11.043 172.758 12.6758L171.562 13.7656H164.836C164.898 15.0781 165.246 16.0664 165.879 16.7305C166.512 17.3867 167.406 17.7148 168.562 17.7148C169.203 17.7148 169.809 17.6289 170.379 17.457C170.957 17.2773 171.375 17.1016 171.633 16.9297L172.043 16.6367L172.641 17.2344C172.594 17.3125 172.523 17.4219 172.43 17.5625C172.344 17.7031 172.133 17.9453 171.797 18.2891C171.461 18.6328 171.102 18.9375 170.719 19.2031C170.336 19.4609 169.82 19.6992 169.172 19.918C168.523 20.1289 167.84 20.2344 167.121 20.2344C165.379 20.2344 163.922 19.6523 162.75 18.4883C161.586 17.3164 161.004 15.8594 161.004 14.1172C161.004 12.2578 161.633 10.6953 162.891 9.42969C164.148 8.15625 165.68 7.51953 167.484 7.51953ZM179.355 7.40234V16.8828C179.355 17.7656 179.465 18.3477 179.684 18.6289C179.91 18.9023 180.359 19.0391 181.031 19.0391V20H174.07V19.0391L175.746 18.6758V11.5977C175.746 10.668 175.621 10.0352 175.371 9.69922C175.129 9.36328 174.695 9.19531 174.07 9.19531V8.23438C174.922 8.20312 175.785 8.11719 176.66 7.97656C177.543 7.83594 178.215 7.69922 178.676 7.56641L179.355 7.40234ZM178.91 2.09375C179.285 2.47656 179.473 2.96484 179.473 3.55859C179.473 4.15234 179.285 4.64062 178.91 5.02344C178.535 5.40625 178.043 5.59766 177.434 5.59766C176.824 5.59766 176.332 5.40625 175.957 5.02344C175.582 4.64062 175.395 4.15234 175.395 3.55859C175.395 2.96484 175.582 2.47656 175.957 2.09375C176.332 1.71094 176.824 1.51953 177.434 1.51953C178.043 1.51953 178.535 1.71094 178.91 2.09375ZM195.199 12.3242V16.8828C195.199 17.7656 195.309 18.3477 195.527 18.6289C195.754 18.9023 196.203 19.0391 196.875 19.0391V20H189.914V19.0391L191.59 18.6758V12.5586C191.59 10.957 190.91 10.1562 189.551 10.1562C189.168 10.1562 188.777 10.2461 188.379 10.4258C187.98 10.5977 187.676 10.7812 187.465 10.9766L187.16 11.2344V16.8828C187.16 17.7656 187.27 18.3477 187.488 18.6289C187.715 18.9023 188.164 19.0391 188.836 19.0391V20H181.875V19.0391L183.551 18.6758V11.5977C183.551 10.668 183.426 10.0352 183.176 9.69922C182.934 9.36328 182.5 9.19531 181.875 9.19531V8.23438C182.578 8.20312 183.32 8.12891 184.102 8.01172C184.891 7.89453 185.492 7.77734 185.906 7.66016L186.551 7.51953L186.797 9.80469H187.031C187.078 9.74219 187.141 9.66016 187.219 9.55859C187.305 9.44922 187.484 9.26562 187.758 9.00781C188.031 8.75 188.316 8.52344 188.613 8.32812C188.918 8.125 189.305 7.94141 189.773 7.77734C190.25 7.60547 190.738 7.51953 191.238 7.51953C192.426 7.51953 193.383 7.94141 194.109 8.78516C194.836 9.62109 195.199 10.8008 195.199 12.3242ZM203.602 7.63672C204.18 7.63672 204.707 7.69141 205.184 7.80078C205.66 7.90234 205.996 8 206.191 8.09375L206.473 8.23438L211.395 7.40234V10.5195H210.434L208.395 9.32422L207.797 8.71484L207.562 8.96094C207.656 9.03906 207.766 9.15625 207.891 9.3125C208.023 9.46094 208.199 9.77734 208.418 10.2617C208.645 10.7383 208.758 11.2227 208.758 11.7148C208.758 12.9023 208.305 13.8828 207.398 14.6562C206.5 15.4219 205.234 15.8047 203.602 15.8047L202.523 15.6758C201.883 16.1523 201.562 16.5938 201.562 17C201.562 17.2578 201.645 17.4414 201.809 17.5508C201.98 17.6602 202.297 17.7148 202.758 17.7148H206.121C207.449 17.7148 208.461 17.9961 209.156 18.5586C209.852 19.1211 210.199 19.8398 210.199 20.7148C210.199 22.0742 209.531 23.2539 208.195 24.2539C206.859 25.2617 204.992 25.7656 202.594 25.7656C200.703 25.7656 199.375 25.543 198.609 25.0977C197.852 24.6602 197.473 24.0391 197.473 23.2344C197.473 22.7031 197.703 22.1875 198.164 21.6875C198.633 21.1875 199.094 20.8164 199.547 20.5742L200.238 20.2344V20.1172C198.957 20.1172 198.316 19.6797 198.316 18.8047C198.316 18.3438 198.555 17.832 199.031 17.2695C199.516 16.707 199.996 16.2578 200.473 15.9219L201.199 15.4414C201.121 15.4258 201.02 15.3945 200.895 15.3477C200.777 15.3008 200.559 15.1797 200.238 14.9844C199.918 14.7891 199.637 14.5703 199.395 14.3281C199.16 14.0781 198.941 13.7227 198.738 13.2617C198.535 12.793 198.434 12.2773 198.434 11.7148C198.434 10.5273 198.887 9.55078 199.793 8.78516C200.699 8.01953 201.969 7.63672 203.602 7.63672ZM205.043 20.2344H201.68C201.039 20.875 200.719 21.5586 200.719 22.2852C200.719 22.8633 200.941 23.3242 201.387 23.668C201.84 24.0195 202.496 24.1953 203.355 24.1953C204.395 24.1953 205.215 23.9492 205.816 23.457C206.418 22.9727 206.719 22.3789 206.719 21.6758C206.719 21.2461 206.57 20.8984 206.273 20.6328C205.984 20.3672 205.574 20.2344 205.043 20.2344ZM205.277 11.8438C205.277 10.9453 205.113 10.2617 204.785 9.79297C204.457 9.31641 204.062 9.07812 203.602 9.07812C202.484 9.07812 201.922 9.91797 201.914 11.5977C201.914 12.4961 202.078 13.1836 202.406 13.6602C202.734 14.1289 203.133 14.3633 203.602 14.3633C204.719 14.3633 205.277 13.5234 205.277 11.8438ZM228.199 18.8047C229.684 18.8047 230.895 18.1602 231.832 16.8711C232.77 15.582 233.238 13.625 233.238 11C233.238 8.1875 232.785 6.10547 231.879 4.75391C230.98 3.39453 229.836 2.71484 228.445 2.71484C226.961 2.71484 225.75 3.35938 224.812 4.64844C223.875 5.9375 223.406 7.89453 223.406 10.5195C223.406 13.332 223.855 15.418 224.754 16.7773C225.66 18.1289 226.809 18.8047 228.199 18.8047ZM227.836 20.3633C225.289 20.3633 223.191 19.5 221.543 17.7734C219.902 16.0391 219.082 13.7812 219.082 11C219.082 8.11719 219.992 5.75781 221.812 3.92188C223.641 2.07813 225.969 1.15625 228.797 1.15625C231.344 1.15625 233.441 2.02344 235.09 3.75781C236.738 5.48438 237.562 7.73828 237.562 10.5195C237.562 13.4023 236.648 15.7656 234.82 17.6094C232.992 19.4453 230.664 20.3633 227.836 20.3633ZM252.797 9.07812V16.8828C252.797 17.7344 252.953 18.3086 253.266 18.6055C253.586 18.8945 254.227 19.0391 255.188 19.0391V20H247.512V19.0391L249.188 18.6758V9.55859H247.992L244.277 9.07812V16.8828C244.277 17.7656 244.387 18.3477 244.605 18.6289C244.832 18.9023 245.281 19.0391 245.953 19.0391V20H238.992V19.0391L240.668 18.6758V9.32422H238.875V8.11719L240.668 7.76562V5.11719C240.668 3.64844 241.152 2.48437 242.121 1.625C243.09 0.757812 244.488 0.324219 246.316 0.324219C247.082 0.324219 247.812 0.40625 248.508 0.570312C249.203 0.726562 249.711 0.882813 250.031 1.03906L250.512 1.28516C250.59 1.22266 250.699 1.13672 250.84 1.02734C250.988 0.910156 251.355 0.765625 251.941 0.59375C252.527 0.414063 253.172 0.324219 253.875 0.324219C254.547 0.324219 255.254 0.425781 255.996 0.628906C256.738 0.824219 257.309 1.02344 257.707 1.22656L258.316 1.51953V4.88281H256.395L255.316 2.11719C254.996 2.03906 254.676 2 254.355 2C253.84 2 253.449 2.20312 253.184 2.60938C252.926 3.01563 252.797 3.73438 252.797 4.76562V7.76562H256.512V9.55859H255.316L252.797 9.07812ZM249.188 7.76562V4.63672C249.188 4.28516 249.215 3.9375 249.27 3.59375C249.332 3.25 249.395 3 249.457 2.84375L249.551 2.59766C248.754 2.19922 247.875 2 246.914 2C246 2 245.332 2.22266 244.91 2.66797C244.488 3.10547 244.277 3.80469 244.277 4.76562V7.76562H249.188ZM263.449 9.07812C262.871 9.07812 262.371 9.35547 261.949 9.91016C261.527 10.457 261.227 11.3008 261.047 12.4414L265.254 12.0781V11.4805C265.254 10.7305 265.082 10.1445 264.738 9.72266C264.395 9.29297 263.965 9.07812 263.449 9.07812ZM263.695 7.51953C265.312 7.51953 266.578 7.97266 267.492 8.87891C268.414 9.77734 268.906 11.043 268.969 12.6758L267.773 13.7656H261.047C261.109 15.0781 261.457 16.0664 262.09 16.7305C262.723 17.3867 263.617 17.7148 264.773 17.7148C265.414 17.7148 266.02 17.6289 266.59 17.457C267.168 17.2773 267.586 17.1016 267.844 16.9297L268.254 16.6367L268.852 17.2344C268.805 17.3125 268.734 17.4219 268.641 17.5625C268.555 17.7031 268.344 17.9453 268.008 18.2891C267.672 18.6328 267.312 18.9375 266.93 19.2031C266.547 19.4609 266.031 19.6992 265.383 19.918C264.734 20.1289 264.051 20.2344 263.332 20.2344C261.59 20.2344 260.133 19.6523 258.961 18.4883C257.797 17.3164 257.215 15.8594 257.215 14.1172C257.215 12.2578 257.844 10.6953 259.102 9.42969C260.359 8.15625 261.891 7.51953 263.695 7.51953ZM283.605 12.3242V16.8828C283.605 17.7656 283.715 18.3477 283.934 18.6289C284.16 18.9023 284.609 19.0391 285.281 19.0391V20H278.32V19.0391L279.996 18.6758V12.5586C279.996 10.957 279.316 10.1562 277.957 10.1562C277.574 10.1562 277.184 10.2461 276.785 10.4258C276.387 10.5977 276.082 10.7812 275.871 10.9766L275.566 11.2344V16.8828C275.566 17.7656 275.676 18.3477 275.895 18.6289C276.121 18.9023 276.57 19.0391 277.242 19.0391V20H270.281V19.0391L271.957 18.6758V11.5977C271.957 10.668 271.832 10.0352 271.582 9.69922C271.34 9.36328 270.906 9.19531 270.281 9.19531V8.23438C270.984 8.20312 271.727 8.12891 272.508 8.01172C273.297 7.89453 273.898 7.77734 274.312 7.66016L274.957 7.51953L275.203 9.80469H275.438C275.484 9.74219 275.547 9.66016 275.625 9.55859C275.711 9.44922 275.891 9.26562 276.164 9.00781C276.438 8.75 276.723 8.52344 277.02 8.32812C277.324 8.125 277.711 7.94141 278.18 7.77734C278.656 7.60547 279.145 7.51953 279.645 7.51953C280.832 7.51953 281.789 7.94141 282.516 8.78516C283.242 9.62109 283.605 10.8008 283.605 12.3242ZM293.086 17C293.086 16.6172 292.867 16.2617 292.43 15.9336C292 15.6055 291.48 15.3086 290.871 15.043C290.27 14.7773 289.664 14.4844 289.055 14.1641C288.445 13.8438 287.922 13.4141 287.484 12.875C287.055 12.3281 286.84 11.7031 286.84 11C286.84 9.97656 287.262 9.14062 288.105 8.49219C288.957 7.84375 290.215 7.51953 291.879 7.51953C292.551 7.51953 293.207 7.59375 293.848 7.74219C294.488 7.88281 294.961 8.01562 295.266 8.14062L295.723 8.36328V11.4805H294.527C294.348 10.582 294.07 9.9375 293.695 9.54688C293.32 9.15625 292.797 8.96094 292.125 8.96094C291.594 8.96094 291.18 9.08984 290.883 9.34766C290.594 9.59766 290.449 9.91016 290.449 10.2852C290.449 10.7148 290.664 11.0859 291.094 11.3984C291.523 11.7109 292.043 11.9805 292.652 12.207C293.262 12.4258 293.867 12.6758 294.469 12.957C295.078 13.2383 295.598 13.6523 296.027 14.1992C296.465 14.7383 296.684 15.3906 296.684 16.1562C296.684 17.2891 296.195 18.2539 295.219 19.0508C294.242 19.8398 292.891 20.2344 291.164 20.2344C290.352 20.2344 289.551 20.1562 288.762 20C287.98 19.8438 287.406 19.6836 287.039 19.5195L286.488 19.2852V15.5586H287.684C288.051 17.7148 289.133 18.7969 290.93 18.8047C291.57 18.8047 292.09 18.6289 292.488 18.2773C292.887 17.918 293.086 17.4922 293.086 17ZM303.293 7.40234V16.8828C303.293 17.7656 303.402 18.3477 303.621 18.6289C303.848 18.9023 304.297 19.0391 304.969 19.0391V20H298.008V19.0391L299.684 18.6758V11.5977C299.684 10.668 299.559 10.0352 299.309 9.69922C299.066 9.36328 298.633 9.19531 298.008 9.19531V8.23438C298.859 8.20312 299.723 8.11719 300.598 7.97656C301.48 7.83594 302.152 7.69922 302.613 7.56641L303.293 7.40234ZM302.848 2.09375C303.223 2.47656 303.41 2.96484 303.41 3.55859C303.41 4.15234 303.223 4.64062 302.848 5.02344C302.473 5.40625 301.98 5.59766 301.371 5.59766C300.762 5.59766 300.27 5.40625 299.895 5.02344C299.52 4.64062 299.332 4.15234 299.332 3.55859C299.332 2.96484 299.52 2.47656 299.895 2.09375C300.27 1.71094 300.762 1.51953 301.371 1.51953C301.98 1.51953 302.473 1.71094 302.848 2.09375ZM311.695 20.2344L307.254 10.8828C306.855 10.0312 306.484 9.45703 306.141 9.16016C305.797 8.86328 305.328 8.71484 304.734 8.71484V7.76562H312.293V8.71484L310.383 9.07812L312.902 14.4805L313.254 15.9219H313.5L315.902 10.6367C316.059 10.2383 316.137 9.87891 316.137 9.55859C316.137 8.99609 315.578 8.71484 314.461 8.71484V7.76562H320.098V8.71484L318.422 9.07812L313.383 20.2344H311.695ZM326.332 9.07812C325.754 9.07812 325.254 9.35547 324.832 9.91016C324.41 10.457 324.109 11.3008 323.93 12.4414L328.137 12.0781V11.4805C328.137 10.7305 327.965 10.1445 327.621 9.72266C327.277 9.29297 326.848 9.07812 326.332 9.07812ZM326.578 7.51953C328.195 7.51953 329.461 7.97266 330.375 8.87891C331.297 9.77734 331.789 11.043 331.852 12.6758L330.656 13.7656H323.93C323.992 15.0781 324.34 16.0664 324.973 16.7305C325.605 17.3867 326.5 17.7148 327.656 17.7148C328.297 17.7148 328.902 17.6289 329.473 17.457C330.051 17.2773 330.469 17.1016 330.727 16.9297L331.137 16.6367L331.734 17.2344C331.688 17.3125 331.617 17.4219 331.523 17.5625C331.438 17.7031 331.227 17.9453 330.891 18.2891C330.555 18.6328 330.195 18.9375 329.812 19.2031C329.43 19.4609 328.914 19.6992 328.266 19.918C327.617 20.1289 326.934 20.2344 326.215 20.2344C324.473 20.2344 323.016 19.6523 321.844 18.4883C320.68 17.3164 320.098 15.8594 320.098 14.1172C320.098 12.2578 320.727 10.6953 321.984 9.42969C323.242 8.15625 324.773 7.51953 326.578 7.51953Z" fill="#ED1C24"/>
</svg>
