<svg width="463" height="98" viewBox="0 0 463 98" fill="none" xmlns="http://www.w3.org/2000/svg">
<path d="M305.605 72.5195H312.086C314.344 72.5195 316.047 72.9844 317.195 73.9141C318.352 74.8438 318.93 76.0586 318.93 77.5586C318.93 79.2383 318.34 80.5781 317.16 81.5781C315.988 82.5781 314.297 83.0781 312.086 83.0781H309.812V87.8828C309.812 88.9062 309.957 89.5625 310.246 89.8516C310.535 90.1406 311.191 90.2852 312.215 90.2852V91H305.605V90.4023L307.645 89.9219V75.6367C307.645 74.6289 307.516 73.9766 307.258 73.6797C307.008 73.3828 306.457 73.2344 305.605 73.2344V72.5195ZM309.812 73.5977V82H311.734C313.273 82 314.438 81.6367 315.227 80.9102C316.016 80.1836 316.41 79.1484 316.41 77.8047C316.41 76.4609 316.012 75.4258 315.215 74.6992C314.426 73.9648 313.266 73.5977 311.734 73.5977H309.812ZM320.371 85.2344C320.371 83.3438 320.938 81.793 322.07 80.582C323.211 79.3711 324.605 78.7656 326.254 78.7656C327.488 78.7656 328.461 79.1836 329.172 80.0195C329.883 80.8477 330.27 82.1094 330.332 83.8047L329.254 84.5195H322.527V85C322.527 86.4062 322.914 87.5391 323.688 88.3984C324.469 89.25 325.445 89.6758 326.617 89.6758C327.289 89.6758 327.922 89.5859 328.516 89.4062C329.117 89.2188 329.547 89.0391 329.805 88.8672L330.215 88.5977L330.578 88.9609C330.531 89.0234 330.461 89.1094 330.367 89.2188C330.281 89.3203 330.09 89.5 329.793 89.7578C329.496 90.0078 329.18 90.2344 328.844 90.4375C328.508 90.6328 328.07 90.8164 327.531 90.9883C327 91.1523 326.453 91.2344 325.891 91.2344C324.305 91.2344 322.988 90.6797 321.941 89.5703C320.895 88.4531 320.371 87.0078 320.371 85.2344ZM325.891 79.7148C325.141 79.7148 324.457 80.0664 323.84 80.7695C323.223 81.4648 322.828 82.3945 322.656 83.5586L328.176 83.3242C328.176 80.918 327.414 79.7148 325.891 79.7148ZM331.773 80.0781V79.3633L333.695 79V75.2852L335.148 74.8047H335.734V79H339.566V80.3242H338.254L335.734 79.8438V88C335.734 88.5938 335.855 89.0234 336.098 89.2891C336.348 89.5469 336.746 89.6758 337.293 89.6758C337.676 89.6758 338.059 89.625 338.441 89.5234C338.824 89.4219 339.105 89.3203 339.285 89.2188L339.566 89.0781L339.93 89.5586C339.836 89.6836 339.695 89.8398 339.508 90.0273C339.328 90.2148 338.945 90.4648 338.359 90.7773C337.773 91.082 337.176 91.2344 336.566 91.2344C335.652 91.2344 334.945 90.9609 334.445 90.4141C333.945 89.8594 333.695 89.0547 333.695 88V80.0781H331.773ZM341.371 85.2344C341.371 83.3438 341.938 81.793 343.07 80.582C344.211 79.3711 345.605 78.7656 347.254 78.7656C348.488 78.7656 349.461 79.1836 350.172 80.0195C350.883 80.8477 351.27 82.1094 351.332 83.8047L350.254 84.5195H343.527V85C343.527 86.4062 343.914 87.5391 344.688 88.3984C345.469 89.25 346.445 89.6758 347.617 89.6758C348.289 89.6758 348.922 89.5859 349.516 89.4062C350.117 89.2188 350.547 89.0391 350.805 88.8672L351.215 88.5977L351.578 88.9609C351.531 89.0234 351.461 89.1094 351.367 89.2188C351.281 89.3203 351.09 89.5 350.793 89.7578C350.496 90.0078 350.18 90.2344 349.844 90.4375C349.508 90.6328 349.07 90.8164 348.531 90.9883C348 91.1523 347.453 91.2344 346.891 91.2344C345.305 91.2344 343.988 90.6797 342.941 89.5703C341.895 88.4531 341.371 87.0078 341.371 85.2344ZM346.891 79.7148C346.141 79.7148 345.457 80.0664 344.84 80.7695C344.223 81.4648 343.828 82.3945 343.656 83.5586L349.176 83.3242C349.176 80.918 348.414 79.7148 346.891 79.7148ZM353.125 90.4023L354.812 90.0391V82.2344C354.812 81.4688 354.684 80.9375 354.426 80.6406C354.168 80.3438 353.734 80.1953 353.125 80.1953V79.5977C353.656 79.5352 354.215 79.4336 354.801 79.293C355.387 79.1445 355.836 79.0156 356.148 78.9062L356.605 78.7656L356.852 80.9219H356.969C357.016 80.8594 357.074 80.7812 357.145 80.6875C357.223 80.5859 357.391 80.4141 357.648 80.1719C357.914 79.9219 358.184 79.6992 358.457 79.5039C358.73 79.3086 359.07 79.1367 359.477 78.9883C359.883 78.8398 360.289 78.7656 360.695 78.7656C361.047 78.7656 361.371 78.8047 361.668 78.8828C361.973 78.9609 362.184 79.0391 362.301 79.1172L362.488 79.2344V82.7148H361.41L360.695 80.3242C359.992 80.3242 359.32 80.4727 358.68 80.7695C358.039 81.0586 357.574 81.3555 357.285 81.6602L356.852 82.1172V88.5977C356.852 89.332 356.996 89.8164 357.285 90.0508C357.574 90.2852 358.188 90.4023 359.125 90.4023V91H353.125V90.4023ZM389.84 73.5977L390.684 88C390.73 88.8984 390.906 89.5039 391.211 89.8164C391.516 90.1289 392.059 90.2852 392.84 90.2852V91H386.488V90.4023L388.527 89.9219L387.801 75.6367H387.684L381.918 91H380.723L374.125 75.6367H374.008L373.527 87.6367C373.48 88.7539 373.566 89.4766 373.785 89.8047C374.012 90.125 374.523 90.2852 375.32 90.2852V91H369.918V90.4023L371.957 89.9219L372.566 75.6367C372.613 74.6289 372.508 73.9766 372.25 73.6797C371.992 73.3828 371.418 73.2344 370.527 73.2344V72.5195H375.086L381.59 87.8828H381.684L387.32 72.5195H391.879V73.1172L389.84 73.5977ZM395.113 85.2344C395.113 83.3438 395.68 81.793 396.812 80.582C397.953 79.3711 399.348 78.7656 400.996 78.7656C402.23 78.7656 403.203 79.1836 403.914 80.0195C404.625 80.8477 405.012 82.1094 405.074 83.8047L403.996 84.5195H397.27V85C397.27 86.4062 397.656 87.5391 398.43 88.3984C399.211 89.25 400.188 89.6758 401.359 89.6758C402.031 89.6758 402.664 89.5859 403.258 89.4062C403.859 89.2188 404.289 89.0391 404.547 88.8672L404.957 88.5977L405.32 88.9609C405.273 89.0234 405.203 89.1094 405.109 89.2188C405.023 89.3203 404.832 89.5 404.535 89.7578C404.238 90.0078 403.922 90.2344 403.586 90.4375C403.25 90.6328 402.812 90.8164 402.273 90.9883C401.742 91.1523 401.195 91.2344 400.633 91.2344C399.047 91.2344 397.73 90.6797 396.684 89.5703C395.637 88.4531 395.113 87.0078 395.113 85.2344ZM400.633 79.7148C399.883 79.7148 399.199 80.0664 398.582 80.7695C397.965 81.4648 397.57 82.3945 397.398 83.5586L402.918 83.3242C402.918 80.918 402.156 79.7148 400.633 79.7148ZM413.957 88.2344C413.957 87.8047 413.73 87.4062 413.277 87.0391C412.832 86.6719 412.293 86.3438 411.66 86.0547C411.027 85.7656 410.395 85.457 409.762 85.1289C409.129 84.8008 408.59 84.3711 408.145 83.8398C407.699 83.3008 407.477 82.6875 407.477 82C407.477 81.0547 407.844 80.2812 408.578 79.6797C409.312 79.0703 410.344 78.7656 411.672 78.7656C412.25 78.7656 412.797 78.8242 413.312 78.9414C413.836 79.0586 414.219 79.1758 414.461 79.293L414.789 79.4805V82.3633H414.191C414.066 81.4492 413.781 80.7812 413.336 80.3594C412.898 79.9297 412.266 79.7148 411.438 79.7148C410.688 79.7148 410.117 79.8672 409.727 80.1719C409.344 80.4766 409.152 80.8867 409.152 81.4023C409.152 81.8633 409.375 82.2773 409.82 82.6445C410.273 83.0117 410.812 83.3398 411.438 83.6289C412.07 83.918 412.703 84.2227 413.336 84.543C413.969 84.8633 414.508 85.2891 414.953 85.8203C415.406 86.3438 415.633 86.9414 415.633 87.6133C415.633 88.7305 415.238 89.6133 414.449 90.2617C413.668 90.9102 412.543 91.2344 411.074 91.2344C410.465 91.2344 409.852 91.1484 409.234 90.9766C408.617 90.7969 408.148 90.6133 407.828 90.4258L407.348 90.1562V87.0391H407.957C408.199 88.1875 408.578 89.0156 409.094 89.5234C409.609 90.0312 410.348 90.2852 411.309 90.2852C412.176 90.2852 412.832 90.1016 413.277 89.7344C413.73 89.3594 413.957 88.8594 413.957 88.2344ZM424.527 88.2344C424.527 87.8047 424.301 87.4062 423.848 87.0391C423.402 86.6719 422.863 86.3438 422.23 86.0547C421.598 85.7656 420.965 85.457 420.332 85.1289C419.699 84.8008 419.16 84.3711 418.715 83.8398C418.27 83.3008 418.047 82.6875 418.047 82C418.047 81.0547 418.414 80.2812 419.148 79.6797C419.883 79.0703 420.914 78.7656 422.242 78.7656C422.82 78.7656 423.367 78.8242 423.883 78.9414C424.406 79.0586 424.789 79.1758 425.031 79.293L425.359 79.4805V82.3633H424.762C424.637 81.4492 424.352 80.7812 423.906 80.3594C423.469 79.9297 422.836 79.7148 422.008 79.7148C421.258 79.7148 420.688 79.8672 420.297 80.1719C419.914 80.4766 419.723 80.8867 419.723 81.4023C419.723 81.8633 419.945 82.2773 420.391 82.6445C420.844 83.0117 421.383 83.3398 422.008 83.6289C422.641 83.918 423.273 84.2227 423.906 84.543C424.539 84.8633 425.078 85.2891 425.523 85.8203C425.977 86.3438 426.203 86.9414 426.203 87.6133C426.203 88.7305 425.809 89.6133 425.02 90.2617C424.238 90.9102 423.113 91.2344 421.645 91.2344C421.035 91.2344 420.422 91.1484 419.805 90.9766C419.188 90.7969 418.719 90.6133 418.398 90.4258L417.918 90.1562V87.0391H418.527C418.77 88.1875 419.148 89.0156 419.664 89.5234C420.18 90.0312 420.918 90.2852 421.879 90.2852C422.746 90.2852 423.402 90.1016 423.848 89.7344C424.301 89.3594 424.527 88.8594 424.527 88.2344ZM428.371 85.2344C428.371 83.3438 428.938 81.793 430.07 80.582C431.211 79.3711 432.605 78.7656 434.254 78.7656C435.488 78.7656 436.461 79.1836 437.172 80.0195C437.883 80.8477 438.27 82.1094 438.332 83.8047L437.254 84.5195H430.527V85C430.527 86.4062 430.914 87.5391 431.688 88.3984C432.469 89.25 433.445 89.6758 434.617 89.6758C435.289 89.6758 435.922 89.5859 436.516 89.4062C437.117 89.2188 437.547 89.0391 437.805 88.8672L438.215 88.5977L438.578 88.9609C438.531 89.0234 438.461 89.1094 438.367 89.2188C438.281 89.3203 438.09 89.5 437.793 89.7578C437.496 90.0078 437.18 90.2344 436.844 90.4375C436.508 90.6328 436.07 90.8164 435.531 90.9883C435 91.1523 434.453 91.2344 433.891 91.2344C432.305 91.2344 430.988 90.6797 429.941 89.5703C428.895 88.4531 428.371 87.0078 428.371 85.2344ZM433.891 79.7148C433.141 79.7148 432.457 80.0664 431.84 80.7695C431.223 81.4648 430.828 82.3945 430.656 83.5586L436.176 83.3242C436.176 80.918 435.414 79.7148 433.891 79.7148ZM440.125 90.4023L441.812 90.0391V82.2344C441.812 81.4688 441.684 80.9375 441.426 80.6406C441.168 80.3438 440.734 80.1953 440.125 80.1953V79.5977C440.656 79.5352 441.215 79.4336 441.801 79.293C442.387 79.1445 442.836 79.0156 443.148 78.9062L443.605 78.7656L443.852 80.9219H443.969C444.016 80.8594 444.082 80.7812 444.168 80.6875C444.262 80.5859 444.445 80.4141 444.719 80.1719C445 79.9219 445.293 79.6992 445.598 79.5039C445.902 79.3086 446.289 79.1367 446.758 78.9883C447.234 78.8398 447.707 78.7656 448.176 78.7656C449.363 78.7656 450.277 79.1523 450.918 79.9258C451.566 80.6992 451.891 81.8711 451.891 83.4414V88.5977C451.891 89.3164 452.004 89.7969 452.23 90.0391C452.465 90.2812 452.91 90.4023 453.566 90.4023V91H448.176V90.4023L449.852 90.0391V83.6758C449.852 82.5039 449.641 81.6719 449.219 81.1797C448.805 80.6875 448.137 80.4414 447.215 80.4414C446.684 80.4414 446.137 80.5703 445.574 80.8281C445.02 81.0781 444.598 81.332 444.309 81.5898L443.852 82V88.5977C443.852 89.3164 443.965 89.7969 444.191 90.0391C444.426 90.2812 444.871 90.4023 445.527 90.4023V91H440.125V90.4023ZM454.07 80.0781V79.3633L455.992 79V75.2852L457.445 74.8047H458.031V79H461.863V80.3242H460.551L458.031 79.8438V88C458.031 88.5938 458.152 89.0234 458.395 89.2891C458.645 89.5469 459.043 89.6758 459.59 89.6758C459.973 89.6758 460.355 89.625 460.738 89.5234C461.121 89.4219 461.402 89.3203 461.582 89.2188L461.863 89.0781L462.227 89.5586C462.133 89.6836 461.992 89.8398 461.805 90.0273C461.625 90.2148 461.242 90.4648 460.656 90.7773C460.07 91.082 459.473 91.2344 458.863 91.2344C457.949 91.2344 457.242 90.9609 456.742 90.4141C456.242 89.8594 455.992 89.0547 455.992 88V80.0781H454.07Z" fill="white"/>
<path d="M10.8047 21.8047C13.4297 21.8047 15.1094 20.3242 15.8438 17.3633H17.1562L16.5586 21.9219C16.3633 22.0312 16.0938 22.168 15.75 22.332C15.4062 22.4883 14.6914 22.6992 13.6055 22.9648C12.5195 23.2305 11.4258 23.3633 10.3242 23.3633C7.51172 23.3633 5.24609 22.5078 3.52734 20.7969C1.81641 19.0781 0.960938 16.8125 0.960938 14C0.960938 11.1172 1.88672 8.75781 3.73828 6.92188C5.59766 5.07813 7.99219 4.15625 10.9219 4.15625C11.8828 4.15625 12.8281 4.25781 13.7578 4.46094C14.6953 4.66406 15.3984 4.85938 15.8672 5.04688L16.5586 5.36328V10.1562H15.2344C15.0547 8.71875 14.5859 7.62109 13.8281 6.86328C13.0703 6.09766 12.0625 5.71484 10.8047 5.71484C9.15625 5.71484 7.82422 6.36719 6.80859 7.67188C5.79297 8.97656 5.28516 10.9258 5.28516 13.5195C5.28516 16.3164 5.78906 18.3984 6.79688 19.7656C7.80469 21.125 9.14062 21.8047 10.8047 21.8047ZM24.8203 12.0781C24.2422 12.0781 23.7422 12.3555 23.3203 12.9102C22.8984 13.457 22.5977 14.3008 22.418 15.4414L26.625 15.0781V14.4805C26.625 13.7305 26.4531 13.1445 26.1094 12.7227C25.7656 12.293 25.3359 12.0781 24.8203 12.0781ZM25.0664 10.5195C26.6836 10.5195 27.9492 10.9727 28.8633 11.8789C29.7852 12.7773 30.2773 14.043 30.3398 15.6758L29.1445 16.7656H22.418C22.4805 18.0781 22.8281 19.0664 23.4609 19.7305C24.0938 20.3867 24.9883 20.7148 26.1445 20.7148C26.7852 20.7148 27.3906 20.6289 27.9609 20.457C28.5391 20.2773 28.957 20.1016 29.2148 19.9297L29.625 19.6367L30.2227 20.2344C30.1758 20.3125 30.1055 20.4219 30.0117 20.5625C29.9258 20.7031 29.7148 20.9453 29.3789 21.2891C29.043 21.6328 28.6836 21.9375 28.3008 22.2031C27.918 22.4609 27.4023 22.6992 26.7539 22.918C26.1055 23.1289 25.4219 23.2344 24.7031 23.2344C22.9609 23.2344 21.5039 22.6523 20.332 21.4883C19.168 20.3164 18.5859 18.8594 18.5859 17.1172C18.5859 15.2578 19.2148 13.6953 20.4727 12.4297C21.7305 11.1562 23.2617 10.5195 25.0664 10.5195ZM44.9766 15.3242V19.8828C44.9766 20.7656 45.0859 21.3477 45.3047 21.6289C45.5312 21.9023 45.9805 22.0391 46.6523 22.0391V23H39.6914V22.0391L41.3672 21.6758V15.5586C41.3672 13.957 40.6875 13.1562 39.3281 13.1562C38.9453 13.1562 38.5547 13.2461 38.1562 13.4258C37.7578 13.5977 37.4531 13.7812 37.2422 13.9766L36.9375 14.2344V19.8828C36.9375 20.7656 37.0469 21.3477 37.2656 21.6289C37.4922 21.9023 37.9414 22.0391 38.6133 22.0391V23H31.6523V22.0391L33.3281 21.6758V14.5977C33.3281 13.668 33.2031 13.0352 32.9531 12.6992C32.7109 12.3633 32.2773 12.1953 31.6523 12.1953V11.2344C32.3555 11.2031 33.0977 11.1289 33.8789 11.0117C34.668 10.8945 35.2695 10.7773 35.6836 10.6602L36.3281 10.5195L36.5742 12.8047H36.8086C36.8555 12.7422 36.918 12.6602 36.9961 12.5586C37.082 12.4492 37.2617 12.2656 37.5352 12.0078C37.8086 11.75 38.0938 11.5234 38.3906 11.3281C38.6953 11.125 39.082 10.9414 39.5508 10.7773C40.0273 10.6055 40.5156 10.5195 41.0156 10.5195C42.2031 10.5195 43.1602 10.9414 43.8867 11.7852C44.6133 12.6211 44.9766 13.8008 44.9766 15.3242ZM54.457 20C54.457 19.6172 54.2383 19.2617 53.8008 18.9336C53.3711 18.6055 52.8516 18.3086 52.2422 18.043C51.6406 17.7773 51.0352 17.4844 50.4258 17.1641C49.8164 16.8438 49.293 16.4141 48.8555 15.875C48.4258 15.3281 48.2109 14.7031 48.2109 14C48.2109 12.9766 48.6328 12.1406 49.4766 11.4922C50.3281 10.8438 51.5859 10.5195 53.25 10.5195C53.9219 10.5195 54.5781 10.5938 55.2188 10.7422C55.8594 10.8828 56.332 11.0156 56.6367 11.1406L57.0938 11.3633V14.4805H55.8984C55.7188 13.582 55.4414 12.9375 55.0664 12.5469C54.6914 12.1562 54.168 11.9609 53.4961 11.9609C52.9648 11.9609 52.5508 12.0898 52.2539 12.3477C51.9648 12.5977 51.8203 12.9102 51.8203 13.2852C51.8203 13.7148 52.0352 14.0859 52.4648 14.3984C52.8945 14.7109 53.4141 14.9805 54.0234 15.207C54.6328 15.4258 55.2383 15.6758 55.8398 15.957C56.4492 16.2383 56.9688 16.6523 57.3984 17.1992C57.8359 17.7383 58.0547 18.3906 58.0547 19.1562C58.0547 20.2891 57.5664 21.2539 56.5898 22.0508C55.6133 22.8398 54.2617 23.2344 52.5352 23.2344C51.7227 23.2344 50.9219 23.1562 50.1328 23C49.3516 22.8438 48.7773 22.6836 48.4102 22.5195L47.8594 22.2852V18.5586H49.0547C49.4219 20.7148 50.5039 21.7969 52.3008 21.8047C52.9414 21.8047 53.4609 21.6289 53.8594 21.2773C54.2578 20.918 54.457 20.4922 54.457 20ZM72.5742 10.4023V19.1562C72.5742 20.0859 72.6992 20.7188 72.9492 21.0547C73.1992 21.3906 73.6367 21.5586 74.2617 21.5586V22.5195C73.5586 22.5508 72.8125 22.6289 72.0234 22.7539C71.2422 22.8711 70.6445 22.9844 70.2305 23.0938L69.5742 23.2344L69.3398 20.9609H69.0938C69.0469 21.0234 68.9844 21.1094 68.9062 21.2188C68.8281 21.3203 68.6523 21.5 68.3789 21.7578C68.1055 22.0078 67.8164 22.2344 67.5117 22.4375C67.207 22.6328 66.8164 22.8164 66.3398 22.9883C65.8711 23.1523 65.3906 23.2344 64.8984 23.2344C63.7109 23.2344 62.7539 22.8164 62.0273 21.9805C61.3008 21.1367 60.9375 19.957 60.9375 18.4414V14.5977C60.9375 13.668 60.8125 13.0352 60.5625 12.6992C60.3203 12.3633 59.8867 12.1953 59.2617 12.1953V11.2344C60.1133 11.2031 60.9766 11.1172 61.8516 10.9766C62.7344 10.8359 63.3984 10.6992 63.8438 10.5664L64.5352 10.4023V18.1953C64.5352 19.7969 65.2148 20.5977 66.5742 20.5977C66.957 20.5977 67.3477 20.5117 67.7461 20.3398C68.1523 20.1602 68.4609 19.9766 68.6719 19.7891L68.9766 19.5195V14.5977C68.9766 13.668 68.8516 13.0352 68.6016 12.6992C68.3594 12.3633 67.9258 12.1953 67.3008 12.1953V11.2344C68.1523 11.2031 69.0156 11.1172 69.8906 10.9766C70.7734 10.8359 71.4453 10.6992 71.9062 10.5664L72.5742 10.4023ZM80.3906 14.3633V19.8828C80.3906 20.7109 80.5391 21.2773 80.8359 21.582C81.1406 21.8867 81.7109 22.0391 82.5469 22.0391V23H75.1055V22.0391L76.7812 21.6758V14.5977C76.7812 13.668 76.6562 13.0352 76.4062 12.6992C76.1641 12.3633 75.7305 12.1953 75.1055 12.1953V11.2344C75.8086 11.2031 76.5508 11.1289 77.332 11.0117C78.1211 10.8945 78.7227 10.7773 79.1367 10.6602L79.7812 10.5195L80.0273 12.8047H80.2617C80.3086 12.7422 80.3711 12.6602 80.4492 12.5586C80.5352 12.4492 80.7188 12.2656 81 12.0078C81.2812 11.75 81.5625 11.5234 81.8438 11.3281C82.1328 11.125 82.4922 10.9414 82.9219 10.7773C83.3594 10.6055 83.793 10.5195 84.2227 10.5195C84.543 10.5195 84.8555 10.5508 85.1602 10.6133C85.4648 10.6758 85.6797 10.7422 85.8047 10.8125L86.0273 10.8828V15.1953H84.1055L83.2617 12.9219C82.7305 12.9531 82.2266 13.0898 81.75 13.332C81.2734 13.5664 80.9297 13.7969 80.7188 14.0234L80.3906 14.3633ZM97.9102 14.8438V19.1562C97.9102 20.0859 98.0352 20.7188 98.2852 21.0547C98.5352 21.3906 98.9688 21.5586 99.5859 21.5586V22.5195C98.8828 22.5508 98.1406 22.6289 97.3594 22.7539C96.5781 22.8711 95.9766 22.9844 95.5547 23.0938L94.9102 23.2344L94.6758 20.9609H94.4297C94.3828 21.0234 94.3164 21.1094 94.2305 21.2188C94.1523 21.3203 93.9805 21.5 93.7148 21.7578C93.457 22.0078 93.1797 22.2344 92.8828 22.4375C92.5859 22.6328 92.2031 22.8164 91.7344 22.9883C91.2734 23.1523 90.8125 23.2344 90.3516 23.2344C89.2969 23.2344 88.4727 22.9766 87.8789 22.4609C87.2852 21.9375 86.9883 21.2773 86.9883 20.4805C86.9883 19.7617 87.2383 19.1055 87.7383 18.5117C88.2461 17.918 88.8594 17.4531 89.5781 17.1172C90.3047 16.7812 91.0234 16.5 91.7344 16.2734C92.4453 16.0391 93.0469 15.8828 93.5391 15.8047L94.3125 15.6758V15.0781C94.3125 13.0781 93.5938 12.0781 92.1562 12.0781C91.9453 12.0781 91.7188 12.1055 91.4766 12.1602C91.2344 12.2148 91.043 12.2773 90.9023 12.3477L90.7148 12.4414L89.8711 15.0781H87.9492V11.7148C88.1055 11.6211 88.332 11.5117 88.6289 11.3867C88.9258 11.2539 89.5156 11.0781 90.3984 10.8594C91.2812 10.6328 92.1445 10.5195 92.9883 10.5195C94.5742 10.5195 95.7891 10.9062 96.6328 11.6797C97.4844 12.4453 97.9102 13.5 97.9102 14.8438ZM92.0273 20.7148C92.4102 20.7148 92.793 20.6172 93.1758 20.4219C93.5664 20.2188 93.8477 20.0234 94.0195 19.8359L94.3125 19.5195V17C94.2188 17.0156 94.0898 17.0391 93.9258 17.0703C93.7695 17.1016 93.4805 17.1914 93.0586 17.3398C92.6445 17.4805 92.2773 17.6367 91.957 17.8086C91.6367 17.9727 91.3477 18.2109 91.0898 18.5234C90.8398 18.8359 90.7148 19.168 90.7148 19.5195C90.7148 19.8867 90.8281 20.1797 91.0547 20.3984C91.2891 20.6094 91.6133 20.7148 92.0273 20.7148ZM105.727 14.3633V19.8828C105.727 20.7109 105.875 21.2773 106.172 21.582C106.477 21.8867 107.047 22.0391 107.883 22.0391V23H100.441V22.0391L102.117 21.6758V14.5977C102.117 13.668 101.992 13.0352 101.742 12.6992C101.5 12.3633 101.066 12.1953 100.441 12.1953V11.2344C101.145 11.2031 101.887 11.1289 102.668 11.0117C103.457 10.8945 104.059 10.7773 104.473 10.6602L105.117 10.5195L105.363 12.8047H105.598C105.645 12.7422 105.707 12.6602 105.785 12.5586C105.871 12.4492 106.055 12.2656 106.336 12.0078C106.617 11.75 106.898 11.5234 107.18 11.3281C107.469 11.125 107.828 10.9414 108.258 10.7773C108.695 10.6055 109.129 10.5195 109.559 10.5195C109.879 10.5195 110.191 10.5508 110.496 10.6133C110.801 10.6758 111.016 10.7422 111.141 10.8125L111.363 10.8828V15.1953H109.441L108.598 12.9219C108.066 12.9531 107.562 13.0898 107.086 13.332C106.609 13.5664 106.266 13.7969 106.055 14.0234L105.727 14.3633ZM129.598 14.8438V19.1562C129.598 20.0859 129.723 20.7188 129.973 21.0547C130.223 21.3906 130.656 21.5586 131.273 21.5586V22.5195C130.57 22.5508 129.828 22.6289 129.047 22.7539C128.266 22.8711 127.664 22.9844 127.242 23.0938L126.598 23.2344L126.363 20.9609H126.117C126.07 21.0234 126.004 21.1094 125.918 21.2188C125.84 21.3203 125.668 21.5 125.402 21.7578C125.145 22.0078 124.867 22.2344 124.57 22.4375C124.273 22.6328 123.891 22.8164 123.422 22.9883C122.961 23.1523 122.5 23.2344 122.039 23.2344C120.984 23.2344 120.16 22.9766 119.566 22.4609C118.973 21.9375 118.676 21.2773 118.676 20.4805C118.676 19.7617 118.926 19.1055 119.426 18.5117C119.934 17.918 120.547 17.4531 121.266 17.1172C121.992 16.7812 122.711 16.5 123.422 16.2734C124.133 16.0391 124.734 15.8828 125.227 15.8047L126 15.6758V15.0781C126 13.0781 125.281 12.0781 123.844 12.0781C123.633 12.0781 123.406 12.1055 123.164 12.1602C122.922 12.2148 122.73 12.2773 122.59 12.3477L122.402 12.4414L121.559 15.0781H119.637V11.7148C119.793 11.6211 120.02 11.5117 120.316 11.3867C120.613 11.2539 121.203 11.0781 122.086 10.8594C122.969 10.6328 123.832 10.5195 124.676 10.5195C126.262 10.5195 127.477 10.9062 128.32 11.6797C129.172 12.4453 129.598 13.5 129.598 14.8438ZM123.715 20.7148C124.098 20.7148 124.48 20.6172 124.863 20.4219C125.254 20.2188 125.535 20.0234 125.707 19.8359L126 19.5195V17C125.906 17.0156 125.777 17.0391 125.613 17.0703C125.457 17.1016 125.168 17.1914 124.746 17.3398C124.332 17.4805 123.965 17.6367 123.645 17.8086C123.324 17.9727 123.035 18.2109 122.777 18.5234C122.527 18.8359 122.402 19.168 122.402 19.5195C122.402 19.8867 122.516 20.1797 122.742 20.3984C122.977 20.6094 123.301 20.7148 123.715 20.7148ZM144.363 22.8828V25.4023C144.363 26.2539 144.523 26.8242 144.844 27.1133C145.164 27.4102 145.805 27.5586 146.766 27.5586V28.5195H139.09V27.5586L140.766 27.1953V14.5977C140.766 13.668 140.641 13.0352 140.391 12.6992C140.148 12.3633 139.715 12.1953 139.09 12.1953V11.2344C139.793 11.2031 140.535 11.1289 141.316 11.0117C142.105 10.8945 142.715 10.7773 143.145 10.6602L143.766 10.5195L144.012 12.8047H144.246C144.293 12.7422 144.355 12.6602 144.434 12.5586C144.52 12.4492 144.691 12.2656 144.949 12.0078C145.215 11.75 145.496 11.5234 145.793 11.3281C146.09 11.125 146.469 10.9414 146.93 10.7773C147.398 10.6055 147.863 10.5195 148.324 10.5195C149.574 10.5195 150.645 11.0469 151.535 12.1016C152.434 13.1562 152.883 14.5508 152.883 16.2852C152.883 18.3633 152.266 20.043 151.031 21.3242C149.805 22.5977 148.223 23.2344 146.285 23.2344C145.965 23.2344 145.645 23.2031 145.324 23.1406C145.004 23.0781 144.766 23.0156 144.609 22.9531L144.363 22.8828ZM146.402 21.6758C147.184 21.6758 147.84 21.293 148.371 20.5273C148.902 19.7617 149.168 18.5859 149.168 17C149.168 15.6875 148.938 14.7188 148.477 14.0938C148.023 13.4688 147.414 13.1562 146.648 13.1562C146.266 13.1562 145.879 13.2461 145.488 13.4258C145.105 13.5977 144.82 13.7812 144.633 13.9766L144.363 14.2344V20.5977C144.426 20.6758 144.512 20.7773 144.621 20.9023C144.738 21.0195 144.977 21.1797 145.336 21.3828C145.695 21.5781 146.051 21.6758 146.402 21.6758ZM165.246 14.8438V19.1562C165.246 20.0859 165.371 20.7188 165.621 21.0547C165.871 21.3906 166.305 21.5586 166.922 21.5586V22.5195C166.219 22.5508 165.477 22.6289 164.695 22.7539C163.914 22.8711 163.312 22.9844 162.891 23.0938L162.246 23.2344L162.012 20.9609H161.766C161.719 21.0234 161.652 21.1094 161.566 21.2188C161.488 21.3203 161.316 21.5 161.051 21.7578C160.793 22.0078 160.516 22.2344 160.219 22.4375C159.922 22.6328 159.539 22.8164 159.07 22.9883C158.609 23.1523 158.148 23.2344 157.688 23.2344C156.633 23.2344 155.809 22.9766 155.215 22.4609C154.621 21.9375 154.324 21.2773 154.324 20.4805C154.324 19.7617 154.574 19.1055 155.074 18.5117C155.582 17.918 156.195 17.4531 156.914 17.1172C157.641 16.7812 158.359 16.5 159.07 16.2734C159.781 16.0391 160.383 15.8828 160.875 15.8047L161.648 15.6758V15.0781C161.648 13.0781 160.93 12.0781 159.492 12.0781C159.281 12.0781 159.055 12.1055 158.812 12.1602C158.57 12.2148 158.379 12.2773 158.238 12.3477L158.051 12.4414L157.207 15.0781H155.285V11.7148C155.441 11.6211 155.668 11.5117 155.965 11.3867C156.262 11.2539 156.852 11.0781 157.734 10.8594C158.617 10.6328 159.48 10.5195 160.324 10.5195C161.91 10.5195 163.125 10.9062 163.969 11.6797C164.82 12.4453 165.246 13.5 165.246 14.8438ZM159.363 20.7148C159.746 20.7148 160.129 20.6172 160.512 20.4219C160.902 20.2188 161.184 20.0234 161.355 19.8359L161.648 19.5195V17C161.555 17.0156 161.426 17.0391 161.262 17.0703C161.105 17.1016 160.816 17.1914 160.395 17.3398C159.98 17.4805 159.613 17.6367 159.293 17.8086C158.973 17.9727 158.684 18.2109 158.426 18.5234C158.176 18.8359 158.051 19.168 158.051 19.5195C158.051 19.8867 158.164 20.1797 158.391 20.3984C158.625 20.6094 158.949 20.7148 159.363 20.7148ZM172.816 3.55859V19.8828C172.816 20.7656 172.926 21.3477 173.145 21.6289C173.371 21.9023 173.82 22.0391 174.492 22.0391V23H167.531V22.0391L169.219 21.6758V7.76562C169.219 6.83594 169.094 6.20313 168.844 5.86719C168.594 5.53125 168.156 5.36328 167.531 5.36328V4.40234C168.312 4.37109 169.145 4.28516 170.027 4.14453C170.91 3.99609 171.602 3.86719 172.102 3.75781L172.816 3.55859ZM186.387 14.8438V19.1562C186.387 20.0859 186.512 20.7188 186.762 21.0547C187.012 21.3906 187.445 21.5586 188.062 21.5586V22.5195C187.359 22.5508 186.617 22.6289 185.836 22.7539C185.055 22.8711 184.453 22.9844 184.031 23.0938L183.387 23.2344L183.152 20.9609H182.906C182.859 21.0234 182.793 21.1094 182.707 21.2188C182.629 21.3203 182.457 21.5 182.191 21.7578C181.934 22.0078 181.656 22.2344 181.359 22.4375C181.062 22.6328 180.68 22.8164 180.211 22.9883C179.75 23.1523 179.289 23.2344 178.828 23.2344C177.773 23.2344 176.949 22.9766 176.355 22.4609C175.762 21.9375 175.465 21.2773 175.465 20.4805C175.465 19.7617 175.715 19.1055 176.215 18.5117C176.723 17.918 177.336 17.4531 178.055 17.1172C178.781 16.7812 179.5 16.5 180.211 16.2734C180.922 16.0391 181.523 15.8828 182.016 15.8047L182.789 15.6758V15.0781C182.789 13.0781 182.07 12.0781 180.633 12.0781C180.422 12.0781 180.195 12.1055 179.953 12.1602C179.711 12.2148 179.52 12.2773 179.379 12.3477L179.191 12.4414L178.348 15.0781H176.426V11.7148C176.582 11.6211 176.809 11.5117 177.105 11.3867C177.402 11.2539 177.992 11.0781 178.875 10.8594C179.758 10.6328 180.621 10.5195 181.465 10.5195C183.051 10.5195 184.266 10.9062 185.109 11.6797C185.961 12.4453 186.387 13.5 186.387 14.8438ZM180.504 20.7148C180.887 20.7148 181.27 20.6172 181.652 20.4219C182.043 20.2188 182.324 20.0234 182.496 19.8359L182.789 19.5195V17C182.695 17.0156 182.566 17.0391 182.402 17.0703C182.246 17.1016 181.957 17.1914 181.535 17.3398C181.121 17.4805 180.754 17.6367 180.434 17.8086C180.113 17.9727 179.824 18.2109 179.566 18.5234C179.316 18.8359 179.191 19.168 179.191 19.5195C179.191 19.8867 179.305 20.1797 179.531 20.3984C179.766 20.6094 180.09 20.7148 180.504 20.7148ZM194.309 23.2344L189.867 13.8828C189.469 13.0312 189.098 12.457 188.754 12.1602C188.41 11.8633 187.941 11.7148 187.348 11.7148V10.7656H194.906V11.7148L192.996 12.0781L195.516 17.4805L195.867 18.9219H196.113L198.516 13.6367C198.672 13.2383 198.75 12.8789 198.75 12.5586C198.75 11.9961 198.191 11.7148 197.074 11.7148V10.7656H202.711V11.7148L201.035 12.0781L195.996 23.2344H194.309ZM208.125 14.3633V19.8828C208.125 20.7109 208.273 21.2773 208.57 21.582C208.875 21.8867 209.445 22.0391 210.281 22.0391V23H202.84V22.0391L204.516 21.6758V14.5977C204.516 13.668 204.391 13.0352 204.141 12.6992C203.898 12.3633 203.465 12.1953 202.84 12.1953V11.2344C203.543 11.2031 204.285 11.1289 205.066 11.0117C205.855 10.8945 206.457 10.7773 206.871 10.6602L207.516 10.5195L207.762 12.8047H207.996C208.043 12.7422 208.105 12.6602 208.184 12.5586C208.27 12.4492 208.453 12.2656 208.734 12.0078C209.016 11.75 209.297 11.5234 209.578 11.3281C209.867 11.125 210.227 10.9414 210.656 10.7773C211.094 10.6055 211.527 10.5195 211.957 10.5195C212.277 10.5195 212.59 10.5508 212.895 10.6133C213.199 10.6758 213.414 10.7422 213.539 10.8125L213.762 10.8828V15.1953H211.84L210.996 12.9219C210.465 12.9531 209.961 13.0898 209.484 13.332C209.008 13.5664 208.664 13.7969 208.453 14.0234L208.125 14.3633ZM225.645 14.8438V19.1562C225.645 20.0859 225.77 20.7188 226.02 21.0547C226.27 21.3906 226.703 21.5586 227.32 21.5586V22.5195C226.617 22.5508 225.875 22.6289 225.094 22.7539C224.312 22.8711 223.711 22.9844 223.289 23.0938L222.645 23.2344L222.41 20.9609H222.164C222.117 21.0234 222.051 21.1094 221.965 21.2188C221.887 21.3203 221.715 21.5 221.449 21.7578C221.191 22.0078 220.914 22.2344 220.617 22.4375C220.32 22.6328 219.938 22.8164 219.469 22.9883C219.008 23.1523 218.547 23.2344 218.086 23.2344C217.031 23.2344 216.207 22.9766 215.613 22.4609C215.02 21.9375 214.723 21.2773 214.723 20.4805C214.723 19.7617 214.973 19.1055 215.473 18.5117C215.98 17.918 216.594 17.4531 217.312 17.1172C218.039 16.7812 218.758 16.5 219.469 16.2734C220.18 16.0391 220.781 15.8828 221.273 15.8047L222.047 15.6758V15.0781C222.047 13.0781 221.328 12.0781 219.891 12.0781C219.68 12.0781 219.453 12.1055 219.211 12.1602C218.969 12.2148 218.777 12.2773 218.637 12.3477L218.449 12.4414L217.605 15.0781H215.684V11.7148C215.84 11.6211 216.066 11.5117 216.363 11.3867C216.66 11.2539 217.25 11.0781 218.133 10.8594C219.016 10.6328 219.879 10.5195 220.723 10.5195C222.309 10.5195 223.523 10.9062 224.367 11.6797C225.219 12.4453 225.645 13.5 225.645 14.8438ZM219.762 20.7148C220.145 20.7148 220.527 20.6172 220.91 20.4219C221.301 20.2188 221.582 20.0234 221.754 19.8359L222.047 19.5195V17C221.953 17.0156 221.824 17.0391 221.66 17.0703C221.504 17.1016 221.215 17.1914 220.793 17.3398C220.379 17.4805 220.012 17.6367 219.691 17.8086C219.371 17.9727 219.082 18.2109 218.824 18.5234C218.574 18.8359 218.449 19.168 218.449 19.5195C218.449 19.8867 218.562 20.1797 218.789 20.3984C219.023 20.6094 219.348 20.7148 219.762 20.7148ZM239.812 10.0391C239.812 10.5859 239.609 11.0625 239.203 11.4688C238.797 11.875 238.32 12.0781 237.773 12.0781C237.227 12.0781 236.75 11.8594 236.344 11.4219C235.938 10.9844 235.734 10.4453 235.734 9.80469C235.734 9.17969 235.832 8.5625 236.027 7.95312C236.23 7.34375 236.473 6.82812 236.754 6.40625C237.035 5.98438 237.312 5.60547 237.586 5.26953C237.867 4.93359 238.113 4.68359 238.324 4.51953L238.617 4.28516L239.449 5.11719C238.488 6.15625 237.969 7.11719 237.891 8C238.438 8.0625 238.895 8.28516 239.262 8.66797C239.629 9.05078 239.812 9.50781 239.812 10.0391ZM245.098 10.0391C245.098 10.5859 244.891 11.0625 244.477 11.4688C244.07 11.875 243.594 12.0781 243.047 12.0781C242.508 12.0781 242.031 11.8594 241.617 11.4219C241.211 10.9844 241.008 10.4453 241.008 9.80469C241.008 9.17969 241.109 8.5625 241.312 7.95312C241.516 7.34375 241.754 6.82812 242.027 6.40625C242.309 5.98438 242.59 5.60547 242.871 5.26953C243.152 4.93359 243.398 4.68359 243.609 4.51953L243.891 4.28516L244.734 5.11719C243.773 6.15625 243.254 7.11719 243.176 8C243.723 8.0625 244.18 8.28516 244.547 8.66797C244.914 9.05078 245.098 9.50781 245.098 10.0391ZM259.852 15.3242V19.8828C259.852 20.7656 259.961 21.3477 260.18 21.6289C260.406 21.9023 260.855 22.0391 261.527 22.0391V23H254.566V22.0391L256.242 21.6758V15.5586C256.242 13.957 255.562 13.1562 254.203 13.1562C253.82 13.1562 253.43 13.2461 253.031 13.4258C252.633 13.5977 252.328 13.7812 252.117 13.9766L251.812 14.2344V19.8828C251.812 20.7656 251.922 21.3477 252.141 21.6289C252.367 21.9023 252.816 22.0391 253.488 22.0391V23H246.527V22.0391L248.203 21.6758V14.5977C248.203 13.668 248.078 13.0352 247.828 12.6992C247.586 12.3633 247.152 12.1953 246.527 12.1953V11.2344C247.23 11.2031 247.973 11.1289 248.754 11.0117C249.543 10.8945 250.145 10.7773 250.559 10.6602L251.203 10.5195L251.449 12.8047H251.684C251.73 12.7422 251.793 12.6602 251.871 12.5586C251.957 12.4492 252.137 12.2656 252.41 12.0078C252.684 11.75 252.969 11.5234 253.266 11.3281C253.57 11.125 253.957 10.9414 254.426 10.7773C254.902 10.6055 255.391 10.5195 255.891 10.5195C257.078 10.5195 258.035 10.9414 258.762 11.7852C259.488 12.6211 259.852 13.8008 259.852 15.3242ZM268.125 6.32422C268.125 5.77734 268.328 5.30078 268.734 4.89453C269.148 4.48828 269.625 4.28516 270.164 4.28516C270.711 4.28516 271.188 4.50391 271.594 4.94141C272.008 5.37891 272.215 5.91797 272.215 6.55859C272.215 7.18359 272.113 7.80078 271.91 8.41016C271.707 9.01953 271.465 9.53516 271.184 9.95703C270.91 10.3789 270.633 10.7578 270.352 11.0938C270.07 11.4297 269.824 11.6797 269.613 11.8438L269.332 12.0781L268.488 11.2344C269.449 10.1953 269.969 9.23828 270.047 8.36328C269.5 8.30078 269.043 8.07812 268.676 7.69531C268.309 7.3125 268.125 6.85547 268.125 6.32422ZM262.852 6.32422C262.852 5.77734 263.055 5.30078 263.461 4.89453C263.867 4.48828 264.344 4.28516 264.891 4.28516C265.438 4.28516 265.914 4.50391 266.32 4.94141C266.727 5.37891 266.93 5.91797 266.93 6.55859C266.93 7.18359 266.828 7.80078 266.625 8.41016C266.43 9.01953 266.191 9.53516 265.91 9.95703C265.629 10.3789 265.348 10.7578 265.066 11.0938C264.793 11.4297 264.551 11.6797 264.34 11.8438L264.047 12.0781L263.215 11.2344C264.176 10.1953 264.695 9.23828 264.773 8.36328C264.227 8.30078 263.77 8.07812 263.402 7.69531C263.035 7.3125 262.852 6.85547 262.852 6.32422ZM7.44141 40.5195C7.76172 40.5195 8.08203 40.5508 8.40234 40.6133C8.72266 40.6758 8.96094 40.7422 9.11719 40.8125L9.36328 40.8828V37.7656C9.36328 36.8359 9.23828 36.2031 8.98828 35.8672C8.73828 35.5312 8.30078 35.3633 7.67578 35.3633V34.4023C8.45703 34.3711 9.28906 34.2852 10.1719 34.1445C11.0547 33.9961 11.7422 33.8672 12.2344 33.7578L12.9609 33.5586V49.1562C12.9609 50.0859 13.082 50.7188 13.3242 51.0547C13.5742 51.3906 14.0117 51.5586 14.6367 51.5586V52.5195C13.9336 52.5508 13.1875 52.6289 12.3984 52.7539C11.6172 52.8711 11.0195 52.9844 10.6055 53.0938L9.96094 53.2344L9.71484 50.9609H9.48047C9.43359 51.0234 9.36719 51.1094 9.28125 51.2188C9.20312 51.3203 9.03125 51.5 8.76562 51.7578C8.50781 52.0078 8.23047 52.2344 7.93359 52.4375C7.63672 52.6328 7.25391 52.8164 6.78516 52.9883C6.32422 53.1523 5.86328 53.2344 5.40234 53.2344C4.15234 53.2344 3.07812 52.707 2.17969 51.6523C1.28906 50.5977 0.84375 49.207 0.84375 47.4805C0.84375 45.4023 1.45703 43.7227 2.68359 42.4414C3.91797 41.1602 5.50391 40.5195 7.44141 40.5195ZM7.32422 42.0781C6.54297 42.0781 5.88672 42.4648 5.35547 43.2383C4.82422 44.0039 4.55859 45.1797 4.55859 46.7656C4.55859 48.0781 4.78516 49.0469 5.23828 49.6719C5.69922 50.2891 6.3125 50.5977 7.07812 50.5977C7.46094 50.5977 7.84375 50.5117 8.22656 50.3398C8.61719 50.1602 8.89844 49.9766 9.07031 49.7891L9.36328 49.5195V42.9219C8.88672 42.3594 8.20703 42.0781 7.32422 42.0781ZM22.0781 42.0781C21.5 42.0781 21 42.3555 20.5781 42.9102C20.1562 43.457 19.8555 44.3008 19.6758 45.4414L23.8828 45.0781V44.4805C23.8828 43.7305 23.7109 43.1445 23.3672 42.7227C23.0234 42.293 22.5938 42.0781 22.0781 42.0781ZM22.3242 40.5195C23.9414 40.5195 25.207 40.9727 26.1211 41.8789C27.043 42.7773 27.5352 44.043 27.5977 45.6758L26.4023 46.7656H19.6758C19.7383 48.0781 20.0859 49.0664 20.7188 49.7305C21.3516 50.3867 22.2461 50.7148 23.4023 50.7148C24.043 50.7148 24.6484 50.6289 25.2188 50.457C25.7969 50.2773 26.2148 50.1016 26.4727 49.9297L26.8828 49.6367L27.4805 50.2344C27.4336 50.3125 27.3633 50.4219 27.2695 50.5625C27.1836 50.7031 26.9727 50.9453 26.6367 51.2891C26.3008 51.6328 25.9414 51.9375 25.5586 52.2031C25.1758 52.4609 24.6602 52.6992 24.0117 52.918C23.3633 53.1289 22.6797 53.2344 21.9609 53.2344C20.2188 53.2344 18.7617 52.6523 17.5898 51.4883C16.4258 50.3164 15.8438 48.8594 15.8438 47.1172C15.8438 45.2578 16.4727 43.6953 17.7305 42.4297C18.9883 41.1562 20.5195 40.5195 22.3242 40.5195ZM57.9492 35.9609L58.6641 49.5195C58.7109 50.4648 58.8867 51.1016 59.1914 51.4297C59.4961 51.7578 60.043 51.9219 60.832 51.9219V53H52.793V52.0391L54.832 51.5586L54.3516 39.4414V38.1172H54.1055L48.832 53H47.0273L41.2734 39.5586L40.9102 38.1172H40.6641L40.1836 49.4023C40.1367 50.2852 40.2422 50.9219 40.5 51.3125C40.7578 51.7031 41.332 51.9062 42.2227 51.9219V53H36.1055V52.0391L38.1445 51.5586L38.7422 38.1172C38.7891 37.1094 38.6719 36.4375 38.3906 36.1016C38.1172 35.7656 37.5547 35.5977 36.7031 35.5977V34.5195H43.3125L48.3516 46.2852L48.5859 47.7148H48.832L53.3906 34.5195H59.9883V35.4805L57.9492 35.9609ZM72.9492 44.8438V49.1562C72.9492 50.0859 73.0742 50.7188 73.3242 51.0547C73.5742 51.3906 74.0078 51.5586 74.625 51.5586V52.5195C73.9219 52.5508 73.1797 52.6289 72.3984 52.7539C71.6172 52.8711 71.0156 52.9844 70.5938 53.0938L69.9492 53.2344L69.7148 50.9609H69.4688C69.4219 51.0234 69.3555 51.1094 69.2695 51.2188C69.1914 51.3203 69.0195 51.5 68.7539 51.7578C68.4961 52.0078 68.2188 52.2344 67.9219 52.4375C67.625 52.6328 67.2422 52.8164 66.7734 52.9883C66.3125 53.1523 65.8516 53.2344 65.3906 53.2344C64.3359 53.2344 63.5117 52.9766 62.918 52.4609C62.3242 51.9375 62.0273 51.2773 62.0273 50.4805C62.0273 49.7617 62.2773 49.1055 62.7773 48.5117C63.2852 47.918 63.8984 47.4531 64.6172 47.1172C65.3438 46.7812 66.0625 46.5 66.7734 46.2734C67.4844 46.0391 68.0859 45.8828 68.5781 45.8047L69.3516 45.6758V45.0781C69.3516 43.0781 68.6328 42.0781 67.1953 42.0781C66.9844 42.0781 66.7578 42.1055 66.5156 42.1602C66.2734 42.2148 66.082 42.2773 65.9414 42.3477L65.7539 42.4414L64.9102 45.0781H62.9883V41.7148C63.1445 41.6211 63.3711 41.5117 63.668 41.3867C63.9648 41.2539 64.5547 41.0781 65.4375 40.8594C66.3203 40.6328 67.1836 40.5195 68.0273 40.5195C69.6133 40.5195 70.8281 40.9062 71.6719 41.6797C72.5234 42.4453 72.9492 43.5 72.9492 44.8438ZM67.0664 50.7148C67.4492 50.7148 67.832 50.6172 68.2148 50.4219C68.6055 50.2188 68.8867 50.0234 69.0586 49.8359L69.3516 49.5195V47C69.2578 47.0156 69.1289 47.0391 68.9648 47.0703C68.8086 47.1016 68.5195 47.1914 68.0977 47.3398C67.6836 47.4805 67.3164 47.6367 66.9961 47.8086C66.6758 47.9727 66.3867 48.2109 66.1289 48.5234C65.8789 48.8359 65.7539 49.168 65.7539 49.5195C65.7539 49.8867 65.8672 50.1797 66.0938 50.3984C66.3281 50.6094 66.6523 50.7148 67.0664 50.7148ZM80.7656 44.3633V49.8828C80.7656 50.7109 80.9141 51.2773 81.2109 51.582C81.5156 51.8867 82.0859 52.0391 82.9219 52.0391V53H75.4805V52.0391L77.1562 51.6758V44.5977C77.1562 43.668 77.0312 43.0352 76.7812 42.6992C76.5391 42.3633 76.1055 42.1953 75.4805 42.1953V41.2344C76.1836 41.2031 76.9258 41.1289 77.707 41.0117C78.4961 40.8945 79.0977 40.7773 79.5117 40.6602L80.1562 40.5195L80.4023 42.8047H80.6367C80.6836 42.7422 80.7461 42.6602 80.8242 42.5586C80.9102 42.4492 81.0938 42.2656 81.375 42.0078C81.6562 41.75 81.9375 41.5234 82.2188 41.3281C82.5078 41.125 82.8672 40.9414 83.2969 40.7773C83.7344 40.6055 84.168 40.5195 84.5977 40.5195C84.918 40.5195 85.2305 40.5508 85.5352 40.6133C85.8398 40.6758 86.0547 40.7422 86.1797 40.8125L86.4023 40.8828V45.1953H84.4805L83.6367 42.9219C83.1055 42.9531 82.6016 43.0898 82.125 43.332C81.6484 43.5664 81.3047 43.7969 81.0938 44.0234L80.7656 44.3633ZM92.7656 46.7656L96 43.4023C96.3984 43.0039 96.6016 42.6836 96.6094 42.4414C96.6094 41.9648 96.0898 41.7227 95.0508 41.7148V40.7656H100.922V41.7148L99.3633 42.0781L95.8828 45.6758L100.324 51.6758L101.883 52.0391V53H97.207L92.7656 47V46.7656ZM92.2852 33.5586V49.8828C92.2852 50.7656 92.3945 51.3477 92.6133 51.6289C92.8398 51.9023 93.2891 52.0391 93.9609 52.0391V53H87V52.0391L88.6875 51.6758V37.7656C88.6875 36.8359 88.5625 36.2031 88.3125 35.8672C88.0625 35.5312 87.625 35.3633 87 35.3633V34.4023C87.7812 34.3711 88.6133 34.2852 89.4961 34.1445C90.3789 33.9961 91.0703 33.8672 91.5703 33.7578L92.2852 33.5586ZM108.832 40.2852V34.5195H125.156V40.2852H123.715C123.715 38.6992 123.465 37.6016 122.965 36.9922C122.473 36.3828 121.641 36.0781 120.469 36.0781H118.91V49.4023C118.91 50.4258 119.07 51.1016 119.391 51.4297C119.711 51.7578 120.352 51.9219 121.312 51.9219V53H112.676V52.0391L115.078 51.5586V36.0781H113.52C112.348 36.0781 111.512 36.3828 111.012 36.9922C110.52 37.6016 110.273 38.6992 110.273 40.2852H108.832ZM139.793 49.1562L141.832 43.6367C141.988 43.1602 142.07 42.8008 142.078 42.5586C142.078 41.9961 141.516 41.7148 140.391 41.7148V40.7656H145.793V41.7148L143.988 42.0781L139.91 53.2344H137.754L135.352 46.8828V45.4414H135.117L132.234 53.2344H130.078L126.469 43.8828C126.148 43.0312 125.812 42.457 125.461 42.1602C125.109 41.8633 124.605 41.7148 123.949 41.7148V40.7656H131.637V41.7148L129.715 42.0781L131.871 47.7148V49.1562H132.117L135.234 40.7656H136.793L139.547 47.7148V49.1562H139.793ZM156.715 44.8438V49.1562C156.715 50.0859 156.84 50.7188 157.09 51.0547C157.34 51.3906 157.773 51.5586 158.391 51.5586V52.5195C157.688 52.5508 156.945 52.6289 156.164 52.7539C155.383 52.8711 154.781 52.9844 154.359 53.0938L153.715 53.2344L153.48 50.9609H153.234C153.188 51.0234 153.121 51.1094 153.035 51.2188C152.957 51.3203 152.785 51.5 152.52 51.7578C152.262 52.0078 151.984 52.2344 151.688 52.4375C151.391 52.6328 151.008 52.8164 150.539 52.9883C150.078 53.1523 149.617 53.2344 149.156 53.2344C148.102 53.2344 147.277 52.9766 146.684 52.4609C146.09 51.9375 145.793 51.2773 145.793 50.4805C145.793 49.7617 146.043 49.1055 146.543 48.5117C147.051 47.918 147.664 47.4531 148.383 47.1172C149.109 46.7812 149.828 46.5 150.539 46.2734C151.25 46.0391 151.852 45.8828 152.344 45.8047L153.117 45.6758V45.0781C153.117 43.0781 152.398 42.0781 150.961 42.0781C150.75 42.0781 150.523 42.1055 150.281 42.1602C150.039 42.2148 149.848 42.2773 149.707 42.3477L149.52 42.4414L148.676 45.0781H146.754V41.7148C146.91 41.6211 147.137 41.5117 147.434 41.3867C147.73 41.2539 148.32 41.0781 149.203 40.8594C150.086 40.6328 150.949 40.5195 151.793 40.5195C153.379 40.5195 154.594 40.9062 155.438 41.6797C156.289 42.4453 156.715 43.5 156.715 44.8438ZM150.832 50.7148C151.215 50.7148 151.598 50.6172 151.98 50.4219C152.371 50.2188 152.652 50.0234 152.824 49.8359L153.117 49.5195V47C153.023 47.0156 152.895 47.0391 152.73 47.0703C152.574 47.1016 152.285 47.1914 151.863 47.3398C151.449 47.4805 151.082 47.6367 150.762 47.8086C150.441 47.9727 150.152 48.2109 149.895 48.5234C149.645 48.8359 149.52 49.168 149.52 49.5195C149.52 49.8867 149.633 50.1797 149.859 50.3984C150.094 50.6094 150.418 50.7148 150.832 50.7148ZM164.531 40.4023V49.8828C164.531 50.7656 164.641 51.3477 164.859 51.6289C165.086 51.9023 165.535 52.0391 166.207 52.0391V53H159.246V52.0391L160.922 51.6758V44.5977C160.922 43.668 160.797 43.0352 160.547 42.6992C160.305 42.3633 159.871 42.1953 159.246 42.1953V41.2344C160.098 41.2031 160.961 41.1172 161.836 40.9766C162.719 40.8359 163.391 40.6992 163.852 40.5664L164.531 40.4023ZM164.086 35.0938C164.461 35.4766 164.648 35.9648 164.648 36.5586C164.648 37.1523 164.461 37.6406 164.086 38.0234C163.711 38.4062 163.219 38.5977 162.609 38.5977C162 38.5977 161.508 38.4062 161.133 38.0234C160.758 37.6406 160.57 37.1523 160.57 36.5586C160.57 35.9648 160.758 35.4766 161.133 35.0938C161.508 34.7109 162 34.5195 162.609 34.5195C163.219 34.5195 163.711 34.7109 164.086 35.0938ZM180.375 45.3242V49.8828C180.375 50.7656 180.484 51.3477 180.703 51.6289C180.93 51.9023 181.379 52.0391 182.051 52.0391V53H175.09V52.0391L176.766 51.6758V45.5586C176.766 43.957 176.086 43.1562 174.727 43.1562C174.344 43.1562 173.953 43.2461 173.555 43.4258C173.156 43.5977 172.852 43.7812 172.641 43.9766L172.336 44.2344V49.8828C172.336 50.7656 172.445 51.3477 172.664 51.6289C172.891 51.9023 173.34 52.0391 174.012 52.0391V53H167.051V52.0391L168.727 51.6758V44.5977C168.727 43.668 168.602 43.0352 168.352 42.6992C168.109 42.3633 167.676 42.1953 167.051 42.1953V41.2344C167.754 41.2031 168.496 41.1289 169.277 41.0117C170.066 40.8945 170.668 40.7773 171.082 40.6602L171.727 40.5195L171.973 42.8047H172.207C172.254 42.7422 172.316 42.6602 172.395 42.5586C172.48 42.4492 172.66 42.2656 172.934 42.0078C173.207 41.75 173.492 41.5234 173.789 41.3281C174.094 41.125 174.48 40.9414 174.949 40.7773C175.426 40.6055 175.914 40.5195 176.414 40.5195C177.602 40.5195 178.559 40.9414 179.285 41.7852C180.012 42.6211 180.375 43.8008 180.375 45.3242ZM196.57 42.0781C195.992 42.0781 195.492 42.3555 195.07 42.9102C194.648 43.457 194.348 44.3008 194.168 45.4414L198.375 45.0781V44.4805C198.375 43.7305 198.203 43.1445 197.859 42.7227C197.516 42.293 197.086 42.0781 196.57 42.0781ZM196.816 40.5195C198.434 40.5195 199.699 40.9727 200.613 41.8789C201.535 42.7773 202.027 44.043 202.09 45.6758L200.895 46.7656H194.168C194.23 48.0781 194.578 49.0664 195.211 49.7305C195.844 50.3867 196.738 50.7148 197.895 50.7148C198.535 50.7148 199.141 50.6289 199.711 50.457C200.289 50.2773 200.707 50.1016 200.965 49.9297L201.375 49.6367L201.973 50.2344C201.926 50.3125 201.855 50.4219 201.762 50.5625C201.676 50.7031 201.465 50.9453 201.129 51.2891C200.793 51.6328 200.434 51.9375 200.051 52.2031C199.668 52.4609 199.152 52.6992 198.504 52.918C197.855 53.1289 197.172 53.2344 196.453 53.2344C194.711 53.2344 193.254 52.6523 192.082 51.4883C190.918 50.3164 190.336 48.8594 190.336 47.1172C190.336 45.2578 190.965 43.6953 192.223 42.4297C193.48 41.1562 195.012 40.5195 196.816 40.5195ZM196.57 38.9609H195.727V37.8828L198.258 34.5195H200.531V36.3242L196.57 38.9609ZM215.766 40.4023V49.8828C215.766 50.7656 215.875 51.3477 216.094 51.6289C216.32 51.9023 216.77 52.0391 217.441 52.0391V53H210.48V52.0391L212.156 51.6758V44.5977C212.156 43.668 212.031 43.0352 211.781 42.6992C211.539 42.3633 211.105 42.1953 210.48 42.1953V41.2344C211.332 41.2031 212.195 41.1172 213.07 40.9766C213.953 40.8359 214.625 40.6992 215.086 40.5664L215.766 40.4023ZM215.32 35.0938C215.695 35.4766 215.883 35.9648 215.883 36.5586C215.883 37.1523 215.695 37.6406 215.32 38.0234C214.945 38.4062 214.453 38.5977 213.844 38.5977C213.234 38.5977 212.742 38.4062 212.367 38.0234C211.992 37.6406 211.805 37.1523 211.805 36.5586C211.805 35.9648 211.992 35.4766 212.367 35.0938C212.742 34.7109 213.234 34.5195 213.844 34.5195C214.453 34.5195 214.945 34.7109 215.32 35.0938ZM231.609 45.3242V49.8828C231.609 50.7656 231.719 51.3477 231.938 51.6289C232.164 51.9023 232.613 52.0391 233.285 52.0391V53H226.324V52.0391L228 51.6758V45.5586C228 43.957 227.32 43.1562 225.961 43.1562C225.578 43.1562 225.188 43.2461 224.789 43.4258C224.391 43.5977 224.086 43.7812 223.875 43.9766L223.57 44.2344V49.8828C223.57 50.7656 223.68 51.3477 223.898 51.6289C224.125 51.9023 224.574 52.0391 225.246 52.0391V53H218.285V52.0391L219.961 51.6758V44.5977C219.961 43.668 219.836 43.0352 219.586 42.6992C219.344 42.3633 218.91 42.1953 218.285 42.1953V41.2344C218.988 41.2031 219.73 41.1289 220.512 41.0117C221.301 40.8945 221.902 40.7773 222.316 40.6602L222.961 40.5195L223.207 42.8047H223.441C223.488 42.7422 223.551 42.6602 223.629 42.5586C223.715 42.4492 223.895 42.2656 224.168 42.0078C224.441 41.75 224.727 41.5234 225.023 41.3281C225.328 41.125 225.715 40.9414 226.184 40.7773C226.66 40.6055 227.148 40.5195 227.648 40.5195C228.836 40.5195 229.793 40.9414 230.52 41.7852C231.246 42.6211 231.609 43.8008 231.609 45.3242ZM245.168 44.8438V49.1562C245.168 50.0859 245.293 50.7188 245.543 51.0547C245.793 51.3906 246.227 51.5586 246.844 51.5586V52.5195C246.141 52.5508 245.398 52.6289 244.617 52.7539C243.836 52.8711 243.234 52.9844 242.812 53.0938L242.168 53.2344L241.934 50.9609H241.688C241.641 51.0234 241.574 51.1094 241.488 51.2188C241.41 51.3203 241.238 51.5 240.973 51.7578C240.715 52.0078 240.438 52.2344 240.141 52.4375C239.844 52.6328 239.461 52.8164 238.992 52.9883C238.531 53.1523 238.07 53.2344 237.609 53.2344C236.555 53.2344 235.73 52.9766 235.137 52.4609C234.543 51.9375 234.246 51.2773 234.246 50.4805C234.246 49.7617 234.496 49.1055 234.996 48.5117C235.504 47.918 236.117 47.4531 236.836 47.1172C237.562 46.7812 238.281 46.5 238.992 46.2734C239.703 46.0391 240.305 45.8828 240.797 45.8047L241.57 45.6758V45.0781C241.57 43.0781 240.852 42.0781 239.414 42.0781C239.203 42.0781 238.977 42.1055 238.734 42.1602C238.492 42.2148 238.301 42.2773 238.16 42.3477L237.973 42.4414L237.129 45.0781H235.207V41.7148C235.363 41.6211 235.59 41.5117 235.887 41.3867C236.184 41.2539 236.773 41.0781 237.656 40.8594C238.539 40.6328 239.402 40.5195 240.246 40.5195C241.832 40.5195 243.047 40.9062 243.891 41.6797C244.742 42.4453 245.168 43.5 245.168 44.8438ZM239.285 50.7148C239.668 50.7148 240.051 50.6172 240.434 50.4219C240.824 50.2188 241.105 50.0234 241.277 49.8359L241.57 49.5195V47C241.477 47.0156 241.348 47.0391 241.184 47.0703C241.027 47.1016 240.738 47.1914 240.316 47.3398C239.902 47.4805 239.535 47.6367 239.215 47.8086C238.895 47.9727 238.605 48.2109 238.348 48.5234C238.098 48.8359 237.973 49.168 237.973 49.5195C237.973 49.8867 238.086 50.1797 238.312 50.3984C238.547 50.6094 238.871 50.7148 239.285 50.7148ZM248.062 47.1172C248.062 45.2266 248.723 43.6562 250.043 42.4062C251.363 41.1484 253.062 40.5195 255.141 40.5195C255.922 40.5195 256.652 40.6094 257.332 40.7891C258.012 40.9609 258.496 41.1445 258.785 41.3398L259.219 41.5977V45.4414H257.543L256.453 42.3242C256.133 42.168 255.695 42.0859 255.141 42.0781C254.242 42.0781 253.477 42.4766 252.844 43.2734C252.211 44.0625 251.895 45.1445 251.895 46.5195C251.895 47.8164 252.238 48.8398 252.926 49.5898C253.613 50.3398 254.512 50.7148 255.621 50.7148C256.262 50.7148 256.867 50.6289 257.438 50.457C258.016 50.2773 258.434 50.1016 258.691 49.9297L259.102 49.6367L259.699 50.2344C259.652 50.3125 259.582 50.4219 259.488 50.5625C259.402 50.7031 259.191 50.9453 258.855 51.2891C258.52 51.6328 258.16 51.9375 257.777 52.2031C257.395 52.4609 256.879 52.6992 256.23 52.918C255.582 53.1289 254.898 53.2344 254.18 53.2344C252.438 53.2344 250.98 52.6523 249.809 51.4883C248.645 50.3164 248.062 48.8594 248.062 47.1172ZM267.258 42.0781C266.68 42.0781 266.18 42.3555 265.758 42.9102C265.336 43.457 265.035 44.3008 264.855 45.4414L269.062 45.0781V44.4805C269.062 43.7305 268.891 43.1445 268.547 42.7227C268.203 42.293 267.773 42.0781 267.258 42.0781ZM267.504 40.5195C269.121 40.5195 270.387 40.9727 271.301 41.8789C272.223 42.7773 272.715 44.043 272.777 45.6758L271.582 46.7656H264.855C264.918 48.0781 265.266 49.0664 265.898 49.7305C266.531 50.3867 267.426 50.7148 268.582 50.7148C269.223 50.7148 269.828 50.6289 270.398 50.457C270.977 50.2773 271.395 50.1016 271.652 49.9297L272.062 49.6367L272.66 50.2344C272.613 50.3125 272.543 50.4219 272.449 50.5625C272.363 50.7031 272.152 50.9453 271.816 51.2891C271.48 51.6328 271.121 51.9375 270.738 52.2031C270.355 52.4609 269.84 52.6992 269.191 52.918C268.543 53.1289 267.859 53.2344 267.141 53.2344C265.398 53.2344 263.941 52.6523 262.77 51.4883C261.605 50.3164 261.023 48.8594 261.023 47.1172C261.023 45.2578 261.652 43.6953 262.91 42.4297C264.168 41.1562 265.699 40.5195 267.504 40.5195ZM279.375 40.4023V49.8828C279.375 50.7656 279.484 51.3477 279.703 51.6289C279.93 51.9023 280.379 52.0391 281.051 52.0391V53H274.09V52.0391L275.766 51.6758V44.5977C275.766 43.668 275.641 43.0352 275.391 42.6992C275.148 42.3633 274.715 42.1953 274.09 42.1953V41.2344C274.941 41.2031 275.805 41.1172 276.68 40.9766C277.562 40.8359 278.234 40.6992 278.695 40.5664L279.375 40.4023ZM278.93 35.0938C279.305 35.4766 279.492 35.9648 279.492 36.5586C279.492 37.1523 279.305 37.6406 278.93 38.0234C278.555 38.4062 278.062 38.5977 277.453 38.5977C276.844 38.5977 276.352 38.4062 275.977 38.0234C275.602 37.6406 275.414 37.1523 275.414 36.5586C275.414 35.9648 275.602 35.4766 275.977 35.0938C276.352 34.7109 276.844 34.5195 277.453 34.5195C278.062 34.5195 278.555 34.7109 278.93 35.0938ZM281.777 42.3242V41.1172L283.699 40.7656V37.6367L286.57 36.6758H287.297V40.7656H291.129V42.6758H289.816L287.297 42.0781V49.1562C287.297 50.2734 287.855 50.8359 288.973 50.8438C289.355 50.8438 289.727 50.7852 290.086 50.668C290.445 50.543 290.707 50.4258 290.871 50.3164L291.129 50.1172L291.609 50.8438C291.562 50.9062 291.5 50.9961 291.422 51.1133C291.344 51.2227 291.168 51.4141 290.895 51.6875C290.621 51.9531 290.332 52.1914 290.027 52.4023C289.723 52.6055 289.332 52.7969 288.855 52.9766C288.387 53.1484 287.906 53.2344 287.414 53.2344C286.211 53.2344 285.289 52.918 284.648 52.2852C284.016 51.6445 283.699 50.7227 283.699 49.5195V42.3242H281.777ZM303.504 44.8438V49.1562C303.504 50.0859 303.629 50.7188 303.879 51.0547C304.129 51.3906 304.562 51.5586 305.18 51.5586V52.5195C304.477 52.5508 303.734 52.6289 302.953 52.7539C302.172 52.8711 301.57 52.9844 301.148 53.0938L300.504 53.2344L300.27 50.9609H300.023C299.977 51.0234 299.91 51.1094 299.824 51.2188C299.746 51.3203 299.574 51.5 299.309 51.7578C299.051 52.0078 298.773 52.2344 298.477 52.4375C298.18 52.6328 297.797 52.8164 297.328 52.9883C296.867 53.1523 296.406 53.2344 295.945 53.2344C294.891 53.2344 294.066 52.9766 293.473 52.4609C292.879 51.9375 292.582 51.2773 292.582 50.4805C292.582 49.7617 292.832 49.1055 293.332 48.5117C293.84 47.918 294.453 47.4531 295.172 47.1172C295.898 46.7812 296.617 46.5 297.328 46.2734C298.039 46.0391 298.641 45.8828 299.133 45.8047L299.906 45.6758V45.0781C299.906 43.0781 299.188 42.0781 297.75 42.0781C297.539 42.0781 297.312 42.1055 297.07 42.1602C296.828 42.2148 296.637 42.2773 296.496 42.3477L296.309 42.4414L295.465 45.0781H293.543V41.7148C293.699 41.6211 293.926 41.5117 294.223 41.3867C294.52 41.2539 295.109 41.0781 295.992 40.8594C296.875 40.6328 297.738 40.5195 298.582 40.5195C300.168 40.5195 301.383 40.9062 302.227 41.6797C303.078 42.4453 303.504 43.5 303.504 44.8438ZM297.621 50.7148C298.004 50.7148 298.387 50.6172 298.77 50.4219C299.16 50.2188 299.441 50.0234 299.613 49.8359L299.906 49.5195V47C299.812 47.0156 299.684 47.0391 299.52 47.0703C299.363 47.1016 299.074 47.1914 298.652 47.3398C298.238 47.4805 297.871 47.6367 297.551 47.8086C297.23 47.9727 296.941 48.2109 296.684 48.5234C296.434 48.8359 296.309 49.168 296.309 49.5195C296.309 49.8867 296.422 50.1797 296.648 50.3984C296.883 50.6094 297.207 50.7148 297.621 50.7148ZM298.828 38.9609H297.984V37.8828L300.504 34.5195H302.789V36.3242L298.828 38.9609ZM311.426 53.2344L306.984 43.8828C306.586 43.0312 306.215 42.457 305.871 42.1602C305.527 41.8633 305.059 41.7148 304.465 41.7148V40.7656H312.023V41.7148L310.113 42.0781L312.633 47.4805L312.984 48.9219H313.23L315.633 43.6367C315.789 43.2383 315.867 42.8789 315.867 42.5586C315.867 41.9961 315.309 41.7148 314.191 41.7148V40.7656H319.828V41.7148L318.152 42.0781L313.113 53.2344H311.426ZM326.062 42.0781C325.484 42.0781 324.984 42.3555 324.562 42.9102C324.141 43.457 323.84 44.3008 323.66 45.4414L327.867 45.0781V44.4805C327.867 43.7305 327.695 43.1445 327.352 42.7227C327.008 42.293 326.578 42.0781 326.062 42.0781ZM326.309 40.5195C327.926 40.5195 329.191 40.9727 330.105 41.8789C331.027 42.7773 331.52 44.043 331.582 45.6758L330.387 46.7656H323.66C323.723 48.0781 324.07 49.0664 324.703 49.7305C325.336 50.3867 326.23 50.7148 327.387 50.7148C328.027 50.7148 328.633 50.6289 329.203 50.457C329.781 50.2773 330.199 50.1016 330.457 49.9297L330.867 49.6367L331.465 50.2344C331.418 50.3125 331.348 50.4219 331.254 50.5625C331.168 50.7031 330.957 50.9453 330.621 51.2891C330.285 51.6328 329.926 51.9375 329.543 52.2031C329.16 52.4609 328.645 52.6992 327.996 52.918C327.348 53.1289 326.664 53.2344 325.945 53.2344C324.203 53.2344 322.746 52.6523 321.574 51.4883C320.41 50.3164 319.828 48.8594 319.828 47.1172C319.828 45.2578 320.457 43.6953 321.715 42.4297C322.973 41.1562 324.504 40.5195 326.309 40.5195ZM337.934 33.5586V49.8828C337.934 50.7656 338.043 51.3477 338.262 51.6289C338.488 51.9023 338.938 52.0391 339.609 52.0391V53H332.648V52.0391L334.336 51.6758V37.7656C334.336 36.8359 334.211 36.2031 333.961 35.8672C333.711 35.5312 333.273 35.3633 332.648 35.3633V34.4023C333.43 34.3711 334.262 34.2852 335.145 34.1445C336.027 33.9961 336.719 33.8672 337.219 33.7578L337.934 33.5586Z" fill="white"/>
</svg>
