<svg width="359" height="67" viewBox="0 0 359 67" fill="none" xmlns="http://www.w3.org/2000/svg">
<path d="M4.45703 61.1982V44.3965C4.45703 43.0586 4.2959 42.1992 3.97363 41.8184C3.65137 41.4375 2.95801 41.2471 1.89355 41.2471V39.8994H12.1035V41.1006L9.24707 41.7012V61.0518H14.0518C15.7119 61.0518 16.8984 60.6904 17.6113 59.9678C18.334 59.2451 18.8467 57.9072 19.1494 55.9541H20.9512L20.2041 63H1.89355V61.7988L4.45703 61.1982ZM28.7441 47.2529V59.1035C28.7441 60.207 28.8809 60.9346 29.1543 61.2861C29.4375 61.6279 29.999 61.7988 30.8389 61.7988V63H22.1377V61.7988L24.2324 61.3447V52.4971C24.2324 51.335 24.0762 50.5439 23.7637 50.124C23.4609 49.7041 22.9189 49.4941 22.1377 49.4941V48.293C23.2021 48.2539 24.2812 48.1465 25.375 47.9707C26.4785 47.7949 27.3184 47.624 27.8945 47.458L28.7441 47.2529ZM28.1875 40.6172C28.6562 41.0957 28.8906 41.7061 28.8906 42.4482C28.8906 43.1904 28.6562 43.8008 28.1875 44.2793C27.7188 44.7578 27.1035 44.9971 26.3418 44.9971C25.5801 44.9971 24.9648 44.7578 24.4961 44.2793C24.0273 43.8008 23.793 43.1904 23.793 42.4482C23.793 41.7061 24.0273 41.0957 24.4961 40.6172C24.9648 40.1387 25.5801 39.8994 26.3418 39.8994C27.1035 39.8994 27.7188 40.1387 28.1875 40.6172ZM31.7471 49.6553V48.1465L34.1494 47.707V43.7959L37.7383 42.5947H38.6465V47.707H43.4365V50.0947H41.7959L38.6465 49.3477V58.1953C38.6465 59.5918 39.3447 60.2949 40.7412 60.3047C41.2197 60.3047 41.6836 60.2314 42.1328 60.085C42.582 59.9287 42.9092 59.7822 43.1143 59.6455L43.4365 59.3965L44.0371 60.3047C43.9785 60.3828 43.9004 60.4951 43.8027 60.6416C43.7051 60.7783 43.4854 61.0176 43.1436 61.3594C42.8018 61.6914 42.4404 61.9893 42.0596 62.2529C41.6787 62.5068 41.1904 62.7461 40.5947 62.9707C40.0088 63.1855 39.4082 63.293 38.793 63.293C37.2891 63.293 36.1367 62.8975 35.3359 62.1064C34.5449 61.3057 34.1494 60.1533 34.1494 58.6494V49.6553H31.7471ZM53.3535 49.3477C52.6309 49.3477 52.0059 49.6943 51.4785 50.3877C50.9512 51.0713 50.5752 52.126 50.3506 53.5518L55.6094 53.0977V52.3506C55.6094 51.4131 55.3945 50.6807 54.9648 50.1533C54.5352 49.6162 53.998 49.3477 53.3535 49.3477ZM53.6611 47.3994C55.6826 47.3994 57.2646 47.9658 58.4072 49.0986C59.5596 50.2217 60.1748 51.8037 60.2529 53.8447L58.7588 55.207H50.3506C50.4287 56.8477 50.8633 58.083 51.6543 58.9131C52.4453 59.7334 53.5635 60.1436 55.0088 60.1436C55.8096 60.1436 56.5664 60.0361 57.2793 59.8213C58.002 59.5967 58.5244 59.377 58.8467 59.1621L59.3594 58.7959L60.1064 59.543C60.0479 59.6406 59.96 59.7773 59.8428 59.9531C59.7354 60.1289 59.4717 60.4316 59.0518 60.8613C58.6318 61.291 58.1826 61.6719 57.7041 62.0039C57.2256 62.3262 56.5811 62.624 55.7705 62.8975C54.96 63.1611 54.1055 63.293 53.207 63.293C51.0293 63.293 49.208 62.5654 47.7432 61.1104C46.2881 59.6455 45.5605 57.8242 45.5605 55.6465C45.5605 53.3223 46.3467 51.3691 47.9189 49.7871C49.4912 48.1953 51.4053 47.3994 53.6611 47.3994ZM68.5 52.2041V59.1035C68.5 60.1387 68.6855 60.8467 69.0566 61.2275C69.4375 61.6084 70.1504 61.7988 71.1953 61.7988V63H61.8936V61.7988L63.9883 61.3447V52.4971C63.9883 51.335 63.832 50.5439 63.5195 50.124C63.2168 49.7041 62.6748 49.4941 61.8936 49.4941V48.293C62.7725 48.2539 63.7002 48.1611 64.6768 48.0146C65.6631 47.8682 66.415 47.7217 66.9326 47.5752L67.7383 47.3994L68.0459 50.2559H68.3389C68.3975 50.1777 68.4756 50.0752 68.5732 49.9482C68.6807 49.8115 68.9102 49.582 69.2617 49.2598C69.6133 48.9375 69.9648 48.6543 70.3164 48.4102C70.6777 48.1562 71.127 47.9268 71.6641 47.7217C72.2109 47.5068 72.7529 47.3994 73.29 47.3994C73.6904 47.3994 74.0811 47.4385 74.4619 47.5166C74.8428 47.5947 75.1113 47.6777 75.2676 47.7656L75.5459 47.8535V53.2441H73.1436L72.0889 50.4023C71.4248 50.4414 70.7949 50.6123 70.1992 50.915C69.6035 51.208 69.1738 51.4961 68.9102 51.7793L68.5 52.2041ZM90.3994 52.8047V58.1953C90.3994 59.3574 90.5557 60.1484 90.8682 60.5684C91.1807 60.9883 91.7227 61.1982 92.4941 61.1982V62.3994C91.6152 62.4385 90.6875 62.5361 89.7109 62.6924C88.7344 62.8389 87.9824 62.9805 87.4551 63.1172L86.6494 63.293L86.3564 60.4512H86.0488C85.9902 60.5293 85.9072 60.6367 85.7998 60.7734C85.7021 60.9004 85.4873 61.125 85.1553 61.4473C84.833 61.7598 84.4863 62.043 84.1152 62.2969C83.7441 62.541 83.2656 62.7705 82.6797 62.9854C82.1035 63.1904 81.5273 63.293 80.9512 63.293C79.6328 63.293 78.6025 62.9707 77.8604 62.3262C77.1182 61.6719 76.7471 60.8467 76.7471 59.8506C76.7471 58.9521 77.0596 58.1318 77.6846 57.3896C78.3193 56.6475 79.0859 56.0664 79.9844 55.6465C80.8926 55.2266 81.791 54.875 82.6797 54.5918C83.5684 54.2988 84.3203 54.1035 84.9355 54.0059L85.9023 53.8447V53.0977C85.9023 50.5977 85.0039 49.3477 83.207 49.3477C82.9434 49.3477 82.6602 49.3818 82.3574 49.4502C82.0547 49.5186 81.8154 49.5967 81.6396 49.6846L81.4053 49.8018L80.3506 53.0977H77.9482V48.8936C78.1436 48.7764 78.4268 48.6396 78.7979 48.4834C79.1689 48.3174 79.9062 48.0977 81.0098 47.8242C82.1133 47.541 83.1924 47.3994 84.2471 47.3994C86.2295 47.3994 87.748 47.8828 88.8027 48.8496C89.8672 49.8066 90.3994 51.125 90.3994 52.8047ZM83.0459 60.1436C83.5244 60.1436 84.0029 60.0215 84.4814 59.7773C84.9697 59.5234 85.3213 59.2793 85.5361 59.0449L85.9023 58.6494V55.5C85.7852 55.5195 85.624 55.5488 85.4189 55.5879C85.2236 55.627 84.8623 55.7393 84.335 55.9248C83.8174 56.1006 83.3584 56.2959 82.958 56.5107C82.5576 56.7158 82.1963 57.0137 81.874 57.4043C81.5615 57.7949 81.4053 58.21 81.4053 58.6494C81.4053 59.1084 81.5469 59.4746 81.8301 59.748C82.123 60.0117 82.5283 60.1436 83.0459 60.1436ZM100.17 52.2041V59.1035C100.17 60.1387 100.355 60.8467 100.727 61.2275C101.107 61.6084 101.82 61.7988 102.865 61.7988V63H93.5635V61.7988L95.6582 61.3447V52.4971C95.6582 51.335 95.502 50.5439 95.1895 50.124C94.8867 49.7041 94.3447 49.4941 93.5635 49.4941V48.293C94.4424 48.2539 95.3701 48.1611 96.3467 48.0146C97.333 47.8682 98.085 47.7217 98.6025 47.5752L99.4082 47.3994L99.7158 50.2559H100.009C100.067 50.1777 100.146 50.0752 100.243 49.9482C100.351 49.8115 100.58 49.582 100.932 49.2598C101.283 48.9375 101.635 48.6543 101.986 48.4102C102.348 48.1562 102.797 47.9268 103.334 47.7217C103.881 47.5068 104.423 47.3994 104.96 47.3994C105.36 47.3994 105.751 47.4385 106.132 47.5166C106.513 47.5947 106.781 47.6777 106.938 47.7656L107.216 47.8535V53.2441H104.813L103.759 50.4023C103.095 50.4414 102.465 50.6123 101.869 50.915C101.273 51.208 100.844 51.4961 100.58 51.7793L100.17 52.2041ZM114.877 47.2529V59.1035C114.877 60.207 115.014 60.9346 115.287 61.2861C115.57 61.6279 116.132 61.7988 116.972 61.7988V63H108.271V61.7988L110.365 61.3447V52.4971C110.365 51.335 110.209 50.5439 109.896 50.124C109.594 49.7041 109.052 49.4941 108.271 49.4941V48.293C109.335 48.2539 110.414 48.1465 111.508 47.9707C112.611 47.7949 113.451 47.624 114.027 47.458L114.877 47.2529ZM114.32 40.6172C114.789 41.0957 115.023 41.7061 115.023 42.4482C115.023 43.1904 114.789 43.8008 114.32 44.2793C113.852 44.7578 113.236 44.9971 112.475 44.9971C111.713 44.9971 111.098 44.7578 110.629 44.2793C110.16 43.8008 109.926 43.1904 109.926 42.4482C109.926 41.7061 110.16 41.0957 110.629 40.6172C111.098 40.1387 111.713 39.8994 112.475 39.8994C113.236 39.8994 113.852 40.1387 114.32 40.6172ZM131.825 52.8047V58.1953C131.825 59.3574 131.981 60.1484 132.294 60.5684C132.606 60.9883 133.148 61.1982 133.92 61.1982V62.3994C133.041 62.4385 132.113 62.5361 131.137 62.6924C130.16 62.8389 129.408 62.9805 128.881 63.1172L128.075 63.293L127.782 60.4512H127.475C127.416 60.5293 127.333 60.6367 127.226 60.7734C127.128 60.9004 126.913 61.125 126.581 61.4473C126.259 61.7598 125.912 62.043 125.541 62.2969C125.17 62.541 124.691 62.7705 124.105 62.9854C123.529 63.1904 122.953 63.293 122.377 63.293C121.059 63.293 120.028 62.9707 119.286 62.3262C118.544 61.6719 118.173 60.8467 118.173 59.8506C118.173 58.9521 118.485 58.1318 119.11 57.3896C119.745 56.6475 120.512 56.0664 121.41 55.6465C122.318 55.2266 123.217 54.875 124.105 54.5918C124.994 54.2988 125.746 54.1035 126.361 54.0059L127.328 53.8447V53.0977C127.328 50.5977 126.43 49.3477 124.633 49.3477C124.369 49.3477 124.086 49.3818 123.783 49.4502C123.48 49.5186 123.241 49.5967 123.065 49.6846L122.831 49.8018L121.776 53.0977H119.374V48.8936C119.569 48.7764 119.853 48.6396 120.224 48.4834C120.595 48.3174 121.332 48.0977 122.436 47.8242C123.539 47.541 124.618 47.3994 125.673 47.3994C127.655 47.3994 129.174 47.8828 130.229 48.8496C131.293 49.8066 131.825 51.125 131.825 52.8047ZM124.472 60.1436C124.95 60.1436 125.429 60.0215 125.907 59.7773C126.396 59.5234 126.747 59.2793 126.962 59.0449L127.328 58.6494V55.5C127.211 55.5195 127.05 55.5488 126.845 55.5879C126.649 55.627 126.288 55.7393 125.761 55.9248C125.243 56.1006 124.784 56.2959 124.384 56.5107C123.983 56.7158 123.622 57.0137 123.3 57.4043C122.987 57.7949 122.831 58.21 122.831 58.6494C122.831 59.1084 122.973 59.4746 123.256 59.748C123.549 60.0117 123.954 60.1436 124.472 60.1436ZM160.492 53.4053V59.1035C160.492 60.207 160.629 60.9346 160.902 61.2861C161.186 61.6279 161.747 61.7988 162.587 61.7988V63H154.193V61.7988L155.995 61.3447V53.6982C155.995 51.6963 155.243 50.6953 153.739 50.6953C153.261 50.6953 152.787 50.8076 152.318 51.0322C151.85 51.2471 151.493 51.4766 151.249 51.7207L150.883 52.043C150.98 52.3457 151.034 52.8975 151.044 53.6982V59.1035C151.044 60.207 151.176 60.9346 151.439 61.2861C151.713 61.6279 152.23 61.7988 152.992 61.7988V63H144.745V61.7988L146.532 61.3447V53.6982C146.532 51.6963 145.785 50.6953 144.291 50.6953C143.852 50.6953 143.407 50.7979 142.958 51.0029C142.509 51.1982 142.172 51.3984 141.947 51.6035L141.596 51.8965V59.1035C141.596 60.207 141.728 60.9346 141.991 61.2861C142.265 61.6279 142.782 61.7988 143.544 61.7988V63H134.989V61.7988L137.084 61.3447V52.4971C137.084 51.335 136.928 50.5439 136.615 50.124C136.312 49.7041 135.771 49.4941 134.989 49.4941V48.293C135.868 48.2539 136.796 48.1611 137.772 48.0146C138.759 47.8682 139.511 47.7217 140.028 47.5752L140.834 47.3994L141.142 50.0947H141.435C141.474 50.0166 141.537 49.9189 141.625 49.8018C141.723 49.6846 141.923 49.4697 142.226 49.1572C142.538 48.8447 142.87 48.5713 143.222 48.3369C143.573 48.0928 144.032 47.8779 144.599 47.6924C145.175 47.4971 145.771 47.3994 146.386 47.3994C146.962 47.3994 147.499 47.4971 147.997 47.6924C148.505 47.8779 148.896 48.1025 149.169 48.3662C149.452 48.6201 149.696 48.8789 149.901 49.1426C150.116 49.3965 150.268 49.6162 150.355 49.8018L150.443 50.0947H150.736C150.775 50.0166 150.844 49.9189 150.941 49.8018C151.049 49.6846 151.259 49.4697 151.571 49.1572C151.894 48.8447 152.24 48.5713 152.611 48.3369C152.982 48.0928 153.456 47.8779 154.032 47.6924C154.618 47.4971 155.219 47.3994 155.834 47.3994C157.23 47.3994 158.354 47.9121 159.203 48.9375C160.062 49.9531 160.492 51.4424 160.492 53.4053ZM171.889 49.3477C171.166 49.3477 170.541 49.6943 170.014 50.3877C169.486 51.0713 169.11 52.126 168.886 53.5518L174.145 53.0977V52.3506C174.145 51.4131 173.93 50.6807 173.5 50.1533C173.07 49.6162 172.533 49.3477 171.889 49.3477ZM172.196 47.3994C174.218 47.3994 175.8 47.9658 176.942 49.0986C178.095 50.2217 178.71 51.8037 178.788 53.8447L177.294 55.207H168.886C168.964 56.8477 169.398 58.083 170.189 58.9131C170.98 59.7334 172.099 60.1436 173.544 60.1436C174.345 60.1436 175.102 60.0361 175.814 59.8213C176.537 59.5967 177.06 59.377 177.382 59.1621L177.895 58.7959L178.642 59.543C178.583 59.6406 178.495 59.7773 178.378 59.9531C178.271 60.1289 178.007 60.4316 177.587 60.8613C177.167 61.291 176.718 61.6719 176.239 62.0039C175.761 62.3262 175.116 62.624 174.306 62.8975C173.495 63.1611 172.641 63.293 171.742 63.293C169.564 63.293 167.743 62.5654 166.278 61.1104C164.823 59.6455 164.096 57.8242 164.096 55.6465C164.096 53.3223 164.882 51.3691 166.454 49.7871C168.026 48.1953 169.94 47.3994 172.196 47.3994ZM197.084 53.4053V59.1035C197.084 60.207 197.221 60.9346 197.494 61.2861C197.777 61.6279 198.339 61.7988 199.179 61.7988V63H190.478V61.7988L192.572 61.3447V53.6982C192.572 51.6963 191.723 50.6953 190.023 50.6953C189.545 50.6953 189.057 50.8076 188.559 51.0322C188.061 51.2471 187.68 51.4766 187.416 51.7207L187.035 52.043V59.1035C187.035 60.207 187.172 60.9346 187.445 61.2861C187.729 61.6279 188.29 61.7988 189.13 61.7988V63H180.429V61.7988L182.523 61.3447V52.4971C182.523 51.335 182.367 50.5439 182.055 50.124C181.752 49.7041 181.21 49.4941 180.429 49.4941V48.293C181.308 48.2539 182.235 48.1611 183.212 48.0146C184.198 47.8682 184.95 47.7217 185.468 47.5752L186.273 47.3994L186.581 50.2559H186.874C186.933 50.1777 187.011 50.0752 187.108 49.9482C187.216 49.8115 187.44 49.582 187.782 49.2598C188.124 48.9375 188.48 48.6543 188.852 48.4102C189.232 48.1562 189.716 47.9268 190.302 47.7217C190.897 47.5068 191.508 47.3994 192.133 47.3994C193.617 47.3994 194.813 47.9268 195.722 48.9814C196.63 50.0264 197.084 51.501 197.084 53.4053ZM199.794 49.6553V48.1465L202.196 47.707V43.7959L205.785 42.5947H206.693V47.707H211.483V50.0947H209.843L206.693 49.3477V58.1953C206.693 59.5918 207.392 60.2949 208.788 60.3047C209.267 60.3047 209.73 60.2314 210.18 60.085C210.629 59.9287 210.956 59.7822 211.161 59.6455L211.483 59.3965L212.084 60.3047C212.025 60.3828 211.947 60.4951 211.85 60.6416C211.752 60.7783 211.532 61.0176 211.19 61.3594C210.849 61.6914 210.487 61.9893 210.106 62.2529C209.726 62.5068 209.237 62.7461 208.642 62.9707C208.056 63.1855 207.455 63.293 206.84 63.293C205.336 63.293 204.184 62.8975 203.383 62.1064C202.592 61.3057 202.196 60.1533 202.196 58.6494V49.6553H199.794ZM221.4 49.3477C220.678 49.3477 220.053 49.6943 219.525 50.3877C218.998 51.0713 218.622 52.126 218.397 53.5518L223.656 53.0977V52.3506C223.656 51.4131 223.441 50.6807 223.012 50.1533C222.582 49.6162 222.045 49.3477 221.4 49.3477ZM221.708 47.3994C223.729 47.3994 225.312 47.9658 226.454 49.0986C227.606 50.2217 228.222 51.8037 228.3 53.8447L226.806 55.207H218.397C218.476 56.8477 218.91 58.083 219.701 58.9131C220.492 59.7334 221.61 60.1436 223.056 60.1436C223.856 60.1436 224.613 60.0361 225.326 59.8213C226.049 59.5967 226.571 59.377 226.894 59.1621L227.406 58.7959L228.153 59.543C228.095 59.6406 228.007 59.7773 227.89 59.9531C227.782 60.1289 227.519 60.4316 227.099 60.8613C226.679 61.291 226.229 61.6719 225.751 62.0039C225.272 62.3262 224.628 62.624 223.817 62.8975C223.007 63.1611 222.152 63.293 221.254 63.293C219.076 63.293 217.255 62.5654 215.79 61.1104C214.335 59.6455 213.607 57.8242 213.607 55.6465C213.607 53.3223 214.394 51.3691 215.966 49.7871C217.538 48.1953 219.452 47.3994 221.708 47.3994ZM251.693 61.5059C254.975 61.5059 257.074 59.6553 257.992 55.9541H259.633L258.886 61.6523C258.642 61.7891 258.305 61.96 257.875 62.165C257.445 62.3604 256.552 62.624 255.194 62.9561C253.837 63.2881 252.47 63.4541 251.093 63.4541C247.577 63.4541 244.745 62.3848 242.597 60.2461C240.458 58.0977 239.389 55.2656 239.389 51.75C239.389 48.1465 240.546 45.1973 242.86 42.9023C245.185 40.5977 248.178 39.4453 251.84 39.4453C253.041 39.4453 254.223 39.5723 255.385 39.8262C256.557 40.0801 257.436 40.3242 258.021 40.5586L258.886 40.9541V46.9453H257.23C257.006 45.1484 256.42 43.7764 255.473 42.8291C254.525 41.8721 253.266 41.3936 251.693 41.3936C249.633 41.3936 247.968 42.209 246.698 43.8398C245.429 45.4707 244.794 47.9072 244.794 51.1494C244.794 54.6455 245.424 57.248 246.684 58.957C247.943 60.6562 249.613 61.5059 251.693 61.5059ZM266.21 55.0459C266.21 59.3428 267.411 61.4961 269.813 61.5059C270.731 61.5059 271.508 61.0225 272.143 60.0557C272.787 59.0791 273.109 57.6094 273.109 55.6465C273.109 51.3496 271.913 49.2012 269.521 49.2012C268.603 49.2012 267.821 49.6846 267.177 50.6514C266.532 51.6182 266.21 53.083 266.21 55.0459ZM277.914 55.207C277.914 57.4824 277.104 59.4014 275.482 60.9639C273.861 62.5166 271.82 63.293 269.359 63.293C267.035 63.293 265.131 62.5605 263.646 61.0957C262.162 59.6211 261.42 57.7559 261.42 55.5C261.42 53.2246 262.226 51.3057 263.837 49.7432C265.458 48.1807 267.499 47.3994 269.96 47.3994C272.284 47.3994 274.188 48.1367 275.673 49.6113C277.167 51.0859 277.914 52.9512 277.914 55.207ZM286.176 52.2041V59.1035C286.176 60.1387 286.361 60.8467 286.732 61.2275C287.113 61.6084 287.826 61.7988 288.871 61.7988V63H279.569V61.7988L281.664 61.3447V52.4971C281.664 51.335 281.508 50.5439 281.195 50.124C280.893 49.7041 280.351 49.4941 279.569 49.4941V48.293C280.448 48.2539 281.376 48.1611 282.353 48.0146C283.339 47.8682 284.091 47.7217 284.608 47.5752L285.414 47.3994L285.722 50.2559H286.015C286.073 50.1777 286.151 50.0752 286.249 49.9482C286.356 49.8115 286.586 49.582 286.938 49.2598C287.289 48.9375 287.641 48.6543 287.992 48.4102C288.354 48.1562 288.803 47.9268 289.34 47.7217C289.887 47.5068 290.429 47.3994 290.966 47.3994C291.366 47.3994 291.757 47.4385 292.138 47.5166C292.519 47.5947 292.787 47.6777 292.943 47.7656L293.222 47.8535V53.2441H290.819L289.765 50.4023C289.101 50.4414 288.471 50.6123 287.875 50.915C287.279 51.208 286.85 51.4961 286.586 51.7793L286.176 52.2041ZM300.883 52.2041V59.1035C300.883 60.1387 301.068 60.8467 301.439 61.2275C301.82 61.6084 302.533 61.7988 303.578 61.7988V63H294.276V61.7988L296.371 61.3447V52.4971C296.371 51.335 296.215 50.5439 295.902 50.124C295.6 49.7041 295.058 49.4941 294.276 49.4941V48.293C295.155 48.2539 296.083 48.1611 297.06 48.0146C298.046 47.8682 298.798 47.7217 299.315 47.5752L300.121 47.3994L300.429 50.2559H300.722C300.78 50.1777 300.858 50.0752 300.956 49.9482C301.063 49.8115 301.293 49.582 301.645 49.2598C301.996 48.9375 302.348 48.6543 302.699 48.4102C303.061 48.1562 303.51 47.9268 304.047 47.7217C304.594 47.5068 305.136 47.3994 305.673 47.3994C306.073 47.3994 306.464 47.4385 306.845 47.5166C307.226 47.5947 307.494 47.6777 307.65 47.7656L307.929 47.8535V53.2441H305.526L304.472 50.4023C303.808 50.4414 303.178 50.6123 302.582 50.915C301.986 51.208 301.557 51.4961 301.293 51.7793L300.883 52.2041ZM316.938 49.3477C316.215 49.3477 315.59 49.6943 315.062 50.3877C314.535 51.0713 314.159 52.126 313.935 53.5518L319.193 53.0977V52.3506C319.193 51.4131 318.979 50.6807 318.549 50.1533C318.119 49.6162 317.582 49.3477 316.938 49.3477ZM317.245 47.3994C319.267 47.3994 320.849 47.9658 321.991 49.0986C323.144 50.2217 323.759 51.8037 323.837 53.8447L322.343 55.207H313.935C314.013 56.8477 314.447 58.083 315.238 58.9131C316.029 59.7334 317.147 60.1436 318.593 60.1436C319.394 60.1436 320.15 60.0361 320.863 59.8213C321.586 59.5967 322.108 59.377 322.431 59.1621L322.943 58.7959L323.69 59.543C323.632 59.6406 323.544 59.7773 323.427 59.9531C323.319 60.1289 323.056 60.4316 322.636 60.8613C322.216 61.291 321.767 61.6719 321.288 62.0039C320.81 62.3262 320.165 62.624 319.354 62.8975C318.544 63.1611 317.689 63.293 316.791 63.293C314.613 63.293 312.792 62.5654 311.327 61.1104C309.872 59.6455 309.145 57.8242 309.145 55.6465C309.145 53.3223 309.931 51.3691 311.503 49.7871C313.075 48.1953 314.989 47.3994 317.245 47.3994ZM325.331 49.6553V48.1465L327.733 47.707V43.7959L331.322 42.5947H332.23V47.707H337.021V50.0947H335.38L332.23 49.3477V58.1953C332.23 59.5918 332.929 60.2949 334.325 60.3047C334.804 60.3047 335.268 60.2314 335.717 60.085C336.166 59.9287 336.493 59.7822 336.698 59.6455L337.021 59.3965L337.621 60.3047C337.562 60.3828 337.484 60.4951 337.387 60.6416C337.289 60.7783 337.069 61.0176 336.728 61.3594C336.386 61.6914 336.024 61.9893 335.644 62.2529C335.263 62.5068 334.774 62.7461 334.179 62.9707C333.593 63.1855 332.992 63.293 332.377 63.293C330.873 63.293 329.721 62.8975 328.92 62.1064C328.129 61.3057 327.733 60.1533 327.733 58.6494V49.6553H325.331ZM343.935 55.0459C343.935 59.3428 345.136 61.4961 347.538 61.5059C348.456 61.5059 349.232 61.0225 349.867 60.0557C350.512 59.0791 350.834 57.6094 350.834 55.6465C350.834 51.3496 349.638 49.2012 347.245 49.2012C346.327 49.2012 345.546 49.6846 344.901 50.6514C344.257 51.6182 343.935 53.083 343.935 55.0459ZM355.639 55.207C355.639 57.4824 354.828 59.4014 353.207 60.9639C351.586 62.5166 349.545 63.293 347.084 63.293C344.76 63.293 342.855 62.5605 341.371 61.0957C339.887 59.6211 339.145 57.7559 339.145 55.5C339.145 53.2246 339.95 51.3057 341.562 49.7432C343.183 48.1807 345.224 47.3994 347.685 47.3994C350.009 47.3994 351.913 48.1367 353.397 49.6113C354.892 51.0859 355.639 52.9512 355.639 55.207Z" fill="#ED1C24"/>
<path d="M14.9453 26.7988L17.8018 26.1982L15.707 20.9541H7.89941L6.84473 23.6494C6.54199 24.3525 6.39551 24.9043 6.40527 25.3047C6.40527 25.7832 6.56152 26.1299 6.87402 26.3447C7.19629 26.5498 7.78711 26.6523 8.64648 26.6523V28H0.853516V26.7988L3.40234 26.1982L12.1035 4.60645H14.5059L22.0059 23.6494C22.4648 24.792 22.9336 25.5781 23.4121 26.0078C23.8906 26.4375 24.5693 26.6523 25.4482 26.6523V28H14.9453V26.7988ZM11.7959 11.1982L8.64648 19.0059H14.9453L11.957 11.1982H11.7959ZM48.71 17.8047V23.1953C48.71 24.3574 48.8662 25.1484 49.1787 25.5684C49.4912 25.9883 50.0332 26.1982 50.8047 26.1982V27.3994C49.9258 27.4385 48.998 27.5361 48.0215 27.6924C47.0449 27.8389 46.293 27.9805 45.7656 28.1172L44.96 28.293L44.667 25.4512H44.3594C44.3008 25.5293 44.2178 25.6367 44.1104 25.7734C44.0127 25.9004 43.7979 26.125 43.4658 26.4473C43.1436 26.7598 42.7969 27.043 42.4258 27.2969C42.0547 27.541 41.5762 27.7705 40.9902 27.9854C40.4141 28.1904 39.8379 28.293 39.2617 28.293C37.9434 28.293 36.9131 27.9707 36.1709 27.3262C35.4287 26.6719 35.0576 25.8467 35.0576 24.8506C35.0576 23.9521 35.3701 23.1318 35.9951 22.3896C36.6299 21.6475 37.3965 21.0664 38.2949 20.6465C39.2031 20.2266 40.1016 19.875 40.9902 19.5918C41.8789 19.2988 42.6309 19.1035 43.2461 19.0059L44.2129 18.8447V18.0977C44.2129 15.5977 43.3145 14.3477 41.5176 14.3477C41.2539 14.3477 40.9707 14.3818 40.668 14.4502C40.3652 14.5186 40.126 14.5967 39.9502 14.6846L39.7158 14.8018L38.6611 18.0977H36.2588V13.8936C36.4541 13.7764 36.7373 13.6396 37.1084 13.4834C37.4795 13.3174 38.2168 13.0977 39.3203 12.8242C40.4238 12.541 41.5029 12.3994 42.5576 12.3994C44.54 12.3994 46.0586 12.8828 47.1133 13.8496C48.1777 14.8066 48.71 16.125 48.71 17.8047ZM41.3564 25.1436C41.835 25.1436 42.3135 25.0215 42.792 24.7773C43.2803 24.5234 43.6318 24.2793 43.8467 24.0449L44.2129 23.6494V20.5C44.0957 20.5195 43.9346 20.5488 43.7295 20.5879C43.5342 20.627 43.1729 20.7393 42.6455 20.9248C42.1279 21.1006 41.6689 21.2959 41.2686 21.5107C40.8682 21.7158 40.5068 22.0137 40.1846 22.4043C39.8721 22.7949 39.7158 23.21 39.7158 23.6494C39.7158 24.1084 39.8574 24.4746 40.1406 24.748C40.4336 25.0117 40.8389 25.1436 41.3564 25.1436ZM67.167 26.0518H73.4658C75.126 26.0518 76.3223 25.6807 77.0547 24.9385C77.7871 24.1963 78.3438 22.8145 78.7246 20.793H80.5264L79.6182 28H61.0146V26.6523L73.7734 6.84766H68.0752C66.6787 6.84766 65.7021 7.21875 65.1455 7.96094C64.5986 8.70313 64.3252 10.1338 64.3252 12.2529H62.5234V4.89941H79.9258V6.24707L67.167 26.0518Z" fill="#ED1C24"/>
</svg>
