<svg width="231" height="46" viewBox="0 0 231 46" fill="none" xmlns="http://www.w3.org/2000/svg">
<rect width="231" height="46" fill="#ED1C24"/>
<path d="M9.04785 18.8311V14.2432H7.51855V13.5928C8.08105 13.5225 8.58496 13.3818 9.03027 13.1709C9.47559 12.96 9.78027 12.7695 9.94434 12.5996L10.1816 12.3535H10.8496V17.5742C10.8496 18.1016 10.9404 18.459 11.1221 18.6465C11.3096 18.8281 11.667 18.9189 12.1943 18.9189V19.5518H7.69434V19.0068L9.04785 18.8311ZM19.9375 28.0068V17.75C19.9375 16.9473 19.8408 16.4316 19.6475 16.2031C19.4541 15.9746 19.041 15.8604 18.4082 15.8604V15.1396H24.0771V15.7725L22.3633 16.1328V28.0068H25.6064C26.6025 28.0068 27.3145 27.79 27.7422 27.3564C28.1758 26.917 28.4834 26.1143 28.665 24.9482H29.5615L29.1133 29H18.4082V28.3672L19.9375 28.0068ZM33.9736 19.6396V26.8379C33.9736 27.459 34.0557 27.8691 34.2197 28.0684C34.3896 28.2676 34.7266 28.3672 35.2305 28.3672V29H30.3701V28.3672L31.627 28.1035V22.6104C31.627 21.9482 31.5332 21.4971 31.3457 21.2568C31.1641 21.0166 30.8389 20.8965 30.3701 20.8965V20.2725C30.9326 20.2256 31.5127 20.1494 32.1104 20.0439C32.7139 19.9326 33.1768 19.833 33.499 19.7451L33.9736 19.6396ZM31.7764 17.6094C31.501 17.334 31.3633 16.9912 31.3633 16.5811C31.3633 16.1709 31.501 15.8281 31.7764 15.5527C32.0518 15.2773 32.3916 15.1396 32.7959 15.1396C33.2061 15.1396 33.5488 15.2773 33.8242 15.5527C34.0996 15.8281 34.2373 16.1709 34.2373 16.5811C34.2373 16.9912 34.0996 17.334 33.8242 17.6094C33.5488 17.8848 33.2061 18.0225 32.7959 18.0225C32.3916 18.0225 32.0518 17.8848 31.7764 17.6094ZM35.7666 20.9932V20.1758L37.208 19.9121V17.3896L39.001 16.7568H39.5459V19.9121H42.4199V21.1689H41.4355L39.5459 20.8086V26.3896C39.5459 27.2275 39.9648 27.6465 40.8027 27.6465C41.0898 27.6465 41.3682 27.6025 41.6377 27.5146C41.9072 27.4268 42.1035 27.333 42.2266 27.2334L42.4199 27.1104L42.7803 27.5586C42.7451 27.6055 42.6982 27.667 42.6396 27.7432C42.5811 27.8135 42.4521 27.9424 42.2529 28.1299C42.0537 28.3115 41.8457 28.4756 41.6289 28.6221C41.418 28.7686 41.1455 28.8975 40.8115 29.0088C40.4834 29.1201 40.1523 29.1758 39.8184 29.1758C38.0781 29.1758 37.208 28.3086 37.208 26.5742V20.9932H35.7666ZM48.1855 20.7207C47.7051 20.7207 47.2861 20.9404 46.9287 21.3799C46.5771 21.8135 46.3369 22.4639 46.208 23.3311L49.627 23.0586C49.627 21.5 49.1465 20.7207 48.1855 20.7207ZM48.3613 19.7275C49.4922 19.7275 50.377 20.0557 51.0156 20.7119C51.6602 21.3682 52.0059 22.2998 52.0527 23.5068L51.1562 24.2275H46.1113V24.3242C46.1113 25.2969 46.3838 26.0791 46.9287 26.6709C47.4795 27.2627 48.168 27.5586 48.9941 27.5586C49.498 27.5586 49.9756 27.4941 50.4268 27.3652C50.8779 27.2305 51.1973 27.0928 51.3848 26.9521L51.6924 26.75L52.0527 27.1104C52.0176 27.1689 51.9648 27.2451 51.8945 27.3389C51.8242 27.4268 51.666 27.5908 51.4199 27.8311C51.1738 28.0713 50.9072 28.2822 50.6201 28.4639C50.3389 28.6396 49.9697 28.8037 49.5127 28.9561C49.0615 29.1025 48.5898 29.1758 48.0977 29.1758C46.8262 29.1758 45.7715 28.748 44.9336 27.8926C44.1016 27.0371 43.6855 25.9385 43.6855 24.5967C43.6855 23.249 44.1455 22.1006 45.0654 21.1514C45.9912 20.2021 47.0898 19.7275 48.3613 19.7275ZM56.6494 22.4258V26.8379C56.6494 27.4238 56.7607 27.8252 56.9834 28.042C57.2119 28.2588 57.6396 28.3672 58.2666 28.3672V29H53.0459V28.3672L54.3027 28.1035V22.6104C54.3027 21.9482 54.209 21.4971 54.0215 21.2568C53.8398 21.0166 53.5146 20.8965 53.0459 20.8965V20.2725C53.5732 20.2256 54.1064 20.1582 54.6455 20.0703C55.1846 19.9766 55.5918 19.8945 55.8672 19.8242L56.2891 19.7275L56.4648 21.4414H56.5527C56.5879 21.3945 56.6348 21.333 56.6934 21.2568C56.7578 21.1748 56.8955 21.0371 57.1064 20.8438C57.3174 20.6504 57.5283 20.4805 57.7393 20.334C57.9561 20.1816 58.2256 20.0439 58.5479 19.9209C58.876 19.792 59.2012 19.7275 59.5234 19.7275C59.7637 19.7275 59.998 19.751 60.2266 19.7979C60.4551 19.8389 60.6162 19.8828 60.71 19.9297L60.877 20V23.0586H59.708L59.0752 21.2568C58.6416 21.2568 58.2227 21.3535 57.8184 21.5469C57.4199 21.7402 57.124 21.9336 56.9307 22.127L56.6494 22.4258ZM69.4199 22.8828V26.3018C69.4199 26.9639 69.5137 27.415 69.7012 27.6553C69.8887 27.8896 70.2139 28.0068 70.6768 28.0068V28.6396C70.1494 28.6865 69.6162 28.7568 69.0771 28.8506C68.5381 28.9385 68.1309 29.0117 67.8555 29.0703L67.4424 29.1758L67.2578 27.4707H67.1699C67.1348 27.5176 67.085 27.582 67.0205 27.6641C66.9619 27.7402 66.833 27.875 66.6338 28.0684C66.4404 28.2559 66.2324 28.4258 66.0098 28.5781C65.7871 28.7246 65.5 28.8623 65.1484 28.9912C64.8027 29.1143 64.457 29.1758 64.1113 29.1758C63.3672 29.1758 62.7754 28.9824 62.3359 28.5957C61.8965 28.2031 61.6768 27.708 61.6768 27.1104C61.6768 26.5947 61.8613 26.1201 62.2305 25.6865C62.6055 25.2529 63.0566 24.9131 63.584 24.667C64.1172 24.4209 64.6475 24.2129 65.1748 24.043C65.7021 23.8672 66.1504 23.75 66.5195 23.6914L67.082 23.6035V23.0586C67.082 21.5 66.5107 20.7207 65.3682 20.7207C65.1748 20.7207 64.9814 20.7441 64.7881 20.791C64.6006 20.8379 64.4541 20.8848 64.3486 20.9316L64.1992 20.9932L63.5664 22.9707H62.3096V20.6328C62.4268 20.5625 62.5938 20.4805 62.8105 20.3867C63.0273 20.2871 63.4609 20.1523 64.1113 19.9824C64.7617 19.8125 65.3916 19.7275 66.001 19.7275C67.0674 19.7275 67.9023 20.0146 68.5059 20.5889C69.1152 21.1572 69.4199 21.9219 69.4199 22.8828ZM65.1924 27.4707C65.5146 27.4707 65.8311 27.3975 66.1416 27.251C66.458 27.0986 66.6924 26.9492 66.8447 26.8027L67.082 26.5742V24.5C67 24.5117 66.8916 24.5293 66.7568 24.5527C66.6221 24.5762 66.3848 24.6436 66.0449 24.7549C65.7051 24.8604 65.4062 24.9834 65.1484 25.124C64.8906 25.2588 64.6533 25.4463 64.4365 25.6865C64.2197 25.9268 64.1113 26.1904 64.1113 26.4775C64.1113 27.1396 64.4717 27.4707 65.1924 27.4707ZM74.9131 22.4258V26.8379C74.9131 27.4238 75.0244 27.8252 75.2471 28.042C75.4756 28.2588 75.9033 28.3672 76.5303 28.3672V29H71.3096V28.3672L72.5664 28.1035V22.6104C72.5664 21.9482 72.4727 21.4971 72.2852 21.2568C72.1035 21.0166 71.7783 20.8965 71.3096 20.8965V20.2725C71.8369 20.2256 72.3701 20.1582 72.9092 20.0703C73.4482 19.9766 73.8555 19.8945 74.1309 19.8242L74.5527 19.7275L74.7285 21.4414H74.8164C74.8516 21.3945 74.8984 21.333 74.957 21.2568C75.0215 21.1748 75.1592 21.0371 75.3701 20.8438C75.5811 20.6504 75.792 20.4805 76.0029 20.334C76.2197 20.1816 76.4893 20.0439 76.8115 19.9209C77.1396 19.792 77.4648 19.7275 77.7871 19.7275C78.0273 19.7275 78.2617 19.751 78.4902 19.7979C78.7188 19.8389 78.8799 19.8828 78.9736 19.9297L79.1406 20V23.0586H77.9717L77.3389 21.2568C76.9053 21.2568 76.4863 21.3535 76.082 21.5469C75.6836 21.7402 75.3877 21.9336 75.1943 22.127L74.9131 22.4258ZM83.3682 19.6396V26.8379C83.3682 27.459 83.4502 27.8691 83.6143 28.0684C83.7842 28.2676 84.1211 28.3672 84.625 28.3672V29H79.7646V28.3672L81.0215 28.1035V22.6104C81.0215 21.9482 80.9277 21.4971 80.7402 21.2568C80.5586 21.0166 80.2334 20.8965 79.7646 20.8965V20.2725C80.3271 20.2256 80.9072 20.1494 81.5049 20.0439C82.1084 19.9326 82.5713 19.833 82.8936 19.7451L83.3682 19.6396ZM81.1709 17.6094C80.8955 17.334 80.7578 16.9912 80.7578 16.5811C80.7578 16.1709 80.8955 15.8281 81.1709 15.5527C81.4463 15.2773 81.7861 15.1396 82.1904 15.1396C82.6006 15.1396 82.9434 15.2773 83.2188 15.5527C83.4941 15.8281 83.6318 16.1709 83.6318 16.5811C83.6318 16.9912 83.4941 17.334 83.2188 17.6094C82.9434 17.8848 82.6006 18.0225 82.1904 18.0225C81.7861 18.0225 81.4463 17.8848 81.1709 17.6094ZM93.168 22.8828V26.3018C93.168 26.9639 93.2617 27.415 93.4492 27.6553C93.6367 27.8896 93.9619 28.0068 94.4248 28.0068V28.6396C93.8975 28.6865 93.3643 28.7568 92.8252 28.8506C92.2861 28.9385 91.8789 29.0117 91.6035 29.0703L91.1904 29.1758L91.0059 27.4707H90.918C90.8828 27.5176 90.833 27.582 90.7686 27.6641C90.71 27.7402 90.5811 27.875 90.3818 28.0684C90.1885 28.2559 89.9805 28.4258 89.7578 28.5781C89.5352 28.7246 89.248 28.8623 88.8965 28.9912C88.5508 29.1143 88.2051 29.1758 87.8594 29.1758C87.1152 29.1758 86.5234 28.9824 86.084 28.5957C85.6445 28.2031 85.4248 27.708 85.4248 27.1104C85.4248 26.5947 85.6094 26.1201 85.9785 25.6865C86.3535 25.2529 86.8047 24.9131 87.332 24.667C87.8652 24.4209 88.3955 24.2129 88.9229 24.043C89.4502 23.8672 89.8984 23.75 90.2676 23.6914L90.8301 23.6035V23.0586C90.8301 21.5 90.2588 20.7207 89.1162 20.7207C88.9229 20.7207 88.7295 20.7441 88.5361 20.791C88.3486 20.8379 88.2021 20.8848 88.0967 20.9316L87.9473 20.9932L87.3145 22.9707H86.0576V20.6328C86.1748 20.5625 86.3418 20.4805 86.5586 20.3867C86.7754 20.2871 87.209 20.1523 87.8594 19.9824C88.5098 19.8125 89.1396 19.7275 89.749 19.7275C90.8154 19.7275 91.6504 20.0146 92.2539 20.5889C92.8633 21.1572 93.168 21.9219 93.168 22.8828ZM88.9404 27.4707C89.2627 27.4707 89.5791 27.3975 89.8896 27.251C90.2061 27.0986 90.4404 26.9492 90.5928 26.8027L90.8301 26.5742V24.5C90.748 24.5117 90.6396 24.5293 90.5049 24.5527C90.3701 24.5762 90.1328 24.6436 89.793 24.7549C89.4531 24.8604 89.1543 24.9834 88.8965 25.124C88.6387 25.2588 88.4014 25.4463 88.1846 25.6865C87.9678 25.9268 87.8594 26.1904 87.8594 26.4775C87.8594 27.1396 88.2197 27.4707 88.9404 27.4707ZM109.999 23.4189V26.8379C109.999 27.459 110.081 27.8691 110.245 28.0684C110.415 28.2676 110.752 28.3672 111.256 28.3672V29H106.58V28.3672L107.661 28.1035V23.4189C107.661 22.7568 107.515 22.2617 107.222 21.9336C106.935 21.6055 106.539 21.4414 106.035 21.4414C105.736 21.4414 105.438 21.5088 105.139 21.6436C104.84 21.7725 104.611 21.9072 104.453 22.0479L104.233 22.25C104.292 22.4902 104.324 22.8799 104.33 23.4189V26.8379C104.33 27.459 104.409 27.8691 104.567 28.0684C104.731 28.2676 105.042 28.3672 105.499 28.3672V29H100.911V28.3672L101.983 28.1035V23.4189C101.983 22.7568 101.84 22.2617 101.553 21.9336C101.266 21.6055 100.87 21.4414 100.366 21.4414C100.103 21.4414 99.8271 21.5088 99.54 21.6436C99.2529 21.7725 99.0303 21.9072 98.8721 22.0479L98.6611 22.25V26.8379C98.6611 27.459 98.7402 27.8691 98.8984 28.0684C99.0625 28.2676 99.373 28.3672 99.8301 28.3672V29H95.0576V28.3672L96.3145 28.1035V22.6104C96.3145 21.9482 96.2207 21.4971 96.0332 21.2568C95.8516 21.0166 95.5264 20.8965 95.0576 20.8965V20.2725C95.585 20.2256 96.1182 20.1582 96.6572 20.0703C97.1963 19.9766 97.6035 19.8945 97.8789 19.8242L98.3008 19.7275L98.4766 21.2568H98.5645C98.5996 21.2217 98.6465 21.1689 98.7051 21.0986C98.7695 21.0283 98.9014 20.9053 99.1006 20.7295C99.2998 20.5537 99.5049 20.3984 99.7158 20.2637C99.9326 20.123 100.205 20 100.533 19.8945C100.867 19.7832 101.201 19.7275 101.535 19.7275C101.875 19.7275 102.188 19.7832 102.476 19.8945C102.763 20 102.994 20.1289 103.17 20.2812C103.352 20.4277 103.504 20.5742 103.627 20.7207C103.756 20.8613 103.847 20.9873 103.899 21.0986L103.97 21.2568H104.058C104.093 21.2217 104.14 21.1689 104.198 21.0986C104.263 21.0283 104.395 20.9053 104.594 20.7295C104.799 20.5537 105.016 20.3984 105.244 20.2637C105.473 20.123 105.763 20 106.114 19.8945C106.472 19.7832 106.835 19.7275 107.204 19.7275C108.054 19.7275 108.73 20.041 109.234 20.668C109.744 21.2891 109.999 22.2061 109.999 23.4189ZM116.74 20.7207C116.26 20.7207 115.841 20.9404 115.483 21.3799C115.132 21.8135 114.892 22.4639 114.763 23.3311L118.182 23.0586C118.182 21.5 117.701 20.7207 116.74 20.7207ZM116.916 19.7275C118.047 19.7275 118.932 20.0557 119.57 20.7119C120.215 21.3682 120.561 22.2998 120.607 23.5068L119.711 24.2275H114.666V24.3242C114.666 25.2969 114.938 26.0791 115.483 26.6709C116.034 27.2627 116.723 27.5586 117.549 27.5586C118.053 27.5586 118.53 27.4941 118.981 27.3652C119.433 27.2305 119.752 27.0928 119.939 26.9521L120.247 26.75L120.607 27.1104C120.572 27.1689 120.52 27.2451 120.449 27.3389C120.379 27.4268 120.221 27.5908 119.975 27.8311C119.729 28.0713 119.462 28.2822 119.175 28.4639C118.894 28.6396 118.524 28.8037 118.067 28.9561C117.616 29.1025 117.145 29.1758 116.652 29.1758C115.381 29.1758 114.326 28.748 113.488 27.8926C112.656 27.0371 112.24 25.9385 112.24 24.5967C112.24 23.249 112.7 22.1006 113.62 21.1514C114.546 20.2021 115.645 19.7275 116.916 19.7275ZM131.233 23.3311V26.8379C131.233 27.459 131.315 27.8691 131.479 28.0684C131.649 28.2676 131.986 28.3672 132.49 28.3672V29H127.63V28.3672L128.887 28.1035V23.4189C128.887 22.71 128.752 22.2031 128.482 21.8984C128.213 21.5938 127.779 21.4414 127.182 21.4414C126.859 21.4414 126.531 21.5176 126.197 21.6699C125.869 21.8164 125.62 21.9688 125.45 22.127L125.204 22.3379V26.8379C125.204 27.459 125.286 27.8691 125.45 28.0684C125.62 28.2676 125.957 28.3672 126.461 28.3672V29H121.601V28.3672L122.857 28.1035V22.6104C122.857 21.9482 122.764 21.4971 122.576 21.2568C122.395 21.0166 122.069 20.8965 121.601 20.8965V20.2725C122.128 20.2256 122.661 20.1582 123.2 20.0703C123.739 19.9766 124.146 19.8945 124.422 19.8242L124.844 19.7275L125.02 21.4414H125.107C125.143 21.3945 125.192 21.333 125.257 21.2568C125.327 21.1748 125.471 21.0371 125.688 20.8438C125.904 20.6504 126.13 20.4805 126.364 20.334C126.599 20.1816 126.895 20.0439 127.252 19.9209C127.609 19.792 127.976 19.7275 128.351 19.7275C129.241 19.7275 129.944 20.0352 130.46 20.6504C130.976 21.2598 131.233 22.1533 131.233 23.3311ZM132.851 20.9932V20.1758L134.292 19.9121V17.3896L136.085 16.7568H136.63V19.9121H139.504V21.1689H138.52L136.63 20.8086V26.3896C136.63 27.2275 137.049 27.6465 137.887 27.6465C138.174 27.6465 138.452 27.6025 138.722 27.5146C138.991 27.4268 139.188 27.333 139.311 27.2334L139.504 27.1104L139.864 27.5586C139.829 27.6055 139.782 27.667 139.724 27.7432C139.665 27.8135 139.536 27.9424 139.337 28.1299C139.138 28.3115 138.93 28.4756 138.713 28.6221C138.502 28.7686 138.229 28.8975 137.896 29.0088C137.567 29.1201 137.236 29.1758 136.902 29.1758C135.162 29.1758 134.292 28.3086 134.292 26.5742V20.9932H132.851ZM145.27 20.7207C144.789 20.7207 144.37 20.9404 144.013 21.3799C143.661 21.8135 143.421 22.4639 143.292 23.3311L146.711 23.0586C146.711 21.5 146.23 20.7207 145.27 20.7207ZM145.445 19.7275C146.576 19.7275 147.461 20.0557 148.1 20.7119C148.744 21.3682 149.09 22.2998 149.137 23.5068L148.24 24.2275H143.195V24.3242C143.195 25.2969 143.468 26.0791 144.013 26.6709C144.563 27.2627 145.252 27.5586 146.078 27.5586C146.582 27.5586 147.06 27.4941 147.511 27.3652C147.962 27.2305 148.281 27.0928 148.469 26.9521L148.776 26.75L149.137 27.1104C149.102 27.1689 149.049 27.2451 148.979 27.3389C148.908 27.4268 148.75 27.5908 148.504 27.8311C148.258 28.0713 147.991 28.2822 147.704 28.4639C147.423 28.6396 147.054 28.8037 146.597 28.9561C146.146 29.1025 145.674 29.1758 145.182 29.1758C143.91 29.1758 142.855 28.748 142.018 27.8926C141.186 27.0371 140.77 25.9385 140.77 24.5967C140.77 23.249 141.229 22.1006 142.149 21.1514C143.075 20.2021 144.174 19.7275 145.445 19.7275ZM162.821 28.2793C164.884 28.2793 166.205 27.1689 166.785 24.9482H167.594L167.146 28.1914C166.999 28.2734 166.797 28.376 166.539 28.499C166.281 28.6162 165.754 28.7744 164.957 28.9736C164.16 29.1729 163.357 29.2725 162.549 29.2725C160.521 29.2725 158.875 28.6309 157.609 27.3477C156.344 26.0586 155.711 24.3594 155.711 22.25C155.711 20.0879 156.394 18.3184 157.759 16.9414C159.13 15.5586 160.879 14.8672 163.006 14.8672C163.703 14.8672 164.395 14.9434 165.08 15.0957C165.771 15.248 166.29 15.3945 166.636 15.5352L167.146 15.7725V19.2793H166.328C166.193 18.2012 165.821 17.3633 165.212 16.7656C164.603 16.1621 163.806 15.8604 162.821 15.8604C161.503 15.8604 160.437 16.3672 159.622 17.3809C158.813 18.3945 158.409 19.8975 158.409 21.8896C158.409 24.04 158.811 25.6426 159.613 26.6973C160.422 27.752 161.491 28.2793 162.821 28.2793ZM175.864 24.5879C175.864 23.2812 175.63 22.2969 175.161 21.6348C174.692 20.9668 174.115 20.6328 173.43 20.6328C172.832 20.6328 172.308 20.9551 171.856 21.5996C171.405 22.2383 171.18 23.1465 171.18 24.3242C171.18 25.6309 171.414 26.6182 171.883 27.2861C172.352 27.9482 172.929 28.2793 173.614 28.2793C174.212 28.2793 174.736 27.96 175.188 27.3213C175.639 26.6768 175.864 25.7656 175.864 24.5879ZM178.29 24.4121C178.29 25.7656 177.821 26.8994 176.884 27.8135C175.952 28.7217 174.771 29.1758 173.342 29.1758C171.988 29.1758 170.884 28.7451 170.028 27.8838C169.179 27.0225 168.754 25.8945 168.754 24.5C168.754 23.1465 169.22 22.0127 170.151 21.0986C171.089 20.1846 172.272 19.7275 173.702 19.7275C175.056 19.7275 176.157 20.1611 177.007 21.0283C177.862 21.8896 178.29 23.0176 178.29 24.4121ZM182.983 22.4258V26.8379C182.983 27.4238 183.095 27.8252 183.317 28.042C183.546 28.2588 183.974 28.3672 184.601 28.3672V29H179.38V28.3672L180.637 28.1035V22.6104C180.637 21.9482 180.543 21.4971 180.355 21.2568C180.174 21.0166 179.849 20.8965 179.38 20.8965V20.2725C179.907 20.2256 180.44 20.1582 180.979 20.0703C181.519 19.9766 181.926 19.8945 182.201 19.8242L182.623 19.7275L182.799 21.4414H182.887C182.922 21.3945 182.969 21.333 183.027 21.2568C183.092 21.1748 183.229 21.0371 183.44 20.8438C183.651 20.6504 183.862 20.4805 184.073 20.334C184.29 20.1816 184.56 20.0439 184.882 19.9209C185.21 19.792 185.535 19.7275 185.857 19.7275C186.098 19.7275 186.332 19.751 186.561 19.7979C186.789 19.8389 186.95 19.8828 187.044 19.9297L187.211 20V23.0586H186.042L185.409 21.2568C184.976 21.2568 184.557 21.3535 184.152 21.5469C183.754 21.7402 183.458 21.9336 183.265 22.127L182.983 22.4258ZM191.438 22.4258V26.8379C191.438 27.4238 191.55 27.8252 191.772 28.042C192.001 28.2588 192.429 28.3672 193.056 28.3672V29H187.835V28.3672L189.092 28.1035V22.6104C189.092 21.9482 188.998 21.4971 188.811 21.2568C188.629 21.0166 188.304 20.8965 187.835 20.8965V20.2725C188.362 20.2256 188.896 20.1582 189.435 20.0703C189.974 19.9766 190.381 19.8945 190.656 19.8242L191.078 19.7275L191.254 21.4414H191.342C191.377 21.3945 191.424 21.333 191.482 21.2568C191.547 21.1748 191.685 21.0371 191.896 20.8438C192.106 20.6504 192.317 20.4805 192.528 20.334C192.745 20.1816 193.015 20.0439 193.337 19.9209C193.665 19.792 193.99 19.7275 194.312 19.7275C194.553 19.7275 194.787 19.751 195.016 19.7979C195.244 19.8389 195.405 19.8828 195.499 19.9297L195.666 20V23.0586H194.497L193.864 21.2568C193.431 21.2568 193.012 21.3535 192.607 21.5469C192.209 21.7402 191.913 21.9336 191.72 22.127L191.438 22.4258ZM200.975 20.7207C200.494 20.7207 200.075 20.9404 199.718 21.3799C199.366 21.8135 199.126 22.4639 198.997 23.3311L202.416 23.0586C202.416 21.5 201.936 20.7207 200.975 20.7207ZM201.15 19.7275C202.281 19.7275 203.166 20.0557 203.805 20.7119C204.449 21.3682 204.795 22.2998 204.842 23.5068L203.945 24.2275H198.9V24.3242C198.9 25.2969 199.173 26.0791 199.718 26.6709C200.269 27.2627 200.957 27.5586 201.783 27.5586C202.287 27.5586 202.765 27.4941 203.216 27.3652C203.667 27.2305 203.986 27.0928 204.174 26.9521L204.481 26.75L204.842 27.1104C204.807 27.1689 204.754 27.2451 204.684 27.3389C204.613 27.4268 204.455 27.5908 204.209 27.8311C203.963 28.0713 203.696 28.2822 203.409 28.4639C203.128 28.6396 202.759 28.8037 202.302 28.9561C201.851 29.1025 201.379 29.1758 200.887 29.1758C199.615 29.1758 198.561 28.748 197.723 27.8926C196.891 27.0371 196.475 25.9385 196.475 24.5967C196.475 23.249 196.935 22.1006 197.854 21.1514C198.78 20.2021 199.879 19.7275 201.15 19.7275ZM205.747 20.9932V20.1758L207.188 19.9121V17.3896L208.981 16.7568H209.526V19.9121H212.4V21.1689H211.416L209.526 20.8086V26.3896C209.526 27.2275 209.945 27.6465 210.783 27.6465C211.07 27.6465 211.349 27.6025 211.618 27.5146C211.888 27.4268 212.084 27.333 212.207 27.2334L212.4 27.1104L212.761 27.5586C212.726 27.6055 212.679 27.667 212.62 27.7432C212.562 27.8135 212.433 27.9424 212.233 28.1299C212.034 28.3115 211.826 28.4756 211.609 28.6221C211.398 28.7686 211.126 28.8975 210.792 29.0088C210.464 29.1201 210.133 29.1758 209.799 29.1758C208.059 29.1758 207.188 28.3086 207.188 26.5742V20.9932H205.747ZM221.225 22.8828V26.3018C221.225 26.9639 221.318 27.415 221.506 27.6553C221.693 27.8896 222.019 28.0068 222.481 28.0068V28.6396C221.954 28.6865 221.421 28.7568 220.882 28.8506C220.343 28.9385 219.936 29.0117 219.66 29.0703L219.247 29.1758L219.062 27.4707H218.975C218.939 27.5176 218.89 27.582 218.825 27.6641C218.767 27.7402 218.638 27.875 218.438 28.0684C218.245 28.2559 218.037 28.4258 217.814 28.5781C217.592 28.7246 217.305 28.8623 216.953 28.9912C216.607 29.1143 216.262 29.1758 215.916 29.1758C215.172 29.1758 214.58 28.9824 214.141 28.5957C213.701 28.2031 213.481 27.708 213.481 27.1104C213.481 26.5947 213.666 26.1201 214.035 25.6865C214.41 25.2529 214.861 24.9131 215.389 24.667C215.922 24.4209 216.452 24.2129 216.979 24.043C217.507 23.8672 217.955 23.75 218.324 23.6914L218.887 23.6035V23.0586C218.887 21.5 218.315 20.7207 217.173 20.7207C216.979 20.7207 216.786 20.7441 216.593 20.791C216.405 20.8379 216.259 20.8848 216.153 20.9316L216.004 20.9932L215.371 22.9707H214.114V20.6328C214.231 20.5625 214.398 20.4805 214.615 20.3867C214.832 20.2871 215.266 20.1523 215.916 19.9824C216.566 19.8125 217.196 19.7275 217.806 19.7275C218.872 19.7275 219.707 20.0146 220.311 20.5889C220.92 21.1572 221.225 21.9219 221.225 22.8828ZM216.997 27.4707C217.319 27.4707 217.636 27.3975 217.946 27.251C218.263 27.0986 218.497 26.9492 218.649 26.8027L218.887 26.5742V24.5C218.805 24.5117 218.696 24.5293 218.562 24.5527C218.427 24.5762 218.189 24.6436 217.85 24.7549C217.51 24.8604 217.211 24.9834 216.953 25.124C216.695 25.2588 216.458 25.4463 216.241 25.6865C216.024 25.9268 215.916 26.1904 215.916 26.4775C215.916 27.1396 216.276 27.4707 216.997 27.4707Z" fill="white"/>
</svg>
