<svg width="154" height="21" viewBox="0 0 154 21" fill="none" xmlns="http://www.w3.org/2000/svg">
<path d="M11.25 20V20.5H11.7075L11.748 20.0443L11.25 20ZM0.632812 20H0.132812V20.5H0.632812V20ZM0.632812 19.3672L0.518137 18.8805L0.132812 18.9713V19.3672H0.632812ZM2.16211 19.0068L2.27678 19.4935L2.66211 19.4027V19.0068H2.16211ZM0.632812 6.86035H0.132812V7.36035H0.632812V6.86035ZM0.632812 6.13965V5.63965H0.132812V6.13965H0.632812ZM11.1621 6.13965H11.6621V5.63965H11.1621V6.13965ZM11.1621 9.83105V10.3311H11.6621V9.83105H11.1621ZM10.2568 9.83105H9.75684V10.3311H10.2568V9.83105ZM9.74707 7.73926L9.36432 8.06099L9.36665 8.06373L9.74707 7.73926ZM4.58789 7.13281V6.63281H4.08789V7.13281H4.58789ZM4.58789 12.3535H4.08789V12.8535H4.58789V12.3535ZM7.97168 12.0371L7.61314 11.6885L7.60817 11.6938L7.97168 12.0371ZM8.2793 10.6396V10.1396H7.7793V10.6396H8.2793ZM9.17578 10.6396H9.67578V10.1396H9.17578V10.6396ZM9.17578 15.2275V15.7275H9.67578V15.2275H9.17578ZM8.2793 15.2275H7.7793V15.7275H8.2793V15.2275ZM4.58789 13.3379V12.8379H4.08789V13.3379H4.58789ZM4.58789 19.0068H4.08789V19.5068H4.58789V19.0068ZM9.7998 18.3564L9.44151 18.0077L9.44144 18.0078L9.7998 18.3564ZM10.7139 15.9482V15.4482H10.2857L10.2198 15.8713L10.7139 15.9482ZM11.6104 15.9482L12.1084 15.9925L12.1568 15.4482H11.6104V15.9482ZM11.25 19.5H0.632812V20.5H11.25V19.5ZM1.13281 20V19.3672H0.132812V20H1.13281ZM0.747488 19.8539L2.27678 19.4935L2.04743 18.5202L0.518137 18.8805L0.747488 19.8539ZM2.66211 19.0068V8.75H1.66211V19.0068H2.66211ZM2.66211 8.75C2.66211 8.33212 2.63722 7.96875 2.58104 7.66909C2.52714 7.38165 2.43413 7.09331 2.25376 6.88015L1.49038 7.5261C1.50337 7.54145 1.55538 7.62518 1.59816 7.85337C1.63866 8.06933 1.66211 8.36514 1.66211 8.75H2.66211ZM2.25376 6.88015C2.06967 6.66259 1.81391 6.53699 1.55053 6.46414C1.28527 6.39077 0.975006 6.36035 0.632812 6.36035V7.36035C0.923431 7.36035 1.13612 7.38706 1.28394 7.42795C1.43365 7.46936 1.48111 7.51514 1.49038 7.5261L2.25376 6.88015ZM1.13281 6.86035V6.13965H0.132812V6.86035H1.13281ZM0.632812 6.63965H11.1621V5.63965H0.632812V6.63965ZM10.6621 6.13965V9.83105H11.6621V6.13965H10.6621ZM11.1621 9.33105H10.2568V10.3311H11.1621V9.33105ZM10.7568 9.83105C10.7568 8.80941 10.5889 7.95571 10.1275 7.41478L9.36665 8.06373C9.58496 8.31968 9.75684 8.86051 9.75684 9.83105H10.7568ZM10.1298 7.41753C9.65259 6.8498 8.89297 6.63281 8.00684 6.63281V7.63281C8.76132 7.63281 9.16186 7.82012 9.36433 8.06098L10.1298 7.41753ZM8.00684 6.63281H4.58789V7.63281H8.00684V6.63281ZM4.08789 7.13281V12.3535H5.08789V7.13281H4.08789ZM4.58789 12.8535H6.66211V11.8535H4.58789V12.8535ZM6.66211 12.8535C7.02098 12.8535 7.34159 12.8258 7.6123 12.7604C7.87702 12.6965 8.14196 12.585 8.33519 12.3804L7.60817 11.6938C7.60218 11.7001 7.54925 11.7469 7.37745 11.7884C7.21163 11.8285 6.97706 11.8535 6.66211 11.8535V12.8535ZM8.33018 12.3856C8.52625 12.184 8.63065 11.9098 8.6907 11.637C8.75261 11.3558 8.7793 11.0198 8.7793 10.6396H7.7793C7.7793 10.9802 7.75472 11.2375 7.71408 11.4221C7.6716 11.6151 7.62219 11.6793 7.61318 11.6886L8.33018 12.3856ZM8.2793 11.1396H9.17578V10.1396H8.2793V11.1396ZM8.67578 10.6396V15.2275H9.67578V10.6396H8.67578ZM9.17578 14.7275H8.2793V15.7275H9.17578V14.7275ZM8.7793 15.2275C8.7793 14.8284 8.75021 14.4744 8.68403 14.1749C8.61901 13.8806 8.50972 13.5994 8.31998 13.3847L7.57065 14.0469C7.60356 14.0842 7.66126 14.181 7.70757 14.3906C7.75272 14.5949 7.7793 14.8708 7.7793 15.2275H8.7793ZM8.31998 13.3847C7.94631 12.9619 7.32308 12.8379 6.66211 12.8379V13.8379C7.26677 13.8379 7.499 13.9658 7.57065 14.0469L8.31998 13.3847ZM6.66211 12.8379H4.58789V13.8379H6.66211V12.8379ZM4.08789 13.3379V19.0068H5.08789V13.3379H4.08789ZM4.58789 19.5068H7.74316V18.5068H4.58789V19.5068ZM7.74316 19.5068C8.75253 19.5068 9.60036 19.2784 10.1582 18.7051L9.44144 18.0078C9.1555 18.3017 8.63224 18.5068 7.74316 18.5068V19.5068ZM10.1581 18.7052C10.6994 18.1491 11.0228 17.2134 11.2079 16.0252L10.2198 15.8713C10.0416 17.0151 9.75567 17.6849 9.44151 18.0077L10.1581 18.7052ZM10.7139 16.4482H11.6104V15.4482H10.7139V16.4482ZM11.1123 15.9039L10.752 19.9557L11.748 20.0443L12.1084 15.9925L11.1123 15.9039ZM23.8535 16.2207V16.7207H24.3535V16.2207H23.8535ZM23.5635 7.20312L23.1769 7.52032L23.1818 7.5261L23.5635 7.20312ZM22.3242 6.86035H21.8242V7.36035H22.3242V6.86035ZM22.3242 6.13965V5.63965H21.8242V6.13965H22.3242ZM26.7363 6.13965H27.2363V5.63965H26.7363V6.13965ZM26.7363 6.77246L26.851 7.25913L27.2363 7.16834V6.77246H26.7363ZM25.207 7.13281L25.0924 6.64614L24.707 6.73694V7.13281H25.207ZM25.207 20.1758V20.6758H25.707V20.1758H25.207ZM24.0381 20.1758L23.6332 20.4691L23.7829 20.6758H24.0381V20.1758ZM16.4795 9.74316L16.0095 9.9137L16.0334 9.97968L16.0746 10.0365L16.4795 9.74316ZM16.1191 8.75L16.5892 8.57946L16.4696 8.25H16.1191V8.75ZM16.0225 8.75V8.25H15.5225V8.75H16.0225ZM17.5518 19.2793H18.0518V18.7793H17.5518V19.2793ZM17.5518 20V20.5H18.0518V20H17.5518ZM13.1484 20H12.6484V20.5H13.1484V20ZM13.1484 19.3672L13.0338 18.8805L12.6484 18.9713V19.3672H13.1484ZM14.6777 19.0068L14.7924 19.4935L15.1777 19.4027V19.0068H14.6777ZM13.1484 6.86035H12.6484V7.36035H13.1484V6.86035ZM13.1484 6.13965V5.63965H12.6484V6.13965H13.1484ZM16.8398 6.13965L17.2451 5.84685L17.0955 5.63965H16.8398V6.13965ZM23.4053 15.2275L23.8753 15.057L23.8515 14.9913L23.8106 14.9347L23.4053 15.2275ZM23.7656 16.2207L23.2956 16.3912L23.4151 16.7207H23.7656V16.2207ZM24.3535 16.2207V8.75H23.3535V16.2207H24.3535ZM24.3535 8.75C24.3535 8.33212 24.3286 7.96875 24.2724 7.66909C24.2185 7.38165 24.1255 7.09331 23.9452 6.88015L23.1818 7.5261C23.1948 7.54145 23.2468 7.62518 23.2896 7.85337C23.3301 8.06933 23.3535 8.36514 23.3535 8.75H24.3535ZM23.95 6.88597C23.7674 6.66346 23.5095 6.53693 23.2463 6.46414C22.9808 6.39068 22.6689 6.36035 22.3242 6.36035V7.36035C22.6183 7.36035 22.8322 7.38715 22.9797 7.42795C23.1297 7.46942 23.172 7.51427 23.1769 7.52028L23.95 6.88597ZM22.8242 6.86035V6.13965H21.8242V6.86035H22.8242ZM22.3242 6.63965H26.7363V5.63965H22.3242V6.63965ZM26.2363 6.13965V6.77246H27.2363V6.13965H26.2363ZM26.6217 6.28579L25.0924 6.64614L25.3217 7.61948L26.851 7.25913L26.6217 6.28579ZM24.707 7.13281V20.1758H25.707V7.13281H24.707ZM25.207 19.6758H24.0381V20.6758H25.207V19.6758ZM24.443 19.8824L16.8844 9.44981L16.0746 10.0365L23.6332 20.4691L24.443 19.8824ZM16.9495 9.57263L16.5892 8.57946L15.6491 8.92054L16.0095 9.9137L16.9495 9.57263ZM16.1191 8.25H16.0225V9.25H16.1191V8.25ZM15.5225 8.75V17.3896H16.5225V8.75H15.5225ZM15.5225 17.3896C15.5225 17.8075 15.5473 18.1709 15.6035 18.4706C15.6574 18.758 15.7504 19.0463 15.9308 19.2595L16.6942 18.6136C16.6812 18.5982 16.6292 18.5145 16.5864 18.2863C16.5459 18.0703 16.5225 17.7745 16.5225 17.3896H15.5225ZM15.9308 19.2595C16.1149 19.4771 16.3707 19.6027 16.634 19.6755C16.8993 19.7489 17.2096 19.7793 17.5518 19.7793V18.7793C17.2611 18.7793 17.0485 18.7526 16.9006 18.7117C16.7509 18.6703 16.7035 18.6245 16.6942 18.6136L15.9308 19.2595ZM17.0518 19.2793V20H18.0518V19.2793H17.0518ZM17.5518 19.5H13.1484V20.5H17.5518V19.5ZM13.6484 20V19.3672H12.6484V20H13.6484ZM13.2631 19.8539L14.7924 19.4935L14.5631 18.5202L13.0338 18.8805L13.2631 19.8539ZM15.1777 19.0068V8.75H14.1777V19.0068H15.1777ZM15.1777 8.75C15.1777 8.33212 15.1528 7.96875 15.0967 7.66909C15.0428 7.38165 14.9498 7.09331 14.7694 6.88015L14.006 7.5261C14.019 7.54145 14.071 7.62518 14.1138 7.85337C14.1543 8.06933 14.1777 8.36514 14.1777 8.75H15.1777ZM14.7694 6.88015C14.5853 6.66259 14.3295 6.53699 14.0662 6.46414C13.8009 6.39077 13.4906 6.36035 13.1484 6.36035V7.36035C13.4391 7.36035 13.6517 7.38706 13.7996 7.42795C13.9493 7.46936 13.9967 7.51514 14.006 7.5261L14.7694 6.88015ZM13.6484 6.86035V6.13965H12.6484V6.86035H13.6484ZM13.1484 6.63965H16.8398V5.63965H13.1484V6.63965ZM16.4345 6.43245L23 15.5203L23.8106 14.9347L17.2451 5.84685L16.4345 6.43245ZM22.9353 15.3981L23.2956 16.3912L24.2356 16.0502L23.8753 15.057L22.9353 15.3981ZM23.7656 16.7207H23.8535V15.7207H23.7656V16.7207ZM39.1641 15.9482V15.4482H38.7779L38.6803 15.8219L39.1641 15.9482ZM39.9727 15.9482L40.4679 16.0167L40.5465 15.4482H39.9727V15.9482ZM39.5244 19.1914L39.7687 19.6277L39.9857 19.5062L40.0197 19.2599L39.5244 19.1914ZM38.918 19.499L39.1249 19.9543L39.1333 19.9503L38.918 19.499ZM29.9883 18.3477L29.6315 18.698L29.6323 18.6988L29.9883 18.3477ZM30.1377 7.94141L29.7826 7.58936L29.7826 7.58937L30.1377 7.94141ZM37.459 6.0957L37.3505 6.5838L37.3514 6.58399L37.459 6.0957ZM39.0146 6.53516L39.2257 6.08187L39.2145 6.07666L39.203 6.07201L39.0146 6.53516ZM39.5244 6.77246H40.0244V6.4537L39.7354 6.31917L39.5244 6.77246ZM39.5244 10.2793V10.7793H40.0244V10.2793H39.5244ZM38.707 10.2793L38.2109 10.3413L38.2656 10.7793H38.707V10.2793ZM37.5908 7.76562L37.239 8.12089L37.2407 8.12259L37.5908 7.76562ZM32.001 8.38086L31.6112 8.06769L31.6101 8.06906L32.001 8.38086ZM31.9922 17.6973L31.5943 18.0001L31.5954 18.0015L31.9922 17.6973ZM35.2002 19.7793C36.3251 19.7793 37.2922 19.4743 38.0597 18.8293C38.8221 18.1887 39.3401 17.2525 39.6478 16.0746L38.6803 15.8219C38.4079 16.8647 37.9753 17.594 37.4164 18.0637C36.8626 18.5291 36.1377 18.7793 35.2002 18.7793V19.7793ZM39.1641 16.4482H39.9727V15.4482H39.1641V16.4482ZM39.4774 15.8798L39.0291 19.123L40.0197 19.2599L40.4679 16.0167L39.4774 15.8798ZM39.2801 18.7552C39.1474 18.8295 38.9564 18.9267 38.7026 19.0478L39.1333 19.9503C39.3952 19.8253 39.6085 19.7174 39.7687 19.6277L39.2801 18.7552ZM38.7111 19.0438C38.5013 19.1392 38.018 19.2877 37.2147 19.4886L37.4572 20.4587C38.2477 20.2611 38.819 20.0932 39.1249 19.9542L38.7111 19.0438ZM37.2147 19.4886C36.4568 19.678 35.6948 19.7725 34.9277 19.7725V20.7725C35.7779 20.7725 36.6213 20.6677 37.4572 20.4587L37.2147 19.4886ZM34.9277 19.7725C33.0159 19.7725 31.5038 19.1722 30.3443 17.9965L29.6323 18.6988C31.004 20.0895 32.7849 20.7725 34.9277 20.7725V19.7725ZM30.3451 17.9974C29.1866 16.8174 28.5898 15.252 28.5898 13.25H27.5898C27.5898 15.4668 28.2588 17.2998 29.6315 18.698L30.3451 17.9974ZM28.5898 13.25C28.5898 11.2032 29.2314 9.56561 30.4928 8.29345L29.7826 7.58937C28.3135 9.07111 27.5898 10.9726 27.5898 13.25H28.5898ZM30.4927 8.29345C31.7608 7.01454 33.3776 6.36719 35.3848 6.36719V5.36719C33.138 5.36719 31.2568 6.10264 29.7826 7.58936L30.4927 8.29345ZM35.3848 6.36719C36.0453 6.36719 36.7003 6.43931 37.3505 6.5838L37.5674 5.60761C36.8465 5.44741 36.1188 5.36719 35.3848 5.36719V6.36719ZM37.3514 6.58399C38.035 6.73462 38.5205 6.87393 38.8262 6.9983L39.203 6.07201C38.8174 5.91513 38.2657 5.76147 37.5666 5.60742L37.3514 6.58399ZM38.8036 6.98845L39.3134 7.22575L39.7354 6.31917L39.2257 6.08187L38.8036 6.98845ZM39.0244 6.77246V10.2793H40.0244V6.77246H39.0244ZM39.5244 9.7793H38.707V10.7793H39.5244V9.7793ZM39.2032 10.2173C39.0583 9.05823 38.6507 8.10476 37.9409 7.40866L37.2407 8.12259C37.7497 8.6218 38.0862 9.34412 38.2109 10.3413L39.2032 10.2173ZM37.9427 7.41037C37.2257 6.70027 36.2952 6.36035 35.2002 6.36035V7.36035C36.0739 7.36035 36.7372 7.62395 37.239 8.12088L37.9427 7.41037ZM35.2002 6.36035C33.7328 6.36035 32.5221 6.934 31.6112 8.06769L32.3908 8.69403C33.1088 7.80037 34.0309 7.36035 35.2002 7.36035V6.36035ZM31.6101 8.06906C30.7018 9.20776 30.2881 10.8418 30.2881 12.8896H31.2881C31.2881 10.9531 31.683 9.58131 32.3919 8.69266L31.6101 8.06906ZM30.2881 12.8896C30.2881 15.0866 30.6954 16.819 31.5943 18.0001L32.3901 17.3944C31.6835 16.4662 31.2881 14.9934 31.2881 12.8896H30.2881ZM31.5954 18.0015C32.4987 19.1797 33.7148 19.7793 35.2002 19.7793V18.7793C34.0255 18.7793 33.1029 18.3242 32.389 17.393L31.5954 18.0015ZM45.3691 7.13281L45.2545 6.64614L44.8691 6.73694V7.13281H45.3691ZM46.8984 19.2793H47.3984V18.7793H46.8984V19.2793ZM46.8984 20V20.5H47.3984V20H46.8984ZM41.4141 20H40.9141V20.5H41.4141V20ZM41.4141 19.3672L41.2994 18.8805L40.9141 18.9713V19.3672H41.4141ZM42.9434 19.0068L43.058 19.4935L43.4434 19.4027V19.0068H42.9434ZM41.4141 6.86035H40.9141V7.36035H41.4141V6.86035ZM41.4141 6.13965V5.63965H40.9141V6.13965H41.4141ZM46.8984 6.13965H47.3984V5.63965H46.8984V6.13965ZM46.8984 6.77246L47.0131 7.25913L47.3984 7.16834V6.77246H46.8984ZM44.8691 7.13281V17.3896H45.8691V7.13281H44.8691ZM44.8691 17.3896C44.8691 17.8075 44.894 18.1709 44.9502 18.4706C45.0041 18.758 45.0971 19.0463 45.2775 19.2595L46.0409 18.6136C46.0279 18.5982 45.9759 18.5145 45.9331 18.2863C45.8926 18.0703 45.8691 17.7745 45.8691 17.3896H44.8691ZM45.2775 19.2595C45.4616 19.4771 45.7173 19.6027 45.9807 19.6755C46.246 19.7489 46.5562 19.7793 46.8984 19.7793V18.7793C46.6078 18.7793 46.3951 18.7526 46.2473 18.7117C46.0976 18.6703 46.0501 18.6245 46.0409 18.6136L45.2775 19.2595ZM46.3984 19.2793V20H47.3984V19.2793H46.3984ZM46.8984 19.5H41.4141V20.5H46.8984V19.5ZM41.9141 20V19.3672H40.9141V20H41.9141ZM41.5287 19.8539L43.058 19.4935L42.8287 18.5202L41.2994 18.8805L41.5287 19.8539ZM43.4434 19.0068V8.75H42.4434V19.0068H43.4434ZM43.4434 8.75C43.4434 8.33756 43.4184 7.97778 43.3622 7.67956C43.308 7.39217 43.2151 7.10719 43.039 6.89372L42.2676 7.53011C42.2849 7.55101 42.337 7.63957 42.3795 7.86487C42.42 8.07935 42.4434 8.37143 42.4434 8.75H43.4434ZM43.039 6.89372C42.856 6.67195 42.6003 6.5425 42.3349 6.46722C42.0684 6.39161 41.757 6.36035 41.4141 6.36035V7.36035C41.704 7.36035 41.9155 7.38768 42.062 7.42926C42.2098 7.47117 42.2572 7.5175 42.2676 7.53011L43.039 6.89372ZM41.9141 6.86035V6.13965H40.9141V6.86035H41.9141ZM41.4141 6.63965H46.8984V5.63965H41.4141V6.63965ZM46.3984 6.13965V6.77246H47.3984V6.13965H46.3984ZM46.7838 6.28579L45.2545 6.64614L45.4838 7.61948L47.0131 7.25913L46.7838 6.28579ZM59.4141 15.9482V15.4482H59.0279L58.9303 15.8219L59.4141 15.9482ZM60.2227 15.9482L60.7179 16.0167L60.7965 15.4482H60.2227V15.9482ZM59.7744 19.1914L60.0187 19.6277L60.2357 19.5062L60.2697 19.2599L59.7744 19.1914ZM59.168 19.499L59.3749 19.9543L59.3833 19.9503L59.168 19.499ZM50.2383 18.3477L49.8815 18.698L49.8823 18.6988L50.2383 18.3477ZM50.3877 7.94141L50.0326 7.58936L50.0326 7.58937L50.3877 7.94141ZM57.709 6.0957L57.6005 6.5838L57.6014 6.58399L57.709 6.0957ZM59.2646 6.53516L59.4757 6.08187L59.4645 6.07666L59.453 6.07201L59.2646 6.53516ZM59.7744 6.77246H60.2744V6.4537L59.9854 6.31917L59.7744 6.77246ZM59.7744 10.2793V10.7793H60.2744V10.2793H59.7744ZM58.957 10.2793L58.4609 10.3413L58.5156 10.7793H58.957V10.2793ZM57.8408 7.76562L57.489 8.12089L57.4907 8.12259L57.8408 7.76562ZM52.251 8.38086L51.8612 8.06769L51.8601 8.06906L52.251 8.38086ZM52.2422 17.6973L51.8443 18.0001L51.8454 18.0015L52.2422 17.6973ZM55.4502 19.7793C56.5751 19.7793 57.5422 19.4743 58.3097 18.8293C59.0721 18.1887 59.5901 17.2525 59.8978 16.0746L58.9303 15.8219C58.6579 16.8647 58.2253 17.594 57.6664 18.0637C57.1126 18.5291 56.3877 18.7793 55.4502 18.7793V19.7793ZM59.4141 16.4482H60.2227V15.4482H59.4141V16.4482ZM59.7274 15.8798L59.2791 19.123L60.2697 19.2599L60.7179 16.0167L59.7274 15.8798ZM59.5301 18.7552C59.3974 18.8295 59.2064 18.9267 58.9526 19.0478L59.3833 19.9503C59.6452 19.8253 59.8585 19.7174 60.0187 19.6277L59.5301 18.7552ZM58.9611 19.0438C58.7513 19.1392 58.268 19.2877 57.4647 19.4886L57.7072 20.4587C58.4977 20.2611 59.069 20.0932 59.3749 19.9542L58.9611 19.0438ZM57.4647 19.4886C56.7068 19.678 55.9448 19.7725 55.1777 19.7725V20.7725C56.0279 20.7725 56.8713 20.6677 57.7072 20.4587L57.4647 19.4886ZM55.1777 19.7725C53.2659 19.7725 51.7538 19.1722 50.5943 17.9965L49.8823 18.6988C51.254 20.0895 53.0349 20.7725 55.1777 20.7725V19.7725ZM50.5951 17.9974C49.4366 16.8174 48.8398 15.252 48.8398 13.25H47.8398C47.8398 15.4668 48.5088 17.2998 49.8815 18.698L50.5951 17.9974ZM48.8398 13.25C48.8398 11.2032 49.4814 9.56561 50.7428 8.29345L50.0326 7.58937C48.5635 9.07111 47.8398 10.9726 47.8398 13.25H48.8398ZM50.7427 8.29345C52.0108 7.01454 53.6276 6.36719 55.6348 6.36719V5.36719C53.388 5.36719 51.5068 6.10264 50.0326 7.58936L50.7427 8.29345ZM55.6348 6.36719C56.2953 6.36719 56.9503 6.43931 57.6005 6.5838L57.8174 5.60761C57.0965 5.44741 56.3688 5.36719 55.6348 5.36719V6.36719ZM57.6014 6.58399C58.285 6.73462 58.7705 6.87393 59.0762 6.9983L59.453 6.07201C59.0674 5.91513 58.5157 5.76147 57.8166 5.60742L57.6014 6.58399ZM59.0536 6.98845L59.5634 7.22575L59.9854 6.31917L59.4757 6.08187L59.0536 6.98845ZM59.2744 6.77246V10.2793H60.2744V6.77246H59.2744ZM59.7744 9.7793H58.957V10.7793H59.7744V9.7793ZM59.4532 10.2173C59.3083 9.05823 58.9007 8.10476 58.1909 7.40866L57.4907 8.12259C57.9997 8.6218 58.3362 9.34412 58.4609 10.3413L59.4532 10.2173ZM58.1927 7.41037C57.4757 6.70027 56.5452 6.36035 55.4502 6.36035V7.36035C56.3239 7.36035 56.9872 7.62395 57.489 8.12088L58.1927 7.41037ZM55.4502 6.36035C53.9828 6.36035 52.7721 6.934 51.8612 8.06769L52.6408 8.69403C53.3588 7.80037 54.2809 7.36035 55.4502 7.36035V6.36035ZM51.8601 8.06906C50.9518 9.20776 50.5381 10.8418 50.5381 12.8896H51.5381C51.5381 10.9531 51.933 9.58131 52.6419 8.69266L51.8601 8.06906ZM50.5381 12.8896C50.5381 15.0866 50.9454 16.819 51.8443 18.0001L52.6401 17.3944C51.9335 16.4662 51.5381 14.9934 51.5381 12.8896H50.5381ZM51.8454 18.0015C52.7487 19.1797 53.9648 19.7793 55.4502 19.7793V18.7793C54.2755 18.7793 53.3529 18.3242 52.639 17.393L51.8454 18.0015ZM63.1934 19.0068L63.308 19.4935L63.6934 19.4027V19.0068H63.1934ZM61.6641 6.86035H61.1641V7.36035H61.6641V6.86035ZM61.6641 6.13965V5.63965H61.1641V6.13965H61.6641ZM67.333 6.13965H67.833V5.63965H67.333V6.13965ZM67.333 6.77246L67.4359 7.26176L67.833 7.17827V6.77246H67.333ZM65.6191 7.13281L65.5163 6.64351L65.1191 6.72701V7.13281H65.6191ZM65.6191 19.0068H65.1191V19.5068H65.6191V19.0068ZM70.998 18.3564L70.6421 18.0053L70.6421 18.0053L70.998 18.3564ZM71.9209 15.9482V15.4482H71.4928L71.4269 15.8713L71.9209 15.9482ZM72.8174 15.9482L73.3144 16.0032L73.3757 15.4482H72.8174V15.9482ZM72.3691 20V20.5H72.8169L72.8661 20.055L72.3691 20ZM61.6641 20H61.1641V20.5H61.6641V20ZM61.6641 19.3672L61.5494 18.8805L61.1641 18.9713V19.3672H61.6641ZM63.6934 19.0068V8.75H62.6934V19.0068H63.6934ZM63.6934 8.75C63.6934 8.33212 63.6685 7.96875 63.6123 7.66909C63.5584 7.38165 63.4654 7.09331 63.285 6.88015L62.5216 7.5261C62.5346 7.54145 62.5866 7.62518 62.6294 7.85337C62.6699 8.06933 62.6934 8.36514 62.6934 8.75H63.6934ZM63.285 6.88015C63.1009 6.66259 62.8452 6.53699 62.5818 6.46414C62.3165 6.39077 62.0063 6.36035 61.6641 6.36035V7.36035C61.9547 7.36035 62.1674 7.38706 62.3152 7.42795C62.4649 7.46936 62.5124 7.51514 62.5216 7.5261L63.285 6.88015ZM62.1641 6.86035V6.13965H61.1641V6.86035H62.1641ZM61.6641 6.63965H67.333V5.63965H61.6641V6.63965ZM66.833 6.13965V6.77246H67.833V6.13965H66.833ZM67.2301 6.28316L65.5163 6.64351L65.722 7.62211L67.4359 7.26176L67.2301 6.28316ZM65.1191 7.13281V19.0068H66.1191V7.13281H65.1191ZM65.6191 19.5068H68.8623V18.5068H65.6191V19.5068ZM68.8623 19.5068C69.911 19.5068 70.7875 19.2818 71.354 18.7076L70.6421 18.0053C70.3531 18.2983 69.8058 18.5068 68.8623 18.5068V19.5068ZM71.354 18.7076C71.9029 18.1512 72.2297 17.2144 72.4149 16.0252L71.4269 15.8713C71.2488 17.0141 70.9603 17.6828 70.6421 18.0053L71.354 18.7076ZM71.9209 16.4482H72.8174V15.4482H71.9209V16.4482ZM72.3204 15.8933L71.8722 19.945L72.8661 20.055L73.3144 16.0032L72.3204 15.8933ZM72.3691 19.5H61.6641V20.5H72.3691V19.5ZM62.1641 20V19.3672H61.1641V20H62.1641ZM61.7787 19.8539L63.308 19.4935L63.0787 18.5202L61.5494 18.8805L61.7787 19.8539ZM83.373 8.46875L82.9644 8.75683L82.9651 8.75788L83.373 8.46875ZM77.5371 17.6797L77.1284 17.9678L77.1292 17.9688L77.5371 17.6797ZM75.5068 18.3389L75.1403 18.6789L75.141 18.6797L75.5068 18.3389ZM75.7266 7.9502L75.3685 7.6012L75.3685 7.60122L75.7266 7.9502ZM85.4033 7.80957L85.0367 8.14961L85.0375 8.15043L85.4033 7.80957ZM85.1748 18.1982L84.8167 17.8493L84.8167 17.8493L85.1748 18.1982ZM80.3672 19.7793C81.7373 19.7793 82.87 19.1831 83.736 18.0438L82.9398 17.4387C82.2471 18.3501 81.3995 18.7793 80.3672 18.7793V19.7793ZM83.736 18.0438C84.6082 16.8961 85.0068 15.2734 85.0068 13.25H84.0068C84.0068 15.1641 83.6262 16.5355 82.9398 17.4387L83.736 18.0438ZM85.0068 13.25C85.0068 11.0843 84.6236 9.36847 83.781 8.17962L82.9651 8.75788C83.6342 9.70184 84.0068 11.1735 84.0068 13.25H85.0068ZM83.7817 8.18067C82.9494 6.99997 81.8642 6.36035 80.543 6.36035V7.36035C81.4835 7.36035 82.285 7.793 82.9644 8.75683L83.7817 8.18067ZM80.543 6.36035C79.1729 6.36035 78.0401 6.95652 77.1742 8.0959L77.9703 8.70098C78.663 7.78958 79.5107 7.36035 80.543 7.36035V6.36035ZM77.1742 8.0959C76.302 9.24353 75.9033 10.8662 75.9033 12.8896H76.9033C76.9033 10.9756 77.284 9.60413 77.9703 8.70098L77.1742 8.0959ZM75.9033 12.8896C75.9033 15.0556 76.2867 16.7736 77.1284 17.9678L77.9458 17.3916C77.2758 16.4412 76.9033 14.9658 76.9033 12.8896H75.9033ZM77.1292 17.9688C77.962 19.1438 79.0472 19.7793 80.3672 19.7793V18.7793C79.4255 18.7793 78.6239 18.3484 77.945 17.3906L77.1292 17.9688ZM80.0947 19.7725C78.3676 19.7725 76.9736 19.1795 75.8726 17.998L75.141 18.6797C76.4424 20.0763 78.107 20.7725 80.0947 20.7725V19.7725ZM75.8734 17.9988C74.7737 16.8133 74.2051 15.2467 74.2051 13.25H73.2051C73.2051 15.4487 73.8376 17.2746 75.1403 18.6789L75.8734 17.9988ZM74.2051 13.25C74.2051 11.2138 74.8387 9.57764 76.0846 8.29917L75.3685 7.60122C73.9191 9.08837 73.2051 10.9854 73.2051 13.25H74.2051ZM76.0846 8.29919C77.3387 7.01249 78.9034 6.36719 80.8154 6.36719V5.36719C78.6493 5.36719 76.8214 6.11056 75.3685 7.6012L76.0846 8.29919ZM80.8154 6.36719C82.5418 6.36719 83.9356 6.96246 85.0367 8.1496L85.7699 7.46954C84.4687 6.06683 82.8039 5.36719 80.8154 5.36719V6.36719ZM85.0375 8.15043C86.1365 9.32978 86.7051 10.8929 86.7051 12.8896H87.7051C87.7051 10.6911 87.0725 8.86748 85.7691 7.46871L85.0375 8.15043ZM86.7051 12.8896C86.7051 14.9252 86.069 16.5645 84.8167 17.8493L85.5329 18.5472C86.9877 17.0546 87.7051 15.1549 87.7051 12.8896H86.7051ZM84.8167 17.8493C83.5689 19.1296 82.0074 19.7725 80.0947 19.7725V20.7725C82.2602 20.7725 84.0854 20.0325 85.5329 18.5472L84.8167 17.8493ZM88.6465 6.13965V5.63965H88.1465V6.13965H88.6465ZM92.6016 14.3311V13.8311H92.1016V14.3311H92.6016ZM94.4912 19.2793H94.9912V18.7793H94.4912V19.2793ZM94.4912 20V20.5H94.9912V20H94.4912ZM88.6465 20H88.1465V20.5H88.6465V20ZM88.6465 19.3672L88.5318 18.8805L88.1465 18.9713V19.3672H88.6465ZM90.1758 19.0068L90.2905 19.4935L90.6758 19.4027V19.0068H90.1758ZM88.6465 6.86035H88.1465V7.36035H88.6465V6.86035ZM92.6016 7.13281V6.63281H92.1016V7.13281H92.6016ZM92.6016 13.3379H92.1016V13.8379H92.6016V13.3379ZM96.0293 12.5557L95.6816 12.1963L95.6797 12.1982L96.0293 12.5557ZM88.6465 6.63965H94.1309V5.63965H88.6465V6.63965ZM94.1309 6.63965C95.8492 6.63965 97.064 6.99298 97.8539 7.6209L98.4762 6.83808C97.438 6.01288 95.9633 5.63965 94.1309 5.63965V6.63965ZM97.8539 7.6209C98.6461 8.25056 99.0361 9.06318 99.0361 10.1035H100.036C100.036 8.76494 99.5121 7.66155 98.4762 6.83808L97.8539 7.6209ZM99.0361 10.1035C99.0361 11.2215 98.6312 12.0983 97.8179 12.7786L98.4595 13.5456C99.5095 12.6673 100.036 11.505 100.036 10.1035H99.0361ZM97.8179 12.7786C97.0081 13.4559 95.8036 13.8311 94.1309 13.8311V14.8311C95.9386 14.8311 97.4059 14.4269 98.4595 13.5456L97.8179 12.7786ZM94.1309 13.8311H92.6016V14.8311H94.1309V13.8311ZM92.1016 14.3311V17.3896H93.1016V14.3311H92.1016ZM92.1016 17.3896C92.1016 17.7964 92.1338 18.1579 92.208 18.4634C92.2811 18.7646 92.4046 19.0511 92.6171 19.2637L93.3243 18.5566C93.2908 18.5231 93.2296 18.4331 93.1797 18.2275C93.1309 18.0262 93.1016 17.7505 93.1016 17.3896H92.1016ZM92.6171 19.2637C92.8297 19.4763 93.1162 19.5998 93.4174 19.6729C93.723 19.7471 94.0845 19.7793 94.4912 19.7793V18.7793C94.1304 18.7793 93.8547 18.75 93.6534 18.7011C93.4478 18.6512 93.3578 18.5901 93.3243 18.5566L92.6171 19.2637ZM93.9912 19.2793V20H94.9912V19.2793H93.9912ZM94.4912 19.5H88.6465V20.5H94.4912V19.5ZM89.1465 20V19.3672H88.1465V20H89.1465ZM88.7612 19.8539L90.2905 19.4935L90.0611 18.5202L88.5318 18.8805L88.7612 19.8539ZM90.6758 19.0068V8.75H89.6758V19.0068H90.6758ZM90.6758 8.75C90.6758 8.33212 90.6509 7.96875 90.5947 7.66909C90.5408 7.38165 90.4478 7.09331 90.2674 6.88015L89.504 7.5261C89.517 7.54145 89.569 7.62518 89.6118 7.85337C89.6523 8.06933 89.6758 8.36514 89.6758 8.75H90.6758ZM90.2674 6.88015C90.0833 6.66259 89.8276 6.53699 89.5642 6.46414C89.2989 6.39077 88.9887 6.36035 88.6465 6.36035V7.36035C88.9371 7.36035 89.1498 7.38706 89.2976 7.42795C89.4473 7.46936 89.4948 7.51514 89.504 7.5261L90.2674 6.88015ZM89.1465 6.86035V6.13965H88.1465V6.86035H89.1465ZM92.1016 7.13281V13.3379H93.1016V7.13281H92.1016ZM92.6016 13.8379H93.6826V12.8379H92.6016V13.8379ZM93.6826 13.8379C94.7937 13.8379 95.7213 13.5562 96.3789 12.9131L95.6797 12.1982C95.2709 12.5981 94.634 12.8379 93.6826 12.8379V13.8379ZM96.3769 12.915C97.0422 12.2714 97.3379 11.3646 97.3379 10.2793H96.3379C96.3379 11.1861 96.0945 11.7969 95.6817 12.1963L96.3769 12.915ZM97.3379 10.2793C97.3379 9.15304 97.0552 8.21659 96.4021 7.56539C95.7494 6.91444 94.8111 6.63281 93.6826 6.63281V7.63281C94.6577 7.63281 95.297 7.8756 95.696 8.27348C96.0947 8.6711 96.3379 9.30789 96.3379 10.2793H97.3379ZM93.6826 6.63281H92.6016V7.63281H93.6826V6.63281ZM111.586 20V20.5H112.043L112.084 20.0443L111.586 20ZM100.969 20H100.469V20.5H100.969V20ZM100.969 19.3672L100.854 18.8805L100.469 18.9713V19.3672H100.969ZM102.498 19.0068L102.613 19.4935L102.998 19.4027V19.0068H102.498ZM100.969 6.86035H100.469V7.36035H100.969V6.86035ZM100.969 6.13965V5.63965H100.469V6.13965H100.969ZM111.498 6.13965H111.998V5.63965H111.498V6.13965ZM111.498 9.83105V10.3311H111.998V9.83105H111.498ZM110.593 9.83105H110.093V10.3311H110.593V9.83105ZM110.083 7.73926L109.7 8.06099L109.703 8.06373L110.083 7.73926ZM104.924 7.13281V6.63281H104.424V7.13281H104.924ZM104.924 12.3535H104.424V12.8535H104.924V12.3535ZM108.308 12.0371L107.949 11.6885L107.944 11.6938L108.308 12.0371ZM108.615 10.6396V10.1396H108.115V10.6396H108.615ZM109.512 10.6396H110.012V10.1396H109.512V10.6396ZM109.512 15.2275V15.7275H110.012V15.2275H109.512ZM108.615 15.2275H108.115V15.7275H108.615V15.2275ZM104.924 13.3379V12.8379H104.424V13.3379H104.924ZM104.924 19.0068H104.424V19.5068H104.924V19.0068ZM110.136 18.3564L109.777 18.0077L109.777 18.0078L110.136 18.3564ZM111.05 15.9482V15.4482H110.622L110.556 15.8713L111.05 15.9482ZM111.946 15.9482L112.444 15.9925L112.493 15.4482H111.946V15.9482ZM106.91 4.69824V5.19824H107.085L107.221 5.08961L106.91 4.69824ZM106.365 4.69824H105.865V5.19824H106.365V4.69824ZM106.365 3.97754L105.954 3.69351L105.865 3.82174V3.97754H106.365ZM108.167 1.36719V0.867188H107.905L107.755 1.08316L108.167 1.36719ZM109.784 1.36719H110.284V0.867188H109.784V1.36719ZM109.784 2.41309L110.095 2.80445L110.284 2.65432V2.41309H109.784ZM111.586 19.5H100.969V20.5H111.586V19.5ZM101.469 20V19.3672H100.469V20H101.469ZM101.083 19.8539L102.613 19.4935L102.383 18.5202L100.854 18.8805L101.083 19.8539ZM102.998 19.0068V8.75H101.998V19.0068H102.998ZM102.998 8.75C102.998 8.33212 102.973 7.96875 102.917 7.66909C102.863 7.38165 102.77 7.09331 102.59 6.88015L101.826 7.5261C101.839 7.54145 101.891 7.62518 101.934 7.85337C101.975 8.06933 101.998 8.36514 101.998 8.75H102.998ZM102.59 6.88015C102.406 6.66259 102.15 6.53699 101.886 6.46414C101.621 6.39077 101.311 6.36035 100.969 6.36035V7.36035C101.259 7.36035 101.472 7.38706 101.62 7.42795C101.77 7.46936 101.817 7.51514 101.826 7.5261L102.59 6.88015ZM101.469 6.86035V6.13965H100.469V6.86035H101.469ZM100.969 6.63965H111.498V5.63965H100.969V6.63965ZM110.998 6.13965V9.83105H111.998V6.13965H110.998ZM111.498 9.33105H110.593V10.3311H111.498V9.33105ZM111.093 9.83105C111.093 8.80941 110.925 7.95571 110.463 7.41478L109.703 8.06373C109.921 8.31968 110.093 8.86051 110.093 9.83105H111.093ZM110.466 7.41753C109.989 6.8498 109.229 6.63281 108.343 6.63281V7.63281C109.097 7.63281 109.498 7.82012 109.7 8.06098L110.466 7.41753ZM108.343 6.63281H104.924V7.63281H108.343V6.63281ZM104.424 7.13281V12.3535H105.424V7.13281H104.424ZM104.924 12.8535H106.998V11.8535H104.924V12.8535ZM106.998 12.8535C107.357 12.8535 107.678 12.8258 107.948 12.7604C108.213 12.6965 108.478 12.585 108.671 12.3804L107.944 11.6938C107.938 11.7001 107.885 11.7469 107.713 11.7884C107.548 11.8285 107.313 11.8535 106.998 11.8535V12.8535ZM108.666 12.3856C108.862 12.184 108.967 11.9098 109.027 11.637C109.089 11.3558 109.115 11.0198 109.115 10.6396H108.115C108.115 10.9802 108.091 11.2375 108.05 11.4221C108.008 11.6151 107.958 11.6793 107.949 11.6886L108.666 12.3856ZM108.615 11.1396H109.512V10.1396H108.615V11.1396ZM109.012 10.6396V15.2275H110.012V10.6396H109.012ZM109.512 14.7275H108.615V15.7275H109.512V14.7275ZM109.115 15.2275C109.115 14.8284 109.086 14.4744 109.02 14.1749C108.955 13.8806 108.846 13.5994 108.656 13.3847L107.907 14.0469C107.94 14.0842 107.997 14.181 108.044 14.3906C108.089 14.5949 108.115 14.8708 108.115 15.2275H109.115ZM108.656 13.3847C108.282 12.9619 107.659 12.8379 106.998 12.8379V13.8379C107.603 13.8379 107.835 13.9658 107.907 14.0469L108.656 13.3847ZM106.998 12.8379H104.924V13.8379H106.998V12.8379ZM104.424 13.3379V19.0068H105.424V13.3379H104.424ZM104.924 19.5068H108.079V18.5068H104.924V19.5068ZM108.079 19.5068C109.088 19.5068 109.936 19.2784 110.494 18.7051L109.777 18.0078C109.491 18.3017 108.968 18.5068 108.079 18.5068V19.5068ZM110.494 18.7052C111.035 18.1491 111.359 17.2134 111.544 16.0252L110.556 15.8713C110.378 17.0151 110.092 17.6849 109.777 18.0077L110.494 18.7052ZM111.05 16.4482H111.946V15.4482H111.05V16.4482ZM111.448 15.9039L111.088 19.9557L112.084 20.0443L112.444 15.9925L111.448 15.9039ZM106.91 4.19824H106.365V5.19824H106.91V4.19824ZM106.865 4.69824V3.97754H105.865V4.69824H106.865ZM106.777 4.26157L108.578 1.65122L107.755 1.08316L105.954 3.69351L106.777 4.26157ZM108.167 1.86719H109.784V0.867188H108.167V1.86719ZM109.284 1.36719V2.41309H110.284V1.36719H109.284ZM109.473 2.02172L106.599 4.30688L107.221 5.08961L110.095 2.80445L109.473 2.02172ZM113.484 20H112.984V20.5H113.484V20ZM113.484 19.3672L113.37 18.8805L112.984 18.9713V19.3672H113.484ZM115.014 19.0068L115.128 19.4935L115.514 19.4027V19.0068H115.014ZM113.484 6.86035H112.984V7.36035H113.484V6.86035ZM113.484 6.13965V5.63965H112.984V6.13965H113.484ZM124.585 7.95898L124.234 8.31507L124.235 8.3159L124.585 7.95898ZM124.444 18.04L124.795 18.3967L124.796 18.3959L124.444 18.04ZM117.439 7.13281V6.63281H116.939V7.13281H117.439ZM117.439 19.0068H116.939V19.5068H117.439V19.0068ZM122.546 17.5742L122.93 17.8945L122.931 17.8934L122.546 17.5742ZM122.572 8.5918L122.182 8.90443L122.183 8.90558L122.572 8.5918ZM119.153 19.5H113.484V20.5H119.153V19.5ZM113.984 20V19.3672H112.984V20H113.984ZM113.599 19.8539L115.128 19.4935L114.899 18.5202L113.37 18.8805L113.599 19.8539ZM115.514 19.0068V8.75H114.514V19.0068H115.514ZM115.514 8.75C115.514 8.33212 115.489 7.96875 115.433 7.66909C115.379 7.38165 115.286 7.09331 115.105 6.88015L114.342 7.5261C114.355 7.54145 114.407 7.62518 114.45 7.85337C114.49 8.06933 114.514 8.36514 114.514 8.75H115.514ZM115.105 6.88015C114.921 6.66259 114.665 6.53699 114.402 6.46414C114.137 6.39077 113.827 6.36035 113.484 6.36035V7.36035C113.775 7.36035 113.988 7.38706 114.136 7.42795C114.285 7.46936 114.333 7.51514 114.342 7.5261L115.105 6.88015ZM113.984 6.86035V6.13965H112.984V6.86035H113.984ZM113.484 6.63965H119.514V5.63965H113.484V6.63965ZM119.514 6.63965C121.567 6.63965 123.119 7.21575 124.234 8.31507L124.936 7.6029C123.59 6.27644 121.762 5.63965 119.514 5.63965V6.63965ZM124.235 8.3159C125.357 9.41652 125.939 10.9212 125.939 12.8896H126.939C126.939 10.7097 126.286 8.92723 124.935 7.60206L124.235 8.3159ZM125.939 12.8896C125.939 14.8967 125.315 16.4786 124.093 17.6841L124.796 18.3959C126.234 16.9765 126.939 15.1248 126.939 12.8896H125.939ZM124.094 17.6834C122.874 18.8819 121.245 19.5 119.153 19.5V20.5C121.457 20.5 123.355 19.8114 124.795 18.3967L124.094 17.6834ZM119.153 6.63281H117.439V7.63281H119.153V6.63281ZM116.939 7.13281V19.0068H117.939V7.13281H116.939ZM117.439 19.5068H119.241V18.5068H117.439V19.5068ZM119.241 19.5068C120.774 19.5068 122.025 18.9792 122.93 17.8945L122.162 17.2539C121.473 18.0794 120.521 18.5068 119.241 18.5068V19.5068ZM122.931 17.8934C123.833 16.8055 124.241 15.2285 124.241 13.25H123.241C123.241 15.1152 122.853 16.4211 122.161 17.2551L122.931 17.8934ZM124.241 13.25C124.241 11.0718 123.848 9.37821 122.962 8.27801L122.183 8.90558C122.855 9.73898 123.241 11.1509 123.241 13.25H124.241ZM122.962 8.27916C122.069 7.16368 120.771 6.63281 119.153 6.63281V7.63281C120.536 7.63281 121.517 8.0746 122.182 8.90443L122.962 8.27916ZM131.836 7.13281L131.721 6.64614L131.336 6.73694V7.13281H131.836ZM133.365 19.2793H133.865V18.7793H133.365V19.2793ZM133.365 20V20.5H133.865V20H133.365ZM127.881 20H127.381V20.5H127.881V20ZM127.881 19.3672L127.766 18.8805L127.381 18.9713V19.3672H127.881ZM129.41 19.0068L129.525 19.4935L129.91 19.4027V19.0068H129.41ZM127.881 6.86035H127.381V7.36035H127.881V6.86035ZM127.881 6.13965V5.63965H127.381V6.13965H127.881ZM133.365 6.13965H133.865V5.63965H133.365V6.13965ZM133.365 6.77246L133.48 7.25913L133.865 7.16834V6.77246H133.365ZM131.336 7.13281V17.3896H132.336V7.13281H131.336ZM131.336 17.3896C131.336 17.8075 131.361 18.1709 131.417 18.4706C131.471 18.758 131.564 19.0463 131.744 19.2595L132.508 18.6136C132.495 18.5982 132.443 18.5145 132.4 18.2863C132.359 18.0703 132.336 17.7745 132.336 17.3896H131.336ZM131.744 19.2595C131.928 19.4771 132.184 19.6027 132.448 19.6755C132.713 19.7489 133.023 19.7793 133.365 19.7793V18.7793C133.075 18.7793 132.862 18.7526 132.714 18.7117C132.564 18.6703 132.517 18.6245 132.508 18.6136L131.744 19.2595ZM132.865 19.2793V20H133.865V19.2793H132.865ZM133.365 19.5H127.881V20.5H133.365V19.5ZM128.381 20V19.3672H127.381V20H128.381ZM127.996 19.8539L129.525 19.4935L129.295 18.5202L127.766 18.8805L127.996 19.8539ZM129.91 19.0068V8.75H128.91V19.0068H129.91ZM129.91 8.75C129.91 8.33756 129.885 7.97778 129.829 7.67956C129.775 7.39217 129.682 7.10719 129.506 6.89372L128.734 7.53011C128.752 7.55101 128.804 7.63957 128.846 7.86487C128.887 8.07935 128.91 8.37143 128.91 8.75H129.91ZM129.506 6.89372C129.323 6.67195 129.067 6.5425 128.802 6.46722C128.535 6.39161 128.224 6.36035 127.881 6.36035V7.36035C128.171 7.36035 128.382 7.38768 128.529 7.42926C128.677 7.47117 128.724 7.5175 128.734 7.53011L129.506 6.89372ZM128.381 6.86035V6.13965H127.381V6.86035H128.381ZM127.881 6.63965H133.365V5.63965H127.881V6.63965ZM132.865 6.13965V6.77246H133.865V6.13965H132.865ZM133.251 6.28579L131.721 6.64614L131.951 7.61948L133.48 7.25913L133.251 6.28579ZM144.167 19.0068L144.276 19.4949L144.833 19.3706L144.636 18.8343L144.167 19.0068ZM142.91 15.5879L143.379 15.4154L143.259 15.0879H142.91V15.5879ZM138.138 15.5879V15.0879H137.801L137.675 15.3994L138.138 15.5879ZM137.329 17.5742L136.866 17.3857L136.864 17.3917L137.329 17.5742ZM137.145 18.4707L136.645 18.4609V18.4707H137.145ZM137.408 19.0947L137.112 19.498L137.121 19.5043L137.408 19.0947ZM138.41 19.2793H138.91V18.7793H138.41V19.2793ZM138.41 20V20.5H138.91V20H138.41ZM133.91 20H133.41V20.5H133.91V20ZM133.91 19.3672L133.795 18.8805L133.41 18.9713V19.3672H133.91ZM135.439 19.0068L135.554 19.4935L135.809 19.4335L135.905 19.1899L135.439 19.0068ZM140.572 5.96387V5.46387H140.232L140.107 5.78077L140.572 5.96387ZM141.829 5.96387L142.296 5.78435L142.172 5.46387H141.829V5.96387ZM146.329 17.6621L146.796 17.4835L146.796 17.4826L146.329 17.6621ZM148.395 19.2793H148.895V18.7793H148.395V19.2793ZM148.395 20V20.5H148.895V20H148.395ZM142.55 20H142.05V20.5H142.55V20ZM142.55 19.3672L142.441 18.8792L142.05 18.9663V19.3672H142.55ZM140.476 9.4707V8.9707H140.132L140.009 9.29095L140.476 9.4707ZM138.498 14.6035L138.031 14.4238L137.77 15.1035H138.498V14.6035ZM142.462 14.6035V15.1035H143.179L142.931 14.4308L142.462 14.6035ZM140.572 9.4707L141.041 9.29796L140.921 8.9707H140.572V9.4707ZM144.636 18.8343L143.379 15.4154L142.441 15.7604L143.698 19.1794L144.636 18.8343ZM142.91 15.0879H138.138V16.0879H142.91V15.0879ZM137.675 15.3994L136.866 17.3857L137.792 17.7627L138.601 15.7764L137.675 15.3994ZM136.864 17.3917C136.726 17.7415 136.652 18.0987 136.645 18.4609L137.644 18.4805C137.649 18.2451 137.697 18.0046 137.795 17.7568L136.864 17.3917ZM136.645 18.4707C136.645 18.8618 136.769 19.2463 137.113 19.4979L137.704 18.6915C137.695 18.6853 137.645 18.6538 137.645 18.4707H136.645ZM137.121 19.5043C137.292 19.624 137.499 19.6879 137.7 19.7249C137.907 19.763 138.146 19.7793 138.41 19.7793V18.7793C138.182 18.7793 138.008 18.7648 137.881 18.7414C137.818 18.7298 137.772 18.717 137.74 18.7053C137.707 18.6935 137.695 18.6851 137.695 18.6851L137.121 19.5043ZM137.91 19.2793V20H138.91V19.2793H137.91ZM138.41 19.5H133.91V20.5H138.41V19.5ZM134.41 20V19.3672H133.41V20H134.41ZM134.025 19.8539L135.554 19.4935L135.325 18.5202L133.795 18.8805L134.025 19.8539ZM135.905 19.1899L141.038 6.14696L140.107 5.78077L134.974 18.8237L135.905 19.1899ZM140.572 6.46387H141.829V5.46387H140.572V6.46387ZM141.362 6.14338L145.862 17.8416L146.796 17.4826L142.296 5.78435L141.362 6.14338ZM145.862 17.8407C146.103 18.4703 146.403 18.9843 146.794 19.3056L147.428 18.5323C147.234 18.3731 147.012 18.0493 146.796 17.4835L145.862 17.8407ZM146.794 19.3056C147.211 19.6473 147.77 19.7793 148.395 19.7793V18.7793C147.894 18.7793 147.598 18.671 147.428 18.5323L146.794 19.3056ZM147.895 19.2793V20H148.895V19.2793H147.895ZM148.395 19.5H142.55V20.5H148.395V19.5ZM143.05 20V19.3672H142.05V20H143.05ZM142.659 19.8552L144.276 19.4949L144.058 18.5188L142.441 18.8792L142.659 19.8552ZM140.009 9.29095L138.031 14.4238L138.965 14.7833L140.942 9.65046L140.009 9.29095ZM138.498 15.1035H142.462V14.1035H138.498V15.1035ZM142.931 14.4308L141.041 9.29796L140.103 9.64344L141.993 14.7763L142.931 14.4308ZM140.572 8.9707H140.476V9.9707H140.572V8.9707ZM150.108 9.83105L150.173 10.3269L150.608 10.2703V9.83105H150.108ZM150.108 5.24316H150.608V4.74316H150.108V5.24316ZM148.579 5.24316H148.079V5.74316H148.579V5.24316ZM148.579 4.59277L148.517 4.09663L148.079 4.15138V4.59277H148.579ZM151.005 3.59961L151.365 3.94691L151.365 3.94668L151.005 3.59961ZM151.242 3.35352V2.85352H151.03L150.882 3.00645L151.242 3.35352ZM151.91 3.35352H152.41V2.85352H151.91V3.35352ZM152.183 9.64648L151.823 9.99438L151.829 10.0001L151.835 10.0056L152.183 9.64648ZM153.255 9.91895H153.755V9.41895H153.255V9.91895ZM153.255 10.5518V11.0518H153.755V10.5518H153.255ZM148.755 10.5518H148.255V11.0518H148.755V10.5518ZM148.755 10.0068L148.69 9.511L148.255 9.56757V10.0068H148.755ZM150.608 9.83105V5.24316H149.608V9.83105H150.608ZM150.108 4.74316H148.579V5.74316H150.108V4.74316ZM149.079 5.24316V4.59277H148.079V5.24316H149.079ZM148.641 5.08891C149.249 5.01298 149.805 4.85957 150.305 4.62277L149.877 3.71903C149.486 3.9041 149.035 4.03194 148.517 4.09663L148.641 5.08891ZM150.305 4.62277C150.759 4.40787 151.134 4.1859 151.365 3.94691L150.645 3.25231C150.548 3.35316 150.314 3.51205 149.877 3.71903L150.305 4.62277ZM151.365 3.94668L151.602 3.70058L150.882 3.00645L150.645 3.25254L151.365 3.94668ZM151.242 3.85352H151.91V2.85352H151.242V3.85352ZM151.41 3.35352V8.57422H152.41V3.35352H151.41ZM151.41 8.57422C151.41 9.11757 151.495 9.65537 151.823 9.99438L152.542 9.29859C152.507 9.2626 152.41 9.08555 152.41 8.57422H151.41ZM151.835 10.0056C152.174 10.334 152.712 10.4189 153.255 10.4189V9.41895C152.744 9.41895 152.567 9.32223 152.531 9.28736L151.835 10.0056ZM152.755 9.91895V10.5518H153.755V9.91895H152.755ZM153.255 10.0518H148.755V11.0518H153.255V10.0518ZM149.255 10.5518V10.0068H148.255V10.5518H149.255ZM148.819 10.5027L150.173 10.3269L150.044 9.33522L148.69 9.511L148.819 10.5027Z" fill="white"/>
</svg>
