<svg width="216" height="74" viewBox="0 0 216 74" fill="none" xmlns="http://www.w3.org/2000/svg">
<path d="M15.0312 25H0.875V24.1562L2.91406 23.6758V10C2.91406 8.92969 2.78516 8.24219 2.52734 7.9375C2.26953 7.63281 1.71875 7.48047 0.875 7.48047V6.51953H14.9141V11.4414H13.707C13.707 10.1133 13.4805 9.18359 13.0273 8.65234C12.5742 8.11328 11.8008 7.84375 10.707 7.84375H6.14844V14.8047H8.91406C9.8125 14.8047 10.3945 14.6641 10.6602 14.3828C10.9336 14.1016 11.0703 13.4805 11.0703 12.5195H12.2656V18.6367H11.0703C11.0703 17.6289 10.9219 16.957 10.625 16.6211C10.3281 16.2852 9.75781 16.1172 8.91406 16.1172H6.14844V23.6758H10.3555C11.6211 23.6758 12.5352 23.3867 13.0977 22.8086C13.668 22.2227 14.0742 21.1523 14.3164 19.5977H15.5117L15.0312 25ZM31.8359 19.9609V10C31.8359 8.92969 31.707 8.24219 31.4492 7.9375C31.1992 7.63281 30.6484 7.48047 29.7969 7.48047V6.51953H35.6797V7.36328L33.6406 7.84375V25.2344H32.082L22.0039 11.3242L21.5234 10H21.3945V21.5195C21.3945 22.5898 21.5234 23.2773 21.7812 23.582C22.0391 23.8867 22.5898 24.0391 23.4336 24.0391V25H17.5625V24.1562L19.6016 23.6758V10C19.6016 8.92969 19.4727 8.24219 19.2148 7.9375C18.957 7.63281 18.4062 7.48047 17.5625 7.48047V6.51953H22.4844L31.2383 18.6367L31.7188 19.9609H31.8359ZM46.9648 24.0391C49.7148 24.0391 51.4766 22.5586 52.25 19.5977H53.3281L52.7305 23.9219C52.5352 24.0312 52.2656 24.168 51.9219 24.332C51.5781 24.4883 50.875 24.6992 49.8125 24.9648C48.75 25.2305 47.6797 25.3633 46.6016 25.3633C43.8984 25.3633 41.7031 24.5078 40.0156 22.7969C38.3281 21.0781 37.4844 18.8125 37.4844 16C37.4844 13.1172 38.3945 10.7578 40.2148 8.92188C42.043 7.07813 44.375 6.15625 47.2109 6.15625C48.1406 6.15625 49.0625 6.25781 49.9766 6.46094C50.8984 6.66406 51.5898 6.85938 52.0508 7.04688L52.7305 7.36328V12.0391H51.6406C51.4609 10.6016 50.9648 9.48438 50.1523 8.6875C49.3398 7.88281 48.2773 7.48047 46.9648 7.48047C45.207 7.48047 43.7852 8.15625 42.6992 9.50781C41.6211 10.8594 41.082 12.8633 41.082 15.5195C41.082 18.3867 41.6172 20.5234 42.6875 21.9297C43.7656 23.3359 45.1914 24.0391 46.9648 24.0391ZM60.5234 7.84375V21.5195C60.5234 22.5898 60.6523 23.2773 60.9102 23.582C61.168 23.8867 61.7188 24.0391 62.5625 24.0391V25H55.25V24.1562L57.2891 23.6758V10C57.2891 8.94531 57.1602 8.26172 56.9023 7.94922C56.6445 7.63672 56.0938 7.48047 55.25 7.48047V6.51953H62.5625V7.36328L60.5234 7.84375ZM73.9648 24.0391C76.7148 24.0391 78.4766 22.5586 79.25 19.5977H80.3281L79.7305 23.9219C79.5352 24.0312 79.2656 24.168 78.9219 24.332C78.5781 24.4883 77.875 24.6992 76.8125 24.9648C75.75 25.2305 74.6797 25.3633 73.6016 25.3633C70.8984 25.3633 68.7031 24.5078 67.0156 22.7969C65.3281 21.0781 64.4844 18.8125 64.4844 16C64.4844 13.1172 65.3945 10.7578 67.2148 8.92188C69.043 7.07813 71.375 6.15625 74.2109 6.15625C75.1406 6.15625 76.0625 6.25781 76.9766 6.46094C77.8984 6.66406 78.5898 6.85938 79.0508 7.04688L79.7305 7.36328V12.0391H78.6406C78.4609 10.6016 77.9648 9.48438 77.1523 8.6875C76.3398 7.88281 75.2773 7.48047 73.9648 7.48047C72.207 7.48047 70.7852 8.15625 69.6992 9.50781C68.6211 10.8594 68.082 12.8633 68.082 15.5195C68.082 18.3867 68.6172 20.5234 69.6875 21.9297C70.7656 23.3359 72.1914 24.0391 73.9648 24.0391ZM84.2891 23.6758V10C84.2891 8.92969 84.1602 8.24219 83.9023 7.9375C83.6445 7.63281 83.0938 7.48047 82.25 7.48047V6.51953H89.8086V7.36328L87.5234 7.84375V23.6758H91.8477C93.1758 23.6758 94.125 23.3867 94.6953 22.8086C95.2734 22.2227 95.6836 21.1523 95.9258 19.5977H97.1211L96.5234 25H82.25V24.1562L84.2891 23.6758ZM107.188 24.0391C108.789 24.0391 110.109 23.3555 111.148 21.9883C112.188 20.6211 112.707 18.625 112.707 16C112.707 13.1719 112.203 11.0469 111.195 9.625C110.188 8.19531 108.93 7.48047 107.422 7.48047C105.82 7.48047 104.5 8.16406 103.461 9.53125C102.422 10.8984 101.902 12.8945 101.902 15.5195C101.902 18.3477 102.406 20.4766 103.414 21.9062C104.422 23.3281 105.68 24.0391 107.188 24.0391ZM106.824 25.3633C104.348 25.3633 102.309 24.5039 100.707 22.7852C99.1055 21.0586 98.3047 18.7969 98.3047 16C98.3047 13.1328 99.2031 10.7773 101 8.93359C102.805 7.08203 105.066 6.15625 107.785 6.15625C110.262 6.15625 112.301 7.01953 113.902 8.74609C115.504 10.4648 116.305 12.7227 116.305 15.5195C116.305 18.3867 115.402 20.7461 113.598 22.5977C111.801 24.4414 109.543 25.3633 106.824 25.3633ZM118.227 6.51953H125.539C127.906 6.51953 129.699 7.00391 130.918 7.97266C132.137 8.94141 132.746 10.2188 132.746 11.8047C132.746 13.4844 132.125 14.8438 130.883 15.8828C129.641 16.9219 127.859 17.4414 125.539 17.4414H123.5V21.5195C123.5 22.543 123.664 23.2188 123.992 23.5469C124.32 23.875 124.996 24.0391 126.02 24.0391V25H118.227V24.1562L120.266 23.6758V10C120.266 8.92969 120.137 8.24219 119.879 7.9375C119.621 7.63281 119.07 7.48047 118.227 7.48047V6.51953ZM123.5 7.84375V16.1172H124.941C126.316 16.1172 127.359 15.7695 128.07 15.0742C128.789 14.3789 129.148 13.3672 129.148 12.0391C129.148 9.24219 127.746 7.84375 124.941 7.84375H123.5ZM148.812 25H134.656V24.1562L136.695 23.6758V10C136.695 8.92969 136.566 8.24219 136.309 7.9375C136.051 7.63281 135.5 7.48047 134.656 7.48047V6.51953H148.695V11.4414H147.488C147.488 10.1133 147.262 9.18359 146.809 8.65234C146.355 8.11328 145.582 7.84375 144.488 7.84375H139.93V14.8047H142.695C143.594 14.8047 144.176 14.6641 144.441 14.3828C144.715 14.1016 144.852 13.4805 144.852 12.5195H146.047V18.6367H144.852C144.852 17.6289 144.703 16.957 144.406 16.6211C144.109 16.2852 143.539 16.1172 142.695 16.1172H139.93V23.6758H144.137C145.402 23.6758 146.316 23.3867 146.879 22.8086C147.449 22.2227 147.855 21.1523 148.098 19.5977H149.293L148.812 25ZM142.578 4.59766H141.852V3.63672L144.254 0.15625H146.41V1.55078L142.578 4.59766ZM158.902 25H151.344V24.1562L153.383 23.6758V10C153.383 8.92969 153.254 8.24219 152.996 7.9375C152.738 7.63281 152.188 7.48047 151.344 7.48047V6.51953H159.383C162.25 6.51953 164.504 7.32812 166.145 8.94531C167.793 10.5625 168.617 12.7539 168.617 15.5195C168.617 18.3477 167.73 20.6367 165.957 22.3867C164.184 24.1289 161.832 25 158.902 25ZM158.902 7.84375H156.617V23.6758H159.02C160.895 23.6758 162.363 23.0391 163.426 21.7656C164.488 20.4844 165.02 18.5625 165.02 16C165.02 13.1484 164.5 11.0781 163.461 9.78906C162.422 8.49219 160.902 7.84375 158.902 7.84375ZM175.812 7.84375V21.5195C175.812 22.5898 175.941 23.2773 176.199 23.582C176.457 23.8867 177.008 24.0391 177.852 24.0391V25H170.539V24.1562L172.578 23.6758V10C172.578 8.94531 172.449 8.26172 172.191 7.94922C171.934 7.63672 171.383 7.48047 170.539 7.48047V6.51953H177.852V7.36328L175.812 7.84375ZM192.254 23.6758L190.578 19.1172H184.215L183.137 21.7656C182.98 22.1641 182.898 22.5625 182.891 22.9609C182.891 23.3438 183.008 23.6211 183.242 23.793C183.477 23.957 183.922 24.0391 184.578 24.0391V25H178.578V24.1562L180.617 23.6758L187.461 6.28516H189.137L195.137 21.8828C195.441 22.6797 195.789 23.2383 196.18 23.5586C196.57 23.8789 197.141 24.0391 197.891 24.0391V25H190.098V24.1562L192.254 23.6758ZM187.332 10.9609L184.695 17.8047H189.98L187.461 10.9609H187.332ZM200.176 11.4414V5.32422H198.137V4.45703C198.887 4.36328 199.559 4.17578 200.152 3.89453C200.746 3.61328 201.152 3.35937 201.371 3.13281L201.688 2.80469H202.578V9.76562C202.578 10.4688 202.699 10.9453 202.941 11.1953C203.191 11.4375 203.668 11.5586 204.371 11.5586V12.4023H198.371V11.6758L200.176 11.4414Z" fill="#ED1C24"/>
<path d="M2.04785 57.8311V53.2432H0.518555V52.5928C1.08105 52.5225 1.58496 52.3818 2.03027 52.1709C2.47559 51.96 2.78027 51.7695 2.94434 51.5996L3.18164 51.3535H3.84961V56.5742C3.84961 57.1016 3.94043 57.459 4.12207 57.6465C4.30957 57.8281 4.66699 57.9189 5.19434 57.9189V58.5518H0.694336V58.0068L2.04785 57.8311ZM12.9375 67.0068V56.75C12.9375 55.9473 12.8408 55.4316 12.6475 55.2031C12.4541 54.9746 12.041 54.8604 11.4082 54.8604V54.1396H17.0771V54.7725L15.3633 55.1328V67.0068H18.6064C19.6025 67.0068 20.3145 66.79 20.7422 66.3564C21.1758 65.917 21.4834 65.1143 21.665 63.9482H22.5615L22.1133 68H11.4082V67.3672L12.9375 67.0068ZM26.9736 58.6396V65.8379C26.9736 66.459 27.0557 66.8691 27.2197 67.0684C27.3896 67.2676 27.7266 67.3672 28.2305 67.3672V68H23.3701V67.3672L24.627 67.1035V61.6104C24.627 60.9482 24.5332 60.4971 24.3457 60.2568C24.1641 60.0166 23.8389 59.8965 23.3701 59.8965V59.2725C23.9326 59.2256 24.5127 59.1494 25.1104 59.0439C25.7139 58.9326 26.1768 58.833 26.499 58.7451L26.9736 58.6396ZM24.7764 56.6094C24.501 56.334 24.3633 55.9912 24.3633 55.5811C24.3633 55.1709 24.501 54.8281 24.7764 54.5527C25.0518 54.2773 25.3916 54.1396 25.7959 54.1396C26.2061 54.1396 26.5488 54.2773 26.8242 54.5527C27.0996 54.8281 27.2373 55.1709 27.2373 55.5811C27.2373 55.9912 27.0996 56.334 26.8242 56.6094C26.5488 56.8848 26.2061 57.0225 25.7959 57.0225C25.3916 57.0225 25.0518 56.8848 24.7764 56.6094ZM28.7666 59.9932V59.1758L30.208 58.9121V56.3896L32.001 55.7568H32.5459V58.9121H35.4199V60.1689H34.4355L32.5459 59.8086V65.3896C32.5459 66.2275 32.9648 66.6465 33.8027 66.6465C34.0898 66.6465 34.3682 66.6025 34.6377 66.5146C34.9072 66.4268 35.1035 66.333 35.2266 66.2334L35.4199 66.1104L35.7803 66.5586C35.7451 66.6055 35.6982 66.667 35.6396 66.7432C35.5811 66.8135 35.4521 66.9424 35.2529 67.1299C35.0537 67.3115 34.8457 67.4756 34.6289 67.6221C34.418 67.7686 34.1455 67.8975 33.8115 68.0088C33.4834 68.1201 33.1523 68.1758 32.8184 68.1758C31.0781 68.1758 30.208 67.3086 30.208 65.5742V59.9932H28.7666ZM41.1855 59.7207C40.7051 59.7207 40.2861 59.9404 39.9287 60.3799C39.5771 60.8135 39.3369 61.4639 39.208 62.3311L42.627 62.0586C42.627 60.5 42.1465 59.7207 41.1855 59.7207ZM41.3613 58.7275C42.4922 58.7275 43.377 59.0557 44.0156 59.7119C44.6602 60.3682 45.0059 61.2998 45.0527 62.5068L44.1562 63.2275H39.1113V63.3242C39.1113 64.2969 39.3838 65.0791 39.9287 65.6709C40.4795 66.2627 41.168 66.5586 41.9941 66.5586C42.498 66.5586 42.9756 66.4941 43.4268 66.3652C43.8779 66.2305 44.1973 66.0928 44.3848 65.9521L44.6924 65.75L45.0527 66.1104C45.0176 66.1689 44.9648 66.2451 44.8945 66.3389C44.8242 66.4268 44.666 66.5908 44.4199 66.8311C44.1738 67.0713 43.9072 67.2822 43.6201 67.4639C43.3389 67.6396 42.9697 67.8037 42.5127 67.9561C42.0615 68.1025 41.5898 68.1758 41.0977 68.1758C39.8262 68.1758 38.7715 67.748 37.9336 66.8926C37.1016 66.0371 36.6855 64.9385 36.6855 63.5967C36.6855 62.249 37.1455 61.1006 38.0654 60.1514C38.9912 59.2021 40.0898 58.7275 41.3613 58.7275ZM49.6494 61.4258V65.8379C49.6494 66.4238 49.7607 66.8252 49.9834 67.042C50.2119 67.2588 50.6396 67.3672 51.2666 67.3672V68H46.0459V67.3672L47.3027 67.1035V61.6104C47.3027 60.9482 47.209 60.4971 47.0215 60.2568C46.8398 60.0166 46.5146 59.8965 46.0459 59.8965V59.2725C46.5732 59.2256 47.1064 59.1582 47.6455 59.0703C48.1846 58.9766 48.5918 58.8945 48.8672 58.8242L49.2891 58.7275L49.4648 60.4414H49.5527C49.5879 60.3945 49.6348 60.333 49.6934 60.2568C49.7578 60.1748 49.8955 60.0371 50.1064 59.8438C50.3174 59.6504 50.5283 59.4805 50.7393 59.334C50.9561 59.1816 51.2256 59.0439 51.5479 58.9209C51.876 58.792 52.2012 58.7275 52.5234 58.7275C52.7637 58.7275 52.998 58.751 53.2266 58.7979C53.4551 58.8389 53.6162 58.8828 53.71 58.9297L53.877 59V62.0586H52.708L52.0752 60.2568C51.6416 60.2568 51.2227 60.3535 50.8184 60.5469C50.4199 60.7402 50.124 60.9336 49.9307 61.127L49.6494 61.4258ZM62.4199 61.8828V65.3018C62.4199 65.9639 62.5137 66.415 62.7012 66.6553C62.8887 66.8896 63.2139 67.0068 63.6768 67.0068V67.6396C63.1494 67.6865 62.6162 67.7568 62.0771 67.8506C61.5381 67.9385 61.1309 68.0117 60.8555 68.0703L60.4424 68.1758L60.2578 66.4707H60.1699C60.1348 66.5176 60.085 66.582 60.0205 66.6641C59.9619 66.7402 59.833 66.875 59.6338 67.0684C59.4404 67.2559 59.2324 67.4258 59.0098 67.5781C58.7871 67.7246 58.5 67.8623 58.1484 67.9912C57.8027 68.1143 57.457 68.1758 57.1113 68.1758C56.3672 68.1758 55.7754 67.9824 55.3359 67.5957C54.8965 67.2031 54.6768 66.708 54.6768 66.1104C54.6768 65.5947 54.8613 65.1201 55.2305 64.6865C55.6055 64.2529 56.0566 63.9131 56.584 63.667C57.1172 63.4209 57.6475 63.2129 58.1748 63.043C58.7021 62.8672 59.1504 62.75 59.5195 62.6914L60.082 62.6035V62.0586C60.082 60.5 59.5107 59.7207 58.3682 59.7207C58.1748 59.7207 57.9814 59.7441 57.7881 59.791C57.6006 59.8379 57.4541 59.8848 57.3486 59.9316L57.1992 59.9932L56.5664 61.9707H55.3096V59.6328C55.4268 59.5625 55.5938 59.4805 55.8105 59.3867C56.0273 59.2871 56.4609 59.1523 57.1113 58.9824C57.7617 58.8125 58.3916 58.7275 59.001 58.7275C60.0674 58.7275 60.9023 59.0146 61.5059 59.5889C62.1152 60.1572 62.4199 60.9219 62.4199 61.8828ZM58.1924 66.4707C58.5146 66.4707 58.8311 66.3975 59.1416 66.251C59.458 66.0986 59.6924 65.9492 59.8447 65.8027L60.082 65.5742V63.5C60 63.5117 59.8916 63.5293 59.7568 63.5527C59.6221 63.5762 59.3848 63.6436 59.0449 63.7549C58.7051 63.8604 58.4062 63.9834 58.1484 64.124C57.8906 64.2588 57.6533 64.4463 57.4365 64.6865C57.2197 64.9268 57.1113 65.1904 57.1113 65.4775C57.1113 66.1396 57.4717 66.4707 58.1924 66.4707ZM67.9131 61.4258V65.8379C67.9131 66.4238 68.0244 66.8252 68.2471 67.042C68.4756 67.2588 68.9033 67.3672 69.5303 67.3672V68H64.3096V67.3672L65.5664 67.1035V61.6104C65.5664 60.9482 65.4727 60.4971 65.2852 60.2568C65.1035 60.0166 64.7783 59.8965 64.3096 59.8965V59.2725C64.8369 59.2256 65.3701 59.1582 65.9092 59.0703C66.4482 58.9766 66.8555 58.8945 67.1309 58.8242L67.5527 58.7275L67.7285 60.4414H67.8164C67.8516 60.3945 67.8984 60.333 67.957 60.2568C68.0215 60.1748 68.1592 60.0371 68.3701 59.8438C68.5811 59.6504 68.792 59.4805 69.0029 59.334C69.2197 59.1816 69.4893 59.0439 69.8115 58.9209C70.1396 58.792 70.4648 58.7275 70.7871 58.7275C71.0273 58.7275 71.2617 58.751 71.4902 58.7979C71.7188 58.8389 71.8799 58.8828 71.9736 58.9297L72.1406 59V62.0586H70.9717L70.3389 60.2568C69.9053 60.2568 69.4863 60.3535 69.082 60.5469C68.6836 60.7402 68.3877 60.9336 68.1943 61.127L67.9131 61.4258ZM76.3682 58.6396V65.8379C76.3682 66.459 76.4502 66.8691 76.6143 67.0684C76.7842 67.2676 77.1211 67.3672 77.625 67.3672V68H72.7646V67.3672L74.0215 67.1035V61.6104C74.0215 60.9482 73.9277 60.4971 73.7402 60.2568C73.5586 60.0166 73.2334 59.8965 72.7646 59.8965V59.2725C73.3271 59.2256 73.9072 59.1494 74.5049 59.0439C75.1084 58.9326 75.5713 58.833 75.8936 58.7451L76.3682 58.6396ZM74.1709 56.6094C73.8955 56.334 73.7578 55.9912 73.7578 55.5811C73.7578 55.1709 73.8955 54.8281 74.1709 54.5527C74.4463 54.2773 74.7861 54.1396 75.1904 54.1396C75.6006 54.1396 75.9434 54.2773 76.2188 54.5527C76.4941 54.8281 76.6318 55.1709 76.6318 55.5811C76.6318 55.9912 76.4941 56.334 76.2188 56.6094C75.9434 56.8848 75.6006 57.0225 75.1904 57.0225C74.7861 57.0225 74.4463 56.8848 74.1709 56.6094ZM86.168 61.8828V65.3018C86.168 65.9639 86.2617 66.415 86.4492 66.6553C86.6367 66.8896 86.9619 67.0068 87.4248 67.0068V67.6396C86.8975 67.6865 86.3643 67.7568 85.8252 67.8506C85.2861 67.9385 84.8789 68.0117 84.6035 68.0703L84.1904 68.1758L84.0059 66.4707H83.918C83.8828 66.5176 83.833 66.582 83.7686 66.6641C83.71 66.7402 83.5811 66.875 83.3818 67.0684C83.1885 67.2559 82.9805 67.4258 82.7578 67.5781C82.5352 67.7246 82.248 67.8623 81.8965 67.9912C81.5508 68.1143 81.2051 68.1758 80.8594 68.1758C80.1152 68.1758 79.5234 67.9824 79.084 67.5957C78.6445 67.2031 78.4248 66.708 78.4248 66.1104C78.4248 65.5947 78.6094 65.1201 78.9785 64.6865C79.3535 64.2529 79.8047 63.9131 80.332 63.667C80.8652 63.4209 81.3955 63.2129 81.9229 63.043C82.4502 62.8672 82.8984 62.75 83.2676 62.6914L83.8301 62.6035V62.0586C83.8301 60.5 83.2588 59.7207 82.1162 59.7207C81.9229 59.7207 81.7295 59.7441 81.5361 59.791C81.3486 59.8379 81.2021 59.8848 81.0967 59.9316L80.9473 59.9932L80.3145 61.9707H79.0576V59.6328C79.1748 59.5625 79.3418 59.4805 79.5586 59.3867C79.7754 59.2871 80.209 59.1523 80.8594 58.9824C81.5098 58.8125 82.1396 58.7275 82.749 58.7275C83.8154 58.7275 84.6504 59.0146 85.2539 59.5889C85.8633 60.1572 86.168 60.9219 86.168 61.8828ZM81.9404 66.4707C82.2627 66.4707 82.5791 66.3975 82.8896 66.251C83.2061 66.0986 83.4404 65.9492 83.5928 65.8027L83.8301 65.5742V63.5C83.748 63.5117 83.6396 63.5293 83.5049 63.5527C83.3701 63.5762 83.1328 63.6436 82.793 63.7549C82.4531 63.8604 82.1543 63.9834 81.8965 64.124C81.6387 64.2588 81.4014 64.4463 81.1846 64.6865C80.9678 64.9268 80.8594 65.1904 80.8594 65.4775C80.8594 66.1396 81.2197 66.4707 81.9404 66.4707ZM102.999 62.4189V65.8379C102.999 66.459 103.081 66.8691 103.245 67.0684C103.415 67.2676 103.752 67.3672 104.256 67.3672V68H99.5801V67.3672L100.661 67.1035V62.4189C100.661 61.7568 100.515 61.2617 100.222 60.9336C99.9346 60.6055 99.5391 60.4414 99.0352 60.4414C98.7363 60.4414 98.4375 60.5088 98.1387 60.6436C97.8398 60.7725 97.6113 60.9072 97.4531 61.0479L97.2334 61.25C97.292 61.4902 97.3242 61.8799 97.3301 62.4189V65.8379C97.3301 66.459 97.4092 66.8691 97.5674 67.0684C97.7314 67.2676 98.042 67.3672 98.499 67.3672V68H93.9111V67.3672L94.9834 67.1035V62.4189C94.9834 61.7568 94.8398 61.2617 94.5527 60.9336C94.2656 60.6055 93.8701 60.4414 93.3662 60.4414C93.1025 60.4414 92.8271 60.5088 92.54 60.6436C92.2529 60.7725 92.0303 60.9072 91.8721 61.0479L91.6611 61.25V65.8379C91.6611 66.459 91.7402 66.8691 91.8984 67.0684C92.0625 67.2676 92.373 67.3672 92.8301 67.3672V68H88.0576V67.3672L89.3145 67.1035V61.6104C89.3145 60.9482 89.2207 60.4971 89.0332 60.2568C88.8516 60.0166 88.5264 59.8965 88.0576 59.8965V59.2725C88.585 59.2256 89.1182 59.1582 89.6572 59.0703C90.1963 58.9766 90.6035 58.8945 90.8789 58.8242L91.3008 58.7275L91.4766 60.2568H91.5645C91.5996 60.2217 91.6465 60.1689 91.7051 60.0986C91.7695 60.0283 91.9014 59.9053 92.1006 59.7295C92.2998 59.5537 92.5049 59.3984 92.7158 59.2637C92.9326 59.123 93.2051 59 93.5332 58.8945C93.8672 58.7832 94.2012 58.7275 94.5352 58.7275C94.875 58.7275 95.1885 58.7832 95.4756 58.8945C95.7627 59 95.9941 59.1289 96.1699 59.2812C96.3516 59.4277 96.5039 59.5742 96.627 59.7207C96.7559 59.8613 96.8467 59.9873 96.8994 60.0986L96.9697 60.2568H97.0576C97.0928 60.2217 97.1396 60.1689 97.1982 60.0986C97.2627 60.0283 97.3945 59.9053 97.5938 59.7295C97.7988 59.5537 98.0156 59.3984 98.2441 59.2637C98.4727 59.123 98.7627 59 99.1143 58.8945C99.4717 58.7832 99.835 58.7275 100.204 58.7275C101.054 58.7275 101.73 59.041 102.234 59.668C102.744 60.2891 102.999 61.2061 102.999 62.4189ZM109.74 59.7207C109.26 59.7207 108.841 59.9404 108.483 60.3799C108.132 60.8135 107.892 61.4639 107.763 62.3311L111.182 62.0586C111.182 60.5 110.701 59.7207 109.74 59.7207ZM109.916 58.7275C111.047 58.7275 111.932 59.0557 112.57 59.7119C113.215 60.3682 113.561 61.2998 113.607 62.5068L112.711 63.2275H107.666V63.3242C107.666 64.2969 107.938 65.0791 108.483 65.6709C109.034 66.2627 109.723 66.5586 110.549 66.5586C111.053 66.5586 111.53 66.4941 111.981 66.3652C112.433 66.2305 112.752 66.0928 112.939 65.9521L113.247 65.75L113.607 66.1104C113.572 66.1689 113.52 66.2451 113.449 66.3389C113.379 66.4268 113.221 66.5908 112.975 66.8311C112.729 67.0713 112.462 67.2822 112.175 67.4639C111.894 67.6396 111.524 67.8037 111.067 67.9561C110.616 68.1025 110.145 68.1758 109.652 68.1758C108.381 68.1758 107.326 67.748 106.488 66.8926C105.656 66.0371 105.24 64.9385 105.24 63.5967C105.24 62.249 105.7 61.1006 106.62 60.1514C107.546 59.2021 108.645 58.7275 109.916 58.7275ZM124.233 62.3311V65.8379C124.233 66.459 124.315 66.8691 124.479 67.0684C124.649 67.2676 124.986 67.3672 125.49 67.3672V68H120.63V67.3672L121.887 67.1035V62.4189C121.887 61.71 121.752 61.2031 121.482 60.8984C121.213 60.5938 120.779 60.4414 120.182 60.4414C119.859 60.4414 119.531 60.5176 119.197 60.6699C118.869 60.8164 118.62 60.9688 118.45 61.127L118.204 61.3379V65.8379C118.204 66.459 118.286 66.8691 118.45 67.0684C118.62 67.2676 118.957 67.3672 119.461 67.3672V68H114.601V67.3672L115.857 67.1035V61.6104C115.857 60.9482 115.764 60.4971 115.576 60.2568C115.395 60.0166 115.069 59.8965 114.601 59.8965V59.2725C115.128 59.2256 115.661 59.1582 116.2 59.0703C116.739 58.9766 117.146 58.8945 117.422 58.8242L117.844 58.7275L118.02 60.4414H118.107C118.143 60.3945 118.192 60.333 118.257 60.2568C118.327 60.1748 118.471 60.0371 118.688 59.8438C118.904 59.6504 119.13 59.4805 119.364 59.334C119.599 59.1816 119.895 59.0439 120.252 58.9209C120.609 58.792 120.976 58.7275 121.351 58.7275C122.241 58.7275 122.944 59.0352 123.46 59.6504C123.976 60.2598 124.233 61.1533 124.233 62.3311ZM125.851 59.9932V59.1758L127.292 58.9121V56.3896L129.085 55.7568H129.63V58.9121H132.504V60.1689H131.52L129.63 59.8086V65.3896C129.63 66.2275 130.049 66.6465 130.887 66.6465C131.174 66.6465 131.452 66.6025 131.722 66.5146C131.991 66.4268 132.188 66.333 132.311 66.2334L132.504 66.1104L132.864 66.5586C132.829 66.6055 132.782 66.667 132.724 66.7432C132.665 66.8135 132.536 66.9424 132.337 67.1299C132.138 67.3115 131.93 67.4756 131.713 67.6221C131.502 67.7686 131.229 67.8975 130.896 68.0088C130.567 68.1201 130.236 68.1758 129.902 68.1758C128.162 68.1758 127.292 67.3086 127.292 65.5742V59.9932H125.851ZM138.27 59.7207C137.789 59.7207 137.37 59.9404 137.013 60.3799C136.661 60.8135 136.421 61.4639 136.292 62.3311L139.711 62.0586C139.711 60.5 139.23 59.7207 138.27 59.7207ZM138.445 58.7275C139.576 58.7275 140.461 59.0557 141.1 59.7119C141.744 60.3682 142.09 61.2998 142.137 62.5068L141.24 63.2275H136.195V63.3242C136.195 64.2969 136.468 65.0791 137.013 65.6709C137.563 66.2627 138.252 66.5586 139.078 66.5586C139.582 66.5586 140.06 66.4941 140.511 66.3652C140.962 66.2305 141.281 66.0928 141.469 65.9521L141.776 65.75L142.137 66.1104C142.102 66.1689 142.049 66.2451 141.979 66.3389C141.908 66.4268 141.75 66.5908 141.504 66.8311C141.258 67.0713 140.991 67.2822 140.704 67.4639C140.423 67.6396 140.054 67.8037 139.597 67.9561C139.146 68.1025 138.674 68.1758 138.182 68.1758C136.91 68.1758 135.855 67.748 135.018 66.8926C134.186 66.0371 133.77 64.9385 133.77 63.5967C133.77 62.249 134.229 61.1006 135.149 60.1514C136.075 59.2021 137.174 58.7275 138.445 58.7275ZM155.821 67.2793C157.884 67.2793 159.205 66.1689 159.785 63.9482H160.594L160.146 67.1914C159.999 67.2734 159.797 67.376 159.539 67.499C159.281 67.6162 158.754 67.7744 157.957 67.9736C157.16 68.1729 156.357 68.2725 155.549 68.2725C153.521 68.2725 151.875 67.6309 150.609 66.3477C149.344 65.0586 148.711 63.3594 148.711 61.25C148.711 59.0879 149.394 57.3184 150.759 55.9414C152.13 54.5586 153.879 53.8672 156.006 53.8672C156.703 53.8672 157.395 53.9434 158.08 54.0957C158.771 54.248 159.29 54.3945 159.636 54.5352L160.146 54.7725V58.2793H159.328C159.193 57.2012 158.821 56.3633 158.212 55.7656C157.603 55.1621 156.806 54.8604 155.821 54.8604C154.503 54.8604 153.437 55.3672 152.622 56.3809C151.813 57.3945 151.409 58.8975 151.409 60.8896C151.409 63.04 151.811 64.6426 152.613 65.6973C153.422 66.752 154.491 67.2793 155.821 67.2793ZM168.864 63.5879C168.864 62.2812 168.63 61.2969 168.161 60.6348C167.692 59.9668 167.115 59.6328 166.43 59.6328C165.832 59.6328 165.308 59.9551 164.856 60.5996C164.405 61.2383 164.18 62.1465 164.18 63.3242C164.18 64.6309 164.414 65.6182 164.883 66.2861C165.352 66.9482 165.929 67.2793 166.614 67.2793C167.212 67.2793 167.736 66.96 168.188 66.3213C168.639 65.6768 168.864 64.7656 168.864 63.5879ZM171.29 63.4121C171.29 64.7656 170.821 65.8994 169.884 66.8135C168.952 67.7217 167.771 68.1758 166.342 68.1758C164.988 68.1758 163.884 67.7451 163.028 66.8838C162.179 66.0225 161.754 64.8945 161.754 63.5C161.754 62.1465 162.22 61.0127 163.151 60.0986C164.089 59.1846 165.272 58.7275 166.702 58.7275C168.056 58.7275 169.157 59.1611 170.007 60.0283C170.862 60.8896 171.29 62.0176 171.29 63.4121ZM175.983 61.4258V65.8379C175.983 66.4238 176.095 66.8252 176.317 67.042C176.546 67.2588 176.974 67.3672 177.601 67.3672V68H172.38V67.3672L173.637 67.1035V61.6104C173.637 60.9482 173.543 60.4971 173.355 60.2568C173.174 60.0166 172.849 59.8965 172.38 59.8965V59.2725C172.907 59.2256 173.44 59.1582 173.979 59.0703C174.519 58.9766 174.926 58.8945 175.201 58.8242L175.623 58.7275L175.799 60.4414H175.887C175.922 60.3945 175.969 60.333 176.027 60.2568C176.092 60.1748 176.229 60.0371 176.44 59.8438C176.651 59.6504 176.862 59.4805 177.073 59.334C177.29 59.1816 177.56 59.0439 177.882 58.9209C178.21 58.792 178.535 58.7275 178.857 58.7275C179.098 58.7275 179.332 58.751 179.561 58.7979C179.789 58.8389 179.95 58.8828 180.044 58.9297L180.211 59V62.0586H179.042L178.409 60.2568C177.976 60.2568 177.557 60.3535 177.152 60.5469C176.754 60.7402 176.458 60.9336 176.265 61.127L175.983 61.4258ZM184.438 61.4258V65.8379C184.438 66.4238 184.55 66.8252 184.772 67.042C185.001 67.2588 185.429 67.3672 186.056 67.3672V68H180.835V67.3672L182.092 67.1035V61.6104C182.092 60.9482 181.998 60.4971 181.811 60.2568C181.629 60.0166 181.304 59.8965 180.835 59.8965V59.2725C181.362 59.2256 181.896 59.1582 182.435 59.0703C182.974 58.9766 183.381 58.8945 183.656 58.8242L184.078 58.7275L184.254 60.4414H184.342C184.377 60.3945 184.424 60.333 184.482 60.2568C184.547 60.1748 184.685 60.0371 184.896 59.8438C185.106 59.6504 185.317 59.4805 185.528 59.334C185.745 59.1816 186.015 59.0439 186.337 58.9209C186.665 58.792 186.99 58.7275 187.312 58.7275C187.553 58.7275 187.787 58.751 188.016 58.7979C188.244 58.8389 188.405 58.8828 188.499 58.9297L188.666 59V62.0586H187.497L186.864 60.2568C186.431 60.2568 186.012 60.3535 185.607 60.5469C185.209 60.7402 184.913 60.9336 184.72 61.127L184.438 61.4258ZM193.975 59.7207C193.494 59.7207 193.075 59.9404 192.718 60.3799C192.366 60.8135 192.126 61.4639 191.997 62.3311L195.416 62.0586C195.416 60.5 194.936 59.7207 193.975 59.7207ZM194.15 58.7275C195.281 58.7275 196.166 59.0557 196.805 59.7119C197.449 60.3682 197.795 61.2998 197.842 62.5068L196.945 63.2275H191.9V63.3242C191.9 64.2969 192.173 65.0791 192.718 65.6709C193.269 66.2627 193.957 66.5586 194.783 66.5586C195.287 66.5586 195.765 66.4941 196.216 66.3652C196.667 66.2305 196.986 66.0928 197.174 65.9521L197.481 65.75L197.842 66.1104C197.807 66.1689 197.754 66.2451 197.684 66.3389C197.613 66.4268 197.455 66.5908 197.209 66.8311C196.963 67.0713 196.696 67.2822 196.409 67.4639C196.128 67.6396 195.759 67.8037 195.302 67.9561C194.851 68.1025 194.379 68.1758 193.887 68.1758C192.615 68.1758 191.561 67.748 190.723 66.8926C189.891 66.0371 189.475 64.9385 189.475 63.5967C189.475 62.249 189.935 61.1006 190.854 60.1514C191.78 59.2021 192.879 58.7275 194.15 58.7275ZM198.747 59.9932V59.1758L200.188 58.9121V56.3896L201.981 55.7568H202.526V58.9121H205.4V60.1689H204.416L202.526 59.8086V65.3896C202.526 66.2275 202.945 66.6465 203.783 66.6465C204.07 66.6465 204.349 66.6025 204.618 66.5146C204.888 66.4268 205.084 66.333 205.207 66.2334L205.4 66.1104L205.761 66.5586C205.726 66.6055 205.679 66.667 205.62 66.7432C205.562 66.8135 205.433 66.9424 205.233 67.1299C205.034 67.3115 204.826 67.4756 204.609 67.6221C204.398 67.7686 204.126 67.8975 203.792 68.0088C203.464 68.1201 203.133 68.1758 202.799 68.1758C201.059 68.1758 200.188 67.3086 200.188 65.5742V59.9932H198.747ZM214.225 61.8828V65.3018C214.225 65.9639 214.318 66.415 214.506 66.6553C214.693 66.8896 215.019 67.0068 215.481 67.0068V67.6396C214.954 67.6865 214.421 67.7568 213.882 67.8506C213.343 67.9385 212.936 68.0117 212.66 68.0703L212.247 68.1758L212.062 66.4707H211.975C211.939 66.5176 211.89 66.582 211.825 66.6641C211.767 66.7402 211.638 66.875 211.438 67.0684C211.245 67.2559 211.037 67.4258 210.814 67.5781C210.592 67.7246 210.305 67.8623 209.953 67.9912C209.607 68.1143 209.262 68.1758 208.916 68.1758C208.172 68.1758 207.58 67.9824 207.141 67.5957C206.701 67.2031 206.481 66.708 206.481 66.1104C206.481 65.5947 206.666 65.1201 207.035 64.6865C207.41 64.2529 207.861 63.9131 208.389 63.667C208.922 63.4209 209.452 63.2129 209.979 63.043C210.507 62.8672 210.955 62.75 211.324 62.6914L211.887 62.6035V62.0586C211.887 60.5 211.315 59.7207 210.173 59.7207C209.979 59.7207 209.786 59.7441 209.593 59.791C209.405 59.8379 209.259 59.8848 209.153 59.9316L209.004 59.9932L208.371 61.9707H207.114V59.6328C207.231 59.5625 207.398 59.4805 207.615 59.3867C207.832 59.2871 208.266 59.1523 208.916 58.9824C209.566 58.8125 210.196 58.7275 210.806 58.7275C211.872 58.7275 212.707 59.0146 213.311 59.5889C213.92 60.1572 214.225 60.9219 214.225 61.8828ZM209.997 66.4707C210.319 66.4707 210.636 66.3975 210.946 66.251C211.263 66.0986 211.497 65.9492 211.649 65.8027L211.887 65.5742V63.5C211.805 63.5117 211.696 63.5293 211.562 63.5527C211.427 63.5762 211.189 63.6436 210.85 63.7549C210.51 63.8604 210.211 63.9834 209.953 64.124C209.695 64.2588 209.458 64.4463 209.241 64.6865C209.024 64.9268 208.916 65.1904 208.916 65.4775C208.916 66.1396 209.276 66.4707 209.997 66.4707Z" fill="#ED1C24"/>
</svg>
