<svg width="231" height="18" viewBox="0 0 231 18" fill="none" xmlns="http://www.w3.org/2000/svg">
<path d="M7.08887 11.9922C7.33952 11.9922 7.5651 11.9466 7.76562 11.8555C7.96615 11.7598 8.12337 11.6481 8.2373 11.5205C8.35124 11.3929 8.44466 11.2653 8.51758 11.1377C8.59049 11.0055 8.63607 10.8939 8.6543 10.8027L8.70215 10.6592H9.11914L8.97559 12.1973C8.9209 12.2428 8.84115 12.3021 8.73633 12.375C8.63607 12.4434 8.40365 12.5368 8.03906 12.6553C7.67448 12.7738 7.28711 12.833 6.87695 12.833C5.93359 12.833 5.14974 12.5254 4.52539 11.9102C3.90104 11.2904 3.58887 10.5247 3.58887 9.61328C3.58887 8.63346 3.90788 7.8291 4.5459 7.2002C5.18848 6.56673 6.01335 6.25 7.02051 6.25C7.37598 6.25 7.72005 6.29102 8.05273 6.37305C8.38997 6.45052 8.63835 6.53027 8.79785 6.6123L9.05078 6.74219V8.56055H8.49023C8.45378 8.11393 8.30794 7.75846 8.05273 7.49414C7.80208 7.22526 7.48079 7.09082 7.08887 7.09082C6.51009 7.09082 6.0498 7.29134 5.70801 7.69238C5.37077 8.09342 5.20215 8.68587 5.20215 9.46973C5.20215 10.2809 5.3776 10.9053 5.72852 11.3428C6.08398 11.7757 6.53743 11.9922 7.08887 11.9922ZM11.71 9.61328C11.71 8.25065 11.2109 7.07031 10.2129 6.07227C9.21484 5.06966 8.03451 4.56836 6.67188 4.56836C5.27279 4.56836 4.06966 5.0651 3.0625 6.05859C2.0599 7.05208 1.55859 8.23698 1.55859 9.61328C1.55859 10.9759 2.05762 12.1562 3.05566 13.1543C4.05371 14.1523 5.23405 14.6514 6.59668 14.6514C7.99577 14.6514 9.19661 14.1546 10.1992 13.1611C11.2064 12.1676 11.71 10.985 11.71 9.61328ZM2.42676 13.7285C1.28743 12.5983 0.717773 11.2266 0.717773 9.61328C0.717773 7.99544 1.29199 6.6237 2.44043 5.49805C3.58887 4.36784 4.99935 3.80273 6.67188 3.80273C8.3125 3.80273 9.70247 4.36784 10.8418 5.49805C11.9811 6.6237 12.5508 7.99544 12.5508 9.61328C12.5508 11.2266 11.9766 12.5983 10.8281 13.7285C9.67969 14.8542 8.26921 15.417 6.59668 15.417C4.95605 15.417 3.56608 14.8542 2.42676 13.7285ZM25.915 15H17.6572V14.5078L18.8467 14.2275V6.25C18.8467 5.62565 18.7715 5.22461 18.6211 5.04688C18.4707 4.86914 18.1494 4.78027 17.6572 4.78027V4.21973H25.8467V7.09082H25.1426C25.1426 6.31608 25.0104 5.77376 24.7461 5.46387C24.4818 5.14941 24.0306 4.99219 23.3926 4.99219H20.7334V9.05273H22.3467C22.8708 9.05273 23.2103 8.9707 23.3652 8.80664C23.5247 8.64258 23.6045 8.28027 23.6045 7.71973H24.3018V11.2881H23.6045C23.6045 10.7002 23.5179 10.3083 23.3447 10.1123C23.1715 9.91634 22.8389 9.81836 22.3467 9.81836H20.7334V14.2275H23.1875C23.9258 14.2275 24.459 14.0589 24.7871 13.7217C25.1198 13.3799 25.3568 12.7555 25.498 11.8486H26.1953L25.915 15ZM35.7178 12.0605V6.25C35.7178 5.62565 35.6426 5.22461 35.4922 5.04688C35.3464 4.86914 35.0251 4.78027 34.5283 4.78027V4.21973H37.96V4.71191L36.7705 4.99219V15.1367H35.8613L29.9824 7.02246L29.7021 6.25H29.627V12.9697C29.627 13.5941 29.7021 13.9951 29.8525 14.1729C30.0029 14.3506 30.3242 14.4395 30.8164 14.4395V15H27.3916V14.5078L28.5811 14.2275V6.25C28.5811 5.62565 28.5059 5.22461 28.3555 5.04688C28.2051 4.86914 27.8838 4.78027 27.3916 4.78027V4.21973H30.2627L35.3691 11.2881L35.6494 12.0605H35.7178ZM44.543 14.4395C46.1471 14.4395 47.1748 13.5758 47.626 11.8486H48.2549L47.9062 14.3711C47.7923 14.4349 47.6351 14.5146 47.4346 14.6104C47.234 14.7015 46.8239 14.8245 46.2041 14.9795C45.5843 15.1344 44.96 15.2119 44.3311 15.2119C42.7542 15.2119 41.4736 14.7129 40.4893 13.7148C39.5049 12.7122 39.0127 11.3906 39.0127 9.75C39.0127 8.06836 39.5436 6.69206 40.6055 5.62109C41.6719 4.54557 43.0322 4.00781 44.6865 4.00781C45.2288 4.00781 45.7666 4.06706 46.2998 4.18555C46.8376 4.30404 47.2409 4.41797 47.5098 4.52734L47.9062 4.71191V7.43945H47.2705C47.1657 6.60091 46.8763 5.94922 46.4023 5.48438C45.9284 5.01497 45.3086 4.78027 44.543 4.78027C43.5176 4.78027 42.6882 5.17448 42.0547 5.96289C41.4258 6.7513 41.1113 7.92025 41.1113 9.46973C41.1113 11.1423 41.4235 12.3887 42.0479 13.209C42.6768 14.0293 43.5085 14.4395 44.543 14.4395ZM52.4521 4.99219V12.9697C52.4521 13.5941 52.5273 13.9951 52.6777 14.1729C52.8281 14.3506 53.1494 14.4395 53.6416 14.4395V15H49.376V14.5078L50.5654 14.2275V6.25C50.5654 5.63477 50.4902 5.236 50.3398 5.05371C50.1895 4.87142 49.8682 4.78027 49.376 4.78027V4.21973H53.6416V4.71191L52.4521 4.99219ZM60.293 14.4395C61.8971 14.4395 62.9248 13.5758 63.376 11.8486H64.0049L63.6562 14.3711C63.5423 14.4349 63.3851 14.5146 63.1846 14.6104C62.984 14.7015 62.5739 14.8245 61.9541 14.9795C61.3343 15.1344 60.71 15.2119 60.0811 15.2119C58.5042 15.2119 57.2236 14.7129 56.2393 13.7148C55.2549 12.7122 54.7627 11.3906 54.7627 9.75C54.7627 8.06836 55.2936 6.69206 56.3555 5.62109C57.4219 4.54557 58.7822 4.00781 60.4365 4.00781C60.9788 4.00781 61.5166 4.06706 62.0498 4.18555C62.5876 4.30404 62.9909 4.41797 63.2598 4.52734L63.6562 4.71191V7.43945H63.0205C62.9157 6.60091 62.6263 5.94922 62.1523 5.48438C61.6784 5.01497 61.0586 4.78027 60.293 4.78027C59.2676 4.78027 58.4382 5.17448 57.8047 5.96289C57.1758 6.7513 56.8613 7.92025 56.8613 9.46973C56.8613 11.1423 57.1735 12.3887 57.7979 13.209C58.4268 14.0293 59.2585 14.4395 60.293 14.4395ZM66.3154 14.2275V6.25C66.3154 5.62565 66.2402 5.22461 66.0898 5.04688C65.9395 4.86914 65.6182 4.78027 65.126 4.78027V4.21973H69.5352V4.71191L68.2021 4.99219V14.2275H70.7246C71.4993 14.2275 72.0531 14.0589 72.3857 13.7217C72.723 13.3799 72.9622 12.7555 73.1035 11.8486H73.8008L73.4521 15H65.126V14.5078L66.3154 14.2275ZM79.6729 14.4395C80.6071 14.4395 81.3773 14.0407 81.9834 13.2432C82.5895 12.4456 82.8926 11.2812 82.8926 9.75C82.8926 8.10026 82.5986 6.86068 82.0107 6.03125C81.4229 5.19727 80.6891 4.78027 79.8096 4.78027C78.8753 4.78027 78.1051 5.17904 77.499 5.97656C76.8929 6.77409 76.5898 7.93848 76.5898 9.46973C76.5898 11.1195 76.8838 12.3613 77.4717 13.1953C78.0596 14.0247 78.7933 14.4395 79.6729 14.4395ZM79.4609 15.2119C78.0163 15.2119 76.8268 14.7106 75.8926 13.708C74.9583 12.7008 74.4912 11.3815 74.4912 9.75C74.4912 8.07747 75.0153 6.70345 76.0635 5.62793C77.1162 4.54785 78.4355 4.00781 80.0215 4.00781C81.4661 4.00781 82.6556 4.51139 83.5898 5.51855C84.5241 6.52116 84.9912 7.83822 84.9912 9.46973C84.9912 11.1423 84.4648 12.5186 83.4121 13.5986C82.3639 14.6742 81.0469 15.2119 79.4609 15.2119ZM86.1123 4.21973H90.3779C91.7588 4.21973 92.8047 4.50228 93.5156 5.06738C94.2266 5.63249 94.582 6.3776 94.582 7.30273C94.582 8.28255 94.2197 9.07552 93.4951 9.68164C92.7705 10.2878 91.7314 10.5908 90.3779 10.5908H89.1885V12.9697C89.1885 13.5667 89.2842 13.9609 89.4756 14.1523C89.667 14.3438 90.0612 14.4395 90.6582 14.4395V15H86.1123V14.5078L87.3018 14.2275V6.25C87.3018 5.62565 87.2266 5.22461 87.0762 5.04688C86.9258 4.86914 86.6045 4.78027 86.1123 4.78027V4.21973ZM89.1885 4.99219V9.81836H90.0293C90.8314 9.81836 91.4398 9.61556 91.8545 9.20996C92.2738 8.80436 92.4834 8.21419 92.4834 7.43945C92.4834 5.80794 91.6654 4.99219 90.0293 4.99219H89.1885ZM103.954 15H95.6963V14.5078L96.8857 14.2275V6.25C96.8857 5.62565 96.8105 5.22461 96.6602 5.04688C96.5098 4.86914 96.1885 4.78027 95.6963 4.78027V4.21973H103.886V7.09082H103.182C103.182 6.31608 103.049 5.77376 102.785 5.46387C102.521 5.14941 102.07 4.99219 101.432 4.99219H98.7725V9.05273H100.386C100.91 9.05273 101.249 8.9707 101.404 8.80664C101.564 8.64258 101.644 8.28027 101.644 7.71973H102.341V11.2881H101.644C101.644 10.7002 101.557 10.3083 101.384 10.1123C101.211 9.91634 100.878 9.81836 100.386 9.81836H98.7725V14.2275H101.227C101.965 14.2275 102.498 14.0589 102.826 13.7217C103.159 13.3799 103.396 12.7555 103.537 11.8486H104.234L103.954 15ZM100.317 3.09863H99.8936V2.53809L101.295 0.507812H102.553V1.32129L100.317 3.09863ZM109.84 15H105.431V14.5078L106.62 14.2275V6.25C106.62 5.62565 106.545 5.22461 106.395 5.04688C106.244 4.86914 105.923 4.78027 105.431 4.78027V4.21973H110.12C111.793 4.21973 113.107 4.69141 114.064 5.63477C115.026 6.57812 115.507 7.85645 115.507 9.46973C115.507 11.1195 114.99 12.4548 113.955 13.4756C112.921 14.4919 111.549 15 109.84 15ZM109.84 4.99219H108.507V14.2275H109.908C111.002 14.2275 111.859 13.8561 112.479 13.1133C113.098 12.3659 113.408 11.2448 113.408 9.75C113.408 8.08659 113.105 6.87891 112.499 6.12695C111.893 5.37044 111.007 4.99219 109.84 4.99219ZM119.704 4.99219V12.9697C119.704 13.5941 119.779 13.9951 119.93 14.1729C120.08 14.3506 120.401 14.4395 120.894 14.4395V15H116.628V14.5078L117.817 14.2275V6.25C117.817 5.63477 117.742 5.236 117.592 5.05371C117.441 4.87142 117.12 4.78027 116.628 4.78027V4.21973H120.894V4.71191L119.704 4.99219ZM129.295 14.2275L128.317 11.5684H124.605L123.977 13.1133C123.885 13.3457 123.838 13.5781 123.833 13.8105C123.833 14.0339 123.901 14.1956 124.038 14.2959C124.175 14.3916 124.435 14.4395 124.817 14.4395V15H121.317V14.5078L122.507 14.2275L126.499 4.08301H127.477L130.977 13.1816C131.154 13.6465 131.357 13.9723 131.585 14.1592C131.813 14.346 132.146 14.4395 132.583 14.4395V15H128.037V14.5078L129.295 14.2275ZM126.424 6.81055L124.886 10.8027H127.969L126.499 6.81055H126.424ZM133.144 14.0225C133.144 13.7035 133.251 13.4368 133.465 13.2227C133.679 13.0085 133.946 12.9014 134.265 12.9014C134.584 12.9014 134.85 13.0176 135.064 13.25C135.279 13.4824 135.386 13.7855 135.386 14.1592C135.386 14.4964 135.329 14.8337 135.215 15.1709C135.105 15.5127 134.973 15.7998 134.818 16.0322C134.663 16.2692 134.506 16.4834 134.347 16.6748C134.187 16.8662 134.053 17.0075 133.943 17.0986L133.772 17.2422L133.355 16.8184C133.82 16.2578 134.101 15.6973 134.196 15.1367C133.918 15.1367 133.672 15.0296 133.458 14.8154C133.248 14.5967 133.144 14.3324 133.144 14.0225ZM140.499 4.78027V4.21973H148.688V7.09082H147.984C147.984 6.31608 147.852 5.77376 147.588 5.46387C147.324 5.14941 146.872 4.99219 146.234 4.99219H143.575V9.12109H144.977C145.501 9.12109 145.84 9.03906 145.995 8.875C146.155 8.71094 146.234 8.34863 146.234 7.78809H146.938V11.4316H146.234C146.234 10.8073 146.148 10.3949 145.975 10.1943C145.806 9.98926 145.473 9.88672 144.977 9.88672H143.575V12.9697C143.575 13.5667 143.682 13.9609 143.896 14.1523C144.111 14.3438 144.564 14.4395 145.257 14.4395V15H140.499V14.5078L141.688 14.2275V6.25C141.688 5.62565 141.613 5.22461 141.463 5.04688C141.317 4.86914 140.996 4.78027 140.499 4.78027ZM149.741 4.21973H154.15C155.363 4.21973 156.26 4.45215 156.844 4.91699C157.427 5.37728 157.719 6.00846 157.719 6.81055C157.719 7.23893 157.623 7.61491 157.432 7.93848C157.24 8.25749 157.006 8.49447 156.728 8.64941C156.454 8.80436 156.178 8.92741 155.9 9.01855C155.627 9.10514 155.397 9.15755 155.21 9.17578L154.916 9.18945V9.25781C154.962 9.25781 155.028 9.26009 155.114 9.26465C155.201 9.26921 155.363 9.29427 155.6 9.33984C155.837 9.38086 156.062 9.43783 156.276 9.51074C156.491 9.5791 156.728 9.6862 156.987 9.83203C157.252 9.97331 157.479 10.1396 157.671 10.3311C157.862 10.5225 158.022 10.7754 158.149 11.0898C158.282 11.3997 158.348 11.7461 158.348 12.1289C158.348 13.0176 158.017 13.7194 157.356 14.2344C156.7 14.7448 155.702 15 154.362 15H149.741V14.5078L150.931 14.2275V6.25C150.931 5.62565 150.855 5.22461 150.705 5.04688C150.555 4.86914 150.233 4.78027 149.741 4.78027V4.21973ZM152.817 14.2275H153.938C155.479 14.2275 156.249 13.4574 156.249 11.917C156.249 10.4222 155.479 9.67708 153.938 9.68164H152.817V14.2275ZM152.817 8.84082H153.802C155.014 8.84082 155.62 8.20964 155.62 6.94727C155.62 5.63932 155.014 4.98763 153.802 4.99219H152.817V8.84082ZM166.537 14.2275L165.56 11.5684H161.848L161.219 13.1133C161.128 13.3457 161.08 13.5781 161.075 13.8105C161.075 14.0339 161.144 14.1956 161.28 14.2959C161.417 14.3916 161.677 14.4395 162.06 14.4395V15H158.56V14.5078L159.749 14.2275L163.741 4.08301H164.719L168.219 13.1816C168.396 13.6465 168.599 13.9723 168.827 14.1592C169.055 14.346 169.388 14.4395 169.825 14.4395V15H165.279V14.5078L166.537 14.2275ZM163.666 6.81055L162.128 10.8027H165.211L163.741 6.81055H163.666ZM177.946 11.4316V6.25C177.946 5.62565 177.871 5.22461 177.721 5.04688C177.57 4.86914 177.249 4.78027 176.757 4.78027V4.21973H180.188V4.71191L178.999 4.99219V11.4316C178.999 12.6348 178.65 13.5667 177.953 14.2275C177.256 14.8838 176.251 15.2119 174.938 15.2119C173.658 15.2119 172.66 14.8747 171.944 14.2002C171.233 13.5212 170.878 12.5983 170.878 11.4316V6.23633C170.878 5.62109 170.803 5.22461 170.652 5.04688C170.502 4.86914 170.181 4.78027 169.688 4.78027V4.21973H173.954V4.71191L172.765 4.99219V11.4316C172.765 12.4297 172.99 13.1816 173.441 13.6875C173.897 14.1888 174.535 14.4395 175.355 14.4395C176.176 14.4395 176.812 14.1888 177.263 13.6875C177.718 13.1816 177.946 12.4297 177.946 11.4316ZM182.294 14.2275V6.25C182.294 5.62565 182.219 5.22461 182.068 5.04688C181.918 4.86914 181.597 4.78027 181.104 4.78027V4.21973H185.514V4.71191L184.181 4.99219V14.2275H186.703C187.478 14.2275 188.032 14.0589 188.364 13.7217C188.701 13.3799 188.941 12.7555 189.082 11.8486H189.779L189.431 15H181.104V14.5078L182.294 14.2275ZM199.787 6.94727C199.787 6.23633 199.634 5.69857 199.329 5.33398C199.028 4.96484 198.623 4.78027 198.112 4.78027C197.588 4.78027 197.132 5.02637 196.745 5.51855C196.358 6.00618 196.112 6.71712 196.007 7.65137H195.241V4.99219C195.355 4.91927 195.51 4.82812 195.706 4.71875C195.907 4.60938 196.296 4.46354 196.875 4.28125C197.454 4.09896 198.005 4.00781 198.529 4.00781C199.591 4.00781 200.405 4.26074 200.97 4.7666C201.535 5.27246 201.817 5.95378 201.817 6.81055C201.817 7.23893 201.756 7.63542 201.633 8C201.514 8.36458 201.3 8.74967 200.99 9.15527C200.685 9.56087 200.38 9.92318 200.074 10.2422C199.773 10.5566 199.329 10.9896 198.741 11.541L196.567 13.5986H199.438C200.035 13.5986 200.491 13.4414 200.806 13.127C201.12 12.8079 201.364 12.2656 201.537 11.5H202.241L201.708 15H194.681V14.0908L197.408 11.2197C197.745 10.8643 198.01 10.5749 198.201 10.3516C198.393 10.1283 198.632 9.8138 198.919 9.4082C199.211 9.0026 199.427 8.59473 199.568 8.18457C199.714 7.76986 199.787 7.35742 199.787 6.94727ZM207.621 14.4395C208.291 14.4395 208.842 14.068 209.275 13.3252C209.713 12.5824 209.932 11.3678 209.932 9.68164C209.932 8.0319 209.706 6.80371 209.255 5.99707C208.808 5.18587 208.312 4.78027 207.765 4.78027C207.095 4.78027 206.541 5.15169 206.104 5.89453C205.671 6.63737 205.454 7.85189 205.454 9.53809C205.454 11.1878 205.677 12.4183 206.124 13.2295C206.571 14.0361 207.07 14.4395 207.621 14.4395ZM207.901 4.00781C209.077 4.00781 210.059 4.48861 210.848 5.4502C211.636 6.41178 212.03 7.75163 212.03 9.46973C212.03 11.2152 211.584 12.6097 210.69 13.6533C209.802 14.6924 208.733 15.2119 207.484 15.2119C206.309 15.2119 205.324 14.7311 204.531 13.7695C203.743 12.8079 203.349 11.4681 203.349 9.75C203.349 8.00456 203.795 6.6123 204.688 5.57324C205.582 4.52962 206.653 4.00781 207.901 4.00781ZM217.971 6.94727C217.971 6.23633 217.818 5.69857 217.513 5.33398C217.212 4.96484 216.806 4.78027 216.296 4.78027C215.772 4.78027 215.316 5.02637 214.929 5.51855C214.541 6.00618 214.295 6.71712 214.19 7.65137H213.425V4.99219C213.539 4.91927 213.694 4.82812 213.89 4.71875C214.09 4.60938 214.48 4.46354 215.059 4.28125C215.637 4.09896 216.189 4.00781 216.713 4.00781C217.775 4.00781 218.588 4.26074 219.153 4.7666C219.718 5.27246 220.001 5.95378 220.001 6.81055C220.001 7.23893 219.939 7.63542 219.816 8C219.698 8.36458 219.484 8.74967 219.174 9.15527C218.868 9.56087 218.563 9.92318 218.258 10.2422C217.957 10.5566 217.513 10.9896 216.925 11.541L214.751 13.5986H217.622C218.219 13.5986 218.675 13.4414 218.989 13.127C219.304 12.8079 219.548 12.2656 219.721 11.5H220.425L219.892 15H212.864V14.0908L215.592 11.2197C215.929 10.8643 216.193 10.5749 216.385 10.3516C216.576 10.1283 216.815 9.8138 217.103 9.4082C217.394 9.0026 217.611 8.59473 217.752 8.18457C217.898 7.76986 217.971 7.35742 217.971 6.94727ZM225.805 14.4395C226.475 14.4395 227.026 14.068 227.459 13.3252C227.896 12.5824 228.115 11.3678 228.115 9.68164C228.115 8.0319 227.89 6.80371 227.438 5.99707C226.992 5.18587 226.495 4.78027 225.948 4.78027C225.278 4.78027 224.725 5.15169 224.287 5.89453C223.854 6.63737 223.638 7.85189 223.638 9.53809C223.638 11.1878 223.861 12.4183 224.308 13.2295C224.754 14.0361 225.253 14.4395 225.805 14.4395ZM226.085 4.00781C227.261 4.00781 228.243 4.48861 229.031 5.4502C229.82 6.41178 230.214 7.75163 230.214 9.46973C230.214 11.2152 229.767 12.6097 228.874 13.6533C227.985 14.6924 226.917 15.2119 225.668 15.2119C224.492 15.2119 223.508 14.7311 222.715 13.7695C221.926 12.8079 221.532 11.4681 221.532 9.75C221.532 8.00456 221.979 6.6123 222.872 5.57324C223.765 4.52962 224.836 4.00781 226.085 4.00781Z" fill="white"/>
</svg>
