<svg width="61" height="16" viewBox="0 0 61 16" fill="none" xmlns="http://www.w3.org/2000/svg">
<path d="M12.5439 2.13281V12.3896C12.5439 13.1924 12.6377 13.708 12.8252 13.9365C13.0186 14.165 13.4346 14.2793 14.0732 14.2793V15H8.58008V14.3672L10.1094 14.0068V8.33789H4.08008V12.3896C4.08008 13.1924 4.17676 13.708 4.37012 13.9365C4.56348 14.165 4.97656 14.2793 5.60938 14.2793V15H0.125V14.3672L1.6543 14.0068V3.75C1.6543 2.94727 1.55762 2.43164 1.36426 2.20312C1.1709 1.97461 0.757812 1.86035 0.125 1.86035V1.13965H5.60938V1.77246L4.08008 2.13281V7.25684H10.1094V3.75C10.1094 2.94727 10.0127 2.43164 9.81934 2.20312C9.63184 1.97461 9.21875 1.86035 8.58008 1.86035V1.13965H14.0732V1.77246L12.5439 2.13281ZM22.168 14.2793C23.3691 14.2793 24.3594 13.7666 25.1387 12.7412C25.918 11.7158 26.3076 10.2188 26.3076 8.25C26.3076 6.12891 25.9297 4.53516 25.1738 3.46875C24.418 2.39648 23.4746 1.86035 22.3438 1.86035C21.1426 1.86035 20.1523 2.37305 19.373 3.39844C18.5938 4.42383 18.2041 5.9209 18.2041 7.88965C18.2041 10.0107 18.582 11.6074 19.3379 12.6797C20.0938 13.7461 21.0371 14.2793 22.168 14.2793ZM21.8955 15.2725C20.0381 15.2725 18.5088 14.6279 17.3076 13.3389C16.1064 12.0439 15.5059 10.3477 15.5059 8.25C15.5059 6.09961 16.1797 4.33301 17.5273 2.9502C18.8809 1.56152 20.5771 0.867188 22.6162 0.867188C24.4736 0.867188 26.0029 1.51465 27.2041 2.80957C28.4053 4.09863 29.0059 5.79199 29.0059 7.88965C29.0059 10.04 28.3291 11.8096 26.9756 13.1982C25.6279 14.5811 23.9346 15.2725 21.8955 15.2725ZM46.1973 2.13281L46.7334 12.5742C46.7686 13.2949 46.8945 13.7607 47.1113 13.9717C47.3281 14.1768 47.7734 14.2793 48.4473 14.2793V15H42.8662V14.3672L44.3955 14.0068L43.9473 4.55859V3.57422H43.8506L39.7109 15H38.542L34.042 4.55859L33.7783 3.57422H33.6816L33.3213 12.4775C33.2979 13.2334 33.374 13.7227 33.5498 13.9453C33.7256 14.168 34.1299 14.2793 34.7627 14.2793V15H30.3506V14.3672L31.8887 14.0068L32.3369 3.75C32.3721 2.94727 32.2959 2.43164 32.1084 2.20312C31.9209 1.97461 31.4873 1.86035 30.8076 1.86035V1.13965H35.1758L39.2627 10.6758L39.5352 11.6689H39.623L43.4023 1.13965H47.7266V1.77246L46.1973 2.13281ZM60.2422 15H49.625V14.3672L51.1543 14.0068V3.75C51.1543 2.94727 51.0576 2.43164 50.8643 2.20312C50.6709 1.97461 50.2578 1.86035 49.625 1.86035V1.13965H60.1543V4.83105H59.249C59.249 3.83496 59.0791 3.1377 58.7393 2.73926C58.3994 2.33496 57.8193 2.13281 56.999 2.13281H53.5801V7.35352H55.6543C56.3281 7.35352 56.7646 7.24805 56.9639 7.03711C57.1689 6.82617 57.2715 6.36035 57.2715 5.63965H58.168V10.2275H57.2715C57.2715 9.47168 57.1602 8.96777 56.9375 8.71582C56.7148 8.46387 56.2871 8.33789 55.6543 8.33789H53.5801V14.0068H56.7354C57.6846 14.0068 58.3701 13.79 58.792 13.3564C59.2197 12.917 59.5244 12.1143 59.7061 10.9482H60.6025L60.2422 15Z" fill="#ED1C24"/>
</svg>
