<svg width="287" height="24" viewBox="0 0 287 24" fill="none" xmlns="http://www.w3.org/2000/svg">
<path d="M2.23047 9.44141V3.32422H0.191406V2.45703C0.941406 2.36328 1.61328 2.17578 2.20703 1.89453C2.80078 1.61328 3.20703 1.35937 3.42578 1.13281L3.74219 0.804688H4.63281V7.76562C4.63281 8.46875 4.75391 8.94531 4.99609 9.19531C5.24609 9.4375 5.72266 9.55859 6.42578 9.55859V10.4023H0.425781V9.67578L2.23047 9.44141ZM16.75 21.6758V8C16.75 6.92969 16.6211 6.24219 16.3633 5.9375C16.1055 5.63281 15.5547 5.48047 14.7109 5.48047V4.51953H22.2695V5.36328L19.9844 5.84375V21.6758H24.3086C25.6367 21.6758 26.5859 21.3867 27.1562 20.8086C27.7344 20.2227 28.1445 19.1523 28.3867 17.5977H29.582L28.9844 23H14.7109V22.1562L16.75 21.6758ZM35.4648 10.5195V20.1172C35.4648 20.9453 35.5742 21.4922 35.793 21.7578C36.0195 22.0234 36.4688 22.1562 37.1406 22.1562V23H30.6602V22.1562L32.3359 21.8047V14.4805C32.3359 13.5977 32.2109 12.9961 31.9609 12.6758C31.7188 12.3555 31.2852 12.1953 30.6602 12.1953V11.3633C31.4102 11.3008 32.1836 11.1992 32.9805 11.0586C33.7852 10.9102 34.4023 10.7773 34.832 10.6602L35.4648 10.5195ZM32.5352 7.8125C32.168 7.44531 31.9844 6.98828 31.9844 6.44141C31.9844 5.89453 32.168 5.4375 32.5352 5.07031C32.9023 4.70313 33.3555 4.51953 33.8945 4.51953C34.4414 4.51953 34.8984 4.70313 35.2656 5.07031C35.6328 5.4375 35.8164 5.89453 35.8164 6.44141C35.8164 6.98828 35.6328 7.44531 35.2656 7.8125C34.8984 8.17969 34.4414 8.36328 33.8945 8.36328C33.3555 8.36328 32.9023 8.17969 32.5352 7.8125ZM37.8555 12.3242V11.2344L39.7773 10.8828V7.51953L42.168 6.67578H42.8945V10.8828H46.7266V12.5586H45.4141L42.8945 12.0781V19.5195C42.8945 20.6367 43.4531 21.1953 44.5703 21.1953C44.9531 21.1953 45.3242 21.1367 45.6836 21.0195C46.043 20.9023 46.3047 20.7773 46.4688 20.6445L46.7266 20.4805L47.207 21.0781C47.1602 21.1406 47.0977 21.2227 47.0195 21.3242C46.9414 21.418 46.7695 21.5898 46.5039 21.8398C46.2383 22.082 45.9609 22.3008 45.6719 22.4961C45.3906 22.6914 45.0273 22.8633 44.582 23.0117C44.1445 23.1602 43.7031 23.2344 43.2578 23.2344C40.9375 23.2344 39.7773 22.0781 39.7773 19.7656V12.3242H37.8555ZM54.4141 11.9609C53.7734 11.9609 53.2148 12.2539 52.7383 12.8398C52.2695 13.418 51.9492 14.2852 51.7773 15.4414L56.3359 15.0781C56.3359 13 55.6953 11.9609 54.4141 11.9609ZM54.6484 10.6367C56.1562 10.6367 57.3359 11.0742 58.1875 11.9492C59.0469 12.8242 59.5078 14.0664 59.5703 15.6758L58.375 16.6367H51.6484V16.7656C51.6484 18.0625 52.0117 19.1055 52.7383 19.8945C53.4727 20.6836 54.3906 21.0781 55.4922 21.0781C56.1641 21.0781 56.8008 20.9922 57.4023 20.8203C58.0039 20.6406 58.4297 20.457 58.6797 20.2695L59.0898 20L59.5703 20.4805C59.5234 20.5586 59.4531 20.6602 59.3594 20.7852C59.2656 20.9023 59.0547 21.1211 58.7266 21.4414C58.3984 21.7617 58.043 22.043 57.6602 22.2852C57.2852 22.5195 56.793 22.7383 56.1836 22.9414C55.582 23.1367 54.9531 23.2344 54.2969 23.2344C52.6016 23.2344 51.1953 22.6641 50.0781 21.5234C48.9688 20.3828 48.4141 18.918 48.4141 17.1289C48.4141 15.332 49.0273 13.8008 50.2539 12.5352C51.4883 11.2695 52.9531 10.6367 54.6484 10.6367ZM65.6992 14.2344V20.1172C65.6992 20.8984 65.8477 21.4336 66.1445 21.7227C66.4492 22.0117 67.0195 22.1562 67.8555 22.1562V23H60.8945V22.1562L62.5703 21.8047V14.4805C62.5703 13.5977 62.4453 12.9961 62.1953 12.6758C61.9531 12.3555 61.5195 12.1953 60.8945 12.1953V11.3633C61.5977 11.3008 62.3086 11.2109 63.0273 11.0938C63.7461 10.9688 64.2891 10.8594 64.6562 10.7656L65.2188 10.6367L65.4531 12.9219H65.5703C65.6172 12.8594 65.6797 12.7773 65.7578 12.6758C65.8438 12.5664 66.0273 12.3828 66.3086 12.125C66.5898 11.8672 66.8711 11.6406 67.1523 11.4453C67.4414 11.2422 67.8008 11.0586 68.2305 10.8945C68.668 10.7227 69.1016 10.6367 69.5312 10.6367C69.8516 10.6367 70.1641 10.668 70.4688 10.7305C70.7734 10.7852 70.9883 10.8438 71.1133 10.9062L71.3359 11V15.0781H69.7773L68.9336 12.6758C68.3555 12.6758 67.7969 12.8047 67.2578 13.0625C66.7266 13.3203 66.332 13.5781 66.0742 13.8359L65.6992 14.2344ZM82.7266 14.8438V19.4023C82.7266 20.2852 82.8516 20.8867 83.1016 21.207C83.3516 21.5195 83.7852 21.6758 84.4023 21.6758V22.5195C83.6992 22.582 82.9883 22.6758 82.2695 22.8008C81.5508 22.918 81.0078 23.0156 80.6406 23.0938L80.0898 23.2344L79.8438 20.9609H79.7266C79.6797 21.0234 79.6133 21.1094 79.5273 21.2188C79.4492 21.3203 79.2773 21.5 79.0117 21.7578C78.7539 22.0078 78.4766 22.2344 78.1797 22.4375C77.8828 22.6328 77.5 22.8164 77.0312 22.9883C76.5703 23.1523 76.1094 23.2344 75.6484 23.2344C74.6562 23.2344 73.8672 22.9766 73.2812 22.4609C72.6953 21.9375 72.4023 21.2773 72.4023 20.4805C72.4023 19.793 72.6484 19.1602 73.1406 18.582C73.6406 18.0039 74.2422 17.5508 74.9453 17.2227C75.6562 16.8945 76.3633 16.6172 77.0664 16.3906C77.7695 16.1562 78.3672 16 78.8594 15.9219L79.6094 15.8047V15.0781C79.6094 13 78.8477 11.9609 77.3242 11.9609C77.0664 11.9609 76.8086 11.9922 76.5508 12.0547C76.3008 12.1172 76.1055 12.1797 75.9648 12.2422L75.7656 12.3242L74.9219 14.9609H73.2461V11.8438C73.4023 11.75 73.625 11.6406 73.9141 11.5156C74.2031 11.3828 74.7812 11.2031 75.6484 10.9766C76.5156 10.75 77.3555 10.6367 78.168 10.6367C79.5898 10.6367 80.7031 11.0195 81.5078 11.7852C82.3203 12.543 82.7266 13.5625 82.7266 14.8438ZM77.0898 20.9609C77.5195 20.9609 77.9414 20.8633 78.3555 20.668C78.7773 20.4648 79.0898 20.2656 79.293 20.0703L79.6094 19.7656V17C79.5 17.0156 79.3555 17.0391 79.1758 17.0703C78.9961 17.1016 78.6797 17.1914 78.2266 17.3398C77.7734 17.4805 77.375 17.6445 77.0312 17.832C76.6875 18.0117 76.3711 18.2617 76.082 18.582C75.793 18.9023 75.6484 19.2539 75.6484 19.6367C75.6484 20.5195 76.1289 20.9609 77.0898 20.9609ZM90.0508 14.2344V20.1172C90.0508 20.8984 90.1992 21.4336 90.4961 21.7227C90.8008 22.0117 91.3711 22.1562 92.207 22.1562V23H85.2461V22.1562L86.9219 21.8047V14.4805C86.9219 13.5977 86.7969 12.9961 86.5469 12.6758C86.3047 12.3555 85.8711 12.1953 85.2461 12.1953V11.3633C85.9492 11.3008 86.6602 11.2109 87.3789 11.0938C88.0977 10.9688 88.6406 10.8594 89.0078 10.7656L89.5703 10.6367L89.8047 12.9219H89.9219C89.9688 12.8594 90.0312 12.7773 90.1094 12.6758C90.1953 12.5664 90.3789 12.3828 90.6602 12.125C90.9414 11.8672 91.2227 11.6406 91.5039 11.4453C91.793 11.2422 92.1523 11.0586 92.582 10.8945C93.0195 10.7227 93.4531 10.6367 93.8828 10.6367C94.2031 10.6367 94.5156 10.668 94.8203 10.7305C95.125 10.7852 95.3398 10.8438 95.4648 10.9062L95.6875 11V15.0781H94.1289L93.2852 12.6758C92.707 12.6758 92.1484 12.8047 91.6094 13.0625C91.0781 13.3203 90.6836 13.5781 90.4258 13.8359L90.0508 14.2344ZM101.324 10.5195V20.1172C101.324 20.9453 101.434 21.4922 101.652 21.7578C101.879 22.0234 102.328 22.1562 103 22.1562V23H96.5195V22.1562L98.1953 21.8047V14.4805C98.1953 13.5977 98.0703 12.9961 97.8203 12.6758C97.5781 12.3555 97.1445 12.1953 96.5195 12.1953V11.3633C97.2695 11.3008 98.043 11.1992 98.8398 11.0586C99.6445 10.9102 100.262 10.7773 100.691 10.6602L101.324 10.5195ZM98.3945 7.8125C98.0273 7.44531 97.8438 6.98828 97.8438 6.44141C97.8438 5.89453 98.0273 5.4375 98.3945 5.07031C98.7617 4.70313 99.2148 4.51953 99.7539 4.51953C100.301 4.51953 100.758 4.70313 101.125 5.07031C101.492 5.4375 101.676 5.89453 101.676 6.44141C101.676 6.98828 101.492 7.44531 101.125 7.8125C100.758 8.17969 100.301 8.36328 99.7539 8.36328C99.2148 8.36328 98.7617 8.17969 98.3945 7.8125ZM114.391 14.8438V19.4023C114.391 20.2852 114.516 20.8867 114.766 21.207C115.016 21.5195 115.449 21.6758 116.066 21.6758V22.5195C115.363 22.582 114.652 22.6758 113.934 22.8008C113.215 22.918 112.672 23.0156 112.305 23.0938L111.754 23.2344L111.508 20.9609H111.391C111.344 21.0234 111.277 21.1094 111.191 21.2188C111.113 21.3203 110.941 21.5 110.676 21.7578C110.418 22.0078 110.141 22.2344 109.844 22.4375C109.547 22.6328 109.164 22.8164 108.695 22.9883C108.234 23.1523 107.773 23.2344 107.312 23.2344C106.32 23.2344 105.531 22.9766 104.945 22.4609C104.359 21.9375 104.066 21.2773 104.066 20.4805C104.066 19.793 104.312 19.1602 104.805 18.582C105.305 18.0039 105.906 17.5508 106.609 17.2227C107.32 16.8945 108.027 16.6172 108.73 16.3906C109.434 16.1562 110.031 16 110.523 15.9219L111.273 15.8047V15.0781C111.273 13 110.512 11.9609 108.988 11.9609C108.73 11.9609 108.473 11.9922 108.215 12.0547C107.965 12.1172 107.77 12.1797 107.629 12.2422L107.43 12.3242L106.586 14.9609H104.91V11.8438C105.066 11.75 105.289 11.6406 105.578 11.5156C105.867 11.3828 106.445 11.2031 107.312 10.9766C108.18 10.75 109.02 10.6367 109.832 10.6367C111.254 10.6367 112.367 11.0195 113.172 11.7852C113.984 12.543 114.391 13.5625 114.391 14.8438ZM108.754 20.9609C109.184 20.9609 109.605 20.8633 110.02 20.668C110.441 20.4648 110.754 20.2656 110.957 20.0703L111.273 19.7656V17C111.164 17.0156 111.02 17.0391 110.84 17.0703C110.66 17.1016 110.344 17.1914 109.891 17.3398C109.438 17.4805 109.039 17.6445 108.695 17.832C108.352 18.0117 108.035 18.2617 107.746 18.582C107.457 18.9023 107.312 19.2539 107.312 19.6367C107.312 20.5195 107.793 20.9609 108.754 20.9609ZM136.832 15.5586V20.1172C136.832 20.9453 136.941 21.4922 137.16 21.7578C137.387 22.0234 137.836 22.1562 138.508 22.1562V23H132.273V22.1562L133.715 21.8047V15.5586C133.715 14.6758 133.52 14.0156 133.129 13.5781C132.746 13.1406 132.219 12.9219 131.547 12.9219C131.148 12.9219 130.75 13.0117 130.352 13.1914C129.953 13.3633 129.648 13.543 129.438 13.7305L129.145 14C129.223 14.3203 129.266 14.8398 129.273 15.5586V20.1172C129.273 20.9453 129.379 21.4922 129.59 21.7578C129.809 22.0234 130.223 22.1562 130.832 22.1562V23H124.715V22.1562L126.145 21.8047V15.5586C126.145 14.6758 125.953 14.0156 125.57 13.5781C125.188 13.1406 124.66 12.9219 123.988 12.9219C123.637 12.9219 123.27 13.0117 122.887 13.1914C122.504 13.3633 122.207 13.543 121.996 13.7305L121.715 14V20.1172C121.715 20.9453 121.82 21.4922 122.031 21.7578C122.25 22.0234 122.664 22.1562 123.273 22.1562V23H116.91V22.1562L118.586 21.8047V14.4805C118.586 13.5977 118.461 12.9961 118.211 12.6758C117.969 12.3555 117.535 12.1953 116.91 12.1953V11.3633C117.613 11.3008 118.324 11.2109 119.043 11.0938C119.762 10.9688 120.305 10.8594 120.672 10.7656L121.234 10.6367L121.469 12.6758H121.586C121.633 12.6289 121.695 12.5586 121.773 12.4648C121.859 12.3711 122.035 12.207 122.301 11.9727C122.566 11.7383 122.84 11.5312 123.121 11.3516C123.41 11.1641 123.773 11 124.211 10.8594C124.656 10.7109 125.102 10.6367 125.547 10.6367C126 10.6367 126.418 10.7109 126.801 10.8594C127.184 11 127.492 11.1719 127.727 11.375C127.969 11.5703 128.172 11.7656 128.336 11.9609C128.508 12.1484 128.629 12.3164 128.699 12.4648L128.793 12.6758H128.91C128.957 12.6289 129.02 12.5586 129.098 12.4648C129.184 12.3711 129.359 12.207 129.625 11.9727C129.898 11.7383 130.188 11.5312 130.492 11.3516C130.797 11.1641 131.184 11 131.652 10.8594C132.129 10.7109 132.613 10.6367 133.105 10.6367C134.238 10.6367 135.141 11.0547 135.812 11.8906C136.492 12.7188 136.832 13.9414 136.832 15.5586ZM145.82 11.9609C145.18 11.9609 144.621 12.2539 144.145 12.8398C143.676 13.418 143.355 14.2852 143.184 15.4414L147.742 15.0781C147.742 13 147.102 11.9609 145.82 11.9609ZM146.055 10.6367C147.562 10.6367 148.742 11.0742 149.594 11.9492C150.453 12.8242 150.914 14.0664 150.977 15.6758L149.781 16.6367H143.055V16.7656C143.055 18.0625 143.418 19.1055 144.145 19.8945C144.879 20.6836 145.797 21.0781 146.898 21.0781C147.57 21.0781 148.207 20.9922 148.809 20.8203C149.41 20.6406 149.836 20.457 150.086 20.2695L150.496 20L150.977 20.4805C150.93 20.5586 150.859 20.6602 150.766 20.7852C150.672 20.9023 150.461 21.1211 150.133 21.4414C149.805 21.7617 149.449 22.043 149.066 22.2852C148.691 22.5195 148.199 22.7383 147.59 22.9414C146.988 23.1367 146.359 23.2344 145.703 23.2344C144.008 23.2344 142.602 22.6641 141.484 21.5234C140.375 20.3828 139.82 18.918 139.82 17.1289C139.82 15.332 140.434 13.8008 141.66 12.5352C142.895 11.2695 144.359 10.6367 146.055 10.6367ZM165.145 15.4414V20.1172C165.145 20.9453 165.254 21.4922 165.473 21.7578C165.699 22.0234 166.148 22.1562 166.82 22.1562V23H160.34V22.1562L162.016 21.8047V15.5586C162.016 14.6133 161.836 13.9375 161.477 13.5312C161.117 13.125 160.539 12.9219 159.742 12.9219C159.312 12.9219 158.875 13.0234 158.43 13.2266C157.992 13.4219 157.66 13.625 157.434 13.8359L157.105 14.1172V20.1172C157.105 20.9453 157.215 21.4922 157.434 21.7578C157.66 22.0234 158.109 22.1562 158.781 22.1562V23H152.301V22.1562L153.977 21.8047V14.4805C153.977 13.5977 153.852 12.9961 153.602 12.6758C153.359 12.3555 152.926 12.1953 152.301 12.1953V11.3633C153.004 11.3008 153.715 11.2109 154.434 11.0938C155.152 10.9688 155.695 10.8594 156.062 10.7656L156.625 10.6367L156.859 12.9219H156.977C157.023 12.8594 157.09 12.7773 157.176 12.6758C157.27 12.5664 157.461 12.3828 157.75 12.125C158.039 11.8672 158.34 11.6406 158.652 11.4453C158.965 11.2422 159.359 11.0586 159.836 10.8945C160.312 10.7227 160.801 10.6367 161.301 10.6367C162.488 10.6367 163.426 11.0469 164.113 11.8672C164.801 12.6797 165.145 13.8711 165.145 15.4414ZM167.301 12.3242V11.2344L169.223 10.8828V7.51953L171.613 6.67578H172.34V10.8828H176.172V12.5586H174.859L172.34 12.0781V19.5195C172.34 20.6367 172.898 21.1953 174.016 21.1953C174.398 21.1953 174.77 21.1367 175.129 21.0195C175.488 20.9023 175.75 20.7773 175.914 20.6445L176.172 20.4805L176.652 21.0781C176.605 21.1406 176.543 21.2227 176.465 21.3242C176.387 21.418 176.215 21.5898 175.949 21.8398C175.684 22.082 175.406 22.3008 175.117 22.4961C174.836 22.6914 174.473 22.8633 174.027 23.0117C173.59 23.1602 173.148 23.2344 172.703 23.2344C170.383 23.2344 169.223 22.0781 169.223 19.7656V12.3242H167.301ZM183.859 11.9609C183.219 11.9609 182.66 12.2539 182.184 12.8398C181.715 13.418 181.395 14.2852 181.223 15.4414L185.781 15.0781C185.781 13 185.141 11.9609 183.859 11.9609ZM184.094 10.6367C185.602 10.6367 186.781 11.0742 187.633 11.9492C188.492 12.8242 188.953 14.0664 189.016 15.6758L187.82 16.6367H181.094V16.7656C181.094 18.0625 181.457 19.1055 182.184 19.8945C182.918 20.6836 183.836 21.0781 184.938 21.0781C185.609 21.0781 186.246 20.9922 186.848 20.8203C187.449 20.6406 187.875 20.457 188.125 20.2695L188.535 20L189.016 20.4805C188.969 20.5586 188.898 20.6602 188.805 20.7852C188.711 20.9023 188.5 21.1211 188.172 21.4414C187.844 21.7617 187.488 22.043 187.105 22.2852C186.73 22.5195 186.238 22.7383 185.629 22.9414C185.027 23.1367 184.398 23.2344 183.742 23.2344C182.047 23.2344 180.641 22.6641 179.523 21.5234C178.414 20.3828 177.859 18.918 177.859 17.1289C177.859 15.332 178.473 13.8008 179.699 12.5352C180.934 11.2695 182.398 10.6367 184.094 10.6367ZM207.262 22.0391C210.012 22.0391 211.773 20.5586 212.547 17.5977H213.625L213.027 21.9219C212.832 22.0312 212.562 22.168 212.219 22.332C211.875 22.4883 211.172 22.6992 210.109 22.9648C209.047 23.2305 207.977 23.3633 206.898 23.3633C204.195 23.3633 202 22.5078 200.312 20.7969C198.625 19.0781 197.781 16.8125 197.781 14C197.781 11.1172 198.691 8.75781 200.512 6.92188C202.34 5.07813 204.672 4.15625 207.508 4.15625C208.438 4.15625 209.359 4.25781 210.273 4.46094C211.195 4.66406 211.887 4.85938 212.348 5.04688L213.027 5.36328V10.0391H211.938C211.758 8.60156 211.262 7.48438 210.449 6.6875C209.637 5.88281 208.574 5.48047 207.262 5.48047C205.504 5.48047 204.082 6.15625 202.996 7.50781C201.918 8.85938 201.379 10.8633 201.379 13.5195C201.379 16.3867 201.914 18.5234 202.984 19.9297C204.062 21.3359 205.488 22.0391 207.262 22.0391ZM224.652 17.1172C224.652 15.375 224.34 14.0625 223.715 13.1797C223.09 12.2891 222.32 11.8438 221.406 11.8438C220.609 11.8438 219.91 12.2734 219.309 13.1328C218.707 13.9844 218.406 15.1953 218.406 16.7656C218.406 18.5078 218.719 19.8242 219.344 20.7148C219.969 21.5977 220.738 22.0391 221.652 22.0391C222.449 22.0391 223.148 21.6133 223.75 20.7617C224.352 19.9023 224.652 18.6875 224.652 17.1172ZM227.887 16.8828C227.887 18.6875 227.262 20.1992 226.012 21.418C224.77 22.6289 223.195 23.2344 221.289 23.2344C219.484 23.2344 218.012 22.6602 216.871 21.5117C215.738 20.3633 215.172 18.8594 215.172 17C215.172 15.1953 215.793 13.6836 217.035 12.4648C218.285 11.2461 219.863 10.6367 221.77 10.6367C223.574 10.6367 225.043 11.2148 226.176 12.3711C227.316 13.5195 227.887 15.0234 227.887 16.8828ZM234.145 14.2344V20.1172C234.145 20.8984 234.293 21.4336 234.59 21.7227C234.895 22.0117 235.465 22.1562 236.301 22.1562V23H229.34V22.1562L231.016 21.8047V14.4805C231.016 13.5977 230.891 12.9961 230.641 12.6758C230.398 12.3555 229.965 12.1953 229.34 12.1953V11.3633C230.043 11.3008 230.754 11.2109 231.473 11.0938C232.191 10.9688 232.734 10.8594 233.102 10.7656L233.664 10.6367L233.898 12.9219H234.016C234.062 12.8594 234.125 12.7773 234.203 12.6758C234.289 12.5664 234.473 12.3828 234.754 12.125C235.035 11.8672 235.316 11.6406 235.598 11.4453C235.887 11.2422 236.246 11.0586 236.676 10.8945C237.113 10.7227 237.547 10.6367 237.977 10.6367C238.297 10.6367 238.609 10.668 238.914 10.7305C239.219 10.7852 239.434 10.8438 239.559 10.9062L239.781 11V15.0781H238.223L237.379 12.6758C236.801 12.6758 236.242 12.8047 235.703 13.0625C235.172 13.3203 234.777 13.5781 234.52 13.8359L234.145 14.2344ZM245.418 14.2344V20.1172C245.418 20.8984 245.566 21.4336 245.863 21.7227C246.168 22.0117 246.738 22.1562 247.574 22.1562V23H240.613V22.1562L242.289 21.8047V14.4805C242.289 13.5977 242.164 12.9961 241.914 12.6758C241.672 12.3555 241.238 12.1953 240.613 12.1953V11.3633C241.316 11.3008 242.027 11.2109 242.746 11.0938C243.465 10.9688 244.008 10.8594 244.375 10.7656L244.938 10.6367L245.172 12.9219H245.289C245.336 12.8594 245.398 12.7773 245.477 12.6758C245.562 12.5664 245.746 12.3828 246.027 12.125C246.309 11.8672 246.59 11.6406 246.871 11.4453C247.16 11.2422 247.52 11.0586 247.949 10.8945C248.387 10.7227 248.82 10.6367 249.25 10.6367C249.57 10.6367 249.883 10.668 250.188 10.7305C250.492 10.7852 250.707 10.8438 250.832 10.9062L251.055 11V15.0781H249.496L248.652 12.6758C248.074 12.6758 247.516 12.8047 246.977 13.0625C246.445 13.3203 246.051 13.5781 245.793 13.8359L245.418 14.2344ZM258.133 11.9609C257.492 11.9609 256.934 12.2539 256.457 12.8398C255.988 13.418 255.668 14.2852 255.496 15.4414L260.055 15.0781C260.055 13 259.414 11.9609 258.133 11.9609ZM258.367 10.6367C259.875 10.6367 261.055 11.0742 261.906 11.9492C262.766 12.8242 263.227 14.0664 263.289 15.6758L262.094 16.6367H255.367V16.7656C255.367 18.0625 255.73 19.1055 256.457 19.8945C257.191 20.6836 258.109 21.0781 259.211 21.0781C259.883 21.0781 260.52 20.9922 261.121 20.8203C261.723 20.6406 262.148 20.457 262.398 20.2695L262.809 20L263.289 20.4805C263.242 20.5586 263.172 20.6602 263.078 20.7852C262.984 20.9023 262.773 21.1211 262.445 21.4414C262.117 21.7617 261.762 22.043 261.379 22.2852C261.004 22.5195 260.512 22.7383 259.902 22.9414C259.301 23.1367 258.672 23.2344 258.016 23.2344C256.32 23.2344 254.914 22.6641 253.797 21.5234C252.688 20.3828 252.133 18.918 252.133 17.1289C252.133 15.332 252.746 13.8008 253.973 12.5352C255.207 11.2695 256.672 10.6367 258.367 10.6367ZM264.496 12.3242V11.2344L266.418 10.8828V7.51953L268.809 6.67578H269.535V10.8828H273.367V12.5586H272.055L269.535 12.0781V19.5195C269.535 20.6367 270.094 21.1953 271.211 21.1953C271.594 21.1953 271.965 21.1367 272.324 21.0195C272.684 20.9023 272.945 20.7773 273.109 20.6445L273.367 20.4805L273.848 21.0781C273.801 21.1406 273.738 21.2227 273.66 21.3242C273.582 21.418 273.41 21.5898 273.145 21.8398C272.879 22.082 272.602 22.3008 272.312 22.4961C272.031 22.6914 271.668 22.8633 271.223 23.0117C270.785 23.1602 270.344 23.2344 269.898 23.2344C267.578 23.2344 266.418 22.0781 266.418 19.7656V12.3242H264.496ZM285.133 14.8438V19.4023C285.133 20.2852 285.258 20.8867 285.508 21.207C285.758 21.5195 286.191 21.6758 286.809 21.6758V22.5195C286.105 22.582 285.395 22.6758 284.676 22.8008C283.957 22.918 283.414 23.0156 283.047 23.0938L282.496 23.2344L282.25 20.9609H282.133C282.086 21.0234 282.02 21.1094 281.934 21.2188C281.855 21.3203 281.684 21.5 281.418 21.7578C281.16 22.0078 280.883 22.2344 280.586 22.4375C280.289 22.6328 279.906 22.8164 279.438 22.9883C278.977 23.1523 278.516 23.2344 278.055 23.2344C277.062 23.2344 276.273 22.9766 275.688 22.4609C275.102 21.9375 274.809 21.2773 274.809 20.4805C274.809 19.793 275.055 19.1602 275.547 18.582C276.047 18.0039 276.648 17.5508 277.352 17.2227C278.062 16.8945 278.77 16.6172 279.473 16.3906C280.176 16.1562 280.773 16 281.266 15.9219L282.016 15.8047V15.0781C282.016 13 281.254 11.9609 279.73 11.9609C279.473 11.9609 279.215 11.9922 278.957 12.0547C278.707 12.1172 278.512 12.1797 278.371 12.2422L278.172 12.3242L277.328 14.9609H275.652V11.8438C275.809 11.75 276.031 11.6406 276.32 11.5156C276.609 11.3828 277.188 11.2031 278.055 10.9766C278.922 10.75 279.762 10.6367 280.574 10.6367C281.996 10.6367 283.109 11.0195 283.914 11.7852C284.727 12.543 285.133 13.5625 285.133 14.8438ZM279.496 20.9609C279.926 20.9609 280.348 20.8633 280.762 20.668C281.184 20.4648 281.496 20.2656 281.699 20.0703L282.016 19.7656V17C281.906 17.0156 281.762 17.0391 281.582 17.0703C281.402 17.1016 281.086 17.1914 280.633 17.3398C280.18 17.4805 279.781 17.6445 279.438 17.832C279.094 18.0117 278.777 18.2617 278.488 18.582C278.199 18.9023 278.055 19.2539 278.055 19.6367C278.055 20.5195 278.535 20.9609 279.496 20.9609Z" fill="white"/>
</svg>
